<?xml version="1.0" encoding="UTF-8"?>
<svg id="Layer_1" data-name="Layer 1" xmlns="http://www.w3.org/2000/svg" viewBox="0 0 890.35 935.43">
  <defs>
    <style>
      .cls-1 {
        fill: #0444ca;
      }

      .cls-1, .cls-2, .cls-3, .cls-4, .cls-5 {
        stroke-width: 0px;
      }

      .cls-2 {
        fill: #ef4444;
      }

      .cls-4 {
        fill: #84cc16;
      }

      .cls-5 {
        fill: #ca8a04;
      }
    </style>
  </defs>
  <path class="cls-3" d="m890.3,470.2c0,105.35-.08,210.71.05,316.06.04,32.72-6.17,63.65-25.26,90.87-26.42,37.68-63.34,57.64-108.92,57.78-205.86.62-411.72-.11-617.58.52-81.3.25-134.94-64.16-137.65-131.77-1.73-43.18-.53-86.48-.55-129.72-.09-168.61-.14-337.23-.21-505.84,0-22.54-.34-45.05,5.57-67.15C21.34,42.64,74.01.66,134.3.53c184.47-.39,368.94-.24,553.41-.29,22.31,0,44.65-.65,66.93.18,55.58,2.06,96.95,27.33,121.59,77.71,10.67,21.83,13.93,45.57,13.92,69.79-.05,107.42-.02,214.85-.02,322.27h.17Zm-469.1,149.8h48.18v32.72c.01,19.6,12.61,32.37,32.22,32.44,20.47.07,40.94-.05,61.41-.05,10.81,0,20.44-3.28,28.29-10.73,9.33-8.86,18.52-17.89,27.38-27.22,3.66-3.86,7.47-5.16,12.67-5.14,36.8.17,73.6.18,110.4-.03,17.55-.1,29.34-12.91,29.01-30.81-.31-16.94-11.95-28.46-28.8-28.46s-34.04.06-51.06.08h-16.85c2.8-2.96,4.44-4.79,6.18-6.53,43.08-43.11,86.14-86.24,129.27-129.31,8.23-8.22,12.56-17.79,12.41-29.59-.25-19.32-.06-38.64-.09-57.96,0-2.33-.21-4.66-.4-8.58-4.52,4.22-7.79,7.07-10.84,10.13-71.8,71.97-143.56,143.96-215.35,215.93-12.99,13.02-25.88,26.15-39.14,38.9-6.6,6.35-14.69,9.93-23.89,9.92-.51-1.01-.88-1.41-.89-1.82-.24-11.95-.31-23.91-.69-35.86-.47-15.11-12.31-27.44-27.28-27.52-38.87-.21-77.75-.3-116.6.43-6.02.11-12.7,3.78-17.75,7.58-7.34,5.51-9.94,14.09-9.92,23.29.01,11.14,0,22.28,0,33.69-9.31-.17-16.54-2.7-22.62-8.07-4.99-4.41-9.8-9.05-14.51-13.77-76.65-76.88-153.25-153.8-229.9-230.66-7.23-7.25-14.75-14.2-23.11-22.23-.2,3.5-.44,5.69-.44,7.88-.03,19.09.13,38.18-.07,57.27-.13,12.68,4.16,23.19,13.25,32.11,32.34,31.73,64.54,63.61,96.76,95.46,12.68,12.54,25.29,25.16,38.95,38.77-3.87.22-6.29.46-8.7.47-19.78.02-39.56-.11-59.34.02-13.12.08-22.36,6.94-26.52,19.18-7.4,21.82,5.29,40.02,28.22,40.1,36.8.14,73.6-.04,110.4.26,3.45.03,7.62,1.73,10.19,4.05,8.19,7.38,15.87,15.34,23.61,23.21,10.56,10.76,23.15,15.98,38.36,15.7,18.39-.35,36.8,0,55.2,0,20.02-.02,32.24-12.17,32.36-32.19.07-10.78.01-21.56.01-33.05h.03ZM181.29,240.51c20.39-4.38,36.14.52,45.92,19.3,1.27,2.44,2.63,4.98,4.53,6.9,4.31,4.39,8.39,9.42,13.59,12.42,17.16,9.87,37.06,2.46,42.57-15.63,3.37-11.05,1.56-21.82-6.48-30.29-14.41-15.16-29.32-29.84-44.26-44.49-5.95-5.84-13.53-8.82-21.89-8.88-22.08-.15-44.16-.39-66.23.09-15.53.34-26.12,11.76-26.18,27.23-.11,29.21.07,58.42-.12,87.63-.08,13.18,4.45,23.96,13.9,33.27,54.23,53.42,108.31,106.99,162.32,160.63,10.73,10.66,23.23,15.67,38.38,15.63,70.61-.2,141.22-.42,211.82.16,18.88.15,33.51-6.22,46.63-19.42,52.35-52.7,105.04-105.07,157.79-157.38,10.24-10.15,15.58-21.91,15.46-36.29-.23-28.06-.16-56.12-.58-84.17-.25-16.81-11.29-27.38-28.14-27.48-20.24-.12-40.48.09-60.72-.03-11.2-.07-20.66,3.8-28.59,11.59-12.47,12.25-25.09,24.35-37.28,36.87-4.27,4.38-8.32,9.41-10.95,14.87-9.3,19.37,3.9,39.99,25.34,40.38,9.6.17,17.59-3.62,23.93-10.41,4.83-5.18,9-11.02,13.14-16.8,11.36-15.83,23.75-20.44,43.57-15.62,0,13.21-.28,26.53.13,39.84.18,5.85-1.83,9.97-5.95,13.85-9.54,8.98-18.83,18.24-28.15,27.46-36.95,36.55-73.91,73.09-110.77,109.73-8.46,8.41-18.25,12.43-30.29,12.41-58.88-.09-117.75.15-176.63.27-11.38.02-20.95-3.96-29-12.2-10.93-11.18-22.25-21.98-33.4-32.94-36.08-35.46-72.2-70.89-108.18-106.46-2.29-2.27-4.91-5.56-5.01-8.47-.51-14.46-.23-28.94-.23-43.6v.03Zm412.68,507.72c11.76,0,23.19.17,34.62-.05,10.67-.2,16.84-7.12,15.29-16.66-1.14-7.02-7.16-11.88-15.45-11.99-12.41-.17-24.81-.08-37.22-.08-16.31,0-24.99,8.39-25.16,24.92-.31,31.25-.39,62.5-.47,93.75-.03,9.75,4.42,14.36,13.49,14.51,9.24.15,13.81-4.16,14.09-13.82.23-8.04.01-16.08.07-24.13.01-1.95.34-3.9.56-6.29,12.4,0,24.11.28,35.8-.08,10.37-.33,16.29-8.11,14.04-17.59-1.46-6.18-8.3-11.01-16.48-11.15-10.94-.18-21.88-.05-33.17-.05v-31.31.02Zm-442.6,31.3v-31.11c11.32,0,22.1.14,32.88-.08,3.37-.07,6.98-.51,10.04-1.81,6-2.56,8.89-9.06,7.64-15.45-1.31-6.64-7.2-11.34-15.26-11.47-14.72-.22-29.44-.12-44.16-.13-11.96,0-19.38,6.4-19.71,18.24-.5,17.93-.52,35.88-.29,53.81.12,9.53,5.71,16.51,14.15,16.78,17.45.54,34.94.44,52.4-.05,7.62-.22,12.34-5.73,12.9-12.84.54-6.93-4.22-13.59-11.45-15.13-3.77-.8-7.76-.69-11.66-.73-9.15-.09-18.29-.03-27.48-.03Zm352.06,72.93c14.46,0,18.58-6.34,12.57-18.28-6.71-13.34-13.6-26.6-20.55-39.82-5.17-9.85-13.44-14.84-24.6-14.81-14.72.03-29.43.04-44.15.26-8.82.13-16.68,3.38-21.02,11.14-8.75,15.63-16.92,31.6-24.82,47.68-3.02,6.16.78,11.98,7.59,13.34,10.34,2.06,15.54-.15,20.41-9.49,5.1-9.77,9.86-19.72,14.62-29.67,1.67-3.48,3.85-5.08,7.98-4.97,11.49.29,23.01-.18,34.49.28,2.54.1,6.01,2.2,7.27,4.39,5.82,10.16,11.15,20.62,16.36,31.11,3.12,6.29,7.64,9.62,13.83,8.83h.02Zm-231.71-44.53c4.18,0,6.99.42,9.63-.08,7.25-1.36,11.32,1.98,14.7,8.04,5.25,9.43,11.13,18.5,16.83,27.67,5.09,8.21,14.34,11.34,23.18,7.97,5.46-2.08,7.95-7.38,5.41-12.8-2.03-4.34-4.7-8.41-7.33-12.44-4.23-6.49-8.65-12.86-12.99-19.28,10.64-6.92,10.03-19.86-.87-24.96-3.79-1.77-8.4-2.37-12.67-2.47-12.86-.31-25.74-.12-38.61-.09-15.99.04-24.13,7.94-24.57,24.07-.32,11.49-.43,22.98-.52,34.47-.08,9.66,4.83,14.53,14.33,14.46,9.58-.07,13.44-4.11,13.47-14.17.03-9.84,0-19.68,0-30.39h0Zm12.6-59.5v-.09c8.94,0,17.9.24,26.83-.07,9.34-.32,15.69-6.06,16.02-13.81.32-7.65-5.55-14.41-14.26-14.66-18.1-.52-36.23-.55-54.34-.21-8.43.16-14.38,7.58-13.91,15.78.43,7.55,6.54,12.97,14.9,13.04,8.25.07,16.51.02,24.77.02h0Zm441.26.02v-.7c9.87,0,19.8.61,29.6-.2,7.39-.61,11.67-6.35,11.71-13.08.05-7.35-4.73-14.14-12.12-14.42-18.37-.68-36.78-.81-55.15-.27-7.97.23-12.63,7.4-12.04,15.65.6,8.44,5.14,12.82,13.84,12.98,8.05.15,16.1.03,24.15.03h0Zm1.63,31.36v.09c-8.27,0-16.55-.27-24.8.08-8.39.35-14.51,6.65-14.73,14.41-.22,7.96,4.25,13.59,12.94,13.9,17.2.61,34.45.78,51.65.2,9.69-.32,14.94-6.71,14.43-15.01-.5-8.13-6.66-13.47-16.05-13.64-7.81-.14-15.62-.03-23.43-.03h-.01Zm-278.29-61.31c-9.86-.05-17.45,7.4-17.64,17.31-.17,9.41,7.35,16.99,16.91,17.06,9.92.07,18.35-8.03,18.32-17.6-.03-8.95-8.18-16.72-17.59-16.77h0Zm-35.92-376.84h-29.12v41.51c6.98,0,12.97.65,18.76-.17,6.76-.95,11.06-7.42,10.08-13.43-.93-5.73-7.71-11.57-13.43-11.58h-8.66v-10.12c6.23,0,11.95-.18,17.66.06,4.77.2,6.3-1.61,4.7-6.26h0Zm-27.84-127.81v27.87c0,13.74-.01,13.68,13.98,13.52,5.33-.06,10.14-.68,12.19-6.64,1.92-5.58,1.21-10.37-4.47-13.98,4.89-4.92,5.16-10.84,1.63-15.72-5.69-7.86-14.52-4.29-23.32-5.05h-.01Zm60.82-44.02c5.83-5.86,6.83-11.25,3.21-16.04-3.6-4.76-12-5.94-17.63-2.47-5.7,3.51-6.34,9.37-1.98,18.16-6.42,6.46-6.84,13.31-1.13,18.43,5.99,5.37,17.96,4.31,23.11-2.04,4.59-5.66,3.12-10.21-5.59-16.03h.01Zm50.02-79.66c-9.78-7.76-22.99-5.53-25.67,4.42-2.02,7.51-1.28,16.3.35,24.08,1.3,6.21,7.8,7.78,14.05,7.33,6.18-.44,11.31-3.78,12.14-9.41.63-4.29-1.63-9.66-4.17-13.52-1.44-2.19-6.12-3.34-9.17-3.06-3.16.28-6.11,2.85-9.02,4.36.66-10.35,5.49-13.94,15.46-11.73,1.56.35,3.58-1.4,6.04-2.46h0Zm-149.47,79.57c-6.6,7.41-6.93,12.96-1.38,18.18,4.85,4.57,15.06,4.42,20.3-.31,5.36-4.83,5.06-10.24-.97-17.15,4.18-9.45,3.76-14.82-1.47-18.48-4.8-3.35-12.73-3.03-16.68.68-4.39,4.12-4.37,9.96.21,17.07h0Zm-115.42-64.82c4.93-6.78,5.01-12.48.44-16.79-4.48-4.22-12.24-4.39-17.08-.37-4.79,3.98-4.98,9.11-.62,16.51-6.21,6.49-6.84,12.93-1.74,17.82,5.39,5.18,16.45,5.1,21.39-.16,4.7-4.99,4.01-10.86-2.37-17.02h-.02Zm-41.53-.38c4.12-8.07,3.73-13.24-1.29-17.26-4.46-3.57-11.37-3.42-15.9.35-4.84,4.03-5.28,9.75-1.33,17.24-5.38,6.81-5.59,12.76-.62,17.62,4.73,4.63,14.64,4.78,19.65.3,5.17-4.61,5-10.59-.52-18.25h0Zm116.22,75.7c0,.15-.18,1.1.03,1.96.58,2.36,1.32,4.67,2,7.01,1.01-2.15,2.65-4.24,2.88-6.48.41-4.04,1.89-5.25,5.89-3.67,0,2.36-.27,4.66.11,6.85.2,1.19,1.49,2.2,2.3,3.29.89-1.04,2.36-1.98,2.56-3.13.4-2.37.12-4.86.12-5.33,3.68-2.47,5.82-3.9,7.95-5.33-1.92-1.4-3.85-2.8-6.44-4.69.05-.74.18-2.5.26-3.64,2.57-1.27,4.64-2.29,6.7-3.31-1.83-1.51-3.67-3.02-5.74-4.72.36-2.46.8-5.51,1.25-8.66-7.03-1.6-5.53,3.32-6.55,6.42-.5,1.51-2.23,2.63-3.4,3.92-.87-1.55-1.91-3.03-2.57-4.67-.8-1.99-1.27-4.12-1.88-6.18-1.11,1.91-2.34,3.76-3.29,5.74-.47.98-.41,2.2-.4,2.14-2.84,1.97-4.86,3.36-6.87,4.75,1.98,1.59,3.96,3.17,6.78,5.44-.84,1.19-1.83,2.92-3.14,4.37-1.21,1.35-2.76,2.39-4.16,3.57,1.53,1.19,3.07,2.39,5.6,4.35h0Zm20.61,34c-.75-.59-1.49-1.18-2.24-1.77-1.29,1.77-3.35,3.41-3.71,5.35-.83,4.49-2.7,5.93-5.97,4.5-1.07-3.58-1.9-6.35-2.73-9.12-1.97,2.75-3.94,5.49-5.67,7.9-2,1.37-3.95,2.7-5.89,4.04,1.92,1.4,3.84,2.81,7.29,5.33-1.57,1.17-3.39,2.4-5.07,3.8-1.06.89-2.27,1.89-2.7,3.1-.17.48,1.44,1.94,2.48,2.42,1.17.55,2.62.5,4.15.74.11,1.32.03,2.49.34,3.54.68,2.32,1.56,4.57,2.36,6.86.84-2.28,1.4-4.72,2.61-6.78,1.04-1.78,2.83-3.12,5.43-5.87.83,8.57,2.8,12.48,5.93,11.74v-9.42c2.52-.52,4.67-.95,6.81-1.39l.9-1.9c-2.35-1.56-4.71-3.12-7.8-5.16.71-1.15,1.38-2.92,2.62-4.06,1.27-1.17,3.11-1.73,4.7-2.56-1.48-1.6-2.97-3.2-4.68-5.06.24-1.74.54-3.98.85-6.22h0Zm266.65-43.5c-.05-12.06-6.28-20.67-15.28-21.09-8.6-.41-15.72,6.67-16.74,16.66-1.31,12.77,3.93,22.97,12.59,24.47.67.12,1.37.13,2.05.16,10.3.46,17.43-7.83,17.38-20.21h0Zm-463.63-55.45c.02.32.13,1,.11,1.68-.02.92-.44,1.95-.14,2.72.69,1.76,1.71,3.39,2.6,5.08.87-1.53,2.33-3.01,2.48-4.61.37-4.05-.03-8.38,6.44-5.25-.16,2.17-.6,4.25-.37,6.26.14,1.26,1.28,2.4,1.97,3.59.99-1.17,2.5-2.21,2.85-3.55.57-2.13.37-4.46.43-5.49,3.09-1.95,5.28-3.34,7.48-4.73-2.1-1.51-4.21-3.02-7.9-5.67,2.1-1.53,3.96-2.8,5.72-4.21.92-.74,2.31-1.73,2.28-2.57-.03-.89-1.36-2.01-2.37-2.5-1.14-.56-2.56-.53-1.97-.42-1.58-4.34-2.73-7.48-3.88-10.62-1.56,3.28-3.12,6.55-5.15,10.81-2.28.79-4.21.23-4.04-4.32.09-2.24-1.15-4.53-1.79-6.8-.87.16-1.73.31-2.6.47-.32,3.32-.63,6.63-.87,9.16-2.71,1.43-4.9,2.59-7.08,3.74,2,1.59,4,3.18,6.79,5.41-.38.73-.85,3.26-2.11,3.75-2.36.93-6.34-.18-5.23,4.11.4,1.55,3.64,2.35,6.37,3.96h-.02Zm176.47,253.36c0,2.14-.35,4.06.11,5.75.38,1.39,1.72,2.52,2.64,3.77.78-1.18,1.97-2.28,2.24-3.57.46-2.17.33-4.46.47-7.06,2.39.17,4.15.3,6.16.44-.2,2.18-.68,4.02-.44,5.76.21,1.54,1.21,2.97,1.85,4.46.98-1.26,2.39-2.39,2.83-3.82.63-2.07.55-4.35.65-5.3,3.46-1.56,5.75-2.59,8.04-3.62-2.01-1.58-4.02-3.17-6.88-5.42.06-.61.27-2.56.4-3.71,2.85-1.27,4.96-2.21,7.08-3.15-1.87-1.76-3.75-3.51-5.87-5.5.15-2.01.34-4.49.53-7.04-4.6-2.26-6.11-.35-5.94,3.87.18,4.41-1.48,5.93-6.07,3.77v-8.28c-8.58-1.36-3.26,6.43-6.55,7.84-2.26,1.34-4.52,2.68-6.78,4.01,2.34,1.54,4.68,3.08,8.72,5.73-2.5,1.58-4.72,2.86-6.79,4.35-1.14.83-2.43,1.89-2.83,3.11-.2.6,1.33,2.09,2.36,2.67,1.1.61,2.53.6,4.07.92v.02Zm-.43-254.37c0,2.66-.29,4.56.09,6.31.32,1.48,1.42,2.79,2.17,4.18,1.05-1.36,2.58-2.58,3.03-4.11.61-2.12.41-4.48.59-7.29,2.31.25,4.17.46,6.11.67-.24,3.85-.43,6.97-.62,10.1,3.09.12,5.14-2.94,6.15-9.18,2.43-1.5,4.32-2.67,6.21-3.84-.69-1.03-1.31-2.11-2.09-3.06-.98-1.19-2.09-2.26-3.14-3.39,1.42-1.05,2.85-2.09,4.25-3.16.97-.73,2.62-1.46,2.68-2.27.06-.99-1.04-2.36-2-3.01-1-.68-2.45-.7-3.55-.97-.18-3.4-.33-6.29-.48-9.18-.78-.25-1.56-.49-2.34-.74-.83,1.9-2.23,3.76-2.36,5.71-.29,4.22-1.71,5.9-4.53,4.75-1.73-4.09-2.98-7.05-4.23-10-1.51,3.08-3.03,6.16-4.38,8.92-2.22,1.18-4.58,2.43-6.93,3.67,1.99,1.58,3.99,3.17,7.4,5.88-1.39,1.03-3.27,2.22-4.91,3.7-1.27,1.14-2.26,2.6-3.28,3.98-.11.15.37.74.67,1.3,1.63.3,3.36.63,5.5,1.03h0Zm279.31-8.83c6.29,5.57,11.59,10.62,17.28,15.18,4.09,3.28,4.08,6.03.38,9.41-1.68,1.54-3.43,3.23-4.42,5.21-.77,1.54-.42,3.64-.56,5.5.72.32,1.44.65,2.16.97,3.85-4.18,7.57-8.49,11.57-12.5,3.41-3.42,2.97-6.25-.44-9.26-5.27-4.66-10.44-9.45-15.92-14.44,5.78-5.43,11.48-10.37,16.6-15.85,1.36-1.45,2.13-5.4,1.16-6.71-3.1-4.2-7.02-7.84-10.92-11.36-.89-.81-3.02-.25-4.57-.32.17,1.55-.2,3.53.62,4.56,2.67,3.35,5.77,6.34,9.08,9.87-7.32,6.56-14.25,12.78-22,19.73h-.02Zm-280.04,200.08c1.41,4.08,2.5,7.22,3.58,10.36,1.57-3.22,3.13-6.44,5.07-10.44.4.04,2.08.2,1.8.18,1.93,4.38,3.3,7.48,4.68,10.59,1.5-3.33,3-6.66,4.58-10.19,1.34-.84,3.24-2.03,5.15-3.23-1.49-1.2-3.36-2.15-4.37-3.67-1.06-1.6-1.29-3.75-1.8-5.37,3.12-1.3,5.35-2.23,9.37-3.91-4.15-1.7-6.23-2.55-8.3-3.39.75-2.82,1.37-5.15,2.01-7.54-4.7-2.35-6.42-.38-6.47,3.68-.05,4.71-1.96,6.19-6.83,4.21.37-2.68.74-5.31,1.2-8.57-1.71.12-4.17-.22-4.44.41-1.87,4.21-1.64,9.98-8.47,9.97.62,1.38.97,3.02,1.95,4.06.74.78,2.3.77,4.24,1.33-.99,2.07-1.37,3.91-2.5,4.98-1.4,1.32-3.41,2-5.16,2.96,1.78,1.35,3.57,2.71,4.71,3.58h0Zm190.33-93.02c-7.07,1.74-25.16,25.14-24.98,32.39h19.89c.34,4.12.62,7.45.9,10.92,11.02,1.09,1.96-7.79,6.82-10.66.85-.12,3.05-.43,5.08-.72,2.5-7.42-4.11-5.46-7.07-7.15-.22-4.3-.51-8.42-.62-12.54-.1-4.02-.02-8.05-.02-12.23h0Zm.31,129.3c-6.41-.22-25.75,22.9-26.33,31.53h20.06c2.7,3.46-1.52,10.9,6.88,10.14v-9.79c2.6-.5,4.75-.92,6.5-1.26,2.81-7.74-4.12-5.38-7.12-7.2v-23.42h0Zm-37.02-96.26v-6.38c-2.39-.51-4.57-.97-7.32-1.56v-24.79c-7.42,1.47-25.7,25.45-24.9,32.11h17.83c4.37,3.01-2.04,12.63,8.1,10.42-.15-3.21-.28-5.89-.42-8.98,2.34-.29,4.31-.52,6.71-.82h0Zm-183.68-137.63v-22.83c-7.87-.52-23.89,18.92-25.32,30.04h17.99c1.96,4.03,3.46,7.11,4.96,10.19,1.28-3.06,2.56-6.13,4.17-10-.02,0,1.4.22,2.08-.38,1.53-1.35,2.68-3.12,4.87-5.79-4.18-.59-5.97-.84-8.75-1.23h0Zm266.92,129.12c-.55.11-1.1.22-1.65.34,0-6.41.14-12.82-.09-19.22-.06-1.76-1.22-3.48-1.88-5.22-1.47.89-3.31,1.47-4.35,2.72-5.54,6.71-11.04,13.48-16.21,20.47-1.66,2.24-2.3,5.25-3.82,8.92h21.25c1.41,7.3,3.62,10.46,6.65,9.47-.27-2.85-.54-5.69-.64-6.74,3.09-2.68,4.86-4.21,6.63-5.74-1.96-1.67-3.92-3.34-5.89-5h0Zm-90.78,104.76c-6.38-.12-24.77,22.49-25.85,31.52h19.55c2.19,6.9,4.75,10.06,7.67,9.48-.54-2.93-1.09-5.9-1.69-9.19,3.06-.29,5.27-.49,7.64-.71v-6.25c-2.52-.47-4.66-.86-7.32-1.35v-23.49h0Zm-69.34-31.45h21.64c1.16,8.08,3.66,11.31,7.49,9.69-.7-2.97-1.39-5.9-2.09-8.86,5.22-.99,7.54-3.32,6.97-6.98-2.16-.3-4.35-.6-7.19-.99v-24.82c-.81-.46-1.62-.93-2.44-1.39-9.12,9.51-18.18,19.07-24.39,33.36h.01Zm64.1-.22c.87,7.67,3.31,10.82,7.31,9.45-.5-2.77-.99-5.56-1.49-8.34,3.42-1.84,10.09-.31,6.72-7.2-2.17-.35-4.16-.68-6.98-1.14v-24.6c-7.29.54-25.98,24.67-24.89,31.83h19.33Zm94.87,2.46c3.65-2.44,5.89-3.94,8.14-5.44-2.48-1.73-4.96-3.47-8.36-5.84v-23.28c-6.9.78-24.66,23.53-24.72,32.08h19.25c1.4,7.65,3.97,10.84,7.71,9.58-.76-2.68-1.53-5.37-2.02-7.09h0Zm6.8,37.7c-5.68-9.01-17.29-9.32-23.18-5.36-7.79,5.24-11.47,18.56-7.47,27.88,3.48,8.08,12.41,12.94,20.84,10.48,4.06-1.18,7.65-4,12.03-6.4-2.24-2.4-3.28-3.58-4.41-4.67-.28-.27-.84-.26-1.45-.42-.63.49-1.35,1.04-2.06,1.58-5.79,4.4-11.66,4.46-16.1.16-4.8-4.65-5.43-12.87-1.46-19.05,3.65-5.67,8.24-6.53,15.4-3.71,1.97.78,4.64-.23,7.85-.49h0Zm.67-165.84c-2.09-3.62-4.26-5.29-7.81-2.38-5.32,4.37-10.27,3.12-14.62-1.43-4.64-4.85-5.03-14.55-.87-19.82,3.93-4.97,8.71-5.94,14.68-3.32,2.22.97,5.22.16,9.24.16-7.9-9.55-19.34-10.32-26.82-3.44-8.37,7.7-9.01,23.05-1.31,31.19,7.85,8.29,18.89,8.05,27.5-.97h.01Zm-51.44,104.18c4.97-3.93,4.55-6.74-1.41-9.47-8.25-3.76-18.56-.23-23.2,7.95-5.53,9.75-3.24,22.64,5.07,28.57,8.98,6.41,18.58,4.67,25.78-5.99-3.02,0-5.42-.69-7.08.12-7.78,3.78-13.39,3.37-17.21-1.81-4.41-5.98-3.58-15.98,1.73-20.92,4.57-4.26,9.58-3.79,16.32,1.55h0Zm3.48-106.02c-2.34,0-4.68-.05-7.02,0-4.09.12-8.92,1.79-12.12.18-8.49-4.26-8.99-19.63-.85-24.63,2.92-1.79,8.43-2.26,11.26-.67,5.01,2.83,6.76,1.05,8.89-2.73-10.06-7.31-20.82-6.79-27.48,1.07-7.19,8.47-6.69,22.77.96,30.25,6.21,6.07,18.54,8,26.35-3.47h0Zm-133.67,182.75c1.22-4.68.53-6.94-4.19-6.74-4.91.21-9.83.05-14.63.05v-11.09c7.11,0,13.74-.06,20.37.02,4.07.05,6.17-1.28,4.72-5.78h-31.1v42.02c1.57,0,3.59.16,3.62-.02,1.03-6,1.87-12.04,2.8-18.46h18.41Zm4.75-78.87c-5.48-7.66-11.6-9.88-18.33-8.04-7.54,2.07-11.69,7.11-12.49,14.69-.97,9.17-.67,18.11,8.43,23.77,6.9,4.29,15.89,3.15,21.38-2.85.84-.92.8-2.64,1.17-3.99-1.57-.23-3.14-.64-4.71-.61-.8.02-1.57.89-2.38,1.3-5.53,2.82-10.67,2.61-14.91-2.33-4.3-5.01-4.69-15.01-.54-20,4.17-5.02,9.24-4.93,14.86-2.08,1.71.87,4.24.13,7.52.13h0Zm39.98-195.64c-10.94-8.13-22.55-7.15-28.78,1.68-6.46,9.16-4.52,24.68,3.84,30.69,7.76,5.58,19.54,3.57,24.72-4.22-2.43-2.13-4.93-2.36-7.5-.7-6.55,4.24-14.39,1.86-17.06-5.17-2.42-6.38-.75-15.37,3.65-19.36,5.77-5.23,10.96-2.26,16.5,2.11,1.58-1.72,2.94-3.2,4.63-5.04h0Zm-72.65,123.43c4.68,12.92,9.29,25.85,14.12,38.7.43,1.15,2.26,2.53,3.35,2.46,1.1-.07,2.68-1.64,3.04-2.85,3.78-12.7,7.36-25.46,10.99-38.21-4.68-2.03-6.55.22-7.63,4.13-2.04,7.4-4.2,14.77-6.81,23.89-3.34-9.39-6.16-17.04-8.76-24.77-1.36-4.04-3.51-5.68-8.3-3.35Zm52.43-58.54c7.07,0,13.69.15,20.28-.13,1.33-.06,2.58-1.77,3.87-2.71-1.04-.94-2.05-2.68-3.11-2.7-9.04-.22-18.09-.12-27.56-.12,0,12.89-.08,24.56.12,36.23.02,1.31,1.64,2.59,2.52,3.89,1.07-1.36,2.93-2.64,3.08-4.1.42-4.17.15-8.42.15-12.95,4.97,0,8.66.3,12.27-.13,1.77-.21,3.39-1.75,5.07-2.68-1.59-1.07-3.1-2.85-4.8-3.06-3.77-.47-7.63-.15-11.88-.15v-11.38h0Zm237.49-27.4c.75.7,1.51,1.4,2.26,2.1,10.71-7.86,21.42-15.72,33.39-24.51-12.38-8.81-23.24-16.54-34.1-24.28-.54.58-1.09,1.16-1.63,1.74,2.02,12.9,17.45,13.61,23,23.15-6.3,8.52-18.82,11.09-22.92,21.79h0Zm-191.27-35.44c0,10.23-.1,19.81.13,29.39.03,1.24,1.76,2.45,2.7,3.67.98-.94,2.79-1.87,2.81-2.83.19-12.71.13-25.42.13-38.14-.76-.51-1.53-1.01-2.29-1.52-4.7,2.83-9.55,5.46-13.96,8.69-.71.52.53,3.7.98,6.25,3.73-2.16,6.44-3.73,9.51-5.51h-.01Zm116.76,36.93c.61.52,1.22,1.04,1.83,1.56,1.7-1.61,4.07-2.92,4.97-4.89,2.74-6.02,4.99-12.28,7.3-18.49,2.98-8.02,5.83-16.09,8.74-24.13-.73-.54-1.45-1.08-2.18-1.62-1.5,1.31-3.76,2.34-4.39,3.99-5.58,14.47-10.88,29.04-16.26,43.59h0Zm13.75,255.95c6.08,2.94,18.54-4.55,25.15-13.9-4.34-2.9-8.88-5.54-12.96-8.75-5.6-4.41-7.9-1.47-9.85,3.56,4.5,1.89,8.74,3.67,14,5.87-5.87,4.75-10.73,8.68-16.34,13.21h0ZM366.55,82.22c-3.43.69-5.56.6-5.8,1.24-5.88,15.26-11.57,30.6-17.29,45.93.51.46,1.02.93,1.54,1.39,1.53-.84,3.96-1.32,4.44-2.56,5.66-14.69,11.04-29.5,17.12-45.99h-.01Zm196.23,181.54c3.56.82,5.91,2.14,6.91,1.47,6.56-4.38,12.82-9.19,19.98-14.45-6.47-4.64-12.11-8.68-17.98-12.89-1.75,2.39-3.06,4.18-4.55,6.23,4.2,2.4,7.99,4.56,12.26,6.99-5.46,4.16-10.15,7.72-16.63,12.65h.01Zm134.85-142.51c-4.44-3.08-8.82-5.63-12.61-8.87-4.23-3.61-6.7-2.45-9.05,2.37,3.99,2.59,7.89,5.11,12.05,7.81-4.92,3.82-9.39,7.3-13.91,10.81,4.24,4.24,14.75-1.22,23.52-12.12h0Zm-117.17,182.73v.02c3.67,0,7.36.26,10.98-.14,1.26-.14,2.34-1.91,3.5-2.93-.93-1.05-1.84-2.97-2.8-3-7.78-.23-15.57-.22-23.35.05-.99.03-1.91,1.93-2.86,2.97,1.18,1.01,2.28,2.76,3.56,2.9,3.62.4,7.32.14,10.98.14h-.01Zm29.74-131.27c.29.7.59,1.41.88,2.11,7.96,0,15.92.1,23.87-.12,1.04-.03,2.04-1.7,3.06-2.6-1.02-.9-2.02-2.53-3.08-2.58-6.87-.3-13.77-.46-20.64-.17-1.41.06-2.73,2.19-4.1,3.36h.01Zm-81.89-53.98v-.03c3.18,0,6.39.24,9.53-.14,1.03-.13,2.29-1.76,2.61-2.93.18-.64-1.36-2.51-2.16-2.54-6.13-.19-12.27-.21-18.4.1-1.04.05-1.99,1.88-2.98,2.89,1.07.89,2.06,2.37,3.23,2.54,2.67.38,5.44.12,8.17.12h0Z"/>
  <path class="cls-4" d="m421.19,620c0,11.49.05,22.27-.01,33.05-.12,20.02-12.34,32.17-32.36,32.19-18.4.02-36.81-.34-55.2,0-15.21.29-27.8-4.94-38.36-15.7-7.74-7.88-15.41-15.84-23.61-23.21-2.58-2.32-6.74-4.02-10.19-4.05-36.8-.3-73.6-.12-110.4-.26-22.93-.09-35.63-18.28-28.22-40.1,4.16-12.25,13.39-19.1,26.52-19.18,19.78-.13,39.56,0,59.34-.02,2.41,0,4.83-.25,8.7-.47-13.67-13.61-26.27-26.23-38.95-38.77-32.22-31.85-64.41-63.74-96.76-95.46-9.09-8.92-13.38-19.43-13.25-32.11.2-19.09.04-38.18.07-57.27,0-2.19.24-4.38.44-7.88,8.36,8.03,15.88,14.98,23.11,22.23,76.66,76.87,153.26,153.79,229.9,230.66,4.71,4.72,9.51,9.36,14.51,13.77,6.07,5.36,13.31,7.89,22.62,8.07,0-11.41.01-22.55,0-33.69-.01-9.2,2.59-17.78,9.92-23.29,5.05-3.79,11.73-7.46,17.75-7.58,38.86-.73,77.74-.64,116.6-.43,14.97.08,26.81,12.41,27.28,27.52.37,11.95.45,23.91.69,35.86,0,.41.38.81.89,1.82,9.19.01,17.28-3.57,23.89-9.92,13.26-12.75,26.15-25.87,39.14-38.9,71.79-71.97,143.56-143.97,215.35-215.93,3.05-3.06,6.31-5.91,10.84-10.13.19,3.91.4,6.24.4,8.58.03,19.32-.17,38.65.09,57.96.15,11.8-4.18,21.37-12.41,29.59-43.13,43.07-86.19,86.19-129.27,129.31-1.74,1.74-3.38,3.57-6.18,6.53h16.85c17.02-.03,34.04-.08,51.06-.08s28.49,11.52,28.8,28.46c.33,17.9-11.46,30.72-29.01,30.81-36.8.21-73.6.2-110.4.03-5.2-.02-9.01,1.28-12.67,5.14-8.86,9.33-18.05,18.36-27.38,27.22-7.85,7.45-17.48,10.74-28.29,10.73-20.47,0-40.94.12-61.41.05-19.61-.07-32.21-12.84-32.22-32.44v-32.72h-48.21Z"/>
  <path class="cls-4" d="m181.29,240.51c0,14.65-.28,29.14.23,43.6.1,2.9,2.72,6.2,5.01,8.47,35.98,35.57,72.09,71,108.18,106.46,11.15,10.96,22.47,21.76,33.4,32.94,8.06,8.24,17.63,12.22,29,12.2,58.88-.11,117.75-.36,176.63-.27,12.04.02,21.83-4.01,30.29-12.41,36.86-36.64,73.82-73.18,110.77-109.73,9.32-9.22,18.61-18.48,28.15-27.46,4.13-3.89,6.13-8,5.95-13.85-.4-13.31-.13-26.64-.13-39.84-19.82-4.82-32.21-.21-43.57,15.62-4.14,5.78-8.31,11.62-13.14,16.8-6.34,6.79-14.34,10.58-23.93,10.41-21.44-.39-34.65-21.02-25.34-40.38,2.63-5.47,6.68-10.49,10.95-14.87,12.19-12.52,24.81-24.63,37.28-36.87,7.93-7.79,17.39-11.65,28.59-11.59,20.24.12,40.48-.09,60.72.03,16.85.1,27.89,10.67,28.14,27.48.42,28.05.35,56.12.58,84.17.12,14.39-5.22,26.14-15.46,36.29-52.74,52.31-105.44,104.67-157.79,157.38-13.12,13.21-27.75,19.58-46.63,19.42-70.6-.58-141.21-.35-211.82-.16-15.16.04-27.65-4.97-38.38-15.63-54.01-53.64-108.1-107.21-162.32-160.63-9.45-9.31-13.98-20.09-13.9-33.27.18-29.21,0-58.42.12-87.63.06-15.47,10.65-26.89,26.18-27.23,22.07-.48,44.15-.24,66.23-.09,8.35.06,15.94,3.04,21.89,8.88,14.94,14.64,29.86,29.33,44.26,44.49,8.04,8.46,9.85,19.24,6.48,30.29-5.52,18.09-25.41,25.5-42.57,15.63-5.2-2.99-9.29-8.03-13.59-12.42-1.89-1.93-3.26-4.47-4.53-6.9-9.79-18.77-25.54-23.67-45.92-19.3v-.03Z"/>
  <path class="cls-5" d="m593.96,748.23v31.31c11.29,0,22.23-.14,33.17.05,8.18.14,15.02,4.97,16.48,11.15,2.24,9.49-3.67,17.27-14.04,17.59-11.69.37-23.4.08-35.8.08-.22,2.39-.55,4.34-.56,6.29-.06,8.04.16,16.09-.07,24.13-.28,9.66-4.85,13.97-14.09,13.82-9.07-.15-13.51-4.76-13.49-14.51.08-31.25.17-62.5.47-93.75.16-16.53,8.85-24.92,25.16-24.92,12.41,0,24.82-.09,37.22.08,8.29.11,14.31,4.98,15.45,11.99,1.55,9.53-4.62,16.45-15.29,16.66-11.42.22-22.86.05-34.62.05v-.02Z"/>
  <path class="cls-4" d="m151.37,779.53c9.19,0,18.33-.06,27.48.03,3.9.04,7.89-.07,11.66.73,7.23,1.53,11.99,8.2,11.45,15.13-.56,7.11-5.28,12.63-12.9,12.84-17.46.5-34.95.6-52.4.05-8.44-.26-14.03-7.25-14.15-16.78-.23-17.93-.21-35.89.29-53.81.33-11.83,7.74-18.24,19.71-18.24,14.72,0,29.44-.09,44.16.13,8.06.12,13.95,4.83,15.26,11.47,1.26,6.39-1.63,12.89-7.64,15.45-3.06,1.3-6.66,1.74-10.04,1.81-10.78.22-21.56.08-32.88.08v31.11h0Z"/>
  <path class="cls-5" d="m503.43,852.46c-6.2.78-10.71-2.54-13.83-8.83-5.21-10.5-10.55-20.95-16.36-31.11-1.26-2.2-4.74-4.29-7.27-4.39-11.48-.46-23,.01-34.49-.28-4.13-.11-6.31,1.49-7.98,4.97-4.76,9.94-9.52,19.89-14.62,29.67-4.87,9.33-10.07,11.55-20.41,9.49-6.81-1.36-10.62-7.18-7.59-13.34,7.9-16.08,16.07-32.05,24.82-47.68,4.34-7.75,12.2-11.01,21.02-11.14,14.71-.22,29.43-.22,44.15-.26,11.16-.02,19.42,4.97,24.6,14.81,6.95,13.22,13.83,26.48,20.55,39.82,6.01,11.94,1.89,18.28-12.57,18.28h-.02Z"/>
  <path class="cls-5" d="m271.72,807.93c0,10.72.02,20.56,0,30.39-.03,10.06-3.89,14.1-13.47,14.17-9.5.07-14.41-4.8-14.33-14.46.09-11.49.2-22.98.52-34.47.44-16.13,8.59-24.04,24.57-24.07,12.87-.03,25.75-.21,38.61.09,4.26.1,8.87.7,12.67,2.47,10.9,5.1,11.51,18.04.87,24.96,4.34,6.42,8.76,12.78,12.99,19.28,2.62,4.03,5.29,8.1,7.33,12.44,2.54,5.41.05,10.71-5.41,12.8-8.84,3.37-18.08.24-23.18-7.97-5.69-9.17-11.58-18.25-16.83-27.67-3.38-6.07-7.45-9.4-14.7-8.04-2.64.49-5.45.08-9.63.08h0Z"/>
  <path class="cls-5" d="m284.33,748.42c-8.26,0-16.51.06-24.77-.02-8.35-.08-14.47-5.5-14.9-13.04-.46-8.2,5.48-15.62,13.91-15.78,18.11-.34,36.24-.31,54.34.21,8.71.25,14.58,7.01,14.26,14.66-.33,7.76-6.68,13.5-16.02,13.81-8.93.3-17.89.07-26.83.07v.09h0Z"/>
  <path class="cls-4" d="m725.59,748.44c-8.05,0-16.1.12-24.15-.03-8.7-.16-13.24-4.54-13.84-12.98-.59-8.26,4.07-15.42,12.04-15.65,18.37-.54,36.79-.41,55.15.27,7.39.27,12.17,7.06,12.12,14.42-.05,6.73-4.32,12.47-11.71,13.08-9.81.81-19.73.2-29.6.2v.7h0Z"/>
  <path class="cls-4" d="m727.22,779.81c7.81,0,15.62-.11,23.43.03,9.39.17,15.55,5.5,16.05,13.64.51,8.3-4.74,14.69-14.43,15.01-17.2.57-34.45.4-51.65-.2-8.68-.31-13.16-5.94-12.94-13.9.22-7.76,6.34-14.06,14.73-14.41,8.25-.35,16.53-.08,24.8-.08v-.09h.01Z"/>
  <path class="cls-5" d="m448.92,718.5c9.41.05,17.56,7.82,17.59,16.77.03,9.57-8.39,17.67-18.32,17.6-9.56-.07-17.08-7.66-16.91-17.06.18-9.91,7.78-17.37,17.64-17.31Z"/>
  <path class="cls-2" d="m413,341.66c1.6,4.66.06,6.46-4.7,6.26-5.71-.24-11.43-.06-17.66-.06v10.12h8.66c5.72,0,12.49,5.85,13.43,11.58.98,6.01-3.32,12.48-10.08,13.43-5.79.82-11.79.17-18.76.17v-41.51h29.12,0Zm-22.35,35c4.12,0,7.71.7,10.79-.24,2.07-.63,4.59-3.51,4.73-5.54.11-1.58-2.87-4.26-4.95-4.9-3.26-1-6.91-.68-10.57-.93v11.62h0Z"/>
  <path class="cls-2" d="m385.16,213.84c8.8.76,17.63-2.81,23.32,5.05,3.53,4.87,3.26,10.8-1.63,15.72,5.68,3.61,6.39,8.4,4.47,13.98-2.05,5.96-6.86,6.58-12.19,6.64-13.99.16-13.99.22-13.98-13.52v-27.87h.01Zm6.51,35.53c4.52-.81,9.03-1.34,13.27-2.67.71-.22.94-5.56.33-5.8-4.14-1.62-8.57-2.49-13.6-3.79v12.26h0Zm-.19-16.97c4.54-1.37,8.34-2.09,11.6-3.81.83-.44.69-5.51-.29-6.02-3.25-1.72-7.08-2.33-11.31-3.55v13.38Z"/>
  <path class="cls-2" d="m445.98,169.83c8.7,5.82,10.17,10.37,5.59,16.03-5.15,6.36-17.12,7.41-23.11,2.04-5.71-5.12-5.29-11.97,1.13-18.43-4.36-8.78-3.72-14.65,1.98-18.16,5.63-3.47,14.03-2.29,17.63,2.47,3.62,4.79,2.63,10.18-3.21,16.04h-.01Zm-7.59,17.81c3.93-3.61,6.41-5.89,8.88-8.17-2.93-2.16-5.67-5.55-8.86-6.03-2.09-.32-4.82,3.56-7.26,5.56,2.06,2.46,4.12,4.91,7.24,8.64Zm8.53-28.77c-4.02-1.85-6.63-4.1-8.26-3.54-2.19.76-4.68,3.54-4.99,5.75-.2,1.43,3.81,5.12,4.94,4.75,2.55-.83,4.49-3.55,8.31-6.96Z"/>
  <path class="cls-2" d="m496,90.17c-2.46,1.06-4.48,2.81-6.04,2.46-9.96-2.22-14.8,1.37-15.46,11.73,2.91-1.5,5.86-4.08,9.02-4.36,3.05-.27,7.74.87,9.17,3.06,2.54,3.86,4.8,9.23,4.17,13.52-.83,5.63-5.96,8.96-12.14,9.41-6.25.45-12.74-1.11-14.05-7.33-1.63-7.78-2.37-16.57-.35-24.08,2.68-9.95,15.88-12.17,25.67-4.42h0Zm-13.13,32.44c3.66-4.27,7.05-6.55,7.76-9.48.97-4.02-2.07-6.88-6.44-6.86-4.69.03-7.35,3.17-7.01,7.44.19,2.39,2.81,4.59,5.69,8.9Z"/>
  <path class="cls-2" d="m346.53,169.73c-4.59-7.11-4.6-12.95-.21-17.07,3.95-3.71,11.88-4.03,16.68-.68,5.23,3.65,5.66,9.02,1.47,18.48,6.03,6.91,6.34,12.31.97,17.15-5.24,4.72-15.44,4.88-20.3.31-5.55-5.22-5.23-10.77,1.38-18.18h0Zm9.15,18.35c3.31-4.19,5.31-6.73,7.31-9.27-2.76-1.82-5.46-4.93-8.29-5.06-2.22-.1-4.61,3.49-6.93,5.43,2.16,2.43,4.32,4.86,7.91,8.89h0Zm7.71-27.08c-3.98-2.72-6.1-5.29-8.24-5.3-1.98,0-3.98,2.7-5.98,4.22,2.02,2.01,3.74,4.88,6.17,5.72,1.45.5,4-2.17,8.05-4.64Z"/>
  <path class="cls-2" d="m231.11,104.91c6.38,6.15,7.07,12.03,2.37,17.02-4.94,5.25-16,5.33-21.39.16-5.1-4.9-4.47-11.34,1.74-17.82-4.36-7.4-4.17-12.53.62-16.51,4.84-4.02,12.6-3.85,17.08.37,4.58,4.31,4.49,10.01-.44,16.79h.02Zm-8.4-.04c-3.32,4.21-6.8,6.72-6.82,9.27-.02,1.99,3.97,5.18,6.64,5.78,3.91.88,7.8-1.59,7.16-6.05-.37-2.61-3.58-4.81-6.98-9Zm6.22-7.8c-.02-.82-.04-1.65-.06-2.47-2.09-1.2-4.34-3.55-6.24-3.3-1.98.26-3.62,3.04-5.41,4.71,1.86,1.55,3.62,4.13,5.63,4.34,1.89.2,4.05-2.09,6.09-3.28h0Z"/>
  <path class="cls-2" d="m189.59,104.54c5.52,7.66,5.69,13.63.52,18.25-5.02,4.48-14.93,4.33-19.65-.3-4.97-4.86-4.76-10.81.62-17.62-3.96-7.49-3.52-13.21,1.33-17.24,4.53-3.77,11.44-3.92,15.9-.35,5.02,4.02,5.41,9.19,1.29,17.26h0Zm-9.16,17.85c3.18-3.83,6.44-5.99,6.75-8.51.53-4.35-3.14-6.8-7.16-5.65-2.6.74-6.34,3.7-6.35,5.68,0,2.31,3.49,4.64,6.76,8.49h0Zm.26-34.2c-2.79,3.72-5.75,5.97-5.51,7.82.25,1.97,3.35,4.59,5.53,4.96,1.47.25,4.93-2.89,4.96-4.56.04-2.14-2.46-4.34-4.97-8.22h-.01Z"/>
  <path class="cls-5" d="m305.81,180.23c-2.53-1.97-4.07-3.16-5.6-4.35,1.4-1.18,2.95-2.22,4.16-3.57,1.31-1.45,2.3-3.18,3.14-4.37-2.83-2.27-4.8-3.85-6.78-5.44,2.01-1.39,4.03-2.78,6.87-4.75,0,.06-.06-1.16.4-2.14.95-1.98,2.17-3.84,3.29-5.74.61,2.07,1.08,4.19,1.88,6.18.65,1.64,1.7,3.12,2.57,4.67,1.17-1.29,2.9-2.4,3.4-3.92,1.02-3.1-.48-8.02,6.55-6.42-.45,3.15-.9,6.2-1.25,8.66,2.07,1.7,3.9,3.21,5.74,4.72-2.07,1.02-4.13,2.04-6.7,3.31-.08,1.14-.21,2.9-.26,3.64,2.6,1.89,4.52,3.29,6.44,4.69-2.13,1.43-4.26,2.86-7.95,5.33,0,.47.28,2.96-.12,5.33-.2,1.16-1.67,2.1-2.56,3.13-.8-1.09-2.09-2.1-2.3-3.29-.37-2.19-.11-4.49-.11-6.85-4-1.58-5.47-.37-5.89,3.67-.23,2.23-1.87,4.32-2.88,6.48-.68-2.33-1.42-4.65-2-7.01-.21-.86-.03-1.81-.03-1.96h0Zm13.5-13.72c-7.66-1.6-7.57,1.65-5.07,6.76,1.47-1.96,2.94-3.93,5.07-6.76Z"/>
  <path class="cls-5" d="m326.42,214.23c-.31,2.24-.61,4.48-.85,6.22,1.72,1.85,3.2,3.45,4.68,5.06-1.59.83-3.42,1.39-4.7,2.56-1.24,1.14-1.91,2.91-2.62,4.06,3.09,2.05,5.45,3.61,7.8,5.16l-.9,1.9c-2.15.44-4.3.88-6.81,1.39v9.42c-3.13.74-5.1-3.17-5.93-11.74-2.61,2.75-4.39,4.09-5.43,5.87-1.21,2.06-1.77,4.5-2.61,6.78-.8-2.28-1.68-4.54-2.36-6.86-.31-1.05-.23-2.22-.34-3.54-1.53-.24-2.98-.2-4.15-.74-1.04-.49-2.65-1.94-2.48-2.42.43-1.21,1.63-2.21,2.7-3.1,1.68-1.4,3.5-2.64,5.07-3.8-3.45-2.52-5.37-3.93-7.29-5.33,1.95-1.33,3.89-2.67,5.89-4.04,1.72-2.4,3.7-5.15,5.67-7.9.83,2.77,1.66,5.54,2.73,9.12,3.27,1.43,5.14,0,5.97-4.5.36-1.95,2.42-3.58,3.71-5.35.75.59,1.49,1.18,2.24,1.77h0Zm-7.21,15.65c-.67-.86-1.34-1.73-2.01-2.59-1.66,1.21-3.32,2.41-4.98,3.62.83,1.05,1.65,2.09,2.48,3.14,1.5-1.39,3.01-2.78,4.51-4.17Z"/>
  <path class="cls-2" d="m593.07,170.73c.05,12.37-7.08,20.67-17.38,20.21-.69-.03-1.38-.05-2.05-.16-8.66-1.5-13.9-11.71-12.59-24.47,1.03-9.99,8.14-17.07,16.74-16.66,9,.43,15.23,9.04,15.28,21.09h0Zm-6.13.78c-.49-2.84-.16-5.89-1.51-7.66-2.28-2.98-5.63-7.08-8.54-7.09-2.82,0-7.07,4.08-8.12,7.23-1.34,4.03-1.07,9.25.35,13.32,1.05,3.04,5.01,7.01,7.69,7.02,2.86.02,6.09-3.83,8.46-6.59,1.32-1.53,1.21-4.29,1.68-6.24h-.01Z"/>
  <path class="cls-5" d="m129.44,115.29c-2.72-1.6-5.97-2.41-6.37-3.96-1.11-4.29,2.87-3.18,5.23-4.11,1.27-.5,1.74-3.02,2.11-3.75-2.79-2.23-4.79-3.82-6.79-5.41,2.19-1.16,4.38-2.31,7.08-3.74.24-2.53.56-5.85.87-9.16.87-.16,1.73-.31,2.6-.47.64,2.27,1.88,4.56,1.79,6.8-.17,4.55,1.76,5.11,4.04,4.32,2.03-4.26,3.59-7.54,5.15-10.81,1.15,3.14,2.29,6.28,3.88,10.62-.59-.1.83-.13,1.97.42,1.02.5,2.34,1.61,2.37,2.5.03.83-1.36,1.83-2.28,2.57-1.75,1.4-3.62,2.67-5.72,4.21,3.7,2.65,5.8,4.16,7.9,5.67-2.2,1.39-4.39,2.78-7.48,4.73-.06,1.03.14,3.36-.43,5.49-.36,1.34-1.86,2.38-2.85,3.55-.69-1.19-1.83-2.33-1.97-3.59-.23-2,.21-4.08.37-6.26-6.48-3.13-6.07,1.2-6.44,5.25-.15,1.6-1.62,3.08-2.48,4.61-.89-1.68-1.91-3.32-2.6-5.08-.3-.77.12-1.81.14-2.72.02-.68-.09-1.36-.11-1.68h.02Zm13.58-11.46c-2.17-1.3-3.91-2.77-4.27-2.48-1.31,1.02-2.36,2.56-3.01,4.11-.13.31,2.19,2.38,3,2.17,1.3-.34,2.27-1.9,4.28-3.79h0Z"/>
  <path class="cls-5" d="m305.9,368.65c-1.54-.31-2.97-.31-4.07-.92-1.03-.57-2.56-2.07-2.36-2.67.4-1.22,1.69-2.29,2.83-3.11,2.06-1.5,4.29-2.77,6.79-4.35-4.04-2.66-6.38-4.19-8.72-5.73,2.26-1.34,4.52-2.68,6.78-4.01,3.29-1.41-2.04-9.2,6.55-7.84v8.28c4.6,2.16,6.25.64,6.07-3.77-.17-4.22,1.34-6.13,5.94-3.87-.19,2.56-.38,5.03-.53,7.04,2.12,1.99,3.99,3.74,5.87,5.5-2.12.94-4.23,1.88-7.08,3.15-.12,1.15-.33,3.11-.4,3.71,2.86,2.25,4.87,3.84,6.88,5.42-2.29,1.03-4.58,2.06-8.04,3.62-.1.94-.02,3.23-.65,5.3-.43,1.43-1.85,2.55-2.83,3.82-.65-1.48-1.65-2.91-1.85-4.46-.23-1.75.24-3.59.44-5.76-2.01-.14-3.77-.27-6.16-.44-.14,2.59-.01,4.89-.47,7.06-.27,1.29-1.46,2.39-2.24,3.57-.92-1.25-2.26-2.38-2.64-3.77-.46-1.69-.11-3.61-.11-5.75v-.02Zm15.49-12.97c-9.12-1.73-9.27-1.57-8.21,8.39,3.06-3.13,5.01-5.12,8.21-8.39Z"/>
  <path class="cls-5" d="m305.48,114.28c-2.14-.4-3.87-.72-5.5-1.03-.3-.56-.78-1.15-.67-1.3,1.02-1.38,2.01-2.84,3.28-3.98,1.64-1.47,3.52-2.67,4.91-3.7-3.42-2.71-5.41-4.3-7.4-5.88,2.35-1.25,4.71-2.5,6.93-3.67,1.36-2.76,2.87-5.84,4.38-8.92,1.25,2.95,2.5,5.9,4.23,10,2.81,1.15,4.24-.52,4.53-4.75.13-1.95,1.54-3.81,2.36-5.71.78.25,1.56.49,2.34.74.15,2.89.3,5.78.48,9.18,1.1.27,2.55.3,3.55.97.97.66,2.07,2.02,2,3.01-.05.81-1.71,1.53-2.68,2.27-1.41,1.07-2.84,2.11-4.25,3.16,1.05,1.12,2.17,2.2,3.14,3.39.78.95,1.4,2.04,2.09,3.06-1.89,1.17-3.78,2.34-6.21,3.84-1.01,6.24-3.06,9.3-6.15,9.18.19-3.13.39-6.26.62-10.1-1.94-.21-3.8-.42-6.11-.67-.18,2.82.03,5.17-.59,7.29-.44,1.53-1.98,2.75-3.03,4.11-.75-1.39-1.85-2.7-2.17-4.18-.38-1.75-.09-3.65-.09-6.31h0Zm6.23-8.16c.7.83,1.41,1.66,2.11,2.49,1.79-1.27,3.58-2.53,5.37-3.8-1.07-1.08-2.14-2.15-3.21-3.23-1.42,1.51-2.84,3.03-4.26,4.54h0Z"/>
  <path class="cls-1" d="m584.78,105.45c7.75-6.95,14.68-13.17,22-19.73-3.31-3.53-6.41-6.53-9.08-9.87-.82-1.03-.45-3.01-.62-4.56,1.56.07,3.68-.49,4.57.32,3.91,3.52,7.82,7.16,10.92,11.36.97,1.32.2,5.26-1.16,6.71-5.12,5.47-10.82,10.42-16.6,15.85,5.48,4.98,10.65,9.77,15.92,14.44,3.41,3.02,3.86,5.84.44,9.26-4.01,4.02-7.73,8.32-11.57,12.5-.72-.32-1.44-.65-2.16-.97.15-1.85-.21-3.96.56-5.5.99-1.98,2.74-3.68,4.42-5.21,3.7-3.38,3.71-6.13-.38-9.41-5.69-4.56-10.99-9.61-17.28-15.18h.02Z"/>
  <path class="cls-5" d="m304.75,305.53c-1.15-.87-2.93-2.22-4.71-3.58,1.75-.96,3.76-1.64,5.16-2.96,1.13-1.07,1.52-2.91,2.5-4.98-1.94-.56-3.5-.55-4.24-1.33-.98-1.03-1.33-2.68-1.95-4.06,6.83,0,6.6-5.76,8.47-9.97.28-.63,2.73-.28,4.44-.41-.46,3.26-.83,5.9-1.2,8.57,4.87,1.98,6.78.5,6.83-4.21.05-4.06,1.77-6.03,6.47-3.68-.64,2.39-1.26,4.72-2.01,7.54,2.06.84,4.15,1.7,8.3,3.39-4.01,1.67-6.25,2.61-9.37,3.91.5,1.62.74,3.77,1.8,5.37,1.01,1.52,2.88,2.47,4.37,3.67-1.9,1.19-3.8,2.38-5.15,3.23-1.58,3.52-3.08,6.86-4.58,10.19-1.37-3.11-2.74-6.22-4.68-10.59.28.03-1.4-.14-1.8-.18-1.94,3.99-3.51,7.21-5.07,10.44-1.08-3.14-2.17-6.27-3.58-10.36h0Zm14.23-11.16c-.71-.77-1.43-1.53-2.14-2.3-1.52,1.14-3.39,2.06-4.38,3.55-.35.52,1.47,2.47,2.3,3.77,1.41-1.68,2.81-3.35,4.22-5.03h0Z"/>
  <path class="cls-2" d="m495.07,212.51c0,4.18-.08,8.21.02,12.23.11,4.12.4,8.24.62,12.54,2.96,1.69,9.57-.27,7.07,7.15-2.03.29-4.23.6-5.08.72-4.86,2.87,4.2,11.75-6.82,10.66-.29-3.47-.56-6.8-.9-10.92h-19.89c-.17-7.24,17.92-30.65,24.98-32.39h0Zm-15.53,25.89c4.09-.33,6.6-.53,9.23-.75.22-4.37.4-7.76.57-11.15-.49-.05-.97-.1-1.46-.14-2.44,3.53-4.88,7.05-8.34,12.04h0Z"/>
  <path class="cls-2" d="m495.39,341.81v23.42c3,1.82,9.93-.54,7.12,7.2-1.76.34-3.9.75-6.5,1.26v9.79c-8.41.76-4.19-6.68-6.88-10.14h-20.06c.58-8.63,19.92-31.75,26.33-31.53h0Zm-6.53,13.46c-.44-.16-.87-.31-1.31-.47-2.54,3.48-5.08,6.97-7.95,10.91h9.26v-10.44Z"/>
  <path class="cls-2" d="m458.37,245.54c-2.4.29-4.37.53-6.71.82.15,3.1.27,5.77.42,8.98-10.14,2.21-3.73-7.41-8.1-10.42h-17.83c-.8-6.66,17.48-30.65,24.9-32.11v24.79c2.75.59,4.93,1.05,7.32,1.56v6.38h0Zm-13.78-19.46c-3.35,4.77-5.53,7.87-8.24,11.72h8.24v-11.72Z"/>
  <path class="cls-2" d="m274.69,107.91c2.77.39,4.57.64,8.75,1.23-2.19,2.67-3.34,4.43-4.87,5.79-.69.61-2.1.39-2.08.38-1.62,3.87-2.89,6.94-4.17,10-1.5-3.08-3-6.16-4.96-10.19h-17.99c1.43-11.12,17.45-30.57,25.32-30.04v22.83Zm-6.78-10.8c-.43-.18-.87-.35-1.3-.53-2.54,3.62-5.07,7.24-8.4,12,4.08-.25,6.81-.41,9.71-.59v-10.88h-.01Z"/>
  <path class="cls-2" d="m541.61,237.03c1.96,1.67,3.92,3.34,5.89,5-1.77,1.53-3.54,3.06-6.63,5.74.1,1.05.37,3.89.64,6.73-3.03.99-5.24-2.17-6.65-9.46h-21.25c1.53-3.67,2.16-6.68,3.82-8.92,5.17-7,10.67-13.76,16.21-20.47,1.03-1.25,2.88-1.83,4.35-2.72.66,1.74,1.82,3.46,1.88,5.22.23,6.4.09,12.81.09,19.22.55-.11,1.1-.22,1.65-.34h0Zm-8.14,1.03v-13.01c-3.48,5.03-6.07,8.77-9.01,13.01h9.01Z"/>
  <path class="cls-2" d="m450.83,341.79v23.49c2.66.49,4.79.88,7.32,1.35v6.25c-2.37.22-4.58.43-7.64.71.61,3.29,1.15,6.26,1.69,9.19-2.92.58-5.48-2.58-7.67-9.48h-19.55c1.08-9.04,19.47-31.65,25.85-31.52h0Zm-5.56,10.51c-3.87,5.25-6.69,9.05-9.88,13.37h9.16c.22-4.2.42-7.82.71-13.37h.01Z"/>
  <path class="cls-2" d="m381.49,310.33c6.21-14.29,15.27-23.85,24.39-33.36.81.46,1.62.93,2.44,1.39v24.82c2.84.39,5.03.7,7.19.99.57,3.66-1.76,5.99-6.97,6.98.7,2.97,1.39,5.9,2.09,8.86-3.83,1.63-6.33-1.6-7.49-9.69h-21.65Zm20.41-20.44c-3.35,5.43-5.61,9.11-8.23,13.37h8.23v-13.37Z"/>
  <path class="cls-2" d="m445.59,310.12h-19.33c-1.09-7.16,17.6-31.29,24.89-31.83v24.6c2.83.46,4.82.79,6.98,1.14,3.37,6.88-3.3,5.36-6.72,7.2.5,2.79,1,5.57,1.49,8.34-4,1.37-6.44-1.78-7.31-9.45h0Zm-1.42-6.8v-13.19c-3.34,5.06-5.77,8.74-8.71,13.19h8.71Z"/>
  <path class="cls-2" d="m540.45,312.57c.49,1.72,1.26,4.41,2.02,7.09-3.74,1.26-6.31-1.93-7.71-9.58h-19.25c.06-8.55,17.82-31.3,24.72-32.08v23.28c3.4,2.38,5.88,4.11,8.36,5.84-2.24,1.5-4.49,3-8.14,5.44h0Zm-6.43-19.86c-.52-.13-1.03-.25-1.55-.38-2.25,3.53-4.5,7.06-7.41,11.64,4.05-.19,6.61-.31,8.96-.42v-10.85h0Z"/>
  <path class="cls-2" d="m547.25,350.27c-3.21.26-5.88,1.26-7.85.49-7.17-2.82-11.76-1.96-15.4,3.71-3.97,6.17-3.34,14.39,1.46,19.05,4.44,4.3,10.31,4.24,16.1-.16.72-.54,1.43-1.1,2.06-1.58.61.17,1.17.15,1.45.42,1.13,1.09,2.17,2.27,4.41,4.67-4.39,2.4-7.97,5.22-12.03,6.4-8.44,2.45-17.37-2.4-20.84-10.48-4.01-9.32-.32-22.64,7.47-27.88,5.89-3.96,17.49-3.65,23.18,5.36h0Z"/>
  <path class="cls-2" d="m547.92,184.44c-8.61,9.02-19.65,9.27-27.5.97-7.7-8.14-7.06-23.49,1.31-31.19,7.48-6.89,18.92-6.11,26.82,3.44-4.03,0-7.03.82-9.24-.16-5.97-2.62-10.75-1.65-14.68,3.32-4.16,5.27-3.77,14.97.87,19.82,4.35,4.55,9.3,5.8,14.62,1.43,3.55-2.92,5.72-1.24,7.81,2.38h-.01Z"/>
  <path class="cls-2" d="m496.48,288.62c-6.74-5.33-11.75-5.8-16.32-1.55-5.31,4.94-6.14,14.95-1.73,20.92,3.82,5.18,9.43,5.59,17.21,1.81,1.67-.81,4.06-.12,7.08-.12-7.2,10.66-16.8,12.4-25.78,5.99-8.31-5.94-10.6-18.82-5.07-28.57,4.64-8.18,14.95-11.71,23.2-7.95,5.96,2.72,6.38,5.54,1.41,9.47h0Z"/>
  <path class="cls-2" d="m499.97,182.6c-7.81,11.47-20.14,9.54-26.35,3.47-7.65-7.48-8.15-21.77-.96-30.25,6.66-7.85,17.42-8.38,27.48-1.07-2.13,3.78-3.88,5.56-8.89,2.73-2.83-1.59-8.34-1.12-11.26.67-8.14,5-7.64,20.36.85,24.63,3.2,1.61,8.03-.06,12.12-.18,2.34-.07,4.68,0,7.02,0h0Z"/>
  <path class="cls-2" d="m366.29,365.35h-18.4c-.93,6.42-1.77,12.46-2.8,18.46-.03.18-2.05.02-3.62.02v-42.02h31.1c1.44,4.49-.66,5.83-4.72,5.78-6.63-.08-13.26-.02-20.37-.02v11.09c4.8,0,9.72.16,14.63-.05,4.71-.2,5.41,2.06,4.19,6.74h-.01Z"/>
  <path class="cls-2" d="m371.04,286.48c-3.28,0-5.8.73-7.52-.13-5.62-2.84-10.69-2.93-14.86,2.08-4.15,4.99-3.76,15,.54,20,4.24,4.94,9.38,5.15,14.91,2.33.82-.42,1.58-1.28,2.38-1.3,1.56-.04,3.14.38,4.71.61-.37,1.35-.33,3.08-1.17,3.99-5.49,6-14.48,7.13-21.38,2.85-9.11-5.66-9.4-14.59-8.43-23.77.8-7.58,4.95-12.62,12.49-14.69,6.73-1.85,12.85.37,18.33,8.04h0Z"/>
  <path class="cls-2" d="m411.03,90.84c-1.69,1.84-3.05,3.32-4.63,5.04-5.54-4.37-10.73-7.34-16.5-2.11-4.4,3.99-6.06,12.98-3.65,19.36,2.66,7.03,10.51,9.4,17.06,5.17,2.57-1.67,5.07-1.43,7.5.7-5.18,7.78-16.97,9.79-24.72,4.22-8.36-6.01-10.3-21.53-3.84-30.69,6.23-8.84,17.84-9.81,28.78-1.68h0Z"/>
  <path class="cls-2" d="m338.38,214.28c4.79-2.33,6.94-.69,8.3,3.35,2.6,7.73,5.43,15.39,8.76,24.77,2.61-9.11,4.77-16.48,6.81-23.89,1.08-3.92,2.95-6.17,7.63-4.13-3.63,12.75-7.21,25.51-10.99,38.21-.36,1.21-1.94,2.78-3.04,2.85-1.09.07-2.92-1.31-3.35-2.46-4.82-12.85-9.44-25.78-14.12-38.7Z"/>
  <path class="cls-2" d="m390.81,155.74v11.38c4.25,0,8.11-.32,11.88.15,1.7.21,3.2,1.99,4.8,3.06-1.69.94-3.3,2.48-5.07,2.68-3.61.42-7.29.13-12.27.13,0,4.54.27,8.78-.15,12.95-.15,1.45-2,2.74-3.08,4.1-.88-1.29-2.5-2.58-2.52-3.89-.2-11.67-.12-23.34-.12-36.23,9.47,0,18.52-.09,27.56.12,1.06.03,2.08,1.76,3.11,2.7-1.29.95-2.54,2.66-3.87,2.71-6.6.28-13.21.13-20.28.13h0Z"/>
  <path class="cls-1" d="m628.3,128.34c4.1-10.7,16.62-13.27,22.92-21.79-5.55-9.54-20.98-10.25-23-23.15.54-.58,1.09-1.16,1.63-1.74,10.86,7.73,21.73,15.47,34.1,24.28-11.97,8.78-22.68,16.64-33.39,24.51-.75-.7-1.51-1.4-2.26-2.1h0Z"/>
  <path class="cls-2" d="m437.02,92.9c-3.07,1.78-5.78,3.35-9.51,5.51-.44-2.55-1.69-5.73-.98-6.25,4.41-3.23,9.26-5.86,13.96-8.69.76.51,1.53,1.01,2.29,1.52,0,12.71.06,25.43-.13,38.14-.01.96-1.83,1.89-2.81,2.83-.94-1.22-2.67-2.42-2.7-3.67-.23-9.58-.13-19.16-.13-29.39h.01Z"/>
  <path class="cls-1" d="m553.79,129.82c5.38-14.54,10.68-29.12,16.26-43.59.64-1.65,2.89-2.67,4.39-3.99.73.54,1.45,1.08,2.18,1.62-2.91,8.05-5.76,16.11-8.74,24.13-2.31,6.21-4.55,12.47-7.3,18.49-.9,1.98-3.27,3.28-4.97,4.89-.61-.52-1.22-1.04-1.83-1.56h0Z"/>
  <path class="cls-1" d="m567.53,385.77c5.6-4.53,10.47-8.47,16.34-13.21-5.25-2.21-9.5-3.99-14-5.87,1.95-5.04,4.25-7.97,9.85-3.56,4.08,3.21,8.62,5.85,12.96,8.75-6.61,9.35-19.07,16.84-25.15,13.9h0Z"/>
  <path class="cls-1" d="m366.55,82.22c-6.08,16.49-11.45,31.3-17.12,45.99-.48,1.24-2.91,1.73-4.44,2.56-.51-.46-1.02-.93-1.54-1.39,5.72-15.33,11.4-30.67,17.29-45.93.25-.64,2.37-.55,5.8-1.24h.01Z"/>
  <path class="cls-1" d="m562.78,263.75c6.47-4.92,11.16-8.49,16.63-12.65-4.27-2.44-8.06-4.6-12.26-6.99,1.49-2.04,2.81-3.84,4.55-6.23,5.87,4.21,11.51,8.25,17.98,12.89-7.16,5.26-13.42,10.07-19.98,14.45-1.01.67-3.35-.65-6.91-1.47h-.01Z"/>
  <path class="cls-1" d="m697.62,121.25c-8.77,10.9-19.27,16.36-23.52,12.12,4.51-3.51,8.99-6.99,13.91-10.81-4.16-2.7-8.06-5.23-12.05-7.81,2.35-4.82,4.82-5.98,9.05-2.37,3.79,3.24,8.17,5.79,12.61,8.87h0Z"/>
  <path class="cls-5" d="m580.45,303.98c-3.67,0-7.36.26-10.98-.14-1.28-.14-2.38-1.89-3.56-2.9.95-1.04,1.87-2.94,2.86-2.97,7.78-.26,15.57-.28,23.35-.05.96.03,1.87,1.96,2.8,3-1.16,1.02-2.24,2.79-3.5,2.93-3.62.4-7.32.14-10.98.14v-.02h.01Z"/>
  <path class="cls-5" d="m610.19,172.71c1.36-1.18,2.69-3.31,4.1-3.36,6.87-.29,13.76-.13,20.64.17,1.06.05,2.06,1.68,3.08,2.58-1.02.91-2.02,2.57-3.06,2.6-7.95.22-15.91.12-23.87.12-.29-.7-.59-1.41-.88-2.11h-.01Z"/>
  <path class="cls-5" d="m528.3,118.73c-2.73,0-5.49.26-8.17-.12-1.18-.17-2.16-1.65-3.23-2.54.99-1.01,1.94-2.84,2.98-2.89,6.12-.3,12.27-.29,18.4-.1.8.03,2.34,1.9,2.16,2.54-.33,1.17-1.58,2.81-2.61,2.93-3.14.38-6.35.14-9.53.14v.03h0Z"/>
  <path class="cls-3" d="m390.64,376.66v-11.62c3.65.25,7.31-.07,10.57.93,2.08.64,5.06,3.32,4.95,4.9-.14,2.03-2.66,4.91-4.73,5.54-3.08.94-6.67.24-10.79.24h0Z"/>
  <path class="cls-3" d="m391.67,249.37v-12.26c5.04,1.3,9.46,2.18,13.6,3.79.61.24.38,5.58-.33,5.8-4.25,1.33-8.75,1.85-13.27,2.67h0Z"/>
  <path class="cls-3" d="m391.48,232.4v-13.38c4.23,1.22,8.06,1.83,11.31,3.55.98.52,1.11,5.59.29,6.02-3.26,1.72-7.06,2.44-11.6,3.81Z"/>
  <path class="cls-3" d="m438.39,187.64c-3.12-3.73-5.18-6.18-7.24-8.64,2.44-2,5.17-5.88,7.26-5.56,3.18.48,5.93,3.87,8.86,6.03-2.48,2.28-4.96,4.56-8.88,8.17Z"/>
  <path class="cls-3" d="m446.91,158.86c-3.82,3.41-5.76,6.14-8.31,6.96-1.13.37-5.14-3.32-4.94-4.75.31-2.2,2.81-4.99,4.99-5.75,1.63-.56,4.24,1.69,8.26,3.54Z"/>
  <path class="cls-3" d="m482.87,122.61c-2.88-4.31-5.5-6.51-5.69-8.9-.33-4.27,2.32-7.42,7.01-7.44,4.37-.03,7.41,2.84,6.44,6.86-.71,2.93-4.1,5.21-7.76,9.48Z"/>
  <path class="cls-3" d="m355.69,188.09c-3.59-4.03-5.75-6.46-7.91-8.89,2.32-1.95,4.7-5.53,6.93-5.43,2.83.13,5.53,3.24,8.29,5.06-2,2.54-4,5.07-7.31,9.27h0Z"/>
  <path class="cls-3" d="m363.39,161.01c-4.05,2.46-6.6,5.14-8.05,4.64-2.43-.84-4.15-3.7-6.17-5.72,1.99-1.51,3.99-4.23,5.98-4.22,2.14,0,4.26,2.58,8.24,5.3Z"/>
  <path class="cls-3" d="m222.71,104.87c3.4,4.19,6.6,6.39,6.98,9,.64,4.46-3.24,6.93-7.16,6.05-2.67-.6-6.67-3.79-6.64-5.78.03-2.55,3.5-5.06,6.82-9.27Z"/>
  <path class="cls-3" d="m228.93,97.07c-2.04,1.19-4.2,3.48-6.09,3.28-2.01-.21-3.76-2.79-5.63-4.34,1.79-1.68,3.43-4.45,5.41-4.71,1.9-.25,4.15,2.09,6.24,3.3.02.82.04,1.65.06,2.47h0Z"/>
  <path class="cls-3" d="m180.42,122.39c-3.27-3.85-6.77-6.17-6.76-8.49,0-1.98,3.75-4.94,6.35-5.68,4.02-1.15,7.69,1.3,7.16,5.65-.31,2.52-3.57,4.68-6.75,8.51h0Z"/>
  <path class="cls-3" d="m180.68,88.18c2.51,3.88,5.02,6.07,4.97,8.22-.03,1.67-3.49,4.81-4.96,4.56-2.18-.37-5.28-2.99-5.53-4.96-.23-1.85,2.73-4.1,5.51-7.82h.01Z"/>
  <path class="cls-3" d="m319.3,166.51c-2.13,2.84-3.6,4.8-5.07,6.76-2.5-5.11-2.58-8.36,5.07-6.76Z"/>
  <path class="cls-3" d="m319.21,229.89c-1.5,1.39-3.01,2.78-4.51,4.17-.83-1.05-1.65-2.09-2.48-3.14,1.66-1.21,3.32-2.41,4.98-3.62.67.86,1.34,1.73,2.01,2.59Z"/>
  <path class="cls-3" d="m586.94,171.52c-.47,1.95-.36,4.71-1.68,6.24-2.37,2.76-5.6,6.6-8.46,6.59-2.68,0-6.63-3.98-7.69-7.02-1.41-4.07-1.68-9.29-.35-13.32,1.05-3.15,5.29-7.23,8.12-7.23s6.25,4.11,8.54,7.09c1.35,1.76,1.02,4.82,1.51,7.66h.01Z"/>
  <path class="cls-3" d="m143.02,103.83c-2.01,1.89-2.98,3.45-4.28,3.79-.81.21-3.13-1.85-3-2.17.64-1.55,1.69-3.09,3.01-4.11.37-.29,2.11,1.19,4.27,2.48h0Z"/>
  <path class="cls-3" d="m321.39,355.68c-3.2,3.27-5.15,5.26-8.21,8.39-1.06-9.96-.91-10.12,8.21-8.39Z"/>
  <path class="cls-3" d="m311.7,106.12c1.42-1.51,2.84-3.03,4.26-4.54,1.07,1.08,2.14,2.15,3.21,3.23-1.79,1.27-3.58,2.53-5.37,3.8-.7-.83-1.41-1.66-2.11-2.49h0Z"/>
  <path class="cls-3" d="m318.97,294.37c-1.41,1.68-2.81,3.35-4.22,5.03-.83-1.3-2.64-3.25-2.3-3.77.99-1.5,2.86-2.41,4.38-3.55.71.77,1.43,1.53,2.14,2.3h0Z"/>
  <path class="cls-3" d="m479.54,238.4c3.45-4.99,5.9-8.51,8.34-12.04.49.05.97.1,1.46.14-.17,3.39-.35,6.78-.57,11.15-2.62.21-5.14.42-9.23.75h0Z"/>
  <path class="cls-3" d="m488.86,355.27v10.44h-9.26c2.87-3.94,5.41-7.43,7.95-10.91.44.16.87.31,1.31.47Z"/>
  <path class="cls-3" d="m444.59,226.08v11.72h-8.24c2.71-3.85,4.89-6.95,8.24-11.72Z"/>
  <path class="cls-3" d="m267.91,97.11v10.88c-2.89.18-5.63.34-9.71.59,3.33-4.75,5.87-8.38,8.4-12,.43.18.87.35,1.3.53h.01Z"/>
  <path class="cls-3" d="m533.47,238.06h-9.01c2.94-4.24,5.52-7.97,9.01-13.01v13.01Z"/>
  <path class="cls-3" d="m445.27,352.3c-.3,5.56-.49,9.17-.71,13.37h-9.16c3.19-4.32,6-8.13,9.88-13.37h-.01Z"/>
  <path class="cls-3" d="m401.9,289.9v13.37h-8.23c2.62-4.25,4.89-7.94,8.23-13.37Z"/>
  <path class="cls-3" d="m444.17,303.32h-8.71c2.94-4.45,5.37-8.14,8.71-13.19v13.19Z"/>
  <path class="cls-3" d="m534.02,292.71v10.85c-2.35.11-4.92.23-8.96.42,2.92-4.58,5.17-8.11,7.41-11.64.52.13,1.03.25,1.55.38h0Z"/>
</svg>