<?xml version="1.0" encoding="UTF-8"?>
<svg id="Layer_2" data-name="Layer 2" xmlns="http://www.w3.org/2000/svg" viewBox="0 0 869.6 886.22">
  <defs>
    <style>
      .cls-1 {
        fill: #0c515f;
      }

      .cls-1, .cls-2, .cls-3, .cls-4, .cls-5, .cls-6, .cls-7, .cls-8 {
        stroke-width: 0px;
      }

      .cls-2 {
        fill: #1a6e74;
      }

      .cls-3 {
        fill: #094c48;
      }

      .cls-4 {
        fill: #77d5a7;
      }

      .cls-5 {
        fill: #71bdb4;
      }

      .cls-6 {
        fill: #b4fdba;
      }

      .cls-7 {
        fill: #093b44;
      }

      .cls-8 {
        fill: #51a8a0;
      }
    </style>
  </defs>
  <g id="Layer_1-2" data-name="Layer 1">
    <g>
      <path class="cls-3" d="m162.48,572.59c1.38-.13,2.77-.27,4.66-.45-.92,5.44-3.19,10-4.88,14.7-3.48,9.65-6.59,19.46-11.49,28.56-14.57,27.09-40.14,39.89-70.59,35.44-7.76-1.13-15.21-3.48-22.85-5.02-4.09-.83-5.37-2.46-3.62-6.26,1.45,2.06,2.78,2.08,4.58.17,3.17-3.36,7.09-5.72,11.04-8.13,15.82-9.68,31.43-19.7,47.34-29.27,14.36-8.64,28.16-18.23,43.2-25.71,1.92-.96,2.71-2.06,2.62-4.03Z"/>
      <path class="cls-3" d="m753.64,724.95c1.39,7.07,1.38,6.99-5.75,8.59-15.27,3.42-30.62,4.81-45.63-.63-24.54-8.89-38.26-27.76-45.52-51.82-2.55-8.44-3.54-17.34-5.38-26-.54-2.55.29-2.99,2.65-2.76,3.69.36,7.42.37,11.13.53-1.7,3.45-5.23.44-7.58,2.2,3.76,3.82,8.47,6.27,12.66,9.42,11,8.28,21.89,16.69,32.7,25.21,9.42,7.42,19.95,13.33,28.62,21.81,5.15,5.03,11.09,9.27,16.78,13.74,1.65,1.3,3.75,3.76,5.32-.26Z"/>
      <path class="cls-3" d="m214.8,653.11c1.32-.4,2.58-1.19,4.04-.55-2.56,12.44-4.09,25.02-8.69,36.98-12.7,33.07-39.95,49.96-75.15,46.03-5.45-.61-10.81-2-16.26-2.66-4.09-.5-5.24-2.17-3.35-5.84,1.05-.07,2.06-.04,3.01-.77,15.37-11.85,30.57-23.93,46.2-35.42,13.37-9.84,26.43-20.1,40.1-29.56,3.47-2.4,8.11-3.83,10.1-8.22Z"/>
      <path class="cls-3" d="m814.39,638.53c2.03,4.14.95,6.24-3.76,7.38-8.8,2.12-17.55,4.49-26.6,5.22-29.61,2.38-53.08-11.02-66.11-38.61-6.11-12.92-10.81-26.51-16.34-40.28,2.05.26,3.6.46,5.16.66.25,3.89,4.11,3.45,6.24,4.81,16.35,10.5,32.97,20.58,49.4,30.97,16.41,10.37,32.75,20.84,48.97,31.51,3.06,2.01,1.84-1.54,3.05-1.66Z"/>
      <path class="cls-4" d="m118.74,312.8c-25.43-.88-42.49-14.58-54.4-35.85-5.59-9.98-7.75-21.21-10.54-32.18-.53-2.09-.06-3.01,2.2-3.77,6.55-2.2,13.16-3.96,20.02-4.82,6.94-.06,9.82,3.63,11.24,10.27,1.65,7.69,7.85,13.3,11.35,20.23,2.05,4.06,5.56,6.83,9.32,9.25,7.72,4.97,15.46,9.91,23.13,14.96,9.93,6.53,20.35,12.39,29.03,20.98-12.19,0-23.97-.03-35.74.03-1.88,0-3.94-.64-5.6.89Z"/>
      <path class="cls-3" d="m751.71,155.33c1.96.11,3.39.49,3.02,3.11-1.89,13.34-3.3,26.84-8.86,39.27-10.15,22.69-27.87,35.58-52.41,39.22-13.44,1.99-26.92.76-40.35.13-5.09-.24-.77-3.44-.83-5.27,1.93.25,3.39-.55,4.71-1.91,5.33-5.47,11.79-9.66,17.84-14.13,11.35-8.38,22.05-17.58,33.57-25.75,13.39-9.49,26.32-19.62,39.52-29.36,1.93-1.42,3.83-2.6,3.79-5.31Z"/>
      <path class="cls-3" d="m216.87,228.61c.73,2.72,1.46,5.45,2.26,8.41-15.55,1.01-30.88,2.38-45.97-.51-28.2-5.4-49.1-27.6-54.46-56.82-1.25-6.81-2.61-13.6-3.89-20.41-.32-1.68-1.17-3.71,1.88-3.73-.21,1.44.58,2.23,1.67,3.04,14.16,10.59,28.32,21.17,42.4,31.85,17.04,12.93,34.11,25.82,50.92,39.06,2.89,2.28,3.85,1.79,5.19-.88Z"/>
      <path class="cls-4" d="m216.87,228.61c-1.34,2.67-2.3,3.16-5.19.88-16.8-13.23-33.87-26.13-50.92-39.06-14.08-10.68-28.24-21.26-42.4-31.85-1.08-.81-1.88-1.6-1.67-3.04,28.93-8.49,55.54-6.08,77.79,16.64,9.63,9.83,14.82,22.01,18.2,35.05,1.82,7.02,3.69,14.08,4.18,21.38Z"/>
      <path class="cls-3" d="m811.5,240.95c4.06.86,3.88,3.23,3.14,6.73-3.13,14.69-7.42,28.8-16.85,40.87-11.16,14.3-25.59,22.79-43.75,24.27-17.07,1.39-34.31-.75-52.02,3.11,1.3-2.75,2.19-4.61,3.07-6.47,3.08.98,5.13-1.13,7.13-2.69,9.22-7.2,19.29-13.13,29.04-19.51,22.06-14.42,44.34-28.5,66.5-42.76,1.44-.93,3.31-1.52,3.73-3.56Z"/>
      <path class="cls-3" d="m507.56,768.67c.47-7.21,2.05-14.31,1.42-22.46,13.47,6.88,27.9,9.2,40.55,16.1,22.9,12.48,32.88,38.6,25.5,66.1-2.55,9.49-7.04,18.16-11.33,26.91-2.4,4.9-4.91-.06-7.38-.19,1.41-1.24,2-2.33,1.03-4.45-3.05-6.74-6.32-13.48-8.39-20.55-6.94-23.69-16.47-46.22-28.88-67.53-2.56-4.39-5.8-8.38-8.73-12.56-.94,3.56-.65,6.62-1.02,9.58-.39,3.13.34,6.72-2.76,9.06Z"/>
      <path class="cls-4" d="m751.71,155.33c.04,2.71-1.86,3.89-3.79,5.31-13.2,9.75-26.14,19.87-39.52,29.36-11.52,8.17-22.22,17.36-33.57,25.75-6.05,4.47-12.51,8.66-17.84,14.13-1.33,1.36-2.78,2.16-4.71,1.91,1.73-18.4,5.39-36.38,16.38-51.63,18.63-25.85,44.42-33.18,74.83-26.98,2.77.57,5.48,1.42,8.22,2.15Z"/>
      <path class="cls-4" d="m811.5,240.95c-.42,2.04-2.29,2.63-3.73,3.56-22.17,14.26-44.45,28.34-66.5,42.76-9.76,6.38-19.82,12.31-29.04,19.51-2,1.56-4.06,3.67-7.13,2.69.24-.62.48-1.25.72-1.87.23-.47.46-.95.69-1.42,0,0-.17.16-.17.16,2.19-1.17,3.43-2.65,1.65-5.11,4.12-14.32,8.32-28.62,17.38-40.81,16.41-22.08,39.1-28,65.13-24.91,7.21.86,14.34,2.35,21.01,5.44Z"/>
      <path class="cls-4" d="m162.48,572.59c.09,1.98-.7,3.08-2.62,4.03-15.04,7.49-28.84,17.08-43.2,25.71-15.9,9.56-31.51,19.58-47.34,29.27-3.94,2.41-7.87,4.77-11.04,8.13-1.8,1.91-3.12,1.89-4.58-.17,1.62-38.5,28.24-70.69,71.12-69.14,12.56.45,25.1,1.43,37.65,2.17Z"/>
      <path class="cls-4" d="m814.39,638.53c-1.21.12.01,3.67-3.05,1.66-16.21-10.67-32.56-21.14-48.97-31.51-16.43-10.38-33.05-20.46-49.4-30.97-2.13-1.37-5.98-.93-6.24-4.81,15.09-.28,30.1-2.34,45.22-2.08,29.57.51,51.44,20.74,59.1,48.87,1.67,6.15,3.07,12.41,3.33,18.84Z"/>
      <path class="cls-3" d="m355.74,136.26c-9.93-3.26-19.97-6.22-29.42-10.81-26.12-12.68-38.09-36.17-33.2-64.83,2.03-11.88,6.5-22.8,11.96-33.41,1.15-2.23,2.31-3.69,4.7-1.38-1.4,2.17-.94,4.19-.05,6.52,4.23,11.05,9.33,21.79,13.42,32.83,7.04,18.99,16.49,36.76,24.94,55.05,2.48,5.38,7.46,9.57,7.65,16.03Z"/>
      <path class="cls-3" d="m433.36,767.52c.67-.95,1.01-3.41,2.7-1.3,8.56,10.66,19.6,19.24,26.53,31.23,12.48,21.63,10.85,42.86-2.77,63.27-6.14,9.2-14.25,16.79-22.54,24.09-1.3,1.14-2.37,2.39-3.72.17,1.24-1.91,1.07-4.05,1.07-6.18,0-35.29,0-70.58-.03-105.87,0-1.85.72-3.97-1.23-5.42Z"/>
      <path class="cls-3" d="m560.43,25.57c1.67-1.6,2.66-.99,3.57.9,6.89,14.11,13.18,28.41,13.53,44.48.53,24.4-10.74,41.7-32.17,52.7-10.79,5.54-22.62,8.39-33.86,12.8-3.97,1.56-1.41-2.5-2.07-3.86,1.59,1.04,2.7,2.44,4.49-.38,8.17-12.83,16.04-25.79,22.41-39.64,7.6-16.52,13.32-33.76,19.64-50.77,1.94-5.2,4.27-10.47,4.46-16.23Z"/>
      <path class="cls-3" d="m432.52,1.42c1.33-1.87,2.71-1.77,4.45-.39,16.97,13.45,30.83,28.91,33.28,51.68,1.53,14.29-2.69,27.03-11.24,38.32-3.95,5.22-8.52,9.97-12.92,14.83-3.78,4.18-7.82,8.13-10.38,13.46-1.89-1.52-3.36-2.93-4.34-4.81,2.65-1.7,3.31-4.09,3.3-7.21-.1-33.01-.08-66.02,0-99.02,0-2.61-.38-4.9-2.15-6.86Z"/>
      <path class="cls-4" d="m753.64,724.95c-1.56,4.02-3.66,1.56-5.32.26-5.69-4.47-11.63-8.71-16.78-13.74-8.67-8.48-19.2-14.39-28.62-21.81-10.81-8.52-21.71-16.93-32.7-25.21-4.18-3.15-8.9-5.6-12.66-9.42,2.35-1.76,5.88,1.25,7.58-2.2,13.8-2.08,27.67-2.46,41.17,1.15,24.16,6.44,37.36,23.8,44.04,46.82,2.27,7.82,3.41,15.93,3.28,24.14Z"/>
      <path class="cls-3" d="m853.05,337.35c1.63.68,3.53,1.05,2.06,3.64-6.41,11.26-12.49,22.75-21.69,32.1-16.03,16.29-35.69,19.16-57.08,15.02-12-2.32-23.8-5.72-36.95-6.05,2.74-4.3,5.23-8.21,7.72-12.12.22,2.06,1.12,2.82,3.2,1.9,2.73-1.21,5.49-2.38,8.3-3.39,26.29-9.46,52.51-19.09,79.72-25.78,5.02-1.23,10.44-1.88,14.74-5.33Z"/>
      <path class="cls-4" d="m214.8,653.11c-1.99,4.39-6.63,5.82-10.1,8.22-13.67,9.46-26.73,19.72-40.1,29.56-15.63,11.5-30.84,23.57-46.2,35.42-.95.73-1.96.69-3.01.77.85-25.01,8.07-47.07,28.79-63.04,9.9-7.64,21.24-11.23,33.49-12.31,12.42-1.09,24.78.13,37.13,1.39Z"/>
      <path class="cls-4" d="m433.36,767.52c1.95,1.45,1.23,3.57,1.23,5.42.04,35.29.02,70.58.03,105.87,0,2.13.17,4.27-1.07,6.18-15.27-12.09-28.4-25.88-32.88-45.58-4.19-18.42.15-35.17,11.99-49.87,6.33-7.86,13.36-15.09,20.7-22.02Z"/>
      <path class="cls-3" d="m357.55,747.88c2.25-1.59,4.34-3.29,4.19,1.68-.29,9.45,1.5,18.73,2.71,28.06,4.87,37.44-9.67,61.88-44.94,75.4-.83.32-1.66.63-2.5.92q-11.29,3.94-15-7.91c1.03-.38,2.33-.78,2.98.19,3.7,5.48,5.02,2.97,7.08-1.47,6.06-13.01,9.92-26.85,15.62-40.01,7.61-17.59,15.97-34.67,27.4-50.14,1.4-1.9,3.38-3.84,2.46-6.7Z"/>
      <path class="cls-4" d="m357.55,747.88c.92,2.87-1.06,4.8-2.46,6.7-11.43,15.47-19.79,32.56-27.4,50.14-5.7,13.16-9.56,27-15.62,40.01-2.07,4.44-3.38,6.95-7.08,1.47-.65-.97-1.95-.57-2.98-.19,0,0,.04-.1.04-.1-.28-.49-.57-.97-.85-1.46-19.37-36.66-6.5-73.37,28.19-87.14,9.19-3.65,18.76-6.32,28.16-9.43Z"/>
      <path class="cls-4" d="m560.43,25.57c-.19,5.76-2.52,11.03-4.46,16.23-6.33,17-12.04,34.25-19.64,50.77-6.37,13.84-14.24,26.81-22.41,39.64-1.8,2.82-2.91,1.42-4.49.38-1.45-12.73-4.29-25.25-4.69-38.15-.84-26.84,11.24-46.17,33.77-59.57,6.84-4.07,13.99-7.66,21.92-9.3Z"/>
      <path class="cls-4" d="m355.74,136.26c-.2-6.46-5.17-10.65-7.65-16.03-8.45-18.28-17.9-36.06-24.94-55.05-4.09-11.04-9.19-21.78-13.42-32.83-.89-2.33-1.35-4.35.05-6.52,23.62,7.31,42.67,20.08,51.68,44.28,5.03,13.52,4.22,27.54,2.26,41.56-.98,7.03-2.15,14.09-2.27,21.15-.09,5.31-1.39,6.27-5.71,3.44Z"/>
      <path class="cls-4" d="m432.52,1.42c1.77,1.96,2.16,4.25,2.15,6.86-.07,33.01-.1,66.02,0,99.02,0,3.12-.66,5.51-3.3,7.21-6.12-6.68-12.51-13.14-18.32-20.09-17.55-20.97-18.62-47.49-2.97-70.52,6.04-8.88,13.49-16.45,22.43-22.48Z"/>
      <path class="cls-3" d="m124.33,508.06c1.74.18,3.53.14,5.6,1.52-10.96,12.05-18.72,26.63-31.02,37.36-17.39,15.17-37.64,16.82-58.93,10.63-8.53-2.48-16.19-7.12-23.4-12.34-1.2-.87-3.69-1.34-2.41-3.9,2.01.25,3.84-.44,5.71-1.02,14.17-4.38,28.36-8.74,42.55-13.07,11.16-3.41,22.24-7.11,33.51-10.05,7.34-1.91,14.35-5.31,22.03-5.61,3.01-.12,4.99-.97,6.35-3.52Z"/>
      <path class="cls-3" d="m855.23,540.25c1.31,1.27,1.91,2.36.03,3.83-23.58,18.52-54.57,22.71-77.12,8.44-6.69-4.24-11.94-10.09-16.85-16.19-6.89-8.57-12.93-17.81-20.91-26.59,2.73-.51,4.84-.91,6.95-1.31,2.42,3.78,6.67,2.04,9.97,3.11,30.55,9.89,61.24,19.37,91.85,29.08,2.21.7,4.11.83,6.07-.36Z"/>
      <path class="cls-3" d="m123.18,371.06c2.27,3.32,4.53,6.65,7.3,10.72-14.39-.01-27.2,4.39-40.37,6.82-16.04,2.96-31.56,1.78-45.47-7.85-7.73-5.35-13.42-12.68-18.48-20.43-4.06-6.23-7.54-12.85-11.25-19.32-.9-1.58-2.15-3.37,1.17-3.64,1.67,1,3.22,2.49,5.02,2.91,11.51,2.7,22.61,6.75,33.95,10,14.11,4.04,27.99,8.68,41.66,14.02,6.73,2.63,13.59,4.88,20.22,7.8,1.6.7,4.97,3.71,6.24-1.04Z"/>
      <path class="cls-3" d="m118.74,312.8c1.67-1.54,3.72-.88,5.6-.89,11.78-.06,23.56-.03,35.74-.03-8.68-8.59-19.1-14.46-29.03-20.98-7.67-5.04-15.41-9.99-23.13-14.96-3.77-2.43-7.28-5.19-9.32-9.25-3.49-6.94-9.69-12.54-11.35-20.23-1.43-6.64-4.3-10.33-11.24-10.27,33.82-6.67,60.9,6.35,74.84,35.48,6.73,14.07,10.64,29.21,16.29,44.12-16.32-3.77-32.45-1.78-48.41-2.98Z"/>
      <path class="cls-4" d="m202.19,807.12c-1.85-10.73-2.33-21.59-.86-32.31,3.73-27.31,22.25-45.95,50.97-52,8.46-1.78,16.95-3.46,25.42-5.18-5.55,7.45-10.96,15.02-16.68,22.34-10.97,14.01-22.12,27.88-33.19,41.82-6.57,8.28-12.42,17.11-19.54,24.98-2.31,2.55-3.93,2.79-6.12.36Z"/>
      <path class="cls-3" d="m279.69,166.7c-.21,1.11,1.61,3.66-1.55,2.74-10.77-3.15-21.97-4.11-32.83-6.81-26.7-6.64-43.19-26.75-44.29-54.23-.36-8.9.7-17.76.67-26.63-.01-4.2,1.75-5.13,5.1-5.07,1.94.03,3.88.35,5.81.54-2.25,1.94-5.19.07-7.88,1.47,1.34,1.89,2.45,3.9,3.97,5.53,14.61,15.61,27.65,32.5,40.82,49.3,6.64,8.47,14.11,16.28,21.09,24.49,2.74,3.22,4.88,7.02,9.09,8.67Z"/>
      <path class="cls-3" d="m665.16,76.19c1.53-.54,2.23-.11,2.36,1.62.94,12.56,2.25,25.18.45,37.7-3.49,24.31-20.37,41.71-45.07,47.16-10.89,2.4-22.06,3.44-32.78,6.67-1.99.6-2.16.06-1.65-1.58,1.88.29,2.72-1,3.83-2.22,10.93-11.96,20.56-25.01,31.1-37.25,11.73-13.63,22.49-28.05,34.43-41.5,2.77-3.12,6.96-5.66,7.31-10.61Z"/>
      <path class="cls-3" d="m667.19,796.48q.88,17.1-16.14,14.39c-12.4-1.95-24.26-5.34-34.75-12.53-18.04-12.38-25.42-30.39-26.73-51.41-.55-8.85-.43-17.75-.57-26.62-.03-1.69-.41-4.19,2.55-1.82-.09,1.37.7,2.29,1.55,3.24,18.35,20.27,34.62,42.21,51.32,63.82,6.19,8.01,11.58,16.84,19.95,23,3.37-3.57.43-8.41,2.8-12.06Z"/>
      <path class="cls-3" d="m202.19,807.12c2.2,2.43,3.81,2.19,6.12-.36,7.12-7.87,12.97-16.7,19.54-24.98,11.07-13.93,22.22-27.8,33.19-41.82,5.73-7.32,11.13-14.88,16.68-22.34,1.94-.63,3.13-.25,2.91,2.12-1.28,13.59.56,27.36-2.15,40.84-3.51,17.48-12.99,30.76-28.65,39.54-14.56,8.16-30.46,11.03-46.83,12.11.06-1.03.27-2.1-.62-2.93-.06-.73-.12-1.46-.18-2.19Z"/>
      <path class="cls-4" d="m665.16,76.19c-.35,4.94-4.54,7.48-7.31,10.61-11.94,13.45-22.7,27.87-34.43,41.5-10.54,12.25-20.18,25.29-31.1,37.25-1.12,1.22-1.95,2.51-3.83,2.22.19-13.31-.28-26.76,2.48-39.79,5.68-26.77,23.1-42.29,49.24-48.62,8.19-1.98,16.56-2.7,24.95-3.17Z"/>
      <path class="cls-4" d="m258.41,233.1c-10.61-4.28-18.97-11.45-25.89-20.38-10.04-12.96-15.25-28.2-20.79-44.26,10.86,1.96,21.33,1.88,31.3,5.16,2.48.82,4.95-.06,7.36.4,16.52,3.15,32.3,8.05,45.39,19.28.44.38.89.76,1.33,1.14,0,0-.04-.22-.04-.22.51,3.97,3.13,7.04,4.56,10.62,3.38,8.48,7.37,16.78,7.93,26.12-1.5-1.24-2.92-2.57-4.5-3.7-20.57-14.86-43.61-25.52-65.81-39.27,1.83,15.77,6.81,29.25,16.6,40.8,1.08,1.28,3,2.11,2.55,4.32Z"/>
      <path class="cls-3" d="m110.33,441.61c5.76,3.95,5.84,4.05-.23,8.27-8.03,5.57-15.85,11.56-24.34,16.32-22.2,12.45-43.98,10.39-64.84-3.58-6.82-4.57-12.38-10.62-18.25-16.34-3.81-3.71-3.49-6.21.61-8.91-.18,4.24,2.84,3.64,5.48,3.64,20.81,0,41.62.06,62.43-.01,12.05-.04,24.08.08,36.02,2.01,1.34.22,2.48-.03,3.11-1.39Z"/>
      <path class="cls-6" d="m527.49,142.97c10.64-5.07,21.19-10.35,32.55-13.74.06,1.58.32,3.19.16,4.75-2.73,27.85-8.75,54.24-32.74,72.5-9.89,4.68-20.39,5.43-31.1,4.73,11.67-22.16,18.5-46.52,31.13-68.24Z"/>
      <path class="cls-4" d="m279.69,166.7c-4.21-1.66-6.35-5.45-9.09-8.67-6.99-8.2-14.45-16.02-21.09-24.49-13.18-16.8-26.22-33.69-40.82-49.3-1.52-1.62-2.63-3.64-3.97-5.53,2.69-1.4,5.63.47,7.88-1.47,25.5,1.56,47.04,10.26,60.36,33.64,4.12,7.22,6.23,15.15,6.62,23.36.4,8.32,0,16.67-.04,25.01-2.82,1.43-2.81,2.86.01,4.27.05,1.06.09,2.12.14,3.18Z"/>
      <path class="cls-6" d="m372.07,210.85c-9.03,1.79-17.77-.03-26.48-2.19-2.04-.51-4.06-1.06-6.09-1.59.04-3.1-3.02-3.68-4.59-5.38-18.62-20.13-24.31-44.75-25.12-71.13,11.05,3.44,21.38,8.68,32.12,12.9.34.3.67.59,1.01.89l-.06-.09c5.15,11.5,10.48,22.91,15.39,34.51,4.54,10.73,10.55,20.83,13.82,32.11Z"/>
      <path class="cls-3" d="m867.89,439.98c1.33.95,2.43,1.62,1.13,3.74-12.75,20.7-46.25,34.9-69.57,29.3-8.21-1.97-15.73-5.55-22.66-10.31-6.88-4.72-13.62-9.65-20.53-14.33-2.24-1.52-3.29-2.55-.38-4.41,1.78-1.13,3.35-2.61,5.01-3.93,1.23,2.97,3.88,2,6.02,2,27.02.06,54.04.33,81.04-.19,6.58-.13,13.43.13,19.94-1.87Z"/>
      <path class="cls-4" d="m667.19,796.48c-2.38,3.64.56,8.48-2.8,12.06-8.37-6.16-13.76-14.99-19.95-23-16.7-21.61-32.97-43.54-51.32-63.82-.85-.94-1.64-1.87-1.55-3.24,15.65,2.95,31.69,4.38,46.15,11.89,2.16,1.12,4.61,1.89,6.15,3.99.62.43,1.23.86,1.85,1.29,1.56.48,2.72,1.46,3.52,2.87.37,3.24,2.21,5.04,5.39,5.55,0,0-.07-.07-.07-.07-.05,1.38.6,2.16,1.98,2.3l.05.06c.33,2.34.22,4.98,3.63,5.13.74.29.94.85.77,1.58.13,1.22-.06,2.59.43,3.64,5.77,12.38,5.58,25.65,5.95,38.83.07.33,0,.64-.18.92Z"/>
      <path class="cls-4" d="m507.56,768.67c3.1-2.34,2.37-5.94,2.76-9.06.37-2.97.08-6.02,1.02-9.58,2.93,4.18,6.17,8.17,8.73,12.56,12.42,21.3,21.95,43.84,28.88,67.53,2.07,7.07,5.34,13.81,8.39,20.55.96,2.13.38,3.22-1.03,4.45-25.19-8.54-44.97-22.79-50.63-50.58-2.42-11.9-.7-24,1.87-35.86Z"/>
      <path class="cls-4" d="m123.18,371.06c-1.27,4.75-4.64,1.75-6.24,1.04-6.63-2.92-13.49-5.17-20.22-7.8-13.67-5.34-27.55-9.98-41.66-14.02-11.34-3.25-22.44-7.3-33.95-10-1.8-.42-3.35-1.91-5.02-2.91,20.1-17.02,49.17-20.91,71.26-9.42,6.86,3.57,12.55,8.65,17.51,14.55,7.34,8.72,13.4,18.28,18.33,28.57Z"/>
      <path class="cls-6" d="m497.6,679.17c11.69-2.57,23.09-1.72,34.15,2.97.39,1.06,1.18,1.35,2.22,1.14,0,0-.05-.05-.05-.05-.65,1.63.89,2.12,1.63,2.95,17.17,19.15,24.57,41.8,24.18,67.26-10.98-3.35-21.67-7.48-32.22-11.99.21-1.48-.27-2.81-.98-4.05-9.1-15.98-15.13-33.48-24.46-49.35-1.67-2.84-4.03-5.4-4.47-8.88Z"/>
      <path class="cls-3" d="m115.77,335.33c-2.16-2.54-4.32-5.08-7.17-8.43,5.83-.45,10.97-.98,16.12-1.22,9.75-.45,19.56-.93,29.23.51,32.6,4.86,51.99,30.09,48.72,63.04q-1.24,12.51-13.5,7.88c1.89-.99,3.64-1.66,1.98-4.59-4.8-8.47-9.98-16.65-16.37-24.04-13.05-15.1-30.35-23.31-48.57-29.97-3.4-1.24-6.43-3.91-10.45-3.17Z"/>
      <path class="cls-4" d="m853.05,337.35c-4.3,3.45-9.72,4.09-14.74,5.33-27.2,6.69-53.42,16.33-79.72,25.78-2.81,1.01-5.56,2.18-8.3,3.39-2.08.92-2.98.16-3.2-1.9,6.82-13.11,14.17-25.99,25.66-35.54,16.45-13.68,35.45-16.32,55.6-10.05,8.93,2.78,17.58,6.54,24.69,13.01Z"/>
      <path class="cls-6" d="m341.21,741.03c-9.81,4.48-19.72,8.69-30.43,10.58-.27-1.38-.85-2.77-.77-4.13,1.28-22.67,7.7-43.44,22.76-60.99.91-1.06,3.06-1.32,2.51-3.45,10.31-3.79,20.92-5.65,31.92-5.07,1.54.08,3.22-.32,4.44,1.08-.16.68-.18,1.44-.51,2.02-11.24,19.36-19.2,40.36-29.93,59.97Z"/>
      <path class="cls-4" d="m867.89,439.98c-6.51,2-13.36,1.75-19.94,1.87-27.01.52-54.03.24-81.04.19-2.14,0-4.79.96-6.02-2,9.8-9.72,19.36-19.9,32.24-25.58,21.51-9.48,46.57-3.63,65.32,14.85,3.38,3.33,7.1,6.4,9.45,10.67Z"/>
      <path class="cls-4" d="m124.33,508.06c-1.36,2.55-3.34,3.41-6.35,3.52-7.68.3-14.69,3.7-22.03,5.61-11.28,2.94-22.36,6.64-33.51,10.05-14.19,4.34-28.37,8.69-42.55,13.07-1.87.58-3.7,1.27-5.71,1.02,5.56-12.97,12.25-25.28,23.16-34.54,14.01-11.9,30.46-14.59,48.03-10.92,13.35,2.79,26.06,7.85,38.96,12.19Z"/>
      <path class="cls-4" d="m630.2,668.3c.29.28.58.56.88.84.4.44.81.87,1.21,1.31,0,0-.14-.16-.14-.16.4.41.8.81,1.19,1.22,0,0-.15-.13-.15-.13.41.4.83.8,1.24,1.2.29.34.58.68.87,1.03.07.99.19,1.94,1.49,2,0,0-.1-.16-.1-.16-.46,1.68.29,2.43,1.92,2.49.3.41.6.83.9,1.24.16.83.32,1.65,1.29,1.95,0,0-.09-.12-.09-.12-.02,1.01.08,1.95,1.34,2.16,0,0-.23-.16-.23-.16.35.45.7.89,1.05,1.34,0,0-.06-.09-.06-.09.07,2.72.32,5.34,3.5,6.35,0,0-.12-.1-.12-.1-.36,2.04-.33,3.87,2.27,4.37,0,0-.14-.11-.14-.11-.45,1.99-.02,3.8.8,5.67,1.85,4.21,3.4,8.55,5.24,12.77,1.75,4.02-.25,4.74-3.54,4.12-3.81-.72-7.53-2.14-11.37-2.49-6.01-.55-11.77-3.68-18.01-1.79-16.83-2.04-32.57-6.91-46.01-17.74-.11-2.88-2.36-4.57-3.74-6.74-6.28-9.88-10.37-20.58-11.96-32.2.91.54,1.85,1.03,2.72,1.63,21.38,14.91,43.5,28.57,67.24,39.45.24.17.6.53.7.47.58-.37.22-.74-.1-1.07-.39-7.56-3.08-14.61-4.86-21.86,1.52-2.29-.57-7.14,4.78-6.7Z"/>
      <path class="cls-3" d="m225.26,564.88c6.56,31.46-11.14,61.47-41.95,71.5-10.84,3.53-22.14,4.62-34.57,7.7,7.45-12.68,14.12-24.38,18.9-36.99.26,2.31-.28,5.95,3.77,2.61,13.22-10.9,27.56-20.29,41.15-30.68,5.02-3.84,12.31-6.01,12.69-14.15Z"/>
      <path class="cls-3" d="m703.37,610.73c4.96,10.98,10.56,21.6,17.38,31.46-1,1.71-2.35.97-3.44.8-12.1-1.85-24.25-3.39-35.77-7.92-26.1-10.26-42.43-38.82-37.63-65.99,4.53.57,5.44,5.2,8.37,7.62,10.86,8.97,22.92,16.23,34.24,24.54,5.11,3.75,10.26,8.08,16.85,9.48Z"/>
      <path class="cls-4" d="m855.23,540.25c-1.96,1.19-3.86,1.06-6.07.36-30.61-9.7-61.3-19.19-91.85-29.08-3.31-1.07-7.55.67-9.97-3.11,13.48-4.89,26.5-11.18,40.9-13.28,20.68-3.02,37.88,3.3,51.34,19.28,6.54,7.76,11.84,16.36,15.66,25.82Z"/>
      <path class="cls-4" d="m110.33,441.61c-.63,1.37-1.78,1.61-3.11,1.39-11.94-1.93-23.97-2.05-36.02-2.01-20.81.08-41.62.01-62.43.01-2.65,0-5.66.59-5.48-3.64,16.07-20.29,36.25-30.95,62.7-26.32,12.53,2.19,22.51,9.3,31.55,17.8,4.39,4.13,8.54,8.5,12.8,12.76Z"/>
      <path class="cls-4" d="m293.78,694.2c-12.31,10.29-27.21,14.55-42.4,18.06-1.86.43-3.8.56-5.7.83-1.74-1.57-3.57-.63-5.5-.41-8.33.98-16.24,4.52-24.7,4.02-.68-7.38,5.16-13.18,4.66-20.47,0,0,.02-.1.02-.1,2.37-.3,2.14-1.88,1.74-3.54,0,0-.16.11-.16.11,1.43-.19,1.49-1.14,1.24-2.25,0,0-.15.13-.15.13,1.41-.22,1.47-1.16,1.2-2.26,0,0-.17.05-.17.05,3.45-.81,3.55-3.54,3.61-6.29,0,0-.09.14-.09.13,1.03-.37,1.12-1.28,1.22-2.17,0,0-.03.05-.03.05.34-.44.69-.87,1.03-1.31,0,0-.19.18-.19.18,1.12-.26,1.24-1.17,1.34-2.09,0,0-.01.02-.01.02.36-.4.71-.8,1.07-1.2,0,0-.11.07-.11.07,3.06-.69,5.39-2.01,4.92-5.73,0,0,.13-.1.13-.1,2.92.95,2.53,3.37,2.54,5.64,0,2.78-.43,5.69,2.17,7.75-.69,4.5-1.37,8.99-2.19,14.33,24.63-13.17,48.31-26.47,71.06-41.38-.16,8.9-4.34,16.45-7.92,24.24-1.85,4.02-6.06,6.84-5.97,11.82l-.35-.04s0-.35,0-.35c-.74.11-1.07.6-1.18,1.29,0,0,.03-.31.04-.31-.39.42-.79.84-1.19,1.26Z"/>
      <path class="cls-4" d="m668.34,400.33c-4.16-20.91-2.18-40.34,12.92-56.98,10.19-11.24,23.22-15.88,37.74-17.57,13.83-1.61,27.6.37,42.69.23-2.7,3.38-4.72,5.92-6.75,8.46-1.77-2.07-3.8-1.3-5.81-.5-12.32,4.93-24.18,10.88-35.69,17.42-8.64,4.91-16.38,11.39-22.71,19-7.95,9.57-14.97,19.92-22.4,29.94Z"/>
      <path class="cls-6" d="m494.18,107.93c2.93,17.05.41,33.1-8.62,48.03-10.68,17.67-25.54,30.11-45.22,36.65-.13-4.38-.26-8.76-.39-13.14.23-5.04.47-10.08.7-15.11,1-.22,1.27-1,1.64-1.85,3.54-8.05,8.39-15.14,14.91-21.14,8.49-7.81,16.6-16.05,25.22-23.7,3.78-3.36,6.88-7.65,11.74-9.72Z"/>
      <path class="cls-4" d="m756.14,549.54c2.29,2.17,4.58,4.35,7.86,7.46-17.03,1.78-32.69,4.03-48.61,2.81-8.78-.67-17.19-2.5-24.78-7.22-16.08-10-24.37-24.3-23.83-43.42.07-2.48.23-4.96.36-7.44q.4-7.6,7.65-5.21c6.44,11.05,13.64,21.5,23.41,29.95,16.64,14.41,37.64,17.88,57.95,23.07Z"/>
      <path class="cls-4" d="m195.8,495.96c4.67-1.92,6.07-.4,6.74,4.66,4.31,32.64-14.46,56.1-47.42,59.14-15.69,1.45-30.98-1.72-47.37-2.81,2.39-2.72,4.18-4.76,5.98-6.8,7.48-2.08,14.92-4.34,22.45-6.19,17.68-4.36,32.95-12.72,44.73-26.8,5.28-6.32,11.07-12.36,13.73-20.47,0,0,.01,0,.01,0,.65.18.99-.13,1.15-.73Z"/>
      <path class="cls-6" d="m429.86,193.59c-20.49-7.23-35.95-20.43-46.6-39.31-8.59-15.23-9.85-31.62-7.6-48.55,8.11,9.82,17.19,18.69,26.57,27.29,10.68,9.79,21.03,19.91,26.9,33.59.94,4.28-.7,8.8,1.2,12.98-.16,4.67-.32,9.34-.48,14.01Z"/>
      <path class="cls-4" d="m161.46,264.89c-3.14-5.92-6.27-11.84-9.48-17.9,37.21.52,69.07,20.97,74.16,54.85.5,3.34.79,6.69.28,10.07-1.1,2.33-2.27,3.63-4.88,1.33-1.54-1.36-3.55-2.19-5.25-3.5-10.83-8.4-21.52-16.96-32.68-24.95-7.47-5.35-16.67-9.36-20.36-19-.18-.46-1.18-.61-1.8-.91Z"/>
      <path class="cls-6" d="m430.55,710.56c-2.3,3.13-.51,6.82-1.36,10.14-6.08,6.62-10.85,14.32-17.47,20.53-8.65,8.11-17.1,16.45-25.32,25-4.35,4.53-8.99,9.05-10.74,15.47-7.06-42.93,17.23-74.26,49.01-84.5,1.68-.54,3.43-.88,5.15-1.31.24,4.89.49,9.78.73,14.67Z"/>
      <path class="cls-6" d="m440.48,719.76c-.18-3.23-.36-6.46-.54-9.69.05-4.67.1-9.34.14-14.01,23.88,5.91,40.68,20.22,50.51,42.71,5.28,12.08,5.43,24.86,4.62,37.72-.04.62-.64,1.2-.97,1.8-4.62-2.97-6.62-8.18-10.3-12.02-11.89-12.43-25.39-23.35-35.52-37.46-2.34-3.26-4.34-6.86-7.94-9.03Z"/>
      <path class="cls-3" d="m668.34,400.33c7.42-10.01,14.44-20.36,22.4-29.94,6.33-7.61,14.07-14.09,22.71-19,11.51-6.54,23.36-12.5,35.69-17.42,2.01-.8,4.04-1.57,5.81.5-6.4,10.42-12.67,20.93-19.24,31.24-10.23,16.05-25.56,24.66-43.58,29.1-7.9,1.95-15.85,3.69-23.78,5.52Z"/>
      <path class="cls-4" d="m648.93,285.48c6.82-15.16,18.69-25.05,33.59-31.48,11.13-4.8,23.05-6.53,35.72-8.08-4.44,8.83-8.62,17.12-12.8,25.41-4.75-.32-7.12,3.73-10.33,5.97-14.48,10.13-29.02,20.2-42.54,31.64-2.06,1.74-3.76,5.94-6.44,4.45-2.9-1.6-.88-5.82-1.05-8.88-.03-.5.49-1.03.44-1.51-.58-6.18,4.01-11.34,3.41-17.51Z"/>
      <path class="cls-4" d="m572.26,193.85c11.88-10.43,26.18-15.67,41.28-19.12,2-.46,4.11-.42,6.16-.61,6.27-.62,12.6-.89,18.79-1.99,4.63-.83,7.66,1.48,9.83,4.45,1.77,2.42-1.9,3.59-3.16,5.27-.91,1.21-.87,2.72-1.54,3.82-3.73,6.15-6.31,13.52-14.67,15.23,1.33-4.02,2.8-8.02,2.35-12.88-2.97,1.53-5.65,2.85-8.27,4.28-21.14,11.56-43.21,21.52-62.5,36.27.89-10.38,4.07-20.02,9.38-28.95,1.08-1.83,2.5-3.46,2.35-5.77Z"/>
      <path class="cls-6" d="m560.53,228.57c19.29-14.75,41.36-24.71,62.5-36.27,2.62-1.43,5.3-2.75,8.27-4.28.45,4.86-1.02,8.86-2.35,12.88-2.46,7-5.69,13.6-9.51,19.97-2.31,3.85-6.05,6.68-7.59,11.03,0,0,.03-.05.03-.05-1.07-.21-1.68.45-2.24,1.19-12.37,8.02-26.12,9.14-40.26,7.74-3.73-.37-7.82-.03-11-2.84-.44-3.39,1.08-6.34,2.15-9.39Z"/>
      <path class="cls-3" d="m648.93,285.48c.61,6.17-3.98,11.33-3.41,17.51.05.49-.47,1.02-.44,1.51.17,3.07-1.84,7.28,1.05,8.88,2.69,1.49,4.39-2.71,6.44-4.45,13.51-11.44,28.06-21.51,42.54-31.64,3.21-2.24,5.58-6.29,10.33-5.97-3.25,9.55-6.32,19.17-9.79,28.64-7.74,21.11-24.08,32.08-44.94,37.59-2.07.55-3.71.82-4.44-1.95-4.3-16.13-5.15-32.16,1.18-48.01.31-.78.98-1.42,1.49-2.12Z"/>
      <path class="cls-3" d="m204.44,249.27c11.02-.63,20.46.05,30.37,3-3.11-7.87-5.86-15.08-6.91-22.83,20.47,7.42,35.23,20.46,42.82,38.43,1.21,2.87,1.06,5.03-1.51,6.94-.84.62-1.71,1.4-2.18,2.31-4.47,8.62-11.17,7.75-18.76,4.88-7.52-2.85-14.63-6.3-21-11.24-7.99-6.2-14.35-14.06-22.84-21.5Z"/>
      <path class="cls-4" d="m115.77,335.33c4.02-.74,7.05,1.93,10.45,3.17,18.22,6.67,35.53,14.88,48.57,29.97,6.38,7.39,11.56,15.56,16.37,24.04,1.66,2.93-.09,3.6-1.98,4.59-25.14-3.96-46.15-14.4-59.19-37.51-4.6-8.16-9.47-16.18-14.21-24.27Z"/>
      <path class="cls-6" d="m625.42,675c1.78,7.25,4.47,14.3,4.86,21.86-.2.2-.4.4-.6.6-23.74-10.89-45.85-24.55-67.24-39.46-.86-.6-1.81-1.09-2.72-1.63-.79-2-1.58-4-2.37-6,15.69-6.44,31.39-6.15,46.93.34,3.14,1.31,6.9,2.14,8.57,5.8,5.61,5.19,8.98,11.9,12.56,18.48Z"/>
      <path class="cls-3" d="m641.9,228.93c-1.6,8.59-3.87,15.98-8.14,23.82,10.58-3.28,20.65-4.12,31.46-4.27-14.94,17.6-31.8,31.04-54.51,35.61-1.62.33-2.58-.03-3.61-1.34-2.62-3.35-5.32-6.66-8.22-9.77-1.61-1.72-.33-2.99.17-4.33,7.6-20.05,22.93-31.82,42.85-39.72Z"/>
      <path class="cls-6" d="m258.41,233.1c.45-2.2-1.47-3.04-2.55-4.32-9.79-11.55-14.77-25.03-16.6-40.8,22.2,13.75,45.24,24.42,65.81,39.27,1.57,1.13,3,2.46,4.5,3.7.95,2.19,1.49,4.48,1.54,6.87-17.53,5.98-34.58,5.39-51.02-3.72-.55-.39-1.1-.78-1.64-1.16l-.03.15Z"/>
      <path class="cls-6" d="m310.35,656.28c-22.75,14.91-46.43,28.21-71.06,41.38.82-5.34,1.5-9.84,2.19-14.33,3.03-10.92,8.37-20.57,15.99-28.95,5.61-5.05,12.73-6.72,19.75-7.83,11.83-1.87,23.55-.8,34.76,3.86-.54,1.96-1.09,3.91-1.63,5.87Z"/>
      <path class="cls-3" d="m666.66,641.84c-11.47-.68-21.47-1.96-32.18-3.83,3.55,6.93,5.98,13.57,7.43,20.67-17.37-3.79-38.33-22.65-43.62-38.95-.5-1.55-.51-2.72.65-3.85.25-.25.48-.52.71-.79,9.13-11.11,10.46-11.42,24.13-6.24,6.7,2.54,12.84,6.06,18.35,10.6,4.24,3.49,8.3,7.22,12.36,10.93,3.77,3.44,7.43,7,12.17,11.48Z"/>
      <path class="cls-4" d="m429.14,166.6c-5.87-13.67-16.22-23.79-26.9-33.59-9.38-8.6-18.46-17.47-26.57-27.29.06-8.56,1.93-16.88,3.41-25.25.47-2.64,1.42-3.36,3.7-1.07,8.02,8.05,16.13,16,24.32,23.87,18.1,17.39,23.93,39.01,22.04,63.33Z"/>
      <path class="cls-4" d="m440.48,719.76c3.6,2.17,5.6,5.78,7.94,9.03,10.13,14.11,23.63,25.03,35.52,37.46,3.68,3.84,5.68,9.05,10.3,12.02.23,9.16-2.41,17.75-5.06,27.14-13.26-13.39-28.07-24.21-37.98-39.83-7.24-11.42-10.54-23.89-10.31-37.35-.04-.45-.08-.89-.13-1.34l-.28-7.14Z"/>
      <path class="cls-3" d="m205.25,641.16c11.23-11.24,20.49-24.45,35.62-30.85,1.63-.69,3.25-1.42,4.92-2.03,12.84-4.73,17.51-3.09,24.97,8.38,1.2,1.84.23,2.99-.39,4.37-4.14,9.24-9.94,17.14-18.21,23.18-7.49,5.47-15.88,9.25-24.39,14.23.77-7.71,3.99-13.97,6.79-21.28-10.22,2.69-19.63,3.74-29.3,4Z"/>
      <path class="cls-4" d="m375.66,781.7c1.75-6.42,6.39-10.94,10.74-15.47,8.22-8.55,16.67-16.89,25.32-25,6.62-6.21,11.39-13.91,17.47-20.53,2.08,23.18-5.18,42.92-21.94,59.08-8.65,8.34-17.44,16.53-26.73,25.32-2.9-8.12-3.93-15.75-4.86-23.41Z"/>
      <path class="cls-4" d="m494.18,107.93c-4.86,2.08-7.96,6.37-11.74,9.72-8.63,7.65-16.73,15.89-25.22,23.7-6.52,6-11.38,13.09-14.91,21.14-.37.85-.64,1.63-1.64,1.85-1.72-23.14,4.55-43.54,20.87-60.43,8.84-9.15,17.8-18.19,27.52-28.11,3.45,11.46,5.37,21.61,5.12,32.12Z"/>
      <path class="cls-3" d="m161.46,264.89c.62.3,1.62.44,1.8.91,3.69,9.64,12.89,13.65,20.36,19,11.16,7.99,21.85,16.55,32.68,24.95,1.7,1.32,3.7,2.15,5.25,3.5,2.61,2.3,3.77,1,4.88-1.33.9,8.3-1.6,16.12-3.39,24.05-.49,2.18-1.51,2.72-3.78,2.1-20.26-5.46-36.02-16.56-44.26-36.37-5.01-12.06-9.05-24.52-13.53-36.81Z"/>
      <path class="cls-4" d="m92.06,402.69c18.52-8.16,37.6-11.68,57.48-6.02,16.54,4.71,25.33,17.84,33.14,31.83,1.08,1.93.05,2.45-1.53,2.92-3.38,1.03-6.75,2.13-10.12,3.21-4.24-2.1-8.43-4.31-12.73-6.29-16.33-7.52-32.22-16.02-49.59-21.16-5.53-1.64-11.58-1.29-16.66-4.49Z"/>
      <path class="cls-6" d="m756.14,549.54c-20.31-5.2-41.31-8.66-57.95-23.07-9.76-8.45-16.96-18.91-23.41-29.95,31.53,1.95,56.6,15.33,74.16,41.95,2.42,3.68,5.58,6.88,7.2,11.08Z"/>
      <path class="cls-4" d="m700.36,434.69c-14.21-3.01-14.1-2.95-7.17-14.96,9.62-16.67,24.45-24.48,43.17-25.49,13.82-.74,27.02,2.38,39.8,7.46-.04,1.3-.8,1.81-2.01,1.98-15.8,2.23-29.94,9.01-43.95,16.12-9.91,5.03-20.45,8.82-29.84,14.89Z"/>
      <path class="cls-6" d="m194.63,496.7c-2.66,8.1-8.45,14.15-13.73,20.47-11.78,14.08-27.05,22.44-44.73,26.8-7.54,1.86-14.97,4.12-22.45,6.19,10.61-15.97,21.29-31.88,39.01-41.06,13.16-6.82,27.15-10.9,41.9-12.39Z"/>
      <path class="cls-4" d="m169.92,461.39c4.7.7,8.29,3.95,12.6,5.55,1.49.55,1.78,1.35.75,2.76-10.61,14.52-22.18,27.49-42.07,28.3-10.72.44-20.79-2.04-30.58-6.01-3.77-1.53-7.41-3.4-11.1-5.11,4.21-2.72,9.57-2.3,13.79-5,14.71-4.07,29.34-8.44,43.31-14.66,4.43-1.97,9.7-2.04,13.32-5.83Z"/>
      <path class="cls-3" d="m372.07,210.85c-3.27-11.27-9.28-21.37-13.82-32.11-4.91-11.6-10.24-23.02-15.39-34.51,25.68,7.1,49.9,36.04,51.77,61.77.11,1.51.42,3.03-1.58,3.25-6.98.74-13.87,2.59-20.98,1.61Z"/>
      <path class="cls-4" d="m768.58,487.72c-10.74,4.72-21.43,9.56-33.47,10.06-17.1.71-30.02-7.06-40.62-19.69-.68-.82-1.29-1.7-1.96-2.52q-5.74-7.01,2.1-11.59c2.13-1.23,4.18-2.77,6.82-2.79,14,6.26,28.23,11.91,42.65,17.12,7.8,4.08,16.51,5.79,24.48,9.41Z"/>
      <path class="cls-3" d="m527.49,142.97c-12.63,21.72-19.46,46.08-31.13,68.24-6.45.55-12.66-1.35-19.01-1.9-3.77-.33-2.1-3.06-1.81-4.83,3.99-24.32,17.12-42.35,38.07-54.92,4.41-2.64,8.92-5.1,13.88-6.6Z"/>
      <path class="cls-3" d="m527.46,206.48c23.99-18.26,30.01-44.65,32.74-72.5.15-1.56-.1-3.17-.16-4.75,6.16-3.09,12.31-6.18,19.13-9.6.94,9.16.07,17.75-.74,26.24-2.93,30.53-20.12,49.85-48.34,60.17-.82.3-1.75.3-2.62.44Z"/>
      <path class="cls-3" d="m309.79,130.54c.81,26.38,6.5,51,25.12,71.13,1.58,1.7,4.64,2.29,4.59,5.38-27.68-8.23-46.43-32.32-48.7-63.07-.55-7.5-.08-15.08-.08-23.19,6.59,3.37,12.83,6.56,19.07,9.74Z"/>
      <path class="cls-4" d="m703.37,610.73c-6.59-1.4-11.75-5.73-16.85-9.48-11.31-8.31-23.38-15.57-34.24-24.54-2.94-2.43-3.84-7.05-8.37-7.62-.39-2.17.29-4.23.69-6.31,1.93-10.09,1.96-10.19,11.95-7.3,21.79,6.32,35.05,21.39,42.64,42.1,1.58,4.32,2.8,8.76,4.19,13.15Z"/>
      <path class="cls-3" d="m341.21,741.03c10.73-19.61,18.69-40.61,29.93-59.97.33-.58.35-1.34.51-2.02,7.61-1.03,14.59,2.11,21.85,3.36,2.25.38,1.03,2.24.7,3.47-5.89,21.7-18.48,38.16-38.51,48.61-4.68,2.44-9.15,5.47-14.47,6.54Z"/>
      <path class="cls-3" d="m497.6,679.17c.44,3.48,2.8,6.04,4.47,8.88,9.33,15.87,15.36,33.37,24.46,49.35.71,1.24,1.18,2.57.98,4.05-23.67-9.24-41.29-24.63-49.7-49.24-3.41-9.98-3.26-10.28,7.23-11.93,4.14-.65,8.24-2.35,12.56-1.1Z"/>
      <path class="cls-4" d="m225.26,564.88c-.38,8.14-7.67,10.31-12.69,14.15-13.59,10.39-27.93,19.78-41.15,30.68-4.05,3.34-3.51-.3-3.77-2.61-.18-.27-.13-.48.16-.63.14-.08.41-.15.41-.23,0-.26-.09-.53-.15-.79,4.94-18.03,12.57-34.26,29.67-44.09,6.66-3.83,13.95-5.94,21.39-7.72,3.04-.73,4.22,0,4.61,2.95.37,2.78,1.01,5.53,1.53,8.3Z"/>
      <path class="cls-3" d="m559.73,753.44c.38-25.46-7.01-48.11-24.18-67.26-.74-.82-2.28-1.31-1.63-2.95,4.6.37,8.36,2.86,12.07,5.18,19.46,12.16,30.68,29.57,32.74,52.57.54,6,.57,12.05.76,18.08.06,1.95.05,3.68-2.91,2.21-5.54-2.77-11.22-5.23-16.85-7.82Z"/>
      <path class="cls-3" d="m335.29,683.04c.55,2.13-1.6,2.39-2.51,3.45-15.07,17.55-21.49,38.31-22.76,60.99-.08,1.36.5,2.75.77,4.13-5.71,3.96-12.5,5.73-18.49,9.11-1.68.94-2.22-.02-2.26-1.58-.62-23.45,3.37-45.3,21.62-62.2,6.87-6.36,14.74-11.01,23.64-13.9Z"/>
      <path class="cls-3" d="m92.06,402.69c5.08,3.2,11.13,2.85,16.66,4.49,17.37,5.15,33.26,13.65,49.59,21.16,4.3,1.98,8.49,4.18,12.73,6.29-23.5,8.91-45.2,7.65-63.54-11.55-6.23-6.53-12.17-13.33-18.23-20,.01-.01,1.29-.52,2.79-.4Z"/>
      <path class="cls-3" d="m700.36,434.69c9.39-6.07,19.93-9.86,29.84-14.89,14.01-7.11,28.15-13.89,43.95-16.12,1.21-.17,1.97-.68,2.01-1.98.72.2,1.45.39,2.17.59.36.1.71.2,1.07.29,1.75.09,3.14.64,1.24,2.35-10.51,9.44-19.43,20.73-31.81,28-15.79,9.26-32.07,8.07-48.48,1.76Z"/>
      <path class="cls-6" d="m169.92,461.39c-3.62,3.79-8.89,3.86-13.32,5.83-13.97,6.22-28.59,10.59-43.31,14.66,2.92-2.49,4.9-5.15,1.83-8.9-.73-.89-.61-1.97-.19-3.01,1.15-2.83.56-5.53-.6-8.19,13.33-8.53,27.86-8.13,42.53-5.33,4.52.86,9.38,1.53,13.04,4.96Z"/>
      <path class="cls-6" d="m768.58,487.72c-7.97-3.62-16.68-5.33-24.48-9.41-.29-7.32-5.11-14.23-2.04-21.86,9.15,1.78,16.56,6.96,23.83,12.33,4.84,3.57,9.43,7.47,14.23,11.1,2.45,1.85,1.99,2.87-.62,3.8-3.65,1.3-7.28,2.69-10.91,4.04Z"/>
      <path class="cls-1" d="m611.85,231.9c1.54-4.35,5.28-7.18,7.59-11.03,3.82-6.37,7.05-12.98,9.51-19.97,8.36-1.72,10.93-9.08,14.67-15.23.66-1.1.63-2.61,1.54-3.82,1.26-1.68,4.93-2.85,3.16-5.27-2.17-2.97-5.21-5.28-9.83-4.45-6.18,1.1-12.52,1.37-18.79,1.99,7.88-2.91,16.3-2.68,24.44-4.07,4.16-.71,8.38-1,12.95-1.53-7.43,27.02-19.22,50.28-45.24,63.38Z"/>
      <path class="cls-6" d="m742.06,456.44c-3.07,7.64,1.76,14.54,2.04,21.86-14.42-5.21-28.65-10.86-42.65-17.12,12.86-7.38,26.49-8.1,40.61-4.74Z"/>
      <path class="cls-3" d="m311.1,237.83c-.04-2.39-.59-4.68-1.54-6.87-.55-9.34-4.55-17.64-7.93-26.12-1.43-3.58-4.05-6.64-4.56-10.62,13.41,8.57,23.78,19.98,31.74,33.7.89,1.53,1.22,2.61-.59,3.33-5.68,2.26-10.85,5.88-17.13,6.58Z"/>
      <path class="cls-3" d="m560.53,228.57c-1.07,3.05-2.59,5.99-2.15,9.39-6.65-.16-11.82-4.23-17.52-6.82-1.98-.9-.34-2.47.27-3.58,7.63-13.76,17.86-25.13,31.12-33.71.15,2.3-1.26,3.94-2.35,5.77-5.31,8.94-8.49,18.58-9.38,28.95Z"/>
      <path class="cls-3" d="m557.36,650.38c.79,2,1.58,4,2.37,6,1.59,11.62,5.68,22.32,11.96,32.2,1.38,2.17,3.63,3.87,3.74,6.74-14.25-8.55-24.8-20.79-34.17-34.23-1.28-1.83-.94-2.53.89-3.52,4.95-2.67,9.66-5.8,15.21-7.19Z"/>
      <path class="cls-3" d="m310.35,656.28c.54-1.96,1.09-3.92,1.63-5.87,5.9,1.52,10.82,5.05,16.13,7.81,2.87,1.49,1.02,2.71.08,3.99-8.72,11.99-19.3,22.05-31.73,30.13-.09-4.98,4.13-7.79,5.98-11.82,3.58-7.79,7.76-15.35,7.92-24.24Z"/>
      <path class="cls-6" d="m114.34,461.77c1.16,2.66,1.75,5.37.6,8.19-.43,1.04-.54,2.13.19,3.01,3.08,3.75,1.09,6.41-1.83,8.9-4.22,2.7-9.58,2.27-13.79,5-3.79-1.26-7.57-2.52-12.03-4,8.63-8.05,16.64-15.94,26.86-21.11Z"/>
      <path class="cls-3" d="m704.94,447.95c-10.36,3.75-19.37,6.94-28.32,10.29-2.5.94-3.5.69-3.39-2.26.16-4.08.31-8.2-.13-12.24-.44-4.07,1.23-3.96,4.24-3.12,8.71,2.42,17.47,4.65,27.6,7.33Z"/>
      <path class="cls-3" d="m165.04,447.82c9.99-2.69,18.72-4.97,27.41-7.41,2.9-.81,4.3-.45,4.08,3.02-.32,5.12-.31,10.25-.44,15.38-5.17-.44-9.53-3.27-14.31-4.89-5.18-1.75-10.29-3.74-16.74-6.1Z"/>
      <path class="cls-3" d="m429.86,193.59c.16-4.67.32-9.34.48-14.01,3.21-.04,6.42-.08,9.63-.12.13,4.38.26,8.76.39,13.14-.09,4.03-.36,8.06-.23,12.09.15,4.46-3.09,2.85-5.1,2.89-2.07.03-5.3,1.46-5.14-2.93.13-3.68,0-7.37-.02-11.05Z"/>
      <path class="cls-3" d="m440.08,696.05c-.05,4.67-.1,9.34-.14,14.01-3.1.67-6.23.7-9.38.49-.24-4.89-.49-9.78-.73-14.67.08-2.27.41-4.58.17-6.82-.39-3.67.96-4.64,4.62-4.78,4.35-.17,6.11,1.01,5.49,5.46-.29,2.06-.03,4.19-.02,6.3Z"/>
      <path class="cls-3" d="m257.47,654.38c-7.63,8.38-12.96,18.03-15.99,28.95-2.6-2.05-2.17-4.97-2.17-7.75,0-2.27.38-4.69-2.54-5.64,6-6.38,12.15-12.57,20.71-15.56Z"/>
      <path class="cls-1" d="m621.44,713.05c6.24-1.89,12,1.24,18.01,1.79,3.83.35,7.55,1.77,11.37,2.49,3.29.62,5.29-.1,3.54-4.12-1.84-4.22-3.39-8.56-5.24-12.77-.82-1.87-1.25-3.67-.8-5.67,4.64,7.76,6.73,16.46,10.11,25.6-12.92-2.56-24.95-4.94-36.98-7.32Z"/>
      <path class="cls-1" d="m220.13,696.23c.5,7.28-5.33,13.09-4.66,20.47,8.46.5,16.37-3.04,24.7-4.02,1.92-.23,3.76-1.16,5.5.41-11.01,2.29-22.02,4.59-34.05,7.09,3.1-8.61,4.79-16.61,8.51-23.95Z"/>
      <path class="cls-3" d="m625.42,675c-3.58-6.57-6.94-13.29-12.56-18.48,6.2.81,9.84,5.77,14.39,9.16.95.71,2.36,1.33,2.94,2.62-5.35-.44-3.26,4.41-4.78,6.7Z"/>
      <path class="cls-7" d="m667.37,795.56c-.37-13.19-.18-26.46-5.95-38.83-.49-1.05-.3-2.42-.43-3.64,7.71,13.32,9.13,27.58,6.38,42.47Z"/>
      <path class="cls-7" d="m654.62,744.08c-3.18-.51-5.02-2.31-5.39-5.55,2.21,1.45,4.08,3.22,5.39,5.55Z"/>
      <path class="cls-1" d="m236.63,670.04c.47,3.72-1.86,5.04-4.92,5.73,1.22-2.27,2.88-4.17,4.92-5.73Z"/>
      <path class="cls-1" d="m646.31,690.61c-3.18-1.01-3.43-3.63-3.5-6.35,1.7,1.82,2.78,3.99,3.5,6.35Z"/>
      <path class="cls-1" d="m227.47,682.07c-.06,2.75-.16,5.48-3.61,6.29.67-2.4,1.79-4.55,3.61-6.29Z"/>
      <path class="cls-7" d="m660.22,751.5c-3.41-.16-3.3-2.8-3.63-5.13,1.78,1.31,2.8,3.16,3.63,5.13Z"/>
      <path class="cls-7" d="m279.55,163.52c-2.83-1.41-2.83-2.84-.01-4.27,0,1.42,0,2.85.01,4.27Z"/>
      <path class="cls-7" d="m707.99,301.23c1.77,2.45.54,3.93-1.65,5.11.55-1.7,1.1-3.4,1.65-5.11Z"/>
      <path class="cls-1" d="m648.46,694.89c-2.6-.5-2.64-2.33-2.27-4.37,1.41,1.12,1.94,2.7,2.27,4.37Z"/>
      <path class="cls-1" d="m221.9,692.59c.4,1.66.62,3.24-1.74,3.54.16-1.39.71-2.58,1.74-3.54Z"/>
      <path class="cls-1" d="m638.61,677.94c-1.63-.06-2.38-.81-1.92-2.49.64.83,1.28,1.66,1.92,2.49Z"/>
      <path class="cls-7" d="m656.54,746.31c-1.39-.14-2.03-.92-1.98-2.3.99.48,1.69,1.22,1.98,2.3Z"/>
      <path class="cls-1" d="m202.37,809.3c.89.83.68,1.9.62,2.93-1.5-.7-.59-1.92-.62-2.93Z"/>
      <path class="cls-1" d="m228.61,680.04c-.1.89-.19,1.8-1.22,2.17.41-.72.81-1.45,1.22-2.17Z"/>
      <path class="cls-1" d="m224.03,688.32c.27,1.11.21,2.04-1.2,2.26.1-.91.34-1.75,1.2-2.26Z"/>
      <path class="cls-1" d="m222.98,690.45c.25,1.11.19,2.06-1.24,2.25.07-.94.34-1.77,1.24-2.25Z"/>
      <path class="cls-1" d="m636.79,675.6c-1.31-.06-1.43-1.01-1.49-2,.5.67.99,1.33,1.49,2Z"/>
      <path class="cls-1" d="m230.76,676.87c-.1.92-.22,1.82-1.34,2.09.45-.69.89-1.39,1.34-2.09Z"/>
      <path class="cls-1" d="m640.8,681.12c-.97-.29-1.13-1.12-1.29-1.95.43.65.86,1.3,1.29,1.95Z"/>
      <path class="cls-1" d="m609.64,233.05c.56-.75,1.17-1.4,2.24-1.19-.39,1.06-1.41.95-2.24,1.19Z"/>
      <path class="cls-1" d="m642.05,683.17c-1.26-.22-1.35-1.16-1.34-2.16.91.43,1.2,1.25,1.34,2.16Z"/>
      <path class="cls-7" d="m645.71,735.66c-.62-.43-1.23-.86-1.85-1.29.62.43,1.23.86,1.85,1.29Z"/>
      <path class="cls-7" d="m533.96,683.29c-1.04.21-1.83-.08-2.22-1.14.92.02,1.76.22,2.22,1.14Z"/>
      <path class="cls-1" d="m231.81,675.7c-.36.4-.71.8-1.07,1.2.36-.4.71-.8,1.07-1.2Z"/>
      <path class="cls-7" d="m342.92,144.32c-.34-.3-.67-.59-1.01-.89.34.3.67.59,1.01.89Z"/>
      <path class="cls-1" d="m634.43,672.58c-.41-.4-.83-.8-1.24-1.2.41.4.83.8,1.24,1.2Z"/>
      <path class="cls-8" d="m440.75,726.89c.04.45.08.89.13,1.34-.13-.3-.3-.59-.38-.91-.03-.12.16-.29.25-.43Z"/>
      <path class="cls-7" d="m294.93,693.24c.11-.69.44-1.18,1.18-1.29.35,1.11-.48,1.14-1.18,1.29Z"/>
      <path class="cls-1" d="m633.34,671.5c-.4-.41-.79-.81-1.19-1.22.4.41.8.81,1.19,1.22Z"/>
      <path class="cls-7" d="m293.78,694.2c.4-.42.79-.84,1.19-1.26.06.85-.52,1.09-1.19,1.26Z"/>
      <path class="cls-1" d="m632.29,670.45c-.4-.44-.81-.87-1.21-1.31.4.44.81.87,1.21,1.31Z"/>
      <path class="cls-1" d="m229.61,678.78c-.34.44-.69.87-1.03,1.31.34-.44.69-.87,1.03-1.31Z"/>
      <path class="cls-7" d="m297.12,194.44c-.44-.38-.89-.76-1.33-1.14.44.38.89.76,1.33,1.14Z"/>
      <path class="cls-5" d="m195.8,495.96c-.16.6-.5.91-1.15.73.09-.71.51-.89,1.15-.73Z"/>
      <path class="cls-2" d="m779.4,402.58c-.36-.1-.71-.2-1.07-.29.36.1.71.2,1.07.29Z"/>
      <path class="cls-7" d="m706.51,306.17c-.23.47-.46.95-.69,1.42.23-.47.46-.95.69-1.42Z"/>
      <path class="cls-7" d="m168.06,605.44c.06.26.15.53.15.79,0,.08-.26.16-.41.23.09-.34.17-.68.26-1.03Z"/>
      <path class="cls-1" d="m642.87,684.35c-.35-.45-.7-.89-1.05-1.34.35.45.7.89,1.05,1.34Z"/>
      <path class="cls-2" d="m258.44,232.95c.55.39,1.09.78,1.64,1.16-.75-.1-1.67.03-1.64-1.16Z"/>
      <path class="cls-7" d="m301.2,844.46c.28.49.57.97.85,1.46-.28-.48-.57-.97-.85-1.46Z"/>
      <path class="cls-5" d="m630.28,696.86c.33.34.68.7.1,1.07-.09.06-.46-.31-.7-.47.19-.2.39-.4.6-.6Z"/>
    </g>
  </g>
</svg>