<?xml version="1.0" encoding="UTF-8"?>
<svg id="Layer_2" data-name="Layer 2" xmlns="http://www.w3.org/2000/svg" viewBox="0 0 648.78 61.44">
  <defs>
    <style>
      .cls-1 {
        fill: #094c48;
      }

      .cls-1, .cls-2 {
        stroke-width: 0px;
      }

      .cls-2 {
        fill: #77d5a7;
      }
    </style>
  </defs>
  <g id="Layer_1-2" data-name="Layer 1">
    <g>
      <g>
        <path class="cls-1" d="m38.84,10.9c2.9,1.15,5.22,2.88,6.95,5.18s2.59,5.09,2.59,8.35c0,2.45-.43,4.57-1.3,6.37-.86,1.8-2.15,3.25-3.85,4.36-1.7,1.1-3.83,1.9-6.37,2.38l-.36-.5c3.7,0,6.43.71,8.21,2.12,1.78,1.42,2.76,3.68,2.95,6.8l1.15,14.33h-15.05l-.72-11.52c-.14-2.11-.73-3.58-1.76-4.39-1.03-.82-2.7-1.22-5-1.22h-7.06v17.14H4.25V9.17h24.91c3.55,0,6.78.58,9.68,1.73Zm-7.45,19.15c1.15-.86,1.73-2.14,1.73-3.82s-.58-3.02-1.73-3.89c-1.15-.86-2.86-1.3-5.11-1.3h-7.06v10.3h7.06c2.26,0,3.96-.43,5.11-1.3Z"/>
        <path class="cls-1" d="m65.23,58.2c-3.89-2.16-6.89-5.24-9-9.25-2.11-4.01-3.17-8.72-3.17-14.15s1.06-10.22,3.17-14.26c2.11-4.03,5.11-7.13,9-9.29,3.89-2.16,8.47-3.24,13.75-3.24s9.86,1.08,13.75,3.24c3.89,2.16,6.89,5.26,9,9.29,2.11,4.03,3.17,8.78,3.17,14.26s-1.06,10.14-3.17,14.15c-2.11,4.01-5.11,7.09-9,9.25-3.89,2.16-8.47,3.24-13.75,3.24s-9.86-1.08-13.75-3.24Zm19.51-10.37c1.58-1.15,2.8-2.83,3.64-5.04.84-2.21,1.26-4.87,1.26-7.99s-.42-5.81-1.26-8.06c-.84-2.26-2.05-3.96-3.64-5.11s-3.5-1.73-5.76-1.73-4.19.58-5.8,1.73c-1.61,1.15-2.82,2.86-3.64,5.11-.82,2.26-1.22,4.94-1.22,8.06s.41,5.78,1.22,7.99c.82,2.21,2.03,3.89,3.64,5.04,1.61,1.15,3.54,1.73,5.8,1.73s4.18-.58,5.76-1.73Z"/>
        <path class="cls-1" d="m126.72,46.18c.77,1.06,1.76,1.86,2.99,2.41,1.22.55,2.65.83,4.28.83,1.2,0,2.24-.17,3.13-.5.89-.34,1.56-.79,2.02-1.37.46-.58.66-1.3.61-2.16,0-1.2-.61-2.18-1.84-2.95-1.22-.77-3.4-1.51-6.52-2.23-6.82-1.58-11.86-3.65-15.12-6.19-3.26-2.54-4.9-5.86-4.9-9.94,0-3.31.89-6.16,2.66-8.53,1.78-2.38,4.28-4.22,7.52-5.54,3.24-1.32,7.04-1.98,11.41-1.98,3.89,0,7.37.74,10.44,2.23,3.07,1.49,5.53,3.6,7.38,6.34,1.85,2.74,2.99,5.95,3.42,9.65l-14.62.5c-.1-1.44-.46-2.7-1.08-3.78-.62-1.08-1.44-1.91-2.45-2.48-1.01-.58-2.18-.86-3.53-.86-1.92,0-3.47.44-4.64,1.33-1.18.89-1.67,2.03-1.48,3.42.1.82.46,1.51,1.08,2.09.62.58,1.43,1.07,2.41,1.48.98.41,2.24.76,3.78,1.04l.79.22c6.72,1.25,11.78,3.2,15.19,5.87,3.41,2.66,5.11,6.06,5.11,10.19,0,3.31-.88,6.16-2.63,8.53-1.75,2.38-4.21,4.2-7.38,5.47-3.17,1.27-6.84,1.91-11.02,1.91-4.46,0-8.42-.72-11.88-2.16-3.46-1.44-6.17-3.53-8.14-6.26-1.97-2.74-3.07-5.95-3.31-9.65l14.76-.65c.24,1.44.74,2.69,1.51,3.74Z"/>
        <path class="cls-1" d="m177.48,46.18c.77,1.06,1.76,1.86,2.99,2.41,1.22.55,2.65.83,4.28.83,1.2,0,2.24-.17,3.13-.5.89-.34,1.56-.79,2.02-1.37.46-.58.66-1.3.61-2.16,0-1.2-.61-2.18-1.84-2.95-1.22-.77-3.4-1.51-6.52-2.23-6.82-1.58-11.86-3.65-15.12-6.19-3.26-2.54-4.9-5.86-4.9-9.94,0-3.31.89-6.16,2.66-8.53,1.78-2.38,4.28-4.22,7.52-5.54,3.24-1.32,7.04-1.98,11.41-1.98,3.89,0,7.37.74,10.44,2.23,3.07,1.49,5.53,3.6,7.38,6.34,1.85,2.74,2.99,5.95,3.42,9.65l-14.62.5c-.1-1.44-.46-2.7-1.08-3.78-.62-1.08-1.44-1.91-2.45-2.48-1.01-.58-2.18-.86-3.53-.86-1.92,0-3.47.44-4.64,1.33-1.18.89-1.67,2.03-1.48,3.42.1.82.46,1.51,1.08,2.09.62.58,1.43,1.07,2.41,1.48.98.41,2.24.76,3.78,1.04l.79.22c6.72,1.25,11.78,3.2,15.19,5.87,3.41,2.66,5.11,6.06,5.11,10.19,0,3.31-.88,6.16-2.63,8.53-1.75,2.38-4.21,4.2-7.38,5.47-3.17,1.27-6.84,1.91-11.02,1.91-4.46,0-8.42-.72-11.88-2.16-3.46-1.44-6.17-3.53-8.14-6.26-1.97-2.74-3.07-5.95-3.31-9.65l14.76-.65c.24,1.44.74,2.69,1.51,3.74Z"/>
        <path class="cls-1" d="m244.44,9.17h15.7l18.36,51.12h-14.54l-2.66-7.78h-18.14l-2.59,7.78h-14.54l18.43-51.12Zm12.96,31.82l-5.11-15.26-5.18,15.26h10.3Z"/>
        <path class="cls-1" d="m283.46,9.17h14.98v48.17l-8.57-8.93h30.38v11.88h-36.79V9.17Z"/>
        <path class="cls-1" d="m343.43,9.17h15.7l18.36,51.12h-14.54l-2.66-7.78h-18.14l-2.59,7.78h-14.54l18.43-51.12Zm12.96,31.82l-5.11-15.26-5.18,15.26h10.3Z"/>
        <path class="cls-1" d="m397.36,9.17l16.13,27.72V9.17h14.98v51.12h-15.34l-15.7-26.14v26.14h-14.98V9.17h14.9Z"/>
        <path class="cls-1" d="m490.03,9.17v11.88h-31.54l8.57-8.93v23.4l-8.57-6.05h30.24v11.66h-30.24l8.57-6.05v25.2h-14.98V9.17h37.94Z"/>
        <path class="cls-1" d="m506.87,58.2c-3.89-2.16-6.89-5.24-9-9.25-2.11-4.01-3.17-8.72-3.17-14.15s1.06-10.22,3.17-14.26c2.11-4.03,5.11-7.13,9-9.29,3.89-2.16,8.47-3.24,13.75-3.24s9.86,1.08,13.75,3.24c3.89,2.16,6.89,5.26,9,9.29,2.11,4.03,3.17,8.78,3.17,14.26s-1.06,10.14-3.17,14.15c-2.11,4.01-5.11,7.09-9,9.25-3.89,2.16-8.47,3.24-13.75,3.24s-9.86-1.08-13.75-3.24Zm19.51-10.37c1.58-1.15,2.8-2.83,3.64-5.04.84-2.21,1.26-4.87,1.26-7.99s-.42-5.81-1.26-8.06c-.84-2.26-2.05-3.96-3.64-5.11s-3.5-1.73-5.76-1.73-4.19.58-5.8,1.73c-1.61,1.15-2.82,2.86-3.64,5.11-.82,2.26-1.22,4.94-1.22,8.06s.41,5.78,1.22,7.99c.82,2.21,2.03,3.89,3.64,5.04,1.61,1.15,3.54,1.73,5.8,1.73s4.18-.58,5.76-1.73Z"/>
        <path class="cls-1" d="m586.47,10.9c2.9,1.15,5.22,2.88,6.95,5.18s2.59,5.09,2.59,8.35c0,2.45-.43,4.57-1.3,6.37-.86,1.8-2.15,3.25-3.85,4.36-1.7,1.1-3.83,1.9-6.37,2.38l-.36-.5c3.7,0,6.43.71,8.21,2.12,1.78,1.42,2.76,3.68,2.95,6.8l1.15,14.33h-15.05l-.72-11.52c-.14-2.11-.73-3.58-1.76-4.39-1.03-.82-2.7-1.22-5-1.22h-7.06v17.14h-14.98V9.17h24.91c3.55,0,6.78.58,9.68,1.73Zm-7.45,19.15c1.15-.86,1.73-2.14,1.73-3.82s-.58-3.02-1.73-3.89c-1.15-.86-2.86-1.3-5.11-1.3h-7.06v10.3h7.06c2.26,0,3.96-.43,5.11-1.3Z"/>
        <path class="cls-1" d="m641.8,15.83c4.66,4.44,6.98,10.76,6.98,18.97s-2.29,14.45-6.88,18.86c-4.58,4.42-11.1,6.62-19.55,6.62h-19.58V9.17h19.15c8.59,0,15.22,2.22,19.87,6.66Zm-10.91,29.27c1.94-2.21,2.92-5.66,2.92-10.37s-.97-8.16-2.92-10.37c-1.94-2.21-4.93-3.31-8.96-3.31h-4.18v27.36h4.18c4.03,0,7.02-1.1,8.96-3.31Z"/>
      </g>
      <g>
        <path class="cls-2" d="m34.6,2.88c2.9,1.15,5.22,2.88,6.95,5.18s2.59,5.09,2.59,8.35c0,2.45-.43,4.57-1.3,6.37-.86,1.8-2.15,3.25-3.85,4.36-1.7,1.1-3.83,1.9-6.37,2.38l-.36-.5c3.7,0,6.43.71,8.21,2.12,1.78,1.42,2.76,3.68,2.95,6.8l1.15,14.33h-15.05l-.72-11.52c-.14-2.11-.73-3.58-1.76-4.39-1.03-.82-2.7-1.22-5-1.22h-7.06v17.14H0V1.15h24.91c3.55,0,6.78.58,9.68,1.73Zm-7.45,19.15c1.15-.86,1.73-2.14,1.73-3.82s-.58-3.02-1.73-3.89c-1.15-.86-2.86-1.3-5.11-1.3h-7.06v10.3h7.06c2.26,0,3.96-.43,5.11-1.3Z"/>
        <path class="cls-2" d="m60.98,50.18c-3.89-2.16-6.89-5.24-9-9.25-2.11-4.01-3.17-8.72-3.17-14.15s1.06-10.22,3.17-14.26c2.11-4.03,5.11-7.13,9-9.29,3.89-2.16,8.47-3.24,13.75-3.24s9.86,1.08,13.75,3.24c3.89,2.16,6.89,5.26,9,9.29,2.11,4.03,3.17,8.78,3.17,14.26s-1.06,10.14-3.17,14.15c-2.11,4.01-5.11,7.09-9,9.25-3.89,2.16-8.47,3.24-13.75,3.24s-9.86-1.08-13.75-3.24Zm19.51-10.37c1.58-1.15,2.8-2.83,3.64-5.04.84-2.21,1.26-4.87,1.26-7.99s-.42-5.81-1.26-8.06c-.84-2.26-2.05-3.96-3.64-5.11s-3.5-1.73-5.76-1.73-4.19.58-5.8,1.73c-1.61,1.15-2.82,2.86-3.64,5.11-.82,2.26-1.22,4.94-1.22,8.06s.41,5.78,1.22,7.99c.82,2.21,2.03,3.89,3.64,5.04,1.61,1.15,3.54,1.73,5.8,1.73s4.18-.58,5.76-1.73Z"/>
        <path class="cls-2" d="m122.47,38.16c.77,1.06,1.76,1.86,2.99,2.41,1.22.55,2.65.83,4.28.83,1.2,0,2.24-.17,3.13-.5.89-.34,1.56-.79,2.02-1.37.46-.58.66-1.3.61-2.16,0-1.2-.61-2.18-1.84-2.95-1.22-.77-3.4-1.51-6.52-2.23-6.82-1.58-11.86-3.65-15.12-6.19-3.26-2.54-4.9-5.86-4.9-9.94,0-3.31.89-6.16,2.66-8.53,1.78-2.38,4.28-4.22,7.52-5.54,3.24-1.32,7.04-1.98,11.41-1.98,3.89,0,7.37.74,10.44,2.23,3.07,1.49,5.53,3.6,7.38,6.34,1.85,2.74,2.99,5.95,3.42,9.65l-14.62.5c-.1-1.44-.46-2.7-1.08-3.78-.62-1.08-1.44-1.91-2.45-2.48-1.01-.58-2.18-.86-3.53-.86-1.92,0-3.47.44-4.64,1.33-1.18.89-1.67,2.03-1.48,3.42.1.82.46,1.51,1.08,2.09.62.58,1.43,1.07,2.41,1.48.98.41,2.24.76,3.78,1.04l.79.22c6.72,1.25,11.78,3.2,15.19,5.87,3.41,2.66,5.11,6.06,5.11,10.19,0,3.31-.88,6.16-2.63,8.53-1.75,2.38-4.21,4.2-7.38,5.47-3.17,1.27-6.84,1.91-11.02,1.91-4.46,0-8.42-.72-11.88-2.16-3.46-1.44-6.17-3.53-8.14-6.26-1.97-2.74-3.07-5.95-3.31-9.65l14.76-.65c.24,1.44.74,2.69,1.51,3.74Z"/>
        <path class="cls-2" d="m173.23,38.16c.77,1.06,1.76,1.86,2.99,2.41,1.22.55,2.65.83,4.28.83,1.2,0,2.24-.17,3.13-.5.89-.34,1.56-.79,2.02-1.37.46-.58.66-1.3.61-2.16,0-1.2-.61-2.18-1.84-2.95-1.22-.77-3.4-1.51-6.52-2.23-6.82-1.58-11.86-3.65-15.12-6.19-3.26-2.54-4.9-5.86-4.9-9.94,0-3.31.89-6.16,2.66-8.53,1.78-2.38,4.28-4.22,7.52-5.54,3.24-1.32,7.04-1.98,11.41-1.98,3.89,0,7.37.74,10.44,2.23,3.07,1.49,5.53,3.6,7.38,6.34,1.85,2.74,2.99,5.95,3.42,9.65l-14.62.5c-.1-1.44-.46-2.7-1.08-3.78-.62-1.08-1.44-1.91-2.45-2.48-1.01-.58-2.18-.86-3.53-.86-1.92,0-3.47.44-4.64,1.33-1.18.89-1.67,2.03-1.48,3.42.1.82.46,1.51,1.08,2.09.62.58,1.43,1.07,2.41,1.48.98.41,2.24.76,3.78,1.04l.79.22c6.72,1.25,11.78,3.2,15.19,5.87,3.41,2.66,5.11,6.06,5.11,10.19,0,3.31-.88,6.16-2.63,8.53-1.75,2.38-4.21,4.2-7.38,5.47-3.17,1.27-6.84,1.91-11.02,1.91-4.46,0-8.42-.72-11.88-2.16-3.46-1.44-6.17-3.53-8.14-6.26-1.97-2.74-3.07-5.95-3.31-9.65l14.76-.65c.24,1.44.74,2.69,1.51,3.74Z"/>
        <path class="cls-2" d="m240.19,1.15h15.7l18.36,51.12h-14.54l-2.66-7.78h-18.14l-2.59,7.78h-14.54L240.19,1.15Zm12.96,31.82l-5.11-15.26-5.18,15.26h10.3Z"/>
        <path class="cls-2" d="m279.21,1.15h14.98v48.17l-8.57-8.93h30.38v11.88h-36.79V1.15Z"/>
        <path class="cls-2" d="m339.19,1.15h15.7l18.36,51.12h-14.54l-2.66-7.78h-18.14l-2.59,7.78h-14.54L339.19,1.15Zm12.96,31.82l-5.11-15.26-5.18,15.26h10.3Z"/>
        <path class="cls-2" d="m393.11,1.15l16.13,27.72V1.15h14.98v51.12h-15.34l-15.7-26.14v26.14h-14.98V1.15h14.9Z"/>
        <path class="cls-2" d="m485.78,1.15v11.88h-31.54l8.57-8.93v23.4l-8.57-6.05h30.24v11.66h-30.24l8.57-6.05v25.2h-14.98V1.15h37.94Z"/>
        <path class="cls-2" d="m502.63,50.18c-3.89-2.16-6.89-5.24-9-9.25-2.11-4.01-3.17-8.72-3.17-14.15s1.06-10.22,3.17-14.26c2.11-4.03,5.11-7.13,9-9.29,3.89-2.16,8.47-3.24,13.75-3.24s9.86,1.08,13.75,3.24c3.89,2.16,6.89,5.26,9,9.29,2.11,4.03,3.17,8.78,3.17,14.26s-1.06,10.14-3.17,14.15c-2.11,4.01-5.11,7.09-9,9.25-3.89,2.16-8.47,3.24-13.75,3.24s-9.86-1.08-13.75-3.24Zm19.51-10.37c1.58-1.15,2.8-2.83,3.64-5.04.84-2.21,1.26-4.87,1.26-7.99s-.42-5.81-1.26-8.06c-.84-2.26-2.05-3.96-3.64-5.11s-3.5-1.73-5.76-1.73-4.19.58-5.8,1.73c-1.61,1.15-2.82,2.86-3.64,5.11-.82,2.26-1.22,4.94-1.22,8.06s.41,5.78,1.22,7.99c.82,2.21,2.03,3.89,3.64,5.04,1.61,1.15,3.54,1.73,5.8,1.73s4.18-.58,5.76-1.73Z"/>
        <path class="cls-2" d="m582.22,2.88c2.9,1.15,5.22,2.88,6.95,5.18s2.59,5.09,2.59,8.35c0,2.45-.43,4.57-1.3,6.37-.86,1.8-2.15,3.25-3.85,4.36-1.7,1.1-3.83,1.9-6.37,2.38l-.36-.5c3.7,0,6.43.71,8.21,2.12,1.78,1.42,2.76,3.68,2.95,6.8l1.15,14.33h-15.05l-.72-11.52c-.14-2.11-.73-3.58-1.76-4.39-1.03-.82-2.7-1.22-5-1.22h-7.06v17.14h-14.98V1.15h24.91c3.55,0,6.78.58,9.68,1.73Zm-7.45,19.15c1.15-.86,1.73-2.14,1.73-3.82s-.58-3.02-1.73-3.89c-1.15-.86-2.86-1.3-5.11-1.3h-7.06v10.3h7.06c2.26,0,3.96-.43,5.11-1.3Z"/>
        <path class="cls-2" d="m637.55,7.81c4.66,4.44,6.98,10.76,6.98,18.97s-2.29,14.45-6.88,18.86c-4.58,4.42-11.1,6.62-19.55,6.62h-19.58V1.15h19.15c8.59,0,15.22,2.22,19.87,6.66Zm-10.91,29.27c1.94-2.21,2.92-5.66,2.92-10.37s-.97-8.16-2.92-10.37c-1.94-2.21-4.93-3.31-8.96-3.31h-4.18v27.36h4.18c4.03,0,7.02-1.1,8.96-3.31Z"/>
      </g>
    </g>
  </g>
</svg>