<?xml version="1.0" encoding="UTF-8"?>
<svg id="Layer_2" data-name="Layer 2" xmlns="http://www.w3.org/2000/svg" viewBox="0 0 366.64 457.08">
  <defs>
    <style>
      .cls-1 {
        fill: #a9a9a9;
      }

      .cls-1, .cls-2 {
        stroke-width: 0px;
      }

      .cls-2 {
        fill: #aaa;
      }
    </style>
  </defs>
  <g id="apple">
    <g>
      <path class="cls-1" d="m366.04,340.09c-11.31,33.26-29.26,62.68-51.54,89.61-7.67,9.26-16.45,17.25-27.52,22.22-15.53,6.97-31.12,5.53-46.57-.53-8.44-3.32-16.5-7.61-25.3-10.02-20.43-5.59-40.21-3.51-59.51,4.93-9.47,4.15-18.94,8.15-29.3,10.01-12.01,2.15-22.84-.28-33.04-6.39-12.97-7.78-22.58-19.08-31.7-30.85-21.27-27.45-37.61-57.53-48.12-90.69-7.32-23.11-12.12-46.65-13.2-70.97-1.11-25.1,1.51-49.56,11.05-72.91,13.03-31.89,35.18-54.85,67.82-66.89,10.73-3.96,21.91-6.04,33.04-5.89,15.35-.37,28.99,4.8,42.62,10.05,4.53,1.74,9.12,3.38,13.53,5.4,12.73,5.84,25.14,4.83,37.79-.6,11.5-4.93,23.15-9.54,35.29-12.83,23.66-6.41,46.64-3.73,69.05,5.23,17.38,6.95,31.52,18.26,42.75,33.27,1.95,2.61,2.2,3.91-.91,6.11-24.05,16.98-40.1,39.5-44.27,69.01-6.29,44.51,14.14,84.96,55.19,105.7,3.61,1.82,4.06,3.47,2.85,7.03Z"/>
      <path class="cls-2" d="m273.9,9.29c-2.51,39.17-19.41,69.62-54.62,88.52-10,5.36-20.93,8.08-32.47,7.92-3.17-.05-4.15-1.04-4.28-4.17-.98-23.62,7.02-44.3,21.18-62.62C220.64,17.02,243.1,4.13,270.6.09c2.51-.37,3.32.37,3.3,2.67-.02,2.18,0,4.35,0,6.53Z"/>
    </g>
  </g>
</svg>