<?xml version="1.0" encoding="UTF-8"?>
<svg id="Layer_2" data-name="Layer 2" xmlns="http://www.w3.org/2000/svg" viewBox="0 0 681.01 407.27">
  <defs>
    <style>
      .cls-1 {
        fill: #fe9900;
      }

      .cls-1, .cls-2 {
        stroke-width: 0px;
      }

      .cls-2 {
        fill: #dad0c1;
      }
    </style>
  </defs>
  <g id="aws">
    <g>
      <path class="cls-2" d="m487.48,11.85c-.13,2.42-.65,4.77-1.37,7.09-18.32,58.71-36.64,117.41-54.96,176.12-.48,1.53-1.06,3.03-1.59,4.55-1.68,4.9-5.32,7.23-10.29,7.32-7.89.14-15.78.19-23.67-.03-6.11-.17-9.01-3.09-10.65-9.92-11.68-48.65-23.36-97.3-35.04-145.96-.07-.29-.18-.58-.38-1.22-4.3,17.98-8.54,35.68-12.78,53.37-7.35,30.75-14.7,61.5-22.07,92.24-.34,1.43-.85,2.82-1.29,4.22-1.45,4.67-4.75,6.98-9.5,7.04-8.16.11-16.32.12-24.48,0-4.15-.06-7.2-2.06-8.98-5.94-2-4.37-3.15-9.02-4.54-13.59-16.88-55.46-33.74-110.92-50.6-166.38-.74-2.44-1.43-4.89-1.89-7.4-.2-1.07-.23-2.15-.08-3.22.38-2.72,2.22-4.23,5.31-4.24,7.75-.03,15.51,0,23.27.02,1.29,0,2.58.19,3.86.42,2.76.51,4.7,2.06,6.01,4.49,1.88,3.51,2.75,7.35,3.72,11.16,12.12,47.8,24.24,95.6,36.37,143.4.1.38.22.76.42,1.41.87-3.63,1.68-7.02,2.48-10.41,9.12-38.69,18.23-77.38,27.35-116.07,1.91-8.1,3.83-16.19,5.76-24.28.25-1.04.65-2.04.97-3.07,1.33-4.36,4.48-6.35,8.83-6.85,1.96-.23,3.93-.27,5.9-.23,6.32.1,12.64-.27,18.95.22,4.09.32,6.95,2.32,8.48,6.18,1.5,3.81,2.17,7.84,3.1,11.79,7.34,30.98,14.63,61.97,21.94,92.96,3.99,16.93,7.99,33.86,11.98,50.79.03.12.07.24.16.51.65-1.27.82-2.56,1.14-3.78,12.67-49.04,25.32-98.09,37.99-147.13.49-1.91,1.27-3.72,2.03-5.53,1.49-3.57,4.28-5.27,7.95-5.74,1.24-.16,2.5-.26,3.75-.27,6.82-.02,13.63-.01,20.44-.01.18,0,.36.01.54.01,3.74.12,5.67,2.2,5.46,5.96Z"/>
      <path class="cls-1" d="m619.67,318.77c-1.16,1.92-2.8,3.36-4.58,4.67-21.02,15.42-43.6,28.16-67.3,38.93-33.17,15.07-67.7,25.98-103.31,33.58-13.48,2.87-27.07,5.2-40.74,6.99-13.15,1.73-26.35,2.96-39.6,3.64-8.42.43-16.84.61-23.67.69-13.75-.08-25.89-.47-38-1.36-10.81-.79-21.59-1.93-32.34-3.37-44.92-6.07-88.22-17.98-129.88-35.81-41.46-17.74-79.75-40.76-114.94-68.95-7.45-5.97-14.72-12.15-21.82-18.54-.86-.78-1.7-1.59-2.33-2.59-1.53-2.43-1.55-5.06-.07-7.05,1.41-1.89,4.03-2.66,6.69-1.98,1.14.29,2.18.8,3.19,1.38,28.88,16.7,58.9,31.01,89.99,43.07,28.78,11.16,58.19,20.29,88.21,27.46,15.76,3.77,31.63,6.98,47.62,9.62,12.85,2.12,25.76,3.87,38.72,5.26,20.38,2.18,40.8,3.43,61.29,3.82,14.21.27,28.42-.03,42.61-.73,16.07-.79,32.08-2.25,48.04-4.28,26.35-3.35,52.43-8.2,78.22-14.58,28.7-7.09,56.82-16.01,84.33-26.82,5.17-2.03,10.27-4.21,15.42-6.27,3.86-1.56,7.7-1.62,11.33.67,4.42,2.79,5.61,8.08,2.92,12.55Z"/>
      <path class="cls-2" d="m201.62,184.28c-2.94-5.44-5.46-11.07-7.4-16.93-2.26-6.82-2.38-13.99-2.61-21.01-.43-13.34-.13-26.7-.13-42.54-.18-10.55.32-23.6-.24-36.63-.37-8.44-1.67-16.74-4.35-24.78-4.08-12.3-10.95-22.57-21.99-29.74-8.08-5.24-17.02-8.28-26.42-10.01C125.08.16,111.59-.09,98.05,1.24c-14.44,1.42-28.32,5.1-41.74,10.56-3.64,1.48-7.23,3.1-10.5,5.33-2.32,1.58-3.82,3.69-4.03,6.5-.46,5.91-.52,11.83-.02,17.73.3,3.51,2.7,4.97,6.23,4.2,2.85-.61,5.55-1.68,8.26-2.75,15.21-6.03,30.75-10.74,47.28-11.24,9.26-.27,18.44.29,27.37,3.07,9.6,2.98,16.31,8.99,19.73,18.57,2.12,5.96,3.12,12.11,3.49,18.39.43,7.3.13,14.61.24,21.91.02,1-.2,1.15-1.2.93-9.04-2.01-18.11-3.9-27.31-5.05-11.87-1.47-23.74-2.1-35.66-.7-10.4,1.23-20.39,3.83-29.64,8.86-13.15,7.16-23.14,17.27-28.44,31.48-4.58,12.28-5.15,24.98-2.51,37.7,4.54,21.79,17.63,36.02,38.97,42.41,11.47,3.43,23.23,3.54,35.02,1.91,14.85-2.04,28.1-7.82,39.79-17.17,4.6-3.67,8.82-7.74,12.63-12.24.71-.83.99-.72,1.35.22.29.74.7,1.44,1.05,2.17,3.56,7.25,7.54,14.23,13.09,20.21,3.79,4.08,8.18,4.83,12.77,1.88,4.9-3.14,9.75-6.36,14.54-9.67,4.8-3.33,5.58-7.06,2.81-12.17Zm-46.85-55.89c.06,6.43-.49,12.79-1.82,19.08-1.88,8.89-6.82,15.81-13.6,21.64-7.49,6.44-16.31,9.85-25.82,11.79-6.5,1.32-13.03,1.73-19.65,1.1-13.93-1.32-23.93-11.03-25.61-24.87-.71-5.84-.74-11.64.69-17.35,2.57-10.24,9.07-17.04,18.73-20.96,5.87-2.39,12.05-3.42,18.33-3.76,13.9-.75,27.65.61,41.27,3.37,2.19.44,4.37.98,6.56,1.4.74.14.94.47.93,1.17-.03,2.46-.01,4.93-.01,7.39Z"/>
      <path class="cls-2" d="m646.74,175.88c-6.61,12.73-16.78,21.86-29.75,27.84-10.58,4.88-21.74,7.64-33.34,8.68-3.79.35-7.59.53-11.41.52-18.9-.2-37.19-3.55-54.8-10.49-2.71-1.06-5.26-2.46-7.71-4.03-3.69-2.37-5.87-5.63-6.05-10.04-.2-4.87-.34-9.77.07-14.63.35-4.12,2.74-5.8,6.85-5.07,3.47.62,6.58,2.27,9.79,3.61,11.14,4.64,22.71,7.59,34.7,8.94,8.22.93,16.45,1.22,24.68.48,8.83-.79,17.33-2.66,24.81-7.8,12.01-8.26,12.44-22.8,8.46-31.01-2.12-4.39-5.47-7.59-9.61-10.04-6.43-3.81-13.46-6.2-20.55-8.41-10.63-3.3-21.29-6.51-31.87-9.97-9.9-3.23-19.27-7.65-26.96-14.83-13.26-12.39-19.48-27.68-17.92-45.91,1.3-15.14,8.66-26.99,20.12-36.47,10.82-8.97,23.48-13.85,37.28-15.98,14.47-2.23,28.85-1.4,43.15,1.46,8.09,1.62,16.03,3.7,23.57,7.11,2.46,1.12,4.73,2.53,6.81,4.27,2.92,2.45,4.42,5.57,4.44,9.38.01,3.99,0,7.98,0,11.97,0,.22,0,.44-.01.67-.27,4.83-3.01,6.84-7.66,5.63-3.49-.91-6.64-2.65-9.96-3.97-9.21-3.69-18.77-5.83-28.64-6.7-7.97-.7-15.93-.75-23.87.32-4.72.63-9.32,1.71-13.69,3.67-9.73,4.37-14.42,11.82-14.19,22.51.18,8.45,4.26,14.56,11.22,19.01,6.47,4.13,13.58,6.77,20.82,9.13,12.49,4.08,25.14,7.68,37.51,12.1,8.01,2.86,15.54,6.69,22.1,12.19,9.75,8.2,15.39,18.72,17.12,31.28,1.66,12.05.13,23.71-5.51,34.58Z"/>
      <path class="cls-1" d="m678.82,296.85c-3.67,18.91-10.2,36.77-20.16,53.31-6.03,10-13.25,19.04-22.2,26.61-1.31,1.11-2.72,2.06-4.38,2.54-1.66.48-3.33.58-4.66-.76-1.33-1.33-1.33-3.05-.77-4.66,1.13-3.2,2.42-6.34,3.67-9.51,5.76-14.65,11.29-29.38,15.32-44.63,1.69-6.41,3.08-12.88,3.51-19.52.19-2.97.07-5.9-.64-8.8-.7-2.87-2.37-4.98-4.93-6.4-3.74-2.07-7.86-2.94-12.03-3.54-6.18-.9-12.4-1.09-19.76-1.08-8.06.14-17.23.69-26.38,1.51-8.43.76-16.84,1.71-25.24,2.72-.97.12-1.98.14-2.95.06-3.1-.24-4.57-2.62-3.42-5.52.86-2.17,2.51-3.67,4.38-4.96,9.67-6.69,20.31-11.29,31.57-14.49,12.51-3.56,25.29-5.33,38.28-5.73,10.33-.32,20.6.2,30.8,1.93,4.64.79,9.15,2.02,13.62,3.53,5.53,1.86,7.92,5.7,8.35,11.35.66,8.8-.32,17.45-1.98,26.04Z"/>
    </g>
  </g>
</svg>