<?xml version="1.0" encoding="UTF-8"?>
<svg id="Layer_2" data-name="Layer 2" xmlns="http://www.w3.org/2000/svg" viewBox="0 0 343.9 265.39">
  <defs>
    <style>
      .cls-1 {
        fill: #fefefe;
      }

      .cls-1, .cls-2, .cls-3, .cls-4, .cls-5, .cls-6 {
        stroke-width: 0px;
      }

      .cls-2 {
        fill: #feab00;
      }

      .cls-3 {
        fill: #fe8a00;
      }

      .cls-4 {
        fill: #fe9f00;
      }

      .cls-5 {
        fill: #feaf00;
      }

      .cls-6 {
        fill: #febf00;
      }
    </style>
  </defs>
  <g id="AWSAmplify">
    <g>
      <path class="cls-1" d="m175.13,226.3c6.71,12.68,13.76,25.19,21.21,38.73h-9.37c-59.93,0-119.87.02-179.8-.08-2.35-.01-5.19,1.57-7.17-1.18,15.26-27.38,30.45-54.79,45.82-82.11,8.16-14.53,16.63-28.89,24.96-43.32,8.51-15.6,17.02-31.19,26.31-48.24,8.46,14.94,16.23,28.69,24.03,42.43,1.11,1.96.08,3.52-.83,5.11-8.48,14.73-16.97,29.46-25.45,44.18-6.9,12.57-13.79,25.14-20.69,37.7,2.56,2.06,5.57,1.04,8.35,1.05,27.6.09,55.2.18,82.8-.07,4.91-.05,7.6,1.58,9.83,5.8Z"/>
      <path class="cls-1" d="m134.57,24.22c45.63,80.88,90.46,160.35,135.92,240.94-15.72,0-30.28-.09-44.85.05-4.33.05-4.88-3.47-6.31-5.99-25.58-45.22-51.08-90.49-76.59-135.75-9.79-17.37-19.55-34.76-29.29-52.16-1.22-2.2-3.23-4.18-1.51-7.17,7.4-12.93,14.7-25.91,22.63-39.92Z"/>
      <path class="cls-1" d="m343.84,265.2c-14.44,0-28.81-.07-43.18.06-3,.03-4.2-1.86-5.35-3.89C246.9,175.45,198.52,89.5,150.15,3.55c-.47-.84-.6-1.88-1.09-3.45,14.68,0,28.82.19,42.94-.1,4.65-.1,5.61,3.14,7.22,5.99,24.65,43.61,49.28,87.23,73.9,130.86,22.55,39.98,45.1,79.96,67.58,119.98,1.34,2.39,3.58,4.53,3.14,8.37Z"/>
      <path class="cls-6" d="m343.84,265.2c-14.44,0-28.81-.07-43.18.06-3,.03-4.2-1.86-5.35-3.89C246.9,175.45,198.52,89.5,150.15,3.55c-.47-.84-.6-1.88-1.09-3.45,14.68,0,28.82.19,42.94-.1,4.65-.1,5.61,3.14,7.22,5.99,24.65,43.61,49.28,87.23,73.9,130.86,22.55,39.98,45.1,79.96,67.58,119.98,1.34,2.39,3.58,4.53,3.14,8.37Z"/>
      <path class="cls-5" d="m270.49,265.16c-15.72,0-30.28-.09-44.85.05-4.33.05-4.88-3.47-6.31-5.99-25.58-45.22-51.08-90.49-76.59-135.75-9.79-17.37-19.55-34.76-29.29-52.16-1.22-2.2-3.23-4.18-1.51-7.17,7.4-12.93,14.7-25.91,22.63-39.92,45.63,80.88,90.46,160.35,135.92,240.94Z"/>
      <path class="cls-2" d="m196.34,265.03h-9.37c-59.93,0-119.87.02-179.8-.08-2.35-.01-5.19,1.57-7.17-1.18,17.43-14.41,37.92-23.99,56.96-35.83,5.32-3.31,10.16-8.33,17.19-8.42,2.56,2.06,5.57,1.04,8.35,1.05,27.6.09,55.2.18,82.8-.07,4.91-.05,7.6,1.58,9.83,5.8,6.71,12.68,13.76,25.19,21.21,38.73Z"/>
      <path class="cls-3" d="m94.84,181.82c-6.9,12.57-13.79,25.14-20.69,37.7-24.72,14.75-49.43,29.5-74.15,44.25,15.26-27.38,30.45-54.79,45.82-82.11,8.16-14.53,16.63-28.89,24.96-43.32,3.85,3.69,1.18,9.12,3.49,13.19,5.9,10.35,8.82,22.85,20.74,28.9.31.16.12.89-.17,1.39Z"/>
      <path class="cls-4" d="m120.29,137.64c-8.48,14.73-16.97,29.46-25.45,44.18-7.56-.81-10.12-6.89-13.38-12.43-5.69-9.65-12.12-18.97-10.68-31.05,8.51-15.6,17.02-31.19,26.31-48.24,8.46,14.94,16.23,28.69,24.03,42.43,1.11,1.96.08,3.52-.83,5.11Z"/>
    </g>
  </g>
</svg>