<?xml version="1.0" encoding="UTF-8"?>
<svg id="Layer_2" data-name="Layer 2" xmlns="http://www.w3.org/2000/svg" viewBox="0 0 621.95 746.5">
  <defs>
    <style>
      .cls-1 {
        fill: #8d3224;
      }

      .cls-1, .cls-2, .cls-3, .cls-4, .cls-5 {
        stroke-width: 0px;
      }

      .cls-2 {
        fill: #f2b0a9;
      }

      .cls-3 {
        fill: #e05243;
      }

      .cls-4 {
        fill: #5f2019;
      }

      .cls-5 {
        fill: #8c3123;
      }
    </style>
  </defs>
  <g id="cloudfront">
    <g>
      <path class="cls-3" d="m621.95,437.18v154.92c-1.11-.06-1.93.67-2.82,1.11-23.16,11.49-46.3,22.99-69.45,34.48-.76.38-1.47.9-2.36,1,.01-.77.02-1.55.02-2.33v-178.55c2.81-.41,5.6-.86,8.41-1.25,8-1.1,16.01-2.15,24-3.27,10.81-1.51,21.61-3.02,32.39-4.66,1.93-.3,3.99-.12,5.78-1.16,1.34-.1,2.68-.19,4.03-.29Z"/>
      <path class="cls-3" d="m621.95,154.81v154.91c-.52-.03-1.03-.07-1.54-.1-1.19-.5-2.45-.73-3.72-.92-4.17-.6-8.32-1.23-12.48-1.87-6.02-.92-12.04-1.86-18.06-2.77-6.37-.97-12.73-1.92-19.1-2.87-6.53-.98-13.07-1.96-19.6-2.93-.04-1.21-.1-2.41-.1-3.62-.01-59.02-.02-118.03-.02-177.05.81.05,1.44.54,2.12.89,23.33,11.66,46.66,23.33,69.99,35.01.84.42,1.67.87,2.51,1.32Z"/>
      <path class="cls-2" d="m.68,309.5c-.22.07-.45.15-.68.22v-154.91c.21.03.41.07.62.11.01.78.04,1.55.04,2.33.01,18.73,0,37.46.01,56.19,0,32.02,0,64.04,0,96.06Z"/>
      <path class="cls-2" d="m.66,589.45c0,.69-.06,1.38-.09,2.06-.19.03-.38.05-.57.07v-154.4c.22.05.43.11.65.16.01,50.7.01,101.41.01,152.11Z"/>
      <path class="cls-5" d="m547.34,447.81v178.55c0,.78-.01,1.56-.02,2.33-.9.28-1.69-.2-2.5-.41-27.66-7.11-55.31-14.26-82.96-21.4-.67-.17-1.34-.29-2.02-.44,0-1.29-.02-2.58-.02-3.87v-138.66c0-.78.02-1.56-.01-2.33-.04-1.03-.49-1.64-1.63-1.46-6.34-.6-12.67-1.18-19.01-1.79-5.48-.53-10.95-1.11-16.43-1.65-6.42-.64-12.83-1.27-19.25-1.9v-17.33c.94-.46,1.73-.21,2.48-.33,1.43.38,2.89.46,4.35.54,3.44.21,6.88.42,10.31.68,8.93.65,17.86,1.34,26.79,2,5.06.38,10.13.73,15.19,1.12,8.16.62,16.31,1.28,24.46,1.89,5.67.43,11.34.78,17.01,1.2,8.93.66,17.85,1.34,26.78,2.01,5.49.42,10.99.84,16.48,1.25Z"/>
      <path class="cls-5" d="m547.45,298.26c-2.93-.18-5.81.57-8.73.57-3.18,0-6.33.47-9.5.69-2.21.14-4.47.09-6.66.48-3.3.59-6.65.61-9.97.84-3.25.22-6.51.52-9.76.75-2.38.17-4.82.07-7.17.49-3.14.55-6.31.63-9.46.83-3.26.21-6.51.53-9.76.75-2.38.16-4.83.04-7.17.49-3.22.63-6.49.48-9.73.82-3.14.33-6.32.54-9.49.76-2.38.17-4.82.07-7.17.49-3.31.57-6.66.6-9.98.83-3.25.23-6.53.43-9.75.74-5.37.52-10.78.63-16.12,1.42-.83.07-1.7-.19-2.5.23-1.31.13-1.05-.84-1.05-1.55-.02-4.47-.01-8.93-.02-13.4,0-.94.1-1.89-.18-2.81,1.37-.06,2.76-.04,4.13-.18,4.25-.45,8.48-1.03,12.74-1.44,4.43-.43,8.9-.54,13.3-1.18,1.97-.28,3.93-.27,5.88-.53,2.71-.37,5.44-.74,8.16-.86,2.49-.12,4.92-.74,7.44-.66.77.03,1.7-.22,2.33-.92,2.54-.1,2.56-.1,2.56-2.55.01-12.76,0-25.53,0-38.29.01-35.02.01-70.03.02-105.05,10.67-2.76,21.34-5.5,32-8.27,17.91-4.65,35.82-9.31,53.73-13.97.58-.15,1.15-.39,1.76-.19,0,59.02.01,118.03.02,177.05,0,1.21.06,2.41.1,3.62Z"/>
      <path class="cls-3" d="m217.71,291.76c-.01,5.32-.02,10.64-.01,15.96.01,1.23-.04,2.33-1.77,1.94-.31-.13-.62-.34-.94-.37-4.63-.37-9.27-.74-13.91-1.07-5.75-.4-11.51-.72-17.26-1.17-7.64-.59-15.26-1.36-22.9-1.89-6.79-.47-13.56-1.02-20.34-1.54-6.79-.51-13.57-1-20.34-1.56-5.84-.49-11.69-.72-17.53-1.22-2.49-.21-4.98-.31-7.47-.53-6.69-.61-13.38-1.17-20.08-1.52-.04-1.12-.12-2.24-.12-3.36v-94.49c-.01-27.78-.02-55.57-.02-83.35,3.93.56,7.68,1.83,11.5,2.82,24.25,6.31,48.49,12.65,72.73,19,.75.19,1.49.45,2.28.38.01.69.04,1.38.04,2.07v140.5c0,.69-.02,1.38,0,2.07q.06,1.78,2.1,1.95c1.45.17,2.9.38,4.35.51,4.36.4,8.72.75,13.08,1.18,6.31.61,12.62,1.29,18.94,1.93,5.89.59,11.78,1.18,17.67,1.76Z"/>
      <path class="cls-3" d="m217.72,454.79c-4.03.37-8.07.67-12.08,1.14-3.59.43-7.19.75-10.79,1.07-4.63.41-9.24.96-13.86,1.42-4.2.41-8.42.61-12.59,1.23-1.75.26-3.63-.14-5.28.81-.79.07-1.59.12-1.55,1.25.03.77,0,1.55,0,2.33v139.73c0,.95-.03,1.9-.05,2.84-4.67.79-9.19,2.22-13.77,3.4-23.83,6.14-47.66,12.34-71.49,18.52-.4.1-.83.12-1.25.18.01-.52.03-1.03.03-1.55-.01-59.79-.01-119.58-.02-179.38,4.12-.31,8.24-.62,12.36-.88,7.81-.51,15.6-1.34,23.41-1.87,6.95-.47,13.9-1.04,20.85-1.53,7.21-.5,14.42-1.03,21.62-1.6,5.92-.46,11.86-.66,17.78-1.21,2.57-.24,5.15-.3,7.72-.51,5.66-.44,11.31-.98,16.98-1.4,5.83-.43,11.68-.77,17.52-1.14.44-.03.85-.12,1.13-.5q3.3.09,3.31,3.3c0,4.78.01,9.57.02,14.35Z"/>
      <path class="cls-1" d="m75.16,298.79c-3.24.38-6.5.59-9.69,1.19-6.4,1.21-12.87,1.89-19.29,2.94-6.51,1.07-13.07,1.76-19.59,2.75-5.75.87-11.5,1.77-17.26,2.6-2.07.3-4.34.04-6.21,1.36-.83.17-1.63.06-2.43-.13-.01-32.02-.02-64.04-.02-96.06-.01-18.73,0-37.46-.01-56.19,0-.78-.03-1.55-.04-2.33,9.04-4.59,18.08-9.2,27.13-13.78,14.89-7.53,29.78-15.06,44.67-22.56.82-.41,1.56-1.12,2.6-.99,0,27.78.01,55.57.02,83.35v94.49c0,1.12.08,2.24.12,3.36Z"/>
      <path class="cls-1" d="m75.04,627.16c0,.52-.02,1.03-.03,1.55-.84.07-1.46-.46-2.14-.8-23.44-11.74-46.87-23.48-70.3-35.24-.68-.34-1.33-.77-2-1.16.03-.68.09-1.37.09-2.06,0-50.7,0-101.41-.01-152.11.62-.03,1.25-.06,1.87-.09.42.38.95.36,1.46.42,2.98.4,5.97.79,8.95,1.22,10.31,1.48,20.61,2.98,30.92,4.45,10.39,1.49,20.78,2.97,31.17,4.44.01,59.8.01,119.59.02,179.38Z"/>
      <path class="cls-2" d="m458.18,460.12c-.9.54-1.88.78-2.92.88-1.71.18-3.42.4-5.12.65-7.9,1.16-15.8,2.35-23.71,3.52-5.35.8-10.7,1.61-16.05,2.4-6.29.93-12.59,1.85-18.88,2.76-6.46.93-12.93,1.84-19.39,2.78-6.46.95-12.91,1.95-19.37,2.91-5.44.81-10.88,1.6-16.32,2.39-5.27.77-10.55,1.48-15.81,2.31-3.31.52-6.66.76-9.93,1.57-1.31.1-2.5-.48-3.76-.66-8.35-1.19-16.7-2.42-25.04-3.65-10.3-1.52-20.6-3.05-30.9-4.56-9.79-1.43-19.59-2.84-29.38-4.28-10.13-1.49-20.26-2.99-30.39-4.5-9.36-1.39-18.73-2.79-28.09-4.18,1.65-.95,3.53-.55,5.28-.81,4.17-.62,8.39-.82,12.59-1.23,4.62-.46,9.23-1.01,13.86-1.42,3.6-.32,7.2-.64,10.79-1.07,4.01-.47,8.05-.77,12.08-1.14,4.53-.46,9.06-.88,13.59-1.38,2.13-.24,4.28-.31,6.42-.56,6.23-.74,12.5-1.12,18.75-1.73,5.9-.58,11.79-1.31,17.68-1.91,4.37-.44,8.74-.75,13.11-1.17,4.53-.43,9.06-.95,13.59-1.41,3.5-.35,7.01-.95,10.52-.95,3.59.01,7.22.44,10.77,1.03,2.22.36,4.45.38,6.67.7,4.41.64,8.9.78,13.35,1.22,5.99.6,11.96,1.32,17.94,1.92,4.37.44,8.74.75,13.11,1.17,4.36.43,8.71.96,13.07,1.4,4.02.41,8.04.86,12.07,1.1,1.73.11,3.4.6,5.13.56,6.42.63,12.83,1.26,19.25,1.9,5.48.54,10.95,1.12,16.43,1.65,6.34.61,12.67,1.19,19.01,1.79Z"/>
      <path class="cls-4" d="m457.26,285.91c-.63.7-1.56.95-2.33.92-2.52-.08-4.95.54-7.44.66-2.72.12-5.45.49-8.16.86-1.95.26-3.91.25-5.88.53-4.4.64-8.87.75-13.3,1.18-4.26.41-8.49.99-12.74,1.44-1.37.14-2.76.12-4.13.18-6.43.65-12.86,1.32-19.3,1.96-10.03,1-20.07,1.98-30.11,2.96-7.63.74-15.27,1.47-22.91,2.22-4.8.46-9.62.82-14.4,1.45-5.38.71-10.66-.13-15.97-.61-7.99-.72-15.96-1.55-23.94-2.33-10.21-1-20.42-1.99-30.63-2.98-9.18-.88-18.36-1.77-27.54-2.65-.25-.02-.52.04-.77.06-5.89-.58-11.78-1.17-17.67-1.76-6.32-.64-12.63-1.32-18.94-1.93-4.36-.43-8.72-.78-13.08-1.18-1.45-.13-2.9-.34-4.35-.51.23-.28.51-.43.87-.49,2.79-.42,5.58-.86,8.37-1.28,5.33-.79,10.66-1.57,16-2.35,4.23-.62,8.46-1.25,12.69-1.87,4.06-.59,8.13-1.17,12.19-1.76,4.23-.62,8.46-1.25,12.69-1.87,4.07-.59,8.13-1.16,12.2-1.76,4.23-.62,8.46-1.26,12.69-1.88,4.06-.59,8.13-1.15,12.19-1.74,4.23-.62,8.46-1.28,12.69-1.89,5.25-.77,10.5-1.5,15.75-2.26,2.97-.42,5.92-.93,8.89-1.28,3.32-.39,6.57-1.23,9.92-1.39,5.62.8,11.24,1.58,16.85,2.39,5.27.77,10.54,1.58,15.81,2.34,6.55.95,13.11,1.83,19.66,2.79,7.65,1.12,15.3,2.3,22.95,3.42s15.32,2.15,22.97,3.27c7.66,1.12,15.3,2.32,22.95,3.45,8.42,1.25,16.84,2.46,25.26,3.69Z"/>
      <path class="cls-4" d="m620.41,309.62c-8.77.55-17.54,1.11-26.32,1.64-13.42.82-26.84,1.63-40.26,2.43-9.12.55-18.24,1.11-27.36,1.64-13.34.78-26.67,1.53-40.01,2.3-3.82.23-7.56-.5-11.32-.86-9.61-.9-19.2-1.94-28.8-2.94-10.89-1.13-21.77-2.27-32.65-3.41-2.23-.23-4.45-.51-6.67-.76.01-.15.02-.3.01-.45,5.34-.79,10.75-.9,16.12-1.42,3.22-.31,6.5-.51,9.75-.74,3.32-.23,6.67-.26,9.98-.83,2.35-.42,4.79-.32,7.17-.49,3.17-.22,6.35-.43,9.49-.76,3.24-.34,6.51-.19,9.73-.82,2.34-.45,4.79-.33,7.17-.49,3.25-.22,6.5-.54,9.76-.75,3.15-.2,6.32-.28,9.46-.83,2.35-.42,4.79-.32,7.17-.49,3.25-.23,6.51-.53,9.76-.75,3.32-.23,6.67-.25,9.97-.84,2.19-.39,4.45-.34,6.66-.48,3.17-.22,6.32-.69,9.5-.69,2.92,0,5.8-.75,8.73-.57,6.53.97,13.07,1.95,19.6,2.93,6.37.95,12.73,1.9,19.1,2.87,6.02.91,12.04,1.85,18.06,2.77,4.16.64,8.31,1.27,12.48,1.87,1.27.19,2.53.42,3.72.92Z"/>
      <path class="cls-4" d="m215.93,309.66c-6.54.99-13.15,1.42-19.73,2.13-9.33,1.02-18.68,1.96-28.02,2.91-9.94,1.02-19.89,2.02-29.83,3.01-.6.05-1.21-.02-1.81-.05-13.25-.77-26.5-1.52-39.75-2.31-15.74-.94-31.48-1.94-47.22-2.89-13-.77-25.99-1.5-38.98-2.27-2.49-.14-4.98-.37-7.47-.56,1.87-1.32,4.14-1.06,6.21-1.36,5.76-.83,11.51-1.73,17.26-2.6,6.52-.99,13.08-1.68,19.59-2.75,6.42-1.05,12.89-1.73,19.29-2.94,3.19-.6,6.45-.81,9.69-1.19,6.7.35,13.39.91,20.08,1.52,2.49.22,4.98.32,7.47.53,5.84.5,11.69.73,17.53,1.22,6.77.56,13.55,1.05,20.34,1.56,6.78.52,13.55,1.07,20.34,1.54,7.64.53,15.26,1.3,22.9,1.89,5.75.45,11.51.77,17.26,1.17,4.64.33,9.28.7,13.91,1.07.32.03.63.24.94.37Z"/>
      <path class="cls-2" d="m617.92,437.47c-1.79,1.04-3.85.86-5.78,1.16-10.78,1.64-21.58,3.15-32.39,4.66-7.99,1.12-16,2.17-24,3.27-2.81.39-5.6.84-8.41,1.25-5.49-.41-10.99-.83-16.48-1.25-8.93-.67-17.85-1.35-26.78-2.01-5.67-.42-11.34-.77-17.01-1.2-8.15-.61-16.3-1.27-24.46-1.89-5.06-.39-10.13-.74-15.19-1.12-8.93-.66-17.86-1.35-26.79-2-3.43-.26-6.87-.47-10.31-.68-1.46-.08-2.92-.16-4.35-.54,1.66-.91,3.54-.5,5.29-.79,3.98-.63,8.03-.82,12.05-1.23,4.19-.43,8.36-.92,12.55-1.37,2.13-.22,4.27-.37,6.41-.63,6.48-.77,12.98-1.41,19.47-2.05,4.45-.44,8.92-.68,13.35-1.23,4.79-.6,9.57-1.19,14.4-.88,6.69.44,13.37.98,20.06,1.43,3,.21,6.02.29,9.02.45,4.21.23,8.42.5,12.63.77,6.77.43,13.56.63,20.32,1.35,2.82.3,5.67.33,8.5.46,4.3.2,8.59.54,12.89.74,6.95.33,13.89.94,20.84,1.39,3.17.21,6.36.36,9.53.5,4.3.18,8.58.8,12.89.68.68-.01,1.42-.08,1.75.76Z"/>
      <path class="cls-2" d="m214.39,437.14c-.28.38-.69.47-1.13.5-5.84.37-11.69.71-17.52,1.14-5.67.42-11.32.96-16.98,1.4-2.57.21-5.15.27-7.72.51-5.92.55-11.86.75-17.78,1.21-7.2.57-14.41,1.1-21.62,1.6-6.95.49-13.9,1.06-20.85,1.53-7.81.53-15.6,1.36-23.41,1.87-4.12.26-8.24.57-12.36.88-10.39-1.47-20.78-2.95-31.17-4.44-10.31-1.47-20.61-2.97-30.92-4.45-2.98-.43-5.97-.82-8.95-1.22-.51-.06-1.04-.04-1.46-.42,5.64-.6,11.3-.91,16.97-1.17,6.78-.32,13.55-.95,20.32-1.4,2.92-.2,5.84-.33,8.76-.46,4.47-.19,8.93-.59,13.4-.76,6.61-.25,13.2-.93,19.8-1.37,2.91-.2,5.84-.34,8.75-.45,4.48-.19,8.93-.57,13.41-.76,6.78-.28,13.53-1.09,20.31-1.34,4.74-.17,9.45-.95,14.18-.64,4.37.28,8.73.79,13.09,1.24,4.01.41,8.02.89,12.03,1.33,4.35.49,8.7.99,13.05,1.44,4.01.42,8.04.76,12.05,1.18,4.19.43,8.37.92,12.55,1.37,3.84.41,7.69.8,11.53,1.2.59.06,1.23-.08,1.67.48Z"/>
      <path class="cls-1" d="m407.03,309.21c.01.15,0,.3-.01.45-.85.12-1.68.09-2.49-.22.8-.42,1.67-.16,2.5-.23Z"/>
      <path class="cls-3" d="m459.79,669.64c0,1.91-.58,2.88-2.29,3.74-48.24,24.07-96.45,48.19-144.67,72.3-.67.34-1.29.88-2.13.8,0-15.28-.01-30.56-.01-45.84,0-72.79,0-145.57-.01-218.35,3.27-.81,6.62-1.05,9.93-1.57,5.26-.83,10.54-1.54,15.81-2.31,5.44-.79,10.88-1.58,16.32-2.39,6.46-.96,12.91-1.96,19.37-2.91,6.46-.94,12.93-1.85,19.39-2.78,6.29-.91,12.59-1.83,18.88-2.76,5.35-.79,10.7-1.6,16.05-2.4,7.91-1.17,15.81-2.36,23.71-3.52,1.7-.25,3.41-.47,5.12-.65,1.04-.1,2.02-.34,2.92-.88,1.14-.18,1.59.43,1.63,1.46.03.77.01,1.55.01,2.33v138.66c0,1.29.02,2.58.02,3.87-.03,1.04-.1,2.07-.1,3.11,0,20.03-.03,40.06.05,60.09Z"/>
      <path class="cls-5" d="m310.7,746.48c-1.04.12-1.78-.58-2.61-.99-48.05-24.01-96.09-48.05-144.16-72.03-1.8-.89-2.42-1.87-2.42-3.9.09-19.94.06-39.89.06-59.84,0-1.03-.03-2.07-.05-3.11.02-.94.05-1.89.05-2.84v-139.73c0-.78.03-1.56,0-2.33-.04-1.13.76-1.18,1.55-1.25,9.36,1.39,18.73,2.79,28.09,4.18,10.13,1.51,20.26,3.01,30.39,4.5,9.79,1.44,19.59,2.85,29.38,4.28,10.3,1.51,20.6,3.04,30.9,4.56,8.34,1.23,16.69,2.46,25.04,3.65,1.26.18,2.45.76,3.76.66.01,72.78.01,145.56.01,218.35,0,15.28.01,30.56.01,45.84Z"/>
      <path class="cls-5" d="m310.81,264.56c-3.35.16-6.6,1-9.92,1.39-2.97.35-5.92.86-8.89,1.28-5.25.76-10.5,1.49-15.75,2.26-4.23.61-8.46,1.27-12.69,1.89-4.06.59-8.13,1.15-12.19,1.74-4.23.62-8.46,1.26-12.69,1.88-4.07.6-8.13,1.17-12.2,1.76-4.23.62-8.46,1.25-12.69,1.87-4.06.59-8.13,1.17-12.19,1.76-4.23.62-8.46,1.25-12.69,1.87-5.34.78-10.67,1.56-16,2.35-2.79.42-5.58.86-8.37,1.28-.36.06-.64.21-.87.49q-2.04-.17-2.1-1.95c-.02-.69,0-1.38,0-2.07v-140.5c0-.69-.03-1.38-.04-2.07.01-20.71.01-41.42.05-62.13.01-4.07-.63-3,2.93-4.79C212.36,48.91,260.22,24.97,308.09,1.04c.82-.41,1.57-1.08,2.59-1.04,0,1.29.01,2.59.01,3.88,0,85.69,0,171.37.01,257.06,0,1.21.07,2.41.11,3.62Z"/>
      <path class="cls-3" d="m459.84,140.02c-.01,35.02-.01,70.03-.02,105.05,0,12.76.01,25.53,0,38.29,0,2.45-.02,2.45-2.56,2.55-8.42-1.23-16.84-2.44-25.26-3.69-7.65-1.13-15.29-2.33-22.95-3.45-7.65-1.12-15.32-2.15-22.97-3.27s-15.3-2.3-22.95-3.42c-6.55-.96-13.11-1.84-19.66-2.79-5.27-.76-10.54-1.57-15.81-2.34-5.61-.81-11.23-1.59-16.85-2.39-.04-1.21-.11-2.41-.11-3.62-.01-85.69-.01-171.37-.01-257.06,0-1.29-.01-2.59-.01-3.88.91.02,1.6.59,2.35.97,48.05,24.02,96.09,48.07,144.16,72.04,2.01,1.01,2.61,2.15,2.6,4.34-.09,19.86-.05,39.71-.04,59.57,0,1.03.06,2.07.09,3.1Z"/>
    </g>
  </g>
</svg>