<?xml version="1.0" encoding="UTF-8"?>
<svg id="Layer_2" data-name="Layer 2" xmlns="http://www.w3.org/2000/svg" viewBox="0 0 640.66 746.58">
  <defs>
    <style>
      .cls-1 {
        fill: #7a3e65;
      }

      .cls-1, .cls-2, .cls-3, .cls-4 {
        stroke-width: 0px;
      }

      .cls-2 {
        fill: #522944;
      }

      .cls-3 {
        fill: #c07b9d;
      }

      .cls-4 {
        fill: #ceb2c1;
      }
    </style>
  </defs>
  <g id="AWSCognito">
    <g>
      <path class="cls-3" d="m639.94,154c0,144.3-.01,288.59-.01,432.88,0,1.82-.08,3.64-.11,5.47-24.94,12.04-49.86,24.1-74.8,36.14-43.54,21-87.08,41.98-130.61,62.98-28.66,13.83-57.35,27.6-85.95,41.55-9.15,4.46-18.54,8.44-27.37,13.56h-2.18c0-.22-.02-.44-.05-.66,2.53-.73,1.41-2.83,1.42-4.29.06-46.8.05-93.6.04-140.41,0-1.33-.09-2.67-.14-4,1.3-.3,2.61-.54,3.89-.92,28.13-8.22,56.25-16.53,84.4-24.67,27.11-7.85,54.26-15.52,81.39-23.29,30.15-8.65,60.3-17.31,90.43-26.04,1.63-.47,3.66-.38,4.73-2.18,2.01-.72,1.66-2.43,1.66-3.98,0-129.21-.01-258.43-.02-387.65,7.23,2.75,14.05,6.41,21.01,9.76,10.78,5.2,21.52,10.5,32.27,15.75Z"/>
      <path class="cls-4" d="m640.66,154.01v438.59c-.28-.08-.56-.17-.84-.25.03-1.83.11-3.65.11-5.47,0-144.29.01-288.58.01-432.88.24,0,.48,0,.72.01Z"/>
      <path class="cls-1" d="m320.32.09c0,49.62,0,99.23,0,148.84-.49.04-.99,0-1.45.13-17.31,5.03-34.61,10.08-51.91,15.12-24.97,7.27-49.93,14.57-74.92,21.79-22.42,6.47-44.88,12.83-67.33,19.25-20.34,5.82-40.7,11.61-61.01,17.56-2.76.8-5.86,1.01-8.07,3.26-2.67.79-1.57,3.02-1.57,4.61-.05,128.64-.05,257.29-.06,385.93-4.95-1.33-9.34-3.97-13.96-6.07-12.26-5.59-24.44-11.4-36.73-16.93-2.48-1.12-3.3-2.41-3.3-5.13.09-58.12.07-116.23.07-174.34C.07,328.76.08,243.41,0,158.06c0-2.9.76-4.43,3.51-5.75C97.4,107.06,191.23,61.72,285.07,16.39c10.39-5.02,20.78-10.03,31.19-15.01,1.27-.61,2.46-1.66,4.06-1.29Z"/>
      <path class="cls-1" d="m585.02,520.12c-11.23-1.63-22.47-3.23-33.7-4.88-9.67-1.42-19.34-2.9-29-4.36,0-120.39.03-240.78-.08-361.17,0-3.77.87-5.35,4.74-6.29,19.11-4.68,38.12-9.74,57.17-14.64.81-.21,1.67-.2,2.51-.29.01,129.22.02,258.44.02,387.65,0,1.55.35,3.26-1.66,3.98Z"/>
      <path class="cls-3" d="m118.37,596.8c0,3.64-1.11,4.93-4.55,5.73-19.38,4.5-38.69,9.26-58.03,13.92-.58.14-1.2.09-1.8.13.01-128.64.01-257.29.06-385.93,0-1.59-1.1-3.82,1.57-4.61,20.9,3.02,41.8,6.04,62.71,9.06-.02,31.6-.04,63.2-.05,94.8,0,88.97-.02,177.93.09,266.9Z"/>
      <path class="cls-1" d="m318.86,745.92c-41.94-20.37-83.88-40.73-125.83-61.1-13.54-6.57-27.05-13.21-40.64-19.68-2.17-1.04-2.99-2.2-2.98-4.66.08-36.46.05-72.92.08-109.38,0-1.53-.74-3.72,2.21-3.4.63.35,1.21.82,1.87,1.02,21.54,6.26,43.09,12.48,64.62,18.75,34,9.9,68,19.83,101.99,29.75.05,1.33.14,2.67.14,4,.01,46.81.02,93.61-.04,140.41-.01,1.46,1.11,3.56-1.42,4.29Z"/>
      <path class="cls-3" d="m488.87,199.14c-1-2.53-3.58-2.09-5.47-2.65-26.51-7.84-53.06-15.56-79.61-23.29-27.82-8.1-55.65-16.18-83.48-24.27,0-49.61,0-99.22,0-148.84,1.34-.37,2.34.48,3.4,1,32.33,15.72,64.65,31.47,96.98,47.2,22.28,10.83,44.55,21.68,66.89,32.41,2.51,1.21,3.55,2.53,3.54,5.46-.11,36.34-.06,72.68-.11,109.03,0,1.54,1.04,3.99-2.15,3.95Z"/>
      <path class="cls-1" d="m320.32,284.51c0,59.86,0,119.71,0,179.56-9.72-.39-19.32-2-28.96-3.09-26.43-3.01-52.85-6.21-79.27-9.26-6.78-.78-6.8-.66-6.8-7.55,0-48.27.03-96.55-.06-144.82,0-3.06.55-4.29,4.02-4.68,32.11-3.62,64.17-7.62,96.29-11.16,4.89-.54,9.74-1.68,14.71-1.54.03.84.08,1.69.08,2.54Z"/>
      <path class="cls-3" d="m435.2,446.63c.01,3.56-1.18,4.53-4.32,4.87-13.38,1.46-26.75,3.06-40.12,4.62-15.77,1.85-31.54,3.74-47.32,5.55-7.7.88-15.42,1.6-23.13,2.4,0-59.85,0-119.7,0-179.56,0-.85-.05-1.7-.08-2.54,9.15.98,18.3,1.91,27.44,2.96,15.9,1.82,31.8,3.71,47.69,5.57,12.53,1.47,25.05,2.95,37.58,4.37,1.48.17,2.23.74,2.15,2.27-.04.73,0,1.46,0,2.19,0,49.1-.05,98.2.1,147.3Z"/>
      <path class="cls-2" d="m488.87,199.14c-21.39,3.8-42.79,7.58-64.18,11.41-2.19.4-4.25.43-6.45-.11-31.97-7.77-63.95-15.46-95.92-23.2-1.46-.35-2.83-.47-4.3-.12-66.22,15.89-132.44,31.76-198.66,47.63-.35.09-.69.23-1.03.35-20.91-3.02-41.81-6.04-62.71-9.06,2.21-2.25,5.31-2.46,8.07-3.26,20.31-5.95,40.67-11.74,61.01-17.56,22.45-6.42,44.91-12.78,67.33-19.25,24.99-7.22,49.95-14.52,74.92-21.79,17.3-5.04,34.6-10.09,51.91-15.12.46-.13.96-.09,1.45-.13,27.83,8.09,55.66,16.17,83.48,24.27,26.55,7.73,53.1,15.45,79.61,23.29,1.89.56,4.47.12,5.47,2.65Z"/>
      <path class="cls-4" d="m585.02,520.12c-1.07,1.8-3.1,1.71-4.73,2.18-30.13,8.73-60.28,17.39-90.43,26.04-27.13,7.77-54.28,15.44-81.39,23.29-28.15,8.14-56.27,16.45-84.4,24.67-1.28.38-2.59.62-3.89.92-33.99-9.92-67.99-19.85-101.99-29.75-21.53-6.27-43.08-12.49-64.62-18.75-.66-.2-1.24-.67-1.87-1.02,4.16-2.48,8.98-2.3,13.51-3.15,17.12-3.2,34.3-6.12,51.44-9.21,1.73-.32,3.29-.27,4.99.15,27.77,6.77,55.56,13.49,83.35,20.21,4.23,1.03,8.5,1.95,12.71,3.07,4.16,1.1,7.95-.63,11.76-1.53,33.36-7.89,66.67-15.98,100-23.96,30.5-7.3,61.01-14.55,91.52-21.84.46-.11.89-.37,1.34-.56,9.66,1.46,19.33,2.94,29,4.36,11.23,1.65,22.47,3.25,33.7,4.88Z"/>
    </g>
  </g>
</svg>