<?xml version="1.0" encoding="UTF-8"?>
<svg id="Layer_2" data-name="Layer 2" xmlns="http://www.w3.org/2000/svg" viewBox="0 0 531.89 641.7">
  <defs>
    <style>
      .cls-1 {
        fill: #9d5025;
      }

      .cls-1, .cls-2 {
        stroke-width: 0px;
      }

      .cls-2 {
        fill: #f68536;
      }
    </style>
  </defs>
  <g id="AWSEC2">
    <g>
      <path class="cls-1" d="m27.13,521.76c-.82.72-1.36-.13-1.93-.41-7.67-3.8-15.31-7.64-22.97-11.44-.68-.34-1.32-1.03-2.23-.66V132.51c.9.23,1.54-.41,2.24-.75,7.59-3.77,15.17-7.57,22.75-11.34.65-.33,1.24-.83,2.03-.79,0,132.94,0,265.87.01,398.81,0,1.11.06,2.21.1,3.32Z"/>
      <path class="cls-2" d="m531.86,507.72c.11.94-.29,1.49-1.15,1.88-1.54.71-3.04,1.5-4.56,2.26-85.98,43-171.96,86-257.95,128.99-.7.35-1.33.98-2.23.82-.01-.37-.03-.74-.02-1.11.2-29.31.23-58.62.23-87.93.01-156.87.55-313.73-.21-470.59-.14-27.33-.03-54.66-.04-81.99,1.07-.25,1.82.5,2.64.92,56.43,28.19,112.84,56.41,169.25,84.63,30.61,15.31,61.21,30.66,91.85,45.91,1.73.87,2.22,1.83,2.22,3.69-.04,123.73-.04,247.46-.04,371.19,0,.44-.04.89,0,1.33Z"/>
      <path class="cls-1" d="m266.18,552.63c0,29.31-.03,58.62-.23,87.93-.01.37.01.74.02,1.11-.93-.42-1.88-.81-2.8-1.27-16.03-8.01-32.04-16.04-48.09-24-1.46-.72-1.98-1.52-1.97-3.17.08-11.74.05-23.48.04-35.22,0-.89-.04-1.77-.07-2.66.03-.88.07-1.77.07-2.65.01-167.88.01-335.77,0-503.65,0-.88-.04-1.77-.07-2.65.03-5.16.06-10.33.07-15.49.01-7.52.05-15.05-.03-22.57-.02-1.55.48-2.32,1.85-3,16.03-7.96,32.02-15.99,48.04-23.96.95-.47,1.74-1.35,2.92-1.33.01,27.33-.1,54.66.04,81.99.76,156.86.22,313.72.21,470.59Z"/>
      <path class="cls-2" d="m213.15,69.05c.01,167.88.01,335.77,0,503.65,0,.88-.04,1.77-.07,2.65-9.4,3.42-18.81,6.83-28.21,10.26-5.46,1.99-10.91,4.02-16.38,5.98-.69.25-1.43.96-2.25.24.71-.92.39-2,.39-3,.01-178.75.01-357.49.01-536.24,0-.96-.03-1.92-.04-2.88.79-.19,1.43.28,2.1.53,14.17,5.16,28.34,10.35,42.5,15.53.62.23,1.26.42,1.88.63.03.88.07,1.77.07,2.65Z"/>
      <path class="cls-1" d="m166.24,591.83c-4.03-1.98-8.07-3.95-12.09-5.95-8.9-4.44-17.77-8.91-26.69-13.31-1.29-.63-1.8-1.34-1.79-2.84.08-8.78.04-17.55.03-26.33.04-.8.11-1.61.11-2.42V100.77c0-.81-.07-1.62-.1-2.43,0-8.71.04-17.43-.03-26.14-.02-1.63.5-2.46,1.97-3.18,12.1-5.98,24.15-12.06,36.24-18.05.88-.44,1.57-1.35,2.71-1.26,0,.96.04,1.92.04,2.88,0,178.75,0,357.49-.01,536.24,0,1,.32,2.08-.39,3Z"/>
      <path class="cls-2" d="m125.81,100.77v440.21c0,.81-.07,1.62-.11,2.42-.76-.16-1.44.13-2.15.33-10.69,3.04-21.37,6.06-32.06,9.08-.77.22-1.52.58-2.36.36-.01-1.04-.03-2.07-.03-3.11V92.52c0-1.33,0-2.66-.01-3.99,1.89-.07,3.58.77,5.34,1.26,9.71,2.71,19.42,5.47,29.12,8.23.71.2,1.39.49,2.16.32.03.81.1,1.62.1,2.43Z"/>
      <path class="cls-1" d="m89.13,553.17c-.7-.02-1.24-.45-1.82-.74-9.63-4.81-19.24-9.66-28.9-14.4-1.48-.73-1.96-1.61-1.95-3.21.07-6.49.02-12.99.01-19.48.37-.62.19-1.3.19-1.95.01-128.44.01-256.87,0-385.31,0-.72.22-1.48-.24-2.16.02-6.19.1-12.39.02-18.59-.02-1.9.46-2.99,2.32-3.89,9.49-4.59,18.88-9.37,28.31-14.07.65-.33,1.25-.8,2.02-.84.01,1.33.01,2.66.01,3.99v457.54c0,1.04.02,2.07.03,3.11Z"/>
      <path class="cls-2" d="m56.66,513.39c0,.65.18,1.33-.19,1.95-3.38.35-6.63,1.38-9.93,2.09-6.48,1.4-12.95,2.88-19.41,4.33-.04-1.11-.1-2.21-.1-3.32-.01-132.94-.01-265.87-.01-398.81,2.75-.02,5.31.96,7.95,1.54,6.65,1.45,13.28,3.04,19.93,4.56.49.11,1.01.13,1.52.19.46.68.24,1.44.24,2.16.01,128.44.01,256.87,0,385.31Z"/>
    </g>
  </g>
</svg>