<?xml version="1.0" encoding="UTF-8"?>
<svg id="Layer_2" data-name="Layer 2" xmlns="http://www.w3.org/2000/svg" viewBox="0 0 609.11 524.8">
  <defs>
    <style>
      .cls-1 {
        fill: #e17208;
        stroke-width: 0px;
      }
    </style>
  </defs>
  <g id="AWSLightsail">
    <g>
      <path class="cls-1" d="m608.81,273.95c-2.87,58.87-22.89,111.19-60.68,156.53-24.19,29.01-53.35,51.78-87.35,68.29-20.6,10-42.18,17.06-64.68,21.35-16.49,3.15-33.13,4.56-49.02,4.68-43.62-.25-84.13-9.79-122.04-29.62-47.29-24.73-83.71-60.64-109.26-107.5-13.76-25.23-22.82-52.12-27.77-80.41-1.62-9.26,5.12-17.21,14.2-16.84,6.81.28,12.02,5.07,13.26,12.2,2.16,12.33,5.11,24.46,9.31,36.26,22.59,63.46,64.48,109.36,125.62,137.59,18.1,8.36,37.13,13.85,56.79,17.18,16.67,2.82,33.45,3.92,50.29,3.03,55.11-2.89,103.59-22.35,144.9-59.05,31.92-28.35,54.5-62.94,67.61-103.62,4.95-15.35,8.17-31.07,9.83-47.13,1.59-15.33,1.78-30.69.3-46-5.11-52.94-25.59-99.12-61.78-138.14-29.1-31.36-64.2-53.23-105.27-65.4-15.55-4.61-31.43-7.46-47.62-8.74-11.48-.91-22.98-1.08-34.46-.28-44.21,3.08-84.62,17.12-120.72,42.89-39.62,28.28-67.74,65.43-84.43,111.18-4.7,12.89-8.19,26.11-10.46,39.65-.57,3.42-1.71,6.56-4.29,9.05-4.28,4.15-10.67,5.13-16.08,2.39-5.31-2.68-8.34-8.55-7.34-14.48,7.73-45.56,25.96-86.44,55.18-122.25,33.71-41.32,76.25-69.71,127.2-85.42,14.07-4.34,28.44-7.32,43.06-9.18,13.72-1.74,27.48-2.48,41.28-2.04,44,1.39,85.27,12.72,123.34,34.91,46.66,27.2,81.88,65.19,105.55,113.76,11.1,22.78,18.45,46.78,22.46,71.82,2.84,17.69,3.95,35.48,3.07,53.34Z"/>
      <path class="cls-1" d="m451.32,201.69c-8.35-27.16-21.31-51.99-37.88-74.98-9.05-12.56-18.92-24.45-30.25-35.04-6.18-5.78-12.5-11.41-18.78-17.09-.64-.59-1.19-1.36-2.1-1.58-.57.5-.34,1.09-.34,1.6.09,7.55.16,15.09.3,22.63.11,6.18-.27,12.31-1.03,18.44-2.3,18.47-7.17,36.21-15.09,53.07-14.96,31.88-38.28,55.41-70.45,69.99-7.79,3.53-15.84,6.37-24.09,8.63-2.5.69-4.88,1.65-6.84,3.42-4.49,4.04-6.22,9.12-4.9,14.95,1.32,5.84,5.07,9.76,10.89,11.34,7.99,2.17,15.87,4.61,23.51,7.79,22.19,9.21,41.16,22.8,55.79,41.95,22.25,29.12,32.22,62.39,32.26,98.8.01,9.2-.44,18.4-.66,27.59-.02.69-.17,1.42.14,2.09.32-.1.52-.1.63-.21.97-.97,1.94-1.95,2.89-2.95,13.69-14.4,27.76-28.45,40.12-44.07,15.65-19.78,28.99-40.95,38.79-64.26,10.41-24.77,16.17-50.54,16.55-77.44.31-22.05-2.97-43.6-9.46-64.67Zm-30.75,133.73c-8.78,20.5-20.61,39.17-34.45,56.6-.38.48-.64,1.13-1.63,1.32-3.95-21.79-10.83-42.44-21.62-61.71-17.39-31.05-42.39-53.75-74.86-68.26-.75-.34-1.5-.67-2.25-1.03-.16-.07-.28-.22-.43-.34.56-.65,1.39-.83,2.12-1.17,37.28-17.2,64.19-44.73,81.43-81.86,6.96-14.99,11.88-30.63,14.98-46.86.1-.53.29-1.05.43-1.54.81-.19,1,.45,1.3.83,19.03,24.12,33.77,50.53,42.54,80.09,3.67,12.37,6.03,24.98,7.07,37.85,2.41,29.95-2.85,58.57-14.63,86.08Z"/>
      <path class="cls-1" d="m267.44,385.66c-21.54,2.5-40.36,18.86-42.68,43.37-2.12-23.68-20.18-41.06-42.7-43.45,11.07-1.41,20.78-5.69,28.75-13.57,7.89-7.8,12.34-17.33,13.9-28.29,4.45,23.76,18.51,37.62,42.73,41.94Z"/>
      <path class="cls-1" d="m169.35,263.76c-.99,6.38-5.93,11.01-12.11,11.15-4.6.11-9.2.02-13.79.02s-9.02.1-13.52-.02c-6.25-.16-11.2-4.82-12.07-11.16-.78-5.72,3.09-11.57,8.86-13.35,1.6-.49,3.26-.57,4.91-.57,8-.01,16-.02,24,0,1.74.01,3.48.09,5.16.66,5.68,1.94,9.41,7.7,8.56,13.27Z"/>
      <path class="cls-1" d="m550.8,311.58c-18.49,1.91-31.65,16.29-33.17,33.3-3.38-18.97-14.01-30.02-32.8-33.42,18.42-3.35,29.28-14.18,32.65-32.75,3.32,18.77,14.38,29.45,33.32,32.87Z"/>
      <path class="cls-1" d="m224.67,264.34c-.95,5.83-5.89,10.35-11.77,10.56-3.86.14-7.72.02-11.59.02v.02c-3.86,0-7.73.07-11.59-.02-6.3-.15-11.24-4.67-12.19-11.03-.85-5.72,2.96-11.6,8.71-13.45,1.6-.52,3.26-.6,4.91-.61,6.62-.02,13.25-.02,19.87,0,1.93.01,3.85.13,5.69.84,5.53,2.12,8.9,7.89,7.96,13.67Z"/>
      <path class="cls-1" d="m46.33,266.92c-1.93,4.84-5.68,7.66-10.94,7.96-3.94.22-7.9.05-11.85.05s-7.72.1-11.58-.03c-6.02-.19-11.17-4.92-11.86-10.72-.77-6.37,2.89-12.06,8.88-13.82,1.42-.42,2.89-.52,4.36-.52,6.89-.03,13.79-.01,20.68-.02,3.74,0,7.08,1.06,9.7,3.84,3.62,3.86,4.55,8.39,2.61,13.26Z"/>
      <path class="cls-1" d="m109.36,264.44c-.86,5.71-5.95,10.28-11.83,10.46-3.86.12-7.73.03-11.59.03s-7.73.09-11.59-.02c-6.02-.18-11.19-4.91-11.89-10.7-.76-6.39,2.88-12.09,8.87-13.84,1.6-.48,3.26-.54,4.92-.54,6.43-.02,12.87-.02,19.31,0,1.93.01,3.85.1,5.7.78,5.69,2.11,9.02,7.77,8.1,13.83Z"/>
      <path class="cls-1" d="m301.93,121.76c-16.93,3.18-26.91,13.05-30.13,30.18-3.35-17.42-13.6-27.42-30.6-30.19,17.02-2.74,27.25-12.77,30.61-30.21,3.14,17.14,13.15,26.98,30.12,30.22Z"/>
    </g>
  </g>
</svg>