<?xml version="1.0" encoding="UTF-8"?>
<svg id="Layer_2" data-name="Layer 2" xmlns="http://www.w3.org/2000/svg" viewBox="0 0 688.26 829.64">
  <defs>
    <style>
      .cls-1 {
        fill: #6f3d1c;
      }

      .cls-1, .cls-2, .cls-3, .cls-4, .cls-5 {
        stroke-width: 0px;
      }

      .cls-2 {
        fill: #943d00;
      }

      .cls-3 {
        fill: #f58536;
      }

      .cls-4 {
        fill: #9c5025;
      }

      .cls-5 {
        fill: #f47a16;
      }
    </style>
  </defs>
  <g id="route53">
    <g>
      <path class="cls-3" d="m485.87,758.91c-46.69,24.78-93.8,48.72-141.87,70.73.04-276.55.08-553.09.12-829.64h3.37c22.2,14.95,47.33,24.35,70.65,37.16,23.27,12.78,48.66,21.56,70.35,37.31-2.78,2.58-2.66,5.99-2.66,9.37,0,50.53,0,101.06,0,151.59,0,3.89-.49,7.98,3.37,10.67,0,0,.07.28.07.28-29.35,9.75-61.18,8.36-89.61,18.23v95.94c6.87,4.74,13.06,3.71,19.16,3.33,22.33.15,44.65.3,66.98.45.02,131.53.05,263.06.07,394.59Z"/>
      <path class="cls-4" d="m344.13,0c-.04,276.55-.08,553.09-.12,829.64-48-21.98-95.09-45.77-141.61-70.7.04-150.64.08-301.28.12-451.92,7.7.22,15.27,1.1,22.94,2.17,18.63,2.61,37.05.09,54.31-8.23,5.15-.57,10.19-.94,10.16-8.24-.12-27.93-.05-55.85-.05-83.96-30.61-8.04-59.07-15.52-87.53-23,.03-19.5.64-39.02-.09-58.49-.66-17.6,3.33-35.44-2.41-52.8,3.42-6.61,10.71-7.31,16.35-10.31,41.23-21.94,84.44-40.04,124.56-64.16h3.37Z"/>
      <path class="cls-3" d="m644.44,222.68c14.61,4.5,29.22,8.99,43.82,13.49v114.71c-7.68,1.45-15.1,5.04-23.23,2.83-4.65-8.31-13.03-5.43-20.03-6.67-.19-41.45-.38-82.9-.57-124.35Z"/>
      <path class="cls-4" d="m0,172.06c14.81-6.3,28.06-15.93,43.77-20.27-.02,39.4-.05,78.8-.07,118.2-13.37,4.32-26.74,8.64-40.11,12.97-1.2.15-2.39.3-3.59.44,0-37.11,0-74.22,0-111.34Z"/>
      <path class="cls-1" d="m3.59,282.96c13.37-4.32,26.74-8.64,40.11-12.97,2.09.78,4.13,2.02,6.29,2.29,76.58,9.61,153.18,19.14,229.77,28.68-17.26,8.32-35.68,10.84-54.31,8.23-7.67-1.08-15.24-1.96-22.94-2.17-1.09-.07-2.18-.09-3.27-.07-32.05-7.68-65.06-8.01-97.52-12.62-32.59-4.63-65.41-7.64-98.12-11.36Z"/>
      <path class="cls-1" d="m645.01,347.03c7,1.24,15.38-1.64,20.03,6.67-52.6,2.65-105.21,5.27-157.82,7.98-6.1.31-12.43-.7-18.15,2.52-1.1-.26-2.19-.22-3.26.12-22.33-.15-44.65-.3-66.98-.45,10.18-5.15,21.77-5.47,32.33-5.68,64.78-1.27,129.21-7.83,193.85-11.17Z"/>
      <path class="cls-2" d="m199.24,306.94c1.09-.02,2.18,0,3.27.07-.04,150.64-.08,301.28-.12,451.92-6.03-2.46-3.19-7.74-3.2-11.61-.11-146.8-.02-293.59.04-440.39Z"/>
      <path class="cls-5" d="m485.8,364.32c1.08-.34,2.16-.39,3.26-.12.05,127.08.13,254.16-.02,381.23,0,4.47,3,10.24-3.17,13.48-.02-131.53-.05-263.06-.07-394.59Z"/>
      <path class="cls-4" d="m645.01,347.03c-64.63,3.34-129.07,9.9-193.85,11.17-10.56.21-22.15.53-32.33,5.68-6.09.38-12.28,1.41-19.15-3.33v-95.94c28.43-9.87,60.26-8.48,89.61-18.23,10.28,8.17,23.08.62,29.8-2.03,16.05-6.32,32.6-5.97,48.52-9,22.23-4.23,44.82-6.81,66.85-12.47,3.14-.81,6.64-.17,9.98-.2.19,41.45.38,82.9.57,124.35Z"/>
      <path class="cls-5" d="m488.5,74.47c.24,57.21.48,114.42.71,171.62-3.86-2.69-3.37-6.78-3.37-10.67-.02-50.53-.01-101.06,0-151.59,0-3.37-.12-6.78,2.66-9.37Z"/>
      <path class="cls-3" d="m279.76,300.96c-76.59-9.54-153.19-19.06-229.77-28.68-2.16-.27-4.2-1.5-6.29-2.29.02-39.4.05-78.8.07-118.2,43.12,6.4,84.78,19.39,127.35,28.28,9.26,1.93,18.57,3.64,27.86,5.46,1.12.08,2.24.16,3.36.23,28.46,7.48,56.92,14.95,87.53,23,0,28.1-.07,56.03.05,83.96.03,7.3-5.02,7.68-10.16,8.24Z"/>
      <path class="cls-2" d="m202.35,185.76c-1.12-.08-2.24-.16-3.36-.23.29-37.02.58-74.04.86-111.06,5.74,17.36,1.74,35.2,2.41,52.8.73,19.47.12,38.99.09,58.49Z"/>
    </g>
  </g>
</svg>