<?xml version="1.0" encoding="UTF-8"?>
<svg id="Layer_2" data-name="Layer 2" xmlns="http://www.w3.org/2000/svg" viewBox="0 0 429.16 482.17">
  <defs>
    <style>
      .cls-1 {
        fill: #1f5b98;
      }

      .cls-1, .cls-2, .cls-3, .cls-4, .cls-5 {
        stroke-width: 0px;
      }

      .cls-2 {
        fill: #1a486f;
      }

      .cls-3 {
        fill: #2f71b7;
      }

      .cls-4 {
        fill: #5194ce;
      }

      .cls-5 {
        fill: #2e71b8;
      }
    </style>
  </defs>
  <g id="AWSRDS">
    <g>
      <path class="cls-3" d="m282.16,6.65v468.14c0,5.85,0,5.83-5.79,5.83-43.18-.01-86.36,0-129.55,0-.03-1.94-.11-3.87-.11-5.81,0-151.24,0-302.48-.01-453.73,0-2.47-.38-4.94-.54-7.38-.28-4.42-1.47-9.1,1.35-13.26,1.08-.14,2.16-.4,3.24-.4,42.8-.02,85.61-.01,128.41,0,.69,0,1.38.09,2.07.14,1.15,2.04.93,4.27.93,6.47Z"/>
      <path class="cls-4" d="m379.2,433.16c-1.69,2.2-4.39,2.76-6.68,3.9-29.16,14.6-58.37,29.1-87.53,43.7-2.07,1.03-4.11,1.37-6.36,1.37-42.87-.03-85.73-.02-128.6-.05-1.61,0-3.35.48-4.78-.76.53-.24,1.05-.47,1.57-.7,43.19,0,86.37-.01,129.55,0,5.79,0,5.79.02,5.79-5.83V6.65c0-2.2.22-4.43-.93-6.47,1.54-.61,2.64.46,3.84,1.05,30.8,15.32,61.6,30.65,92.41,45.97.74.37,1.5.71,1.73,1.62-1.21,1.3-.7,2.9-.7,4.36-.02,125.21-.02,250.41,0,375.62,0,1.46-.51,3.06.69,4.36Z"/>
      <path class="cls-1" d="m146.71,474.81c0,1.94.08,3.87.11,5.81-.52.23-1.04.46-1.57.7-31.22-15.52-62.45-31.03-93.67-46.56-.47-.24-.84-.68-1.25-1.03.01-128.5.02-257,.04-385.5,5.8-4.01,12.39-6.53,18.64-9.68C94.1,25.92,119.25,13.41,144.39.88c.35-.17.76-.19,1.17-.23.14-.01.28-.03.41-.05.23.05.43-.01.6-.17.31,0,.62,0,.94.01-2.82,4.16-1.63,8.84-1.35,13.26.16,2.44.54,4.91.54,7.38.01,151.25.01,302.49.01,453.73Z"/>
      <path class="cls-2" d="m50.37,48.23c-.02,128.5-.03,257-.04,385.5-11.84-13.69-23.68-27.37-35.51-41.07-4.06-4.71-7.95-9.58-12.17-14.15-2.06-2.22-2.65-4.52-2.64-7.45.06-86.74.06-173.47-.01-260.21,0-2.94.71-5.17,2.67-7.45,15.46-17.89,30.78-35.9,46.15-53.87.43-.5,1.03-.87,1.55-1.3Z"/>
      <path class="cls-5" d="m427.57,110.46c0,86.73,0,173.45.01,260.17,0,2.36.01,4.69-.91,6.91-.16.26-.32.51-.48.76-2.68.66-4.12,2.4-4.46,5.1l-.04.04c-1.95.35-3.27,1.24-3.03,3.48l-.08.06c-.54.01-.78.27-.65.82l-.09.1c-.94-.03-1.07.6-1.08,1.33l-.03.03c-1.96.35-3.29,1.24-3.05,3.5l-.13-.15s.06.1.07.13c.01.02.02.03.02.04-.86.07-1.08.64-1.09,1.39-11.11,12.99-22.23,25.99-33.35,38.99-1.2-1.3-.69-2.9-.69-4.36-.02-125.21-.02-250.41,0-375.62,0-1.46-.51-3.06.7-4.36,15.74,18.33,31.48,36.64,47.2,54.98.51.6.81,1.39,1.2,2.1-.01,1.52-.04,3.04-.04,4.56Z"/>
      <path class="cls-4" d="m429,371.87c0,2.25.17,4.49-2.33,5.67.92-2.22.91-4.55.91-6.91-.01-86.72-.01-173.44-.01-260.17,0-1.52.03-3.04.04-4.56,2.36,1.03,1.32,3.13,1.32,4.73.06,52.8.06,105.6.06,158.4,0,34.28-.01,68.56.01,102.84Z"/>
      <path class="cls-4" d="m426.19,378.3c-1.11,2.03-2.6,3.73-4.46,5.1.34-2.7,1.78-4.44,4.46-5.1Z"/>
      <path class="cls-4" d="m416.73,389.26c-.6,1.53-1.73,2.6-3.05,3.5-.24-2.26,1.09-3.15,3.05-3.5Z"/>
      <path class="cls-4" d="m421.69,383.44c-.85,1.3-1.51,2.77-3.03,3.48-.24-2.24,1.08-3.13,3.03-3.48Z"/>
      <path class="cls-4" d="m417.84,387.9c-.12.63-.44,1.11-1.08,1.33.01-.73.14-1.36,1.08-1.33Z"/>
      <path class="cls-4" d="m413.64,392.78c-.02.08-.03.16-.05.24-.02.07-.05.15-.07.22-.06.15-.13.28-.21.4-.17.24-.41.43-.76.53.01-.75.23-1.32,1.09-1.39Z"/>
      <path class="cls-3" d="m146.57.43c-.17.16-.37.22-.6.17h0c.13-.32.25-.64.6-.17Z"/>
      <path class="cls-4" d="m418.58,386.98c-.22.28-.43.55-.65.82-.13-.55.11-.81.65-.82Z"/>
    </g>
  </g>
</svg>