<?xml version="1.0" encoding="UTF-8"?>
<svg id="Layer_2" data-name="Layer 2" xmlns="http://www.w3.org/2000/svg" viewBox="0 0 550.76 667.53">
  <defs>
    <style>
      .cls-1 {
        fill: #fefefe;
      }

      .cls-1, .cls-2, .cls-3 {
        stroke-width: 0px;
      }

      .cls-2 {
        fill: #7b1d13;
      }

      .cls-3 {
        fill: #e15444;
      }
    </style>
  </defs>
  <g id="AWSS3">
    <g>
      <path class="cls-1" d="m172.51,113.47v38.68h.01c0-12.89,0-25.78-.01-38.68Z"/>
      <path class="cls-2" d="m503.64,554.75c-3.31.36-6.53-.47-9.77-.83-22.96-2.55-45.91-5.22-68.86-7.85-17.3-1.98-34.6-3.96-51.89-5.94-.02-20.99-.04-41.98-.05-62.97-.01-5.12-.01-5.16-4.99-3.91-31.01,7.78-62.02,15.58-93.03,23.32-1.67.41-2.17,1.14-2.16,2.86.06,20.91.04,41.82.04,62.73-.01,35.12-.02,70.25-.03,105.37-9.21-4.76-18.44-9.5-27.63-14.3-23.37-12.21-46.71-24.48-70.11-36.64-1.82-.95-2.32-2.04-2.32-3.99.06-29.49.05-58.98.04-88.47,0-.99-.05-1.98-.08-2.97,0-15.37.05-30.73-.07-46.09-.01-2.21.73-3,2.74-3.34,6.82-1.14,13.62-2.37,20.42-3.62,24.92-4.61,49.84-9.24,74.76-13.84,1.54-.29,2.35-.79,2.33-2.69-.12-10.81-.06-21.62-.07-32.43v-.03h.03c7.68-.84,15.37-1.68,23.05-2.54,7.36-.82,14.72-1.66,22.08-2.52,8.01-.93,16.01-1.93,24.03-2.84,9.32-1.07,18.65-2.11,27.98-3.08,2.26-.23,3.06-1.01,3.06-3.51-.1-41.82-.07-83.65-.07-125.48,0-4.87-.12-9.76.05-14.63.07-2-.6-2.84-2.48-3.03-3.53-.34-7.05-.72-10.57-1.09-6.79-.72-13.59-1.42-20.38-2.16-8.43-.92-16.86-1.87-25.28-2.81-6.96-.77-13.91-1.55-20.87-2.29-6.86-.74-13.73-1.44-20.6-2.16h-.03v-.03c.01-10.9-.11-21.8.11-32.7.05-2.64-1.09-3.13-3.16-3.45-16.82-2.66-33.63-5.34-50.44-8.07-14.76-2.4-29.5-4.94-44.29-7.22-2.15-.34-2.51-1.15-2.5-2.99.05-12.73.03-25.46.02-38.18,0-1.03-.02-2.06-.05-3.09-.03-1.03-.06-2.07-.09-3.1v-38.68c0-9.66,0-19.33-.01-29,0-9.67,0-19.34-.03-29.01,0-1.99.58-3.04,2.37-3.98,31.81-16.73,63.59-33.53,95.37-50.32.58-.3,1.19-.56,1.79-.84.73.96.39,2.08.39,3.12.05,54.78.08,109.56.11,164.34,0,.41.05.83,0,1.23-.23,1.43.44,2.09,1.76,2.44,3.66.98,7.3,2.03,10.96,3.05,28.1,7.79,56.2,15.58,84.3,23.39,3.16.88,3.15.92,3.15-2.37.02-21.73.03-43.46.04-65.19,18.04-2.06,36.07-4.14,54.11-6.2,18.03-2.06,36.07-4.09,54.11-6.15,6.48-.74,12.95-1.52,19.43-2.26,1.05-.12,2.12-.08,3.19-.11v435.43c0,1.23.07,2.47.1,3.71Z"/>
      <polygon class="cls-3" points="272.94 419.15 272.91 419.15 272.91 419.12 272.94 419.15"/>
      <polygon class="cls-3" points="272.91 250.98 272.91 250.95 272.94 250.95 272.91 250.98"/>
      <path class="cls-3" d="m272.98,451.58c.02,1.9-.79,2.4-2.33,2.69-24.92,4.6-49.84,9.23-74.76,13.84-6.8,1.25-13.6,2.48-20.42,3.62-2.01.34-2.75,1.13-2.74,3.34.12,15.36.07,30.72.07,46.09-11.92,2.97-23.85,5.92-35.77,8.91-32.64,8.19-65.27,16.4-97.91,24.6-.74.18-1.52.85-2.26-.03.67-.79.41-1.74.41-2.62.01-144.46.01-288.91,0-433.37,0-.97.24-2-.46-2.87.84-1.51,1.98-.39,2.82-.16,15.81,4.34,31.59,8.76,47.39,13.15,27.69,7.69,55.4,15.37,83.09,23.06.79.22,1.54.6,2.4.32h.01c.02,1.03.05,2.07.08,3.1.03,1.03.05,2.06.05,3.09.01,12.72.03,25.45-.02,38.18-.01,1.84.35,2.65,2.5,2.99,14.79,2.28,29.53,4.82,44.29,7.22,16.81,2.73,33.62,5.41,50.44,8.07,2.07.32,3.21.81,3.16,3.45-.22,10.9-.1,21.8-.11,32.7-3.59.37-7.19.71-10.78,1.12-9.81,1.09-19.62,2.25-29.44,3.32-8.35.91-16.71,1.72-25.06,2.61-10.47,1.12-20.94,2.3-31.42,3.39-3.36.35-3.41.31-3.41,3.63v139.6c0,.5.03,1-.01,1.49-.09,1.14.38,1.56,1.55,1.68,4.58.45,9.16,1,13.74,1.55,9.32,1.1,18.63,2.25,27.95,3.31,8.01.92,16.04,1.72,24.06,2.64,10.94,1.25,21.88,2.57,32.82,3.86.01,10.81-.05,21.62.07,32.43Z"/>
      <path class="cls-3" d="m550.74,526.63c0,1.2-.09,2.1-1.39,2.82-14.88,8.23-29.71,16.55-44.56,24.84-.36.2-.76.31-1.15.46-.03-1.24-.1-2.48-.1-3.71V115.61c6.68,3.23,13.01,7.13,19.5,10.71,8.61,4.74,17.14,9.61,25.76,14.33,1.41.78,1.97,1.61,1.96,3.26-.04,127.57-.03,255.15-.02,382.72Z"/>
      <path class="cls-3" d="m372.73,55.01c-.04,25.11-.03,50.22-.03,75.32-.01,21.73-.02,43.46-.04,65.19,0,3.29.01,3.25-3.15,2.37-28.1-7.81-56.2-15.6-84.3-23.39-3.66-1.02-7.3-2.07-10.96-3.05-1.32-.35-1.99-1.01-1.76-2.44.06-.4,0-.82,0-1.23-.03-54.78-.06-109.56-.11-164.34,0-1.04.34-2.16-.39-3.12.87-.76,1.54.04,2.19.38,32.24,17,64.46,34.03,96.72,51,1.53.8,1.83,1.76,1.82,3.31Z"/>
      <path class="cls-3" d="m373.05,613.01c0,1.73-.53,2.65-2.06,3.45-32.11,16.75-64.2,33.56-96.3,50.35-.57.29-1.19.48-1.79.72.01-35.12.02-70.25.03-105.37,0-20.91.02-41.82-.04-62.73-.01-1.72.49-2.45,2.16-2.86,31.01-7.74,62.02-15.54,93.03-23.32,4.98-1.25,4.98-1.21,4.99,3.91.01,20.99.03,41.98.05,62.97-.04,4.38-.11,8.76-.11,13.13-.01,19.92-.03,39.84.04,59.75Z"/>
      <path class="cls-2" d="m36.86,554.64c-11.83-5.23-23.65-10.48-35.49-15.68-.99-.43-1.43-.96-1.31-2.03.07-.65.01-1.32.01-1.98,0-133.15.01-266.29-.07-399.44,0-2.59.65-3.84,3.11-4.88,11.29-4.81,22.48-9.88,33.7-14.85.7.87.46,1.9.46,2.87.01,144.46.01,288.91,0,433.37,0,.88.26,1.83-.41,2.62Z"/>
      <path class="cls-3" d="m272.91,250.97c6.88.72,13.76,1.42,20.63,2.16,6.96.75,13.91,1.53,20.86,2.3,8.43.93,16.85,1.89,25.28,2.8,6.79.74,13.59,1.44,20.39,2.16,3.52.37,7.04.75,10.57,1.1,1.88.18,2.56,1.03,2.48,3.03-.17,4.87-.06,9.75-.06,14.63,0,41.83-.03,83.65.07,125.48,0,2.5-.8,3.27-3.06,3.51-9.33.97-18.66,2.01-27.98,3.07-8.01.91-16.02,1.91-24.03,2.85-7.36.86-14.72,1.7-22.08,2.52-7.69.86-15.38,1.69-23.07,2.54,0,0,.03.03.03.03,0-56.07,0-112.14,0-168.2l-.03.03Z"/>
      <path class="cls-2" d="m272.94,250.94c0,56.07,0,112.14,0,168.2-10.95-1.29-21.9-2.61-32.86-3.87-8.01-.92-16.04-1.71-24.06-2.63-9.32-1.07-18.63-2.22-27.95-3.32-4.58-.54-9.16-1.09-13.74-1.55-1.16-.12-1.64-.54-1.55-1.68.04-.49,0-.99,0-1.49,0-46.53,0-93.07,0-139.6,0-3.32.05-3.27,3.41-3.63,10.48-1.09,20.95-2.28,31.42-3.39,8.35-.89,16.71-1.7,25.06-2.61,9.82-1.07,19.63-2.23,29.44-3.33,3.6-.4,7.21-.75,10.81-1.12Z"/>
    </g>
  </g>
</svg>