<?xml version="1.0" encoding="UTF-8"?>
<svg id="Layer_2" data-name="Layer 2" xmlns="http://www.w3.org/2000/svg" viewBox="0 0 529.38 603.52">
  <defs>
    <style>
      .cls-1 {
        fill: #fff;
      }

      .cls-1, .cls-2, .cls-3 {
        stroke-width: 0px;
      }

      .cls-2 {
        fill: #293138;
      }

      .cls-3 {
        fill: #4ca625;
      }
    </style>
  </defs>
  <g id="bash">
    <g>
      <path class="cls-2" d="m529.35,190.25c0-1.67-.05-3.35-.09-5.02-.1-4.15-.68-8.24-1.59-12.27-4.97-22.01-17.12-38.75-36.56-50.27-41.79-24.77-83.55-49.62-125.32-74.43-21.05-12.51-42.14-24.98-63.16-37.53-9.88-5.9-20.46-9.6-31.93-10.5-15.68-1.23-30.23,2.4-43.75,10.45-32.7,19.49-65.45,38.89-98.17,58.33-30.36,18.03-60.71,36.08-91.08,54.08-8.93,5.3-16.57,11.98-22.7,20.36C4.84,157.34.02,172.98,0,190.12-.01,227.54,0,264.95,0,302.37v111.36c-.01,4.53.2,9.05.93,13.53,3.8,23.52,15.53,41.95,36.03,54.17,63.52,37.89,127.19,75.54,190.79,113.28,5.18,3.08,10.65,5.52,16.43,7.2,2.54.74,5.04,1.63,7.77,1.61,8.56-.05,17.13-.02,25.69-.01,1.19,0,2.33-.2,3.49-.47,7.92-1.88,15.25-5.13,22.22-9.28,43.13-25.62,86.27-51.21,129.41-76.81,19.7-11.7,39.4-23.41,59.12-35.09,13.06-7.74,22.96-18.41,29.65-32.03,5.44-11.05,7.85-22.77,7.84-35.09-.05-74.83-.03-149.66-.03-224.49Zm-167.69,265.8c-3.78,7.68-8.85,14.42-15.34,20.01-1.27,1.09-1.72,2.17-1.65,3.79.16,4.33.11,8.66.26,12.99.11,2.97-1,5.09-3.65,6.51-2.69,1.44-5.28,3.05-7.95,4.52-2.54,1.4-3.67.78-3.74-2.1-.1-3.93-.06-7.87-.08-11.81v-3.26c-1.17-.41-1.99.28-2.86.57-4.52,1.5-9.12,2.4-13.92,2.12-1.29-.07-2.54-.26-3.77-.61-2.38-.69-3-1.4-2.48-3.85,1.11-5.19,2.32-10.36,3.71-15.48.78-2.89,2.56-3.6,5.68-2.93,13.99,3.03,32.2-7.64,33.39-24.35.12-1.69.01-3.36-.31-4.99-.64-3.22-2.5-5.53-5.52-6.82-2.01-.85-4.13-1.23-6.31-1.41-4.41-.36-8.85-.15-13.24-.95-10.36-1.87-16.04-8.11-16.86-18.63-1.05-13.34,2.91-25.25,10.26-36.19,2.87-4.26,6.26-8.11,10.21-11.41,1.34-1.12,1.84-2.31,1.77-4.04-.16-4.04-.04-8.08-.19-12.11-.14-3.49.98-6.07,4.23-7.73,2.44-1.25,4.7-2.86,7.08-4.26,2.46-1.44,3.69-.82,3.77,2.05.12,4.43.07,8.86.09,13.29,0,.78,0,1.57,0,2.7,3.81-1.3,7.19-2.27,10.74-2.62,2.19-.22,4.32-.08,6.46.26,1.9.29,2.67.94,2.36,2.68-1.02,5.91-2.39,11.75-4.44,17.39-.78,2.14-2.11,2.52-4.56,2.02-9.74-1.98-26.94,5.21-29.11,19.7-.04.29-.14.58-.16.87-.68,8.28,2.66,10.37,8.11,11.4,2.81.54,5.67.66,8.52.74,2.76.08,5.5.19,8.23.69,9.59,1.76,15.37,7.55,16.93,17.18,1.94,11.99-.34,23.29-5.66,34.07Zm83.04-10.91c0,1.28-.13,2.57.03,3.83.38,3-1.06,4.71-3.54,6.13-5.28,3.03-10.45,6.28-15.66,9.43-9.75,5.91-19.51,11.82-29.26,17.73-.42.26-.81.57-1.25.78-1.29.59-2.03.18-2.26-1.27-.08-.49-.04-.99-.04-1.48-.01-3.25.1-6.5-.04-9.74-.1-2.15.75-3.52,2.54-4.58,6.27-3.69,12.5-7.44,18.75-11.18,8.86-5.29,17.71-10.6,26.59-15.86,1.04-.62,2.12-1.9,3.41-1.18,1.33.74.63,2.33.71,3.55.09,1.27.02,2.56.02,3.84Zm70.04-267.1c-.43.01-.56-.56-.66-.98-3.08-5.67-7.7-9.42-14.05-10.7-4.73-.95-9.42-.34-13.96,1.23-3.46,1.2-6.67,2.89-9.77,4.81-55.98,34.6-111.97,69.19-167.93,103.81-7.45,4.61-15.06,8.95-22.27,13.92-5.94,4.1-11.42,8.71-16.08,14.26-7.77,9.26-11.54,20-11.91,32-.04,1.38-.03,2.76-.03,4.14,0,72.76.01,145.53-.01,218.29,0,5.24.33,10.44,1.87,15.47,2.23,7.28,6.29,13.09,13.65,16.57-1.95.21-3.89.55-5.84.63-12.02.5-23.19-2.39-33.54-8.53-14.8-8.78-29.61-17.56-44.41-26.34-48.38-28.71-96.75-57.44-145.14-86.14-15.85-9.41-25.65-23.19-29.79-41.06-1.09-4.71-1.47-9.52-1.46-14.36.03-23.24.01-46.48.01-69.71,0-51.99-.01-103.98.01-155.97,0-15.11,4.76-28.59,14.23-40.38,4.8-5.98,10.66-10.71,17.25-14.61,35.2-20.86,70.38-41.75,105.57-62.63,27.66-16.41,55.35-32.77,82.97-49.25,11.26-6.72,23.33-9.76,36.39-8.71,9.27.74,17.83,3.73,25.82,8.49,20.62,12.29,41.27,24.52,61.91,36.77,42.37,25.14,84.74,50.3,127.14,75.42,14.48,8.58,24,20.96,28.74,37.08.54,1.85.57,3.84,1.46,5.6.15.35.18.88-.17.88Z"/>
      <path class="cls-1" d="m514.08,177.07c-3.08-5.68-7.7-9.42-14.05-10.7-4.72-.95-9.41-.34-13.96,1.23-3.45,1.2-6.67,2.88-9.77,4.8-55.98,34.61-111.97,69.19-167.93,103.81-7.44,4.61-15.06,8.94-22.27,13.92-5.94,4.1-11.42,8.71-16.08,14.26-7.77,9.26-11.54,20-11.91,32-.04,1.38-.03,2.76-.03,4.14,0,72.76,0,145.53-.01,218.29,0,5.24.33,10.44,1.87,15.47,2.23,7.28,6.29,13.08,13.65,16.56-1.94.22-3.88.55-5.83.63-12.02.51-23.2-2.39-33.54-8.52-14.8-8.78-29.61-17.56-44.41-26.34-48.38-28.71-96.75-57.44-145.14-86.14-15.85-9.4-25.65-23.19-29.79-41.06-1.09-4.71-1.47-9.51-1.46-14.36.03-23.24.01-46.47.01-69.71,0-51.99,0-103.98.01-155.97,0-15.11,4.76-28.59,14.23-40.38,4.8-5.98,10.66-10.71,17.25-14.61,35.2-20.85,70.38-41.75,105.57-62.63,27.66-16.41,55.36-32.76,82.97-49.25,11.26-6.72,23.34-9.76,36.39-8.71,9.27.75,17.83,3.73,25.83,8.49,20.61,12.29,41.26,24.52,61.9,36.77,42.38,25.15,84.75,50.3,127.14,75.42,14.49,8.58,24.01,20.97,28.74,37.08.54,1.85.57,3.84,1.47,5.6-.28-.03-.56-.06-.84-.09Z"/>
      <path class="cls-1" d="m344.24,351.68c3.81-1.31,7.19-2.27,10.73-2.62,2.19-.22,4.33-.08,6.47.26,1.9.3,2.66.94,2.36,2.69-1.03,5.9-2.39,11.75-4.44,17.39-.78,2.14-2.11,2.52-4.56,2.03-9.74-1.99-26.94,5.2-29.11,19.69-.04.29-.14.58-.16.87-.68,8.28,2.66,10.38,8.11,11.41,2.81.53,5.67.66,8.52.74,2.76.07,5.5.19,8.23.69,9.6,1.76,15.37,7.55,16.93,17.18,1.94,11.99-.34,23.29-5.65,34.07-3.79,7.68-8.85,14.42-15.35,20.01-1.26,1.09-1.71,2.17-1.65,3.79.17,4.33.11,8.66.27,12.99.1,2.97-1.01,5.09-3.65,6.51-2.69,1.44-5.28,3.05-7.95,4.52-2.54,1.4-3.67.78-3.74-2.1-.1-3.94-.06-7.88-.08-11.81,0-1.08,0-2.16,0-3.26-1.17-.41-1.99.28-2.86.57-4.52,1.5-9.12,2.4-13.92,2.12-1.29-.08-2.54-.26-3.78-.62-2.37-.69-3-1.4-2.47-3.85,1.1-5.19,2.32-10.36,3.71-15.48.78-2.88,2.56-3.6,5.68-2.92,13.99,3.03,32.2-7.64,33.39-24.35.12-1.69,0-3.36-.32-5-.64-3.21-2.49-5.52-5.52-6.81-2.01-.86-4.13-1.23-6.3-1.41-4.41-.36-8.85-.16-13.24-.95-10.36-1.87-16.04-8.11-16.86-18.64-1.04-13.33,2.91-25.25,10.26-36.18,2.87-4.27,6.26-8.11,10.21-11.41,1.34-1.12,1.85-2.31,1.78-4.05-.16-4.03-.04-8.08-.2-12.11-.14-3.48.98-6.07,4.23-7.73,2.45-1.25,4.7-2.86,7.08-4.26,2.46-1.45,3.69-.83,3.77,2.05.12,4.43.07,8.86.09,13.29,0,.78,0,1.56,0,2.7Z"/>
      <path class="cls-3" d="m444.7,445.14c0,1.28-.13,2.58.03,3.84.38,2.99-1.06,4.7-3.54,6.13-5.29,3.03-10.45,6.28-15.66,9.43-9.75,5.91-19.51,11.82-29.26,17.73-.42.25-.81.57-1.25.77-1.29.59-2.03.18-2.26-1.27-.08-.48-.04-.98-.04-1.47,0-3.25.1-6.5-.04-9.74-.09-2.15.75-3.52,2.55-4.57,6.27-3.69,12.5-7.45,18.74-11.18,8.86-5.29,17.71-10.6,26.59-15.87,1.04-.62,2.12-1.9,3.41-1.18,1.33.74.63,2.33.72,3.55.09,1.27.02,2.56.02,3.84Z"/>
      <path class="cls-3" d="m514.08,177.07c.28.03.56.06.84.09.15.35.17.88-.17.88-.43,0-.56-.56-.67-.98Z"/>
    </g>
  </g>
</svg>