<?xml version="1.0" encoding="UTF-8"?>
<svg id="Layer_2" data-name="Layer 2" xmlns="http://www.w3.org/2000/svg" viewBox="0 0 590.81 267.14">
  <defs>
    <style>
      .cls-1 {
        fill: #f28020;
      }

      .cls-1, .cls-2 {
        stroke-width: 0px;
      }

      .cls-2 {
        fill: #f9ae40;
      }
    </style>
  </defs>
  <g id="cloudflare">
    <g>
      <path class="cls-2" d="m.45,244.74v11.57c-.15.02-.3.04-.45.06v-11.69c.15.02.3.04.45.06Z"/>
      <path class="cls-1" d="m454.62,113.98c-4.11,10.68-8.03,21.44-12.35,32.03-6.97,17.12-19.23,29.56-35.23,38.44-10.34,5.74-21.42,8.35-33.33,8.38-26.9.07-53.8.58-80.7.93-19.11.24-38.22.5-57.34.74-23.29.3-46.58.6-69.88.87-1.97.03-3.66.57-5.03,2.05-1.33,1.42-1.61,3.06-.98,4.81.63,1.74,2.07,2.53,3.88,2.58,2.09.06,4.19.03,6.28.06,27.11.34,54.23.67,81.35,1.02,18.46.23,36.92.49,55.38.73,23.01.3,46.01.48,69.02.94,10,.2,19.02,3.25,25.71,11.24,5.72,6.84,7.55,14.91,6.97,23.63-.48,7.19-2.97,13.92-4.85,20.78-.68,2.51-2.56,3.74-5.12,3.91-.65.05-1.3,0-1.95,0-129.69.01-259.37.01-389.06,0-5.11,0-6.19-1.01-6.56-6.08-.11-1.58-.25-3.16-.38-4.74v-11.57c.69-13.25,4.23-25.72,10.74-37.23,14.03-24.82,35.14-39.92,63.18-45.23,3.54-.67,7.12-1.14,10.73-1.14,1.44-.01,1.95-.18,1.61-1.93-4.59-24.1,1.81-44.78,20.15-61.18,13.01-11.63,28.56-16.67,46.06-15.34,11.79.89,22.45,4.85,32.08,11.67.23.17.49.28.84.48,1.72-4.21,3.21-8.46,5.15-12.51C211.64,39.14,245.18,11.4,292.28,2.73c52.71-9.7,97.5,6.6,133.06,46.88,15.01,17,24.54,36.99,29.63,59.09.43,1.85.32,3.54-.35,5.28Z"/>
      <path class="cls-2" d="m586.88,262.68c-.89,3.43-2.2,4.46-5.82,4.46h-159.45c-4.06,0-4.89-1.23-3.46-5.03,3.26-8.73,6.89-17.27,12.81-24.62,11.97-14.86,26.89-25.07,45.79-28.94,5.67-1.16,11.47-1.06,17.22-1.44,12.29-.8,24.59-1.48,36.89-2.18,1.78-.1,3.17-.84,4.31-2.15,1.22-1.39,1.41-2.97.8-4.64-.58-1.59-1.77-2.36-3.46-2.46-6.19-.39-12.37-.77-18.55-1.21-10.56-.74-21.18-.83-31.69-2.19-14.47-1.87-24.24-11.36-26.77-25.71-1.16-6.58-.16-13.06,1.67-19.42,2.59-9.06,5.19-18.12,7.8-27.18.85-2.96,1.72-3.68,4.94-3.78,21.65-.62,42.05,4.06,60.98,14.66,21.18,11.86,37.2,28.72,48.02,50.43,6.55,13.16,10.34,27.11,11.52,41.79,1.08,13.43-.15,26.61-3.55,39.61Z"/>
    </g>
  </g>
</svg>