<?xml version="1.0" encoding="UTF-8"?>
<svg id="Layer_2" data-name="Layer 2" xmlns="http://www.w3.org/2000/svg" viewBox="0 0 550.78 778.79">
  <defs>
    <style>
      .cls-1 {
        fill: #fefefe;
      }

      .cls-1, .cls-2, .cls-3, .cls-4, .cls-5, .cls-6, .cls-7 {
        stroke-width: 0px;
      }

      .cls-2 {
        fill: #2965f0;
      }

      .cls-3 {
        fill: #010101;
      }

      .cls-4 {
        fill: #e9eaea;
      }

      .cls-5 {
        fill: #264de3;
      }

      .cls-6 {
        fill: #e8e9ea;
      }

      .cls-7 {
        fill: #2a65f0;
      }
    </style>
  </defs>
  <g id="css3">
    <g>
      <path class="cls-5" d="m545.83,153.07c-180.35,0-360.7,0-541.05.02-5.13,0-5.1-1.21-4.51,5.06,1.97,21.06,3.76,42.13,5.63,63.19,2.17,24.34,4.38,48.68,6.54,73.02,1.89,21.19,3.74,42.38,5.63,63.57,2.17,24.34,4.37,48.67,6.54,73.01,1.88,21.07,3.73,42.13,5.61,63.19,2.19,24.47,4.4,48.93,6.58,73.4,1.87,20.93,3.7,41.87,5.56,62.81,2.2,24.59,4.41,49.18,6.61,73.77.26,2.9.78,5.81.71,8.7s1.36,3.76,3.82,4.44c52.01,14.38,103.99,28.84,155.98,43.28,20.33,5.64,40.68,11.24,61.01,16.92,1,.28,2.31.17,2.96,1.34h3.05c11.19-3.91,22.74-6.62,34.15-9.8,62.2-17.33,124.42-34.57,186.67-51.71,3.03-.83,3.9-2.2,4.16-5.14,2.63-30.65,5.43-61.29,8.15-91.93,2.13-24.09,4.2-48.18,6.35-72.27,2.41-26.99,4.9-53.97,7.31-80.96,2.15-24.08,4.22-48.18,6.37-72.26,2.15-24.09,4.36-48.17,6.52-72.26,1.88-21.06,3.71-42.12,5.59-63.18,2.17-24.34,4.51-48.66,6.51-73.02.9-11.08,2.66-22.11,2.49-33.27-1.65.02-3.29.08-4.94.08Zm-45.16,51.12c-1.11,8.11-1.64,16.27-2.28,24.42-.76,9.65-1.99,19.26-2.89,28.9-.65,7.02-1,14.07-1.64,21.09-.89,9.89-1.98,19.77-2.89,29.66-.63,6.89-1.05,13.81-1.66,20.71-.92,10.27-1.94,20.53-2.88,30.8-.6,6.51-1.08,13.04-1.67,19.56-.96,10.52-1.96,21.04-2.92,31.56-.57,6.27-1.17,12.53-1.62,18.81-.76,10.79-1.75,21.56-2.94,32.32-.73,6.63-1.05,13.3-1.65,19.94-.93,10.27-1.97,20.53-2.9,30.8-.61,6.65-1.06,13.31-1.66,19.95-.95,10.65-1.99,21.29-2.93,31.94-.6,6.9-1.01,13.81-1.64,20.71-.9,10.02-1.95,20.02-2.89,30.04-.6,6.39-1.08,12.79-1.66,19.18-.96,10.65-1.97,21.29-2.93,31.94-.33,3.64-.75,7.28-.79,10.92-.03,2.15-.65,3-2.79,3.59-20.66,5.64-41.29,11.42-61.93,17.16-23.8,6.62-47.6,13.25-71.4,19.86-14.57,4.04-29.17,7.99-43.71,12.14-2.63.75-2.7-.36-2.69-2.31.06-6.59.02-13.18.02-19.77.01-16.22.01-32.44.01-48.66-46.16-12.82-92.32-25.67-138.51-38.4-2.62-.72-3.54-1.72-3.78-4.51-2.56-29.77-5.31-59.53-7.99-89.29-.38-4.17-.59-8.34-1.05-12.5-.25-2.26.32-3.1,2.77-3.09,21.16.08,42.31.08,63.47,0,2.34,0,2.9.8,3.09,3.03,1.38,16.53,2.97,33.05,4.38,49.57.15,1.84.79,2.64,2.53,3.11,24.29,6.52,48.57,13.09,72.87,19.63.7.18,1.49.05,2.23.07.01-36.6.02-73.21.02-109.81-1.64-.08-3.28-.23-4.92-.23-47.75,0-95.51,0-143.26,0-6.41,0-6.46,0-7.05-6.44-1.79-19.67-3.43-39.36-5.39-59.01-.35-3.48.92-3.65,3.64-3.64,50.67.05,101.34.04,152.01.03,1.64,0,3.28-.15,4.91-.24.03-23.36.06-46.72.09-70.07-1.59-.66-3.25-.39-4.89-.39-52.66-.01-105.31-.04-157.97.06-3.36.01-4.37-.81-4.66-4.3-1.69-20.55-3.65-41.08-5.7-61.6-.32-3.19,1.16-3.14,3.43-3.14,25.31.05,50.63.03,75.95.03,29.62,0,59.24,0,88.86-.01,1.64,0,3.28-.12,4.93-.19-.01-21.54.06-43.08-.09-64.62-.03-3.38.91-4.24,4.25-4.23,72.2.09,144.39.07,216.59.07,4.28,0,4.75.59,4.17,4.86Z"/>
      <path class="cls-7" d="m275.74,268.11c0-21.54.07-43.09-.09-64.63-.02-3.37.91-4.24,4.25-4.23,72.2.1,144.39.07,216.59.07,4.28,0,4.75.59,4.17,4.86-1.11,8.11-1.64,16.27-2.28,24.42-.76,9.65-1.99,19.26-2.89,28.9-.65,7.02-1,14.07-1.64,21.09-.9,9.89-1.99,19.77-2.89,29.66-.63,6.9-1.04,13.81-1.66,20.71-.91,10.27-1.94,20.53-2.88,30.8-.6,6.52-1.08,13.05-1.67,19.57-.95,10.52-1.96,21.04-2.92,31.56-.57,6.27-1.17,12.53-1.62,18.81-.76,10.79-1.75,21.56-2.94,32.32-.73,6.63-1.05,13.3-1.65,19.95-.93,10.27-1.97,20.53-2.9,30.8-.6,6.64-1.06,13.3-1.66,19.95-.95,10.65-2,21.29-2.93,31.94-.61,6.9-1.01,13.81-1.64,20.71-.91,10.02-1.96,20.02-2.89,30.04-.6,6.39-1.08,12.79-1.65,19.19-.96,10.65-1.97,21.29-2.94,31.94-.33,3.64-.75,7.28-.79,10.92-.02,2.14-.65,3-2.78,3.58-20.67,5.64-41.3,11.42-61.94,17.17-23.8,6.62-47.59,13.25-71.4,19.86-14.57,4.04-29.17,7.99-43.71,12.14-2.63.75-2.7-.35-2.69-2.31.05-6.59.02-13.18.02-19.77,0-16.22,0-32.44,0-48.66.03-.14.06-.28.07-.42.99-.21,1.99-.37,2.97-.64,43.97-12.19,87.94-24.39,131.91-36.6,6-1.67,6-1.69,6.59-7.76.2-2.02.42-4.03.6-6.05,1.87-21.07,3.71-42.13,5.6-63.2,2.16-24.09,4.37-48.18,6.52-72.27,1.88-21.06,3.7-42.13,5.59-63.2,2.17-24.22,4.4-48.43,6.56-72.64,1.9-21.32,3.59-42.65,5.74-63.94.41-4.02-.62-4.51-4.18-4.5-54.72.1-109.45.07-164.17.08-1.26,0-2.52.11-3.78.17.09-.12.09-.25,0-.37Z"/>
      <path class="cls-4" d="m275.8,659.03c0,.14-.03.28-.07.42-46.16-12.82-92.32-25.67-138.5-38.4-2.63-.72-3.54-1.72-3.78-4.51-2.56-29.77-5.31-59.53-7.99-89.29-.38-4.16-.59-8.34-1.05-12.49-.25-2.26.32-3.1,2.77-3.09,21.15.09,42.31.08,63.47,0,2.35,0,2.9.8,3.09,3.03,1.39,16.53,2.97,33.04,4.38,49.57.16,1.84.79,2.64,2.53,3.1,24.3,6.52,48.58,13.09,72.87,19.63.7.19,1.49.06,2.24.07,0,0-.07.35-.07.35.04,23.87.08,47.74.12,71.61Z"/>
      <path class="cls-4" d="m275.79,337.65c-1.59-.65-3.25-.38-4.88-.38-52.66-.01-105.32-.04-157.98.06-3.35,0-4.37-.81-4.65-4.3-1.69-20.55-3.65-41.09-5.7-61.61-.32-3.18,1.15-3.14,3.43-3.13,25.32.04,50.63.03,75.95.03,29.62,0,59.24,0,88.86,0,1.64,0,3.28-.12,4.92-.19.1.12.1.24,0,.37,0,22.86.01,45.72.02,68.58.04.19.04.39.02.58Z"/>
      <path class="cls-6" d="m275.77,477.26c-1.64-.08-3.28-.23-4.92-.23-47.76-.01-95.51-.01-143.27-.01-6.41,0-6.46,0-7.05-6.44-1.79-19.67-3.43-39.36-5.4-59.01-.35-3.47.93-3.65,3.64-3.64,50.67.06,101.34.04,152.01.03,1.64,0,3.28-.15,4.92-.23.03.18.01.36-.05.54.02,22.86.04,45.73.06,68.59.06.13.08.27.05.41Z"/>
      <path class="cls-7" d="m275.75,587.07c0-36.6.01-73.2.02-109.8.02-.14,0-.28-.05-.41,1.39.06,2.77.16,4.16.16,25.05,0,50.11,0,75.16,0,5.45,0,5.37,0,4.88,5.3-2.47,26.83-4.98,53.65-7.23,80.5-.27,3.18-1.41,4.2-4.24,4.95-24.28,6.47-48.52,13.08-72.77,19.65l.07-.35Z"/>
      <path class="cls-2" d="m275.71,407.72c.03-23.36.06-46.72.08-70.08.02-.19.01-.39-.02-.58,18.47.06,36.94.13,55.41.19,12.65.04,25.31.16,37.96.05,2.8-.02,3.51.92,3.14,3.5-.4,2.75-.53,5.54-.77,8.31-1.6,18.27-3.26,36.55-4.76,54.83-.26,3.12-1.23,4.14-4.56,4.12-27.34-.17-54.67-.1-82.01-.08-1.51,0-3.01.18-4.52.27.07-.17.08-.35.05-.54Z"/>
      <path class="cls-3" d="m313.69,3.46c-.25,7.97-.18,15.96-.03,23.94.05,2.45-.58,3.19-3.11,3.17-14.06-.13-28.11-.02-42.17-.11-2.35-.01-3.55.12-3.56,3.1,0,3.03,1.29,3.08,3.59,3.07,13.93-.08,27.86.06,41.79-.12,2.94-.04,3.49.84,3.47,3.6-.12,21.03-.11,42.06-.01,63.09.02,2.55-.45,3.43-3.24,3.42-25.84-.11-51.67-.09-77.5-.02-2.23.01-3.05-.37-3-2.85.18-8.61.18-17.23.01-25.84-.06-2.59.52-3.4,3.25-3.37,14.06.15,28.11.05,42.17.1,2.12.01,3.46.01,3.41-2.89-.05-2.74-.86-3.3-3.44-3.28-13.93.13-27.86,0-41.79.12-2.61.02-3.65-.32-3.63-3.38.17-20.65.15-41.31.02-61.96-.02-2.79.85-3.25,3.39-3.22,12.92.13,25.83.06,38.75.06s25.33.07,37.99-.06c2.68-.03,3.74.38,3.64,3.43Z"/>
      <path class="cls-3" d="m414,39.83c-.11,21.16-.11,42.32,0,63.48.02,2.7-.74,3.33-3.36,3.31-12.91-.14-25.83-.07-38.75-.07s-25.58-.08-38.37.07c-2.72.04-3.31-.75-3.26-3.36.17-8.48.19-16.97-.01-25.46-.07-2.76.79-3.27,3.37-3.25,13.93.13,27.86.04,41.79.09,2.19.01,3.74.17,3.69-3-.05-2.9-1.14-3.18-3.55-3.16-13.93.1-27.86-.04-41.79.13-2.84.03-3.53-.66-3.51-3.51.14-20.52.14-41.05,0-61.57-.02-2.84.65-3.53,3.5-3.51,25.58.12,51.16.12,76.74,0,2.87-.02,3.6.71,3.52,3.55-.21,7.85-.24,15.71.01,23.56.1,3.02-.93,3.47-3.62,3.44-13.93-.13-27.86,0-41.79-.12-2.55-.03-3.44.43-3.44,3.22.01,2.73,1.07,2.97,3.3,2.96,14.06-.08,28.12.03,42.17-.1,2.62-.03,3.38.6,3.36,3.3Z"/>
      <path class="cls-3" d="m213.36,3.68c-.24,9.5-.17,19.01-.03,28.51.04,2.39-.66,2.95-2.96,2.93-14.06-.1-28.13.06-42.18-.13-3.11-.05-3.68.93-3.63,3.77.17,9.25.23,18.51-.02,27.75-.09,3.17,1.01,3.63,3.8,3.6,13.93-.13,27.86,0,41.8-.11,2.4-.02,3.24.49,3.2,3.08-.17,9.63-.16,19.26,0,28.89.05,2.54-.71,3.13-3.16,3.12-25.84-.09-51.69-.1-77.53.01-2.61.01-3.05-.83-3.03-3.19.09-16.47.05-32.95.05-49.43s.05-32.44-.06-48.66c-.02-2.75.38-3.84,3.57-3.82,25.46.16,50.93.13,76.39.03,2.85-.02,3.87.53,3.8,3.65Z"/>
      <path class="cls-1" d="m275.66,408.26c1.51-.09,3.01-.27,4.52-.27,27.34-.02,54.67-.08,82.01.08,3.34.02,4.31-1,4.56-4.12,1.5-18.28,3.15-36.55,4.76-54.83.24-2.77.38-5.56.77-8.31.37-2.58-.34-3.52-3.14-3.5-12.65.1-25.31,0-37.96-.05-18.47-.06-36.94-.13-55.41-.19,0-22.86-.01-45.72-.02-68.58,1.26-.06,2.52-.17,3.78-.17,54.72,0,109.45.02,164.17-.08,3.56,0,4.59.48,4.18,4.5-2.15,21.29-3.84,42.63-5.74,63.94-2.16,24.22-4.39,48.43-6.56,72.64-1.89,21.06-3.7,42.13-5.59,63.2-2.15,24.09-4.36,48.18-6.52,72.27-1.89,21.06-3.73,42.13-5.6,63.2-.18,2.02-.4,4.03-.6,6.05-.6,6.07-.59,6.09-6.59,7.76-43.97,12.21-87.94,24.41-131.91,36.6-.97.27-1.98.43-2.97.64-.04-23.87-.08-47.74-.12-71.61,24.25-6.57,48.49-13.18,72.77-19.65,2.83-.75,3.97-1.77,4.24-4.95,2.25-26.85,4.76-53.67,7.23-80.5.49-5.31.57-5.3-4.88-5.3-25.05,0-50.11,0-75.16,0-1.39,0-2.77-.11-4.16-.16-.02-22.86-.04-45.73-.06-68.59Z"/>
    </g>
  </g>
</svg>