<?xml version="1.0" encoding="UTF-8"?>
<svg id="Layer_2" data-name="Layer 2" xmlns="http://www.w3.org/2000/svg" viewBox="0 0 736.91 556.74">
  <defs>
    <style>
      .cls-1 {
        fill: #5865f1;
        stroke-width: 0px;
      }
    </style>
  </defs>
  <g id="discord">
    <path class="cls-1" d="m734.95,352.92c-8.21-110.66-46.28-210.64-107.8-302.3-1.95-2.91-4.24-5.02-7.47-6.45C573.8,23.78,526.13,9.24,476.76.2c-3.81-.69-5.84.34-7.45,3.75-4.92,10.38-10.19,20.61-15.05,31.02-1.39,2.98-2.71,3.92-6.23,3.44-52.78-7.28-105.61-7.53-158.39-.08-4.71.66-6.1-1.02-7.81-4.65-4.81-10.22-10.12-20.19-15.03-30.36-1.5-3.09-3.4-3.69-6.63-3.1-49.8,8.98-97.83,23.67-144.01,44.38-2.88,1.28-4.85,3.16-6.55,5.72C60.43,124.08,25.38,203.71,9.53,291.29.55,340.9-1.89,390.88,1.39,441.17c.39,5.93,1.15,11.85,1.28,17.79.08,3.76,1.5,6.03,4.55,8.23,54.03,38.91,112.73,68.49,176.2,88.66,4.82,1.53,7.35.66,10.23-3.43,12.21-17.39,23.43-35.36,33.46-54.1,2.12-3.96,2.11-5.74-2.63-7.49-18.27-6.72-35.66-15.36-52.67-24.83-4.25-2.37-3.44-3.23-.44-6.32,7.1-7.28,13.58-7.16,22.9-3.13,61.93,26.82,126.79,39.05,194.29,36.03,55.3-2.48,108.26-15.3,158.72-38,5.62-2.52,9.17-1.99,13.65,1.83,8.46,7.23,8.69,7.02-1.07,12.37-15.67,8.59-31.81,16.19-48.53,22.5-3.55,1.35-4.38,2.39-2.41,6.1,10.34,19.48,21.95,38.14,34.73,56.1,2.37,3.32,4.46,3.89,8.38,2.67,64.19-20.04,123.35-50,177.86-89.28,2.69-1.93,3.97-4.12,4.16-7.33.46-7.72,1.07-15.43,1.68-23.14.11-1.48-.62-3.24,1.18-4.28v-63.1c-2.63-5.11-1.56-10.76-1.96-16.1Zm-447.12,10.16c-25.31,23.11-61.6,22.07-85.84-2.18-27.65-27.69-29.43-75.67-3.9-105.37,31.73-36.89,87.52-27.67,107.35,17.73,4.6,10.51,6.72,21.52,6.71,34.57-.55,20.57-7.68,40.05-24.32,55.25Zm251.43-7.08c-25.91,31.45-69.41,31.7-96.44.69-24.56-28.18-24.17-74.48.87-102.28,29.95-33.26,80.03-27.53,102.64,11.71,7.11,12.33,10.35,25.63,10.51,39.21-.35,19.21-5.63,36.16-17.58,50.67Z"/>
  </g>
</svg>