<?xml version="1.0" encoding="UTF-8"?>
<svg id="Layer_2" data-name="Layer 2" xmlns="http://www.w3.org/2000/svg" viewBox="0 0 667.88 468.33">
  <defs>
    <style>
      .cls-1 {
        fill: #0d9deb;
      }

      .cls-1, .cls-2 {
        stroke-width: 0px;
      }

      .cls-2 {
        fill: #099ceb;
      }
    </style>
  </defs>
  <g id="docker">
    <g>
      <path class="cls-2" d="m666.94,193.84c-16.6,40.21-46.73,60.34-90.09,60.95-1.21.01-2.46.24-3.63.02-6.53-1.19-9.59,1.66-12.24,7.76-24.97,57.45-62.04,105.34-113.67,141.38-45.29,31.62-95.84,50.04-150.13,58.55-39.65,6.21-79.41,7.79-119.45,3.11C83.9,454.65,15.98,388.56,2.58,294.74c-2.75-19.3-3.48-38.53-1.31-57.94.61-5.46,2.43-7.12,8.03-7.1,76.09.19,152.18.13,228.27.13s145.87-.03,218.81.02c15.93.01,31.29-2.55,46.02-8.81,3.72-1.58,4.27-3.07,2.38-6.96-17.23-35.48-13.33-70,6.09-103.24,10-17.11,10.51-16.85,26.22-4.37,20.04,15.93,35.67,34.83,40.48,60.87.69,3.73,2.27,4.22,5.95,3.74,16.18-2.15,32.36-1.72,48.48,1.02,12.75,2.16,23.56,8.39,33.94,15.72,2.85,2.01,1.98,3.67,1,6.02Z"/>
      <path class="cls-1" d="m365.79,58.38c.04,4.13-1.42,5.47-5.5,5.38-9.91-.22-19.82-.07-29.74-.07s-18.87-.19-28.29.08c-4.29.13-5.93-.94-5.86-5.58.26-17.65.23-35.31.01-52.97-.05-4.21,1.32-5.25,5.35-5.21,19.59.18,39.18.2,58.77-.01,4.22-.04,5.31,1.41,5.27,5.41-.17,17.66-.16,35.31,0,52.97Z"/>
      <path class="cls-1" d="m365.81,133.94c.06,4.53-2.06,5.12-5.77,5.06-9.68-.15-19.36-.05-29.05-.05s-19.37-.13-29.05.06c-3.81.08-5.6-.67-5.54-5.11.25-17.67.19-35.35.04-53.02-.03-3.68.94-5.08,4.86-5.05,19.85.18,39.7.17,59.55,0,3.91-.03,4.96,1.41,4.94,5.08-.13,17.67-.18,35.35.02,53.02Z"/>
      <path class="cls-1" d="m365.8,208.38c.04,4.02-1.08,5.57-5.33,5.44-9.68-.28-19.38-.08-29.07-.08s-19.38-.17-29.07.07c-4.15.11-6.02-.64-5.94-5.46.3-17.2.22-34.41.03-51.61-.04-3.99.94-5.46,5.21-5.41,19.63.21,39.25.21,58.87,0,4.26-.04,5.34,1.46,5.3,5.45-.16,17.2-.17,34.4,0,51.6Z"/>
      <path class="cls-1" d="m447.55,208.76c.04,3.86-1.34,4.98-5.06,4.95-19.82-.13-39.64-.14-59.46,0-3.77.03-5.03-1.18-5-4.98.16-17.65.15-35.29.01-52.94-.03-3.56,1.3-4.54,4.66-4.49,10.15.16,20.3.06,30.46.06s19.82.1,29.73-.06c3.39-.06,4.68.98,4.65,4.52-.13,17.64-.15,35.29,0,52.93Z"/>
      <path class="cls-2" d="m202.29,133.89c.03,3.89-1.4,4.92-5.07,4.89-19.63-.13-39.25-.14-58.87.01-3.76.03-5.04-1.16-5.01-4.97.16-17.69.16-35.37,0-53.06-.03-3.87,1.36-4.98,5.08-4.9,9.69.2,19.38.07,29.07.07s19.87.14,29.79-.08c3.81-.08,5.03,1.2,5,4.98-.15,17.69-.16,35.37.01,53.06Z"/>
      <path class="cls-2" d="m283.92,133.08c.06,4.49-1.38,5.86-5.8,5.73-9.68-.28-19.38-.09-29.07-.09s-19.39-.12-29.08.07c-3.67.07-5.1-.97-5.07-4.88.18-17.69.16-35.38.01-53.07-.03-3.76,1.11-5.02,4.95-4.99,19.63.16,39.26.2,58.88-.01,4.44-.05,5.17,1.82,5.14,5.63-.13,17.2-.19,34.41.04,51.61Z"/>
      <path class="cls-2" d="m120.79,208.77c.04,3.82-1.25,4.97-5.02,4.94-19.61-.15-39.22-.15-58.83-.01-3.69.03-5.13-1.03-5.1-4.9.16-17.68.15-35.35.01-53.03-.03-3.58,1.36-4.5,4.69-4.45,9.93.16,19.85.06,29.78.06s19.37.16,29.05-.08c3.96-.1,5.5.87,5.45,5.17-.23,17.43-.18,34.86-.03,52.3Z"/>
      <path class="cls-2" d="m202.28,208.79c.04,3.86-1.35,4.94-5.06,4.91-19.61-.14-39.22-.14-58.83,0-3.74.03-5.08-1.11-5.04-4.94.15-17.67.14-35.34,0-53.01-.03-3.62,1.4-4.48,4.71-4.43,10.16.16,20.33.06,30.5.06s19.37.11,29.05-.06c3.34-.06,4.7.87,4.67,4.45-.15,17.68-.15,35.35,0,53.02Z"/>
      <path class="cls-2" d="m283.88,208.67c.03,3.74-1.18,5.06-4.99,5.03-19.62-.14-39.23-.13-58.84,0-3.61.03-5.19-.8-5.15-4.8.18-17.68.15-35.36.02-53.03-.03-3.47,1.07-4.62,4.55-4.56,9.92.19,19.85.07,29.78.07s19.38.13,29.06-.07c3.79-.08,5.66.6,5.6,5.06-.22,17.43-.16,34.87-.03,52.3Z"/>
    </g>
  </g>
</svg>