<?xml version="1.0" encoding="UTF-8"?>
<svg id="Layer_2" data-name="Layer 2" xmlns="http://www.w3.org/2000/svg" viewBox="0 0 765.31 765.79">
  <defs>
    <style>
      .cls-1 {
        fill: #fefefe;
      }

      .cls-1, .cls-2, .cls-3 {
        stroke-width: 0px;
      }

      .cls-2 {
        fill: #fdfcfd;
      }

      .cls-3 {
        fill: #92003b;
      }
    </style>
  </defs>
  <g id="elementor">
    <g>
      <path class="cls-3" d="m762.64,337.4c-6.7-55.85-24.41-107.94-54.38-155.51-56.3-89.31-135.96-146.65-238.52-171.91-19.51-4.81-39.39-7.57-59.44-9.03-1-.07-2.31.53-2.87-.95h-46.89c-7.7,1.93-15.65,1.73-23.47,2.66-58.01,6.96-111.67,26.1-160.78,57.66-59.53,38.26-105.17,89.18-136.79,152.48C18.45,254.95,5.58,299.57,1.6,346.56c-9.16,108.05,20.92,203.96,91.48,286.28,56.59,66.02,128.21,107.76,213.56,124.99,79.65,16.08,157.05,7.85,231.24-25.27,80.08-35.75,140.88-92.79,182.58-170.01,23.35-43.24,37.12-89.48,42.71-138.23.6-5.25.2-10.65,2.14-15.72v-50.72c-2.16-6.66-1.86-13.65-2.67-20.48Zm-475.69,200.5c0,3.65-.98,4.5-4.51,4.46-18.17-.18-36.35-.21-54.52,0-4.07.05-4.98-1.19-4.98-5.09.13-51.49.09-102.98.09-154.47s.07-102.67-.12-154c0-4.75,1.38-5.74,5.87-5.68,17.85.27,35.71.2,53.56.04,3.37-.03,4.62.56,4.61,4.35-.11,103.46-.11,206.92,0,310.38Zm63.65-182.9c-.03-3.42,1-4.18,4.28-4.18,60.87.1,121.74.1,182.61.01,3.38-.01,4.7.59,4.66,4.38-.21,18.32-.21,36.65,0,54.97.04,3.77-1.22,4.41-4.63,4.39-30.43-.12-60.86-.07-91.3-.07s-60.55-.06-90.82.07c-3.57.02-4.87-.65-4.82-4.6.23-18.32.19-36.64.02-54.97Zm191.54,182.78c.03,3.54-.87,4.58-4.51,4.58-60.92-.11-121.84-.11-182.76-.01-3.36,0-4.29-.96-4.27-4.29.15-18.5.16-37-.01-55.5-.03-3.36.9-4.2,4.22-4.19,30.46.13,60.92.08,91.38.08s60.92.05,91.38-.08c3.45-.02,4.63.65,4.59,4.39-.22,18.34-.19,36.68-.02,55.02Zm-4.58-250.63c-30.46-.13-60.92-.08-91.38-.08s-60.6-.07-90.9.09c-3.75.02-4.74-.95-4.7-4.69.2-18.34.17-36.68.02-55.02-.02-3.34.94-4.28,4.28-4.28,60.92.1,121.84.11,182.76-.01,3.65,0,4.53,1.07,4.5,4.6-.17,18.33-.2,36.68.02,55.01.04,3.76-1.17,4.4-4.6,4.38Z"/>
      <path class="cls-2" d="m223.03,382.81c0-51.33.07-102.66-.12-154-.02-4.76,1.37-5.74,5.87-5.68,17.85.26,35.71.19,53.56.04,3.37-.03,4.61.56,4.61,4.35-.12,103.46-.11,206.92,0,310.38,0,3.64-.97,4.49-4.51,4.46-18.17-.18-36.35-.21-54.52.01-4.07.05-4.98-1.19-4.97-5.09.13-51.49.08-102.98.08-154.47Z"/>
      <path class="cls-2" d="m446.18,287.07c-30.3,0-60.6-.07-90.9.09-3.75.02-4.74-.95-4.7-4.7.2-18.34.17-36.68.02-55.02-.03-3.34.94-4.28,4.28-4.27,60.92.09,121.84.1,182.76-.01,3.65,0,4.53,1.07,4.5,4.59-.17,18.34-.2,36.68.02,55.02.04,3.76-1.17,4.39-4.6,4.38-30.46-.13-60.92-.08-91.38-.08Z"/>
      <path class="cls-2" d="m446.2,478.45c30.46,0,60.92.06,91.38-.08,3.45-.02,4.63.65,4.58,4.39-.21,18.34-.19,36.68-.02,55.02.03,3.54-.87,4.59-4.51,4.58-60.92-.11-121.84-.11-182.76-.01-3.36,0-4.29-.96-4.27-4.29.15-18.5.16-37-.01-55.5-.03-3.37.89-4.21,4.22-4.19,30.46.13,60.92.08,91.38.08Z"/>
      <path class="cls-1" d="m446.22,414.5c-30.27,0-60.55-.06-90.82.08-3.57.02-4.87-.65-4.82-4.6.23-18.32.19-36.65.02-54.97-.03-3.42,1.01-4.18,4.29-4.18,60.87.1,121.74.1,182.6,0,3.38,0,4.7.59,4.66,4.38-.21,18.32-.21,36.65,0,54.97.04,3.77-1.22,4.41-4.63,4.39-30.43-.12-60.87-.07-91.3-.07Z"/>
    </g>
  </g>
</svg>