<?xml version="1.0" encoding="UTF-8"?>
<svg id="Layer_2" data-name="Layer 2" xmlns="http://www.w3.org/2000/svg" viewBox="0 0 511.46 704.38">
  <defs>
    <style>
      .cls-1 {
        fill: #feca2e;
      }

      .cls-1, .cls-2, .cls-3, .cls-4, .cls-5, .cls-6 {
        stroke-width: 0px;
      }

      .cls-2 {
        fill: #f79c12;
      }

      .cls-3 {
        fill: #fea614;
      }

      .cls-4 {
        fill: #f48310;
      }

      .cls-5 {
        fill: #fecb32;
      }

      .cls-6 {
        fill: #fefefd;
      }
    </style>
  </defs>
  <g id="firebase">
    <g>
      <path class="cls-6" d="m201.7,680.76h.04s-.01,0-.01,0h-.03Zm-23.87-13.61h0s-.01,0-.01,0h.01Z"/>
      <path class="cls-1" d="m201.7,680.76h.03s.01,0,.01,0h-.04Z"/>
      <path class="cls-1" d="m504.26,572.99c-18.75,9.56-37.08,19.95-55.57,30.01-2.58.13-5.76-1.03-6.55,3.02l-.07-.08c-.9.65-1.78,1.29-2.68,1.92-6.06-.25-11.48.69-13.74,7.45,0,0-.16.02-.17.01-2.24-.55-4.16-.51-4.4,2.49,0,0-.11-.1-.15-.13h0c-.9.64-1.79,1.28-2.69,1.92-6.5-.06-12.37.92-14.31,8.52-10.45,6.29-20.79,12.78-32.14,17.4-4.28-.38-8.56-.76-9.61,5.04,0,0-.11,0-.11-.01-2.24-.52-4.16-.45-4.47,2.49,0,0-.04,0-.08.01-.06.01-.13.02-.13.01-2.27-.64-4.2-.7-4.27,2.46,0,0-.23.16-.28.19,0,.01-.02.01-.02.01-7.52.28-14.3,1.8-17,10.16-19.26,10.84-38.36,21.97-57.81,32.44-22.67,12.22-42.8,4.32-61.97-8.98-1.89-7.68-7.77-8.68-14.31-8.58-.9-.63-1.8-1.27-2.7-1.91l-.12.09c-.27-3.01-2.18-3.04-4.43-2.46l-.15-.03c-2.26-6.75-7.68-7.69-13.71-7.48-.9-.64-1.81-1.28-2.71-1.93,0,0-.07.08-.08.1-.33-2.94-2.25-3-4.49-2.48,0,0-.09,0-.09-.01-1.96-5.73-6.05-7.62-11.79-6.58,0,0-.18-.17-.21-.21-.01-.01-.01-.02-.01-.02-.16-3.11-2.09-3.09-4.35-2.46l-.13-.03c-.4-2.88-2.31-2.98-4.54-2.5h-.05c-1.04-5.37-4.94-5.48-9.16-4.99-.4-1.35-1.22-2.1-2.7-1.91l-.14.1c-.23-3.05-2.16-3.07-4.42-2.48l-.14-.03c-2.25-6.78-7.68-7.71-13.74-7.48h-.09c.48-2.61-.04-5.61,2.91-7.25,20.51-11.44,32.28-32.22,49.88-46.79,5.08-4.21,11.11-7.91,14.66-13.22,13.54-20.29,33.31-34.71,50.1-51.58,19.85-19.93,40.04-39.98,60.36-59.57,22.17-21.39,43.74-43.75,65.26-65.99,25.63-26.5,51.63-52.68,78.32-78.1,7.22-6.88,11.73-18.14,24.05-18.73,4.72,27.28,9.63,54.53,14.11,81.86,9.91,60.51,19.44,121.08,29.59,181.54,1.24,7.38.13,11.24-6.76,14.76Z"/>
      <path class="cls-5" d="m467.32,294.83c-12.32.59-16.83,11.85-24.05,18.73-26.69,25.42-52.69,51.6-78.32,78.1-21.52,22.24-43.09,44.6-65.26,65.99-20.32,19.59-40.51,39.64-60.36,59.57-16.79,16.87-36.56,31.29-50.1,51.58-3.55,5.31-9.58,9.01-14.66,13.22-17.6,14.57-29.37,35.35-49.88,46.79-2.95,1.64-2.43,4.64-2.91,7.25-40.23-20.32-78.87-43.54-118.26-65.39-.8-.44-1.57-.89-2.19-1.43-.09-.07-.17-.15-.26-.24-.87-.86-1.33-1.98-.92-3.66,4.01-1.86,4.82-6.08,6.88-9.37,5.53-2.32,9.75-6.31,13.93-10.49,80.48-80.64,161.02-161.23,241.52-241.85,2.75-2.76,5.18-5.82,7.76-8.74,20.1-19.82,40.23-39.61,60.22-59.54,1.51-1.5,2.02-4,2.99-6.04.47.16.92.27,1.35.35.74.13,1.42.14,2.04.05.21-.02.4-.06.59-.1.96-.24,1.79-.7,2.55-1.29.14-.11.28-.23.42-.35.31-.27.61-.56.89-.86.09-.09.17-.18.25-.27,1.15-1.25,2.18-2.68,3.31-3.8,23.04-22.88,45.96-45.87,68.76-68.98,5.93-6.02,11.71-12.07,21.15-9.27,9.57,2.84,10.71,11.06,12.06,19.46,6.64,41.21,13.6,82.37,20.37,123.56.38,2.28.11,4.67.13,7.02Z"/>
      <path class="cls-3" d="m199.95,170.06c-7.73,1.46-11.18,7.64-15.26,13.4-6.17,8.69-8.7,19.17-14.16,28.13-24.58,40.32-44.94,82.95-68.34,123.94-25.14,44.04-47.22,89.83-71.48,134.39-4.91,9-7.6,20.75-19.39,24.76,5.12-34.73,10.02-69.5,15.41-104.2,9.65-62.08,19.69-124.11,29.4-186.18,9.7-62.1,19.15-124.24,28.86-186.33,1.31-8.41,4.16-16.28,14.22-17.76,9.95-1.46,14.65,5.05,18.75,12.72,16.8,31.36,35.01,62.04,50.2,94.16,10.08,21.3,22.74,41.21,31.79,62.97Z"/>
      <path class="cls-3" d="m328.63,221.95c-4-.06-6.22,2.84-8.67,5.3-11.58,11.56-22.98,23.31-34.75,34.68-12.47,12.06-14.58,12.09-23.41-2.36-13.57-22.19-26.24-44.93-39.51-67.3-3.17-5.35-4.57-13.01-13.31-12.65-1.55-.77-3.1-1.53-4.65-2.29.03-.9.06-1.8.09-2.7,8.08-5.8,9.86-15.54,14.39-23.5,7.93-13.91,14.76-28.45,22.71-42.35,7.55-13.22,21.27-13.39,28.5-.04,19.74,36.41,38.88,73.15,58.2,109.79.5.95.29,2.27.41,3.42Z"/>
      <path class="cls-2" d="m204.42,174.63c-.03.9-.06,1.8-.09,2.7-3.28,5.76-6.72,11.44-9.79,17.3-42.11,80.23-84.17,160.48-126.22,240.73-17.92,34.21-35.79,68.45-53.64,102.69-3.01,5.77-8.56,10.47-7.65,17.92-2.06,3.29-2.87,7.51-6.88,9.37,2.53-23.74,6.1-47.31,11.17-70.66,11.79-4.01,14.48-15.76,19.39-24.76,24.26-44.56,46.34-90.35,71.48-134.39,23.4-40.99,43.76-83.62,68.34-123.94,5.46-8.96,7.99-19.44,14.16-28.13,4.08-5.76,7.53-11.94,15.26-13.4,2.77.26,4.18,1.87,4.47,4.57Z"/>
      <path class="cls-2" d="m333.45,229.3h0c-.97,2.05-1.48,4.55-2.99,6.05-19.99,19.93-40.12,39.72-60.22,59.54-16.06-24.9-28.33-51.87-42.24-77.93-6.57-12.28-15.21-23.62-19.02-37.34,8.74-.36,10.14,7.3,13.31,12.65,13.27,22.37,25.94,45.11,39.51,67.3,8.83,14.45,10.94,14.42,23.41,2.36,11.77-11.37,23.17-23.12,34.75-34.68,2.45-2.46,4.67-5.36,8.67-5.3-.12,2.08,1.31,3.15,2.64,4.28.15.13.29.25.43.37.14.12.27.25.4.38.66.64,1.19,1.36,1.35,2.32Z"/>
      <path class="cls-5" d="m352.82,655.72h0c-.3.32-.59.63-.89.92-.31.3-.62.58-.93.86-.32.27-.64.54-.97.8-.65.51-1.33.99-2.02,1.45-3.8,2.49-8.09,4.14-12.19,6.13,2.7-8.36,9.48-9.88,17-10.16Z"/>
      <path class="cls-5" d="m418.24,619.6h0s-.01.01-.01.01c-.24.26-.49.52-.74.76-1.28,1.24-2.69,2.27-4.17,3.18-2.96,1.8-6.23,3.1-9.39,4.57,1.94-7.6,7.81-8.58,14.31-8.52Z"/>
      <path class="cls-5" d="m216.04,689.34c-5.09-2.35-10.41-4.3-14.34-8.58h.03c6.54-.1,12.42.9,14.31,8.58Z"/>
      <path class="cls-5" d="m439.39,607.86s-.01.01-.01.01c-3.81,3.9-8.41,6.32-13.73,7.44,2.26-6.76,7.68-7.7,13.74-7.45Z"/>
      <path class="cls-5" d="m135.61,643.54c-5.34-1.1-9.95-3.53-13.74-7.48,6.06-.23,11.49.7,13.74,7.48Z"/>
      <path class="cls-5" d="m194.33,676.45c-5.33-1.11-9.93-3.56-13.73-7.48h.02c6.03-.21,11.45.73,13.71,7.48Z"/>
      <path class="cls-5" d="m173.25,664.65c-1.17-.21-2.3-.49-3.39-.85-.54-.18-1.07-.38-1.6-.6-2.6-1.11-4.91-2.75-6.8-5.13,5.74-1.04,9.83.85,11.79,6.58Z"/>
      <path class="cls-5" d="m371.79,645.52c-2.62,2.79-5.74,4.65-9.61,5.04,1.05-5.8,5.33-5.42,9.61-5.04Z"/>
      <path class="cls-5" d="m152.17,652.86c-3.72-.46-6.91-1.89-9.19-5h.03c4.22-.49,8.12-.38,9.16,5Z"/>
      <path class="cls-5" d="m448.69,603c-1.68,2.09-3.92,2.99-6.55,3.02.79-4.05,3.97-2.89,6.55-3.02Z"/>
      <path class="cls-5" d="m425.48,615.32c-.22.48-.48.86-.78,1.18h0c-.3.32-.64.58-1.02.77-.76.38-1.64.53-2.6.54.24-3,2.16-3.04,4.4-2.49Z"/>
      <path class="cls-5" d="m140.17,646.05c-1.96.04-3.52-.63-4.42-2.48,2.26-.59,4.19-.57,4.42,2.48Z"/>
      <path class="cls-5" d="m362.07,650.55h0c-.9,1.92-2.54,2.45-4.47,2.49.31-2.94,2.23-3.01,4.47-2.49Z"/>
      <path class="cls-5" d="m156.76,655.35c-1.97-.02-3.63-.57-4.54-2.5,2.23-.48,4.14-.38,4.54,2.5Z"/>
      <path class="cls-5" d="m357.39,653.06h0c-.27.57-.59,1.01-.97,1.36-.23.22-.48.39-.74.54-.73.41-1.6.57-2.56.56.07-3.16,2-3.1,4.27-2.46Z"/>
      <path class="cls-5" d="m161.24,657.84c-.54.02-1.05-.02-1.52-.13-1.22-.29-2.19-1.02-2.83-2.33,2.26-.63,4.19-.65,4.35,2.46Z"/>
      <path class="cls-5" d="m177.83,667.14h0s-.01,0-.01,0c-1.96.01-3.57-.59-4.48-2.49,2.24-.52,4.16-.46,4.49,2.48Z"/>
      <path class="cls-5" d="m198.91,678.94c-.51.01-.99-.03-1.45-.12-.43-.09-.84-.23-1.21-.43-.17-.09-.32-.18-.47-.29-.52-.39-.96-.92-1.3-1.62,2.25-.58,4.16-.55,4.43,2.46Z"/>
      <path class="cls-5" d="m439.38,607.87c.9-.65,1.79-1.29,2.69-1.93-.89.65-1.79,1.29-2.69,1.93Z"/>
      <path class="cls-5" d="m418.23,619.6c.9-.65,1.8-1.29,2.7-1.94-.9.65-1.8,1.29-2.7,1.94Z"/>
      <path class="cls-5" d="m143.01,647.86c-.9-.64-1.8-1.27-2.7-1.91,1.48-.19,2.3.56,2.7,1.91Z"/>
      <path class="cls-5" d="m177.91,667.04c.9.64,1.81,1.29,2.71,1.93-.9-.64-1.81-1.29-2.71-1.93Z"/>
      <path class="cls-5" d="m199.03,678.85c.9.64,1.8,1.28,2.7,1.92-.9-.64-1.8-1.28-2.7-1.92Z"/>
      <path class="cls-4" d="m208.98,179.61c3.81,13.72,12.46,25.06,19.02,37.35,13.92,26.05,26.18,53.03,42.24,77.92-2.58,2.92-5.01,5.99-7.76,8.74-80.5,80.63-161.04,161.21-241.52,241.85-4.18,4.18-8.4,8.17-13.93,10.49-.91-7.45,4.64-12.15,7.65-17.91,17.85-34.25,35.72-68.48,53.64-102.69,42.05-80.26,84.11-160.5,126.22-240.73,3.08-5.87,6.52-11.54,9.79-17.31,1.55.76,3.1,1.53,4.65,2.29Z"/>
    </g>
  </g>
</svg>