<?xml version="1.0" encoding="UTF-8"?>
<svg id="Layer_2" data-name="Layer 2" xmlns="http://www.w3.org/2000/svg" viewBox="0 0 708.71 812.27">
  <defs>
    <style>
      .cls-1 {
        fill: #fff;
        stroke-width: 0px;
      }
    </style>
  </defs>
  <g id="frigate">
    <path class="cls-1" d="m707.56,3.76c-1.57,1.67-3.35,3.2-5.25,4.48-10.9,7.34-22.75,12.92-34.61,18.45-39.57,18.44-80.29,34.04-121.06,49.55-38.12,14.51-75.68,30.36-112.33,48.29-13.18,6.45-26.32,13.01-38.32,21.58-1.87,1.34-3.58,2.92-5.31,4.45-2.03,1.79-2.85,4-2.47,6.75.79,5.69,1.47,11.4,2.18,17.1,1.24,9.96,1.13,19.93-.06,29.88-1.58,13.25-3.21,26.5-4.99,39.73-1.12,8.34-3.31,16.43-6.01,24.41-6.14,18.11-6.85,36.67-4.13,55.44,1.57,10.91,4.69,21.32,11.3,30.35,8.76,11.97,19.63,21.49,33.47,27.09,3.15,1.28,7,.96,10.54,1.11,21.76.91,43.49-.26,65.23-.84,19.25-.51,38.47.37,57.46,3.98,3.23.61,6.36,1.76,9.51,2.75.86.27,1.81.68,2.41,1.32.94,1,2.34,2.33,2.22,3.36-.13,1.02-1.76,2.36-2.96,2.67-3.82.99-7.73,1.87-11.65,2.24-12.57,1.2-25.17,2.02-37.72,3.28-5.17.52-10.28,1.69-15.38,2.77-1.71.36-3.39,1.17-4.9,2.07-3,1.78-2.92,4.89.15,6.53,3.91,2.09,8.28,2.32,12.55,2.38,9.19.13,18.38-.03,27.57-.12,8.72-.08,17.45-.54,26.12.95,1.16.2,2.33.5,3.44.91,3.59,1.33,4.21,4.57,1.05,6.74-2.07,1.42-4.59,2.39-7.05,2.98-9.65,2.33-19.53,2.51-29.38,2.45-14.67-.08-29.35-.53-44.02-.84-16.19-.33-32.39-.49-48.58-1.08-13.61-.49-27.2-1.5-40.57-4.35-2.57-.55-5.1-1.31-7.87-2.03-1.04,3.61-2.14,7.19-3.08,10.82-.35,1.35-.95,1.79-2.38,1.97-6.75.85-13.48,1.92-20.22,2.87-1.76.25-3.55.53-5.32.52-8.25-.06-16.28,1.29-24.34,2.94-6.77,1.39-13.72,2.32-20.61,2.49-10.16.25-20.35-.13-30.51-.69-6.77-.37-13.53-1.38-20.26-2.37-7.91-1.16-15.19.83-22.32,3.92-17.27,7.47-32.96,17.64-48.4,28.23-23.87,16.36-46.56,34.21-67.76,53.92-3.67,3.42-7.09,7.12-10.57,10.74-7.99,8.33-11.35,18.74-13.16,29.81-2.33,14.32-2.09,28.73-1.35,43.13.68,13.01,2.13,25.99,2.4,38.99.32,15.26-.12,30.54-.5,45.8-.52,21.35-.93,42.7-.19,64.06.47,13.54,4.06,25.87,11.78,37.04,2.25,3.25,4.24,6.72,5.95,10.28,1.83,3.78.51,6.33-3.57,7.18-1.2.25-2.86-.11-3.87-.83-2.25-1.59-4.54-3.31-6.23-5.45-5.08-6.42-10.31-12.79-14.7-19.67-25.69-40.24-47.21-82.61-64.09-127.29-6.78-17.96-10.89-36.72-14.87-55.47-3.71-17.4-6.47-34.97-8.24-52.67-1.59-15.87-2.5-31.77-.88-47.71.5-4.85,3.59-8.15,6.9-11.22,7.09-6.58,15.42-11.36,23.91-15.83,23.56-12.41,48.32-22.03,73.08-31.68,23.58-9.18,47.15-18.4,70.65-27.77,4.65-1.85,9.03-4.39,13.48-6.7,1.22-.63,2.37-1.47,3.41-2.37,2.48-2.14,2.43-5.06-.55-6.41-3.07-1.38-6.5-2.46-9.82-2.64-8.84-.5-17.71-.35-26.55-.65-6.4-.21-12.79-.64-19.17-1.14-1.46-.12-2.99-.72-4.26-1.48-2.84-1.7-2.86-4.95.18-6.17,3.58-1.43,7.4-2.4,11.21-3.09,7.41-1.33,14.92-2.1,22.31-3.55,4.63-.92,9.16-2.49,13.62-4.08,4.79-1.7,8.45-4.91,11.54-9.01,7.49-9.95,17.52-16.53,29.08-20.87,6.56-2.47,13.17-4.77,19.73-7.23,8.99-3.38,15.79-9.39,20.96-17.44,7.54-11.74,13.22-24.38,18.29-37.33,5.42-13.86,9.87-28.01,13.31-42.51,2.08-8.79.26-16.6-4.16-24.12-5.17-8.8-12.04-16.22-18.98-23.59-6.39-6.78-12.78-13.57-19.07-20.45-1.64-1.79-3.01-3.86-4.32-5.92-3.24-5.08-3.09-9.91.93-14.4,2.53-2.82,5.48-5.39,8.6-7.55,9.89-6.84,20.81-11.8,31.8-16.53,34.59-14.89,69.13-29.97,104.76-42.26,26.98-9.3,54.13-18.14,81.34-26.76,47.55-15.07,95.39-29.22,143.61-42.01,21.96-5.83,44.06-11.18,66.16-16.47,6.85-1.64,13.91-2.38,20.88-3.55.31-.05.6-.21.9-.32h1.99c2.43.91,2.77,1.85.96,3.76Z"/>
  </g>
</svg>