<?xml version="1.0" encoding="UTF-8"?>
<svg id="Layer_2" data-name="Layer 2" xmlns="http://www.w3.org/2000/svg" viewBox="0 0 731.3 731.6">
  <defs>
    <style>
      .cls-1 {
        fill: #ef5034;
        stroke-width: 0px;
      }
    </style>
  </defs>
  <g id="git">
    <path class="cls-1" d="m713.18,404.29c-100.77,100.77-201.58,201.5-302.24,302.38-10.32,10.34-20.6,20.36-34.92,24.93h-20.99c-7.72-4.73-16.38-7.58-23.05-14.41-20.66-21.16-41.89-41.76-62.81-62.67-77.39-77.34-154.77-154.7-232.09-232.11-13.58-13.59-28.59-26.02-37.08-43.93v-26.72c5.35-6.15,7.54-14.24,13.53-20.2,71.45-71.15,142.74-142.47,213.9-213.92,4.2-4.22,6.35-4.12,10.44.03,24.09,24.49,48.42,48.75,72.85,72.9,3.61,3.57,4.39,6.51,3,11.62-6.92,25.45,2.86,50.28,25.11,63.17,5.57,3.23,7.12,6.59,7.1,12.63-.21,61.07-.21,122.15.01,183.23.02,6.44-1.79,9.95-7.63,13.36-21.86,12.75-31.56,38.13-24.9,62.51,6.12,22.37,27.51,39.51,50.18,40.2,26.73.82,48.44-13.86,56.42-38.15,7.69-23.4-.83-49.09-21.58-62.93-5.12-3.41-7-6.82-6.98-12.96.25-60.12.14-120.24.21-180.37,0-2.66-1.09-5.62,1.52-8.63,2.38,2.21,4.7,4.24,6.88,6.42,20.26,20.22,40.34,40.64,60.86,60.59,4.86,4.73,6.32,8.65,4.53,15.49-5.45,20.87.4,39.19,16.07,53.73,15.36,14.24,33.68,18.66,53.91,12.45,28.36-8.7,44.98-37.86,37.96-65.94-7.33-29.31-34.74-47.29-64.34-41.6-6.31,1.22-10.36.2-14.91-4.45-22.91-23.41-46.2-46.46-69.4-69.6-2.98-2.97-4.84-5.36-3.77-10.56,8.66-41.9-24.63-75.46-66.51-67.24-4.35.86-6.95.28-9.99-2.79-24.86-25.08-49.76-50.11-74.95-74.85-4.32-4.25-3.97-6.46.15-10.48,19.33-18.91,38.33-38.15,57.45-57.26,24.12-24.12,51.01-24.26,75.15-.13,103.73,103.66,207.42,207.36,311.09,311.08,24.01,24.03,23.88,51.12-.18,75.18Z"/>
  </g>
</svg>