<?xml version="1.0" encoding="UTF-8"?>
<svg id="Layer_2" data-name="Layer 2" xmlns="http://www.w3.org/2000/svg" viewBox="0 0 443.27 498.06">
  <defs>
    <style>
      .cls-1 {
        fill: #e436ab;
        stroke-width: 0px;
      }
    </style>
  </defs>
  <g id="graphql">
    <path class="cls-1" d="m411.76,309.01c-1.91-.59-2.55-1.34-2.55-3.38.07-37.67.07-75.34.01-113.01,0-1.95.45-2.81,2.47-3.42,22.75-6.85,36.15-30.67,30.15-53.38-8.74-33.11-48.82-44.48-73.84-20.91-1.14,1.07-1.9,1.12-3.19.38-33-19.1-66.02-38.17-99.05-57.2-1.23-.71-1.48-1.34-1.12-2.75,1.51-5.91,1.65-11.91.76-17.97-3.6-24.53-28.3-41.66-52.57-36.42-25.08,5.42-40.01,28.98-34.26,54.22.38,1.7-.09,2.31-1.41,3.07-32.89,18.94-65.77,37.92-98.63,56.93-1.35.79-2.17.8-3.38-.35-9.14-8.7-20.06-12.76-32.7-12.35C20.47,103.18,1.75,121.06.13,142.99c-1.57,21.22,11.13,39.95,31.49,46.25,1.84.57,2.4,1.32,2.4,3.23-.06,37.75-.06,75.5,0,113.25,0,1.9-.52,2.66-2.4,3.23-21.3,6.52-34.72,27.75-30.88,49.54,3.02,17.11,12.88,29.17,29.38,34.77,16.63,5.64,31.82,2.17,44.88-9.71,1.4-1.27,2.26-1.23,3.77-.35,15.36,8.94,30.77,17.82,46.17,26.71,17.34,10,34.67,20.01,52.03,29.98,1.47.84,2.1,1.58,1.54,3.46-.98,3.24-1.32,6.64-1.17,9.99-.13,2.98.13,5.86.66,8.71,4.58,24.6,29.05,40.5,53.66,34.88,24.42-5.58,39.45-30.77,32.7-54.96-.5-1.8-.14-2.56,1.42-3.46,32.62-18.77,65.21-37.59,97.77-56.45,1.48-.86,2.3-.83,3.55.43,8.91,8.93,19.69,13.34,32.36,13.22,22.75-.22,42.05-18.34,43.64-41.05,1.44-20.7-11.42-39.52-31.34-45.65Zm-353.11-3.24c-.17.29-.28.63-.5.86-.67.68-.59,2.36-2.15,1.86-1.33-.42-.79-1.68-.79-2.58-.03-18.96-.03-37.92-.03-56.88s.03-37.75-.04-56.62c-.01-1.86.44-2.7,2.32-3.3,18.63-5.89,30.81-22,31.37-41.44.1-3.64-.22-7.29-1.24-10.81-.49-1.7-.1-2.57,1.48-3.48,27.32-15.7,54.6-31.47,81.89-47.23,5.66-3.27,11.31-6.54,16.99-9.78.71-.41,1.47-1.31,2.41-.34.95.98-.08,1.69-.47,2.38-26,45.06-52.01,90.12-78.03,135.17-17.74,30.73-35.47,61.46-53.21,92.19Zm295.86,60.29c-20.79,11.94-41.54,23.96-62.3,35.96-11.88,6.86-23.79,13.68-35.65,20.6-1.55.91-2.45.84-3.77-.46-17.16-16.89-44.01-17.19-61.63-.7-1.21,1.12-2.05,1.17-3.4.38-32.85-19.01-65.72-37.98-98.57-56.98-.79-.45-2.07-.7-1.69-2.07.4-1.43,1.66-.82,2.52-.82,43.87-.03,87.73-.03,131.6-.03s87.56,0,131.34.03c.95.01,2.15-.61,2.83.8.78,1.62.25,2.42-1.28,3.29Zm11.59-44.76c-4.7,4.93-8.04,10.73-9.84,17.29-.57,2.09-1.59,2.38-3.47,2.38-43.79-.05-87.58-.04-131.38-.04s-87.26-.01-130.88.04c-2,.01-3-.39-3.59-2.53-1.86-6.64-5.26-12.49-10.11-17.41-1.28-1.29-1.41-2.21-.48-3.81,43.93-75.97,87.82-151.96,131.64-227.99.99-1.71,1.86-2.01,3.65-1.58,6.7,1.61,13.46,1.62,20.14-.05,1.83-.46,2.59.02,3.46,1.53,14.39,25.02,28.84,50.01,43.27,75.01,29.36,50.86,58.71,101.72,88.14,152.54,1.13,1.96.93,3.07-.55,4.62Zm21.96-72.05v55.87c0,.58-.02,1.16,0,1.74.03.79-.04,1.5-1.01,1.71-.92.19-1.1-.58-1.41-1.11-2.95-5.07-5.88-10.16-8.82-15.25-41.09-71.18-82.19-142.36-123.27-213.55-.44-.76-1.64-1.55-.67-2.58,1.09-1.14,1.98.11,2.81.59,32.89,18.95,65.75,37.94,98.64,56.86,1.42.82,1.72,1.57,1.37,3.09-5.25,23.15,7.43,45.33,30.06,52.49,1.86.59,2.35,1.4,2.34,3.28-.07,18.96-.04,37.91-.04,56.86Z"/>
  </g>
</svg>