<?xml version="1.0" encoding="UTF-8"?>
<svg id="Layer_2" data-name="Layer 2" xmlns="http://www.w3.org/2000/svg" viewBox="0 0 576.21 577.18">
  <defs>
    <style>
      .cls-1 {
        fill: #fefefe;
      }

      .cls-1, .cls-2, .cls-3 {
        stroke-width: 0px;
      }

      .cls-2 {
        fill: #53c0f0;
      }

      .cls-3 {
        fill: #41bcf3;
      }
    </style>
  </defs>
  <g id="homeassistant">
    <g>
      <path class="cls-1" d="m575.89,399.38c.04-1.04.08-2.08.11-3.12-.04,1.04-.08,2.08-.12,3.12.12,1.47.2,2.94.25,4.41-.04-1.47-.12-2.94-.24-4.41Z"/>
      <path class="cls-3" d="m575.17,428.72c-.01-9.16-.01-18.32,0-27.48,0-.7-.17-1.48.71-1.86h.01c.04-1.04.08-2.08.11-3.12.19-6.31.19-12.61,0-18.92-.04-1.04-.08-2.08-.12-3.12-.17-.11-.3-.23-.41-.35-.06-.05-.11-.12-.15-.18-.54-.81-.13-1.84-.13-2.72-.03-43.13-.03-86.27-.03-129.41,0-.82.04-1.64-.02-2.46-.2-2.41-1.43-3.41-3.95-3.4-14.86.08-29.73.04-44.59.04-3.89,0-5.31-1.14-5.57-5-.17-2.72-.8-5.38-.66-8.14.11-2.02-.53-3.76-3.16-3.87-1.92-.08-2.24-1.69-2.22-3.18.04-3.46-.13-6.9-.57-10.33-.08-.63.12-1.44-.44-1.8-4.38-2.8-2.8-7.61-3.91-11.5-.37-1.3-.28-2.89-1.41-3.72-3.92-2.89-4.49-7.52-6.27-11.53-.29-.65-.31-1.71-1.24-1.32-.77.32-.36,1.26-.08,1.95.87,2.09,1.75,4.19,2.59,6.3.33.83.82,1.83-.49,2.25-1.16.38-1.96-.21-2.29-1.33-.76-2.55-1.73-4.99-3.34-7.14-.27-.36-.45-.82-.77-1.11-1.29-1.15-2.46-3.5-4.44-1.98-2.06,1.57.37,3,1.01,4.41.72,1.57,1.72,3,2.46,4.56,1.05,2.19.31,3.58-2.15,3.71-2.5.14-5.02-.05-7.53-.18-.52-.02-1.15-.46-1.56-.08-2.49,2.27-3.2.04-4.23-1.57-2.41-3.79-5.65-6.87-8.74-10.08-1.56-1.62-3.06-2.16-5.06-1.15-.05,6.56-.13,13.13-.14,19.69-.02,15.23.03,30.47-.06,45.7-.01,2.36.62,4.07,2.34,5.77,17.4,17.28,34.74,34.64,52.07,52.01,4.19,4.2,4.07,9.73-.14,13.45-1.75,1.55-3.81,1.9-6.06,1.89-14.5-.03-29.01.07-43.51-.1-2.87-.03-3.43.83-3.42,3.52.07,51.08.05,102.16.05,153.24,0,.92.01,1.83-.01,2.74-.13,5.68-3.63,9.16-9.3,9.16-28.73.01-57.46.01-86.19.01-23.54-.01-47.07,0-70.6,0h-2.95c-.15-1.12.66-1.43,1.12-1.9,9.41-9.42,18.87-18.8,28.24-28.26,1.27-1.27,2.55-1.76,4.32-1.75,9.49.07,18.98.13,28.46-.03,2.58-.04,4.05.65,5.42,2.93,3.71,6.15,11.27,8.76,18.09,6.62,7.07-2.21,11.63-8.59,11.38-15.9-.24-7.04-5.32-13.13-12.41-14.87-6.9-1.69-14.26,1.3-17.54,7.47-1.03,1.95-2.18,2.45-4.24,2.43-11.3-.11-22.61-.06-33.92-.14-1.91-.02-3.27.67-4.57,1.98-7.97,8.02-16,15.99-24.01,23.98-.62.62-1.29,1.21-1.87,1.75-.67-.21-.53-.65-.53-.97-.02-11.31-.01-22.62-.03-33.93,0-1.15.27-1.98,1.16-2.86,11.42-11.28,22.8-22.6,34.12-33.98,1.41-1.41,2.8-1.99,4.79-1.98,18.24.07,36.48.09,54.72-.01,2.28-.02,3.55.64,4.78,2.59,3.72,5.91,9.32,8.43,16.15,7.36,6.49-1.02,10.92-4.92,12.8-11.28,1.93-6.53,0-12.11-4.99-16.54-7.62-6.77-19.64-4.53-24.62,4.53-.67,1.24-1.23,1.97-2.81,1.96-15.14-.06-30.29-.03-45.43-.04-.32,0-.65-.05-1.05-.08.3-1.28,1.23-1.79,1.91-2.47,9.41-9.41,18.83-18.84,28.31-28.18,1.77-1.73,2.47-3.53,2.43-6.04-.16-9.03-.04-18.06-.1-27.09-.01-1.51.49-2.54,1.53-3.57,6.95-6.86,13.88-13.73,20.71-20.7,1.23-1.25,2.24-1.29,3.81-.88,6.59,1.74,12.32.07,16.76-5.11,4.29-5,5-12.13,1.84-17.66-3.43-6.02-8.75-8.97-15.67-8.46-9.77.73-16.58,10.52-14,20.12.51,1.89.16,2.97-1.14,4.28-4.39,4.37-8.65,8.86-12.83,13.17-1.35-.54-.96-1.29-.96-1.83-.03-15.78-.01-31.56-.05-47.34,0-1.48.19-2.59,1.73-3.31,7.5-3.5,12.21-14.9,3.67-24.69-3.64-4.18-9.05-5.65-14.72-4.64-6.13,1.1-10.37,4.72-12.37,10.54-2.35,6.83.86,14.69,7.33,18.69,1.15.71,1.97,1.28,1.97,2.87-.07,15.87-.04,31.74-.06,47.61,0,.51.17,1.1-.68,1.74-2.3-2.45-4.63-4.92-6.95-7.4-.5-.53-.91-1.16-1.44-1.64-3.6-3.25-5.49-6.43-4.5-12.08,1.47-8.41-6-15.9-14.79-16.64-8.44-.71-16.17,5.91-17.13,14.66-.89,8.07,5.29,15.74,13.64,17.1,2.23.36,4.42.35,6.47-.4,1.92-.7,3.08-.3,4.49,1.13,6.69,6.85,13.5,13.59,20.32,20.31,1.13,1.12,1.6,2.25,1.58,3.84-.07,8.02-.03,16.05-.03,24.08,0,1.08.07,2.11-.84,3.03-9.89,9.96-19.74,19.96-29.54,29.89-1.27-.77-.87-1.58-.87-2.22-.04-6.2.11-12.41-.09-18.61-.09-2.58.67-4.03,2.91-5.43,5.5-3.42,8.1-8.64,7.32-15.09-.87-7.14-5.05-11.8-11.98-13.72-7.52-2.08-15.57,1.99-18.67,9.22-3.19,7.48-.6,15.89,6.47,19.93,2.1,1.19,2.62,2.47,2.6,4.71-.11,10.21-.05,20.43-.05,30.65.01,1.27.01,2.43-1.07,3.48-8.3,8.21-16.55,16.47-24.82,24.71-.3.3-.69.5-1.08.78-.84-.99-.49-2.02-.49-2.96-.03-54.18-.02-108.36-.08-162.54,0-1.98.53-3.4,1.97-4.79,6.65-6.5,13.22-13.09,19.75-19.72,1.22-1.24,2.23-1.68,4.01-1.06,6.66,2.32,14.76-1.27,18.53-7.77,3.6-6.2,2.75-13.41-2.3-18.82-4.35-4.66-10.04-6.1-16.24-4.37-6.06,1.69-9.67,5.84-11.28,11.92-.82,3.09-.78,5.99.83,8.79.51.89.17,1.48-.49,2.13-6.65,6.63-13.3,13.27-19.91,19.95-.89.9-1.45.71-2.23-.07-6.66-6.62-13.33-13.23-20.04-19.8-.8-.78-.71-1.41-.42-2.39,2.11-7.11.4-13.44-4.54-17.2-6.45-4.9-13.75-5.52-20.16-1.06-6.92,4.82-9.02,14.06-4.19,21.8,3.63,5.8,11.9,9.39,18.66,6.64,1.19-.48,2.02-.08,2.9.77,7.14,7.03,14.31,14.02,21.5,21,.83.81,1.26,1.65,1.26,2.86-.04,38.77-.04,77.54-.05,116.3,0,.25-.1.49-.16.77-1.03.02-1.41-.82-1.95-1.36-12.25-12.12-24.47-24.27-36.76-36.37-1.27-1.26-1.79-2.53-1.77-4.31.07-9.76.08-19.52-.02-29.28-.02-1.81.6-2.76,2.12-3.65,6.56-3.85,9.5-11.05,7.52-18-2-7.01-8.16-11.74-15.36-11.76-7.28-.03-13.54,4.75-15.56,11.88-2.02,7.08,1.07,14.47,7.79,18.13,1.6.88,2.17,1.78,2.14,3.58-.11,6.43-.04,12.86-.04,19.24-1.12.23-1.43-.45-1.85-.87-9.96-9.76-19.9-19.55-29.89-29.29-1.13-1.11-1.61-2.23-1.6-3.82.07-9.4.07-18.79-.01-28.19-.01-1.68.52-2.56,2.02-3.38,5.56-3.06,9.22-9.95,8.28-15.2-1.5-8.37-5.96-13-14.03-14.56-5.79-1.12-12.99,2.23-16.19,7.73-4.05,6.95-1.76,18.02,6.42,22.14,1.67.85,2.1,1.85,2.09,3.61-.07,10.85.01,21.71-.08,32.56-.02,2.82,1.05,4.71,3.17,6.54,3.64,3.16,6.98,6.68,10.4,10.09,7.15,7.15,14.27,14.33,21.39,21.48-.48,1.03-1.32.61-1.95.61-5.56.04-11.13-.03-16.69.06-1.65.03-2.56-.42-3.39-1.96-4.24-7.82-13.49-10.66-21.4-6.73-7.66,3.81-10.96,13-7.44,20.7,3.69,8.06,12.62,11.6,20.88,8.24,3.42-1.39,6.02-3.8,7.83-6.97.78-1.36,1.6-1.92,3.19-1.91,9.94.07,19.89.06,29.83,0,1.39,0,2.38.46,3.36,1.43,15.41,15.41,30.86,30.8,46.32,46.17.97.96,1.43,1.94,1.43,3.34-.04,27.19-.03,54.37-.05,81.55,0,.5.22,1.09-.32,1.54-.95,0-1.34-.83-1.89-1.37-7.11-7.07-14.19-14.18-21.33-21.23-1.12-1.09-1.66-2.19-1.65-3.8.07-10.03.07-20.07-.01-30.1-.01-1.68.52-2.57,2-3.41,6.46-3.66,9.53-10.53,7.95-17.33-1.65-7.1-7.68-12.19-14.99-12.68-6.81-.46-13.56,4.26-15.89,11.11-2.39,6.98.04,14.49,6.46,18.32,2.52,1.51,3.2,3.1,3.09,5.83-.21,5.74-.07,11.49-.08,17.23,0,.17-.09.33-.15.52-.8.19-1.09-.53-1.5-.93-12.1-11.89-24.17-23.81-36.32-35.65-1.52-1.49-2-2.74-1.41-4.95,2.33-8.78-2.92-17.18-11.84-19.42-8.41-2.11-17.09,3.09-19.25,11.54-2.22,8.69,2.76,17.26,11.44,19.48,3.05.78,6.16.74,9.17-.26,1.09-.36,1.81-.28,2.65.56,12.58,12.44,25.2,24.84,37.8,37.26.18.18.28.44.72,1.12h-7.49c-4.2,0-8.4-.05-12.59.03-1.45.03-2.26-.4-2.98-1.74-3.09-5.75-8.14-8.68-14.54-8.48-6.72.2-11.88,3.5-14.47,9.9-2.49,6.12-1.37,11.82,2.91,16.84,6.82,7.99,20.32,6.61,25.71-2.75,1.11-1.93,2.29-2.37,4.3-2.36,9.76.09,19.52.05,29.28.03,1.3,0,2.42.09,3.47,1.14,10,9.99,20.05,19.92,30.08,29.88.38.38.68.85,1.03,1.3-.73.97-1.72.52-2.54.52-52.99.03-105.99.04-158.98.03-6.23,0-9.53-3.35-9.53-9.69-.01-41.5-.01-83.01-.01-124.51,0-10.22.01-20.43,0-30.65-.01-4.2.44-3.73-3.87-3.73-14.59,0-29.19,0-43.78.01-3.65,0-6.18-1.83-7.7-4.99-1.56-3.25-1.15-6.43,1.2-9.19,1.53-1.8,3.29-3.4,4.97-5.08,68.1-68.12,136.2-136.24,204.3-204.36.65-.65,1.22-1.38,1.82-2.07-.59-1.25-1.19-1.88-2.67-.81-2.78,2.04-6.51,2.18-9.19,4.64-1.48,1.35-2.88,2.77-4.36,4.11-.68.6-1.23,1.52-2.01,1.82-6.27,2.37-9.64,8.24-14.71,11.96-6.86,5.03-12.81,10.96-18.92,16.76-1.98,1.88-4.99,2.15-7.65,2.64-2.08.38-3.75,1.23-5.2,2.7-2.63,2.66-5.33,5.25-7.91,7.95-1.14,1.2-2.49,1.95-4.05,1.97-3.57.03-6.22,1.93-8.62,4.16-3.34,3.1-6.52,6.38-9.68,9.66-1.43,1.47-2.98,2.28-5.07,2.11-5.91-.47-11.03,1.15-14.64,6.1-4.89,6.71-11.27,8.39-19.53,8.32-45.12-.42-90.25-.19-135.37-.18-.04,1-.12,2-.12,3v355.8c0,1.36.09,2.72.14,4.09.47.55.32,1.18.24,1.8.09,1.64.01,3.31.3,4.91,3.88,21.63,22.13,36.93,44.14,36.93,162.09.02,324.18.02,486.26-.01,13.83,0,25.38-5.29,34.37-15.81,5.88-6.88,9.44-14.86,10.09-24-.25.02-.5.05-.75.07.62-2.74-.34-5.69,1.06-8.33.07-.91.21-1.81.21-2.71.01-31.03.01-62.05,0-93.08,0-.9-.13-1.8-.21-2.71-.88-.37-.71-1.16-.71-1.87Zm-195.03,7.31c3.71.05,6.32,2.72,6.28,6.4-.03,3.93-3.03,6.87-6.95,6.83-3.73-.03-6.34-2.67-6.31-6.38.03-3.81,3.18-6.9,6.98-6.85Zm30.03-57.54c3.73.02,6.38,2.67,6.35,6.35-.02,3.85-3.17,6.99-6.93,6.92-3.75-.08-6.37-2.7-6.35-6.35.03-3.88,3.1-6.94,6.93-6.92Zm-.48-109.99c3.79-.04,6.73,2.88,6.71,6.66-.02,3.67-3.08,6.61-6.88,6.6-3.52-.01-6.59-3.03-6.64-6.55-.06-3.62,3.04-6.68,6.81-6.71Zm-73.01,13.26c-3.56.02-6.56-2.91-6.64-6.5-.09-3.75,2.85-6.71,6.72-6.76,3.69-.06,6.79,2.95,6.81,6.61.01,3.61-3.12,6.63-6.89,6.65Zm29.88-50.67c-.04-3.82,2.7-6.71,6.39-6.73,3.7-.02,6.93,3.25,6.93,7s-2.66,6.46-6.28,6.51c-3.94.05-7-2.89-7.04-6.78Zm-43.74,102.65c.03-3.58,2.96-6.5,6.44-6.43,3.78.07,6.88,3.28,6.85,7.1-.04,3.76-2.69,6.42-6.38,6.37-3.8-.05-6.95-3.26-6.91-7.04Zm4.21-135.89c3.68-.01,6.57,2.78,6.68,6.45.11,3.64-2.93,6.73-6.72,6.83-3.93.1-6.37-2.38-6.41-6.52-.06-4.25,2.33-6.75,6.45-6.76Zm-73.17,13.28c-3.81-.01-6.64-3-6.53-6.89.12-3.81,3.02-6.45,7.04-6.39,3.5.05,6.52,3.16,6.49,6.69-.03,3.64-3.17,6.6-7,6.59Zm-60.75,25.74c-3.87.04-7.03-2.98-7.11-6.79-.07-3.69,2.55-6.42,6.25-6.5,4.1-.09,7.33,3.22,7.34,7.53.01,3-3.05,5.73-6.48,5.76Zm-6.62,94.59c-3.74.05-7.02-3.13-7.08-6.86-.05-3.64,2.62-6.52,6.19-6.64,3.82-.13,7.03,2.9,7.12,6.72.08,3.92-2.5,6.74-6.23,6.78Zm51.21-51.48c-3.61.04-7.07-3.27-7.16-6.86-.08-3.45,2.82-6.53,6.25-6.63,4.06-.12,7.26,3.14,7.32,7.47.05,3.22-2.88,5.98-6.41,6.02Zm-44.98,110.44c-3.66-.13-6.7-3.28-6.7-6.94s3.25-7.05,6.94-6.99c3.73.05,6.89,3.33,6.83,7.08-.05,3.78-3.36,6.99-7.07,6.85Zm9.26,59.35c-3.82,0-7.06-3.09-7.11-6.79-.04-3.73,2.77-6.5,6.56-6.47,3.89.03,7.01,3.12,6.94,6.87-.08,3.68-2.77,6.37-6.39,6.39Zm51.74-51.48c-3.92-.01-7.03-3.03-7.03-6.84s2.53-6.4,6.29-6.4c3.95-.01,6.97,2.92,7.02,6.81.05,3.73-2.59,6.44-6.28,6.43Zm280.78,174.75H37.24v-.33h497.33c-.02.11-.05.22-.07.33Zm1.89-.34c.85-.45,1.71-.45,2.58,0h-2.58Zm4.55-.43c-.13-.01-.26-.15-.4-.23.15-.07.29-.2.43-.19.13,0,.27.14.42.23-.16.07-.31.2-.45.19Zm32.7-30.5c.02-.07,0-.15.05-.21.02-.03.11-.02.16-.04.03.07.05.13.08.19-.1.02-.19.04-.29.06Zm.68-1.59c-.07-.14-.2-.29-.2-.43.01-.13.15-.27.23-.42.08.16.21.31.2.45-.01.13-.15.27-.23.4Z"/>
      <path class="cls-2" d="m575.89,374.22h-.01c-.17-.11-.3-.23-.41-.35-.06-.06-.1-.12-.15-.18-.54-.81-.13-1.84-.13-2.72-.03-43.13-.03-86.27-.03-129.41,0-.82.04-1.64-.02-2.46-.2-2.41-1.43-3.41-3.95-3.4-14.86.08-29.73.04-44.59.04-3.89,0-5.31-1.14-5.57-5-.17-2.72-.8-5.38-.66-8.14.11-2.02-.53-3.76-3.16-3.87-1.92-.08-2.24-1.69-2.22-3.18.04-3.46-.13-6.9-.57-10.33-.08-.63.12-1.44-.44-1.8-4.38-2.8-2.8-7.61-3.91-11.5-.37-1.3-.28-2.89-1.41-3.72-3.92-2.89-4.49-7.52-6.27-11.53-.29-.65-.31-1.71-1.24-1.32-.77.32-.36,1.26-.08,1.95.87,2.09,1.75,4.19,2.59,6.3.33.83.82,1.83-.49,2.25-1.16.38-1.96-.21-2.29-1.33-.76-2.55-1.73-4.99-3.34-7.14-.27-.36-.45-.82-.77-1.11-1.29-1.15-2.46-3.5-4.44-1.98-2.06,1.57.37,3,1.01,4.41.72,1.57,1.72,3,2.46,4.56,1.05,2.19.31,3.58-2.15,3.71-2.5.14-5.02-.05-7.53-.18-.52-.02-1.15-.46-1.56-.08-2.49,2.27-3.2.04-4.23-1.57-2.41-3.79-5.65-6.87-8.74-10.08-1.56-1.62-3.06-2.16-5.06-1.15-.06-1.64-.06-3.28-.17-4.91-.44-6.45-2.5-9.89-10.01-9.92-11.85-.05-23.69-.05-35.54,0-5.22.02-8.7,3.52-8.75,8.72-.06,5.65.02,11.3-.04,16.95-.01.92.62,2.25-.55,2.69-1.09.41-1.69-.86-2.35-1.54-9.93-10.15-20.01-20.17-29.97-30.29-27.04-27.47-54.5-54.53-81.62-81.93-3.83-3.88-10.45-4.68-14.61,0-4.1,4.61-8.47,9.02-13.19,13.04-.59-1.25-1.19-1.88-2.67-.81-2.78,2.04-6.51,2.18-9.19,4.64-1.48,1.35-2.88,2.77-4.36,4.11-.68.6-1.23,1.52-2.01,1.82-6.27,2.37-9.64,8.24-14.71,11.96-6.86,5.03-12.81,10.96-18.92,16.76-1.98,1.88-4.99,2.15-7.65,2.64-2.08.38-3.75,1.23-5.2,2.7-2.63,2.66-5.33,5.25-7.91,7.95-1.14,1.2-2.49,1.95-4.05,1.97-3.57.03-6.22,1.93-8.62,4.16-3.34,3.1-6.52,6.38-9.68,9.66-1.43,1.47-2.98,2.28-5.07,2.11-5.91-.47-11.03,1.15-14.64,6.1-4.89,6.71-11.27,8.39-19.53,8.32-45.12-.42-90.25-.19-135.37-.18-.05-.82-.14-1.64-.14-2.45C0,127.79.02,87.38,0,46.98c-.01-9.7,1.96-18.86,7.5-26.96C16.29,7.16,28.61.6,44.14.03c.73-.03,1.46-.02,2.19-.02C207.48.01,368.63.02,529.78,0c13.45-.01,25.01,4.37,34.25,14.28,7.15,7.68,10.99,16.77,11.72,27.3.49,6.93.36,13.85.37,20.77.02,102.69.01,205.38,0,308.08,0,1.26.22,2.55-.23,3.79Z"/>
      <path class="cls-2" d="m575.88,430.59c-.88-.37-.71-1.16-.71-1.87-.01-9.16-.01-18.32,0-27.48,0-.7-.17-1.48.71-1.86h.01c.12,1.47.2,2.94.24,4.41.18,5.59-.08,11.18-.03,16.77.03,3.34.34,6.7-.22,10.03Z"/>
      <path class="cls-2" d="m575.57,537.35c-.25.02-.5.05-.75.07.62-2.74-.34-5.69,1.06-8.33.51,2.77.18,5.52-.31,8.26Z"/>
      <path class="cls-2" d="m.41,535.33c-.44-.55-.43-1.16-.24-1.8.47.55.32,1.18.24,1.8Z"/>
      <path class="cls-1" d="m269.73,86.73c4.71-4.02,9.09-8.44,13.19-13.04,4.16-4.68,10.78-3.88,14.61,0,27.12,27.4,54.57,54.46,81.62,81.93,9.96,10.12,20.04,20.13,29.97,30.29.67.68,1.26,1.95,2.36,1.53,1.16-.44.54-1.77.55-2.69.06-5.65-.02-11.3.04-16.95.05-5.2,3.53-8.7,8.75-8.72,11.85-.06,23.7-.06,35.54-.01,7.51.03,9.57,3.47,10.01,9.92.11,1.63.12,3.27.17,4.91-.05,6.56-.12,13.13-.13,19.69-.02,15.23.02,30.47-.06,45.7-.01,2.36.62,4.07,2.34,5.77,17.41,17.28,34.74,34.64,52.07,52.01,4.19,4.2,4.08,9.73-.13,13.45-1.75,1.55-3.82,1.9-6.07,1.89-14.5-.03-29.01.07-43.51-.1-2.87-.03-3.43.83-3.43,3.52.08,51.08.05,102.16.05,153.24,0,.91.02,1.82,0,2.74-.13,5.68-3.63,9.16-9.3,9.16-28.73.01-57.46,0-86.2,0-23.53,0-47.07,0-70.6,0-.98,0-1.96,0-2.95,0-.15-1.12.66-1.42,1.12-1.89,9.41-9.42,18.86-18.8,28.24-28.26,1.27-1.28,2.55-1.77,4.32-1.75,9.49.07,18.97.13,28.46-.03,2.57-.04,4.05.65,5.42,2.93,3.71,6.15,11.27,8.75,18.09,6.62,7.07-2.21,11.63-8.59,11.38-15.9-.24-7.04-5.32-13.13-12.41-14.87-6.9-1.69-14.26,1.3-17.54,7.47-1.03,1.95-2.18,2.45-4.24,2.43-11.31-.11-22.62-.06-33.93-.14-1.9-.01-3.26.67-4.57,1.98-7.97,8.02-15.99,16-24,23.98-.63.63-1.3,1.21-1.88,1.75-.67-.21-.53-.65-.53-.97-.01-11.31,0-22.62-.03-33.93,0-1.15.27-1.97,1.16-2.85,11.42-11.28,22.8-22.6,34.12-33.98,1.4-1.41,2.8-1.99,4.78-1.98,18.24.07,36.49.09,54.73-.01,2.28-.01,3.54.64,4.78,2.6,3.72,5.91,9.32,8.43,16.15,7.35,6.49-1.02,10.92-4.92,12.8-11.28,1.93-6.52,0-12.11-5-16.54-7.62-6.77-19.63-4.53-24.61,4.54-.68,1.23-1.24,1.97-2.82,1.96-15.14-.06-30.28-.04-45.42-.04-.32,0-.65-.05-1.05-.08.3-1.28,1.23-1.79,1.91-2.47,9.42-9.42,18.83-18.84,28.32-28.18,1.76-1.73,2.47-3.54,2.42-6.04-.16-9.03-.03-18.06-.1-27.09-.01-1.51.49-2.54,1.54-3.58,6.94-6.86,13.87-13.73,20.71-20.7,1.22-1.25,2.24-1.29,3.8-.88,6.59,1.73,12.32.06,16.76-5.12,4.29-5,5-12.12,1.84-17.66-3.43-6.02-8.75-8.97-15.67-8.45-9.77.73-16.58,10.52-14,20.11.51,1.89.17,2.98-1.14,4.28-4.39,4.37-8.65,8.87-12.83,13.17-1.35-.54-.96-1.29-.96-1.83-.03-15.78,0-31.56-.04-47.34,0-1.48.19-2.59,1.73-3.31,7.5-3.51,12.21-14.91,3.67-24.69-3.64-4.17-9.05-5.65-14.73-4.64-6.12,1.09-10.37,4.72-12.37,10.54-2.35,6.83.87,14.69,7.33,18.69,1.15.71,1.97,1.28,1.97,2.87-.07,15.87-.04,31.74-.06,47.61,0,.51.17,1.1-.68,1.73-2.3-2.44-4.63-4.91-6.95-7.4-.5-.53-.9-1.16-1.44-1.64-3.6-3.25-5.49-6.43-4.5-12.07,1.47-8.41-5.99-15.9-14.79-16.64-8.43-.71-16.17,5.91-17.13,14.65-.89,8.07,5.29,15.75,13.64,17.11,2.22.36,4.42.35,6.47-.4,1.92-.7,3.09-.3,4.49,1.13,6.7,6.85,13.5,13.59,20.32,20.31,1.13,1.11,1.6,2.25,1.58,3.84-.07,8.03-.03,16.05-.04,24.08,0,1.08.07,2.11-.84,3.03-9.89,9.96-19.74,19.96-29.54,29.89-1.26-.77-.86-1.58-.87-2.22-.04-6.2.11-12.41-.09-18.61-.09-2.58.67-4.03,2.91-5.43,5.5-3.42,8.1-8.64,7.32-15.09-.87-7.14-5.04-11.8-11.98-13.72-7.52-2.08-15.57,1.99-18.66,9.22-3.2,7.47-.61,15.89,6.47,19.92,2.1,1.2,2.62,2.48,2.6,4.71-.11,10.21-.05,20.43-.05,30.65,0,1.28,0,2.43-1.07,3.49-8.31,8.2-16.55,16.47-24.82,24.71-.3.3-.69.5-1.08.78-.84-.99-.49-2.03-.49-2.96-.03-54.18-.02-108.36-.08-162.54,0-1.98.53-3.39,1.96-4.79,6.66-6.5,13.23-13.09,19.76-19.71,1.22-1.24,2.23-1.68,4.01-1.06,6.66,2.32,14.76-1.27,18.53-7.76,3.6-6.21,2.75-13.41-2.3-18.82-4.35-4.66-10.05-6.1-16.24-4.37-6.06,1.69-9.68,5.85-11.28,11.92-.82,3.09-.78,5.99.83,8.8.51.89.17,1.48-.49,2.13-6.66,6.63-13.31,13.26-19.91,19.94-.9.91-1.45.71-2.23-.06-6.66-6.62-13.34-13.23-20.04-19.8-.79-.78-.71-1.41-.42-2.39,2.11-7.11.4-13.44-4.54-17.2-6.45-4.9-13.75-5.53-20.16-1.06-6.92,4.82-9.03,14.06-4.19,21.8,3.63,5.8,11.9,9.4,18.66,6.64,1.19-.48,2.02-.08,2.9.77,7.14,7.02,14.31,14.02,21.5,21,.83.81,1.26,1.65,1.26,2.86-.03,38.77-.03,77.53-.04,116.3,0,.25-.1.49-.16.77-1.03.02-1.41-.83-1.95-1.36-12.26-12.12-24.48-24.28-36.76-36.37-1.28-1.26-1.79-2.53-1.78-4.32.07-9.76.08-19.52-.02-29.28-.02-1.81.6-2.76,2.12-3.65,6.56-3.84,9.5-11.05,7.52-18-2-7.02-8.16-11.74-15.36-11.76-7.28-.03-13.54,4.75-15.56,11.88-2.01,7.08,1.07,14.47,7.79,18.13,1.6.87,2.17,1.78,2.14,3.57-.11,6.43-.04,12.87-.04,19.25-1.12.23-1.43-.46-1.85-.87-9.96-9.76-19.9-19.56-29.89-29.3-1.13-1.11-1.61-2.23-1.6-3.82.06-9.39.07-18.79,0-28.18-.01-1.68.52-2.57,2.01-3.39,5.56-3.06,9.22-9.95,8.28-15.19-1.5-8.37-5.96-13-14.03-14.56-5.8-1.12-12.99,2.23-16.19,7.73-4.05,6.95-1.76,18.02,6.42,22.15,1.67.84,2.1,1.85,2.09,3.6-.07,10.85.02,21.71-.08,32.56-.02,2.82,1.05,4.71,3.17,6.54,3.64,3.16,6.98,6.68,10.4,10.09,7.15,7.15,14.27,14.32,21.39,21.48-.48,1.03-1.32.61-1.95.61-5.56.04-11.13-.04-16.69.06-1.65.03-2.56-.42-3.39-1.96-4.24-7.82-13.49-10.67-21.4-6.73-7.65,3.81-10.95,13-7.43,20.7,3.68,8.06,12.62,11.6,20.88,8.24,3.42-1.39,6.02-3.8,7.82-6.97.78-1.36,1.6-1.92,3.19-1.91,9.94.07,19.88.06,29.83.01,1.4,0,2.39.45,3.36,1.43,15.42,15.41,30.86,30.8,46.32,46.17.97.97,1.43,1.94,1.43,3.35-.04,27.18-.03,54.36-.05,81.55,0,.5.22,1.09-.32,1.54-.95,0-1.34-.83-1.89-1.37-7.12-7.07-14.2-14.18-21.34-21.22-1.11-1.1-1.66-2.19-1.65-3.8.07-10.03.07-20.07,0-30.1-.01-1.67.52-2.57,2-3.41,6.46-3.67,9.53-10.53,7.95-17.33-1.65-7.1-7.67-12.19-14.99-12.68-6.8-.45-13.55,4.26-15.89,11.11-2.38,6.98.04,14.49,6.46,18.33,2.52,1.51,3.2,3.09,3.09,5.83-.21,5.74-.07,11.49-.08,17.24,0,.16-.09.33-.15.52-.81.19-1.09-.53-1.5-.93-12.11-11.88-24.18-23.8-36.32-35.65-1.52-1.48-2-2.74-1.41-4.95,2.33-8.77-2.92-17.18-11.84-19.42-8.41-2.11-17.09,3.09-19.25,11.54-2.22,8.69,2.76,17.26,11.44,19.48,3.05.78,6.16.73,9.17-.26,1.09-.36,1.8-.28,2.65.56,12.58,12.44,25.19,24.85,37.8,37.27.18.18.29.44.72,1.12-2.7,0-5.1,0-7.49,0-4.2,0-8.39-.05-12.59.03-1.45.03-2.26-.4-2.98-1.74-3.09-5.75-8.14-8.68-14.54-8.48-6.73.21-11.88,3.51-14.48,9.9-2.48,6.12-1.37,11.83,2.92,16.84,6.82,7.99,20.31,6.61,25.71-2.75,1.11-1.92,2.29-2.37,4.3-2.35,9.76.09,19.52.05,29.28.03,1.3,0,2.43.09,3.47,1.13,10,9.99,20.05,19.93,30.08,29.89.38.38.67.85,1.03,1.3-.73.97-1.72.52-2.54.52-53,.03-105.99.03-158.99.03-6.23,0-9.53-3.35-9.53-9.7,0-41.5,0-83,0-124.51,0-10.22.02-20.43,0-30.65,0-4.21.44-3.73-3.87-3.73-14.59-.01-29.19,0-43.78,0-3.65,0-6.18-1.82-7.7-4.98-1.56-3.25-1.14-6.44,1.2-9.19,1.53-1.8,3.29-3.41,4.97-5.09,68.1-68.12,136.2-136.23,204.3-204.36.65-.65,1.22-1.38,1.82-2.07Z"/>
      <path class="cls-2" d="m534.5,573.04H37.24c0-.11,0-.21,0-.32h497.34c-.02.11-.05.21-.07.32Z"/>
      <path class="cls-1" d="m199.79,383.57c-.06,3.78-3.36,6.98-7.07,6.85-3.67-.13-6.71-3.28-6.7-6.95,0-3.78,3.25-7.05,6.94-6.99,3.73.06,6.88,3.33,6.83,7.09Z"/>
      <path class="cls-1" d="m244.11,273.96c.04,3.23-2.89,5.98-6.42,6.02-3.61.04-7.07-3.27-7.15-6.86-.08-3.46,2.81-6.53,6.24-6.64,4.07-.12,7.27,3.14,7.33,7.47Z"/>
      <path class="cls-1" d="m254.37,197.85c3.5.05,6.52,3.16,6.49,6.69-.03,3.64-3.17,6.59-7,6.59-3.81,0-6.64-3-6.53-6.89.11-3.8,3.02-6.44,7.04-6.39Z"/>
      <path class="cls-1" d="m379.88,231.36c0,3.7-2.66,6.45-6.28,6.5-3.94.06-7-2.89-7.04-6.77-.04-3.83,2.7-6.71,6.39-6.73,3.7-.02,6.93,3.25,6.93,7Z"/>
      <path class="cls-1" d="m336.68,281.76c-3.57.02-6.56-2.91-6.65-6.5-.09-3.75,2.85-6.71,6.72-6.76,3.69-.05,6.79,2.96,6.81,6.62.01,3.61-3.11,6.63-6.88,6.65Z"/>
      <path class="cls-1" d="m186.49,331.46c-3.74.05-7.02-3.13-7.07-6.86-.06-3.65,2.62-6.52,6.18-6.64,3.82-.13,7.03,2.9,7.12,6.71.09,3.92-2.5,6.74-6.23,6.79Z"/>
      <path class="cls-1" d="m193.11,236.87c-3.88.04-7.03-2.98-7.11-6.79-.07-3.69,2.55-6.42,6.24-6.5,4.1-.09,7.33,3.22,7.35,7.53.01,3-3.05,5.73-6.48,5.76Z"/>
      <path class="cls-1" d="m201.98,449.77c-3.82.01-7.06-3.08-7.11-6.79-.05-3.73,2.77-6.5,6.56-6.46,3.89.03,7.01,3.12,6.94,6.87-.07,3.68-2.77,6.38-6.39,6.39Z"/>
      <path class="cls-1" d="m336.11,334.41c-.03,3.76-2.69,6.42-6.38,6.37-3.8-.05-6.96-3.26-6.92-7.04.04-3.58,2.96-6.5,6.44-6.44,3.78.07,6.88,3.28,6.85,7.1Z"/>
      <path class="cls-1" d="m409.52,281.76c-3.52,0-6.58-3.03-6.64-6.55-.06-3.62,3.05-6.68,6.81-6.71,3.8-.03,6.74,2.89,6.72,6.67-.02,3.67-3.08,6.61-6.88,6.6Z"/>
      <path class="cls-1" d="m320.58,204.61c-.05-4.25,2.33-6.75,6.46-6.76,3.68,0,6.56,2.78,6.68,6.45.11,3.64-2.93,6.73-6.72,6.83-3.92.1-6.36-2.38-6.41-6.52Z"/>
      <path class="cls-1" d="m252.98,385.05c3.96,0,6.97,2.92,7.02,6.82.05,3.73-2.59,6.43-6.28,6.43-3.92,0-7.03-3.03-7.03-6.84,0-3.82,2.53-6.4,6.29-6.4Z"/>
      <path class="cls-1" d="m386.42,442.43c-.04,3.92-3.04,6.87-6.95,6.83-3.73-.04-6.34-2.67-6.31-6.38.03-3.81,3.18-6.91,6.98-6.85,3.71.05,6.32,2.72,6.28,6.4Z"/>
      <path class="cls-1" d="m403.24,385.41c.03-3.88,3.09-6.94,6.93-6.92,3.73.02,6.38,2.67,6.35,6.35-.03,3.85-3.17,6.99-6.93,6.92-3.75-.07-6.37-2.7-6.35-6.35Z"/>
      <path class="cls-2" d="m536.39,572.7c.85-.45,1.71-.45,2.58,0h-2.58Z"/>
      <path class="cls-2" d="m574.35,539.33c.08.16.2.31.2.45,0,.14-.15.27-.23.4-.07-.14-.2-.28-.2-.42,0-.14.14-.27.23-.42Z"/>
      <path class="cls-2" d="m541.39,572.08c-.16.08-.31.2-.45.2-.14,0-.27-.15-.4-.23.14-.07.28-.2.42-.2.14,0,.27.14.42.23Z"/>
      <path class="cls-2" d="m573.85,541.52c.02.06.05.12.07.19-.09.02-.19.04-.28.05.01-.07,0-.15.04-.2.02-.03.11-.03.17-.04Z"/>
    </g>
  </g>
</svg>