<?xml version="1.0" encoding="UTF-8"?>
<svg id="Layer_2" data-name="Layer 2" xmlns="http://www.w3.org/2000/svg" viewBox="0 0 434.13 612.02">
  <defs>
    <style>
      .cls-1 {
        fill: #f06529;
      }

      .cls-1, .cls-2, .cls-3, .cls-4, .cls-5 {
        stroke-width: 0px;
      }

      .cls-2 {
        fill: #3a3a3a;
      }

      .cls-3 {
        fill: #ebe6e5;
      }

      .cls-4 {
        fill: #fdfdfd;
      }

      .cls-5 {
        fill: #e55732;
      }
    </style>
  </defs>
  <g id="html5">
    <g>
      <path class="cls-5" d="m2,122.3c-3.16,9.93-1.82,18.97-1.01,27.93,7.12,78.82,14.34,157.63,21.47,236.45,4.81,53.26,10.02,106.5,13.93,159.83,1.14,15.41,7.84,22.3,22.14,25.73,22.84,5.48,45.18,13.03,68.03,18.48,46.41,11.06,91.79,34.99,141.24,10.99,10.41-5.06,22.49-6.68,33.81-9.87,30.72-8.65,61.45-17.29,92.91-26.14,13.26-148.38,26.37-295.17,39.61-443.4H2Zm388.68,87.04c-1.46,29.09-6.19,58-8.57,87.07-3.71,45.5-7.1,91-12.38,136.38-3.5,30.06-5.19,60.35-6.77,90.59-.48,9.18-2.22,14.9-11.99,17.55-41.54,11.27-82.93,23.09-124.41,34.57-1.87.51-4.12-.4-8.39-.9v-52.55c-1.04-.47-2.07-.94-3.1-1.42-34.6-9.32-69.19-18.7-103.83-27.89-4.64-1.23-7.76-3.23-8.18-8.3-2.17-26.41-4.36-52.82-6.61-80.04h53.39c4.99,10.17,3.74,20.51,4.07,30.46.31,9.56,4.1,14.1,13.53,16.28,16.04,3.7,31.77,8.77,47.63,13.26,1.02-.46,2.03-.93,3.06-1.39.02-28.29.03-56.58.05-84.87-1.06-.48-2.13-.95-3.19-1.42h-121.21c-4.91-54.89-9.76-109.31-14.87-166.48h135.87c7.46-15.74.45-32.86,4.92-50.37h173.89c2.36,16.3-2.08,32.95-2.91,49.47Z"/>
      <path class="cls-2" d="m313.68,3.31v76.36c-7.69,3.94-15.46,2.36-23.56,1.17-5.48-10.32-1.43-22.04-5.22-33.87-5.73,7.05-10.93,13.43-16.28,20-9.19-2.63-10.03-13.46-19.24-17.92-1.04,10.79-2.01,20.96-3,31.32-7.88,2.65-15.15,1.45-23.84.89V1.95c9.33-1.19,19.76-4.38,27.42,1.45,7.26,5.52,11.57,14.93,18.02,23.78,9.94-17.57,20.09-33.81,45.7-23.87Z"/>
      <path class="cls-2" d="m118.04,80.58c-8.63,1.89-15.97,2.15-24.5-.31-.59-7.56-1.19-15.4-1.84-23.8-8.01-3.3-15.62-2.21-24.07-1.31-.76,8.54-1.45,16.39-2.16,24.41-8.5,3.55-16.71,3-25.7.34V3.56c8.44-3.84,16.25-2.66,24.22-1.38,4.46,7.2,1.19,15.75,4.08,23.75h22.97c.96-7.94,1.9-15.66,2.83-23.31C101.97,0,109.29.68,118.48,1.96c1.35,26.24,1.05,52.47-.44,78.62Z"/>
      <path class="cls-2" d="m207.5,25.65c-7.3.62-14.01,1.18-23.19,1.94v52.17c-10.19,3.4-17.91,1.96-27.46,1.52V27.94c-9.07-.99-15.33-1.66-21.78-2.36-4.45-7.05-2.24-14.43-1.74-23.36h73.5c2.76,7.12,1.92,14.76.67,23.43Z"/>
      <path class="cls-2" d="m393.03,81.27h-64.23V2.73c8.8-2.48,16.57-2.26,26.18.17v50.23c13.26,4.92,25.83.42,38.4,4.34,1.81,7.53,1.75,15.21-.35,23.8Z"/>
      <path class="cls-1" d="m214.78,210.24c7.46-15.74.45-32.86,4.92-50.38h173.9c2.36,16.3-2.08,32.96-2.91,49.47-1.46,29.09-6.19,58.01-8.57,87.07-3.72,45.5-7.11,91-12.39,136.37-3.5,30.06-5.19,60.36-6.77,90.6-.48,9.17-2.22,14.9-11.99,17.55-41.54,11.26-82.93,23.09-124.41,34.56-1.86.52-4.12-.39-8.39-.89,0-17.59,0-35.07,0-52.55,25.63-7.23,50.95-16.04,76.99-21.22,24.98-4.97,37.31-14.53,37.69-43.05.59-44.55,6.94-89.03,11.04-135.78-42.84,0-84.33,0-125.81,0,0-18.12.01-36.24.02-54.36h130.97c.41-20.24,5.17-37.42,3.33-56.86-46.19.89-91.91-1.55-137.65,1.42.32-.65.33-1.3.04-1.96Z"/>
      <path class="cls-3" d="m214.99,376.72h-121.22c-4.9-54.9-9.76-109.32-14.86-166.48,46.57,0,91.22,0,135.87,0,.3.66.28,1.31-.04,1.96.1,18.12.2,36.25.3,54.38h-75.42c1.92,20.66,3.53,37.96,5.23,56.32h70.17c-.01,17.94-.02,35.89-.03,53.83Z"/>
      <path class="cls-4" d="m214.99,376.72c.01-17.94.02-35.89.03-53.83,1.02-.27,2.04-.57,3.05-.89h125.81c-4.1,46.75-10.45,91.22-11.04,135.78-.38,28.52-12.71,38.08-37.69,43.05-26.04,5.18-51.36,14-76.99,21.22-1.03-.47-2.06-.94-3.09-1.41,0-18.74,0-37.49,0-56.23,1.02-.46,2.04-.93,3.07-1.39,16.52-4.2,33.04-8.4,49.56-12.62,4.74-1.21,9.25-2.43,9.76-8.71,1.7-20.98,3.62-41.95,5.51-63.55h-64.79c-1.06-.47-2.12-.94-3.19-1.41Z"/>
      <path class="cls-3" d="m215.06,464.4c0,18.74,0,37.49,0,56.23-34.61-9.32-69.19-18.7-103.83-27.89-4.63-1.23-7.76-3.23-8.17-8.3-2.17-26.41-4.36-52.82-6.61-80.04h53.39c4.98,10.17,3.74,20.51,4.06,30.46.31,9.55,4.1,14.1,13.53,16.28,16.04,3.7,31.77,8.77,47.63,13.26Z"/>
      <path class="cls-1" d="m218.17,378.13h64.79c-1.89,21.6-3.81,42.57-5.51,63.55-.51,6.28-5.02,7.5-9.76,8.71-16.52,4.21-33.04,8.41-49.56,12.62.01-28.29.03-56.58.04-84.87Z"/>
      <path class="cls-4" d="m215.05,266.57c-.1-18.13-.2-36.25-.3-54.38,45.74-2.97,91.46-.53,137.65-1.42,1.85,19.43-2.91,36.62-3.33,56.86-43.88,0-87.43,0-130.97,0-1.02-.35-2.03-.71-3.05-1.06Z"/>
      <path class="cls-5" d="m215.05,266.57c1.02.35,2.03.71,3.05,1.06,0,18.12-.01,36.24-.02,54.36-1.01.32-2.02.62-3.05.89h-70.17c-1.71-18.36-3.31-35.65-5.23-56.32h75.42Z"/>
    </g>
  </g>
</svg>