<?xml version="1.0" encoding="UTF-8"?>
<svg id="Layer_2" data-name="Layer 2" xmlns="http://www.w3.org/2000/svg" viewBox="0 0 607.4 591.69">
  <defs>
    <style>
      .cls-1 {
        fill: #fefefe;
      }

      .cls-1, .cls-2, .cls-3 {
        stroke-width: 0px;
      }

      .cls-2 {
        fill: #300;
      }

      .cls-3 {
        fill: #fe9a00;
      }
    </style>
  </defs>
  <g id="illustrator">
    <g>
      <path class="cls-2" d="m606.92,98.55c-.58-13.78-4.32-26.77-10.59-38.92-16.51-31.98-42.61-51.35-77.97-58.16-5.59-1.07-11.26-1.45-16.96-1.42-6.16.03-12.32,0-18.48,0C358.41.05,233.91.08,109.41,0c-16.44-.01-32.2,2.84-46.96,10.04C29.59,26.08,9.45,52.11,2.2,88.01c-.43,2.12-.69,4.26-.95,6.39-.09.8-.2,1.59-.31,2.39-.05.39-.1.79-.16,1.19v.02c.02.41,0,.81-.01,1.21,0,.13-.01.27-.03.4,0,.18-.02.35-.04.52-.05.47-.11.94-.18,1.4-.07.47-.15.94-.23,1.4-.11.6-.21,1.21-.29,1.81v382.22c.01.14.02.27.04.4.02.19.05.38.1.56.07.32.16.63.24.95.05.2.09.39.13.59.06.28.09.57.09.85,0,.33-.05.67-.17,1.01,1.02,6.84,1.83,13.71,3.59,20.43,10.11,38.46,41.77,68.74,80.7,77.15,4.81,1.04,9.67,1.64,14.53,2.3.64.08,1.37-.1,1.89.49h405.7c1.88-.83,3.92-.74,5.89-1.01,33.58-4.45,59.62-20.93,78.13-49.2,8.66-13.23,13.69-27.89,15.79-43.54.26-1.9.21-3.84.3-5.76.02-.4.09-.76.45-1V100.12c-.59-.39-.45-1.02-.48-1.57Zm-235.29,318.19c-1.92.08-3.85.02-5.78.02-6.93.01-13.87,0-20.8,0-2.83.01-5.65.01-8.48.01-5.65,0-11.3,0-16.95-.01-3.56,0-4.21-.45-5.41-3.92-6.47-18.72-12.93-37.45-19.39-56.17-1.08-3.12-.6-2.83-4.02-2.83-29.37-.01-58.75-.01-88.12,0-2.9,0-2.91,0-3.79,2.72-5.98,18.48-11.96,36.96-17.95,55.44-.29.91-.58,1.85-1.03,2.68-.95,1.72-2.56,2.12-4.43,2.1-7.22-.04-14.44-.01-21.67-.02h-23.69c-.58,0-1.15.02-1.73,0-2.8-.12-3.58-1.06-3.06-3.85.19-1.03.55-2.04.9-3.04,26.58-76.48,53.15-152.97,79.78-229.44,3-8.62,4.97-17.36,4.91-26.52-.02-2.93.62-3.51,3.62-3.52,21-.01,41.99-.01,62.99,0,3.27,0,3.56.25,4.71,3.5,11.51,32.45,23.01,64.9,34.52,97.35,18.77,52.93,37.56,105.86,56.33,158.79.39,1.09.79,2.18,1.05,3.3.54,2.3-.18,3.3-2.51,3.41Zm87.2-4.7c-.01,5.7-.32,6-6.08,6h-44.21c-.77,0-1.54.03-2.31-.01-2.93-.15-3.92-1.15-4.05-4.1-.03-.77-.01-1.54-.01-2.31v-189.74c0-5.82.24-6.06,5.95-6.06h45.66c4.3.02,5.04.74,5.04,5.03.01,32.06.01,64.12.01,96.18v95.01Zm-3.05-228.96c-7.21,9.27-16.97,12.42-28.35,11.48-2.79-.23-5.51-.78-8.16-1.73-13.06-4.73-18.97-15.64-19.86-27.21-.39-5.12-.03-10.21,2-15.02,4.92-11.63,13.96-17.77,26.3-19.22,4.11-.49,8.27-.24,12.32.79,12.23,3.11,18.99,11.33,21.72,23.29.54,2.35.69,4.75.59,6.67.15,8.06-1.91,14.96-6.56,20.95Z"/>
      <path class="cls-1" d="m1.25,94.4c-.1.79-.2,1.59-.31,2.39.1-.79.21-1.59.31-2.39Z"/>
      <path class="cls-1" d="m.94,96.79c-.05.4-.1.8-.15,1.2h0c.06-.41.11-.81.16-1.2Z"/>
      <path class="cls-3" d="m.79,97.99c.03.72,0,1.43-.09,2.14-.09.94-.25,1.87-.41,2.8-.11.6-.21,1.21-.29,1.81v-7.51c.26.25.51.49.78.75h0Z"/>
      <path class="cls-3" d="m.6,490.31c0,.33-.05.67-.17,1.01-.14.15-.29.29-.43.44v-4.8c0,.14.01.27.04.4.02.19.05.38.1.56.07.32.16.63.24.95.05.2.09.39.13.59.05.28.09.56.09.85Z"/>
      <path class="cls-3" d="m374.14,413.33c-.26-1.12-.66-2.21-1.05-3.3-18.77-52.93-37.56-105.86-56.33-158.79-11.51-32.45-23.01-64.9-34.52-97.35-1.15-3.25-1.44-3.5-4.71-3.5-21-.01-41.99-.01-62.99,0-3,.01-3.64.59-3.62,3.52.06,9.16-1.91,17.9-4.91,26.52-26.63,76.47-53.2,152.96-79.78,229.44-.35,1-.71,2.01-.9,3.04-.52,2.79.26,3.73,3.06,3.85.58.02,1.15,0,1.73,0h23.69c7.23.01,14.45-.02,21.67.02,1.87.02,3.48-.38,4.43-2.1.45-.83.74-1.77,1.03-2.68,5.99-18.48,11.97-36.96,17.95-55.44.88-2.72.89-2.72,3.79-2.72,29.37-.01,58.75-.01,88.12,0,3.42,0,2.94-.29,4.02,2.83,6.46,18.72,12.92,37.45,19.39,56.17,1.2,3.47,1.85,3.92,5.41,3.92,5.65.01,11.3.01,16.95.01h8.48c6.93-.01,13.87,0,20.8-.01,1.93,0,3.86.06,5.78-.02,2.33-.11,3.05-1.11,2.51-3.41Zm-159.22-110.98c10.23-35.06,22.35-69.42,31.29-104.8,9.82,35.18,21.39,69.77,32.44,104.8h-63.73Z"/>
      <path class="cls-3" d="m458.83,317.03c0,31.67,0,63.34,0,95.02,0,5.69-.31,6-6.08,6-14.74,0-29.47,0-44.21,0-.77,0-1.54.03-2.31-.01-2.93-.15-3.92-1.15-4.05-4.09-.03-.77-.01-1.54-.01-2.31,0-63.25,0-126.5,0-189.74,0-5.82.24-6.06,5.95-6.06,14.83,0,29.66,0,44.5,0,.39,0,.77,0,1.16,0,4.31.02,5.04.74,5.05,5.04,0,32.06,0,64.11,0,96.17Z"/>
      <path class="cls-3" d="m462.34,162.13c.14,8.06-1.91,14.96-6.57,20.95-7.2,9.27-16.97,12.42-28.35,11.48-2.79-.23-5.51-.78-8.15-1.73-13.06-4.72-18.98-15.63-19.86-27.21-.39-5.12-.03-10.21,2-15.01,4.92-11.63,13.96-17.77,26.3-19.22,4.11-.49,8.27-.23,12.32.8,12.23,3.11,18.99,11.33,21.72,23.28.54,2.35.69,4.75.59,6.68Z"/>
      <path class="cls-2" d="m246.21,197.55c9.82,35.18,21.4,69.77,32.44,104.79h-63.73c10.23-35.06,22.35-69.42,31.29-104.79Z"/>
    </g>
  </g>
</svg>