<?xml version="1.0" encoding="UTF-8"?>
<svg id="Layer_2" data-name="Layer 2" xmlns="http://www.w3.org/2000/svg" viewBox="0 0 633.33 633.33">
  <defs>
    <style>
      .cls-1 {
        fill: #323330;
      }

      .cls-1, .cls-2, .cls-3 {
        stroke-width: 0px;
      }

      .cls-2 {
        fill: #fdfbf0;
      }

      .cls-3 {
        fill: #efda4f;
      }
    </style>
  </defs>
  <g id="javascript">
    <g>
      <path class="cls-3" d="m632.58,633.28c-209.94,0-419.88,0-629.81.06-2.26,0-2.76-.51-2.76-2.76C.06,420.6.06,210.64.06.67c1.5,0,3.01.02,4.51.02,207.69,0,415.39,0,623.08,0,1,0,2.01.06,3.01,0,1.4-.09,2.04.47,1.95,1.9-.06,1,0,2.01,0,3.01,0,207.62,0,415.25,0,622.87,0,1.6-.02,3.21-.02,4.81Zm-148.5-50.16c14.52-.1,28.8-1.78,42.61-6.46,19.53-6.62,35.65-17.71,46.09-35.96,8.28-14.48,10.62-30.27,9.84-46.7-1.14-24.03-10.52-43.94-29.35-59.21-12.88-10.45-27.48-17.92-42.48-24.72-11.76-5.33-23.86-9.9-35.4-15.73-5.83-2.95-11.38-6.28-16.04-11-10.15-10.29-10.84-35.07,9.81-42.04,14.21-4.79,27.52-2.33,38.8,8.15,4.15,3.86,7.32,8.5,10.13,13.38.77,1.33,1.35,1.64,2.74.74,14.31-9.25,28.64-18.46,43-27.63,1.19-.76,1.41-1.36.67-2.6-9.22-15.59-20.85-28.83-37.56-36.56-24.3-11.25-49.62-12.11-75.18-5.41-20.74,5.43-37.11,17.22-47.94,36.05-8.28,14.4-10.65,30.06-9.55,46.41,1.44,21.3,9.37,39.58,25.26,54.16,12.74,11.69,27.8,19.54,43.46,26.42,12.19,5.35,24.58,10.26,36.48,16.27,5.92,2.99,11.66,6.29,16.32,11.12,6.91,7.17,8.92,15.8,6.83,25.29-2.2,10-9.09,16.36-18.33,19.51-21.88,7.47-42.47,4.83-60.96-9.66-7.01-5.5-12.43-12.49-17.13-20.02-1.15-1.83-1.94-2.43-4.12-1.14-14.49,8.55-29.07,16.96-43.69,25.31-1.83,1.05-2.02,1.82-1.03,3.64,8.81,16.18,20.79,29.41,36.33,39.35,21.46,13.74,45.28,18.8,70.39,19.02Zm-140.39-184.37h.22c0-34.91-.03-69.81.06-104.71,0-2.62-.61-3.34-3.29-3.32-17.45.13-34.9.14-52.35,0-2.97-.03-3.8.61-3.79,3.72.1,65.6.08,131.19.08,196.79,0,5.02-.22,10.03-1.15,14.97-1.64,8.8-4.94,16.71-13.71,20.64-11.35,5.09-31.16,5.93-43.1-8.84-4.18-5.18-7.73-10.73-10.93-16.52-.91-1.65-1.55-1.77-3.14-.8-14.71,8.98-29.46,17.88-44.24,26.76-1.52.91-2.09,1.63-1.15,3.47,9.87,19.54,24.13,34.62,44.37,43.52,22.06,9.7,45.07,10.7,68.38,6.28,18.57-3.53,34.61-11.87,46.44-27.13,11.69-15.09,16.82-32.66,17.13-51.32.56-34.49.16-69,.16-103.51Z"/>
      <path class="cls-2" d="m632.58,633.28c0-1.6.02-3.21.02-4.81,0-207.62,0-415.25,0-622.87,0-1-.06-2.01,0-3.01.09-1.44-.55-1.99-1.95-1.9-1,.06-2,0-3.01,0-207.69,0-415.39,0-623.08,0-1.5,0-3.01-.01-4.51-.02C.19.48-.25.04.36.06c.8.03,1.6,0,2.41,0C211.95.07,421.14.07,630.32,0c2.44,0,2.93.49,2.92,2.93-.07,209.21-.07,418.43-.1,627.64,0,.88.69,2.04-.56,2.71Z"/>
      <path class="cls-1" d="m484.08,583.12c-25.12-.22-48.94-5.29-70.4-19.02-15.53-9.94-27.51-23.17-36.33-39.35-.99-1.82-.81-2.59,1.03-3.64,14.61-8.35,29.19-16.76,43.69-25.31,2.19-1.29,2.98-.7,4.12,1.14,4.7,7.52,10.12,14.52,17.13,20.02,18.49,14.49,39.09,17.13,60.96,9.66,9.24-3.16,16.13-9.51,18.33-19.51,2.09-9.49.08-18.12-6.83-25.29-4.66-4.84-10.4-8.13-16.32-11.12-11.9-6.01-24.29-10.92-36.48-16.27-15.66-6.87-30.72-14.73-43.46-26.42-15.89-14.58-23.82-32.86-25.26-54.16-1.1-16.35,1.27-32.01,9.55-46.41,10.83-18.83,27.2-30.62,47.94-36.05,25.57-6.7,50.88-5.83,75.18,5.41,16.71,7.73,28.34,20.97,37.56,36.56.73,1.24.51,1.84-.67,2.6-14.36,9.17-28.69,18.38-43,27.63-1.39.9-1.98.59-2.74-.74-2.81-4.88-5.98-9.53-10.13-13.38-11.29-10.48-24.59-12.95-38.8-8.15-20.65,6.97-19.96,31.75-9.81,42.04,4.65,4.72,10.21,8.05,16.04,11,11.54,5.83,23.64,10.4,35.4,15.73,15,6.8,29.59,14.27,42.48,24.72,18.83,15.27,28.21,35.18,29.35,59.21.78,16.43-1.55,32.22-9.84,46.7-10.44,18.25-26.56,29.34-46.09,35.96-13.81,4.68-28.09,6.36-42.61,6.46Z"/>
      <path class="cls-1" d="m343.69,398.75c0,34.5.4,69.01-.16,103.51-.31,18.65-5.44,36.23-17.13,51.32-11.82,15.26-27.86,23.61-46.44,27.13-23.32,4.43-46.32,3.42-68.38-6.28-20.23-8.89-34.49-23.98-44.37-43.52-.93-1.85-.36-2.56,1.15-3.47,14.77-8.88,29.53-17.78,44.24-26.76,1.59-.97,2.23-.85,3.14.8,3.2,5.79,6.75,11.35,10.93,16.52,11.93,14.77,31.74,13.93,43.1,8.84,8.77-3.93,12.06-11.84,13.71-20.64.92-4.94,1.15-9.95,1.15-14.97,0-65.6.02-131.19-.08-196.79,0-3.1.83-3.74,3.79-3.72,17.45.15,34.9.14,52.35,0,2.68-.02,3.3.7,3.29,3.32-.09,34.9-.06,69.81-.06,104.71h-.22Z"/>
    </g>
  </g>
</svg>