<?xml version="1.0" encoding="UTF-8"?>
<svg id="Layer_2" data-name="Layer 2" xmlns="http://www.w3.org/2000/svg" viewBox="0 0 477.95 570.87">
  <defs>
    <style>
      .cls-1 {
        fill: #a8750b;
      }

      .cls-1, .cls-2, .cls-3, .cls-4, .cls-5, .cls-6, .cls-7, .cls-8, .cls-9, .cls-10, .cls-11, .cls-12, .cls-13, .cls-14, .cls-15, .cls-16, .cls-17, .cls-18, .cls-19, .cls-20, .cls-21, .cls-22, .cls-23, .cls-24, .cls-25, .cls-26, .cls-27, .cls-28, .cls-29, .cls-30, .cls-31, .cls-32, .cls-33, .cls-34, .cls-35, .cls-36, .cls-37, .cls-38, .cls-39, .cls-40, .cls-41, .cls-42, .cls-43, .cls-44, .cls-45, .cls-46, .cls-47, .cls-48, .cls-49, .cls-50, .cls-51, .cls-52, .cls-53, .cls-54, .cls-55, .cls-56, .cls-57, .cls-58, .cls-59, .cls-60, .cls-61, .cls-62, .cls-63, .cls-64, .cls-65, .cls-66, .cls-67, .cls-68, .cls-69, .cls-70, .cls-71, .cls-72, .cls-73, .cls-74, .cls-75, .cls-76, .cls-77, .cls-78, .cls-79, .cls-80, .cls-81, .cls-82, .cls-83, .cls-84, .cls-85, .cls-86, .cls-87, .cls-88, .cls-89, .cls-90, .cls-91, .cls-92 {
        stroke-width: 0px;
      }

      .cls-2 {
        fill: #707070;
      }

      .cls-3 {
        fill: #585859;
      }

      .cls-4 {
        fill: #fefefe;
      }

      .cls-5 {
        fill: #424243;
      }

      .cls-6 {
        fill: #e3e3e2;
      }

      .cls-7 {
        fill: #020204;
      }

      .cls-8 {
        fill: #dbdbd9;
      }

      .cls-9 {
        fill: #9e6a07;
      }

      .cls-10 {
        fill: #bb8607;
      }

      .cls-11 {
        fill: #ae7b04;
      }

      .cls-12 {
        fill: #454545;
      }

      .cls-13 {
        fill: #949494;
      }

      .cls-14 {
        fill: #d8d8d5;
      }

      .cls-15 {
        fill: #dcdcdb;
      }

      .cls-16 {
        fill: #815707;
      }

      .cls-17 {
        fill: #644406;
      }

      .cls-18 {
        fill: #242426;
      }

      .cls-19 {
        fill: #727272;
      }

      .cls-20 {
        fill: #dba215;
      }

      .cls-21 {
        fill: #cacac9;
      }

      .cls-22 {
        fill: #b78111;
      }

      .cls-23 {
        fill: #222224;
      }

      .cls-24 {
        fill: #be8b08;
      }

      .cls-25 {
        fill: #f0c628;
      }

      .cls-26 {
        fill: #ae7a07;
      }

      .cls-27 {
        fill: #e2e2e0;
      }

      .cls-28 {
        fill: #e1e1df;
      }

      .cls-29 {
        fill: #9d6f07;
      }

      .cls-30 {
        fill: #876707;
      }

      .cls-31 {
        fill: #3e3e3f;
      }

      .cls-32 {
        fill: #272729;
      }

      .cls-33 {
        fill: #1f1f20;
      }

      .cls-34 {
        fill: #d69b05;
      }

      .cls-35 {
        fill: #aeaeae;
      }

      .cls-36 {
        fill: #5a5a5a;
      }

      .cls-37 {
        fill: #212123;
      }

      .cls-38 {
        fill: #906106;
      }

      .cls-39 {
        fill: #545454;
      }

      .cls-40 {
        fill: #cfbb8c;
      }

      .cls-41 {
        fill: #f5c021;
      }

      .cls-42 {
        fill: #c78f08;
      }

      .cls-43 {
        fill: #d19916;
      }

      .cls-44 {
        fill: #bc8604;
      }

      .cls-45 {
        fill: #38383a;
      }

      .cls-46 {
        fill: #f5d82b;
      }

      .cls-47 {
        fill: #b4810f;
      }

      .cls-48 {
        fill: #5f5f60;
      }

      .cls-49 {
        fill: #9d9d9d;
      }

      .cls-50 {
        fill: #7b7b7a;
      }

      .cls-51 {
        fill: #b07b0a;
      }

      .cls-52 {
        fill: #fefefc;
      }

      .cls-53 {
        fill: #252526;
      }

      .cls-54 {
        fill: #5f5f5e;
      }

      .cls-55 {
        fill: #d7a117;
      }

      .cls-56 {
        fill: #d49b08;
      }

      .cls-57 {
        fill: #3c3c3d;
      }

      .cls-58 {
        fill: #573c05;
      }

      .cls-59 {
        fill: #ebb60b;
      }

      .cls-60 {
        fill: #d19608;
      }

      .cls-61 {
        fill: #f2c911;
      }

      .cls-62 {
        fill: #282829;
      }

      .cls-63 {
        fill: #454546;
      }

      .cls-64 {
        fill: #2f2f30;
      }

      .cls-65 {
        fill: #565656;
      }

      .cls-66 {
        fill: #f6d813;
      }

      .cls-67 {
        fill: #f6da49;
      }

      .cls-68 {
        fill: #2d2d2e;
      }

      .cls-69 {
        fill: #d7d7d6;
      }

      .cls-70 {
        fill: #976a04;
      }

      .cls-71 {
        fill: #9a6e07;
      }

      .cls-72 {
        fill: #473006;
      }

      .cls-73 {
        fill: #bcbcba;
      }

      .cls-74 {
        fill: #896d10;
      }

      .cls-75 {
        fill: #8f6309;
      }

      .cls-76 {
        fill: #9c9c99;
      }

      .cls-77 {
        fill: #666667;
      }

      .cls-78 {
        fill: #242425;
      }

      .cls-79 {
        fill: #f0d024;
      }

      .cls-80 {
        fill: #d9d9d8;
      }

      .cls-81 {
        fill: #fdfdfb;
      }

      .cls-82 {
        fill: #cb8c0b;
      }

      .cls-83 {
        fill: #dddcdb;
      }

      .cls-84 {
        fill: #795505;
      }

      .cls-85 {
        fill: #e9e9e8;
      }

      .cls-86 {
        fill: #828283;
      }

      .cls-87 {
        fill: #767676;
      }

      .cls-88 {
        fill: #f5bd0c;
      }

      .cls-89 {
        fill: #dcdcd9;
      }

      .cls-90 {
        fill: #cececd;
      }

      .cls-91 {
        fill: #202021;
      }

      .cls-92 {
        fill: #adadad;
      }
    </style>
  </defs>
  <g id="linux">
    <g>
      <path class="cls-4" d="m476.62,491.68c-.41.69-.66,1.49-1.35,1.99-3.63,5.1-8.5,8.8-13.72,12.09-2.1,1.33-4.28,2.54-6.43,3.81-3.28,1.97-6.73,3.61-10.15,5.33-3.22,1.62-6.45,3.26-9.65,4.95-.71.37-1.47.65-2.2.97-2.57,1.42-5.13,2.83-7.69,4.24-10.5,5.78-19.62,13.37-28.35,21.48-.82.75-1.49,1.71-2.59,2.13-2.75,2.63-5.37,5.4-8.09,8.06-4.44,4.34-9.64,7.61-15.36,10.05-1.81.61-3.43,1.71-5.34,2.06-.42.42-.93.52-1.49.45-.79.23-1.51.73-2.39.55-.59.5-1.3.45-2.01.41-.44.03-.88.07-1.33.11-3.49.7-6.99.67-10.48-.02-5.67-.28-10.98-1.99-16.14-4.2-4.5-1.94-8.64-4.46-12.07-8.04-1.58-1.65-3.01-3.44-3.92-5.53-.62-1.43-1.4-2.48-2.98-2.77-5.05-1.21-10.11-2.42-15.16-3.62-12.2-2.88-24.53-4.93-36.99-6.31-7.12-.79-14.26-1.23-21.4-1.76-1.29-.1-2.6-.08-3.9-.06-5.37.07-10.73.02-16.1-.4-5.76-.45-11.54-.01-17.29.59-6.64.69-13.15,2.16-19.71,3.32-1.3.28-1.59,1.37-1.98,2.43-3.53,9.43-9.62,16.71-18.49,21.52-7.9,4.3-16.32,5.61-25.22,4.05-4.06-.72-7.92-2.04-11.81-3.29-.6-.19-1.12-.61-1.68-.93-3.18-.97-6.17-2.43-9.21-3.76-12.33-5.37-25.24-8.85-38.3-11.84-.63-.15-1.25-.36-1.87-.54-2.99-.44-5.92-1.11-8.81-1.96-.56.07-1.09,0-1.53-.39-1.69.02-3.27-.46-4.82-1.07-.57.05-1.11.03-1.56-.39-3.48-.46-6.86-1.34-10.17-2.51-.57.05-1.09-.04-1.53-.44-4.01-.72-7.89-1.91-11.66-3.48-3.56-.83-6.96-2.2-10.46-3.21-3.59-1.05-7.18-2.06-10.77-3.12-2.11-.62-4.12-1.51-5.98-2.7-5.24-3.36-7.08-8.23-6.33-14.26.29-2.26,1-4.4,1.83-6.51,2.11-4.4,4.22-8.8,6.33-13.2,1.19-4.22,2.26-8.44,2.59-12.84.32-4.14.31-8.26.03-12.4-.12-1.86-.19-3.72-.28-5.59-.6-1.53-.47-3.15-.5-4.74-.56-1.43-.47-2.93-.48-4.42-.37-.47-.42-1-.27-1.56-.24-1.09-.32-2.19-.22-3.31-.44-.64-.41-1.35-.27-2.07-.39-4.22-.59-8.44.28-12.63,1.62-7.76,6.42-12.41,14.21-13.85,2.09-.38,4.19-.56,6.31-.55,3.5.03,7,.05,10.5.1,2.28.03,4.55-.21,6.78-.65,4.83-.94,8.74-3.42,11.84-7.21,1.7-2.09,3.12-4.37,4.46-6.7,1.77-3.1,3.54-6.21,5.31-9.32-2.19-5.22-3.62-10.64-4.02-16.29-.49-6.75,1.15-13.09,3.98-19.16,3.03-6.5,6.59-12.72,9.9-19.08,6.7-12.86,13.01-25.89,17.57-39.7,1.79-5.41,3.32-10.9,4.64-16.44,2.99-12.5,8.58-23.67,16.59-33.68,12.02-15.02,23.97-30.09,35.99-45.1,3.77-4.7,6.24-10.08,8.63-15.53.34-.78.33-1.57.37-2.39.26-5.95.05-11.9-.57-17.82-.85-8.04-1.17-16.11-1.22-24.17-.1-17.45-1.21-34.86-1.87-52.29-.51-13.74.17-27.39,3.71-40.75,5.08-19.17,15.69-34.36,32.66-44.87,8.57-5.3,17.97-8.42,27.89-9.89,17.05-2.52,33.62-.56,49.6,5.92,17.49,7.09,30.92,19.05,41.13,34.79,8.52,13.13,13.6,27.49,15.51,43.04,1.3,10.62,1.57,21.29,1.75,31.96.21,12.89,1.36,25.71,2.3,38.55.31,4.22,1.56,7.8,3.66,11.39,5.7,9.71,9.91,20.16,14.59,30.36.44.97.86,1.94,1.3,2.9,6.71,14.65,16.11,27.48,26.71,39.5,2.37,2.69,4.78,5.35,7.23,7.97,10.16,10.82,17.68,23.32,23.53,36.89,8.25,19.13,14.59,38.85,18.38,59.35,1.85,9.95,3.04,19.98,2.63,30.13-.47,11.66-3.11,22.72-9.12,32.84.76.4,1.52.8,2.29,1.21,1.01.45,2.06.82,3.02,1.37,2.31,1.31,4.08,3.16,5.32,5.54,2.31,4.42,3.52,9.21,3.38,14.08-.2,6.95,2.42,12.69,6.41,17.98,6.2,8.22,13.31,15.54,21.9,21.33.2.14.36.33.54.49,2.01,1.15,4.13,2.13,5.76,3.86,1.5.92,2.72,2.16,3.94,3.4,2.23,1.76,3.04,4.06,2.62,6.85-.14.95-.11,1.93-.16,2.9,1.61,2.14.7,4.09-.46,6.02Z"/>
      <path class="cls-7" d="m431.18,373.81c-.47,11.66-3.11,22.72-9.12,32.84-.7,3.56-2.29,6.76-4.2,9.78-2.39,3.78-5.13,7.3-8.42,10.36-.1.08-.2.16-.3.24-.09.07-.18.14-.26.21-3.4,2.75-6.75,5.53-10.62,7.62-.04.02-.07.04-.11.06-.24.13-.47.26-.71.39-6.39,3.43-13.11,5.84-20.48,5.47-7.24-.37-14.13-2.03-19.46-7.57-.92-.96-1.62-2.07-2.33-3.17-.12-.19-.24-.38-.37-.57-.13-.2-.26-.4-.4-.6-1.74-3.87-2.41-7.89-2.59-12-.02-.33-.03-.66-.03-.99-.01-.04-.01-.08-.01-.12,0-.09-.01-.18,0-.27h0c-.02-1.06-.02-2.12.01-3.17-.01-.09,0-.19,0-.28.09-2.58.55-5.11,1.25-7.59.41-1.42.09-2.03-1.41-2.3-1.33-.23-2.87-.11-3.82-1.37-.04-.04-.07-.08-.1-.12-.58-3.45.38-6.8.79-10.16,1.62-13.12,2.02-26.28,1.84-39.48-.3-21.47-4.27-42.1-13.99-61.4-4.35-8.62-9.81-16.52-16.39-23.61-1.87-2.02-3.07-4.26-3.53-7.06-2.36-14.41-6.82-28.15-13.07-41.34-3.45-7.29-7.37-14.34-10.89-21.59-.02-.08-.03-.16-.06-.23-.03-.16-.07-.31-.12-.46-.54-1.82-1.67-3.37-2.37-5.1-.05-.1-.09-.21-.13-.31-.01-.02-.01-.03-.02-.05-1.47-4.26-3.21-8.4-5.14-12.46-.03-.06-.06-.13-.09-.19-.02-.08-.04-.15-.07-.23-.29-.84-.9-1.56-1.13-2.42-.01-.06-.03-.13-.04-.2-.03-.2-.05-.42-.03-.64,2.1-5.88,3.2-11.96,3.49-18.18.05-.97-.07-1.93-.38-2.85-.07-.23-.16-.46-.26-.68h0c-.79-3.4-2.93-5.53-6.15-6.72-.72-.27-1.67-.4-1.91-1.35,0-.02-.01-.04-.01-.05-.01-.06-.02-.12-.03-.19.66-1.53,2.1-2.43,3.05-3.73,2.71-3.68,4.2-7.8,5-12.17.09-.46.17-.92.23-1.39.07-.43.13-.86.18-1.3.41-5.34.42-10.68-.15-16,.12-.43.19-.84.22-1.25.02-.25.02-.51.01-.75-.12-2.78-2.04-5.06-2.91-7.64-.01-.02-.02-.03-.02-.05-.01-.02-.01-.03-.02-.05-2.67-6.15-6.65-11.2-12.53-14.54-5.1-2.89-10.48-3.88-16.17-2.39h-.01c-.25.07-.5.14-.76.22-.09.03-.17.05-.26.07-.1.02-.2.04-.3.06-.04,0-.09.01-.14.02-.07.02-.14.04-.2.06-5.23,1.45-8.89,5.15-12.38,8.98-1.8,1.98-3.25,4.26-4.19,6.8-.03.07-.06.14-.08.22-.06.14-.11.29-.16.44-1.96,4.62-2.24,9.49-2.08,14.41-.11.59-.21,1.05-.33,1.4-.04.13-.08.25-.12.34-.39.82-.95.59-2.32-.49-3.15-2.46-6.57-3.36-10.36-2.62h-.01c-.28.06-.57.13-.86.2-.02,0-.05.01-.07.02-1.19.24-2.25.73-3.05,1.71.46.75,1.18.45,1.76.47,6.45.25,11.25,3.29,14.69,8.63.5.77,1.31,1.71.3,2.41-.04.04-.09.07-.15.1-.12.07-.26.14-.42.2-.35.06-.7.04-1.05-.04-.55-.15-1.1-.28-1.67-.33-.35-.03-.69-.1-1.02-.19-.67-.22-1.37-.24-2.07-.25-.5-.02-.99-.08-1.47-.2-.37-.09-.74-.15-1.11-.19-.25-.03-.51-.05-.77-.06-1.78-.06-3.55.29-5.33.48-.84.03-1.71-.09-2.54.19t-.02.01c-.11.04-.21.07-.32.09-.13.04-.26.06-.39.09-2.81.4-5.47,1.33-8.12,2.29-.83.3-1.63.77-2.55.33-.03-.05-.05-.1-.07-.14-.02-.02-.03-.04-.04-.06-.53-1.17.62-1.82,1.04-2.68.17-.35.38-.67.6-1,.15-.22.31-.44.45-.66.13-.18.24-.35.35-.53,2.51-2.71,3.03-5.76,2.35-9.42-1.15-6.12-2.64-12.04-6.22-17.24-.06-.08-.11-.15-.17-.23-.08-.12-.15-.24-.22-.36-.02-.04-.04-.07-.06-.11-.09-.18-.19-.37-.29-.56-.01-.03-.03-.07-.05-.1-.03-.03-.04-.06-.04-.09-.12-.22-.25-.44-.39-.65-2.46-2.42-4.3-5.27-5.88-8.31-.44-.86-1.03-1.65-1.7-2.37-1.8-1.93-3.23-2.01-5.25-.28-.96.82-1.72,1.89-2.91,2.4-.08.04-.17.08-.26.1-.1.04-.2.07-.3.1-7.48,1.43-11.33,6.6-13.38,13.37-1.64,5.45-1.57,11.11-1.07,16.71.23,2.58.13,5.21.74,7.75.06.99-.08,2,.24,2.97.09.35.15.7.18,1.06.05.7.09,1.4.32,2.07.09.34.16.68.21,1.03.03.13.05.26.08.38.11.52.24,1.03.37,1.54,0,.01.01.01.01.02,1.3,4.78,3.67,8.99,7.31,12.5l.15.15c.01.06.02.12.03.17.21,1.43-.95,2.03-1.81,2.83-.12.11-.24.22-.35.33-.2.19-.4.38-.59.57-4.23,4.23-6.7,9.35-7.35,15.43-.16,1.49.21,2.71.91,3.92,0,0,0,.01.01.01.05.09.11.18.18.27.9,1.37,2.35,2.1,3.69,2.96,1.49.96,3.13,1.77,3.85,3.58v.05c0,.11,0,.21-.01.32,0,1.11-.11,2.22-.18,3.32v.04c0,.13-.03.25-.06.38-.02.13-.05.26-.09.39-.4,1.58-.18,3.19-.17,4.79,0,1.69.04,3.38-.02,5.07v1.16c0,.74-.03,1.48-.18,2.2-.45,1.3-.32,2.65-.35,3.98-.2,1.8-.61,3.57-1.03,5.33,0,0-.01.03-.01.04-.02.07-.05.14-.07.21-1.81,5.83-5.02,10.9-8.5,15.84-5.3,7.51-10.69,14.97-14.84,23.23-1.54,3.07-2.73,6.26-3.71,9.55-.08.24-.15.47-.22.71-.09.29-.18.58-.26.87-1.33,4.65-1.99,9.41-1.62,14.25.32,4.18-.75,7.71-3.28,11.09-2.58,3.45-4.66,7.26-6.77,11.03-.21.38-.42.76-.64,1.14-.09.17-.19.35-.29.52-12.78,23.28-21.6,47.89-24.82,74.37-.43,3.55-.59,7.13-1.14,10.67-.55,4.11-.08,8.24-.27,12.36-.07,1.28.48,2.93-.19,3.96-.03.05-.06.09-.1.13-.13.17-.3.32-.52.44-1.66.92-3.05-.96-4.5-1.71-1.98-1.02-3.18-2.51-2.4-4.92.09-.16.17-.31.25-.46.05-.1.09-.2.13-.29,1.17-2.67.33-5.04-1.5-7.32-2.41-3-3.82-6.39-3.74-10.31,0-.13-.01-.27-.01-.4-.05-1.96-.06-3.91-.03-5.86.15-11.11,1.52-22.14,3.03-33.15.39-2.85,1.23-5.51,2.74-8.02,3.7-6.16,6.16-12.94,9.51-19.28,3.57-6.78,7.24-13.5,11.59-19.82.36-.53.76-1.03,1.17-1.51.17-.2.34-.39.51-.58.01-.01.02-.02.03-.03.77-.8,1.58-1.58,2.13-2.92-2.18.47-3.34,1.89-4.66,3.14-10.88,10.28-16.91,23.39-21.8,37.16-1.69,4.77-3.73,9.39-5.57,14.1-3.02,7.74-3.02,15.77-2.58,23.86.28,5.22-.56,10-4.48,13.93-2.73,2.73-2.75,4.65.03,6.77,4.82,3.67,7.91,8.55,10.77,13.72,3.06,5.53,7.31,9.76,13.72,11.31,1.03.25,2.08.23,3.12.32.26.03.53.06.8.11.07,0,.13.03.2.04,3.08,1.33,5.18,3.94,7.57,6.09,13.03,11.72,26.91,22.4,40.52,33.39,5.29,4.28,9.94,9.2,12.82,15.5,1.86,4.07,2.97,8.29,1.87,12.81-1.74,7.2-7.88,12.23-15.31,12.52-2.62.11-5.24.08-7.82-.42-.23-.04-.47-.09-.7-.14-.07-.02-.15-.03-.22-.05-1.95-.81-2.77-2.63-3.87-4.21-.14-.2-.28-.4-.43-.59-.05-.06-.09-.12-.14-.18-1.17-2.01-2.47-3.94-3.77-5.87-.13-.18-.25-.37-.38-.55-.06-.08-.11-.17-.17-.25-9.58-15.84-18.58-32.05-29.19-47.25-.05-.08-.11-.15-.17-.23-.32-.45-.65-.89-1.02-1.3-.12-.12-.23-.24-.35-.36-4.51-6.07-8.76-12.33-13.33-18.36-1.93-2.54-4.12-4.83-6.63-6.75-.87-.66-1.78-1.28-2.73-1.85,0,0-.01,0-.01-.01-.25-.14-.5-.29-.75-.43-2.01-1.14-4.21-1.78-6.43-2.38-.33-.08-.65-.13-.98-.17-.92-.1-1.84-.08-2.76-.05-.78.02-1.55.05-2.32.01-.59,0-1.18-.01-1.73.22-3.82,1.24-7.19,3.13-9.54,6.51-.06.05-.11.11-.17.17-.12.12-.23.25-.35.37-.45.47-.92.92-1.66.96-2.19-5.22-3.62-10.64-4.02-16.29-.49-6.75,1.15-13.09,3.98-19.16,3.03-6.5,6.59-12.72,9.9-19.08,6.7-12.86,13.01-25.89,17.57-39.7,1.79-5.41,3.32-10.9,4.64-16.44,2.99-12.5,8.58-23.67,16.59-33.68,12.02-15.02,23.97-30.09,35.99-45.1,3.77-4.7,6.24-10.08,8.63-15.53.34-.78.33-1.57.37-2.39.26-5.95.05-11.9-.57-17.82-.85-8.04-1.17-16.11-1.22-24.17-.1-17.45-1.21-34.86-1.87-52.29-.51-13.74.17-27.39,3.71-40.75,5.08-19.17,15.69-34.36,32.66-44.87,8.57-5.3,17.97-8.42,27.89-9.89,17.05-2.52,33.62-.56,49.6,5.92,17.49,7.09,30.92,19.05,41.13,34.79,8.52,13.13,13.6,27.49,15.51,43.04,1.3,10.62,1.57,21.29,1.75,31.96.21,12.89,1.36,25.71,2.3,38.55.31,4.22,1.56,7.8,3.66,11.39,5.7,9.71,9.91,20.16,14.59,30.36.44.97.86,1.94,1.3,2.9,6.71,14.65,16.11,27.48,26.71,39.5,2.37,2.69,4.78,5.35,7.23,7.97,10.16,10.82,17.68,23.32,23.53,36.89,8.25,19.13,14.59,38.85,18.38,59.35,1.85,9.95,3.04,19.98,2.63,30.13Z"/>
      <path class="cls-41" d="m459.12,486.8c-4.2,4.19-9.38,6.7-14.87,8.67-5.83,2.1-11.83,3.65-17.81,5.25-9.96,2.65-19.04,7.14-27.57,12.84-7.32,4.89-14.66,9.79-22.96,12.91-7.68,2.9-15.65,4.49-23.89,4.37-8.51-.14-14.46-3.97-17.11-11.04-1.36-3.64-1.52-7.49-1.32-11.32.54-10.49,2.05-20.93,1.56-31.46-.32-6.74-.93-13.47-1.26-20.21-.34-6.83-.35-13.68.09-20.52.41-6.34.43-12.7-.05-19.05-.21-2.8-.1-5.68-1.63-8.23.05-.05.09-.09.14-.12h0c.89-.74,1.71-.02,2.5.31,2.47,1.07,4.79,2.45,6.9,4.09,2.54,1.97,5.32,2.66,8.45,2.17.49-.08,1-.17,1.47.03h.01s.1.05.14.08c.01,0,.03.01.04.02.23.51.09.91-.15,1.28-.11.16-.24.31-.37.46-3.47,4.11-4.03,9.05-3.62,14.06.76,9.25,4.37,17.35,11.09,23.82,6.78,6.53,14.84,7.66,23.53,4.64,7.94-2.76,13.79-8.16,18.18-15.22,3.42-5.48,6.69-11.05,8.26-17.39.08-.3.15-.6.22-.9,2.49-2.69,5.01-5.34,7.09-8.38,2.08-3.03,3.88-6.2,4.89-9.78.16-.57.14-1.36.98-1.53.76.4,1.52.8,2.29,1.21.79,1.25,1.96,2.16,2.92,3.27,1.62,1.88,2.89,3.96,3.4,6.41.29,1.43.25,2.99-1.44,3.45-1.98.53-2.05,1.75-1.73,3.34.65,3.21,1.54,6.35,2.91,9.32,2.51,5.4,5.48,10.55,8.49,15.69,4.6,7.84,11.14,13.68,18.61,18.73,8.23,5.57,8.63,11.71,1.61,18.73Z"/>
      <path class="cls-7" d="m322.22,465.67c-.02.28-.08.55-.15.81,0,.1,0,.2-.02.3-.03.52-.07,1.03-.1,1.55-.36,5.11-.86,10.21-1.72,15.26-.03.15-.06.31-.08.46-.06.31-.12.62-.17.94-1.14,6.27-2.05,12.57-3.15,18.84-.18.73-.41,1.45-.42,2.21-.03.36-.1.71-.2,1.06-.22.66-.3,1.34-.34,2.02-.03.35-.09.7-.18,1.03-.18.58-.24,1.17-.27,1.77-.02.53-.09,1.04-.21,1.56-.08.4-.15.8-.21,1.2-.1.53-.19,1.07-.26,1.6-.78,4.93-1.17,9.89-1.6,14.86-.21,2.44-.01,4.88.41,7.3-.01.17-.01.34-.01.5-.01.33-.01.65.01.97.07,2.5.6,4.95,1.1,7.4.26,1.26.72,3.02-1.76,2.49-5.05-1.21-10.11-2.42-15.16-3.62-12.2-2.88-24.53-4.93-36.99-6.31-7.12-.79-14.26-1.23-21.4-1.76-1.29-.1-2.6-.08-3.9-.06-5.37.07-10.73.02-16.1-.4-5.76-.45-11.54-.01-17.29.59-6.64.69-13.15,2.16-19.71,3.32-1.99.06-1.47-1.38-1.25-2.35.85-3.68,1.05-7.38,1.03-11.13,0-.68-.02-1.36-.05-2.03-.04-1.04-.13-2.08-.27-3.12-.09-.7-.2-1.39-.35-2.09-1.03-4.86-2.89-9.4-5.21-13.78-.47-.89-1.66-1.95-.31-3.06.03-.02.06-.05.09-.07,2.39.05,4.27,1.5,6.35,2.36,10.61,4.39,21.59,7.14,33.06,8.15,18.82,1.64,36.69-1.7,53.62-9.86,9.14-4.41,17.3-10.4,25.02-16.97,3.53-3.01,7.07-6.02,10.34-9.32.14-.14.28-.28.43-.41.11-.1.21-.2.32-.29,1.64-1.48,3.47-2.74,4.93-4.42t.02-.02c.06-.06.11-.11.17-.16t0-.01c2.96-2.89,5.86-5.87,8.81-8.77.63-.62,1.17-1.41,2.09-1.65.03-.02.07-.03.11-.03.03-.02.06-.02.1-.03.1.01.19.04.26.08.01.01.02.01.03.02.04.02.08.05.11.07h0c.08.07.15.15.2.25.07.16.13.33.16.49.2.74.14,1.5.07,2.26Z"/>
      <path class="cls-20" d="m466.39,484.47c-2.85,5-7.18,8.37-12.05,11.14-6.35,3.61-13.24,5.99-20.23,7.88-9.14,2.48-17.61,6.22-25.64,10.86-1.48.84-2.94,1.72-4.39,2.64-3.27,2.06-6.48,4.26-9.63,6.57-.89.65-1.78,1.29-2.68,1.91-7.19,5.04-14.82,9.33-23.4,11.63-.01.01-.03.01-.05.01-.29.09-.59.17-.89.24-5.5,1.36-11.02,2.11-16.58,1.4-.12-.01-.25-.02-.37-.04-1.57-.21-3.15-.54-4.73-1.01-3.76-1.11-6.77-2.91-9.13-5.22-4.21-4.08-6.32-9.76-6.83-15.92-.69-8.25.79-16.39,1.22-24.58.35-6.65.98-13.27.46-20-.48-6.23-.81-12.5-.74-18.79.12-9.53.06-19.07.02-28.61-.02-3.9-.3-7.8-.46-11.7-.06-1.53-.58-2.69-2.02-3.32-.08-.03-.15-.07-.22-.11-.94-.45-1.55-1.14-1.5-2.29.01-.1.02-.19.04-.28.03-.16.08-.32.14-.47.14-.16.28-.32.42-.47.26-.29.52-.58.77-.87,1.27-1.45,2.41-2.98,2.95-4.9,0-.02.02-.04.02-.06.03-.08.05-.16.07-.25.32-.21.67-.32,1.05-.37.89.01,1.89-.17,2.58.28.11.07.2.15.29.25.2.23.36.54.45.98.4,1.92-.9,2.75-2.41,3.37-.06.03-.09.04-.11.05-.02,0-.05.02-.11.05-1.14.55-2.81.71-3,2.13-.19,1.49,1.77,1.03,2.45,1.89.1.12.2.24.28.39h.01s0,.01,0,.01c1.78,1.61,1.79,3.68,2.01,5.91.67,6.75.69,13.53.28,20.23-.4,6.44-.49,12.86-.24,19.26.16,4.02-.08,8.12.81,12.11.04.16.03.32.04.49.49,7.14.85,14.31.36,21.44-.21,3.12-.26,6.29-.68,9.44-.37,2.69-.54,5.48-.7,8.23-.15,2.66-.1,5.31.07,7.95.37,5.63,2.44,10.42,7.41,13.55,2.82,1.77,6.03,2.47,9.27,2.63,6.36.33,12.58-.75,18.72-2.38,8.13-2.14,15.35-6.12,22.35-10.62,6.42-4.13,12.7-8.47,19.64-11.77,6.05-2.88,12.42-4.73,18.85-6.48,6.34-1.74,12.72-3.39,18.69-6.19,4.68-2.2,8.88-5.08,11.93-9.4,3.93-5.59,2.07-10.01-2.62-13.69-2.49-1.95-5.18-3.63-7.73-5.51-3.55-2.63-6.69-5.74-9.19-9.35-5.1-7.36-9.56-15.11-12.97-23.42-1.17-2.84-1.87-5.86-2.25-8.92-.13-1.04.34-1.63,1.48-1.8,2.24-.34,2.65-1.04,2.02-3.26-.67-2.39-1.9-4.49-3.68-6.23-.93-.92-1.88-1.83-1.97-3.25,1.01.45,2.06.82,3.02,1.37,2.31,1.31,4.08,3.16,5.32,5.54,2.31,4.42,3.52,9.21,3.38,14.08-.2,6.95,2.42,12.69,6.41,17.98,6.2,8.22,13.31,15.54,21.9,21.33.2.14.36.33.54.49,4.14,4.8,4.62,10.32,1.47,15.82Z"/>
      <path class="cls-42" d="m168.13,527.08c-.04.24-.08.48-.12.71-.68,4.21-2.13,8.26-4.53,12.06-.19.31-.39.63-.61.94-.17.26-.35.51-.53.76-.01.01-.03.03-.03.04-.08.12-.17.24-.26.36-.12.22-.25.43-.41.62-.16.19-.32.37-.5.55-2.36,2.62-5.13,4.74-8.13,6.6-.45.28-.91.56-1.38.83-.07.04-.14.08-.21.11-.15.09-.31.16-.48.22-9.21,4.21-18.54,3.13-27.88.56-9.65-2.64-18.9-6.54-28.63-8.93-9.17-2.26-18.49-3.65-27.78-5.21-.69-.12-1.39-.24-2.08-.36-.73-.13-1.46-.26-2.19-.39-9.93-1.85-19.72-4.28-29.46-6.97-4.62-1.27-9.31-2.26-13.67-4.39-5.21-2.56-7.95-6.79-9.37-12.07-.11-.4-.21-.81-.3-1.22-1.16-5.16-.28-10.22,1.73-14.8.18-.41.36-.83.52-1.24.57-1.4,1.05-2.8,1.46-4.2,1.76-6.1,2.01-12.19,1.1-18.29-.5-3.42-1.38-6.84-2.55-10.28-.24-.69-.46-1.39-.7-2.09-.23-.67-.3-1.39-.58-2.24.15.74.1,1.25-.4,1.63-.56-1.43-.47-2.93-.48-4.42-.25-.49-.11-1.05-.27-1.56-.24-1.09-.32-2.19-.22-3.31-.31-.66-.07-1.39-.27-2.07-.39-4.22-.59-8.44.28-12.63,1.62-7.76,6.42-12.41,14.21-13.85,2.09-.38,4.19-.56,6.31-.55,3.5.03,7,.05,10.5.1,2.28.03,4.55-.21,6.78-.65,4.83-.94,8.74-3.42,11.84-7.21,1.7-2.09,3.12-4.37,4.46-6.7,1.77-3.1,3.54-6.21,5.31-9.32.56-.57,1.13-1.15,1.69-1.72.14.12.25.25.32.39.31.51.23,1.11.04,1.65-2.01,5.86-2.61,12.11-4.94,17.89-2.85,7.07-8.17,10.47-15.69,10.73-5.54.2-11.04-.65-16.59-.52-12.87.3-21.04,8.9-20.26,22.51.26,4.55,1.52,8.82,2.57,13.17,1.09,4.51,2.14,9.03,2.71,13.65.81,6.54-.86,12.6-3.13,18.6-1.59,4.19-3.07,8.4-2.98,13.02.12,6.61,3.76,12.11,9.86,14.73,4.68,2,9.66,2.95,14.5,4.36,14.5,4.22,29.31,7,44.17,9.55,7.81,1.34,15.46,3.28,22.98,5.77,6.88,2.28,13.63,4.99,20.71,6.62,7.29,1.67,14.67,2.5,21.93-.13,11.09-4.01,16.93-12.27,18.48-23.7,1.25-9.22-1.06-17.96-4.27-26.49-.92-2.44-1.78-4.91-2.83-7.29-.34-.75-.64-1.52-.14-2.33.05-.01.1-.03.14-.03.01-.01.02-.01.03,0,.24-.06.43-.05.6,0,.23.07.39.21.53.39.02.01.03.03.03.05.05.06.08.11.11.17.07.11.12.23.17.34.04.1.08.2.12.3.02.04.04.08.05.12.02.04.03.08.05.12,2.02,4.48,4.01,9,5.59,13.64.89,2.61,1.65,5.26,2.22,7.96.32,1.48.57,2.97.76,4.49.45,3.7.48,7.33-.01,10.85Z"/>
      <path class="cls-82" d="m474.62,475.91c-.67,11.1-7.72,17.7-16.39,23.09-4.23,2.63-8.84,4.52-13.55,6.13-6.48,2.2-13.03,4.22-19.46,6.55-10.86,3.95-20.14,10.59-29.41,17.27-7.08,5.09-14.16,10.18-22.33,13.48-8.47,3.42-17.16,4.36-26.08,2.21-11.95-2.88-19.72-11.64-21.48-23.82-.95-6.6-.61-13.18.1-19.74,1.27-11.85,1.7-23.69.96-35.61-.33-5.51-.81-11.04-.63-16.59.37-11.33-.47-22.64-.48-33.96,0-.49.04-1-.09-1.46-1.04-3.53-1.13-7.1-.64-10.71.01-.04.01-.08.02-.12.01-.03.02-.06.03-.08.38-1.21,1.19-1.82,2.5-1.73.02.03.05.06.07.09.02.04.05.07.07.1,1.07,1.47,1.16,2.27.09,4.06-.23.4-.52.85-.88,1.36-.24.41-.36.8-.36,1.16,0,.61.33,1.14.98,1.57.14.09.27.19.39.29.65.55,1.02,1.25,1.05,2.12.07,2.53.62,5.01.6,7.55-.05,9.94-.04,19.88,0,29.81.03,9.69.87,19.34,1.37,29,.26,4.89-.29,9.76-.62,14.62-.52,7.47-1.57,14.9-1.23,22.41.31,7.02,2.76,13.25,7.41,17.52,3.42,3.17,8.04,5.26,13.87,5.85,11.07,1.11,21.15-1.79,30.84-6.65,3.63-1.82,7.07-3.95,10.44-6.21,2.92-1.94,5.78-4,8.65-6.02,1.21-.85,2.43-1.67,3.66-2.46,1.45-.92,2.91-1.8,4.39-2.64,7.99-4.54,16.52-7.91,25.51-10.29,5.44-1.44,10.79-3.14,15.94-5.42,6.26-2.75,11.93-6.32,16.15-11.88,2.4-3.16,3.71-6.62,3.59-10.65-.03-1.2-.73-2.81,1.02-3.6,1.5.92,2.72,2.16,3.94,3.4Z"/>
      <path class="cls-47" d="m477.24,482.76c-.14.95-.11,1.93-.16,2.9-.92.41-1.59,1.07-2.13,1.94-3.93,6.34-9.57,10.77-16.02,14.29-7.2,3.93-14.88,6.66-22.7,8.91-13.42,3.86-25.44,10.32-36.56,18.66-7.36,5.51-14.71,11.06-23.07,15.06-9.62,4.61-19.59,5.77-29.95,3-14.51-3.9-21.83-14.44-23.21-28.66-.89-9.15.77-18.16,1.22-27.24.29-6.07,1.25-12.13.37-18.26-.51-3.61-.31-7.31-.5-10.96-.33-6.5-.78-13-.64-19.52.22-9.52-.66-19.02-.97-28.53-.03-.95-.34-1.78-.8-2.55-.05-.08-.1-.16-.15-.24-.03-.05-.07-.1-.1-.15-.76-3.68.72-7.53,3.32-8.86.11-.06.23-.11.35-.16.45,1.33.69,2.67-.02,4-.45.86-.31,1.67-.01,2.57.74,2.24,1.16,4.55,1.05,6.94-.05,1.3-.07,2.61,0,3.91.65,11.71.3,23.43.58,35.14.08,3.56.05,7.16.46,10.69.82,7.16.41,14.32.3,21.46-.04,2.78-.1,5.66-.75,8.45-.42,1.8-.25,3.7-.47,5.56-.63,5.32-1.02,10.72-.54,16.06.48,5.42,1.64,10.7,4.75,15.41,3.87,5.88,9.31,9.37,15.95,11.28,3.14.91,6.41,1.3,9.58,1.31,3,.02,6.11-.3,9.14-.97,7.6-1.66,14.28-5.24,20.69-9.45,6.37-4.2,12.41-8.87,18.72-13.15,6.94-4.72,14.28-8.72,22.28-11.4,6.09-2.04,12.21-3.98,18.28-6.07,6.17-2.12,12.07-4.91,17.22-8.93,3.44-2.69,6.51-5.88,8.68-9.81,1.28-2.32,1.92-4.81,2.26-7.39.11-.83.04-1.65.93-2.09,2.23,1.76,3.04,4.06,2.62,6.85Z"/>
      <path class="cls-11" d="m170.65,536.73s-.01.02-.01.02c-.12.31-.25.62-.39.93-.14.32-.28.64-.44.96-.19.4-.39.81-.6,1.21-1.21,2.29-2.7,4.5-4.48,6.6-6.76,7.99-15.62,11.94-25.94,12.13-5.93.11-11.79-1.25-17.46-3.12-11.9-3.94-23.79-7.89-36.23-9.86-9.65-1.54-19.34-2.74-28.96-4.48-11.38-2.06-22.61-4.81-33.82-7.64-2.99-.76-5.89-1.87-8.61-3.41-7.67-4.34-10.93-11.26-11.61-19.72-.03-.39.11-.8-.11-1.19,2.11-4.4,4.22-8.8,6.33-13.2,1.64.7.95,2.03.73,3.1-.88,4.16-1.55,8.32-1.08,12.6.81,7.27,4.04,12.81,11.08,15.64,8.18,3.3,16.86,4.89,25.36,7.07,11.43,2.93,23.1,4.6,34.75,6.4.35.05.7.11,1.05.17.02,0,.04,0,.06.01,1.64.27,3.27.59,4.9.88.05.01.11.02.17.03.37.07.74.13,1.11.19,0,.01.01.01.02.01.52.08,1.04.17,1.57.24.24.02.48.08.71.15.04.02.08.03.12.04.71.27,1.46.36,2.21.47.21.04.43.09.64.16.45.13.91.25,1.36.35.44.11.89.21,1.33.28.27.06.53.1.8.13.21.04.41.1.61.17.59.24,1.21.31,1.83.44.21.04.42.11.62.18.55.16,1.11.33,1.66.49.96.28,1.93.56,2.9.81.01,0,.02,0,.03,0,.51.14,1.02.26,1.54.38.24.05.46.12.69.21,5.91,1.83,11.66,4.13,17.67,5.68,4.27,1.38,8.67,2.28,13.14,2.57,8.46.56,16.15-1.74,22.57-7.39,10.19-8.96,12.71-20.4,10.1-33.27-1.75-8.67-5.4-16.66-9.22-24.56-.05-.11-.1-.23-.17-.34-.19-.41-.39-.83-.59-1.24-1.56-3.21-3.2-6.4-4.79-9.61-.38-.77-.95-1.56-.61-2.44.06-.16.15-.32.28-.49.87,1.19,1.76,2.38,2.62,3.57.38.52.72,1.06,1.36,1.3.35.18.67.38.96.61.91.7,1.5,1.64,1.71,2.87.02.07.03.14.04.21.01.03.02.07.03.1,0,0,0,.01,0,.01.98,3.3,2.64,6.3,4.15,9.37.37.76.74,1.52,1.08,2.29,1.52,3.43,3.04,6.86,4.31,10.36l.15.42c1.53,4.21,2.69,8.53,3.1,13.07.55,6.06-.2,11.78-2.34,17.07Z"/>
      <path class="cls-1" d="m476.62,491.68c-.41.69-.66,1.49-1.35,1.99-1.68.14-2.25,1.75-3.33,2.66-7.48,6.31-16.12,10.39-25.29,13.5-5.79,1.96-11.68,3.6-17.43,5.68-9.98,3.61-18.94,9.03-27.44,15.29-6.23,4.59-12.3,9.41-18.97,13.38-7.25,4.33-14.98,7.53-23.47,7.52-17.55,0-35.01-7.88-37.44-31.54-.87-8.51.26-16.87.92-25.3.71-9.17,1.09-18.36.23-27.56-.22-2.35.16-4.72-.43-7.06-.14-.51-.27-1.02-.44-1.51-.07-.21-.15-.42-.26-.63-.04-.13-.1-.26-.17-.38-.04-.14-.08-.29-.1-.43h0c-.15-.7-.11-1.39.05-2.08.01-.05.02-.09.03-.14.38-1.64.25-3.3.2-4.96,0-.03.01-.06,0-.1,0-.41-.01-.83,0-1.24,0-.84-.01-1.69-.01-2.53-.01-3.12-.03-6.22-.04-9.33.04-2.42.29-4.85-.11-7.25-.03-.25-.08-.51-.14-.76-.04-.31-.08-.62-.1-.92-.03-.4-.05-.8-.06-1.2-.02-.87,0-1.75,0-2.62,0-.27,0-.54-.01-.81.01-.11,0-.22,0-.33.01-1.7.01-3.4.01-5.09,0-1.34,0-2.68-.02-4.02-.02-.84-.04-1.67.52-2.35.07-.08.14-.16.23-.24,1.33.37,1.41,1.62,1.36,2.55-.2,3.52.42,6.97.6,10.46.5,9.59.18,19.2.52,28.79.23,6.64.77,13.27.98,19.92.06,2,.5,4.03.38,6.05-.27,4.61-.47,9.22-.84,13.82-.21,2.74-.42,5.51-.7,8.24-.36,3.38.03,6.82-.82,10.15-.04.16-.05.33-.04.49.28,6.58.78,13.12,3.57,19.23,3.74,8.16,10.24,13.05,18.64,15.62,4.93,1.51,10.04,2.04,15.16,1.58,5.27-.47,10.34-1.9,15.15-4.2,5.97-2.85,11.34-6.62,16.7-10.44,6.74-4.79,13.2-10.02,20.49-13.98,4.42-2.41,8.93-4.68,13.68-6.43,6.03-2.22,12.23-3.86,18.27-6.03,5.99-2.14,11.84-4.6,17.16-8.11,5.04-3.32,9.57-7.24,12.44-12.73.15-.28.43-.5.58-.78.66-1.27,1.1-.25,1.6.14,1.61,2.14.7,4.09-.46,6.02Z"/>
      <path class="cls-16" d="m433.12,520.82c-2.57,1.42-5.13,2.83-7.69,4.24-10.5,5.78-19.62,13.37-28.35,21.48-.82.75-1.49,1.71-2.59,2.13-2.66,1.21-5.07,2.87-7.62,4.27-15.41,8.43-31.3,9.96-47.69,3.23-12.52-5.14-20.19-14.45-22.98-27.72-.84-4.01-1.4-8.07-1.46-12.17-.03-1.09-.01-2.18.04-3.27.04-.47.08-.95.12-1.42.32-.45.01-1.06.38-1.5.03-.32.05-.63.08-.94.45-.6-.04-1.4.41-1.99.03-.32.05-.63.08-.95.44-.6-.04-1.39.41-1.99.18-3.82,1.15-7.53,1.64-11.31.36-2.74.9-5.45,1.34-8.17.07-.4.12-.8.42-1.11.19.13.35.27.49.42.77.86.7,2.02.69,3.11-.09,6.59-.83,13.14-1.23,19.71-.61,10.09-.11,20,4.32,29.35,3.39,7.14,9.01,11.91,16.1,14.95,16.63,7.13,32.23,4.43,47.06-5.23,5.67-3.7,10.98-7.87,16.5-11.78,7.53-5.33,15.45-9.96,24.1-13.26,1.07-.41,2.14-.82,3.28-.94.81-.08,1.84-.44,2.15.86Z"/>
      <path class="cls-84" d="m182.07,526.05c-.33,4.77-1.9,9.32-3.87,13.69-6.95,15.37-18.92,24.31-35.68,26.58-5.68.77-11.36.17-16.99-.89-.78-.15-1.56-.57-2.37-.09-3.18-.97-6.17-2.43-9.21-3.76-12.33-5.37-25.24-8.85-38.3-11.84-.63-.15-1.25-.36-1.87-.54-.69-.41-.73-.85-.01-1.24.75-.4,1.58-.3,2.39-.21,13.38,1.49,26.49,4.23,39.27,8.54,8.03,2.71,16.14,5.1,24.8,4.54,13.46-.87,23.71-7.07,30.43-18.7,7.65-13.24,6.1-26.7.25-40.12-.58-1.32-1.41-2.6-1.16-4.16.14-.19.28-.33.41-.41.04-.04.09-.06.13-.08.65-.32,1.13.41,1.46.88,1.38,1.94,2.83,3.81,4.18,5.76,0,.01.01.01.01.01-.63,1.01.28,1.67.66,2.37,2.03,3.7,3.68,7.56,4.82,11.63.22.79.46,1.55.43,2.37.3,1.93.36,3.82.22,5.67Z"/>
      <path class="cls-17" d="m394.49,548.67c-2.75,2.63-5.37,5.4-8.09,8.06-4.44,4.34-9.64,7.61-15.36,10.05-3.14-.55-6.31-.23-9.46-.21-8.45.07-16.47-1.74-24.22-5.02-10.54-4.47-18.66-11.46-23.81-21.64-.24-.46-.47-.93-.69-1.41-.67-3.55-.3-7.08-.13-10.65.24-4.8,1.13-9.49,1.69-14.23.02-.21.24-.41.36-.61.08.56.15,1.11.22,1.67.33,2.57.59,5.14.85,7.72.81,7.96,3.19,15.45,8.08,21.87,2.4,3.16,5.49,5.74,8.9,7.89,6.43,4.05,13.48,6.54,20.96,7.24,6.86.64,13.77.32,20.48-1.81,5.84-1.86,11.31-4.46,16.54-7.62,1.07-.65,2.13-1.81,3.68-1.3Z"/>
      <path class="cls-75" d="m455.12,509.57c-3.28,1.97-6.73,3.61-10.15,5.33-3.22,1.62-6.45,3.26-9.65,4.95-.71.37-1.47.65-2.2.97-1.56-1.05-3.06-.11-4.39.39-9.1,3.41-17.44,8.23-25.32,13.93-6.18,4.46-12.15,9.21-18.77,13.05-6.17,3.58-12.63,6.46-19.73,7.32-8.22,1-16.28-.01-24.01-3.23-4.62-1.92-8.84-4.46-12.3-8.1-3.58-3.77-5.94-8.25-7.48-13.23-2.26-7.33-2.77-14.86-2.26-22.39.22-3.29-.14-6.67.8-9.91.02-.08.03-.16.03-.24-.26-3.99.76-7.93.54-11.92-.03-.52-.14-1.01-.25-1.5-.11-.45-.23-.9-.32-1.36.41-3.63.75-7.26,1.24-10.88.2-1.46.21-2.91.33-4.37.06-.8-.12-1.64.39-2.37.15.25.3.51.43.77.86,1.7,1.23,3.53,1.26,5.47.22,10.02-.4,19.99-1.36,29.95-.77,8.1-1.03,16.2.74,24.28,2.81,12.83,10.76,20.71,23.05,24.4,13.29,3.98,25.71,1.53,37.42-5.58,6.91-4.2,13.21-9.25,19.66-14.06,11.65-8.7,24.57-14.66,38.45-18.67,3.68-1.06,7.24-2.5,10.95-3.45.92-.24,2.18-1.18,2.9.45Z"/>
      <path class="cls-9" d="m475.27,493.67c-3.63,5.1-8.5,8.8-13.72,12.09-2.1,1.33-4.28,2.54-6.43,3.81-.38-.45-.83-.4-1.33-.24-1.39.43-2.79.82-4.18,1.27-5.33,1.71-10.67,3.41-15.98,5.16-10.97,3.61-20.98,9.04-30.21,15.97-5.51,4.13-11.05,8.23-16.73,12.11-6.62,4.51-13.77,8.01-21.79,9.11-2.99.41-6.02.62-9.14.36-4.34-.35-8.51-1.13-12.57-2.55-4.64-1.62-8.95-4.04-12.43-7.47-3.04-3-5.55-6.56-6.94-10.74-1.36-4.09-2.29-8.22-2.76-12.53-.36-3.26-.57-6.52-.27-9.72.29-3.21.14-6.46.77-9.67.44-2.2.25-4.5.5-6.77.85-7.6.59-15.26.57-22.89,0-.92-.38-1.77-.68-2.64-.26-.75-.46-1.5-.33-2.32-.06-.13-.05-.26,0-.38.47-.98.38-1.96.16-2.95h0c-.01-.06-.02-.1-.03-.15,0-.06-.03-.12-.05-.18,0-.05-.02-.1-.03-.15-.04-.11-.07-.23-.09-.34-.1-.42-.09-.86-.1-1.29.05-.63-.04-1.29.14-1.88.06-.21.15-.41.29-.59.08-.11.18-.21.29-.31,1.42,1.19,1.24,2.93,1.37,4.47.7,8.11.68,16.25.45,24.37-.09,3.13-.22,6.3-.79,9.43-.37,1.98-.36,4.04-.49,6.04-.3,4.61-.92,9.23-.6,13.87.55,7.77,1.92,15.29,6.69,21.78,2.49,3.38,5.55,6.13,9.19,8.17,5.32,2.99,11.06,4.34,17.16,4.89,10.03.9,18.79-2.32,27.21-7.19,6.21-3.58,11.77-8.07,17.53-12.27,6.31-4.6,12.66-9.12,19.72-12.48,6.75-3.23,13.82-5.62,20.98-7.81,9.1-2.77,18.06-5.95,25.93-11.52,2.45-1.74,4.86-3.52,7.01-5.63.46-.45.97-1.35,1.7-.24Z"/>
      <path class="cls-55" d="m470.33,477.29c.04,2.97-.91,5.59-2.42,8.05-3.33,5.45-8.3,9.08-13.77,12.04-6.25,3.38-13.03,5.44-19.84,7.33-7.76,2.16-15.36,4.72-22.49,8.52-5.74,3.06-11.07,6.78-16.39,10.48-4.68,3.26-9.48,6.32-14.57,8.83-3.99,1.97-8.16,3.5-12.48,4.56-.01.01-.03.01-.05.01-1.42.35-2.86.65-4.31.89-3.43.57-6.88,1.16-10.37.97-.94-.05-1.87-.12-2.79-.22-.12-.01-.25-.02-.37-.04-3.95-.42-7.79-1.34-11.29-3.45-4.12-2.47-6.91-6.09-8.66-10.51-1.45-3.65-2.2-7.45-2.03-11.41.08-1.87.02-3.75,0-5.62-.02-3.33.45-6.62.91-9.9.24-1.69.31-3.43.3-5.08-.03-5.5,1.5-10.97.33-16.49-.05-.23-.08-.48-.06-.72.34-5.05-.27-10.08-.57-15.09-.87-14.4-.14-28.8-.43-43.2-.04-2.02-.68-3.99-.53-6.05.07-.9-.73-1.43-1.33-1.95-.9-.79-1.18-1.55-.54-2.36.12-.15.27-.3.45-.45-.17,1.41.29,2.28,1.8,2.67,1.63.42,2.07,1.65,2.16,3.35.82,15.74.29,31.49.44,47.24,1.07,4.72.24,9.54.85,14.31.43,3.41.57,6.98-.29,10.44-.14.54-.07,1.14-.06,1.71.08,4.23-.52,8.4-.88,12.59-.23,2.74-.84,5.46-.61,8.25.08.96.13,1.96-.32,2.88-.03.07-.07.16-.06.24.51,6.27.41,12.61,4.05,18.25,4.01,6.21,9.85,8.92,16.89,9.62,1.19.12,2.34.38,3.58.4,4.33.06,8.53-.64,12.68-1.68,6.43-1.6,12.38-4.37,18.02-7.84,4.91-3.02,9.57-6.4,14.28-9.72,10.31-7.25,21.48-12.65,33.68-16.04,7.35-2.05,14.63-4.49,21.29-8.35,4.83-2.79,9.11-6.26,11.7-11.35,1.81-3.53,2.33-7.23.38-10.98-.63-1.22-1.42-2.39-1.7-3.77,2.01,1.15,4.13,2.13,5.76,3.86-.76,1.54-.37,3.19-.35,4.78Z"/>
      <path class="cls-70" d="m176.43,525.95c-.31,4.13-1.28,8.17-2.9,12-2.24,5.3-5.32,10.05-9.67,13.88-5.48,4.83-11.75,7.98-19.01,9.22-3.98.68-7.97.62-11.9.33-4.18-.31-8.26-1.55-12.29-2.76-7.53-2.26-14.95-4.92-22.66-6.57-4.26-.91-8.52-1.85-12.87-2.34-3.04-.35-6.06-.93-9.09-1.37-.72-.1-1.48-.1-2.19.02-.34.06-.16.54-.07.84-2.99-.44-5.92-1.11-8.81-1.96-.45-.35-1.08-.04-1.53-.39-1.69.02-3.27-.46-4.82-1.07-.47-.36-1.09-.06-1.56-.39-3.48-.46-6.86-1.34-10.17-2.51-.43-.43-1.09-.06-1.53-.44-4.01-.72-7.89-1.91-11.66-3.48.64-1.65,1.98-1.04,3.07-.85,4.57.8,9.1,1.81,13.66,2.66,11.04,2.05,22.21,3.29,33.31,4.97,11.7,1.78,23.06,4.92,34.23,8.8,6.46,2.24,13.1,4.12,19.96,4.17,8.69.06,16.6-2.66,23.25-8.54,3.4-3.01,6.04-6.47,8.03-10.32.21-.4.41-.8.6-1.21.16-.32.3-.64.44-.96.14-.31.27-.62.39-.93,0,0,.01-.01.01-.02.7-1.7,1.28-3.48,1.77-5.31.24-.57.47-1.14.48-1.77.04-.49.11-.98.22-1.46.18-.61.24-1.23.2-1.86.01-1.72-.03-3.44,0-5.16.03-1.02.11-2.04-.19-3.03-.12-.49-.18-.98-.22-1.47-.02-.6-.12-1.19-.39-1.74-.69-2.85-1.6-5.62-2.63-8.34l-.15-.42c-1.64-4.28-3.56-8.45-5.39-12.65-.21-.47-.42-.94-.62-1.41-.02-.34-.13-.7-.23-1.05-.12-.41-.22-.82-.12-1.22.06-.28.21-.57.53-.84t.02-.01s.09.07.13.1c.02,0,.04.02.05.04.12.09.24.18.35.27.02,0,.04.03.05.04,2.63,2.04,4.73,4.48,5.66,7.81-.01.06-.01.13-.01.19-.07,2.42,1.42,4.33,2.26,6.43,2.81,7.11,4.56,14.4,4.01,22.08Z"/>
      <path class="cls-29" d="m174.01,520.89v5.87c-.47.39-.04,1.07-.48,1.47,0,.49-.01.97-.01,1.46-.46.39-.04,1.08-.48,1.47-1.18,5.31-3.33,10.17-6.73,14.45-4.18,5.27-9.22,9.35-15.67,11.52-2.92.99-5.88,1.65-8.98,2-5.68.64-11.09-.49-16.51-1.8-5.13-1.23-10.09-3.06-15.11-4.69-6.94-2.26-14.01-4.05-21.2-5.32-5.65-1-11.35-1.68-17.02-2.55-6.86-1.04-13.77-1.82-20.59-3.2-4.99-1.02-10-1.93-14.99-2.95-.85-.18-1.78-.42-2.54.34-3.56-.83-6.96-2.2-10.46-3.21-3.59-1.05-7.18-2.06-10.77-3.12-2.11-.62-4.12-1.51-5.98-2.7-5.24-3.36-7.08-8.23-6.33-14.26.29-2.26,1-4.4,1.83-6.51,1.19,1.6.93,3.57,1.34,5.36,1.43,6.32,4.52,11.35,10.25,14.69,4.13,2.42,8.64,3.69,13.21,4.76,9.45,2.22,18.9,4.45,28.42,6.33,4.66.92,9.4,1.53,14.12,2.2,5.75.81,11.49,1.77,17.23,2.72,9.15,1.5,17.99,4.09,26.79,6.9,4.47,1.43,8.86,3.17,13.48,4.13,2.84.58,5.68,1.09,8.6,1.41,7.03.75,13.51-.74,19.62-4.07,5.01-2.73,8.94-6.65,12.05-11.45,2.38-3.68,3.9-7.67,4.68-11.94.68-3.74.93-7.46.44-11.33-1.05-8.29-4.27-15.77-7.63-23.26-1.5-3.34-3.11-6.62-4.73-9.9-.31-.64-.83-1.28-.12-1.99.13.03.26.07.38.11,1.69.54,2.49,1.91,3.01,3.54,0,.11,0,.21,0,.32-.01.22-.01.43,0,.64.03.52.12,1.02.25,1.51.2.75.5,1.48.86,2.19.06,1.01.65,1.82,1.1,2.67,2.19,4.15,3.92,8.52,5.6,12.88.93,2.39,1.41,4.95,2.1,7.44.44.39.02,1.08.48,1.47,0,.49.01.97.01,1.46.61.91-.15,2.04.48,2.94Z"/>
      <path class="cls-72" d="m371.04,566.78c-1.81.61-3.43,1.71-5.34,2.06-.42.41-1.08.02-1.49.45-.79.23-1.51.73-2.39.55-.61.43-1.4-.04-2.01.41-.44.03-.88.07-1.33.11-3.49.25-6.99.32-10.48-.02-5.67-.28-10.98-1.99-16.14-4.2-4.5-1.94-8.64-4.46-12.07-8.04-1.58-1.65-3.01-3.44-3.92-5.53-.62-1.43-1.4-2.48-2.98-2.77,1.28-.04,1.62-.62,1.25-1.86-.89-3.08-1.52-6.2-1.28-9.44.27.11.49.26.68.44.58.52.89,1.26,1.27,1.96,2.15,3.93,4.72,7.62,8,10.63,4.19,3.83,8.93,6.92,14.22,9.16,3.3,1.39,6.62,2.65,10.09,3.48,4.33,1.04,8.7,1.81,13.18,1.73,2.92-.05,5.85-.03,8.78,0,.75,0,1.71-.31,1.96.88Z"/>
      <path class="cls-58" d="m182.34,541.56c-1.3.28-1.59,1.37-1.98,2.43-3.53,9.43-9.62,16.71-18.49,21.52-7.9,4.3-16.32,5.61-25.22,4.05-4.06-.72-7.92-2.04-11.81-3.29-.6-.19-1.12-.61-1.68-.93-.08-.29-.29-.72.07-.84.62-.2,1.26.01,1.91.15,5.41,1.19,10.93,1.72,16.42,1.16,8.71-.88,16.56-4.01,23.44-9.65,8.76-7.18,13.73-16.41,15.88-27.36.38-1.95.77-3.89.92-5.87.07-.84.09-1.69.05-2.55.13.2.35.39.39.6.89,5.94,1.04,11.87-.37,17.77-.13.54-.27,1.09-.41,1.63-.2.77.33.98.88,1.18Z"/>
      <path class="cls-10" d="m88.94,542.9c-2.79.14-5.42-.82-8.14-1.19-4.88-.66-9.74-1.46-14.6-2.25-2.95-.49-5.88-1.08-8.82-1.61-9.64-1.76-19.09-4.33-28.59-6.7-3.77-.94-7.53-2.03-11.08-3.63-5.33-2.41-8.48-6.76-9.86-12.3-1.18-4.76-1.03-9.6.19-14.36.26-1.03.25-2.09.64-3.1.22-.57.23-1.29-.36-1.8,1.19-4.22,2.26-8.44,2.59-12.84.32-4.14.31-8.26.03-12.4-.12-1.86-.19-3.72-.28-5.59,1.6-.13,1.8,1.24,2.12,2.21.66,2.01,1.21,4.02,1.61,6.03,1.18,5.89,1.11,11.82-.94,17.81-.05.16-.11.32-.16.48-.49,1.4-.99,2.8-1.46,4.2-1.02,3.03-1.93,6.09-2.36,9.29-.21,1.55-.14,3.07-.2,4.6.06.65.26,1.28.4,1.92.04.49.11.98.21,1.45.3,1.51.85,2.96,1.34,4.42.11.36.23.71.37,1.05,1.25,3.17,3.64,5.35,6.63,7.02,1.09.61,2.2,1.13,3.34,1.59,3.67,1.51,7.57,2.38,11.39,3.46,15.37,4.31,31.01,7.27,46.79,9.6,2.49.37,4.98.75,7.42,1.41.62.17,1.45.08,1.71.82.04.11.06.25.07.41Z"/>
      <path class="cls-24" d="m151.52,550.24c-.02.15-.05.29-.1.42-.39,1.27-1.72,1.4-2.76,1.78-7.65,2.8-15.38,2.17-23.1.31-4.19-1.01-8.31-2.3-12.37-3.78-13.65-4.99-27.74-8.18-42.11-10.23-15.74-2.25-31.09-6.31-46.38-10.53-1.07-.29-2.12-.63-3.14-1.01-4.71-1.76-8.7-4.59-10.84-9.74-1.09-1.8-1.49-3.78-1.47-5.86-.44-.4-.02-1.09-.49-1.47-.22-4.52.85-8.83,2.16-13.1.93-3.02,2.11-5.96,2.86-9.04,1.04-4.32,1.23-8.65.27-12.98-.64-2.91-1.1-5.88-2.33-8.65-.24-.55-.48-1.01-1.06-1.23-.6-1.53-.47-3.15-.5-4.74.05-.71.1-1.42.16-2.25.78.52,1,1.25,1.23,1.9,1.84,5.12,3.39,10.37,3.94,15.77.53,5.16.31,10.38-1.44,15.42-1.25,3.6-2.65,7.14-3.55,10.87-1.14,4.67-.86,9.16.84,13.59,1.93,5.04,5.68,8.18,10.65,10.04,3.57,1.34,7.28,2.22,10.97,3.15,4.95,1.26,9.84,2.74,14.8,3.92,7.16,1.7,14.38,3.09,21.65,4.29,9.26,1.51,18.54,2.93,27.61,5.38,6.91,1.86,13.62,4.33,20.4,6.6,4.46,1.5,9,2.78,13.64,3.5,6.41.99,12.76.74,18.81-2,.54-.24,1.08-.34,1.65-.33Z"/>
      <path class="cls-17" d="m358.48,570.36c-3.49.7-6.99.67-10.48-.02,3.49,0,6.99,0,10.48.02Z"/>
      <path class="cls-17" d="m361.82,569.84c-.59.5-1.3.45-2.01.41.57-.67,1.31-.44,2.01-.41Z"/>
      <path class="cls-34" d="m9.19,451.1c-.44-.64-.41-1.35-.27-2.07.52.64.28,1.37.27,2.07Z"/>
      <path class="cls-29" d="m58.62,545.78c-.57.05-1.11.03-1.56-.39.56-.03,1.14-.15,1.56.39Z"/>
      <path class="cls-29" d="m64.97,547.24c-.56.07-1.09,0-1.53-.39.55-.03,1.12-.14,1.53.39Z"/>
      <path class="cls-34" d="m9.68,455.97c-.37-.47-.42-1-.27-1.56.44.46.31,1.02.27,1.56Z"/>
      <path class="cls-17" d="m365.7,568.84c-.42.42-.93.52-1.49.45.37-.55.93-.5,1.49-.45Z"/>
      <path class="cls-29" d="m46.89,542.88c-.57.05-1.09-.04-1.53-.44.56-.02,1.14-.13,1.53.44Z"/>
      <path class="cls-81" d="m162.94,487.55c-.86-1.45-1.96-2.7-3.2-3.84-.44-1.34-1.7-2.12-2.29-3.37.83-.22,1.61.06,2.41.19,2.67.44,5.36.53,8.02.04,10.34-1.91,15.52-10.35,12.67-20.5-1.14-4.07-3.26-7.61-5.87-10.88-2.71-3.39-5.86-6.33-9.23-9.04-7.99-6.43-16.16-12.63-24.03-19.21-7.12-5.95-14.13-12.03-21.02-18.26-.48-.43-1-.81-1.5-1.22-1.4-.45-2.32-1.53-3.35-2.49-4.35-2.59-5.44-6.46-4.9-11.29.43-3.84-.17-7.75.24-11.62,1.48-23.82,7.63-46.45,17.37-68.16,2.59-5.78,5.29-11.52,8.62-16.92,8.77-9.03,19.03-15.95,30.28-21.49.82-.4,2.15-.7,1.95-1.85-.18-.97-1.46-.82-2.31-.96-2.9-.48-5.77-1.03-8.51-2.11-5.18-2.03-8.98-8.16-8.3-13.34.96-4.16,2.84-7.95,4.79-11.7,2.94-5.64,6.54-10.87,10.18-16.07,2.01-2.87,4.03-5.72,6-8.61,2.53-3.7,4.47-7.71,5.99-11.92,1.73-.61,2.05.88,2.57,1.84,3.17,5.94,7.02,11.37,11.98,15.93,4.99,4.59,10.22,8.81,17,10.64,5.17,1.39,9.98.52,14.7-1.63,4.98-2.27,9.35-5.6,14.09-8.29,7.43-4.21,15.18-7.86,22.05-13.02,2.93-2.21,5.71-4.58,8.45-7.01,4.54-4.04,9.52-6.38,15.82-5.1,2.36.48,4.87.38,7.21-.63.65-.28,1.36-.65,2.07-.08.24.33.54.62.71.98,5.16,10.6,11.05,20.86,15.23,31.92,3.89,10.3,6.85,20.86,8.55,31.76.2,1.28.49,2.44,1.48,3.49,14.43,15.3,23.53,33.41,28.24,53.83,3.31,14.38,4.3,28.96,4.07,43.67-.2,13.22-1.54,26.34-3.25,39.43-.38.34-.85.57-1.32.51-3.93-.58-8,.3-11.85-1.22-.88-.35-1.89-.3-2.82.06l-.98.08c-.98.88-2.24.76-3.41.94-.83.2-1.55.57-2.01,1.33-2.77,2.36-3.26,5.57-3.34,8.93-.14.76-.25,1.53-.1,2.3-.46,1.34-.02,2.73-.27,4.08-.3,1.2-.14,2.43-.16,3.64-.05,2.69-.27,2.96-2.99,3.49-1.6.31-3.21.52-4.8.85-7.47,1.57-11.38,6.51-11.58,14.14-.19,7.04,1.31,13.91,1.71,20.88.22,3.81.65,7.61.71,11.42.03,2.11.69,4.17.38,6.29-8.15,8.14-16.99,15.44-26.72,21.62-13.87,8.82-29.04,13.74-45.41,15.07-19.88,1.62-38.72-2.02-56.57-10.91-.15-.07-.3-.13-.45-.19-.93-.48-1.66-1.15-2.25-2.03-1.09-1.63-1.96-3.45-3.53-4.73-.73-1.96-2.26-3.41-3.5-5-.82-1.04-1.42-2.33-2.55-3.13-.64-.34-1.22-.72-1.18-1.57Z"/>
      <path class="cls-88" d="m88.53,389.76c2.29.34,4.39,1.14,6.29,2.47,5.37,3.76,8.82,9.07,11.75,14.77,2.68,5.22,5.43,10.4,8.22,15.56.68,1.26,1.56,2.2,3,2.68,2.22.74,3.04,2.86,4.09,4.66,3.12,5.35,5.99,10.84,9.21,16.13,6.24,10.22,13.22,19.97,19.39,30.24,2.99,4.98,5.76,10.03,7.62,15.54.81,2.4,1.4,4.82,1.48,7.39.08,2.6.67,5.16,1.12,7.73,1.14,6.56,1.44,13.09-.78,19.55-3.68,10.7-14.71,18.73-26.04,19.07-6.9.21-13.51-1.18-19.77-3.8-15.98-6.69-32.77-10.24-49.69-13.39-13-2.42-25.54-6.62-38.36-9.74-2.9-.71-5.46-2.17-7.49-4.39-2.79-3.06-4.09-6.57-3.22-10.78.92-4.43,2.83-8.5,4.42-12.68,2.16-5.64,2.44-11.44,1.76-17.33-.84-7.22-3.26-14.13-4.34-21.31-.44-2.92-.53-5.87-.04-8.77,1.3-7.8,7.07-12.75,15.08-13.1,5.38-.24,10.72.45,16.08.73,8.71.46,16.71-2.33,20.45-11.72,1.7-4.27,2.54-8.75,3.43-13.23.78-3.96,2.06-7.72,4.48-11,2.96-4,6.98-5.64,11.88-5.26Z"/>
      <path class="cls-34" d="m88.53,389.76c-1.74.36-3.5.63-5.22,1.15-3.4,1.03-5.66,3.33-7.37,6.31-2.02,3.51-2.9,7.38-3.61,11.31-.84,4.64-1.85,9.25-4.13,13.43-3.16,5.78-8.18,8.61-14.69,9.54-3.63.52-7.13,0-10.63-.24-3.41-.24-6.81-.37-10.21-.33-4.1.05-7.82,1.26-10.82,4.23-2.54,2.52-3.9,5.65-4.22,9.1-.33,3.55-.16,7.14.68,10.65,1.01,4.25,2.01,8.51,2.95,12.78,1.07,4.86,1.5,9.79,1.16,14.75-.28,4.17-1.8,8.04-3.32,11.89-1.25,3.17-2.52,6.31-3.2,9.69-.73,3.62.5,6.56,2.63,9.24,2.22,2.79,5.33,4.29,8.71,5.06,10.51,2.4,20.75,5.85,31.28,8.14,6.16,1.34,12.36,2.54,18.55,3.73,8.92,1.72,17.76,3.75,26.31,6.87,5.19,1.89,10.3,3.99,15.56,5.67,5.22,1.67,10.6,2.63,16.06,2.08,6.36-.64,12.05-3.06,16.89-7.37,5.03-4.48,7.92-10.15,8.77-16.68.58-4.4.44-8.93-.5-13.35-.7-3.25-1.21-6.51-1.34-9.85-.12-2.95-1.36-5.66-2.38-8.4-2.06-5.52-5.26-10.43-8.29-15.44-4-6.61-8.4-12.94-12.6-19.41-4.29-6.61-8.37-13.34-12.08-20.3-1.26-2.36-2.55-4.71-4.12-6.9-.56-.79-1.23-1.53-2.11-1.42-1.3.16-1.74-.71-2.27-1.46-.65-.92-1.2-1.93-1.73-2.94-2.3-4.4-4.6-8.8-6.85-13.22-2.71-5.32-5.88-10.3-10.35-14.35-.48-.43-1.01-.84-1.23-1.49,4.3,2.02,7.5,5.36,10.35,9,3.3,4.21,6.31,8.64,9.44,12.98,1.26,1.75,2.5,3.51,3.75,5.26,5.22,11.4,11.55,22.18,18.28,32.73,7.03,11.02,14.35,21.88,20.43,33.48.47.89,1.26,1.76.81,2.93.17,2.25,1.43,4.13,2.2,6.15,1.61,4.18,3.19,8.35,4.26,12.69.62,2.5,1.09,5.07,1.29,7.64.12,1.54.63,3.04.54,4.58-.25,4.21-.74,8.38-2.14,12.4-1.25,3.6-3.29,6.74-5.72,9.56-2.39,2.77-5.41,4.89-8.78,6.44-5.87,2.69-11.98,2.97-18.32,2.38-8.13-.76-15.55-3.9-23.18-6.35-5.95-1.9-11.87-3.91-17.97-5.32-5.44-1.26-10.92-2.28-16.43-3.19-10.23-1.69-20.37-3.77-30.39-6.43-5.95-1.58-11.89-3.23-17.82-4.92-3.15-.9-6.07-2.3-8.57-4.46-1.83-1.57-3-3.61-3.94-5.79-1.56-3.64-1.56-7.4-.83-11.23.89-4.66,2.94-8.94,4.35-13.43,1.22-3.91,1.93-7.93,1.54-11.99-.44-4.59-1.37-9.12-2.56-13.58-.88-3.29-1.88-6.57-2.43-9.92-.44-2.66-.68-5.38-.41-8.15.22-2.28.48-4.51,1.21-6.67,1.93-5.69,5.8-9.48,11.39-11.56,2.76-1.03,5.61-1.42,8.57-1.51,5.54-.18,11.02.71,16.56.56,7.11-.19,12.5-4.25,14.83-10.3,1.5-3.9,2.06-8,3.25-11.95.63-2.1,1.23-4.2,1.8-6.32.12-.46.09-.96.13-1.44,2.28-3.64,5.69-5.65,9.73-6.75.48-.32,1.09-.04,1.57-.37,2.33-.31,4.66-.53,6.93.38Z"/>
      <path class="cls-73" d="m178.86,179.89c-.06-.15-.05-.29.05-.42,1.3-.26,1.87.81,2.6,1.49,4.24,3.96,7.69,8.63,11.39,13.07,7.78,9.34,17.71,13.01,29.69,11.85,12.7-1.23,23.84-6.15,33.99-13.68,6.43-4.78,13.19-8.99,21.02-11.19,2.06-.58,3.91-1.59,5.45-3.13.5-.5,1.03-1.09,1.9-.83,1.13,1.42,1.72,3.13,2.36,4.78,1.01,2.64,2.38,5.14,3.01,7.93-1.88,2.4-4.51,3-7.25,2.45-5.85-1.18-11.06.44-15.22,4.23-10.43,9.48-22.54,16.27-34.78,22.93-3.15,1.71-6.11,3.75-9.2,5.57-7.99,4.71-15.58,3.69-22.87-1.48-10.47-7.41-17.77-17.1-21.1-29.62-.33-1.25-.54-2.56-1.43-3.59-.21-1.8-.08-3.59.03-5.39.52-1.62-.15-3.34.38-4.96Z"/>
      <path class="cls-59" d="m204.82,128.2c2.96-.84,5.78-2.15,8.82-2.74.8-.15,1.57-.42,2.4-.31.62.53.72,1.26.75,1.99.56,12.35,1.02,24.7.12,37.04-.38,5.14.66,10.22.44,15.35-.03.73.07,1.46-.02,2.19-.17,1.01-.97,1.21-1.79,1.31-6.98.83-13.88.57-20.58-1.8-1.44-.51-2.95-.97-3.76-2.47-.74-3.53-.58-7.14-.7-10.69-.33-9.92-.27-19.86-.04-29.79.14-1.5,1.1-2.45,2.22-3.3,2.44-1.86,5.01-3.53,7.58-5.19,1.62-.25,2.75-1.91,4.56-1.6Z"/>
      <path class="cls-60" d="m286.51,151.52c1.67,2.61,1.31,5.48.75,8.23-.67,3.33-1.44,6.64-1.82,10.02-.18,1.65-1,3.06-1.92,4.41-.93,2.19-2.96,3.1-4.95,3.67-8.83,2.54-16.06,7.8-23.14,13.34-.9.7-1.73,1.51-2.96,1.61-4.32.8-8.53,2.11-12.9,2.67-5.42.7-10.85.81-16.27-.02-4.03-.61-8-1.5-12.01-2.21-2.76-.48-5.33-1.49-7.71-2.96-1.2-.74-2.42-1.65-2.06-3.28.38-1.73,1.95-1.87,3.33-1.8,8.39.46,16.51-1.34,24.62-3.02,12.13-2.51,22.84-7.91,31.91-16.44,3.1-2.91,6.57-5.32,10.44-7.12,1.06-.49,2.37-.83,2.63-2.29.22-1.1-1.05-1.26-1.32-2.05.79-1.16,1.79-.88,2.77-.35,3.55,1.91,8.22.85,10.59-2.43Z"/>
      <path class="cls-52" d="m286.89,108.57c.99,5.13.86,10.29.45,15.46-.04.55-.24,1.1-.37,1.64-1.29,3.32-2.87,6.5-5.03,9.34-2.73,3.58-6.52,4.54-10.79,4-1.24-.16-2.38-.62-2.53-2.15.38-1.26,1.49-1.91,2.38-2.71,7.6-6.87,7.21-23.82-3.69-29.98-8.86-5.01-17.01.17-19.65,9.49-1.04,3.67-.51,7.45-.63,11.18-.01.61.06,1.22.16,1.82.02.25-.02.49-.11.73-.9,1.14-1.87.48-2.8.08-2.37-1-4.52-2.39-6.6-3.9-1-.95-1.51-2.15-1.7-3.49-1.42-8.12.45-15.63,4.19-22.79,1.88-1.86,4.44-1.96,6.78-2.62,2.88-.48,5.75-1.01,8.69-1,3.04.1,6.06.34,9.01,1.07,4.45,1,8.68,2.59,12.64,4.87,2.93,1.74,5.46,4.03,8.18,6.06,1.04.78,1.24,1.79,1.42,2.9Z"/>
      <path class="cls-43" d="m409.1,426.35c.4,3.79-1.5,6.94-3.03,10.12-1.44,2.99-3.22,5.82-4.99,8.64-5.17,8.22-12.18,14.18-21.81,16.33-7.93,1.77-15.03-.16-21.03-5.89-4.86-4.64-7.81-10.43-9.75-16.64-1.83-5.86-2.12-11.91-.02-17.92.73-2.09,2.24-3.53,3.42-5.25-.67-1.42-1.29-2.84.53-3.92.12,3.89,0,7.79.9,11.63.43,1.83,1.13,3.55,1.66,5.34.44,2.71.4,5.49,1.63,8.07,3.76,7.84,12.95,12.81,21.63,11.33,7.97-1.35,14.5-5.1,18.76-12.24.38-.64.82-1.21,1.39-1.69,3.77-2.36,7.29-5.06,10.7-7.91Z"/>
      <path class="cls-8" d="m178.45,190.24c1.36.02,1.45,1.16,1.69,2.05.83,3.14,1.87,6.21,3.09,9.22,1.51,3.72,3.77,7,6.17,10.16,1.66,2.19,3.48,4.29,5.55,6.12,3.16,2.8,6.42,5.42,10.21,7.39,5.64,2.93,11.14,2.84,16.76.05,3.28-1.63,6.26-3.76,9.43-5.57,2.89-1.65,5.71-3.43,8.66-4.94,7.02-3.6,13.76-7.64,19.94-12.54,2.6-2.06,4.92-4.47,7.59-6.44,3.72-2.74,7.76-4.72,12.57-4.53.73.03,1.44.16,2.16.29,2.37.46,4.7.42,6.73-1.16.4-.31.79-.57,1.31-.58.88,1.94,2.19,3.68,2.56,5.85-2.72,1.2-5.53,1.72-8.52,1.52-1.15-.08-2.21-.48-3.35-.55-4.99-.32-8.98,1.85-12.49,5.05-6.62,6.04-13.84,11.21-21.79,15.37-5.96,3.12-11.84,6.41-17.47,10.13-4.17,2.76-8.64,4.87-13.63,5.55-3.88.53-7.59-.48-11.11-2.01-3.89-1.7-7.26-4.21-10.54-6.91-4.75-3.92-8.69-8.49-12.03-13.6-1.15-1.76-2.11-3.65-3.15-5.48-.43-.77-.69-1.71-1.84-1.7.34-1.79.67-3.59,1.01-5.38.57-1.29-.11-2.71.41-4,.03-1.11.06-2.22.09-3.33Z"/>
      <path class="cls-46" d="m229.97,125.11c.26.04.52.08.78.11.41.4,1.05.01,1.45.44.33,0,.67,0,1,0,1.23.23,2.45.46,3.6.99,1.2.52,2.41,1.02,3.68,1.38,2.04,1.1,4.73,1.31,5.54,4.08.33,4.85.02,9.7.88,14.56.56,3.12-.69,6.42-.73,9.67-.05,4.64,0,9.27-.02,13.91,0,1.14.07,2.28-.25,3.39-.35,1.01-1.19,1.5-2.06,1.95-5.16,2.64-10.66,4.27-16.34,5.33-.81.15-1.62.15-2.35-.31-.47-.37-.83-.89-.81-1.45.1-2.54-1.32-3.92-3.35-5.17-2.56-1.57-3.28-4.15-2.87-7.02.54-3.74,1.68-7.33,3.4-10.66,2.83-5.46,3.05-11.26,2.45-17.14-.42-4.15-.23-8.29-.27-12.44-.02-1.88.8-2.76,2.76-2.09.46-.13.91-.07,1.35.09.67.41,1.47.05,2.16.37Z"/>
      <path class="cls-52" d="m203.39,95.74c.92.49,1.23,1.47,1.71,2.29,3.58,6.19,5.12,12.95,5.56,20.02.06.93-.09,1.74-.7,2.5-.81,1.01-1.53,2.1-2.29,3.15-.6.4-1.19.81-1.84,1.12-3.28,1.55-4.12,1.14-4.85-2.38-.81-3.63-1.24-7.34-3.06-10.73-1.31-2.44-3.05-4.41-5.22-6.01-4.64-3.41-10.13-1.98-12.17,3.43-3.4,9.04-2.64,17.55,4.13,24.99.54.59,1.29,1.03,1.35,1.95-1.56,3.22-3.94,3.76-6.54,1.41-1.47-1.32-2.53-3-3.35-4.77-5.68-12.35-5.76-24.68.37-36.92.88-1.76,2.03-3.35,3.34-4.79.79-.86,1.68-1.91,3.08-.89.16,1.37-.79,2.26-1.49,3.21-1.44,1.95-2.69,4-4,6.39,6.57-4.58,13.58-5.26,20.94-4.1.48.08.97.06,1.46.11,1.19.2,2.38.58,3.57.01Z"/>
      <path class="cls-38" d="m225.38,180.54c7.04-1.05,13.78-3.03,20-6.57.74-1.04,1.96-1.44,2.9-2.22,7.35-4.51,14.31-9.53,20.42-15.68,1.43-.81,2.54-2.48,4.56-1.7,1,.11,2.17.01,1.95,1.61-.51,1.09-1.39,1.84-2.45,2.28-5.18,2.19-9.35,5.78-13.51,9.45-8.61,7.57-18.71,12.26-29.88,14.61-6.8,1.43-13.6,2.92-20.59,3.21-2.84.12-5.67-.35-8.52-.05-.64.07-1.3-.02-1.95.04-.88.08-2-.06-2.41.83-.46.99.54,1.61,1.14,2.22,5.29,5.43,11.89,8.5,19.17,10.09,5.55,1.21,11.19,2,16.93,1.29,1.33-.16,2.81-.17,3.56,1.4-.25.57-.76.85-1.3,1.03-9.95,3.3-19.93,4.82-29.98.39-5.36-2.36-9.51-6.16-13.01-10.76-3.94-5.18-7.61-10.57-12.29-15.14-.36-.35-.53-.81-.7-1.27-1.43-1.29-3.01-2.37-4.63-3.4-1.26-.79-2.72-1.43-3.34-2.96,1.72-1.39,3.48-.26,5.21-.05.86.11,1.68.46,2.46.85,4.35,2.69,8.49,5.7,12.51,8.87,3.9,2.12,8.12,2.95,12.48,3.54,3.82.51,7.57,0,11.35-.11.56-.02,1.14.03,1.6-.41.44-.57,1.09-.59,1.72-.67.62-.02,1.22-.11,1.82-.3,1.59-.2,3.13-.94,4.78-.44Z"/>
      <path class="cls-56" d="m191.64,178.93c-2.1-.74-3.81-2.15-5.6-3.4-2.26-1.58-4.46-3.23-6.68-4.85-.93-1.02-1.2-2.26-1.21-3.6-.05-5.26-.03-10.53,0-15.79,0-1.06.17-2.1.8-3,.57-.84,1.55-1.34,1.96-2.32-.1-.36.07-.65.34-.82,3.13-2.04,5.5-4.92,8.18-7.47.51-.3,1.03-.57,1.66-.39.02,8.45.1,16.91.02,25.36-.05,5.44.84,10.84.54,16.28Z"/>
      <path class="cls-79" d="m219.02,181.79c-.65.05-1.3.1-1.95.16-.34-.27-.53-.63-.51-1.06.29-5.45-.99-10.87-.46-16.3.89-9.1.32-18.2.38-27.3.03-4.04-.58-8.09-.45-12.15,0,0,0,0,0,0,.76-.49,1.7.07,2.47-.41,2.65-.42,5.3-.78,7.96-.1-2.04.28-2.07.28-2.08,2.09-.02,3.34-.25,6.7.07,10.01.27,2.68.25,5.34.44,8.01.29,4.13-.89,7.87-2.61,11.5-1.71,3.61-3.05,7.37-3.59,11.32-.32,2.32.43,4.51,2.56,5.92.47.31,1.01.53,1.51.8,1.44.79,2.45,1.81,2.12,3.66-.16.9.05,1.78.51,2.59-1.59.56-3.21.9-4.9.91-.43.37-1.01.08-1.46.34Z"/>
      <path class="cls-65" d="m110.89,376.08c.22,2.1-.02,4.2-.09,6.3-.11,3.32.04,6.63.1,9.95.02,1.06.36,1.83,1.12,2.54,1.46,1.38,3.05,2.63,4.31,4.22-1.08.94-2.17.34-3.22-.02-5.51-1.9-8.89-6.11-11.73-10.89-1.42-2.38-2.65-4.86-4.25-7.13-1.53-2.17-3.51-3.82-5.47-5.55-2.17-1.92-2.55-3.75-.72-5.74,4.85-5.27,5.29-11.67,4.57-18.14-.81-7.26.18-14.14,2.9-20.81,4.4-10.78,7.9-21.94,13.23-32.34,3.41-6.67,8.09-12.39,13.32-17.7.69-.7,1.39-1.73,2.69-1.04-3.1,3.7-5.36,7.94-7.79,12.07-4.51,7.66-8.34,15.66-11.98,23.77-.9,2-2,3.92-3.17,5.78-1.42,2.26-2.18,4.72-2.49,7.33-.96,8.07-2.01,16.12-2.64,24.24-.4,5.13-.16,10.26-.42,15.38-1.99-1.17-.57-3.07-1.08-4.6-.48,2.16-1.54,4.07-2.75,5.92-1.63,2.49-1.61,2.85.56,4.99,3.47,3.41,6.09,7.39,8.17,11.76-.55,2.83-.46,3.01,2.19,4.59,1.24.74,2.48,1.48,3.68,2.2.79-.42.49-1.06.49-1.57.02-4.05-.02-8.11.04-12.16.02-1.11-.19-2.28.45-3.32Z"/>
      <path class="cls-91" d="m262.51,49.56c-.16-2.51.59-4.8,1.1-7.05.52-2.28-.03-4.35-.3-6.48-.12-.95-.12-1.96-.43-2.87-.8-2.35,0-4.46.76-6.6,1.59-4.49,6.73-5.96,10.95-4.7,3.04.9,5.59,2.68,7.87,4.74,3.47,3.15,7,6.27,9.74,10.14,1.37,1.94,2.62,3.92,3.29,6.22.96,3.28-.97,5.81-4.42,5.93-1.17.04-2.24-.35-3.36-.51-3.56-.52-6.54.79-9.25,2.91-1.8,1.41-3.79,2.5-5.82,3.52-1.82.91-3.75,1.07-5.71.88-2.2-.21-4.2-2.32-4.41-4.54-.05-.57,0-1.14,0-1.59Z"/>
      <path class="cls-18" d="m127.63,279.73c-2.15.53-3.25,2.4-4.55,3.87-2.74,3.09-5.43,6.22-7.71,9.7-3.5,5.34-6.02,11.14-8.34,17.04-3.03,7.7-6,15.43-9,23.14-.77,1.98-1.18,4.05-1.56,6.12-.57,3.12-1.06,6.3-.6,9.44.37,2.52.34,5.02.4,7.53.12,5.07-1.23,9.58-4.77,13.37-1.65,1.76-1.63,3.32.3,4.79,3.91,2.98,6.71,6.78,8.98,11.05.99,1.86,1.96,3.75,3.29,5.41,2.66,3.33,5.54,6.39,9.88,7.53.79.21,1.55.46,2.38.38.95.69,1.9,1.38,2.56,2.39-6.72.45-11.62-2.82-15.73-7.7-2.53-3-4.06-6.63-6.12-9.93-1.75-2.8-3.93-5.15-6.61-7.06-.39-.28-.69-.69-1.07-.99-2.84-2.25-2.28-4.55-.26-6.89.9-1.04,1.92-1.96,2.69-3.13,1.35-2.03,1.91-4.22,2.08-6.63.32-4.61-.08-9.21-.1-13.82-.02-4.39.92-8.54,2.25-12.63,2.15-6.64,5.18-12.96,7.54-19.53,1.98-5.51,4.34-10.86,7.03-16.07,2.02-3.92,4.67-7.38,7.3-10.89,2.06-2.75,4.72-4.9,6.85-7.59,1.09-1.38,2.68-2.61,4.65-2.93.36-.06.65-.02.86.26.22.3.18.67-.07.89-.97.87-1.27,2.31-2.53,2.91Z"/>
      <path class="cls-69" d="m149.99,251.25c.84,4.84,2.37,9.31,6.89,12.01,2.18,1.3,4.67,1.8,7.13,2.29,1.74.35,3.5.6,5.22,1.01,1.42.33,1.54.92.57,1.99-.68.75-1.58,1.12-2.45,1.56-5.13,2.62-10.17,5.41-14.96,8.59-4.25,2.82-8.22,6.04-11.77,9.74-1.07,1.11-2.18,2.17-3.74,2.56,1.5-3.43,3.62-6.51,5.54-9.69,1.3-2.15,2.67-4.27,4.11-6.33.84-1.19,1.17-2.38,1.06-3.85-.47-6.46.19-12.81,1.98-19.04.09-.3.28-.56.43-.84Z"/>
      <path class="cls-44" d="m10.72,517.47c.84,1.08,1.68,2.17,2.52,3.25,2.96,3.78,7.14,5.62,11.54,6.86,7.79,2.19,15.65,4.16,23.51,6.07,6.67,1.61,13.42,2.84,20.21,3.95,10.6,1.72,21.25,3.34,31.58,6.39,6.07,1.79,12.01,4,18.04,5.94,4.7,1.51,9.46,2.68,14.39,3.36,5.61.78,10.96.21,16.26-1.56,1-.33,1.99-.69,2.75-1.48,0,0,0,0,0,0,3.73-2.02,7.18-4.39,9.78-7.83h0c5.38-7.14,7.4-15.19,6.71-24.05-.66-8.49-3.71-16.27-6.9-24.01-3.14-7.61-7.53-14.59-11.27-21.9-.55-1.07-1.64-2.15-.7-3.57,1.64,2.07,3.06,4.28,4.32,6.6-.08.96.42,1.72.82,2.52,2,4.01,4.09,7.97,5.99,12.03,3.69,7.87,7.29,15.78,9.03,24.38,2.11,10.45.77,20.33-5.88,28.88-5.1,6.56-11.92,10.58-20.31,11.91-6.36,1-12.4-.21-18.44-1.78-.67-.17-1.51,0-2-.72-5.07-1.56-10.08-3.3-15.1-5-.98-.33-2-.56-2.99-.87h0c-2.26-.73-4.55-1.34-6.84-1.96h0c-.56-.55-1.39.03-1.96-.49h0c-1.44-.45-2.95-.56-4.4-.98h0c-.73-.6-1.71.08-2.44-.49h0c-1.82-.96-3.87-1.02-5.82-1.41-5.7-1.14-11.47-1.93-17.21-2.85-8.16-1.31-16.22-3.01-24.22-5.03-4.08-1.03-8.1-2.34-12.21-3.25-4.08-.91-7.97-2.23-11.64-4.2-2.7-1.45-4.99-3.34-6.36-6.17-.39-.81-.87-1.58-.77-2.53Z"/>
      <path class="cls-22" d="m398.4,434.25c-1.57,4.74-5.09,7.81-9.05,10.44-3.28,2.18-6.93,3.64-10.82,4.11-6.56.8-12.57-.67-17.58-5.26-2.18-2-4.06-4.22-5.15-7.01-.97-2.5-1.7-5.05-.81-7.75,2.96,5.25,7.54,8.32,13.24,9.96,7.42,2.13,14.73,1.78,21.97-.83,2.83-1.02,5.42-2.55,8.2-3.66Z"/>
      <path class="cls-76" d="m179.43,175.62c4.03,3.36,7.15,7.53,10.26,11.7,2.38,3.19,4.7,6.45,7.59,9.2,7.12,6.78,15.68,9.11,25.33,8.12,4.8-.5,9.42-1.61,13.92-3.34.42-.65,1.09-.95,1.77-1.24,4.34-1.88,8.56-3.97,12.36-6.82.67-.5,1.5-.61,2.21-1.02,2.14-1.18,3.96-2.83,5.88-4.32,5.76-4.47,11.87-8.28,18.96-10.32,2.23-.64,4.12-1.89,5.84-3.41.65.87,1.36,1.71,1.43,2.86-2.76,3.29-6.66,4.49-10.54,5.75-4.84,1.57-9.11,4.19-13.28,7.04-4.89,3.34-9.59,7-14.87,9.71-5.87,3.02-12.08,5.17-18.6,6.32-3.1.55-6.23,1.06-9.4.99-9.91-.21-18.35-3.77-24.94-11.28-2.88-3.29-5.48-6.82-8.34-10.13-1.86-2.14-3.83-4.21-6.08-5.97.01-1.31-.25-2.65.52-3.85Z"/>
      <path class="cls-48" d="m372.96,382.42c2.22-6.89,4.67-13.7,6.44-20.73,2.07-8.21,3.65-16.48,4.01-24.99.65-15.22-2.97-29.17-11.56-41.79-4.56-6.7-10.54-11.88-17.38-16.13-.42-.26-.8-.55-1.11-.93.69-1.64,1.68-.63,2.46-.2,3.74,2.03,7.17,4.53,10.32,7.35,10.66,9.54,17.65,21.24,19.98,35.45,2.24,13.67,1.78,27.19-2.7,40.48-2.18,6.48-4.41,12.94-6.67,19.39-.38,1.08-.71,2.18-1.67,2.92-.91.23-2.22,1.5-2.12-.83Z"/>
      <path class="cls-31" d="m372.96,382.42c.26,1.69,1.32.36,1.99.53.71-.35,1.09-1,1.32-1.69,3.49-10.22,7.56-20.26,9.7-30.9,1.51-7.54,1.51-15.14.82-22.8-.69-7.68-2.23-15.08-5.51-22.08-5.74-12.28-14.71-21.57-26.47-28.14-2.43-1.36-4.84-3.03-7.74-3.45-1.2-.33-2.18-.98-2.96-1.95.44-1.65,1.62-.97,2.53-.71,2.44.71,4.63,2,6.85,3.19,11.83,6.34,21.38,15.08,27.8,26.98,3.83,7.09,6.15,14.69,7.04,22.72.39,3.55.93,7.09.97,10.67.11,8.88-1.57,17.47-4.07,25.94-1.92,6.48-4.18,12.84-6.52,19.18-.25.67-.62,1.35-.32,2.11.31.32.64.61.97.91,7.14.79,14.16,2.29,21.18,3.75.92.19,1.99-.16,2.76.67-.1.13-.22.24-.36.31-.96.48-2.55.07-2.8,1.5-.27,1.52,1.2,2.13,2.1,3.02,2.08,2.04,4.39,3.84,6.28,6.09.62.75,1.33,1.42,2.12,2.01,1.85,1.38,3.61,1.39,5.09.06,1.28-1.16,1.52-3.11.53-4.93-.79-1.45-2.09-2.46-3.31-3.53-.64-.56-1.6-.94-1.32-2.09,1.83.62,3.31,1.8,4.75,3.03.54.46,1.07.95,1.6,1.43,2.05,4.09,1.5,7.2-1.87,10.24-1.4,1.26-2.92,2.38-4.66,3.1-2.3.96-3.74-.04-3.46-2.5.36-3.14-.79-5.55-3.01-7.61-5.59-5.19-11.72-9.32-19.59-10.1-1.05-.1-2.13-.21-3.13-.53-5.9-1.92-10.97.65-16.11,2.88-1.63.89-3.21,1.87-4.83,2.76-.54.3-1.86,1.2-1.51-.75,3.02-3.75,6.67-6.59,11.39-7.82.94-.25,1.21-.98,1.77-1.52Z"/>
      <path class="cls-37" d="m349.53,307.96c-.15-1.41.17-2.74.66-4.05.93-2.51,1.62-5.1,2.69-7.56.59-1.37,1.35-2.59,2.47-3.55,1.29-1.11,2.77-1.6,4.5-1.05,6.2,1.99,10.07,6.5,11.48,12.5,1.53,6.55-2.3,10.65-8.81,11.19-1.29.11-2.57.24-3.85.38-4.04.46-7.24-.83-8.77-4.51-.47-1.12-.25-2.24-.36-3.35Z"/>
      <path class="cls-61" d="m352.43,411.82c-.91,1.21-.22,2.63-.53,3.92-3.54.96-6.85.78-9.92-1.56-2.91-2.22-6.02-4.15-9.54-5.29-.86-.2-1.73-.34-2.57-.61-1.6-.52-1.82-1.8-.49-2.88,1.07-.88,2.44-1.2,3.68-1.75.77-.34,1.71-.55,1.81-1.7.12-1.29-.18-1.74-1.49-1.86-.48-.05-.97-.03-1.45-.05,1-.51,2.07-.3,3.11-.23,4.29.27,8.59.58,12.88.88,2.02.47,4.04.94,6.25,1.45-.74,3.24-1.45,6.43-1.74,9.68Z"/>
      <path class="cls-24" d="m149.15,468.88c-.12.97.46,1.71.86,2.49,3.1,6.08,6.32,12.11,9.32,18.24,3.39,6.94,6.18,14.12,7.94,21.66.88,3.78,1.57,7.64,1.33,11.53-.39,6.49-2.12,12.6-5.78,18.08-.42.62-.83,1.2-1.52,1.53.86-2.29,2.49-4.15,3.47-6.39,1.74-3.99,2.69-8.08,2.94-12.46.49-8.6-2.05-16.52-5.02-24.36-.95-2.5-1.96-4.98-3.03-7.44-.48-1.11-.88-2.28-1.78-3.16-3.72-7.88-8.47-15.17-13.06-22.54-4.64-7.43-9.55-14.7-14.1-22.19-2.82-4.64-5.55-9.36-7.96-14.25-1.04-2.11-2.25-4.14-3.33-6.24-.63-1.22-1.24-2.48-1.08-3.93.74.54,1.14,1.37,1.64,2.09,8.38,12.11,16.02,24.69,23.34,37.46,1.9,3.31,3.87,6.58,5.81,9.86Z"/>
      <path class="cls-15" d="m277.2,100.21c-3.12-1.51-6.19-3.11-9.55-4.07-.89-.25-2,.08-2.69-.82-.08-2.2,1.57-3.64,2.45-5.4,1.02-2.05,1.03-2.34-1.05-3.31-2.06-.97-4.11-1.95-6.39-2.33-1.66-.23-3.25-.74-4.9-1.05-.57-.11-1.34-.11-1.32-1.03,5.46-1.85,10.77-1.21,15.87,1.18,6.96,3.26,11.59,8.73,14.49,15.77-.83.64-.81.62-1.43.15-1.08-.82-1.39-2.98-3.21-2.39-1.35.43-1.28,2.35-2.27,3.32Z"/>
      <path class="cls-23" d="m379.37,382.94c-.49,0-.99,0-1.48,0-.48-1.31.38-2.33.77-3.43,4-11.44,8.58-22.76,9.75-34.95,1.68-17.63-.82-34.38-11.26-49.33-6.8-9.74-15.95-16.56-26.32-21.95-2.09-1.09-4.19-2.18-6.51-2.73-.86-.2-1.72-.58-2.61-.12-.85-.62-1.71-1.23-2.54-1.86-.31-.24-.68-.54-.51-.99.16-.42.6-.51,1.01-.54,1.95-.14,3.69.66,5.35,1.44,7.45,3.48,14.61,7.46,21.1,12.54,5.54,4.34,9.99,9.65,13.87,15.53,4.46,6.76,7.3,14.12,8.9,21.98.6,2.92.93,5.9,1.32,8.87.49,3.75.31,7.46.37,11.19.09,5.88-1.21,11.57-2.57,17.24-1.66,6.88-4.07,13.52-6.26,20.23-.75,2.31-1.88,4.49-2.38,6.89Z"/>
      <path class="cls-25" d="m273.26,154.39c-1.74.14-2.95,1.37-4.38,2.14-.91-.9-.73-2.08-.75-3.18-.07-3.93.18-7.86-.41-11.77.12-.2.22-.51.48-.48,3.45.5,6.95.86,9.97,2.88.91.35,1.82.69,2.73,1.05,3,1.18,5.12,3.12,5.6,6.48-.24,2.47-.26,2.51-2.51,3.08-1.78.45-3.56.9-5.35,1.29-.99.22-1.88.14-2.48-.92-.7-1.25-1.77-1.18-2.9-.59Z"/>
      <path class="cls-33" d="m359.8,391.76c.1,1.02.72.69,1.16.37,1.48-1.09,3.08-1.97,4.71-2.81,9.69-4.6,19.29-2.26,28.7.76,4.57,1.46,8.36,4.67,11.67,8.18,2.05,2.17,2.65,4.8,1.17,7.64-.3.58-.6,1.16-.8,1.78-.46,1.46.14,2.06,1.57,1.74,1.76-.4,3.35-1.25,4.82-2.28,3.7-2.59,6.9-5.49,6.37-10.63-.01-.13.17-.26.3-.37,1.55,1.95,2.19,3.95.98,6.41-2.22,4.49-5.98,7.19-10.34,9.19-1.9.87-3.89,1.63-6.07,1.55-2.32-.09-3.23-1.4-2.36-3.54.34-.82.73-1.62,1.34-2.31.53-.61,1.05-1.26,1.41-1.98,1.42-2.82,1-5.16-.87-6.89-3.28-3.06-7.02-5.27-11.31-6.46-6.1-1.69-12.29-3.06-18.66-2.76-4.97.24-9.61,1.56-13.15,5.42-1.21,1.32-2.62,2.44-3.56,4-.22.36-.57.84-1.35.43.97-2.73,2.36-5.23,4.26-7.44Z"/>
      <path class="cls-85" d="m182.78,90.31c-1.29-.56-1.99.4-2.6,1.16-4.16,5.2-6.31,11.21-7.2,17.77-.31,2.27-.58,4.52-.4,6.77.58,7.08,1.98,13.94,6.28,19.87.44.6.89,1.12,1.52,1.54,2.15,1.44,2.78,1.4,4.59-.47.28-.29.51-.63.76-.95.98-.33,1.31.44,1.73,1.05-.19,2.6-2.27,3.22-4.2,3.72-2.45.63-4.67.05-6.33-2.08-1.82-2.34-2.96-5.05-4.3-7.65-.04-.28-.09-.56-.13-.84-.38-.65.05-1.46-.4-2.1-.03-.27-.06-.55-.09-.82-.45-.99.13-2.11-.4-3.09-.86-7.92-1.82-15.84-.02-23.75.96-4.2,2.81-7.96,6.01-10.93,2.44-2.26,5.24-3.8,8.66-3.98.51.6.16,1.13-.14,1.66-1.17.96-1.29,3.06-3.32,3.11Z"/>
      <path class="cls-36" d="m411.63,389.8c1.13,1.63,2.96,2.49,4.26,3.96.92,1.04,1.41,2.16,1.59,3.47.23,1.67-.3,3.07-1.78,3.97-1.55.94-3.11,1.35-4.75.07-.57-.45-1.2-.83-1.7-1.37-2.71-2.9-5.46-5.76-8.63-8.17-.19-.14-.41-.33-.48-.55-.25-.8-1.51-1.3-.89-2.32.55-.91,1.36-1.62,2.6-1.49.48.05.98,0,1.46,0,2.92.31,5.68,1.15,8.31,2.45Z"/>
      <path class="cls-32" d="m329.98,187.16c.17,3.44-.76,6.17-3.1,8.4-2.32,2.22-5.65,2.8-8.53,1.32-3.43-1.77-5.95-4.52-7.76-7.86-1.63-3-3.15-6.05-4.98-8.94-1.41-2.22-1.78-4.69-1.53-7.26.23-2.41,3.28-4.57,5.77-4.02,1.18.26,2.33.66,3.34,1.42,3.14,2.33,6.61,4.12,9.96,6.11,1.25.74,2.47,1.58,3.52,2.58,2.42,2.3,3.72,5.1,3.31,8.27Z"/>
      <path class="cls-51" d="m178.94,148.3c-.01,6.35,0,12.69-.06,19.04-.01,1.17.63,2.2.48,3.35-2.59-.73-5.13-1.72-7.9-1.43-1.13-1.34-1.46-2.81-.99-4.53.34-1.25.45-2.56.69-3.83.98-5.19,3.99-9.13,7.78-12.59Z"/>
      <path class="cls-5" d="m347.08,273.89c.42-.6.92-.41,1.51-.27,2.26.56,4.08,2,6.05,3.1,5.7,3.16,11,6.94,15.46,11.69,6.92,7.37,12.08,15.8,14.76,25.67,1.19,4.39,1.81,8.84,2.4,13.33.62,4.72.53,9.43.32,14.11-.23,5.16-1.23,10.26-2.69,15.25-2.36,8.11-5.18,16.06-7.99,24.01-.35.98-.57,2.11-1.95,2.17,1.3-2.36,1.97-4.99,2.87-7.5,2.41-6.72,4.86-13.44,6.62-20.37,1.31-5.17,2.39-10.42,2.27-15.82-.06-2.52-.03-5.05,0-7.57.02-2.6-.51-5.14-.81-7.71-.23-1.93-.36-3.87-.8-5.77-1.63-7.08-4.28-13.7-8.27-19.85-5.61-8.64-12.99-15.27-21.76-20.48-.51-.3-1.12-.85-1.69-.02-2.24-1.1-4.36-2.38-6.29-3.97Z"/>
      <path class="cls-80" d="m278.17,143.98l-10.28-2.57c-2.53.1-4.84-.34-6.43-2.58,2.36-1.02,4.71-2.06,7.35-2.01.97,2.07,2.91,1.73,4.6,1.72,5.33-.01,8.27-3.37,10.47-7.7.91-1.79,1.6-3.72,3.07-5.17-.68,7.19-3.36,13.41-8.79,18.32Z"/>
      <path class="cls-78" d="m341.71,270.44c.5-1.63,1.61-.98,2.56-.64,2.61.93,5.1,2.15,7.49,3.51,4.22,2.41,8.43,4.83,12.31,7.81,6.32,4.84,11.56,10.61,15.66,17.44,2.35,3.91,4.4,7.97,5.84,12.3,1.65,5,2.47,10.18,3.14,15.41.68,5.28.51,10.56.34,15.81-.17,5.16-1.32,10.24-2.71,15.24-1.96,7.04-4.32,13.94-6.75,20.82-.57,1.6-1.44,3.1-1.7,4.81-1.12-1.1-.15-2.17.18-3.14,1.37-4.08,2.93-8.08,4.31-12.16,2.07-6.14,3.99-12.35,5.11-18.74.98-5.59,1.6-11.27,1.11-16.94-.53-6.2-1.16-12.42-2.97-18.4-2.13-7.04-5.31-13.6-9.79-19.47-1.82-2.38-3.63-4.77-5.82-6.84-4.25-4.03-8.83-7.61-13.88-10.58-2.67-1.57-5.39-3.02-8.21-4.28-1.15-.51-2.39-1.63-3.8-.44-1.12,0-1.52-1.13-2.4-1.5Z"/>
      <path class="cls-87" d="m246.85,95.25c-2.12.66-4.34,1.04-6.34,2.06-1.29,1.02-2.58,2.06-4.41,1.45.73-3.03,2.67-5.35,4.56-7.67,2.6-3.2,6.07-5.4,9.36-7.79.95-.69,2.15-.71,3.22-1.07.66.88.61,1.84.14,2.73-1.72,3.27-3.67,6.42-5.56,9.6-.21.35-.59.53-.97.69Z"/>
      <path class="cls-45" d="m419.48,396.13c0,.9-.09,1.8,0,2.69.14,1.47-.29,2.82-1.15,3.9-2.73,3.43-5.97,6.21-10.3,7.45-.16.04-.31.1-.47.13-1.85.28-2.66-.67-2-2.4.26-.68.62-1.33.97-1.97,1.72-3.24,1.03-5.43-1.23-7.97-2.01-2.27-4.69-3.71-7.19-5.38-3.97-2.66-8.55-3.39-13.09-4.18-2.7-.47-5.41-.95-8.17-1.05-2.73-.1-5.33.27-7.86,1.28-1.05.42-2.12.85-3.31.71.46-.64,1.19-.79,1.88-1.04,2.14-.77,4.34-1.35,6.41-2.32,2.04-.96,4.11-.45,6.2-.1,3.74.64,7.5,1.2,11.19,2.12,4.06,1.02,7.24,3.57,10.47,6,1.41,1.06,2.8,2.19,4.07,3.47,2.3,2.32,3.25,4.97,2.68,8.19-.24,1.38.14,1.79,1.44,1.75.24,0,.52.02.72-.09,3.46-1.97,7.1-3.76,7.88-8.31.11-.67.12-1.24-.05-1.88-.25-.93-.39-1.9-.58-2.85.91.3,1.07,1.19,1.5,1.87Z"/>
      <path class="cls-50" d="m185.7,86.97c.18-.48.66-.84.55-1.43,1.06-.64,1.75-1.66,2.65-2.47,2.42-2.18,4.38-2.07,6.35.48.93,1.21,1.68,2.56,2.46,3.88,1.15,1.95,2.23,3.93,3.96,5.47.47.42.97.87,1.1,1.55-.03.57.27.98.65,1.35,0,0-.02-.07-.02-.07-.14.49-.02,1.21-.9,1.06-.86-.15-1.71-.34-2.56-.51-1.51-.17-2.52-.76-3.27-2.31-1.68-3.5-4.68-5.19-8.59-5.38-.97-.05-2.73.54-2.37-1.64Z"/>
      <path class="cls-13" d="m246.85,95.25c1.88-3.26,3.74-6.54,5.66-9.79.61-1.03.76-2.1.72-3.24.17-.01.33-.03.5-.04,2.25.5,4.5,1.01,6.75,1.51.76.78.58,1.66.12,2.44-1.62,2.75-2.95,5.68-4.96,8.2-2.96.06-5.86.65-8.8.91Z"/>
      <path class="cls-19" d="m104.04,386.34c-.78-.38-1.21-1.05-1.59-1.79-1.95-3.79-4.46-7.16-7.56-10.1-2.01-1.91-2.03-2.29-.5-4.55,1.42-2.1,2.68-4.26,3.22-6.77.1-.46.13-.99.73-1.34.6.46.27,1.14.34,1.71.2,1.59-.38,3.25.45,4.78.04,3.78,1.36,7.09,3.76,9.99.46.56.85,1.18,1.24,1.79,1.35,2.12,1.48,4.22-.1,6.29Z"/>
      <path class="cls-6" d="m236.1,98.75c1.59-.12,2.82-1.34,4.41-1.45.11,1.13-.55,2.01-1,2.95-2.3,4.74-3.26,9.78-3.41,15.02-.05,1.71.82,3.32.47,5.05-1.96-.93-3-2.39-2.71-4.64.08-.62.14-1.26-.11-1.87-.2-3.88-.19-7.74.91-11.51.36-1.23.6-2.51,1.44-3.55Z"/>
      <path class="cls-53" d="m236.6,127c-1.24-.19-2.25-.97-3.41-1.34.45-.15,1.08-.23.66-.93-3.32-5.57-7.98-9.05-14.66-9.34-.81-.03-1.62,0-2.43-.04-.32-.02-.66-.14-.81-.47-.21-.47.13-.8.45-1,1.16-.7,2.11-1.82,3.61-1.87,1.99.65,4.08.97,6.04,1.74,5,1.98,8.55,5.5,10.82,10.31.42.9,1.28,2.1-.27,2.94Z"/>
      <path class="cls-83" d="m172.62,131.05c.93.48,1.37,1.36,1.78,2.25.75,1.63,1.69,3.14,2.73,4.61,2.61,3.7,7.99,3.25,10.07-.88,1.19-.48,1.98.01,2.54,1.05-2.82,2.78-5.35,5.89-8.85,7.9-4.85-3.82-7.19-9.03-8.27-14.93Z"/>
      <path class="cls-12" d="m236.6,127c.2-.43.46-.8.25-1.37-.44-1.23-.89-2.45-1.64-3.52-3.08-4.41-6.99-7.61-12.41-8.74-.97-.2-2.38.12-2.8-1.36,5.17-1.62,9.51-.09,13.43,3.81.13-.84.22-1.42.31-2.01.44,2.39.99,4.72,2.82,6.51.34,1.04.84,2,1.44,2.91,1.17,1.58,2.81,2.96,2.12,5.28-1.27-.29-2.38-.94-3.53-1.52Z"/>
      <path class="cls-35" d="m277.2,100.21c.17-1.94.99-3.51,2.65-4.68,1.18.95,2.18,1.97,3.01,3.18.25.36.54,1.18,1.25.43.95,2.13,1.86,4.28,2.85,6.4.5,1.06.31,2.03-.07,3.03-.47-1.23-1.39-2.05-2.4-2.87-2.36-1.92-4.71-3.86-7.29-5.49Z"/>
      <path class="cls-63" d="m207.14,84.48c.12.96-.58,1.08-.97,1.45-.44.42-.84.35-1.25-.07-.79-.82-1.6-1.62-2.4-2.42-2.7-2.71-5.46-5.34-8.86-7.18-.41-.23-1.02-.45-.8-1.03.23-.61.81-.3,1.25-.16,3.34,1.12,6.45,2.66,9.02,5.12,1.17,1.12,2.29,2.31,3.42,3.48.27.28.47.64.59.81Z"/>
      <path class="cls-64" d="m275.16,78.26c-2.2-.84-3.94-2.53-6.2-3.28-.67-.22-1.2-.89-.96-1.77.25-.91,1.73-1.97,2.64-1.77,1.11.23,2.18.64,3.18,1.18,1.48.8,3.04,1.47,4.22,2.74-.87,1.05-1.78,2.07-2.87,2.9Z"/>
      <path class="cls-3" d="m275.16,78.26c.43-1.49,1.36-2.49,2.87-2.9.19.15.39.3.58.45.5.3,1.03.56,1.47.96,1.61,1,2.6,2.62,3.89,3.93.48,2.04-.76,2.66-2.42,2.94-.44-.21-.78-.54-1.03-.95-.32-.52-.99-.62-1.34-1.1-.69-.61-1.38-1.23-2.06-1.84-.38-.48-.97-.66-1.43-1.02-.18-.15-.36-.3-.54-.45Z"/>
      <path class="cls-68" d="m281.55,83.64c.99-.82,2.23-1.45,2.42-2.94,1.93.99,2.65,2.99,3.74,4.65.58.87.05,1.71-.73,2.31-.75.56-1.37.25-1.92-.33-1.17-1.23-2.53-2.28-3.51-3.69Z"/>
      <path class="cls-89" d="m201.43,122.23c.51.41.4,1,.47,1.55.19,1.39.57,1.65,1.89,1.13,1.27-.5,2.48-1.15,3.88-1.22-.67,1.68-2.06,2.9-2.85,4.51-1.37.8-2.73,1.62-4.27,2.06-.6-2.77-.1-5.43.88-8.03Z"/>
      <path class="cls-76" d="m178.86,179.89c-.01,1.66.4,3.36-.38,4.96-.07-1.67-.29-3.35.38-4.96Z"/>
      <path class="cls-73" d="m178.37,193.56c.06,1.35.45,2.74-.41,4-.05-1.35-.07-2.7.41-4Z"/>
      <path class="cls-83" d="m171.6,124.2c.82.94.4,2.04.4,3.09-.52-.98-.47-2.04-.4-3.09Z"/>
      <path class="cls-59" d="m218.49,124.74c-.72.73-1.62.39-2.47.41.76-.52,1.61-.49,2.47-.41Z"/>
      <path class="cls-79" d="m229.97,125.11c-.74.02-1.53.31-2.16-.37.75-.08,1.5-.1,2.16.37Z"/>
      <path class="cls-68" d="m279.19,81.58c.66.1,1.19.37,1.34,1.1-.65-.12-1.16-.41-1.34-1.1Z"/>
      <path class="cls-64" d="m275.7,78.71c.73-.02,1.21.32,1.43,1.02-.67-.07-1.15-.41-1.43-1.02Z"/>
      <path class="cls-64" d="m280.08,76.77c-.68-.03-1.15-.37-1.47-.96.75-.08,1.2.29,1.47.96Z"/>
      <path class="cls-83" d="m172.09,128.11c.69.59.45,1.36.4,2.1-.48-.63-.46-1.36-.4-2.1Z"/>
      <path class="cls-52" d="m203.41,95.81c-.59-.27-1.13-.56-.65-1.35.21.45.75.75.65,1.35Z"/>
      <path class="cls-79" d="m232.19,125.66c-.53,0-1.08.09-1.45-.44.54-.04,1.08-.08,1.45.44Z"/>
      <path class="cls-42" d="m81.6,389.38c-.43.53-1,.43-1.57.37.46-.4.99-.46,1.57-.37Z"/>
      <path class="cls-21" d="m321.18,462.68c-3.42,3.75-6.93,7.4-10.78,10.72-.78-.47-1.05-1.24-1.09-2.07-.4-9.99-2.2-19.86-2.5-29.84-.21-7.19,2.83-10.61,9.88-11.87,1.43-.26,2.94-.34,3.77-1.86.2-.37.62-.51.97-.04.83,1.93-.08,3.86-.03,5.79.17,6.1.75,12.19.48,18.31-.13,3.01-.33,6.02-.23,9.03.02.65-.01,1.31-.48,1.85Z"/>
      <path class="cls-28" d="m321.15,427.48c-.26.22-.47.48-.44.82.1,1.32-.62,1.56-1.78,1.65-1.51.12-3.03.45-4.5.86-3.98,1.11-7.07,4.47-6.98,9.34.06,3.73.44,7.4.89,11.09.29,2.38.42,4.85.73,7.22.39,2.97-.02,5.99.8,8.91.19.68.09,1.45.06,2.18-.05,1.31.05,2.59.48,3.83-1.64,1.82-3.33,3.58-5.31,5.03-.8-1.55-1.02-3.19-1.06-4.93-.09-4.44-.37-8.87-.9-13.29-.21-1.76-.27-3.54-.44-5.3-.5-5.22-1.28-10.42-1.12-15.71.25-8.17,5.15-12.44,11.69-14.12,2.02-.52,4.12-.77,6.2-1,1.24-.14,1.64-.72,1.72-1.88.1-1.51-.41-3.08.42-4.52.63,1.7.14,3.47.3,5.2-.21,1.54.11,3.17-.75,4.61Z"/>
      <path class="cls-40" d="m321.15,427.48c-.01-1.51.21-3,.56-4.47.19-.16.33-.13.41.11.05,1.95.09,3.89.14,5.84.43,2.6-.23,5.26.35,7.85,0,4.03,0,8.07,0,12.1-.56,2.1.07,4.27-.35,6.38-.02.83-.04,1.66-.05,2.49-.03.96-.07,1.92-.1,2.88-.31.45-.17.97-.21,1.46,0,.21-.09.38-.26.5-.15.02-.3.03-.46.03,0-6.82.15-13.64-.09-20.45-.1-2.98-.37-5.96-.4-8.96-.02-1.95.8-3.82.47-5.79Z"/>
      <path class="cls-75" d="m321.63,462.64c.05-.16.09-.33.14-.49.14-.17.26-.17.38.03-.18,1.15.47,2.42-.52,3.45,0-1,0-1.99,0-2.99Z"/>
      <path class="cls-17" d="m315.77,507.16c0,.69.23,1.43-.42,1.99-.03-.7-.19-1.43.42-1.99Z"/>
      <path class="cls-17" d="m316.26,504.22c0,.69.23,1.43-.41,1.99-.04-.7-.18-1.42.41-1.99Z"/>
      <path class="cls-17" d="m315.28,510.09c.04.54.13,1.1-.38,1.5-.09-.56-.12-1.1.38-1.5Z"/>
      <path class="cls-55" d="m327.55,401.06c1.03-.7,2.15-1.07,3.41-.94.4,3.16-1.91,4.64-3.91,6.31.24-1.39,1.28-2.57.99-4.1-.09-.47-.06-.95-.49-1.28Z"/>
      <path class="cls-24" d="m161.3,542.41c-.11,1.4-1.28,2.05-2.14,2.83-2.27,2.06-4.55,4.16-7.63,5,1.05-1.43,2.75-1.93,4.13-2.87,2.1-1.43,3.61-3.48,5.65-4.95Z"/>
      <path class="cls-10" d="m104.59,546.82c.82-.04,1.58.12,2.37.39,4.81,1.64,9.64,3.23,14.46,4.84.45.15.97.16,1.26.64-.82.04-1.58-.12-2.37-.39-4.81-1.64-9.64-3.23-14.46-4.84-.45-.15-.97-.16-1.26-.64Z"/>
      <path class="cls-10" d="m97.74,544.86c2.41.21,4.73.73,6.84,1.96-2.4-.25-4.7-.83-6.84-1.96Z"/>
      <path class="cls-10" d="m91.39,543.39c1.55-.04,3.04.15,4.4.98-1.55.04-3.04-.15-4.4-.98Z"/>
      <path class="cls-10" d="m88.94,542.9c.82.12,1.76-.33,2.44.49-.82-.12-1.76.33-2.44-.49Z"/>
      <path class="cls-10" d="m95.79,544.37c.68.07,1.44-.23,1.96.49-.68-.07-1.44.23-1.96-.49Z"/>
      <path class="cls-47" d="m322.12,423.13c-.13-.05-.27-.09-.41-.11-.04-1.78-.07-3.57-.11-5.35.35-1.33-.08-2.75.5-4.04,0,3.17.01,6.34.02,9.51Z"/>
      <path class="cls-47" d="m322.61,436.82c-.73-2.59-.3-5.23-.35-7.86.79,1.35.27,2.83.37,4.24.08,1.2,0,2.41-.02,3.61Z"/>
      <path class="cls-47" d="m322.26,455.3c.03-2.13-.36-4.28.35-6.38-.12,2.12.47,4.29-.35,6.38Z"/>
      <path class="cls-47" d="m322.15,462.18c-.13,0-.25,0-.38-.03,0-.52-.06-1.05.34-1.47.01.5.03,1,.04,1.5Z"/>
      <path class="cls-71" d="m162.94,487.55c.53.42,1.01.88,1.18,1.57-.89,1.01.46,1.92.12,2.91-1.01-.97-1.3-2.29-1.74-3.53-.16-.46.07-.74.44-.94Z"/>
      <path class="cls-71" d="m174.01,520.89c-.88-.86-.34-1.95-.49-2.93.88.86.34,1.95.49,2.93Z"/>
      <path class="cls-71" d="m173.53,528.23c.02-.54-.09-1.12.49-1.47-.02.54.09,1.12-.49,1.47Z"/>
      <path class="cls-71" d="m173.52,516.49c-.57-.35-.47-.93-.49-1.47.57.35.47.93.49,1.47Z"/>
      <path class="cls-71" d="m173.04,531.16c.02-.54-.09-1.12.49-1.47-.02.54.09,1.12-.49,1.47Z"/>
      <path class="cls-44" d="m8.76,510.13c.57.35.47.93.49,1.47-.57-.35-.47-.93-.49-1.47Z"/>
      <path class="cls-27" d="m332.92,297.67c.05,1.1.05,2.19-1.04,2.81-1.13.65-2.26.3-3.2-.4-2.28-1.68-4.58-3.35-6.74-5.18-5.55-4.73-10.94-9.66-17.3-13.33-3.74-2.16-7.72-3.79-11.76-5.3-3.49-1.31-6.96-2.71-10.49-3.91-4.29-1.47-8.72-2.45-13.16-3.37-5.7-1.18-11.49-1.95-17.03-3.86-.54-.19-1.07-.39-1.58-.64-.46-.23-.79-.61-.74-1.16.05-.58.54-.84.99-.95,2.12-.52,4.25-.94,6.42-1.26,3.62-.53,7.26-.35,10.89-.79,2.47-.3,4.99-.51,7.49-.66,6.81-.41,13.53-1.31,19.82-4.24,4.19-1.95,6.88-5.34,8.98-9.28.73-1.36,1.41-2.75,2.32-4,.9-1.23,1.61-1.19,2.44.08.82,1.26.93,2.74,1.19,4.18.69,3.82,1.26,7.66,2.09,11.45.94,4.25,3.01,8.04,5.44,11.62,3.46,5.1,7.01,10.14,10.42,15.28,2.59,3.91,4.28,8.18,4.55,12.93Z"/>
      <path class="cls-7" d="m201.43,122.23c-.07,2.7-.21,5.39-.88,8.02-2.13,1.46-4.27,2.88-6.37,4.38-1.11.79-2.24,1.57-3.1,2.66-.44.26-.89.52-1.33.78-.84-.35-1.69-.7-2.54-1.05-.78.07-.86-.86-1.48-1.02-.45-.47-.89-.94-1.35-1.4-4.82-4.78-6.8-10.62-6.32-17.31.16-2.27.46-4.53,1.16-6.73.35-1.09.75-2.15,1.34-3.13,2.35-3.88,6.33-5.2,10.54-3.44,3.15,1.32,5.29,3.71,6.95,6.6,2.07,3.6,2.91,7.56,3.38,11.64Z"/>
      <path class="cls-30" d="m205.62,132.95c-.01.9-1.78,2.93-2.62,2.97-.83.04-1.38-.24-1.28-1.27.17-1.68,1.34-2.86,2.78-2.7.64.07,1.05.37,1.11.99Z"/>
      <path class="cls-26" d="m252.85,192.22c-4.85,4.1-10.38,6.96-16.33,9.08-1.5-.76-3-1-4.69-.49-1.05.32-2.28.29-3.39.15-4.65-.58-9.37-.6-13.91-1.93-6.87-2.02-13.23-4.94-18.26-10.25-.78-.83-1.96-1.73-1.49-2.84.44-1.05,1.95-1.04,3.02-1.04,2.75.01,5.53-.39,8.26.36.61.17,1.3.11,1.95.05,9.2-.92,18.24-2.59,27.16-5.07,8.2-2.28,15.42-6.37,22.08-11.5,2.43-1.87,4.66-4.02,7.02-6.01,1.57-1.33,3.24-2.45,5.08-3.31,2.07-.96,4.03-2.11,5.88-3.44.16,1.52-.87,2.15-2,2.72-2.25,1.13-4.56,2.16-6.6,3.67-1.89,1.4-3.71,2.87-5.45,4.47-5.37,4.92-11.4,8.8-18.09,11.72-5.62,2.45-11.47,4.06-17.46,5.11-6.61,1.16-13.2,2.69-20,2.17-.4-.03-.81,0-1.22,0-1,.01-2.08.08-2.41,1.2-.34,1.14.58,1.86,1.38,2.36,2.56,1.61,5.34,2.73,8.34,3.27,4.21.76,8.39,1.89,12.64,2.25,3.09.26,6.19.66,9.4.36,3.96-.37,7.88-.78,11.76-1.62,1.34-.29,2.69-.58,4-.99,1.1-.35,2.2-.57,3.35-.45Z"/>
      <path class="cls-7" d="m268.81,136.82c-2.31,1.19-4.78,1.82-7.35,2.08-.33.29-.75.37-1.12.22-3.63-1.42-7.44-2.52-10.41-5.25-1.27-2.16-3.01-4.12-2.99-6.85.06-.14.03-.27-.09-.38-.38-.49-.13-1.12-.38-1.63-.32-3.74-.51-7.47.43-11.15.8-3.12,2.14-5.97,4.43-8.28,3.94-3.97,8.64-5.15,13.85-3.12,6.95,2.71,10.48,8.19,11.48,15.4.35,2.49.23,5.02-.29,7.52-1.01,4.83-3.4,8.7-7.54,11.44Z"/>
      <path class="cls-92" d="m255.65,94.33c-.02-.67.2-1.23.57-1.81,1.29-2.06,2.48-4.18,3.73-6.27.47-.8.72-1.63.55-2.56,2.31.54,4.51,1.45,6.55,2.57,2.53,1.38,2.49.98,1.08,3.58-1,1.85-2.12,3.65-3.18,5.46-3.08-.5-6.19-.78-9.3-.98Z"/>
      <path class="cls-14" d="m246.93,127.02l3.29,6.67c-.74.31-1.37-.07-2.02-.33-.96-.6-2.19-.83-2.76-1.98-1.63-1.22-3.45-2.07-5.32-2.85-.24-1.95-1.85-3.35-2.12-5.28,2.28,1.28,4.39,2.86,6.83,3.86.72.3,1.43.88,2.1-.08Z"/>
      <path class="cls-14" d="m246.46,125.01c.45.47.44,1.05.38,1.63-.58-.44-.58-1.01-.38-1.63Z"/>
      <path class="cls-67" d="m219.98,166.87c.07-2.03,1.22-4.74,2.44-7.38,2.02-4.36,4.8-8.28,7.35-12.32.17-.27.37-.62.63-.71,2.52-.89,4.75-2.49,7.47-2.87,2.55-.36,4.46,1.13,4.6,3.69.09,1.83-.46,3.54-1.05,5.22-1.45,4.17-3.77,7.89-6.26,11.51-1.01,1.47-2.3,2.76-3.16,4.31-1.38,2.49-3.66,3.35-6.18,3.78-.86.14-1.67.6-2.61.43-2.27-.42-3.26-1.81-3.23-5.63Z"/>
      <path class="cls-79" d="m245.45,131.38c1.05.39,2.08.84,2.93,1.6-1.14,3.64-.9,7.37-.52,11.07.23,2.19.37,4.36,0,6.54-.47,2.77.33,5.48.29,8.23-.06,4.45-.35,8.92.28,13.36-.83.91-1.94,1.35-3.04,1.8,0-5.11.04-10.23,0-15.34-.03-3.4.36-6.76.9-10.11.15-.94.22-2.01-.06-2.89-.86-2.76-.87-5.58-.83-8.41.02-1.95.03-3.9.05-5.84Z"/>
      <path class="cls-74" d="m233.15,130.98c1.51.72,3.1,1.3,4.32,2.53.81,1.21-.01,1.82-.88,2.42h0c-1.13.42-2.26.3-3.4.06-1.53-.93-3.01-1.99-4.89-2.14-.5-.04-.79-.48-1.06-.87-.21-.5-.31-.99.1-1.45.22-.35.62-.36.95-.49.44-.41,1.09-.06,1.53-.44h1.82c.44.37,1.06.07,1.51.39Z"/>
      <path class="cls-79" d="m233.19,135.99c1.13-.02,2.27-.04,3.4-.06-1.12.81-2.25.73-3.4.06Z"/>
      <path class="cls-79" d="m236.59,135.93c.44-.75,1.23-1.38.88-2.42.93,1.39.79,1.79-.88,2.42Z"/>
      <path class="cls-79" d="m233.15,130.98c-.55.04-1.08.03-1.51-.39.55-.03,1.11-.14,1.51.39Z"/>
      <path class="cls-79" d="m227.34,131.53c-.03.49-.06.97-.1,1.45-.58-.53-.55-1.01.1-1.45Z"/>
      <path class="cls-79" d="m229.82,130.59c-.43.42-.98.45-1.53.44.39-.58.97-.47,1.53-.44Z"/>
      <path class="cls-49" d="m185.7,86.97c.23,1.31,1.27,1.06,2.11,1.02,3.52-.16,6.23,1.36,8.48,3.94.44.5.92,1.03.99,1.64.19,1.65,1.41,2.17,2.65,2.72-2.75-.18-5.48-.54-8.25-.54-5.05,0-9.57,1.53-13.7,4.35-.46.32-.93.63-1.41.93-.05.03-.16,0-.49-.04,1.79-3.91,4.32-7.25,6.7-10.68,1.25-.87,1.7-2.44,2.92-3.34Z"/>
      <path class="cls-66" d="m248.43,172.18c-1.32-.19-1.07-1.21-1.07-2.07-.01-3.97,0-7.95-.01-11.92,0-1.61.12-3.22-.38-4.82-.23-.73-.13-1.63.04-2.4.53-2.33.4-4.62.05-6.97-.45-3.05-.16-6.15-.14-9.22,0-.89.72-1.4,1.46-1.8.62.24,1.23.47,1.85.71,3.57,2.12,7.27,3.95,11.24,5.21,2.02,1.16,4.3,1.65,6.43,2.52.81,1.19,1.02,2.49,1,3.92-.06,3.73-.01,7.46,0,11.19-5.98,6.31-12.96,11.31-20.45,15.65Z"/>
      <path class="cls-59" d="m219.02,181.79c.41-.46.94-.37,1.46-.34-.41.45-.92.44-1.46.34Z"/>
      <path class="cls-57" d="m266.42,46.76c0-2.03.59-3.99.54-6.04-.06-2.45-.26-4.84-.83-7.22-.47-1.94-.33-3.85.75-5.64,1.71-2.81,4.78-3.84,7.79-2.5,1.78.79,3.53,1.67,4.99,2.98,2.95,2.66,5.94,5.29,8.28,8.55.71,1,1.22,2.09,1.56,3.28.51,1.81-.04,2.97-1.78,3.62-.15.06-.31.11-.47.13-4.14.58-7.63,2.59-10.94,5.02-1.58,1.16-3.32,1.99-5.26,2.4-2.82.6-4.53-.71-4.64-3.61-.01-.32,0-.65,0-.98Z"/>
      <path class="cls-5" d="m366.66,305.5c0,1.97-.94,3.43-2.63,4.09-2.18.85-4.47,1.43-6.82.38-1.51-.67-2.81-2.41-2.59-4.01.26-2.01.72-3.99,1.81-5.75,1.58-2.56,3.93-2.96,6.35-1.11,2.15,1.64,3.6,3.69,3.88,6.41Z"/>
      <path class="cls-48" d="m328.51,187.48c.07,2.21-.66,4.19-1.97,5.89-2.79,3.64-6.34,3.2-9.75.5-2.06-1.63-3.58-3.77-4.85-6.05-1.82-3.26-3.52-6.59-5.24-9.91-.33-.64-.58-1.34-.79-2.04-.62-1.97-.23-3.4,1.2-4.58,1.09-.9,3-.93,4.56.04,1.24.76,2.42,1.63,3.63,2.45,2.15,1.46,4.41,2.72,6.72,3.93,3.9,2.05,6.5,5.06,6.49,9.76Z"/>
      <path class="cls-90" d="m293.63,261.1c2.77-.18,5.3.52,7.71,1.86,1.34.74,2.77,1.33,4.14,2,5.1,2.49,8.52,6.68,11.73,11.09,1.96,2.69,3.78,5.48,5.18,8.53.45.98.75,1.98.95,3,.24,1.21-.43,1.76-1.65,1.52-.82-.16-1.52-.54-2.2-1-4.91-3.31-9.74-6.77-15-9.5-3.01-1.57-6.21-2.79-9.39-4.02-5.37-2.08-10.72-4.23-16.23-5.93-2.87-.88-5.75-1.69-8.62-2.56-.84-.25-2.06-.4-2.08-1.38-.03-1.09,1.29-.97,2.07-1.3,1.37-.58,2.91-.55,4.3-.63,2.59-.15,5.14-.66,7.74-.69,2.65-.03,5.3-.53,7.95-.79,1.13-.11,2.27-.13,3.4-.19Z"/>
      <path class="cls-62" d="m197.44,117.28c.21,1.94.14,3.66-1.58,4.91-1.48,1.08-2.8.7-3.21-1.14-.18-.78-.23-1.61-.31-2.4-.25-2.48-1.71-4.16-3.51-5.57-.67-.53-1.12-1.16-1.58-1.81-.69-.96-.74-1.96-.02-2.93.74-1,1.7-1.45,2.97-1.18,2.65.57,4.44,2.29,5.87,4.44,1.15,1.74,1.79,3.65,1.39,5.68Z"/>
      <path class="cls-68" d="m273.25,116.72c0,1.99-1.34,3.12-3.04,2.44-1.94-.77-3.43-2.36-5.34-3.27-.46-.22-.51-1.18-.9-1.66-.93-1.12-1.68-2.4-2.81-3.36-.82-.7-1.42-1.58-1.58-2.68-.21-1.52.77-2.68,2.2-2.52,6.01.68,10.33,5.11,11.42,10.44.05.24.03.49.04.61Z"/>
      <path class="cls-39" d="m272.8,27.34c.78-.06,1.68,0,2.46.52,3.6,2.36,7.05,4.87,9.42,8.58,1.9,2.97,1.58,4.5-1.51,5.99-2.35,1.14-4.56,2.47-6.68,3.97-1.28.91-2.71,1.49-4.2,1.88-1.45.38-2.3-.15-2.9-1.51-.54-1.23-.85-2.62-.43-3.8.83-2.32.02-4.52-.24-6.71-.2-1.62-.35-3.22-.32-4.83.05-2.72,1.55-4.1,4.41-4.08Z"/>
      <path class="cls-86" d="m326.5,188.12c0,.22.11.89-.02,1.51-.88,4.15-4.32,5.51-7.93,3.23-2.6-1.64-4.1-4.15-5.49-6.72-1.43-2.65-2.85-5.3-4.43-7.86-.56-.91-.86-1.94-1.09-2.96-.22-.94.05-1.79.9-2.35.75-.49,1.54-.43,2.33-.11.15.06.27.18.4.28,3.62,2.62,7.59,4.68,11.36,7.06,2.72,1.71,4.34,4.11,3.96,7.93Z"/>
      <path class="cls-54" d="m196.02,115.05c-.02.56.05,1.14-.23,1.67-.6,1.12-1.44,1.23-2.19.16-1.36-1.94-2.91-3.7-4.62-5.33-.59-.56-1.27-1.22-.86-2.09.49-1.07,1.57-1.04,2.56-.92,2.48.31,5.29,3.76,5.34,6.51Z"/>
      <path class="cls-77" d="m263.54,107.57c.78-.1,1.57.2,2.28.53,3.01,1.4,5.13,3.62,5.91,6.94.11.46.11.98.04,1.45-.15,1.13-.86,1.58-1.89,1.07-1.01-.5-1.98-1.13-2.83-1.86-1.92-1.64-3.41-3.67-4.86-5.72-.38-.54-.84-1.04-.43-1.75.38-.67,1.05-.67,1.78-.67Z"/>
      <path class="cls-2" d="m274.23,43.98c-1.2.1-1.73-.5-2.08-1.6-.51-1.57-.35-3.21-.77-4.79-.26-.99-.2-2.07-.48-3.11-.16-.6-.09-1.31.07-1.92.52-1.96,1.71-2.52,3.67-1.9,1.28.41,2.3,1.18,3.26,2.06.66.6,1.24,1.3,1.91,1.89,2.83,2.48,2.82,4.65-.43,6.83-1.57,1.06-3.05,2.48-5.15,2.54Z"/>
    </g>
  </g>
</svg>