<?xml version="1.0" encoding="UTF-8"?>
<svg id="Layer_2" data-name="Layer 2" xmlns="http://www.w3.org/2000/svg" viewBox="0 0 741.99 157.43">
  <defs>
    <style>
      .cls-1 {
        fill: #ececec;
      }

      .cls-1, .cls-2 {
        stroke-width: 0px;
      }

      .cls-2 {
        fill: #e8e8e8;
      }
    </style>
  </defs>
  <g id="nextjs">
    <g>
      <path class="cls-2" d="m293.21,130.92v24.16h-139.67c.07-1.42.14-2.84.21-4.26,7.95-1.77,3.92-8.1,3.95-12.07.32-45.65.2-91.29.2-137.82h134.87v23.86h-107.79v39.52h86.4v25.74h-86.39v40.87h108.22Z"/>
      <path class="cls-1" d="m153.75,150.82c-.07,1.42-.14,2.84-.21,4.26h-29.31c-31.11-38.36-63.24-77.97-98.09-120.94v121.37H0V.75h33.51c39.3,49.06,79.77,99.57,120.24,150.07Z"/>
      <path class="cls-1" d="m424.69,77.81c20.16,25.48,39.69,50.16,59.21,74.84-.19.99-.38,1.97-.58,2.96h-31.6C410.79,105.01,369.25,53.66,326.62.95h35.28c13.96,17.18,28.85,35.49,44.7,54.99,15.41-18.92,30.25-37.14,45.16-55.45h35.03c-21.39,26.64-41.78,52.02-62.1,77.32Z"/>
      <path class="cls-2" d="m651.33,19.69c-.56.43-1.13.86-1.73,1.32.54.51,1.05,1,1.55,1.48-11.04,5.59-22.82,1.35-34.2,2.47-5.41.54-10.92.09-17.85.09v130.19h-25.79c-3.26-2.72-1.76-6.64-1.77-10.06-.11-36.05.03-72.11-.2-108.16-.03-4.15,2.52-9.24-2.59-12.49-2.32-6.69-8.1-4.62-12.74-4.73-10.8-.25-21.61-.08-30.73-.08-5.09-4.96-1.2-12.34-8.3-13.65-2.12-7.1,3.01-6.02,6.95-6,41.45.14,82.89.33,124.34.51,1.02.91,2.04,1.82,3.06,2.73,1.07,5.46,1.07,10.92,0,16.38Z"/>
      <path class="cls-1" d="m397.24,111.33c-12.15,15.1-24.06,29.91-35.74,44.43h-32.05c-.02-.87-.14-1.72-.38-2.55,16.56-21.06,33.13-42.12,50.3-63.95,6.43,7.94,11.82,14.59,17.87,22.07Z"/>
      <path class="cls-2" d="m733.63,155.44c-8.1,2.98-16.2,3.04-23.3-2.74-2.45-2-4.28-4.75-4.13-9.16,8.91-3.39,18.13,16.54,27.05.73-1.44-6.72-7.33-6.27-11.83-7.69-8.26-2.59-16.38-5.3-13.32-16.58,2.3-8.47,14.53-12.39,24.28-8.17q4.86,2.1,8.43,11.16c-8.24,3.85-16.19-14.33-24.41-.57.45,6.31,5.51,6.21,9.81,7.55,6.86,2.13,14.81,3.37,15.71,12.76.61,6.27-2.63,10.63-8.29,12.71Z"/>
      <path class="cls-2" d="m688.18,156.4c-8.14,2.02-15.5.76-19.23-8.59,6.29-8.53,9.22,2.88,17.42,1.86,7.85-11.04.4-25.35,4.25-37.89,1.91-1.56,4.01-1.46,6.55-.4.29,1.02.93,2.23.94,3.46.12,8.19-.14,16.39.21,24.58.35,8.06-1.48,14.83-10.14,16.98Z"/>
      <path class="cls-1" d="m568.75,24.53h-50.53c-3.12-6.01-1.53-12.29-1.24-18.46,7.1,1.31,3.21,8.69,8.3,13.65,9.12,0,19.93-.17,30.73.08,4.64.11,10.42-1.96,12.74,4.73Z"/>
      <path class="cls-2" d="m655.77,157.02q-2.89-8.19,5.91-7.59c.9,6.14-1.93,7.32-5.91,7.59Z"/>
      <path class="cls-1" d="m651.33,3.31c-1.02-.91-2.04-1.82-3.06-2.73,2.1-.3,3.41.3,3.06,2.73Z"/>
      <path class="cls-1" d="m651.33,19.69c-.06.93-.12,1.87-.18,2.8-.5-.48-1.01-.97-1.55-1.48.6-.46,1.17-.89,1.73-1.32Z"/>
      <path class="cls-2" d="m329.45,155.76c-.99.8-1.69.6-2.12-.66.57-.62,1.15-1.25,1.74-1.89.24.83.36,1.68.38,2.55Z"/>
      <path class="cls-2" d="m485.15,155.4c-.61.07-1.22.14-1.83.21.2-.99.39-1.97.58-2.96.42.92.83,1.83,1.25,2.75Z"/>
    </g>
  </g>
</svg>