<?xml version="1.0" encoding="UTF-8"?>
<svg id="Layer_2" data-name="Layer 2" xmlns="http://www.w3.org/2000/svg" viewBox="0 0 540.4 614.47">
  <defs>
    <style>
      .cls-1 {
        fill: #03963a;
      }

      .cls-1, .cls-2 {
        stroke-width: 0px;
      }

      .cls-2 {
        fill: #f9fbfa;
      }
    </style>
  </defs>
  <g id="nginx">
    <g>
      <path class="cls-1" d="m.33,307.19c0-45,.54-90.02-.31-135.01-.27-14.39,4.1-23,16.86-30.25C96.33,96.81,175.48,51.16,254.36,5.03c11.86-6.94,20.79-6.57,32.49.27,78.86,46.11,158.02,91.72,237.4,136.93,11.75,6.69,16.21,14.4,16.12,28.08-.6,91.58-.63,183.18.02,274.76.1,13.86-4.58,21.05-16.4,27.77-78.76,44.75-157.22,90.02-235.35,135.86-13.34,7.83-23.6,7.64-36.88-.16-78.13-45.85-156.66-91.04-235.34-135.95C4.82,465.96-.25,458.39,0,444.56c.86-45.78.32-91.58.32-137.38Zm180.73-54.26c53.55,64,103.06,123.03,152.36,182.23,8.26,9.92,17.5,18.21,29.79,22.48,35.69,12.38,64.74-6.76,63.22-44.07-2.89-70.91-.82-142.02-.84-213.04-.01-32.5-11.28-48.34-34.66-48.92-24.41-.61-35.6,15-35.62,49.74-.02,45.77.16,91.55-.23,137.31-.05,5.29,4.01,12.32-3.96,16.71-18.91-22.56-37.65-44.89-56.37-67.26-32.37-38.68-64.35-77.69-97.25-115.92-16.66-19.36-43.93-25.51-64.41-17.04-22.98,9.51-23.08,29.11-23,49.48.27,71.02-.02,142.05.16,213.08.07,27.33,13.74,43.89,35.51,44.12,21.69.23,35.19-16.23,35.26-43.65.14-52.78.04-105.56.04-165.27Z"/>
      <path class="cls-2" d="m181.07,252.93c0,59.7.1,112.49-.04,165.27-.07,27.43-13.57,43.88-35.26,43.65-21.77-.23-35.44-16.79-35.51-44.12-.18-71.02.1-142.05-.16-213.08-.08-20.37.02-39.97,23-49.48,20.48-8.47,47.75-2.32,64.41,17.04,32.9,38.22,64.88,77.24,97.25,115.92,18.72,22.36,37.46,44.7,56.37,67.26,7.97-4.39,3.92-11.41,3.96-16.71.39-45.77.21-91.54.23-137.31.02-34.74,11.21-50.35,35.62-49.74,23.38.58,34.65,16.42,34.66,48.92.03,71.03-2.04,142.13.84,213.04,1.52,37.31-27.53,56.44-63.22,44.07-12.29-4.26-21.53-12.56-29.79-22.48-49.3-59.2-98.81-118.23-152.36-182.23Z"/>
    </g>
  </g>
</svg>