<?xml version="1.0" encoding="UTF-8"?>
<svg id="Layer_2" data-name="Layer 2" xmlns="http://www.w3.org/2000/svg" viewBox="0 0 490.36 300.02">
  <defs>
    <style>
      .cls-1 {
        fill: #343434;
      }

      .cls-1, .cls-2 {
        stroke-width: 0px;
      }

      .cls-2 {
        fill: #419239;
      }
    </style>
  </defs>
  <g id="node">
    <g>
      <path class="cls-1" d="m362.25,88.75c0-21.66-.07-43.33.06-64.99.03-4.3-1.32-7.13-5.26-9.17-7.86-4.07-15.51-8.54-23.25-12.82-5.58-3.09-6.7-2.4-6.7,4.14v43.33c0,7.77.03,15.53-.01,23.3-.03,4.56-1.03,5.09-5.07,2.8-2.61-1.47-5.3-2.84-7.77-4.5-3.21-2.16-6.06-2.1-9.44-.11-14.43,8.51-28.95,16.87-43.52,25.14-3.21,1.82-4.58,4.12-4.55,7.87.15,16.76.15,33.52,0,50.27-.04,3.78,1.41,6.03,4.6,7.85,14.56,8.28,29.08,16.63,43.5,25.14,3.39,2,6.16,1.81,9.46-.14,14.19-8.36,28.44-16.65,42.81-24.72,3.85-2.16,5.23-4.92,5.2-9.21-.14-21.39-.06-42.78-.06-64.18Zm-44.02,55.53c-6.37,3.92-10.92,3.85-17.48.12-6.85-3.9-9.1-8.06-9.07-15.85.03-7.52,2.31-11.42,8.79-15.18,6.58-3.8,11.28-4.06,17.86-.03,6.35,3.89,10.87,7.44,8.19,15.53,2.83,8.15-2.02,11.56-8.29,15.41Z"/>
      <path class="cls-2" d="m233.34,153.63c.05,3.21-1.04,5.38-3.87,7-14.82,8.45-29.58,17-44.33,25.57-2.77,1.61-5.29,1.56-8.05-.04-14.71-8.55-29.44-17.06-44.21-25.5-2.81-1.61-3.95-3.78-3.94-6.98.08-17.16.07-34.31.01-51.47-.01-3.04,1.1-5.08,3.78-6.62,14.89-8.5,29.73-17.08,44.55-25.7,2.63-1.53,5.03-1.58,7.67-.05,14.83,8.62,29.67,17.2,44.56,25.72,2.65,1.52,3.85,3.54,3.82,6.61-.1,8.71-.04,17.43-.04,26.14s-.08,16.89.05,25.32Z"/>
      <path class="cls-1" d="m105.5,170.69c0,5.3-1.57,6.27-6.03,3.73-8.29-4.7-16.52-9.51-24.85-14.12-3.12-1.73-4.36-4.07-4.31-7.61.14-10.22-.03-20.43.09-30.65.03-3.22-1.09-5.43-3.95-6.95-3.36-1.8-6.67-3.7-9.89-5.74-2.64-1.68-5.03-1.51-7.61.1-3,1.87-6.06,3.68-9.2,5.3-3.28,1.69-4.65,4.15-4.59,7.88.16,10.08-.05,20.16.12,30.24.05,3.59-1.3,5.81-4.4,7.52-8.34,4.61-16.56,9.44-24.85,14.13-4.08,2.32-5.76,1.38-5.78-3.35-.06-11.58-.02-23.16-.02-34.73H.04C.04,125.13.12,113.83,0,102.52c-.04-3.66,1.25-6.11,4.5-7.95,14.8-8.4,29.54-16.9,44.24-25.46,2.8-1.63,5.25-1.63,8.02-.02,14.84,8.6,29.7,17.16,44.61,25.65,2.94,1.68,4.13,3.93,4.12,7.31-.06,22.88.01,45.76.01,68.64Z"/>
      <path class="cls-1" d="m477.83,124.72c-5.47,3.31-11.04,6.48-16.59,9.66-4.28,2.45-6.59,1.38-5.74-3.51,1.82-10.47-3.04-15.85-11.98-19.88-4.29-1.94-7.11-1.89-11.48-.1-9.93,4.08-13.57,10.44-12.21,21.03.58,4.58,1.68,7.26,5.75,9.51,13.82,7.63,27.43,15.65,41.11,23.53,1.52.87,3.46,1.52,3.44,3.64-.01,2.13-1.98,2.73-3.5,3.58-8.2,4.57-16.47,9.04-24.6,13.74-3.08,1.79-5.7,1.68-8.75-.09-14.49-8.37-29.04-16.65-43.64-24.85-3.1-1.75-4.39-4.06-4.32-7.6.15-8.44.05-16.89.05-25.33s.09-16.89-.04-25.33c-.06-3.41,1.29-5.58,4.21-7.25,14.78-8.44,29.51-16.95,44.2-25.54,3.05-1.79,5.72-1.77,8.76.02,14.45,8.47,28.93,16.86,43.47,25.17,3.06,1.75,4.47,4,4.39,7.57-.41,17.89,2.48,12.96-12.53,22.03Z"/>
      <path class="cls-2" d="m296.08,264.82c0,3.89-1.61,6.85-4.95,8.79-14.26,8.28-28.53,16.52-42.8,24.78-3.76,2.17-7.47,2.19-11.21-.07-4.98-3.02-9.99-5.98-15.26-9.12,4.83-3.29,9.15-5.12,13.85-.78,1.17,1.09,2.83,1.62,4.15,2.58,1.8,1.29,3.36,1.15,5.25.04,13.39-7.85,26.83-15.64,40.31-23.35,1.89-1.08,2.67-2.28,2.65-4.49-.08-15.67-.07-31.34-.01-47.01.01-2-.58-3.25-2.36-4.26-13.61-7.76-27.2-15.56-40.72-23.47-1.96-1.14-3.41-.91-5.23.15-13.3,7.75-26.63,15.46-40.01,23.06-2.05,1.16-2.83,2.47-2.81,4.82.09,15.53.08,31.07.01,46.6-.01,2.14.53,3.53,2.53,4.56,3.51,1.81,6.85,3.94,10.3,5.85,5.86,3.25,10.8-.1,10.62-6.45-.42-15.11-.03-30.24-.21-45.37-.04-3.48,1.1-4.3,4.42-4.35,3.43-.05,4.05,1.26,4.03,4.29-.12,15.4.01,30.8-.09,46.19-.08,12.83-8.79,18.55-20.59,13.34-5.08-2.24-9.86-5.22-14.65-8.08-3.04-1.82-4.24-4.83-4.24-8.35.01-16.62,0-33.24.01-49.87,0-3.86,1.64-6.81,5-8.76,14.5-8.4,28.99-16.81,43.5-25.19,3.34-1.93,6.77-1.89,10.11.04,14.51,8.38,29.01,16.77,43.5,25.19,3.34,1.94,4.91,4.92,4.9,8.82-.03,16.62-.02,33.24,0,49.87Z"/>
      <path class="cls-2" d="m278.13,251.67c-.62,5.25-3.66,8.83-8.38,10.71-9.4,3.74-18.96,3.59-28.29-.18-5.03-2.03-8-6.02-8.37-11.62-.09-1.42-.52-3.49,1.77-3.29,2.16.2,5.5-1.79,6.28,1.75,1.34,6.09,5.64,7.57,10.86,7.83,4.21.21,8.44.51,12.59-.72,3.11-.93,5-2.81,4.99-6.12,0-3.33-2.59-4.09-5.17-4.83-4.88-1.4-9.98-1.36-14.92-2.3-2.27-.43-4.55-.9-6.73-1.63-4.61-1.53-7.73-4.41-8.19-9.6-.49-5.39,1.29-9.67,5.92-12.55,1.82-1.14,3.73-1.92,5.71-2.43.34-.08.68-.16,1.02-.23.2-.05.4-.09.61-.12.44-.09.88-.16,1.33-.21,1.72-.23,3.48-.29,5.26-.24.2.01.41.01.61.02,1.38-.06,2.75-.04,4.11.07.41.03.82.07,1.23.12.43.05.86.11,1.28.18.43.07.85.15,1.27.24.43.08.85.18,1.27.29.12.03.24.06.36.1.3.08.6.16.9.26.41.12.82.26,1.23.41,5.18,1.87,8.34,5.53,9.46,10.88.29,1.43,1.35,3.7-1.12,3.98-2.18.25-5.33,1.66-6.55-1.28-1.4-3.4-3.12-6.17-6.83-6.88-5.26-1.01-10.58-1.4-15.67.87-2.06.92-3.01,2.75-2.88,4.99.14,2.32,1.91,3.31,3.82,3.68,6.68,1.27,13.45,2.12,20.09,3.58,8.84,1.95,12.07,6.32,11.13,14.27Z"/>
      <path class="cls-2" d="m447.15,134.05c-2.83,2.05-5.8,4.87-9.19,4.89-3.39.02-6.49-2.71-9.16-4.9-2.14-1.76-.7-4.86-.83-7.35-.09-1.66-.94-3.81.78-4.96,2.93-1.95,6.09-4.85,9.17-4.86,3.06,0,6.32,2.8,9.15,4.84,2.19,1.59.39,4.38,1.09,6.33-.47,2.17.88,4.64-1.01,6.01Z"/>
    </g>
  </g>
</svg>