<?xml version="1.0" encoding="UTF-8"?>
<svg id="Layer_2" data-name="Layer 2" xmlns="http://www.w3.org/2000/svg" viewBox="0 0 684.6 265.87">
  <defs>
    <style>
      .cls-1 {
        fill: #fefefe;
      }

      .cls-1, .cls-2 {
        stroke-width: 0px;
      }

      .cls-2 {
        fill: #ca3837;
      }
    </style>
  </defs>
  <g id="npm">
    <g>
      <path class="cls-2" d="m3.68.01Q.06.01.06,3.67c0,73.66.02,147.32-.06,220.97,0,2.63.54,3.36,3.3,3.35,61.22-.09,122.44-.05,183.66-.14,2.72,0,3.39.67,3.34,3.36-.16,10.58-.07,21.17-.06,31.75.01.97.14,1.94.21,2.91h151.88c0-11.92.04-23.84-.04-35.77-.01-1.73.46-2.22,2.22-2.22,113.27.05,226.55.06,339.82.07.09,0,.18.01.27.01V0C457.63.01,230.65.01,3.68.01Zm186.7,114.21c0,24.29-.03,48.58.05,72.87.01,2.25-.4,3.05-2.88,3.01-10.87-.15-21.74-.17-32.62,0-2.66.04-2.96-.94-2.96-3.19.06-35.86.01-71.71.11-107.57.01-2.7-.64-3.39-3.35-3.35-10.51.17-21.03.15-31.54.01-2.39-.03-2.95.64-2.95,2.97.08,35.94.03,71.89.11,107.83,0,2.46-.44,3.31-3.15,3.3-23.44-.12-46.89-.11-70.33,0-2.4,0-2.89-.63-2.89-2.94.07-48.85.07-97.69,0-146.54,0-2.22.55-2.76,2.77-2.76,48.93.07,97.86.07,146.8,0,2.45-.01,2.89.7,2.88,2.97-.08,24.47-.05,48.94-.05,73.4Zm190.05,72.86c.01,2.51-.73,3.02-3.1,3.01-23.34-.09-46.69-.01-70.03-.12-2.53-.01-3.02.75-2.99,3.09.12,10.76,0,21.52.1,32.29.01,2.02-.42,2.67-2.6,2.67-23.61-.09-47.23-.1-70.84,0-2.4.01-2.93-.64-2.92-2.95.08-30.78.05-61.56.05-92.33s.03-61.2-.05-91.8c-.01-2.41.57-3.09,3.06-3.09,48.74.08,97.48.08,146.22,0,2.34,0,3.11.45,3.1,2.98-.08,48.75-.08,97.5,0,146.24Zm263.07,3.02c-10.7-.16-21.39-.17-32.08,0-2.65.04-2.98-.92-2.97-3.17.05-35.76.04-71.52.03-107.28,0-3.94.5-3.58-3.55-3.59-10.51-.01-21.03.07-31.54-.06-2.26-.03-2.79.61-2.78,2.81.07,36.02.02,72.05.11,108.08.01,2.59-.63,3.24-3.22,3.2-10.78-.15-21.56-.15-32.34,0-2.45.03-2.91-.72-2.91-3,.08-35.85.06-71.7.05-107.55,0-3.83.51-3.47-3.36-3.48-10.51-.02-21.03.06-31.54-.06-2.22-.02-2.82.58-2.82,2.8.07,35.94.05,71.88.05,107.82q0,3.41-3.45,3.41c-23.35,0-46.69-.04-70.04.06-2.4,0-2.91-.62-2.91-2.94.07-48.84.07-97.68.01-146.52-.01-2.2.53-2.79,2.76-2.78,37.16.07,74.32.05,111.48.05s74.14.03,111.21-.06c2.54-.01,2.99.76,2.99,3.09-.07,48.66-.07,97.32.01,145.98.01,2.58-.62,3.22-3.19,3.18Z"/>
      <path class="cls-1" d="m532.48,37.91c37.07,0,74.14.03,111.21-.06,2.54,0,2.99.76,2.99,3.09-.07,48.66-.07,97.32.01,145.98,0,2.58-.62,3.22-3.2,3.19-10.69-.16-21.39-.17-32.08,0-2.65.04-2.97-.92-2.97-3.17.06-35.76.05-71.52.04-107.28,0-3.93.5-3.58-3.55-3.59-10.52-.01-21.03.07-31.55-.06-2.26-.03-2.78.61-2.78,2.81.07,36.03.02,72.06.11,108.08,0,2.59-.63,3.24-3.21,3.2-10.78-.16-21.57-.15-32.35,0-2.45.03-2.91-.72-2.9-3,.07-35.85.05-71.7.04-107.55,0-3.84.52-3.48-3.35-3.48-10.52-.02-21.03.06-31.55-.06-2.22-.02-2.82.58-2.82,2.8.07,35.94.05,71.88.05,107.82q0,3.41-3.45,3.41c-23.35,0-46.7-.04-70.04.06-2.4.01-2.91-.62-2.91-2.94.07-48.84.07-97.68,0-146.51,0-2.2.53-2.79,2.76-2.78,37.16.07,74.32.05,111.48.05Z"/>
      <path class="cls-1" d="m380.43,40.84c.01-2.53-.76-2.98-3.1-2.98-48.74.07-97.48.07-146.22,0-2.49,0-3.07.68-3.06,3.09.08,30.6.05,61.2.05,91.8s.03,61.55-.05,92.33c-.01,2.31.52,2.96,2.92,2.95,23.61-.1,47.23-.09,70.84,0,2.18,0,2.61-.65,2.6-2.67-.1-10.77.02-21.53-.1-32.29-.03-2.34.46-3.1,2.99-3.09,23.34.11,46.69.03,70.03.12,2.37.01,3.11-.5,3.1-3.01-.08-48.74-.08-97.49,0-146.24Zm-38.1,73.22c0,11.74-.05,23.47.05,35.21.01,1.94-.42,2.55-2.47,2.53-11.05-.11-22.09-.11-33.14,0-2.06.02-2.46-.62-2.45-2.54.06-23.56.06-47.12,0-70.69-.01-1.94.41-2.57,2.47-2.55,11.04.1,22.08.1,33.13,0,2.07-.02,2.47.64,2.46,2.56-.09,11.83-.05,23.65-.05,35.48Z"/>
      <path class="cls-1" d="m190.38,114.22c0,24.29-.03,48.58.05,72.87,0,2.24-.4,3.05-2.88,3.01-10.87-.15-21.75-.17-32.62,0-2.67.04-2.97-.94-2.96-3.19.06-35.86,0-71.71.11-107.57,0-2.7-.64-3.4-3.34-3.35-10.51.17-21.03.15-31.55,0-2.38-.03-2.95.64-2.94,2.97.08,35.94.03,71.89.11,107.83,0,2.46-.44,3.31-3.15,3.29-23.44-.12-46.88-.11-70.32,0-2.41.01-2.9-.63-2.89-2.94.07-48.85.07-97.69,0-146.54,0-2.22.55-2.77,2.77-2.76,48.93.07,97.86.07,146.79-.01,2.45,0,2.9.7,2.89,2.97-.08,24.47-.05,48.93-.05,73.4Z"/>
      <path class="cls-2" d="m342.33,114.06c0,11.74-.05,23.47.05,35.21.02,1.95-.42,2.55-2.47,2.53-11.04-.11-22.09-.11-33.13,0-2.07.02-2.46-.62-2.46-2.54.07-23.56.07-47.12,0-70.68,0-1.94.41-2.58,2.47-2.56,11.04.1,22.09.11,33.13,0,2.08-.02,2.47.64,2.46,2.57-.09,11.82-.04,23.65-.04,35.48Z"/>
    </g>
  </g>
</svg>