<?xml version="1.0" encoding="UTF-8"?>
<svg id="Layer_2" data-name="Layer 2" xmlns="http://www.w3.org/2000/svg" viewBox="0 0 664.1 647.72">
  <defs>
    <style>
      .cls-1 {
        fill: #001e36;
      }

      .cls-1, .cls-2 {
        stroke-width: 0px;
      }

      .cls-2 {
        fill: #31a7fd;
      }
    </style>
  </defs>
  <g id="photoshop">
    <g>
      <path class="cls-1" d="m662.31,97.2c-7.9-47.83-47.43-87.39-95.23-95.27-7.3-1.2-14.61-1.83-21.99-1.83-142.06.01-284.11-.34-426.16.19C68.27.48,31.8,24.84,9.97,70.58,3.37,84.4.35,99.27.14,114.58c-.24,18.42-.09,36.85-.09,55.28-.01,119.62-.12,239.24.06,358.86.06,41.4,17.32,74.33,51.06,98.33,15.14,10.78,32.18,17.14,50.66,19.54,1.46.19,3.14-.1,4.36,1.13h449.87c3.44-1.28,7.12-1.14,10.67-1.76,48.82-8.49,87.26-46.92,95.61-95.59.58-3.35.39-6.85,1.76-10.06V106.88c-1.49-3.06-1.25-6.45-1.79-9.68Zm-313.5,213.67c-12.34,24.95-32.9,40.23-59.25,48.03-21.66,6.41-43.91,7.33-66.3,6.63-3.79-.12-7.58-.15-11.36-.33-1.75-.09-2.5.47-2.38,2.3.12,1.89.02,3.79.02,5.68,0,26.33.01,52.65,0,78.98,0,4.88-.85,5.76-5.65,5.76-16.11.02-32.22,0-48.34,0-5.67,0-6.14-.46-6.14-6.08V172.91c0-.95.02-1.9.01-2.84-.01-2.63,1.23-3.71,3.9-3.73,7.79-.06,15.58-.32,23.37-.47,24.32-.48,48.63-1.63,72.96-.78,22.12.78,43.46,5.09,62.9,16.28,26.6,15.32,41.3,38.64,45.1,68.83,2.64,20.96.63,41.52-8.84,60.67Zm199.88,88.8c-3.06,30.17-20.9,48.35-48.7,57.82-15.74,5.37-32.1,6.65-48.59,6.11-17.83-.59-35.46-2.8-52.29-9.15-12.79-4.82-10.81-4.18-10.92-15.7-.05-5.58-.01-11.16-.01-16.74,0-7.47-.02-14.95.01-22.43.01-4.67,1.17-5.37,5.1-3.19,21.77,12.1,45.21,17.37,70,16.81,5.58-.12,11.12-.84,16.4-2.9,10.82-4.24,12.73-15.01,3.98-22.65-4.35-3.79-9.58-6.07-14.75-8.41-10.82-4.89-22.26-8.31-32.84-13.79-11.9-6.18-23.31-12.88-32.48-23.05-22.61-25.09-18-64.71,4.5-86.05,12.15-11.53,26.65-18.35,43.06-20.81,26.76-4,53.29-2.86,79.26,5.31,7.12,2.24,7.27,2.8,7.27,10.42,0,13.27.01,26.53,0,39.8,0,5.18-2.55,6.75-7.34,4.4-19.94-9.79-41.16-12.98-63.13-12.3-4.01.13-7.95.97-11.74,2.25-9.32,3.14-11.95,13.52-5.34,20.77,2.8,3.08,6.29,5.22,9.93,7.17,10.51,5.62,21.79,9.42,32.76,13.95,9.83,4.07,19.27,8.96,28.18,14.78,20.78,13.59,30.18,32.94,27.68,57.58Z"/>
      <path class="cls-2" d="m357.65,250.2c-3.8-30.19-18.5-53.51-45.1-68.83-19.44-11.19-40.78-15.5-62.9-16.28-24.33-.85-48.64.3-72.96.78-7.79.15-15.58.41-23.37.47-2.67.02-3.91,1.1-3.9,3.73.01.94-.01,1.89-.01,2.84v278.94c0,5.62.47,6.08,6.14,6.08,16.12,0,32.23.01,48.34,0,4.8,0,5.65-.88,5.65-5.76.01-26.33,0-52.65,0-78.98,0-1.89.1-3.79-.02-5.68-.12-1.83.63-2.39,2.38-2.3,3.78.18,7.57.21,11.36.33,22.39.7,44.64-.22,66.3-6.63,26.35-7.8,46.91-23.08,59.25-48.03,9.47-19.15,11.48-39.71,8.84-60.67Zm-59.59,21.18c-1.6,19.38-12.86,30.85-30.51,36.86-11.03,3.76-22.48,5.29-34.13,5.19-7.05-.06-14.09.18-21.14-.4-2.12-.18-2.53-.9-2.52-2.83.07-14.62.04-29.25.04-43.87s.04-29.25-.05-43.88c-.01-2,.57-2.91,2.56-2.88,16.17.21,32.42-1.78,48.45,1.67,10.88,2.34,20.91,6.38,28.21,15.38,8.28,10.22,10.13,22.1,9.09,34.76Z"/>
      <path class="cls-2" d="m388.18,422.02c0-7.48-.02-14.95,0-22.43.02-4.68,1.17-5.38,5.1-3.2,21.78,12.1,45.21,17.37,70.01,16.81,5.57-.12,11.12-.84,16.39-2.9,10.82-4.24,12.74-15.01,3.98-22.65-4.34-3.79-9.57-6.07-14.75-8.41-10.82-4.89-22.26-8.31-32.84-13.79-11.9-6.17-23.31-12.88-32.48-23.05-22.62-25.09-18.01-64.71,4.49-86.05,12.15-11.52,26.65-18.35,43.06-20.8,26.76-4,53.29-2.87,79.26,5.3,7.12,2.24,7.27,2.81,7.27,10.43,0,13.27,0,26.53,0,39.8,0,5.18-2.55,6.75-7.34,4.4-19.94-9.78-41.17-12.97-63.13-12.29-4.01.12-7.95.96-11.74,2.24-9.32,3.14-11.95,13.52-5.34,20.78,2.8,3.08,6.29,5.22,9.93,7.17,10.51,5.62,21.79,9.42,32.76,13.95,9.84,4.07,19.28,8.96,28.18,14.78,20.79,13.58,30.19,32.94,27.69,57.58-3.06,30.16-20.91,48.35-48.7,57.82-15.74,5.37-32.1,6.65-48.59,6.1-17.83-.59-35.46-2.79-52.29-9.14-12.79-4.83-10.81-4.19-10.92-15.7-.05-5.58,0-11.16,0-16.74Z"/>
      <path class="cls-1" d="m209.79,266.33c0-14.62.04-29.25-.05-43.87-.01-2,.57-2.92,2.56-2.89,16.16.22,32.41-1.77,48.45,1.67,10.88,2.34,20.91,6.38,28.21,15.39,8.29,10.22,10.14,22.1,9.09,34.75-1.6,19.39-12.86,30.85-30.51,36.86-11.03,3.76-22.48,5.29-34.13,5.19-7.04-.06-14.09.18-21.13-.41-2.12-.18-2.54-.89-2.53-2.83.07-14.62.04-29.25.04-43.87Z"/>
    </g>
  </g>
</svg>