<?xml version="1.0" encoding="UTF-8"?>
<svg id="Layer_2" data-name="Layer 2" xmlns="http://www.w3.org/2000/svg" viewBox="0 0 871.65 401.71">
  <defs>
    <style>
      .cls-1 {
        fill: #fefefe;
      }

      .cls-1, .cls-2, .cls-3 {
        stroke-width: 0px;
      }

      .cls-2 {
        fill: #fff;
      }

      .cls-3 {
        fill: #eaae00;
      }
    </style>
  </defs>
  <g id="plex">
    <g>
      <path class="cls-1" d="m24.74,401.42h-.02c.09.04.18.08.27.13-.08-.05-.17-.09-.25-.13Z"/>
      <path class="cls-2" d="m258.56,177.33c-2.63-17.58-7.98-34.24-17.01-49.61-13.93-23.71-33.64-40.56-59.74-49.59-19.82-6.85-40.16-7.73-60.77-4.61-20.52,3.12-37.46,12.64-50.92,28.41-.89,1.05-1.79,2.09-2.94,3.42v-2.06c0-7.26-.05-14.52.04-21.78.02-1.59-.29-2.06-1.99-2.06-21.05.07-42.1.05-63.16.04-.67,0-1.36.15-2.01-.14v319.26c5.41,1.46,10.89,2.54,16.5,2.83,2.73.17,5.45.1,8.16-.03.62-.06,1.24-.11,1.86-.17s1.24-.13,1.86-.21c18.55-2.53,31.06-13.01,38.7-29.68,3.62-7.91,4.68-16.43,4.73-25.03.1-15.43.04-30.86.05-46.28v-1.78c.8.35,1.2.89,1.67,1.36,10.78,10.99,23.26,19.21,38.17,23.52,13.91,4.03,28.09,4.88,42.45,3.69,16.38-1.35,31.86-5.86,45.99-14.25,37.05-21.98,55.4-55.57,59.64-97.61,1.27-12.57.59-25.14-1.28-37.64Zm-105.28,85.37c-38.12,13.67-79.18-8.97-87.87-48.53-5.39-24.52,2.1-45.04,19.97-62.06,9.68-9.22,21.09-15.46,34.31-17.93,15.34-2.87,29.98-.3,43.53,7.26,18.42,10.3,29.09,26.23,32.67,46.96.64,3.7.82,7.44.93,10.79-.01,28.92-17.4,54.14-43.54,63.51Z"/>
      <path class="cls-1" d="m.06,398.61c5.41,1.46,10.89,2.55,16.5,2.84-.17.07-.33.15-.49.22-4.84,0-9.68-.06-14.51.04-1.33.03-1.69-.37-1.51-1.59.08-.49.01-1.01.01-1.52Z"/>
      <path class="cls-3" d="m25.26,401.67h-9.2c.17-.08.33-.15.5-.23,2.73.17,5.45.1,8.16-.03.01,0,.01.01.02.01.17.09.35.16.52.25Z"/>
      <path class="cls-2" d="m633.44,171.3c-5.13-23.17-15.24-43.92-31.93-60.87-33.03-33.56-73.19-44.92-118.91-35.24-29.14,6.17-52.63,22.32-70.41,46.15-23.56,31.59-31.36,67.13-23.42,105.61,7.33,35.53,27,62.96,58.05,81.82,24.62,14.95,51.5,20.3,80.09,17.04,17.55-2,33.82-7.72,48.8-17.06,20.18-12.57,35.23-29.88,46.5-50.65,1.36-2.51,2.61-5.09,4.03-7.88h-2.13c-21.96,0-43.93.15-65.89-.12-4.89-.06-8.5,1.15-11.99,4.59-5.06,4.97-10.85,9.11-17.5,11.84-10.12,4.16-20.62,4.47-31.26,2.79-25.87-4.09-42.95-24.08-46.52-48.75-.3-2.09-.25-2.1,1.92-2.1h179.62c.35,0,.69-.05,1.02.01,1.18.21,1.74-.28,1.98-1.44.47-2.28.89-4.56,1.04-6.88.86-13.11-.26-26.06-3.09-38.86Zm-65.55,3.64c-18.89-.05-37.79-.04-56.69-.04s-37.68-.01-56.52.03c-1.2,0-1.72-.09-1.36-1.52,4.77-18.76,15.28-32.86,33.43-40.41,23.55-9.79,55.23-4.68,72.7,18.87,4.75,6.4,7.97,13.51,9.85,21.25.34,1.42.14,1.82-1.41,1.82Z"/>
      <path class="cls-2" d="m386.69,296.61c-4.47,7.07-9.35,13.8-15.64,19.39-13.25,11.78-29.6,14.13-45.44,6.18-18.99-9.53-30.8-24.98-36.4-45.31-2.14-7.75-2.87-15.68-2.87-23.72.03-40.72.02-81.45.02-122.17,0-42.99.01-85.99-.04-128.98-.01-1.65.39-2,2.01-2,21.74.06,43.47.06,65.21.01,1.4-.01,1.74.31,1.74,1.73.18,65.8.38,131.59.62,197.39.06,18.3,2.36,36.26,8.5,53.6,5.2,14.69,12.61,28.17,22.07,40.53.9,1.17,1.08,1.98.22,3.35Z"/>
      <path class="cls-3" d="m776.63,201.06c-26.27,38.83-52.5,77.68-78.71,116.56-.71,1.05-1.43,1.48-2.73,1.48-26.56-.05-53.12-.04-79.68-.04h-1.19c-.63-.01-.85-.25-.47-.83.25-.38.5-.75.76-1.13,26.3-38.67,52.6-77.35,78.94-116,.82-1.21.71-1.95-.05-3.08-26.37-38.9-52.71-77.82-79.05-116.74-.34-.5-.66-1.02-1.17-1.8h1.88c26.62,0,53.23,0,79.85-.03,1.34,0,2.13.38,2.89,1.51,26.22,39.08,52.46,78.13,78.74,117.16.75,1.12.75,1.82-.01,2.94Z"/>
      <path class="cls-2" d="m866.17,301.43c-5.35,6.37-11.12,12.26-18.01,16.99-15.31,10.51-31.31,10.6-47.71,2.98-10.18-4.72-18.09-12.22-24.54-21.25-5.64-7.88-11.31-15.73-17.02-23.56-.61-.82-.56-1.37-.02-2.18,13.58-20.22,27.14-40.45,40.7-60.67.07-.09.15-.18.36-.44,1.88,3.04,3.65,5.99,5.49,8.89,10.41,16.42,21.21,32.57,33.41,47.73,8.37,10.39,17.43,20.17,27.19,29.28.92.85.97,1.26.15,2.23Z"/>
      <path class="cls-2" d="m871.65,79.78c-24.04,35.35-48.07,70.69-72.1,106.03-.59-.02-.68-.55-.9-.88-13.25-20.03-26.49-40.07-39.75-60.09-.58-.88-.6-1.45.02-2.35,9.5-13.89,18.96-27.8,28.4-41.73.59-.87,1.17-1.3,2.31-1.29,26.84.03,53.69.02,80.53.03.43,0,.9-.15,1.49.28Z"/>
    </g>
  </g>
</svg>