<?xml version="1.0" encoding="UTF-8"?>
<svg id="Layer_2" data-name="Layer 2" xmlns="http://www.w3.org/2000/svg" viewBox="0 0 547.51 532.81">
  <defs>
    <style>
      .cls-1 {
        fill: #9797fc;
      }

      .cls-1, .cls-2 {
        stroke-width: 0px;
      }

      .cls-2 {
        fill: #00005b;
      }
    </style>
  </defs>
  <g id="premiere">
    <g>
      <path class="cls-2" d="m547.22,95.49C547.02,42.07,503.71.07,450.09.04,333.03-.03,215.96.01,98.89.02,51.93.03,15.07,28.54,2.76,74.12c-.56,2.08.36,5.13-2.76,6.17v372.23c2.44.6,1.88,2.78,2.3,4.4,9.87,37.79,33.31,62.34,71.05,73.07,1.79.5,4.51-.07,5.12,2.82h386.88c2.1-3.57,5.99-2.02,8.93-2.79,42.58-11.14,72.81-48.43,72.95-92.49.35-114.01.41-228.02-.01-342.04Zm-247.92,147.43c-8.4,30.91-35.03,51.59-72.23,56.36-12.71,1.63-25.46,2.22-38.19,1.29-7.04-.52-9.53,1.17-9.33,8.68.52,19.74-.04,39.5.3,59.24.12,6.35-1.83,8.57-8.26,8.31-11.22-.44-22.49-.47-33.71.01-6.69.28-8.07-2.45-8.04-8.52.11-19.14.14-38.28.14-57.42s-.03-36.46-.03-54.68c0-9.33.02-18.65.03-27.98.03-27.43.07-54.87-.18-82.3-.06-7.03,1.59-9.42,9.05-9.34,29.13.31,58.25-3.07,87.41.19,56.13,6.29,87.74,52.13,73.04,106.16Zm137.7-2.19c-14.51-.44-28.3,2.87-41.46,8.94-7.24,3.34-10.69,8.09-10.53,16.92.6,33.41.04,66.84.39,100.26.08,7.28-1.51,10.35-9.44,9.89-11.2-.66-22.49-.55-33.71-.03-6.94.32-8.7-2.14-8.68-8.85.14-47.7-.06-95.4-.28-143.1-.03-7.89-.32-15.81-1.09-23.66-.54-5.58,1.09-7.64,6.85-7.42,9.71.38,19.48.62,29.16-.05,8.19-.56,11.84,2.82,12.55,10.54.36,3.87.94,7.73,1.63,13.32,14.62-14.74,30.36-24.43,49.86-27.01,11.36-1.5,12.07-1.01,12.1,10.16.02,10.94-.22,21.89.09,32.81.17,5.62-1.94,7.45-7.44,7.28Z"/>
      <path class="cls-1" d="m226.26,136.76c-29.16-3.26-58.28.12-87.41-.19-7.46-.08-9.11,2.31-9.05,9.34.25,27.43.21,54.87.18,82.3-.01,9.33-.02,18.66-.02,27.98,0,18.23.02,36.46.02,54.68,0,19.14-.03,38.28-.14,57.42-.03,6.07,1.35,8.8,8.04,8.52,11.22-.48,22.49-.45,33.71-.01,6.43.26,8.38-1.96,8.26-8.31-.34-19.74.22-39.5-.3-59.24-.2-7.51,2.29-9.2,9.33-8.68,12.73.93,25.48.34,38.19-1.29,37.2-4.77,63.83-25.45,72.23-56.36,14.7-54.03-16.91-99.87-73.04-106.16Zm-.72,117.23c-13.32,4.18-26.93,3.56-40.56,3.53-4.97,0-5.08-2.93-5.05-6.53.06-10.61.02-21.22.02-31.84s.05-21.82-.02-32.74c-.02-3.4.41-5.97,4.81-5.84,12.99.4,26.06-1.37,38.94,1.87,18.66,4.7,28.57,16.45,28.89,34.58.34,19.54-8.34,31.11-27.03,36.97Z"/>
      <path class="cls-1" d="m382.39,217.49c14.63-14.75,30.36-24.44,49.87-27.01,11.36-1.5,12.07-1.01,12.09,10.16.02,10.94-.22,21.88.1,32.81.16,5.62-1.94,7.45-7.44,7.28-14.51-.44-28.31,2.87-41.47,8.94-7.23,3.34-10.69,8.09-10.53,16.91.6,33.41.05,66.84.4,100.26.08,7.29-1.51,10.36-9.44,9.89-11.2-.66-22.49-.55-33.71-.03-6.94.32-8.69-2.14-8.68-8.85.14-47.7-.07-95.4-.28-143.1-.04-7.89-.32-15.81-1.09-23.66-.55-5.58,1.08-7.64,6.85-7.42,9.71.38,19.48.61,29.16-.05,8.19-.56,11.85,2.82,12.55,10.54.35,3.88.93,7.73,1.63,13.33Z"/>
      <path class="cls-2" d="m179.95,219.16c0-10.91.04-21.83-.02-32.74-.02-3.4.41-5.97,4.81-5.84,12.99.4,26.06-1.37,38.94,1.87,18.66,4.7,28.57,16.45,28.89,34.58.34,19.54-8.33,31.12-27.03,36.97-13.33,4.18-26.93,3.56-40.56,3.53-4.97,0-5.08-2.94-5.05-6.53.07-10.61.02-21.22.03-31.83Z"/>
    </g>
  </g>
</svg>