<?xml version="1.0" encoding="UTF-8"?>
<svg id="Layer_2" data-name="Layer 2" xmlns="http://www.w3.org/2000/svg" viewBox="0 0 778.76 774.6">
  <defs>
    <style>
      .cls-1 {
        fill: #ffcf3e;
      }

      .cls-1, .cls-2 {
        stroke-width: 0px;
      }

      .cls-2 {
        fill: #3773a4;
      }
    </style>
  </defs>
  <g id="python">
    <g>
      <path class="cls-1" d="m777.13,347.17c-1.3-14.12-3.29-28.16-6.41-42.02-4.53-20.2-11.13-39.62-21.77-57.5-8.81-14.82-19.89-27.57-34.39-37.14-13.59-8.97-28.45-14.43-44.78-14.7-21.46-.35-42.94-.08-64.41-.06-2.91,0-2.91.05-2.97,2.88-.02.76,0,1.51,0,2.27-.01,29.17-.06,58.34.01,87.52.04,14.33-2.29,28.26-6.81,41.81-9,26.91-25.48,47.34-51.8,59.13-10.21,4.57-20.91,7.25-31.99,8.47-7.33.8-14.7.9-22.08.9-58.56-.03-117.12,0-175.67-.02-8.58,0-17.1.41-25.58,1.78-15.66,2.54-30.51,7.36-44.08,15.69-21.15,12.99-34.18,31.8-39.77,55.89-2.44,10.51-3.15,21.17-3.15,31.93.03,54.11.01,108.22,0,162.34,0,2.38-.02,4.77-.12,7.15-.49,11.47,1.99,22.27,7,32.58,6.93,14.27,17.48,25.3,30.39,34.25,14.85,10.29,31.35,16.93,48.58,21.93,18.78,5.45,38.02,8.43,57.43,10.29,12.95,1.24,25.94,1.86,38.95,2.02,10.62.12,21.24-.01,31.86-.42,11.05-.43,22.08-1.12,33.07-2.26,13.35-1.38,26.63-3.39,39.72-6.41,15.87-3.66,31.35-8.5,45.84-16.09,11.83-6.2,22.56-13.82,30.87-24.44,8.34-10.66,13.31-22.52,12.49-36.35-.08-1.41-.02-2.82-.02-4.23-.04-27-.08-54.01-.12-81.01-.01-3.19-.03-3.19-3.19-3.22h-1.95c-59.54.01-119.07.01-178.61.02-.86,0-1.73.02-2.6-.01-2.28-.08-2.34-.08-2.35-2.42-.03-6.72-.03-13.45-.01-20.17.02-4.57-.48-4.1,4.25-4.1,44.68-.01,89.36,0,134.03,0h0c24.29.01,48.59,0,72.88.02,18.97.01,37.95.05,56.93.12,12.03.05,23.71-2,35.03-6.02,22.19-7.89,39.59-22.02,53.1-41.14,11.79-16.69,19.3-35.31,24.44-54.94,5.98-22.85,8.65-46.16,9.19-69.73.43-18.22.24-36.43-1.43-54.59Zm-280.61,299.82c18.14.07,34.1,15.46,33.55,34.22.34,17.39-14.51,33.79-34.14,33.61-18.69-.17-33.67-15.33-33.62-34.2.06-18.38,15.3-33.7,34.21-33.63Z"/>
      <path class="cls-2" d="m569.79,67.32c-7.6-15.04-19.25-26.32-33.23-35.36-15.64-10.11-32.85-16.53-50.77-21.21-24.22-6.32-48.96-9.25-73.9-10.19-34.17-1.3-68.29-.57-102.16,4.89-16.62,2.68-32.94,6.45-48.7,12.44-13.77,5.24-26.72,11.95-37.84,21.78-10.05,8.89-17.52,19.45-20.81,32.66-1.31,5.23-1.16,10.5-1.14,15.82.14,27.44.12,54.88.18,82.31.01,4.67-.54,4.12,4.2,4.12,58.24.01,116.47.01,174.71.01h4.88q4.89.01,4.89,4.73c0,5.86.02,11.71-.01,17.57-.03,4.92.63,4.35-4.29,4.35-85.24.02-170.48.02-255.72.03-1.3,0-2.61.09-3.9-.04-7.51-.72-14.94.07-22.31,1.39-24.73,4.42-45.25,16.33-61.81,35.11-13.86,15.72-22.9,34.11-29.3,53.9-6.9,21.37-10.33,43.39-11.78,65.73-1.62,24.94-1.25,49.85,1.2,74.73,1.45,14.68,3.76,29.22,7.33,43.54,4.85,19.45,11.77,38.08,22.64,55.07,9.79,15.31,22.09,28.08,38.08,37.02,11.52,6.44,23.82,10.72,37.05,10.93,22.12.36,44.25.11,66.37.1,2.51,0,2.52-.05,2.59-2.49.01-.54,0-1.09,0-1.63,0-29.06-.03-58.13,0-87.19.02-15.41,2.43-30.44,7.6-44.97,11.02-31.03,31.56-52.35,63.59-61.75,12.25-3.6,24.82-4.97,37.57-4.96,30.58.02,61.16.01,91.75.01h0c30.47.01,60.94.01,91.42,0,4.33,0,8.66-.1,12.99-.5,14.47-1.34,28.42-4.72,41.66-10.72,23.44-10.63,40.14-27.64,48.61-52.23,4.46-12.96,5.9-26.39,5.9-40.01.01-54.98,0-109.97,0-164.95,0-1.52-.04-3.04.06-4.55.79-12.54-1.95-24.33-7.6-35.49Zm-287.38,60.25c-20.6-.07-34.09-17.02-33.75-33.97.03-18.77,15.11-33.9,33.85-33.95,18.74-.04,34.11,15.38,33.98,34.21-.11,17.68-13.96,33.78-34.08,33.71Z"/>
    </g>
  </g>
</svg>