<?xml version="1.0" encoding="UTF-8"?>
<svg id="Layer_2" data-name="Layer 2" xmlns="http://www.w3.org/2000/svg" viewBox="0 0 508.59 452.43">
  <defs>
    <style>
      .cls-1 {
        fill: #05d8fe;
        stroke-width: 0px;
      }
    </style>
  </defs>
  <g id="reactjs">
    <g>
      <path class="cls-1" d="m483.12,180.97c-20.65-17.36-44.82-28.37-70.4-35.85-9.73-2.84-10.18-7.5-8.45-15.5,5.18-24.09,7.38-48.33,4.31-73.03-6.17-49.65-37.66-68.32-83.63-49.24-23.37,9.7-43.72,24.04-61.82,41.34-7.02,6.7-10.67,5.45-17.14-.29-23.6-20.93-48.82-39.5-80.61-46.19-31.67-6.68-52.6,5.72-61.67,36.56-8.9,30.26-5.71,60.72,1.09,90.66,2.42,10.62-1.04,12.99-9.64,15.51-22.09,6.47-42.86,16.02-61.74,29.34-43.55,30.72-44.6,68.27-2.81,101.23,20.16,15.89,43.15,26.33,67.49,33.84,6.63,2.04,8.88,4.23,7,11.76-4.29,17.17-6.9,34.7-6.08,52.53,0,5.23-.22,10.47.04,15.69,2.63,53.32,37.47,75.45,86.72,55.2,22.21-9.13,42.19-22.05,59.24-38.62,8.71-8.46,13.17-6.84,21,.44,19.85,18.45,41.91,33.89,68.15,42.14,37.33,11.74,63.16-2.95,72.62-41.02,7.17-28.82,4.62-57.66-1.67-86.06-2.12-9.58,1.03-11.57,8.58-13.98,25.42-8.14,49.43-19.24,69.86-36.84,33.51-28.88,33.37-61.17-.44-89.62Zm-209.01-113.56c20.46-18.3,41.68-35.31,68.6-43.35,23.17-6.93,34.92-.47,41.7,22.65,3.2,10.89,4.56,21.97,4.42,28.25-.08,21.16-2.99,36.93-5.66,52.75-1.09,6.46-3.69,8.19-10.63,6.68-15.25-3.31-30.71-6.44-46.23-7.46-10.53-.69-16.38-5.31-22.13-13.2-9.21-12.63-19.48-24.5-29.45-36.57-2.7-3.27-5.24-5.63-.62-9.75Zm-93.71,237.42c-15.13-2.5-27.29-4.52-39.44-6.53-4.49-.74-7.47-2.36-5.42-7.83,4.57-12.21,8.96-24.48,14.18-38.8,10.59,18.37,19.97,34.62,30.68,53.16Zm-44.81-142.86c-1.34-3.71-.2-6.29,3.98-6.88,12.6-1.76,24.91-5.68,39.44-5.31-9.85,17.22-18.91,33.06-28.49,49.82-6.97-12.16-10.4-25.13-14.93-37.63Zm29.07,70.84c-2.73-4.75-2.31-8.75.1-13.45,11.75-22.87,24.57-45.1,38.54-66.69,3.43-5.3,7.32-7.44,13.66-7.69,24.93-.96,49.83-1.04,74.76,0,6.21.26,10.2,1.98,13.71,7.45,13.68,21.3,26.35,43.15,38.13,65.56,2.88,5.48,3.18,9.85.26,15.54-11.74,22.89-24.66,45.06-38.44,66.77-2.87,4.54-5.9,6.71-11.49,6.77-13.26.16-26.51,1.1-39.76,1.73-.01-.3-.01-.59-.02-.88-6.43,0-12.99-.83-19.26.15-21.1,3.3-33.27-6.87-42.12-24.82-8.49-17.24-18.49-33.75-28.07-50.44Zm194.18,19.12c7.23,12.54,11.16,25.7,15.71,38.58,1.72,4.9-1.29,5.91-5.42,6.85-12.46,2.82-25,4.79-39.83,6.11,10.44-18.23,19.73-34.43,29.54-51.54Zm-28.67-101.64c14.49-1.3,26.96,3.22,39.73,5.03,5.15.73,4.99,3.99,3.47,7.96-4.54,11.88-8.93,23.82-14.11,37.71-10.39-18.11-19.44-33.89-29.09-50.7Zm-75.35-62.96c10.43,10.79,19.55,21.9,29.25,35.4h-58.91c9.26-13.09,18.7-24.58,29.66-35.4Zm-134.57-8.08c.06-12.47.44-24.86,4.92-36.79,6.67-17.76,17.32-23.91,35.68-19.44,29.48,7.17,52.62,25.06,74.76,44.68,4.2,3.73,2.26,5.78-.38,8.65-12.82,13.93-24.56,28.73-35.58,44.09-2.56,3.56-5.53,4.88-9.92,5.47-17.91,2.37-35.84,4.83-53.54,8.41-7.45,1.5-9.19-1.27-10.3-7.3-2.92-15.81-5.98-31.58-5.64-47.77Zm-4.66,203.71c-1.5,4.85-2.97,9.05-9.82,6.67-24.39-8.46-48.05-18.27-67.55-35.8-8.45-7.59-15.56-16.21-16.52-25.47.1-12.01,5.17-18.85,11.08-24.89,20.89-21.34,47.93-31.38,75.48-40.45,4.86-1.6,5.6,1.7,6.55,4.6,6.07,18.68,13.12,37,21.35,54.82,1.89,4.11.32,6.96-1.1,10.14-7.33,16.47-14.12,33.15-19.47,50.38Zm119.56,103.68c-20.58,17.58-41.67,34.18-68.45,41.55-24.9,6.85-37.04-.33-43.64-25.28-2.72-10.3-2.69-20.67-3.02-31.08,0-15.37,2.84-30.34,5.5-45.39,1.21-6.83,3.94-8.71,10.47-7.37,18.1,3.74,36.34,6.72,54.85,7.54,4.64.2,7.19,2.95,9.59,6.31,10.76,15.08,22.27,29.58,34.91,43.1,3.95,4.23,4.27,6.8-.21,10.62Zm24.11-24.86c-2.57,3.17-4.82,3.62-7.66.26-8.69-10.26-18.17-19.9-25.75-32.52h59.74c-9.75,11.92-18.09,22.05-26.33,32.26Zm125.07,46.22c-7.11,19.87-17.9,26.58-38.05,21.43-28.5-7.28-50.87-25.04-72.07-44.46-3.2-2.92-2.48-5.06.08-7.93,12.86-14.41,24.75-29.6,35.68-45.52,2.53-3.68,5.78-4.71,10.1-5.27,17.91-2.32,35.83-4.76,53.57-8.06,6.51-1.21,9.41-.85,10.63,6.4,2.54,15.06,5.47,30.03,5.05,43.52.25,14.8-.58,27.57-4.99,39.89Zm95.21-164.33c-20.59,24.44-49.14,35.29-78.08,45.47-5.04,1.78-5.25-2.36-6.22-5.05-6.51-18.12-13.45-36.07-21.74-53.47-1.51-3.15-1.75-5.97-.28-9.18,8.01-17.53,15.25-35.38,20.94-53.82,1.32-4.29,3.16-5.39,7.87-3.88,24.66,7.92,48.33,17.66,68.35,34.6,8.4,7.11,15.47,15.28,17.15,26.94-.58,6.96-3.52,13.09-7.99,18.39Z"/>
      <path class="cls-1" d="m299.67,227.08c-.54,24.71-21.5,44.4-46.6,43.77-25.2-.62-44.05-20.82-43.5-46.59.55-25.47,20.21-43.9,46.35-43.44,25.21.44,44.31,20.63,43.75,46.26Z"/>
    </g>
  </g>
</svg>