<?xml version="1.0" encoding="UTF-8"?>
<svg id="Layer_2" data-name="Layer 2" xmlns="http://www.w3.org/2000/svg" viewBox="0 0 681.72 557.85">
  <defs>
    <style>
      .cls-1 {
        fill: #020202;
      }

      .cls-1, .cls-2, .cls-3 {
        stroke-width: 0px;
      }

      .cls-2 {
        fill: #f7f7f7;
      }

      .cls-3 {
        fill: #fdfdfd;
      }
    </style>
  </defs>
  <g id="restapi">
    <g>
      <path class="cls-3" d="m585.4,111.65c-2.63-.33-5.27-1.15-7.89-1.07-4.04.11-5.1-1.83-5.71-5.47-1.03-6.06-4.95-12.53-3.65-17.86,1.41-5.8,9.41-8.02,14.15-12.27,5.36-4.81,6.31-10.07,2.21-15.9-4.59-6.52-9.43-12.88-14.45-19.07-4.06-5-10.08-5.77-15.45-2.31-2.41,1.56-4.85,3.21-6.87,5.22-4.7,4.7-8.19,3.91-14.44.94-12.31-5.85-14.09-13.79-11.08-25.64,2.05-8.05-2.34-12.81-10.52-14.42-7.22-1.43-14.78-.85-21.72-3.8h-4c-6.59,2.96-10.1,7.92-10.12,15.28,0,1.98-.54,3.96-.64,5.94-.21,4.35-1.26,7.08-6.71,7.49-5.86.43-12.53,5.06-17.13,3.32-4.97-1.87-7.88-9.06-11.84-13.8-4.73-5.66-10.44-6.52-16.42-2.27-6.13,4.37-12.13,8.94-18.01,13.65-6.04,4.86-6.78,10.65-2.43,16.91,1.51,2.18,2.97,4.47,4.86,6.3,4.66,4.51,3.67,7.84.86,13.81-5.86,12.43-13.8,14.7-25.99,11.24-7.2-2.04-12.57,2.16-13.96,9.56-1.31,6.96-2.03,14.02-3.09,21.03-1.39,9.18,2.39,14.14,11.81,15.45,4.6.64,9.93.19,13.59,2.43,4.01,2.43,1.89,8.56,3.52,12.81.47,1.23.55,2.65,1.15,3.8,2.56,4.89.64,7.68-3.55,10.78-18.31,13.51-18.32,14.54-4.54,32.72,13.55,17.86,14.49,18.07,32.31,4.29,3.27-2.52,5.4-3.27,8.9-.3,3.67,3.12,8.03,5.5,12.33,7.76,2.73,1.43,3.93,2.72,3.17,6.07-1.08,4.73-1.61,9.62-1.97,14.47-.57,7.47,2.77,11.79,10.1,13.04,7.64,1.3,15.33,2.4,23.02,3.33,6.05.73,10.93-2.59,12.44-8.56,1.03-4.06,1.94-8.29,1.93-12.44-.01-5.22,2.89-5.5,6.98-7.11,13.19-5.18,22-2.28,28.72,10.46,3.29,6.24,10.3,6.61,16.2,2.42,6.32-4.49,12.52-9.17,18.55-14.03,5.38-4.33,6.17-10.18,2.34-15.9-2.35-3.49-4.81-6.95-7.63-10.05-2.61-2.87-2.34-4.85-.05-7.91,3.69-4.93,5.47-12.41,10.19-15.15,5.07-2.94,12.31,1,18.65,1.43,6.98.48,11.85-3.49,12.93-10.52.97-6.35,1.9-12.71,2.62-19.09,1.35-11.84-1.65-15.48-13.67-17.01Zm-103.26,53.07c-25.54-.17-46.58-21.22-46.62-46.63-.03-25.87,21.18-47.02,46.97-46.85,25.84.17,46.4,20.77,46.44,46.52.04,26.03-20.99,47.14-46.79,46.96Z"/>
      <path class="cls-3" d="m681.72,278.15v41.26c-3.12,6.86-2.99,14.42-4.6,21.61-12.07,53.85-46.77,87.29-96.37,107.4-6.5,2.64-13.04,5.29-20.63,6.88,0-13.65.03-26.9-.02-40.16-.01-3.47,2.85-3.46,4.96-4.33,16.09-6.61,31.07-14.97,43.86-26.96,20.22-18.96,28.67-43.27,31.18-69.93,2.21-23.38-.11-46.41-8.33-68.66-5.61-15.19-14.18-28.44-25.36-40.08-5.22-5.43-4.4-10.21,2.18-13.8,7.11-3.89,13.56-8.81,17.55-15.85,3.02-5.32,4.81-3.63,7.97-.46,20.17,20.24,33.64,44.23,40.91,71.79,2.48,9.43,4.31,18.98,5.37,28.68.11,1.04-.15,2.27,1.33,2.61Z"/>
      <path class="cls-3" d="m361.86,33.2c-.66,6.65-2.84,10.6-8.97,13.33-5.27,2.35-9.81,6.47-12.69,11.45-3.01,5.23-6.85,6.75-12.42,5.9-2.38-.36-4.87-.06-7.31-.06-82.53.45-147.36,55.62-161.97,137.78q-1.96,11.01-12.84,13.06c-13.06,2.45-25.94,5.46-38.47,10.06-67.22,24.65-78.54,89.11-56.25,137.6,12.53,27.24,32.66,46.58,62.16,54.86,3.4.95,4.49,2.35,4.41,5.85-.25,10.41-.42,20.85.04,31.26.25,5.53-2,5.52-6.18,4.57-31.8-7.23-58.11-23.16-78.58-48.72-41.1-51.29-43.91-125.03-6.47-175.44,22.08-29.73,52.97-45.56,87.79-54.85,5.71-1.52,8.31-3.87,10.18-9.79,26.16-83.05,82.9-130.92,168.57-144.92,20.97-3.43,41.98-2.53,62.98.23,5.09.67,6.6,2.1,6.02,7.83Z"/>
      <path class="cls-3" d="m319.08,552.43c-17.93-47.53-35.81-95.07-53.54-142.67-1.2-3.22-2.93-3.79-5.89-3.73-7.1.16-14.19.05-21.29.05-2.44,0-4.88-.09-7.32.02-5.91.27-13.16-2.31-17.37,1.03-3.91,3.09-4.73,10.14-6.76,15.5-16.14,42.77-32.18,85.58-48.44,128.31-1.84,4.86-1.49,6.59,4.24,6.19,6.84-.48,13.75.05,20.62-.16,6.79-.21,15.24,2.79,19.91-1.25,4.3-3.7,4.63-11.99,6.7-18.26.14-.42.31-.84.35-1.28.33-3.46,2.44-4.04,5.54-4.01,14.63.13,29.27.25,43.9-.07,4.06-.08,5.33,1.58,6.21,4.96,1.37,5.34,3.16,10.58,4.6,15.91.8,2.95,2.21,4.19,5.53,4.13,13.3-.21,26.61-.2,39.91-.02,4.03.05,4.37-1.28,3.1-4.65Zm-93.73-53.01c-4.4.07-3.19-2.33-2.47-4.69,4.84-15.82,9.68-31.65,15.07-49.25,5.73,18.73,11.01,35.99,16.49,53.89-10.1,0-19.6-.11-29.09.05Z"/>
      <path class="cls-3" d="m459.51,447.77c-1.05-21.72-13.31-36.16-34.56-40.19-5.19-.98-10.57-1.4-15.87-1.43-23.95-.15-47.91.08-71.86-.19-4.83-.05-5.79,1.47-5.75,5.97.23,23.06.11,46.11.11,69.17s.13,47.01-.11,70.5c-.05,4.47,1.26,5.6,5.55,5.51,11.97-.27,23.96-.3,35.93.01,4.48.12,5.54-1.32,5.46-5.61-.26-14.62.19-29.27-.24-43.89-.16-5.49,1.7-6.58,6.71-6.44,10.63.31,21.3.56,31.9-.78,16.17-2.03,29.84-8.18,37.73-23.54,4.71-9.18,5.48-19.01,5-29.09Zm-53.37,19.88c-8.05,3.95-16.86,3.05-25.47,3.05-2.66,0-2.34-2.12-2.35-3.86-.01-1.64-.01-3.27-.01-4.91,0-2.8.01-5.6.01-8.39-.01-1.11-.01-2.22-.01-3.32q0-13.83,14.14-13.35c3.99.14,7.96.49,11.76,1.86,6.35,2.28,9.46,6.97,10.03,13.51.61,6.86-1.87,12.35-8.1,15.41Z"/>
      <path class="cls-2" d="m525.54,552.13c0,3.7-.95,5.06-4.82,4.99-12.43-.21-24.86-.26-37.28.02-4.42.1-5.02-1.74-5-5.5.13-23.29.07-46.57.07-69.86s.12-46.58-.1-69.87c-.05-4.58,1.09-6.1,5.85-5.96,11.98.35,23.97.26,35.95.03,3.93-.07,5.36.86,5.35,5.1-.14,47.02-.13,94.04-.02,141.05Z"/>
      <path class="cls-3" d="m226.61,332.29c15.08-5.19,22.2-15.49,20.49-28.67-1.78-13.71-9.59-20.49-25.56-21.75-17.47-1.39-35-.25-52.49-.7-3.68-.09-4.4,1.37-4.39,4.67.1,27.46.1,54.92-.01,82.39-.01,3.22.49,4.79,4.25,4.61,6.64-.3,13.31-.32,19.94,0,3.76.18,4.33-1.35,4.26-4.58-.18-8.63-.18-17.28.02-25.91.05-2.18-1.57-5.4,1.29-6.42,2.69-.96,5.67.35,8.08,2.1,2.4,1.74,3.68,4.37,5.06,6.88,4.37,7.94,8.66,15.91,12.98,23.87,1.02,1.87,1.51,4.06,4.51,4.02,9.59-.14,19.19-.06,30.02-.06-9.68-14.14-12.3-31.34-28.45-40.46Zm-13.66-15.26c-5.82,1.91-11.8,1.21-17.74,1.37-1.82.05-2.18-1.01-2.17-2.51.02-4.41-.54-8.91.14-13.22.95-6.06,6.22-1.18,8.93-3.24,3.42.4,6.71.66,9.96,1.19,4.33.72,6.48,3.49,6.58,7.81.1,4.15-1.45,7.21-5.7,8.6Z"/>
      <path class="cls-2" d="m321.69,372.77c-18.19,0-36.37-.21-54.55.13-5.53.11-7.7-.82-7.42-7.06.59-13.05.18-26.15.18-39.22s.12-27.04-.08-40.56c-.05-3.76,1.07-4.95,4.87-4.92,22.18.15,44.35.14,66.52,0,3.47-.02,4.44,1,4.56,4.48.5,15.22.62,15.22-14.19,15.22-9.31,0-18.63.21-27.94-.1-4.05-.13-5.76.91-5.13,5.09.26,1.73.24,3.57,0,5.31-.48,3.61,1.11,4.4,4.47,4.35,11.53-.19,23.07.07,34.59-.16,3.73-.07,4.85.95,4.91,4.78.2,13.98.36,13.98-13.58,13.98-8.65,0-17.3.15-25.94-.08-3.43-.09-4.44.85-4.51,4.39-.29,13.78-.44,13.78,13.17,13.78,10.21,0,20.41.14,30.6-.08,3.64-.08,4.88.82,4.94,4.72.27,15.96.43,15.95-15.47,15.95Z"/>
      <path class="cls-3" d="m412.85,368.12c-8.36,5.32-17.81,6.34-27.48,6.07-5.78.07-11.52-.31-17.17-1.63-12.76-2.98-21.5-12.68-23.72-25.66-.63-3.65.19-4.71,3.77-4.78,5.76-.12,11.53-.45,17.25-1.1,3.74-.43,5.27.41,6.34,4.4,2.38,8.92,10.98,12.93,19.97,10.18,4.19-1.28,7.15-3.78,7.47-8.28.31-4.32-2.38-7.19-6.14-8.54-5.19-1.86-10.57-3.2-15.89-4.66-6.64-1.81-13.16-3.91-18.93-7.78-14.49-9.72-14.67-29.73-.38-39.76,12.82-9,41.76-9.21,54.69-.45,3.2,2.17,5.62,4.99,7.46,8.33,5.89,10.67,4.88,12.54-7.02,13.19-2.21.12-4.43.25-6.63.55-5.11.69-9.26,1.23-11.54-5.64-1.99-5.97-12.72-7.74-18.08-4.18-1.98,1.31-3.14,3.14-3.08,5.54.07,2.82,1.8,4.54,4.31,5.26,5.74,1.63,11.56,2.97,17.29,4.63,4.87,1.41,9.82,2.76,14.46,4.76,10.14,4.36,16.63,11.83,16.99,23.26.35,11.25-4.39,20.21-13.94,26.29Z"/>
      <path class="cls-2" d="m515.78,302.95c-3.15,2.79-10.52.9-16.03.93-11.44.06-11.44.02-11.44,11.43,0,16.84-.34,33.7.18,50.52.19,6.23-1.86,7.54-7.43,7.04-5.28-.46-10.66-.44-15.95.01-4.7.4-5.42-1.58-5.38-5.68.18-19.05-.1-38.12.2-57.18.08-4.97-1.23-6.62-6.26-6.23-5.95.46-11.97-.03-17.95.17-3.24.1-4.57-.56-4.71-4.28-.68-18.47-.81-18.47,17.83-18.47h25.28c12.41,0,24.83.15,37.25-.08,4.06-.07,6.25.62,5.7,5.32-.67,5.65,2.41,13.22-1.29,16.5Z"/>
      <path class="cls-1" d="m378.32,453.54c0,2.79-.01,5.59-.01,8.39,0-2.8.01-5.6,0-8.39v-3.32c0,1.1,0,2.21.01,3.32Z"/>
    </g>
  </g>
</svg>