<?xml version="1.0" encoding="UTF-8"?>
<svg id="Layer_2" data-name="Layer 2" xmlns="http://www.w3.org/2000/svg" viewBox="0 0 421.79 421.56">
  <defs>
    <style>
      .cls-1 {
        fill: #009ed7;
      }

      .cls-1, .cls-2, .cls-3, .cls-4, .cls-5 {
        stroke-width: 0px;
      }

      .cls-2 {
        fill: #02b3e3;
      }

      .cls-3 {
        fill: #01b2e3;
      }

      .cls-4 {
        fill: #1b83e3;
      }

      .cls-5 {
        fill: #98e0f3;
      }
    </style>
  </defs>
  <g id="sendgrid">
    <g>
      <path class="cls-5" d="m281.15,416.42c.01,3.8-.64,5.15-4.9,5.14-45.21-.2-90.42-.15-135.63-.17,0-45.46,0-90.92.04-136.38,0-2.32.29-4.19-3.3-4.18-45.72.15-91.45.13-137.18.16-.03-37.54-.07-75.08-.09-112.61-.01-7.94.16-15.87-.08-23.79-.1-3.38,1.02-4.17,4.26-4.16,43.62.1,87.24.07,130.87.06,5.99,0,5.32.59,5.32-5.26.02-43.49,0-86.98.08-130.47,0-1.47-1.15-3.47,1.09-4.49-.13.91-.36,1.82-.36,2.73,0,45.78.02,91.56.04,137.34-.1,1.45-.28,2.89-.28,4.34-.01,43.89.06,87.79-.09,131.68-.02,4.03,1.32,4.71,4.96,4.7,43.77-.12,87.53-.07,131.3-.08,1.31,0,2.62-.17,3.94-.26.04.17.02.33-.07.47,0,45.08-.05,90.15.08,135.23Z"/>
      <path class="cls-4" d="m140.66,285.01c-.03,45.46-.03,90.92-.04,136.38-23.54.04-47.08.09-70.62.11-22.09.02-44.17,0-66.26.02-2.01,0-3.74.38-3.73-2.88.14-45.88.14-91.77.17-137.65,45.73-.03,91.46,0,137.18-.16,3.59-.01,3.3,1.86,3.3,4.18Z"/>
      <path class="cls-2" d="m281.06,140.42c-44.38,0-88.77.02-133.15-.05-2.19,0-4.41.82-6.6-.03-.02-45.78-.04-91.56-.04-137.34,0-.91.23-1.82.36-2.73,45.69,0,91.38-.01,137.07-.01.78,0,1.56.17,2.34.26.01,46.63.01,93.27.02,139.9Z"/>
      <path class="cls-4" d="m420.92,4.81c.02,44.18.02,88.35.01,132.53,0,1.05-.12,2.1-.18,3.16-.53.08-1.05.17-1.58.25h-.01c-43.6,0-87.2.01-130.81.02h-6.75s-.04-.03-.06-.04c-.16-.11-.32-.21-.48-.31,0-46.63,0-93.27-.02-139.9,1.84-.09,3.68-.27,5.52-.27,44.16-.02,88.32-.02,132.47-.02,2.51.75,1.89,2.83,1.89,4.58Z"/>
      <path class="cls-3" d="m421.32,141.85c-.83,1.63-.44,3.38-.44,5.07-.06,44.65-.08,89.31-.11,133.96-19.66.04-39.32.09-58.97.11-25.47.02-50.93,0-76.39.01-1.45,0-2.89.13-4.34.19.09-.14.11-.3.07-.47-.02-45.51-.04-91.02-.04-136.53,0-1.16.28-2.3.44-3.46.01-.01.01-.03.01-.04,2.27.02,4.54.05,6.8.08,4.08.06,8.16.11,12.23.1,39.53-.02,79.04-.07,118.58-.12h.01c.53-.08,1.05-.17,1.58-.25.18.06.38.1.58.11-.01.42-.01.83-.01,1.24Z"/>
      <path class="cls-5" d="m421.66,4.34c0,43.98,0,87.97-.01,131.95,0,1.44-.21,2.88-.32,4.32-.2-.01-.4-.05-.58-.11.06-1.06.18-2.11.18-3.16,0-44.18,0-88.35-.01-132.53,0-1.75.62-3.83-1.89-4.58,1.33-.45,2.41-.35,2.58,1.33.1.92.05,1.85.05,2.78Z"/>
      <path class="cls-5" d="m420.77,280.88c.03-44.65.05-89.31.11-133.96,0-1.69-.39-3.44.44-5.07.11,1.44.31,2.88.31,4.32.02,43.44.02,86.88-.03,130.32,0,1.46.79,3.19-.83,4.39Z"/>
      <path class="cls-1" d="m281.55,140.69c-.16,1.17-.45,2.34-.45,3.51,0,45.51.02,91.02.04,136.53-1.31.09-2.63.26-3.94.26-43.77.01-87.53-.03-131.3.08-3.64,0-4.98-.67-4.96-4.7.15-43.89.08-87.79.09-131.68,0-1.45.18-2.89.28-4.34,2.19.85,4.41.02,6.61.03,44.38.07,88.76.05,133.14.05.19.12.37.23.55.35,0,0-.05-.08-.05-.08Z"/>
      <path class="cls-5" d="m281.55,140.69s.05.08.05.08c45.86,0,91.72-.01,137.56-.02-39.54.05-79.06.1-118.59.12-6.34,0-12.68-.12-19.03-.19Z"/>
    </g>
  </g>
</svg>