<?xml version="1.0" encoding="UTF-8"?>
<svg id="Layer_2" data-name="Layer 2" xmlns="http://www.w3.org/2000/svg" viewBox="0 0 678.35 678.39">
  <defs>
    <style>
      .cls-1 {
        fill: #ebb12e;
      }

      .cls-1, .cls-2, .cls-3, .cls-4 {
        stroke-width: 0px;
      }

      .cls-2 {
        fill: #2eb57d;
      }

      .cls-3 {
        fill: #df1e5a;
      }

      .cls-4 {
        fill: #36c4ef;
      }
    </style>
  </defs>
  <g id="slack">
    <g>
      <path class="cls-2" d="m499.89,249.11c-.55,31.14-15.36,53.79-43.89,66.32-40.85,17.93-89.02-8.04-97.3-51.8-.89-4.71-1.34-9.44-1.34-14.24.01-59.12.01-118.25.01-177.38,0-34.52,23.35-63.35,57.1-70.52,38.52-8.17,77.5,18.21,84.3,57.06.83,4.72,1.22,9.48,1.23,14.26.01,29.28,0,58.55,0,87.82s.42,58.99-.11,88.48Z"/>
      <path class="cls-4" d="m298.57,301.52c-11.28,10.89-24.93,17.14-40.55,19.03-3.25.39-6.5.44-9.76.44-29.2.01-58.4.01-87.6.01h-89.12c-35.1-.01-64.94-25.32-70.61-59.89-6.26-38.12,19.85-74.92,57.83-81.54,4.64-.81,9.32-1.2,14.03-1.2,58.55-.01,117.1-.04,175.65.01,21.48.01,39.7,7.81,54.2,23.72,10.19,11.18,16.27,24.4,17.84,39.49,2.46,23.5-4.95,43.58-21.91,59.93Z"/>
      <path class="cls-3" d="m320.98,517.85v88.7c0,35.37-24.96,64.93-59.82,70.87-37.76,6.44-74.91-19.75-81.58-57.5-.84-4.72-1.23-9.48-1.23-14.26,0-58.7-.06-117.39.02-176.09.03-21.23,7.82-39.24,23.48-53.65,27.82-25.59,71.44-24.59,98.09,2.26,13.97,14.07,21.03,31.1,21.03,50.98,0,29.56,0,59.13,0,88.69Z"/>
      <path class="cls-1" d="m619.6,498.83c-4.5.79-9.04,1.2-13.6,1.2-58.84,0-117.68.02-176.51,0-30.82,0-57.75-18.39-67.89-47.43-8.96-25.68-4.38-49.46,13.09-70.36,11.41-13.66,26.33-21.48,43.89-24.21,3.22-.5,6.48-.65,9.74-.65,29.78.02,59.57.01,89.35.01h89.12c35.11,0,64.89,25.25,70.62,59.87,6.3,38.06-19.86,74.95-57.81,81.56Z"/>
      <path class="cls-4" d="m321,140.47c.01,1.63-.32,2.22-2.11,2.22-23.84-.07-47.7.36-71.53-.17-21.79-.48-39.65-9.86-53.34-26.78-10.94-13.52-16.07-29.19-15.57-46.56.96-33.9,26.19-62.63,59.68-68.2,38.27-6.36,75.29,19.89,81.83,58.04.68,3.92,1.03,7.88,1.02,11.88-.04,10.87,0,21.74,0,32.61,0,12.32-.03,24.64.03,36.96Z"/>
      <path class="cls-2" d="m618.02,320.17c-3.59.55-7.19.84-10.82.84-10.8-.01-21.6-.01-32.4-.01-12.32,0-24.64-.03-36.96.04-1.7.01-2.16-.42-2.15-2.14.06-23.7-.01-47.4.05-71.1.07-28.82,20.4-56.26,48.5-65.61,41.81-13.89,85.88,12.6,93.14,56.01,6.5,38.77-20.42,75.92-59.36,81.97Z"/>
      <path class="cls-3" d="m142.61,396.13v33.47c0,32.57-24.35,62.41-56.29,68.73-24.96,4.94-46.94-1.37-65.06-19.13-15.57-15.26-22.46-34.22-20.94-56.09,2.11-30.53,24.8-57.36,55.9-64.13,4.68-1.02,9.41-1.59,14.21-1.59,23.33.01,46.66.03,69.98-.04,1.83,0,2.26.47,2.25,2.27-.09,12.17-.05,24.34-.05,36.51Z"/>
      <path class="cls-1" d="m499.89,609.54c-1.02,33.66-26.57,62.59-59.78,67.89-38.48,6.14-74.82-19.62-81.71-57.94-.71-3.99-1.05-8.03-1.04-12.1.04-10.8.01-21.6.01-32.39,0-12.4.03-24.79-.03-37.18-.01-1.55.28-2.11,1.99-2.1,23.92.06,47.84-.38,71.75.16,21.7.49,39.51,9.85,53.17,26.69,11.05,13.63,16.18,29.44,15.64,46.97Z"/>
    </g>
  </g>
</svg>