<?xml version="1.0" encoding="UTF-8"?>
<svg id="Layer_2" data-name="Layer 2" xmlns="http://www.w3.org/2000/svg" viewBox="0 0 668.52 130.04">
  <defs>
    <style>
      .cls-1 {
        fill: #fff;
        fill-rule: evenodd;
        stroke-width: 0px;
      }
    </style>
  </defs>
  <g id="sonos">
    <path class="cls-1" d="m361.26,75.1L283.26,1.98v122.99h24V56.82l78,73.13V6.96h-24v68.14ZM180.05,0c-36.68,0-65.02,28.34-65.02,65.02s30.01,65.02,65.02,65.02,65.02-28.34,65.02-65.02S216.73,0,180.05,0m0,106.7c-23.34,0-41.68-18.34-41.68-41.68s18.34-41.68,41.68-41.68,41.68,18.34,41.68,41.68-18.34,41.68-41.68,41.68m-105.03-41.68c-6.67-5-15-8.34-26.67-11.67-23.34-6.67-23.34-13.34-23.34-16.67,0-6.67,8.34-13.34,20.01-13.34,10,0,18.34,5,21.67,6.67l1.67,1.67,18.34-13.34-1.67-1.67S70.02,0,45.01,0c-11.67,0-23.34,3.33-31.68,10C5,16.67,0,26.67,0,36.68s5,20.01,13.34,26.67c6.67,5,15,8.34,26.67,11.67,23.34,6.67,23.34,13.34,23.34,16.67,0,6.67-8.34,13.34-20.01,13.34-10,0-18.34-5-21.67-6.67l-1.67-1.67L1.67,110.03l1.67,1.67s15,16.67,40.01,16.67c11.67,0,23.34-3.33,31.68-10s13.34-16.67,13.34-26.67-5-18.34-13.34-26.67M488.47,0c-36.68,0-65.02,28.34-65.02,65.02s30.01,65.02,65.02,65.02,65.02-28.34,65.02-65.02S523.48,0,488.47,0m0,106.7c-23.34,0-41.68-18.34-41.68-41.68s18.34-41.68,41.68-41.68,41.68,18.34,41.68,41.68-20.01,41.68-41.68,41.68m105.03-43.74c6.67,5,15,8.34,26.67,11.67,23.34,6.67,23.34,13.34,23.34,16.67,0,6.67-8.34,13.34-20.01,13.34-10,0-18.34-5-21.67-6.67h-1.67l-18.34,13.34,1.67,1.67s15,16.67,40.01,16.67c11.67,0,23.34-3.33,31.68-10s13.34-16.67,13.34-26.67-5-20.01-13.34-26.67c-6.67-5-15-8.34-26.67-11.67-23.34-6.67-23.34-13.34-23.34-16.67,0-6.67,8.34-13.34,20.01-13.34,10,0,18.34,5,21.67,6.67l1.67,1.67,18.34-13.34-1.67-1.67s-15-16.67-40.01-16.67c-11.67,0-23.34,3.33-31.68,10-8.34,6.67-13.34,16.67-13.34,26.67-1.67,10,3.33,18.34,13.34,25.01"/>
  </g>
</svg>