<?xml version="1.0" encoding="UTF-8"?>
<svg id="Layer_2" data-name="Layer 2" xmlns="http://www.w3.org/2000/svg" viewBox="0 0 657.04 522.33">
  <defs>
    <style>
      .cls-1 {
        fill: #010101;
      }

      .cls-1, .cls-2, .cls-3 {
        stroke-width: 0px;
      }

      .cls-2 {
        fill: #e4e5e6;
      }

      .cls-3 {
        fill: #e5e6e7;
      }
    </style>
  </defs>
  <g id="squarespace">
    <g>
      <path class="cls-1" d="m.07,266.03v-1.96c-.1.67-.08,1.32,0,1.96Z"/>
      <path class="cls-2" d="m427.74,127.37c-.18,8.3-3.17,15.46-8.91,21.43-3.55,3.68-7.21,7.24-10.82,10.85-63.28,63.27-126.57,126.52-189.82,189.83-11.6,11.6-24.69,20.98-39.72,27.61-18.87,8.32-38.63,11.85-59.17,10.54-55.47-3.53-101.71-42.28-115.19-96.34-1.79-7.18-2.69-14.5-3.46-21.84-.12-1.15-.44-2.27-.58-3.42-.08-.64-.1-1.29,0-1.96v-13.13c1.15.42.92-.56.95-1.05.23-3,.64-5.97,1.13-8.94,4.31-26.35,15.66-49.23,34.39-68.21,25.43-25.78,51.16-51.26,76.77-76.87,25.47-25.47,50.98-50.92,76.42-76.43,9.62-9.65,20.95-16.1,34.4-18.33,20.94-3.46,39.34,2.02,55,16.45.32.3.59.66.88.99-.55,1.05-1.45,1.71-2.22,2.48-64.76,64.76-129.51,129.52-194.3,194.24-7.91,7.89-13.81,16.95-16.94,27.68-10.89,37.31,12.91,73.64,48.61,80.29,21.87,4.07,41.12-1.74,56.93-17.41,32.66-32.36,65.07-64.97,97.58-97.47,34.32-34.32,68.64-68.61,102.93-102.95,4.62-4.63,9.88-7.99,16.29-9.5,20.12-4.74,39.28,10.76,38.85,31.46Z"/>
      <path class="cls-2" d="m657.03,262.94c-.32,33.62-12.36,62.55-35.69,86.48-26.11,26.78-52.81,52.97-79.26,79.42-24.77,24.77-49.55,49.52-74.31,74.31-9.35,9.36-20.42,15.61-33.44,17.91-21.24,3.76-39.87-1.81-55.77-16.43-.2-.18-.37-.4-.55-.61-.05-.06-.08-.16-.32-.7.8-.71,1.66-1.4,2.43-2.17,64.77-64.75,129.53-129.52,194.32-194.26,7.01-7.01,12.39-15.01,15.74-24.36,13.01-36.23-9.13-75.94-46.9-83.4-22.12-4.37-41.65,1.54-57.7,17.45-31.28,31.03-62.35,62.27-93.51,93.42-35.67,35.67-71.36,71.33-107.01,107.02-4.55,4.56-9.77,7.84-16.06,9.37-17.67,4.31-35.83-7.76-38.55-25.66-1.64-10.86,1.48-20.19,9.22-27.94,23.01-23.04,46.05-46.06,69.08-69.08,43.74-43.73,87.5-87.44,131.2-131.2,12.27-12.29,26.26-21.95,42.32-28.55,16.68-6.85,34.05-10.02,52.05-9.5,58.41,1.71,108.2,43.34,120.28,100.48,1.96,9.24,2.52,18.58,2.43,28Z"/>
      <path class="cls-2" d="m552.32,284.18c-33.54,33.53-67.08,67.06-100.61,100.59-33.22,33.22-66.46,66.41-99.65,99.65-14.15,14.17-30.58,24.65-49.55,31.11-13.23,4.52-26.85,6.65-43.24,6.8-32.31-.62-62.36-12.63-87.11-37.17-16.15-16-10.75-43.24,10.25-51.64,12.49-4.99,24-2.68,33.96,6.41,4.19,3.82,8.46,7.48,13.38,10.34,24.95,14.48,56.01,10.55,76.61-9.82,13.1-12.96,26.08-26.04,39.11-39.07,53.86-53.85,107.73-107.69,161.56-161.57,4.49-4.48,9.58-7.78,15.76-9.38,17.75-4.59,36.07,7.3,38.94,25.35,1.76,11.07-1.52,20.51-9.41,28.4Z"/>
      <path class="cls-3" d="m477.05,88.09c-11.97,5.74-25.97,3.52-35.73-5.8-4.97-4.76-10.34-8.93-16.5-12.03-24.53-12.37-53.65-7.89-73.27,11.49-17.45,17.25-34.73,34.67-52.08,52.02-49.6,49.59-99.21,99.16-148.79,148.78-4.84,4.84-10.37,8.2-17.12,9.62-18.35,3.87-36.34-9.53-37.81-28.23-.07-.91-.13-1.82-.17-2.36.09-8.65,2.86-15.88,8.48-21.99.74-.81,1.52-1.57,2.3-2.35,66.36-66.35,132.75-132.69,199.09-199.08,13-13.02,27.91-23.04,45.08-29.7,17.72-6.86,36.12-9.55,54.99-8.07,31.18,2.43,58.04,14.7,80.21,36.81,15.5,15.47,10.96,41.47-8.68,50.89Z"/>
    </g>
  </g>
</svg>