<?xml version="1.0" encoding="UTF-8"?>
<svg id="Layer_2" data-name="Layer 2" xmlns="http://www.w3.org/2000/svg" viewBox="0 0 606.37 606.25">
  <defs>
    <style>
      .cls-1, .cls-2 {
        stroke-width: 0px;
      }

      .cls-2 {
        fill: #fff;
      }
    </style>
  </defs>
  <g id="ssh">
    <g>
      <path class="cls-1" d="m606.36,68.41c0-31.34-17.13-56.34-45.15-65.02-6.85-2.12-14.31-3.23-21.48-3.24C382.07-.03,224.42-.02,66.76.04,32.96.05,7.29,21.56.94,54.75c-.14.73-.62,1.4-.94,2.1v492.56c1.02,3.76,1.8,7.59,3.09,11.25,8.59,24.48,25.54,39.45,51.09,44.55.92.18,1.78.68,2.67,1.04h492.67c3.01-.81,6.01-1.61,9.02-2.41,26.72-7.11,46.62-31.95,47.73-59.61.09-2.36.1-4.73.1-7.1,0-156.24.01-312.48-.01-468.72Zm-35.52,469.35c0,21.04-11.95,32.96-33.03,32.96-156.49.01-312.97.01-469.46,0-20.74,0-32.81-11.98-32.82-32.58-.01-78.32,0-156.65,0-234.97V68.78c0-21.47,11.81-33.24,33.32-33.25,156.29,0,312.58,0,468.87.01,21.14,0,33.12,11.87,33.12,32.86.01,156.45,0,312.9,0,469.36Z"/>
      <path class="cls-2" d="m537.72,35.54c-156.29-.01-312.58-.01-468.87-.01-21.51.01-33.32,11.78-33.32,33.25v234.39c0,78.32-.01,156.65,0,234.97.01,20.6,12.08,32.58,32.82,32.58,156.49.01,312.97.01,469.46,0,21.08,0,33.03-11.92,33.03-32.96,0-156.46.01-312.91,0-469.36,0-20.99-11.98-32.86-33.12-32.86ZM98.9,92.08c4.67-7.1,13.5-9.91,21.95-6.48,16.79,6.82,33.47,13.91,50.2,20.88,29.65,12.34,59.29,24.72,88.97,36.98,6.58,2.71,11.58,6.68,13.19,13.97,1.9,8.63-2.54,16.56-11.99,20.55-25.05,10.58-50.17,21-75.27,31.46-21.27,8.86-42.59,17.62-63.84,26.55-5.83,2.45-11.47,2.83-17.03-.36-6.18-3.54-9.42-8.99-9.04-16.12.41-7.56,4.34-12.92,11.39-15.86,19.1-7.96,38.2-15.88,57.3-23.84,14.47-6.04,28.92-12.12,44.86-18.81-34.38-14.3-67.12-27.88-99.81-41.61-3.2-1.35-6.46-3.16-8.92-5.55-5.9-5.74-6.48-14.9-1.96-21.76Zm113.77,378.61c-1.03,21.5-13.05,36.56-32.26,45.16-8.8,3.94-18.75,5.31-23.64,6.62-27.94-1.03-48.16-8.51-64.68-24.88-8.52-8.44-9.05-19.25-1.54-26.74,7.39-7.38,17.83-6.96,26.28,1.32,10.15,9.93,22.38,14.57,36.38,14.34,4.02-.06,8.25-1.14,11.97-2.72,6.44-2.73,11.7-7.3,12.03-14.8.31-7.03-4.96-11.15-10.55-13.77-9.61-4.52-19.59-8.23-29.42-12.28-4.91-2.03-9.8-4.15-14.74-6.11-17.91-7.1-27.95-20.27-28.99-39.43-1.13-20.6,8.56-35.68,26.35-45.36,23.35-12.7,58.93-8.56,79.18,8.7,5.63,4.81,9.94,10.4,9,18.27-.84,6.95-4.54,12.23-11.29,14.68-6.87,2.51-13.11,1.11-18.67-3.76-11.57-10.15-24.85-12.13-39.17-7.42-2.82.93-5.64,3.01-7.56,5.31-4.81,5.8-2.91,12.95,4.05,15.84,12.73,5.28,25.59,10.26,38.33,15.52,4,1.65,7.93,3.55,11.64,5.76,17.31,10.31,28.31,24.96,27.3,45.75Zm126.43,39.35c-11.59,8.35-24.67,12.06-40.8,12.19-21.93-.84-42.77-8.8-59.46-26.28-5.04-5.27-6.62-11.63-4.08-18.59,2.44-6.7,7.49-10.57,14.51-11.51,6.6-.9,11.77,2.02,16.33,6.6,10.03,10.07,22.46,14.37,36.45,14.11,8.23-.16,15.48-3.11,20.61-9.89,4.51-5.97,4.28-12.09-1.48-16.81-4.33-3.56-9.48-6.36-14.66-8.6-11.92-5.16-24.06-9.84-36.15-14.61-16.83-6.62-26.46-19.15-28.45-36.8-2.04-18.1,5.09-32.87,19.67-43.7,24.02-17.83,67.16-14.31,88.3,6.96,8.17,8.23,8.81,18.81,1.6,26.34-7.22,7.54-17.43,7.24-26.23-.77-9.5-8.65-28.61-11.24-40.16-5.4-4.94,2.51-8.06,6.29-7.93,12.11.13,5.6,4.25,7.5,8.62,9.23,12.45,4.93,24.95,9.76,37.3,14.94,15.36,6.46,28.19,15.88,34.68,31.99,8.34,20.74.73,44.51-18.67,58.49Zm-21.67-248.36c-12.01-.02-20.08-7.14-20.15-17.66-.06-10.54,8.05-17.84,19.96-17.84,38.04-.03,76.07-.03,114.11,0,11.88,0,19.98,7.39,19.85,17.94-.13,10.34-8.1,17.53-19.66,17.55-19.31.05-38.63.02-57.94.02s-37.45.02-56.17-.01Zm203.64,241.54c-.01,11-7.56,18.92-17.7,18.94-10.15.02-17.72-7.9-17.77-18.87-.09-17.93-.03-35.85-.03-54.31h-62.8c0,2.36.01,4.47,0,6.57,0,16.18.13,32.36-.05,48.54-.12,10.45-8.07,18.21-17.97,18.07-9.71-.14-17.42-7.8-17.45-17.97-.1-47.15-.09-94.31,0-141.46.02-10.47,7.91-18.24,17.86-18.14,9.67.1,17.41,7.73,17.55,17.88.21,14.6.06,29.2.06,43.8.01,2.12,0,4.24,0,6.64h62.8v-6.26c0-14.4-.07-28.8.02-43.2.07-10.97,7.63-18.89,17.78-18.86,10.15.02,17.69,7.94,17.7,18.94.06,46.56.06,93.13,0,139.69Z"/>
      <path class="cls-1" d="m485.57,448.98h-62.8c0,2.35,0,4.46,0,6.57,0,16.18.13,32.36-.06,48.53-.12,10.45-8.07,18.21-17.97,18.07-9.71-.14-17.42-7.8-17.44-17.97-.1-47.15-.1-94.31,0-141.46.02-10.47,7.92-18.24,17.86-18.14,9.67.1,17.41,7.73,17.55,17.88.21,14.6.06,29.2.06,43.8,0,2.12,0,4.24,0,6.63h62.8c0-2.1,0-4.17,0-6.25,0-14.4-.07-28.81.02-43.21.07-10.97,7.63-18.88,17.78-18.86,10.14.03,17.69,7.94,17.7,18.94.06,46.56.06,93.12,0,139.69-.01,11-7.57,18.92-17.71,18.94-10.15.02-17.72-7.9-17.77-18.87-.09-17.92-.02-35.85-.02-54.3Z"/>
      <path class="cls-1" d="m298.3,522.23c-21.93-.84-42.76-8.8-59.46-26.28-5.03-5.27-6.62-11.63-4.08-18.59,2.45-6.7,7.49-10.57,14.51-11.51,6.6-.89,11.77,2.03,16.33,6.61,10.03,10.07,22.46,14.37,36.45,14.11,8.23-.16,15.48-3.11,20.6-9.89,4.51-5.97,4.28-12.1-1.48-16.82-4.33-3.55-9.48-6.35-14.66-8.59-11.92-5.16-24.06-9.84-36.15-14.61-16.83-6.63-26.46-19.15-28.45-36.8-2.04-18.1,5.1-32.87,19.68-43.7,24.02-17.83,67.16-14.31,88.29,6.96,8.17,8.22,8.82,18.81,1.61,26.34-7.22,7.54-17.43,7.24-26.23-.78-9.5-8.65-28.61-11.24-40.15-5.39-4.95,2.5-8.06,6.29-7.93,12.11.13,5.59,4.25,7.49,8.62,9.22,12.45,4.93,24.95,9.76,37.3,14.95,15.36,6.46,28.2,15.88,34.68,31.98,8.35,20.74.73,44.51-18.67,58.49-11.59,8.35-24.67,12.06-40.8,12.19Z"/>
      <path class="cls-1" d="m156.77,522.47c-27.94-1.03-48.16-8.52-64.68-24.88-8.52-8.44-9.05-19.25-1.55-26.74,7.4-7.38,17.83-6.97,26.29,1.31,10.14,9.93,22.37,14.58,36.37,14.35,4.02-.07,8.25-1.14,11.98-2.72,6.44-2.73,11.7-7.31,12.03-14.8.31-7.04-4.95-11.16-10.54-13.78-9.61-4.51-19.6-8.22-29.42-12.28-4.92-2.03-9.8-4.15-14.74-6.11-17.91-7.1-27.95-20.27-29-39.43-1.13-20.6,8.56-35.67,26.35-45.36,23.35-12.71,58.93-8.56,79.17,8.7,5.64,4.8,9.95,10.4,9,18.27-.84,6.95-4.53,12.23-11.28,14.68-6.88,2.5-13.11,1.11-18.67-3.77-11.57-10.15-24.85-12.13-39.17-7.42-2.82.93-5.64,3.01-7.56,5.31-4.82,5.8-2.92,12.94,4.05,15.83,12.73,5.28,25.59,10.26,38.33,15.52,3.99,1.65,7.93,3.54,11.63,5.75,17.32,10.32,28.31,24.96,27.31,45.75-1.04,21.5-13.05,36.56-32.27,45.16-8.8,3.94-18.75,5.31-23.64,6.62Z"/>
      <path class="cls-1" d="m209.59,161c-34.38-14.31-67.12-27.89-99.81-41.62-3.2-1.35-6.47-3.15-8.93-5.55-5.9-5.74-6.48-14.9-1.96-21.76,4.67-7.1,13.51-9.91,21.95-6.48,16.79,6.82,33.47,13.92,50.2,20.88,29.65,12.34,59.29,24.72,88.97,36.98,6.58,2.72,11.58,6.68,13.19,13.97,1.9,8.64-2.53,16.56-11.99,20.55-25.05,10.58-50.16,21-75.26,31.46-21.28,8.86-42.6,17.62-63.85,26.56-5.83,2.45-11.47,2.83-17.03-.36-6.17-3.54-9.42-9-9.04-16.12.41-7.56,4.34-12.93,11.39-15.86,19.09-7.96,38.2-15.88,57.3-23.84,14.47-6.04,28.92-12.12,44.87-18.8Z"/>
      <path class="cls-1" d="m373.6,261.69c-18.72,0-37.45.02-56.17,0-12-.02-20.08-7.14-20.14-17.66-.06-10.53,8.04-17.83,19.95-17.84,38.04-.02,76.08-.03,114.11,0,11.88,0,19.98,7.39,19.85,17.95-.13,10.34-8.11,17.52-19.66,17.55-19.31.05-38.63.01-57.94.01Z"/>
    </g>
  </g>
</svg>