<?xml version="1.0" encoding="UTF-8"?>
<svg id="Layer_2" data-name="Layer 2" xmlns="http://www.w3.org/2000/svg" viewBox="0 0 609.82 608.68">
  <defs>
    <style>
      .cls-1 {
        fill: #4e26df;
      }

      .cls-1, .cls-2, .cls-3, .cls-4 {
        stroke-width: 0px;
      }

      .cls-2 {
        fill: #957dec;
      }

      .cls-3 {
        fill: #e2e2e2;
      }

      .cls-4 {
        fill: #fdfdfd;
      }
    </style>
  </defs>
  <g id="strapi">
    <g>
      <path class="cls-1" d="m609.47,161.18c-.11-23.22-.89-46.56-7.36-69.18-1.24-4.33-2.68-8.59-4.02-12.88-1.22-2.26-2.42-4.54-3.67-6.78-18.64-33.61-45.35-57.21-83.37-66.29-20.45-4.89-41.46-5.5-62.35-5.61C380.96.1,313.22.11,245.49.17c-36.67.04-73.35-.92-109.98,1.31-20.27,1.23-40.39,3.43-59,12.55-27.95,13.67-48.16,35.06-62.32,62.49C2.43,104.85,1.59,134.87,1.51,164.79c-.29,96.59-.02,193.19.08,289.79,0,6.02.45,12.05.69,18.07.31,4.36.63,8.71.95,13.07.1.82.19,1.64.29,2.46,3.5,40.22,21.91,71.92,54.44,95.66,18.67,13.62,39.8,20.1,62.51,22.27,20.63,1.97,41.31,2.58,62.02,2.57,88.88-.05,177.76.1,266.63-.31,23.24-.11,46.59-.95,69.23-7.44,17.3-4.96,32.21-14.07,45.61-26,22.69-20.23,37.38-44.83,42.12-75.08,3.48-27.42,3.76-54.99,3.74-82.58-.08-85.36.07-170.72-.35-256.09Zm-179.4,230.44c-.2,2.44-2.21,3.61-3.69,5.09-29.99,30.04-60,60.06-90.06,90.03-1.86,1.86-3.44,5.24-6.8,3.72-3.23-1.47-1.98-4.93-1.99-7.57-.04-30.6.01-61.19.03-91.79-32.79,0-65.59,0-98.38-.02-8.02-.01-10.34-2.27-10.34-10.39-.04-32.79-.01-65.59,0-98.38-31.26.02-62.52.06-93.78.03-2.02,0-4.6.9-5.73-1.7-.96-2.23.05-4.15,1.71-5.8,31.73-31.69,63.44-63.4,95.19-95.07.57-.57,1.51-.76,2.28-1.13,1.82-2.32,4.39-1.29,6.61-1.29,65.74-.06,131.47-.06,197.2-.05,8.76,0,10.16,1.38,10.16,10.08.02,65.95.03,131.9-.05,197.84,0,2.25,1.51,5.43-2.36,6.4Z"/>
      <path class="cls-4" d="m218.5,178.65c1.82-2.33,4.4-1.3,6.61-1.3,65.73-.06,131.47-.05,197.2-.04,8.76,0,10.16,1.38,10.16,10.08.01,65.95.02,131.9-.06,197.85,0,2.25,1.51,5.43-2.36,6.39-1.91-.18-3.82-.53-5.73-.53-32.26-.02-64.52,0-96.77,0h0c-.03-32.7-.06-65.41-.1-98.11-.01-8.78-1.8-10.6-10.51-10.61-32.7-.03-65.41-.05-98.11-.07h0c0-5.79.02-11.59,0-17.39-.1-28.76-.22-57.52-.33-86.28Z"/>
      <path class="cls-2" d="m218.83,282.31c32.7.02,65.41.04,98.11.07,8.7,0,10.5,1.83,10.51,10.61.04,32.7.07,65.41.1,98.11-32.79,0-65.59,0-98.38-.02-8.02,0-10.33-2.27-10.34-10.39-.04-32.79,0-65.59,0-98.38Z"/>
      <path class="cls-2" d="m218.5,178.65c.11,28.76.22,57.52.33,86.28.02,5.8,0,11.59,0,17.39-31.26.02-62.52.06-93.78.02-2.01,0-4.6.91-5.73-1.7-.96-2.22.05-4.15,1.71-5.8,31.73-31.69,63.44-63.39,95.19-95.07.57-.57,1.51-.76,2.28-1.13Z"/>
      <path class="cls-2" d="m327.55,391.1c32.26-.01,64.52-.03,96.77,0,1.91,0,3.82.34,5.73.53-.19,2.44-2.21,3.61-3.69,5.09-29.99,30.04-60,60.06-90.06,90.03-1.86,1.85-3.44,5.23-6.79,3.71-3.23-1.47-1.99-4.93-1.99-7.57-.05-30.6,0-61.19.02-91.79Z"/>
      <path class="cls-3" d="m3.23,485.72c-3.89-3.24-4.33-9.19-.95-13.07.31,4.36.63,8.71.95,13.07Z"/>
    </g>
  </g>
</svg>