<?xml version="1.0" encoding="UTF-8"?>
<svg id="Layer_2" data-name="Layer 2" xmlns="http://www.w3.org/2000/svg" viewBox="0 0 569.51 236.56">
  <defs>
    <style>
      .cls-1 {
        fill: #635bfe;
        stroke-width: 0px;
      }
    </style>
  </defs>
  <g id="stripe">
    <g>
      <path class="cls-1" d="m444.49,111.8c-.79-10.45-3.09-20.53-7.59-30.04-5.12-10.85-12.4-19.85-22.98-25.78-12.55-7.04-25.68-8.18-39.24-3.16-5.02,1.86-9.46,4.72-13.5,8.22-1.21,1.05-1.22,1.04-1.54-.46-.48-2.3-1.01-4.6-1.43-6.92-.19-1.03-.61-1.36-1.69-1.35-10.65.04-21.31.05-31.96-.01-1.37,0-1.54.45-1.54,1.64.03,60.41.03,120.82-.01,181.23,0,1.39.36,1.55,1.6,1.28,12.23-2.63,24.46-5.22,36.7-7.78,1.05-.22,1.33-.66,1.33-1.72.03-13.82.11-27.65.19-41.47,0-.5-.15-1.04.15-1.53.52-.04.81.34,1.14.58,9.86,7.35,20.89,10.17,33.07,8.6,11.75-1.51,21.62-6.67,29.61-15.36,7.24-7.87,11.69-17.24,14.44-27.46,3.4-12.63,4.24-25.5,3.25-38.51Zm-39.01,16.32c-.66,7.08-2.44,13.83-6.29,19.89-3.58,5.64-8.37,9.81-15.25,10.54-7.52.8-14.46-.8-20.16-6.21-.67-.64-.99-1.3-.98-2.25.04-4.72,0-9.44-.01-14.16-.01-4.67,0-9.34,0-14.01h-.17c0-9.14.03-18.29-.04-27.44-.01-1.4.47-2.3,1.4-3.24,6.65-6.73,20.45-8.63,28.19-2.97,4.96,3.64,8.15,8.52,10.3,14.15,3.18,8.3,3.82,16.92,3.01,25.7Z"/>
      <path class="cls-1" d="m568.54,106.72c-1.52-10.62-4.38-20.8-9.76-30.15-5-8.69-11.64-15.79-20.55-20.59-9.34-5.02-19.37-6.69-29.88-6.03-9.87.63-19.01,3.44-27.25,8.93-11.76,7.84-19.29,18.9-23.97,32.04-4.21,11.81-5.57,24.02-4.96,36.51.42,8.55,1.7,16.93,4.43,25.06,3.57,10.64,9.31,19.85,18,27.07,10.91,9.06,23.76,13,37.7,13.81,6.69.39,13.38.12,20.04-.79,9.77-1.34,19.08-4.04,27.83-8.65.92-.49,1.17-1.04,1.16-2.02-.03-9.59-.01-19.17-.02-28.76,0-.42-.03-.83-.06-1.27-.68,0-1.15.38-1.66.61-14.67,6.75-30.03,9.22-46.03,7.07-12.27-1.65-19.76-9.44-21.5-21.66-.22-1.5.22-1.65,1.49-1.65,18.85.03,37.69.02,56.54.02,5.97,0,11.95-.01,17.93.02.87,0,1.3-.15,1.31-1.17.15-9.48.57-18.96-.79-28.4Zm-37.66.51c-6.36,0-12.72,0-19.08,0s-12.72,0-19.08,0c-.63,0-1.39.23-1.34-.91.26-5.86,1.32-11.5,4.94-16.31,4.38-5.84,10.33-8.64,17.57-8,7.99.7,13.17,5.36,16.16,12.61,1.55,3.74,2.03,7.69,2.19,11.71.04,1.15-.73.9-1.36.9Z"/>
      <path class="cls-1" d="m96.92,166.91c-4.15,9.43-11.26,15.95-20.41,20.37-7.82,3.78-16.16,5.57-24.78,6.16-16.89,1.17-33.07-1.83-48.69-8.21-.69-.28-1.35-.46-1.34-1.55.05-11.95.03-23.89.03-35.84,0-.18.05-.36.09-.63,2.94,1.39,5.77,2.8,8.65,4.08,8.66,3.85,17.64,6.68,27.06,7.9,5.21.68,10.47.98,15.64-.48,5.45-1.54,8.18-6.17,6.57-11.14-.76-2.36-2.44-4.01-4.42-5.37-4.2-2.91-9.01-4.54-13.74-6.29-7.45-2.75-14.98-5.29-21.92-9.24-7.69-4.38-13.98-10.06-17.26-18.53C.03,102.02-.37,95.67.29,89.23c.77-7.51,3.2-14.44,7.75-20.54,5.56-7.43,13-12.21,21.66-15.19,9.57-3.3,19.44-4.05,29.49-3.55,10.37.51,20.44,2.39,30.21,5.86,3.34,1.18,3.35,1.16,3.35,4.72,0,10.65,0,21.3,0,31.95,0,1.75,0,1.73-1.55.97-12.14-5.98-24.94-9.29-38.52-9.31-2.71,0-5.39.31-7.91,1.39-5.11,2.19-6.37,8.29-2.5,12.28,2.66,2.74,6.13,4.1,9.59,5.44,6.78,2.64,13.79,4.61,20.47,7.48,6.6,2.82,12.81,6.23,17.91,11.41,6.01,6.09,9.12,13.49,9.99,21.89.82,7.89-.08,15.57-3.3,22.88Z"/>
      <path class="cls-1" d="m146.81,87.61c.04,18.16.02,36.33.03,54.49.01,4.26.63,8.37,3.39,11.84,2.79,3.5,6.66,4.76,10.93,5.06,5.02.34,9.88-.57,14.6-2.22,1.01-.35,1.17-.13,1.17.86-.03,9.92-.03,19.84,0,29.77,0,.87-.31,1.28-1.06,1.63-4.95,2.29-10.21,3.41-15.58,4.03-5.27.62-10.55.84-15.86.39-17.23-1.48-31.5-13.98-35.18-30.88-.75-3.46-.98-6.95-.98-10.47.02-19.95.01-39.89.01-59.84h.1c0-21.44.01-42.88-.02-64.32-.01-1.16.26-1.65,1.46-1.9,11.91-2.48,23.82-4.99,35.71-7.59,1.48-.32,1.53.17,1.52,1.35-.1,10.31-.12,20.62-.24,30.93-.02,1.4.35,1.74,1.74,1.73,8.91-.06,17.83,0,26.75-.06,1.37-.01,1.64.4,1.64,1.69-.05,10.16-.05,20.33,0,30.49,0,1.22-.23,1.62-1.56,1.61-9.01-.07-18.02-.01-27.04-.06-1.16-.01-1.53.23-1.53,1.47Z"/>
      <path class="cls-1" d="m259.05,87.67c0,1.14-.37,1.05-1.26.84-7.04-1.67-13.95-1.42-20.58,1.76-2.85,1.37-5.28,3.33-7.38,5.71-.64.73-.89,1.49-.89,2.47.03,30.06.02,60.13.02,90.19q0,2.2-2.21,2.2c-11.95,0-23.91-.02-35.86.03-1.17,0-1.54-.25-1.54-1.49.03-45.14.03-90.28,0-135.43,0-1.19.31-1.54,1.53-1.54,10.46.05,20.92.04,31.38.01,1,0,1.4.26,1.6,1.31.56,3.02,1.27,6.01,1.94,9.02.07.36.2.7.37,1.26,1.75-2.98,3.7-5.53,6.23-7.59,5.81-4.72,12.54-6.06,19.81-5.4,1.92.18,3.81.57,5.67,1.08.77.21,1.18.52,1.18,1.46-.04,11.37-.04,22.74,0,34.11Z"/>
      <path class="cls-1" d="m308.44,189.27c0,1.27-.31,1.61-1.59,1.6-12.2-.05-24.39-.05-36.58,0-1.3.01-1.67-.31-1.67-1.65.04-22.49.03-44.99.03-67.48s.01-45.07-.02-67.61c-.01-1.29.28-1.72,1.65-1.71,12.19.05,24.38.05,36.57,0,1.28-.01,1.61.35,1.6,1.62-.03,45.08-.03,90.15.01,135.23Z"/>
      <path class="cls-1" d="m308.42,30.66c0,.9-.2,1.33-1.2,1.54-12.41,2.63-24.82,5.3-37.21,8.02-1.23.27-1.41-.08-1.4-1.2.05-4.91.02-9.82.02-14.73s.03-9.82-.02-14.73c-.01-.99.23-1.42,1.25-1.63,12.42-2.59,24.83-5.22,37.24-7.86,1.06-.23,1.33.09,1.32,1.12-.03,9.82-.02,19.64,0,29.47Z"/>
    </g>
  </g>
</svg>