<?xml version="1.0" encoding="UTF-8"?>
<svg id="Layer_2" data-name="Layer 2" xmlns="http://www.w3.org/2000/svg" viewBox="0 0 909.4 232.89">
  <defs>
    <style>
      .cls-1 {
        fill: #a7a5a6;
      }

      .cls-1, .cls-2 {
        stroke-width: 0px;
      }

      .cls-2 {
        fill: #242021;
      }
    </style>
  </defs>
  <g id="synology">
    <g>
      <path class="cls-1" d="m473.02,95.64c-6.43-16.22-17.7-27.73-34.19-33.79-11.58-4.25-23.57-4.75-35.6-2.49-20.69,3.89-35.14,15.56-42.98,35.2-2.4,6.03-3.96,12.26-4.54,18.75-.14-1.5-.14-2.99-.15-4.47-.04-7.49-.03-14.98-1.39-22.37-1.99-10.85-7.51-19.13-17.75-23.94-7.57-3.56-15.54-4.68-23.81-4.28-7.18.35-13.92,2.26-20.18,5.79-5.87,3.32-10.77,7.78-15.35,13.43,0-5.45-.04-10.4.03-15.35.01-1.3-.3-1.77-1.69-1.76-8.46.07-16.93.06-25.39,0-1.36-.01-1.72.4-1.71,1.73.07,5.52.03,11.03.03,16.55,0,32.48.01,64.97-.03,97.45,0,1.42.26,1.97,1.84,1.96,9.19-.08,18.37-.06,27.55-.01,1.28,0,1.61-.4,1.6-1.64-.06-6.23-.1-12.46-.01-18.69.22-16.77-.67-33.56.71-50.31.34-4.05.76-8.16,2.62-11.84,4.73-9.33,12.6-13.6,22.91-13.61,9.95,0,16.98,6.49,18.05,16.36.8,7.39,1.02,14.8,1.02,22.22-.01,18.46.01,36.92-.03,55.38-.01,1.56.27,2.16,2.03,2.15,9-.1,18-.09,27-.01,1.6.01,2-.42,1.99-2-.06-16.3-.03-32.6-.03-48.91v-3.74c.45,4.77,1.11,9.49,2.24,14.13,3.45,14.12,10.58,25.8,23.21,33.5,14.07,8.58,29.4,11.54,45.73,9.19,16.31-2.34,29.14-10.51,38.86-23.59,6.47-8.69,10.02-18.58,11.04-29.37,1.02-10.8.4-21.44-3.63-31.62Zm-28.04,22.54c.01,8.9-1,16.36-4.74,23.24-5.15,9.5-15.82,15.37-26.28,14.24-11.78-1.28-19.55-7.89-23.79-18.68-2.83-7.19-3.21-14.76-2.61-22.43.44-5.61,1.52-11.01,4.11-16.04,7.96-15.43,27.43-20.01,41.08-9.59,6.69,5.1,10.09,12.14,11.46,20.29.56,3.38.87,6.76.77,8.97Z"/>
      <path class="cls-1" d="m129.61,144.07c-4.86,15.8-15.07,26.54-30.66,32.11-7.43,2.65-15.15,3.88-23.01,4.46-3.12.23-6.23.21-9.12.31-10.79.07-21.15-1.16-31.11-4.85-15.15-5.6-25.29-16.25-31.11-31.16-2.34-6-3.7-12.23-4.56-18.6-.12-.87.01-1.17.91-1.25,3.21-.29,6.42-.67,9.64-.98,6.19-.59,12.4-1.13,18.59-1.77,1.67-.17,2.48.06,2.86,2.03,1.11,5.8,3.12,11.31,6.57,16.18,4.76,6.75,11.48,10.43,19.47,11.77,8.68,1.46,17.32,1.15,25.67-1.96,6.36-2.37,11.19-6.58,13.65-12.97,2.79-7.24,1.33-15.9-7.28-20.41-5.2-2.73-10.8-4.24-16.39-5.83-10.07-2.87-20.38-4.89-30.29-8.33-7.5-2.6-14.87-5.52-21.07-10.63-8.91-7.33-14.6-16.54-16.07-28.14-1.72-13.58,2.22-25.38,11.55-35.26,6.65-7.04,15.13-11.01,24.45-13.31,10.34-2.56,20.82-2.96,31.41-2.24,8.79.59,17.34,2.15,25.42,5.77,14.09,6.32,22.74,17.14,26.4,32.04.76,3.09,1,6.25,1.39,9.39.15,1.2-.04,1.81-1.54,1.84-8.15.17-16.3.46-24.45.73-1.68.06-3.36.13-5.02.3-1.34.13-1.86-.31-2.12-1.69-.69-3.65-1.85-7.18-3.73-10.43-3.43-5.91-8.75-9.02-15.31-10.25-8.74-1.64-17.39-1.45-25.87,1.48-3.21,1.1-6.21,2.71-8.49,5.24-5.26,5.82-4.02,14.26,2.73,18.87,4.36,2.97,9.34,4.59,14.33,6.12,11.67,3.59,23.74,5.72,35.32,9.68,7.9,2.71,15.65,5.74,22.22,11.12,9.13,7.47,14.47,17.05,15.96,28.77.94,7.38.86,14.68-1.34,21.85Z"/>
      <path class="cls-1" d="m247.62,60.54c-1.27,3.55-2.51,7.03-3.77,10.5-7.13,19.56-14.26,39.13-21.39,58.69-7.81,21.41-15.6,42.83-23.46,64.23-1.81,4.95-4.03,9.73-6.73,14.28-5.02,8.48-12.52,13.49-21.98,15.82-9.64,2.38-19.33,2.29-29.04.51-3.71-.68-3.74-.73-4.13-4.42-.67-6.36-1.22-12.74-1.95-19.09-.17-1.48.22-1.55,1.48-1.33,4.89.85,9.78,1.55,14.81,1.05,6.75-.67,11.66-3.88,15.05-9.68,2.19-3.75,3.84-7.71,5.13-11.83.29-.9.02-1.62-.27-2.41-10.17-26.92-20.34-53.85-30.5-80.77-4.23-11.2-8.46-22.39-12.67-33.59-.79-2.09-.76-2.11,1.51-2.11,9.6,0,19.2.04,28.8-.03,1.4-.01,1.93.46,2.36,1.75,8.1,24.23,16.25,48.44,24.39,72.65.97,2.87,1.96,5.73,3.08,8.98,1.96-5.92,3.78-11.42,5.58-16.93,7.11-21.72,14.22-43.44,21.31-65.16.27-.84.62-1.28,1.61-1.28,9.96.04,19.92.03,29.88.03.24,0,.47.07.9.14Z"/>
      <path class="cls-2" d="m754.44,71.91c-.33-3.16-1.18-3.92-4.36-3.93-8.82-.04-17.64-.04-26.47-.06-.76-.01-1.51.05-2.23-.42-8.32-5.38-17.53-7.47-27.33-7.51-10.01-.05-19.36,2.14-27.73,7.84-16.11,10.97-22.34,30.34-15.42,48.05,3.29,8.43,9.11,14.66,16.98,19.04,1.92,1.08,1.92,1.06.18,2.55-3.6,3.08-7.09,6.28-10.31,9.77-3.08,3.33-5.58,7.02-6.97,11.39-1.56,4.87-.59,9.07,3.19,12.59,1.98,1.85,4.17,3.43,6.47,4.83,1.15.7,1.38,1.06.32,2.14-3.28,3.33-6.49,6.74-9.61,10.22-3.69,4.12-7.03,8.51-9.66,13.38-3.46,6.41-2.48,11.89,2.86,16.83,1.58,1.47,3.31,2.77,5.13,3.92,9.37,5.91,19.68,8.92,30.64,9.89,13.54,1.2,26.85.19,39.61-4.83,11.47-4.51,21.11-11.53,28.12-21.8,4.41-6.47,6.43-13.66,5.17-21.47-1.48-9.21-7.22-15.14-15.51-18.81-6.37-2.82-13.23-3.29-20.05-3.64-11.5-.6-23.02-.97-34.52-1.52-3.71-.17-7.43-.46-10.97-1.74-4.39-1.58-5.83-4.72-4.32-9.09,1.42-4.09,4.21-7.18,7.21-10.16.78-.78,1.42-.93,2.5-.62,9.82,2.83,19.76,3.13,29.69.76,13.15-3.15,23.15-10.59,28.39-23.17,5.32-12.8,3.65-25.27-3.89-37.21.75,0,1.39,0,2.04,0,5.58-.01,11.16.03,16.74-.06,3.17-.05,3.73-.63,4.07-3.76.13-1.12.16-2.28.04-3.4Zm-86.08,106.51c.45-.51.96-.39,1.48-.32,16.45,2.14,33,2.53,49.54,3.18,5.03.19,10.05.64,14.97,1.79.99.23,1.97.51,2.92.87,5.7,2.13,8.06,6.61,6.68,12.57-.77,3.36-2.52,6.17-4.82,8.68-5.86,6.42-13.33,9.77-21.73,11.32-5.68,1.06-11.41,1.46-19.28,1.43-7.59-.1-17.17-.89-26.37-4.26-3.39-1.24-6.59-2.81-9.49-4.99-4.37-3.28-5.95-7.54-4.54-12.81,1.83-6.85,6.09-12.25,10.64-17.46Zm45.63-57.3c-2.87,7.39-8.08,12.14-16.02,13.3-8.08,1.18-14.73-1.66-19.71-8.17-4.17-5.46-6.33-11.75-7.36-18.46-1.25-8.17-1.51-16.36.56-24.43,2.02-7.93,6.64-13.79,14.67-16.3,8.08-2.51,16.58.6,21.93,7.74,4.43,5.9,6.58,12.68,7.61,19.88.49,3.44.75,6.91.73,10.39-.09,5.46-.41,10.89-2.41,16.05Z"/>
      <path class="cls-2" d="m636.02,86.57c-17.51-29.56-51.47-32.32-73.78-19.19-9.28,5.46-15.83,13.45-20.56,22.98-10.49,21.16-11.11,42.38.47,63.27,9.89,17.85,24.96,27.75,45.82,27.65,17.77-.08,32.51-6.77,43.08-21.25,8.96-12.28,13.29-26.26,13.62-39.43-.03-13.46-2.79-24.15-8.65-34.03Zm-18.32,67.6c-3.59,9.74-10.16,16.37-20.78,17.88-10.23,1.46-18.41-2.57-24.81-10.4-6.23-7.62-9.85-16.52-12.1-25.97-3.48-14.64-4.14-29.39-.56-44.12,1.61-6.61,4.5-12.68,9.81-17.19,9.81-8.32,24.57-7.97,34.26.78,6.19,5.61,9.99,12.77,12.8,20.5,3.8,10.44,4.88,21.31,5.01,32.92-.16,8.28-.51,17.16-3.63,25.6Z"/>
      <path class="cls-2" d="m881.24,68.23c-5.75.72-9.47,4.35-11.68,9.31-3.74,8.41-7.09,16.98-10.56,25.51-13.21,32.42-26.37,64.87-39.62,97.29-4.66,11.39-11.55,21.07-22.34,27.55-5.9,3.54-12.16,5.56-19.16,4.82-6.29-.65-12.12-5.15-13.6-10.67-1.98-7.33,2.68-13.89,10.25-14.55,3.79-.32,7.39.43,10.94,1.62,2.15.72,4.33,1.39,6.45,2.2,2.43.94,4.7.6,6.91-.6,3.19-1.72,5.67-4.16,7.63-7.2,3.52-5.48,5.63-11.59,8.12-17.54,1.62-3.86,3.13-7.76,4.75-11.62.35-.84.3-1.51-.09-2.34-13.53-28.19-27.01-56.39-40.54-84.57-2.39-4.99-5.6-9.46-9.05-13.78-2.53-3.18-6.16-4.17-9.76-5.29-.64-.2-1.64-.04-1.74-.91-.14-1.3-.13-2.64.07-3.93.07-.45.98-.21,1.5-.21,9.24-.01,18.48-.01,27.72-.01,7.5,0,15,.03,22.5-.03,1.34-.01,2.06.24,1.78,1.73-.01.06,0,.12,0,.18,0,2.69,0,2.71-2.76,2.73-1.81.02-3.58.19-5.31.77-4.21,1.44-6.36,4.97-5.73,9.38.5,3.53,1.68,6.85,3.21,10.04,9.37,19.5,18.79,38.98,28.19,58.47.15.31.19.72.75.89,8.55-21.16,17.1-42.26,25.61-63.38,1.28-3.18,1.97-6.5,1.94-9.97-.03-2.54-1.22-4.16-3.5-5.12-2.04-.85-4.18-1.1-6.34-1.02-1.32.06-1.76-.31-1.71-1.69.09-2.98,0-2.98,3.03-2.98,10.8,0,21.61.03,32.41-.04,1.46,0,1.91.44,1.7,1.79-.04.23-.05.48,0,.72.32,1.61-.29,2.24-1.97,2.45Z"/>
      <path class="cls-2" d="m530.24,178c-16.92,0-33.84-.03-50.76.04-1.73.01-2.28-.36-2.16-2.13.17-2.47.05-2.44,2.48-2.55,1.55-.07,3.11-.18,4.65-.41,4.84-.72,8.11-4.14,9.07-9.36.73-3.97.77-7.98.77-12-.01-37.28-.01-74.56-.05-111.83-.01-5.57.13-11.17-1.04-16.65-1.19-5.55-4.5-7.54-10.05-6.26-1.39.32-2.79.7-4.11,1.25-.93.38-1.24.09-1.63-.67-1.71-3.34-1.73-3.34,1.75-4.79,9.78-4.06,19.56-8.1,29.33-12.18,1.98-.82,4.03-.26,6.04-.42.48-.03.59.29.59.7-.01.48,0,.96,0,1.44v77.49h.04c0,25.23-.01,50.46,0,75.7,0,2.58.23,5.14.66,7.69.96,5.8,4.52,9.19,10.41,9.94,2.03.25,4.06.45,6.1.38.94-.03,1.21.28,1.24,1.22.1,3.4.14,3.4-3.33,3.4Z"/>
      <path class="cls-2" d="m892.1,25.94c-9.65-.07-17.56,7.73-17.6,17.35-.04,9.65,7.76,17.53,17.39,17.57,9.61.04,17.49-7.81,17.51-17.45.02-9.55-7.75-17.4-17.3-17.47Zm10.61,28.96c-2.53-3.12-3.83-7.21-7.62-9.51.73-.21,1.31-.35,1.87-.54,2.92-.99,4.44-3.35,4.2-6.51-.21-2.84-1.95-4.75-4.99-5.26-4.11-.69-8.26-.18-12.39-.33-.71-.02-.73.41-.73.93,0,7.01.02,14.02-.02,21.03,0,1.34.85.98,1.56,1.02.81.05,1.51.14,1.46-1.12-.09-2.57.02-5.15-.04-7.72-.02-.97.23-1.25,1.26-1.36,3.69-.43,6.4.81,8.17,4.14.78,1.48,1.89,2.77,2.71,4.23.74,1.29,1.54,2.26,3.34,1.78-4.27,4.31-13.87,5.38-20.34-.74-6.46-6.12-6.66-16.45-.4-22.7,6.2-6.19,16.34-6.16,22.47.07,6.19,6.31,5.98,16.54-.51,22.59Zm-13.38-19.54c1.9.02,3.82-.19,5.71.22,1.84.4,2.95,1.55,3.09,3.22.15,1.69-.9,3.14-2.67,3.76-1.63.56-3.32.26-4.98.25-1.42,0-3.27.54-4.15-.15-.94-.75-.27-2.68-.29-4.1-.05-3.21-.01-3.23,3.29-3.2Z"/>
    </g>
  </g>
</svg>