<?xml version="1.0" encoding="UTF-8"?>
<svg id="Layer_2" data-name="Layer 2" xmlns="http://www.w3.org/2000/svg" viewBox="0 0 665.42 398.95">
  <defs>
    <style>
      .cls-1 {
        fill: #1fadbc;
      }

      .cls-1, .cls-2, .cls-3, .cls-4, .cls-5, .cls-6, .cls-7, .cls-8, .cls-9, .cls-10, .cls-11, .cls-12, .cls-13, .cls-14, .cls-15, .cls-16, .cls-17, .cls-18, .cls-19, .cls-20, .cls-21, .cls-22, .cls-23, .cls-24, .cls-25, .cls-26, .cls-27, .cls-28, .cls-29, .cls-30, .cls-31, .cls-32, .cls-33, .cls-34, .cls-35, .cls-36, .cls-37, .cls-38, .cls-39, .cls-40, .cls-41, .cls-42, .cls-43, .cls-44, .cls-45, .cls-46, .cls-47, .cls-48, .cls-49, .cls-50, .cls-51, .cls-52, .cls-53, .cls-54, .cls-55, .cls-56, .cls-57, .cls-58, .cls-59, .cls-60, .cls-61, .cls-62, .cls-63, .cls-64, .cls-65, .cls-66, .cls-67, .cls-68, .cls-69, .cls-70, .cls-71, .cls-72, .cls-73, .cls-74, .cls-75, .cls-76, .cls-77, .cls-78, .cls-79, .cls-80, .cls-81, .cls-82, .cls-83, .cls-84, .cls-85, .cls-86, .cls-87, .cls-88, .cls-89, .cls-90, .cls-91, .cls-92, .cls-93, .cls-94, .cls-95, .cls-96, .cls-97, .cls-98, .cls-99, .cls-100, .cls-101, .cls-102, .cls-103, .cls-104, .cls-105, .cls-106, .cls-107, .cls-108, .cls-109 {
        stroke-width: 0px;
      }

      .cls-2 {
        fill: #19b3b8;
      }

      .cls-3 {
        fill: #28b9b0;
      }

      .cls-4 {
        fill: #fefefe;
      }

      .cls-5 {
        fill: #1abcb9;
      }

      .cls-6 {
        fill: #3bbeba;
      }

      .cls-7 {
        fill: #20c4b6;
      }

      .cls-8 {
        fill: #0fb5bb;
      }

      .cls-9 {
        fill: #34bfb5;
      }

      .cls-10 {
        fill: #29b4b2;
      }

      .cls-11 {
        fill: #1dacb9;
      }

      .cls-12 {
        fill: #25c2b1;
      }

      .cls-13 {
        fill: #27b4b4;
      }

      .cls-14 {
        fill: #15c0ba;
      }

      .cls-15 {
        fill: #1fa3bb;
      }

      .cls-16 {
        fill: #59c7be;
      }

      .cls-17 {
        fill: #1bb1bb;
      }

      .cls-18 {
        fill: #2ca5b6;
      }

      .cls-19 {
        fill: #17bfb8;
      }

      .cls-20 {
        fill: #28c9b2;
      }

      .cls-21 {
        fill: #16bcb8;
      }

      .cls-22 {
        fill: #27c0b0;
      }

      .cls-23 {
        fill: #31a4b6;
      }

      .cls-24 {
        fill: #19bcb9;
      }

      .cls-25 {
        fill: #18b8bb;
      }

      .cls-26 {
        fill: #39a2ba;
      }

      .cls-27 {
        fill: #37b6b4;
      }

      .cls-28 {
        fill: #1bafba;
      }

      .cls-29 {
        fill: #37c7b2;
      }

      .cls-30 {
        fill: #16c5b5;
      }

      .cls-31 {
        fill: #21c8b3;
      }

      .cls-32 {
        fill: #29b5b0;
      }

      .cls-33 {
        fill: #30a5b7;
      }

      .cls-34 {
        fill: #14c5b9;
      }

      .cls-35 {
        fill: #2fc7b4;
      }

      .cls-36 {
        fill: #1aaeb9;
      }

      .cls-37 {
        fill: #26bcb3;
      }

      .cls-38 {
        fill: #1da8bb;
      }

      .cls-39 {
        fill: #3eb1bd;
      }

      .cls-40 {
        fill: #3fc2b2;
      }

      .cls-41 {
        fill: #38c0b4;
      }

      .cls-42 {
        fill: #16c2b7;
      }

      .cls-43 {
        fill: #2bb8b1;
      }

      .cls-44 {
        fill: #23aabb;
      }

      .cls-45 {
        fill: #45b6c1;
      }

      .cls-46 {
        fill: #1caaba;
      }

      .cls-47 {
        fill: #14c8b3;
      }

      .cls-48 {
        fill: #30a3b4;
      }

      .cls-49 {
        fill: #29a1b6;
      }

      .cls-50 {
        fill: #1ab6ba;
      }

      .cls-51 {
        fill: #34b5b3;
      }

      .cls-52 {
        fill: #15c1b8;
      }

      .cls-53 {
        fill: #2fa2b3;
      }

      .cls-54 {
        fill: #20a7bb;
      }

      .cls-55 {
        fill: #14c7b6;
      }

      .cls-56 {
        fill: #17b5b8;
      }

      .cls-57 {
        fill: #1ab6b7;
      }

      .cls-58 {
        fill: #1fa5bc;
      }

      .cls-59 {
        fill: #31adb4;
      }

      .cls-60 {
        fill: #27aab3;
      }

      .cls-61 {
        fill: #16bab9;
      }

      .cls-62 {
        fill: #24a1be;
      }

      .cls-63 {
        fill: #16bab7;
      }

      .cls-64 {
        fill: #1da7bc;
      }

      .cls-65 {
        fill: #bae6dd;
      }

      .cls-66 {
        fill: #18b9b7;
      }

      .cls-67 {
        fill: #1baebc;
      }

      .cls-68 {
        fill: #2bb6ae;
      }

      .cls-69 {
        fill: #18b3b9;
      }

      .cls-70 {
        fill: #3dbbb5;
      }

      .cls-71 {
        fill: #15c3b7;
      }

      .cls-72 {
        fill: #1cacb9;
      }

      .cls-73 {
        fill: #19b2b9;
      }

      .cls-74 {
        fill: #19b2bb;
      }

      .cls-75 {
        fill: #1fc5b5;
      }

      .cls-76 {
        fill: #38c6b2;
      }

      .cls-77 {
        fill: #1bb4b8;
      }

      .cls-78 {
        fill: #1ab6b8;
      }

      .cls-79 {
        fill: #23c9b0;
      }

      .cls-80 {
        fill: #36b5b3;
      }

      .cls-81 {
        fill: #13ceb5;
      }

      .cls-82 {
        fill: #12cab7;
      }

      .cls-83 {
        fill: #13ccb6;
      }

      .cls-84 {
        fill: #32a5b6;
      }

      .cls-85 {
        fill: #1ab4bb;
      }

      .cls-86 {
        fill: #17b9bb;
      }

      .cls-87 {
        fill: #1caabc;
      }

      .cls-88 {
        fill: #16ceb8;
      }

      .cls-89 {
        fill: #39c7b1;
      }

      .cls-90 {
        fill: #1cadbd;
      }

      .cls-91 {
        fill: #4ba5af;
      }

      .cls-92 {
        fill: #1fa5ba;
      }

      .cls-93 {
        fill: #19b6ba;
      }

      .cls-94 {
        fill: #16c8b8;
      }

      .cls-95 {
        fill: #6fb0b3;
      }

      .cls-96 {
        fill: #14c7b8;
      }

      .cls-97 {
        fill: #78c2b5;
      }

      .cls-98 {
        fill: #3ba8b7;
      }

      .cls-99 {
        fill: #28abb2;
      }

      .cls-100 {
        fill: #17bdb9;
      }

      .cls-101 {
        fill: #1cadb7;
      }

      .cls-102 {
        fill: #14c8b5;
      }

      .cls-103 {
        fill: #30b6ba;
      }

      .cls-104 {
        fill: #1ea7bb;
      }

      .cls-105 {
        fill: #1fb9b4;
      }

      .cls-106 {
        fill: #13c3b7;
      }

      .cls-107 {
        fill: #1bb1b9;
      }

      .cls-108 {
        fill: #11c7b7;
      }

      .cls-109 {
        fill: #28b6b4;
      }
    </style>
  </defs>
  <g id="tailwind">
    <g>
      <path class="cls-4" d="m499.26,266.68c.79.76.32,1.9-.41,2.74-.27.62-.55,1.24-.83,1.86-2.13,9.02-4.64,17.93-8.81,26.27-3.43,10.22-8.32,19.74-13.9,28.91-12.32,20.29-28.25,37.07-48.67,49.39-1.23.74-2.58,1.28-3.87,1.92-13.03,8.29-27.53,12.9-42.39,16.33-24.73,5.71-49.8,5.67-74.94,3.49-.54-.04-1.07-.37-1.6-.57-21.36-2.06-41.46-8.25-60.51-18.06-18.26-9.4-33.93-22.21-48.73-36.22-.25-.28-.51-.57-.76-.86-1.32-1.02-2.65-2.03-3.43-3.57-2.04-2.04-4.08-4.07-6.12-6.11-1.96-.97-3.31-2.55-4.37-4.41-3.89-3.08-7.24-6.71-10.5-10.43-1.47-1.43-2.94-2.87-4.41-4.31-8.45-7.3-16.59-14.99-26.29-20.69-22.16-13-45.85-15.59-70.69-10.4-.84.18-1.7.3-2.55.45-23.74,6.96-42.27,21.52-58.18,39.89-1.59,1.83-3.23,3.64-4.84,5.46-.3,1.17-.91,2.06-2.46,2.45.15-3.37,1.27-6.3,2.41-9.23.03-.1.07-.2.11-.3,1.71-6.86,3.91-13.55,6.94-19.95,1.69-5.13,3.77-10.08,6.43-14.79,2.77-6.17,5.92-12.14,10.01-17.58,2.19-4.15,4.9-7.95,8-11.46.22-.26.44-.51.66-.76.94-1.75,2.25-3.19,3.75-4.47.21-.25.42-.51.63-.77,1.95-3.06,4.52-5.55,7.27-7.87,4.24-4.54,8.78-8.72,13.99-12.13,11.99-9.7,25.57-16.52,40.07-21.43,29.39-9.95,59.68-11.51,90.34-8.89.56.05,1.09.35,1.64.53,16.99,1.58,33.49,5.11,49.09,12.24.76.4,1.51.79,2.27,1.18,8.42,2.56,15.89,6.94,23.06,11.9,6.05,2.92,11.27,7.03,16.37,11.31,3.95,2.44,7.4,5.46,10.56,8.84,3.42,2.61,6.65,5.43,9.5,8.66,5.94,5.12,11.4,10.72,16.65,16.54,3.24,2.66,6.13,5.67,8.85,8.84,1.73,1.08,3.18,2.44,4.28,4.16,3.44,2.13,5.99,5.26,8.9,7.99,1.04.29,1.86.82,2.11,1.96,20.3,17.27,43.68,25.62,70.41,24.28,8.14-.41,16-2.4,23.86-4.38.11-.04.22-.08.32-.12,11.97-4.4,22.68-11.08,33.02-18.44.25-.21.51-.42.76-.63,4.43-4.09,8.85-8.17,13.28-12.26.2-.3.4-.61.6-.91,1.4-2.42,3.29-4.4,5.48-6.12.24-.25.49-.51.74-.76.96-2.46,3.11-4,4.65-6.01.29-.56.58-1.11.87-1.67.26-.67.73-1.65,1.38-1.03Z"/>
      <path class="cls-4" d="m663.93,74.67c-.36.59-.72,1.17-1.09,1.76.39,4.55-1.66,8.44-3.35,12.43-2.29,8.89-6.31,17.09-10.26,25.29-4.87,10.09-10.82,19.53-17.71,28.35-1.32,1.68-2.97,3.1-4.47,4.64-1.61,3.2-4.05,5.69-6.82,7.9-2.64,2.96-5.15,6.06-8.86,7.81l-.31.11-.34-.03c-2.4,4.42-6.84,6.56-10.72,9.21-14.12,9.6-29.38,16.73-46.12,20.48-7.79,2.92-15.99,3.97-24.15,4.99-27.89,3.5-55.6,2.48-82.98-4.21-9.85-2.41-19.51-5.52-28.54-10.3-4.3-1.04-7.91-3.57-11.72-5.62-8.89-4.81-17.41-10.2-24.96-16.99-4.3-2.7-8.07-6.03-11.51-9.73-.24-.24-.48-.48-.72-.72-2.47-1.34-4.35-3.33-6.07-5.49-10.35-9.37-19.97-19.48-29.72-29.45h0s-.01-.02-.02-.03c-7.36-5.99-14.03-12.83-21.83-18.31-23.44-15.93-49.05-20.24-76.58-14.31-.56.12-1.15.12-1.73.17-16.91,4.91-31.67,13.63-44.74,25.3-7.39,6.6-13.78,14.14-20.12,21.72-.41.87-.97,2.39-1.9,1.51-.71-.66.11-2.32.97-3.31,3.62-16.35,9.95-31.67,17.67-46.45,3.19-6.11,6.22-12.37,11.2-17.35,0-.63-.14-1.31.56-1.72,2.13-3.19,4.22-6.42,7.25-8.88,6.33-8.42,13.93-15.55,22.46-21.69,1.87-1.87,3.93-3.47,6.35-4.57,3.55-2.71,7.17-5.31,11.4-6.89,11.5-7.02,24.08-11.38,37.08-14.45,33.01-7.77,66.14-7.51,99.3-.87.4.08.75.4,1.13.62,17.78,3.58,34.2,10.55,49.71,19.82,1.48.88,2.87,1.91,4.3,2.87,8.24,5.02,15.9,10.8,22.89,17.45,2.6,1.62,4.76,3.74,6.72,6.07,10.99,9.1,20.52,19.69,30.51,29.81,2.01,1.5,3.83,3.2,5.29,5.25,6.13,5.15,12.26,10.3,18.39,15.45,10.51,6.82,21.5,12.42,33.95,14.99,23.63,4.89,46.08,2.05,67.38-9.4.75-.41,1.55-.75,2.32-1.12,9.09-5.85,17.58-12.49,25.52-19.82,4.24-4.73,8.47-9.46,12.71-14.18.76-1.55,1.77-2.88,3.59-4.07.53,2.4-.19,4.22-1.31,5.96Z"/>
      <path class="cls-61" d="m444.52,112.24c-.18.47-.42,1-.76,1.33-.16.15-.34.27-.55.31-.03.01-.07.02-.1.03-5.93,1.34-8.87,6.99-13.88,9.64-1.27.67-1.75,1.92-1.79,3.28-.12,3.86-2.08,6.92-4.43,9.69-2.19,2.56-3.39,5.39-3.44,8.69-.05,2.82-.61,5.19-3.79,6-.55.14-1.27.49-1.36.99-1.21,6.21-5.6,11.97-2.68,18.76.46,1.06.88,2.13,1.62,3.06.75.94,2.75,1.16,2.21,2.77-.34,1.02-1.19,1.48-2.17,1.68-.27.07-.55.11-.83.13-.21.03-.42.04-.63.05-2.99.09-5.05-2.07-7.4-3.33-5.35-2.84-10.29-6.45-15.26-9.91-2.52-1.76-4.38-4.49-7.48-5.55-.06-.03-.13-.07-.19-.1-.09-.05-.17-.09-.25-.14-4.22-2.38-7.07-6.54-11.34-8.86-.24-.24-.48-.48-.72-.72-.51-.93-.38-2.16-1.85-2.6-1.32-.4-2.28-1.42-2.34-2.94-.01-.1-.01-.21-.01-.32.01-.02.01-.04.02-.06,1.23-4.57,4.49-6.18,8.92-6.07.23,0,.46,0,.69-.01.24.01.49,0,.73-.01,1.12-.02,2.24-.06,3.36-.02,2.27.08,3.95-.53,4.42-3.1.41-2.27,1.93-3.55,4.19-3.76,3.35-.32,4.27-2.38,4.33-5.37.07-4.06-.3-8.12.2-12.17.02-.28.06-.57.1-.85.07-.12.14-.24.22-.36,1.45-2.31,3.69-3.94,5.34-6.08.22-.16.44-.32.66-.47t0,0c.61-.4,1.25-.73,2.04-.75.14-.01.28-.01.43,0,1.26.12,1.81,2.99,3.5,1,1.66-1.94,4.32-3.51,4.08-6.41-.43-5.1,2.36-7.79,5.8-11.14,4.24-4.14,9.95-7.46,11.27-14.26.48-2.42,2.44-2.7,4.4-1.65.07.04.14.08.21.12.2.11.39.24.58.38,1.53,2.04,1.38,4.38.99,6.65-.6,3.59-.6,7.18-.57,10.79.04,5.21.23,5.37,5.29,5.49,2.29.05,4.63-.27,6.84.71.04.03.07.06.1.09.09.07.17.15.25.23,2.24,2.2,1.38,5.14,1.5,7.8.11,2.45.26,4.93-.47,7.34Z"/>
      <path class="cls-28" d="m235.29,228.36c-.01-.43-.03-.87-.03-1.31.01-2.79-.91-4.81-4.04-5.2-1.17-.15-2.42-.52-2.63-1.91-.5-3.3-2.14-6.57-.53-9.96.03-.07.06-.13.09-.2,0,0,0-.02.02-.03-.81-1.76-2.47-1.34-3.89-1.5-.51.04-.95.12-1.32.22-.3.08-.55.19-.76.31h-.01c-1.77.98-1.07,3.09-.56,5.16,1.63,6.68.75,7.82-5.94,7.86h-.44q-9.74.03-10.46,9.69c-.13,1.76-.12,3.68-2.33,4.16-3.79.82-4.56,3.45-4.64,6.82-.14,6.07-.22,6.23-5.31,8.05-.12.04-.25.09-.38.13-.01,0-.03.02-.04.02-1.97,2.75-.97,5.91-1.21,8.89-.2,2.53-1.12,4.48-3.89,4.1-7.31-1-12.21,3.21-17.3,7.35-2.11,1.71-3.37,3.65-3.18,6.3.33,4.62-2.31,7.23-5.94,9.23-1.03.57-2.38,1.07-2.38,2.31-.03,4.45-2.91,8.11-3.34,12.42-.03.17-.04.35-.05.53,0,.08.01.15.02.22.21,2.23,2.04,3.39,3.57,4.36,2.78,1.75,4.74,4.13,6.62,6.67,1.47,1.44,2.94,2.88,4.41,4.31,3.88,3.1,7.29,6.66,10.5,10.43,1.06,1.86,2.41,3.44,4.37,4.41,1.55-.15,2.17-.63,1.77-1.48.76,1.46,1.09,3.42,3.64,2.85.02-.01.03-.01.05-.02.15-.04.3-.1.45-.15.42-.17.81-.39,1.16-.66.12-.09.23-.19.34-.3.12-.11.23-.24.33-.37,1.07-1.58.07-2.56-.86-3.8-2.49-3.29-5.85-6.08-6.3-10.63-.14-1.54-1.57-1.89-2.86-2.28-1.17-.36-3.11.16-3.25-1.48-.14-1.55,1.7-2.17,2.81-3.03,1.08-.84,2.44-.85,3.75-.96,6.93-.58,7.98-1.67,8.04-8.52.1-9.86-.44-19.74,1.72-29.5.52-2.33,1.24-3.84,3.77-3.83,5.12.04,9.91-2.3,15.08-1.98,1.83.11,3.47-.75,4.31-2.49,1.51-3.13,3.15-6.22,3.09-9.88-.07-3.63.12-7.28-.04-10.9-.16-3.44,1.34-4.51,4.65-4.55,9.57-.13,9.57-.24,9.35-9.88Zm-51.25,99.17c.32.61.54,1.21.9,1.73-.38-.5-.79-1-.9-1.73Zm1.55,2.51c-.11-.13-.24-.27-.39-.41-.01-.01-.02-.03-.03-.04-.04-.06-.08-.13-.12-.19.04.07.1.13.16.19.04.05.09.1.14.15.13.11.24.24.34.38.09.12.18.24.25.38-.09-.15-.21-.3-.35-.46Z"/>
      <path class="cls-17" d="m266.67,226.43c-1.17,1.65-2.14,3.68-4.74,2.89-.03-.01-.07-.02-.1-.03-.01-.03-.02-.06-.03-.09-1.24-4.59-7.38-7.43-10.81-5.11-.61.41-1.44.63-1.58,1.36-1.24,6.07-5.84,9.98-9.26,14.65-1.45,1.98-1.48,4.35-1.44,6.69.05,2.93-.67,5.2-4.17,5.41-.87.05-1.86.23-2.36.97-3.31,4.98-7.78,9.12-10.56,14.47-.61,1.17-.36,2.57-.36,3.87-.01,7.64-.01,15.28.01,22.92v1.04c.03.66.06,1.32.02,1.98.01.14.01.27.01.41,0,.23,0,.45-.02.67-.17,2.88-1.74,4.55-5.07,4.25-4.17-.36-5.84,1.36-5.53,5.48.13,1.76-.4,3.56-2.37,4.23-2.35.81-2.76-1.44-3.78-2.66-1.13.31-.76,1.58-1.39,2.06-4.44,3.4-4.59,7.54-3.02,12.58,1.43,4.61-.44,9.29-2.25,13.43-.69,1.59-1.37,1.72-2.03,1.3-.47-.31-.93-.9-1.38-1.45-.03-.03-.05-.05-.07-.07-.04-.05-.08-.1-.13-.15-.13-.16-.26-.3-.39-.42-.07-.07-.14-.14-.21-.19-.02-.02-.05-.04-.07-.06,0-.02-.03-.05-.04-.07-.01-.01-.02-.01-.02-.02-.78-1.31-1.82-2.51-2.17-4.03-.05-.17-.08-.35-.1-.53.2-.55.4-1.09.6-1.63-3.86-1.37-3.62-6.43-7.21-8.01-.98-.43-1.49-1.24-1.15-2.05,1.81-4.23-1.07-3.99-3.76-4.23-1.51-.14-3.47-.08-3.85-2.1-.34-1.83,1.98-1.52,2.48-2.36,2.25-3.75,5.75-3.27,9.19-3.19,3.37.07,4.65-1.7,4.59-4.91-.08-3.92.36-7.89-.1-11.76-.92-7.63,1.97-14.86,1.86-22.37-.03-1.99,1.17-3.07,3.05-2.82,5.88.8,11.25-2.81,17.15-1.83,1.8.3,2.6-.85,3.52-2.46,3.1-5.38,2.41-11.18,2.44-16.92.04-8.51.02-8.75,8.47-8.42,4.33.17,6.31-.9,5.55-5.48-.25-1.56-.16-3.2,0-4.79.25-2.73-.64-4.21-3.62-3.8-2.74.37-3.7-.97-3.4-3.54.25-2.11-.57-4.01-1.26-5.9-.8-2.19-.14-3.36,2.14-3.66h.01l.2-.2c.8-.66,1.62-.35,2.44.14.14.44.34.75.57.95.42.39.97.45,1.57.36.27-.03.56-.09.85-.17,1.23-.08,2.25.44,3.22,1.11.6.25,1.18.57,1.75.91h.01c.51.3,1.02.6,1.55.86,1.06.51,2.18.85,3.5.59,8.42,2.56,15.89,6.94,23.06,11.9Z"/>
      <path class="cls-19" d="m519.98,103.61s-.05.04-.08.05c-.09.08-.19.15-.3.22-.49.31-1.05.52-1.62.63-.06.02-.13.03-.19.04-2.18.36-4.61-.61-5.44-2.6-2.32-5.57-7.46-8.24-11.77-11.79-1.86-1.52-3.24.83-4.87.53-3.59-.65-1.93,2-1.99,3.27-.27,5.57-2.28,7.88-7.93,8.02-3.23.09-4.48,1.38-4.26,4.49.18,2.58-.52,4.73-2.66,6.54-2.26,1.91-2.68,4.73-2.57,7.59.13,3.27-.66,5.79-4.59,5.98-.71.03-1.53.27-1.94.87-3.35,4.96-7.95,9.06-10.49,14.52-1.14,2.47-.57,5.44-.19,8.18.14.96.85,1.48,1.77,1.69.86.2,1.73.22,2.61.2,9.77-.17,9.36.29,9.34,9.88-.01,5.08.11,10.17-.05,15.25-.14,4.22-.98,4.97-5.26,5.17-1.31.06-2.62.09-3.93,0-2.55-.16-4.46.31-5.3,3.24-.62,2.2-2.69,3.37-4.71,4.27-1.17.52-2.27,1.11-3.26,1.89-.31.23-.61.49-.89.77l-.18.18c-7.03-1.15-13.93-2.69-20.08-6.54-1.17-.74-2.56-.38-3.73-.94-1.53-.72-3.84-.63-3.79-3.17,0-.06,0-.13.01-.19h0c1.61-2.12,1.54-4.59,1.7-7.07.26-4.14,1.88-6.9,6.05-9.1,3.77-1.99,7.26-5.61,7.82-10.63.17-1.58.03-3.2.03-4.8.03-7.66,3.6-11.57,11.42-12.14,2.54-.18,4.13-.99,4.57-3.63.23-1.36,1.09-2.38,2.41-2.9,7.47-2.96,10.32-9.12,11.33-16.48.3-2.19.95-4.01,3.23-4.69,3.8-1.14,5.28-3.96,5.39-7.58.17-5.58,2.87-8.88,8.29-10.19,2.94-.72,3.82-2.94,2.54-5.62-.54-1.14-.97-2.03-1.25-2.74-.16-.4-.26-.74-.32-1.04-.31-1.66.92-2.07,4.57-3.3.4-.14.79-.32,1.18-.47.15-.06.3-.11.45-.16.07-.02.13-.03.19-.03,2.32-.44,3.32,1.52,4.71,2.74.04.04.08.07.12.11.08.06.15.13.23.21,1.67,1.52,3.04,3.4,5.08,4.51,6.13,5.15,12.26,10.3,18.39,15.45.27.4.34.83.21,1.3Z"/>
      <path class="cls-82" d="m621.6,151.72h0c.1,1.41-.93,2.14-1.74,2.99-.07.08-.14.15-.21.23-.02.02-.04.04-.06.06-2.84,2.49-5.23,5.49-8.22,7.85l-.31.11-.34-.03c-4.3,4.49-10.14,6.91-14.84,10.9-1.1.94-2.56,1.92-4.3,1.91-2.78,0-4.88-.25-6.52,3.56-1.12,2.59-5.73,4.81-9.7,4.53-1.64-.11-2.5.23-3.69,1.23-1.93,1.63-4.2,2.45-6.53,3.13-.21.06-.42.12-.63.18-.06.03-.12.04-.18.05-1.46.42-2.94.8-4.36,1.32-1,.37-2.01.68-3.02.95-.09.03-.18.05-.27.08-.02,0-.04,0-.06,0-1.68.45-3.37.82-5.05,1.23-.01.01-.01,0-.01,0-.72.17-1.43.35-2.13.55-.96.26-1.91.56-2.84.91-2.1.78-4.11,2.13-6.49.93,0-.01-.01-.01-.01-.02-.08-.16-.15-.31-.21-.47-1.78-4.12.07-7.07,4.52-7.03,6.38.05,8.01-1.25,9.05-7.25.64-3.67,3.5-6.23,8.1-6.5,3.47-.21,6.3-.74,7.33-4.64.31-1.15,1.4-1.93,2.57-2.16,3.4-.64,3.77-3.03,3.75-5.86-.04-7.26-.09-14.52.02-21.77.1-6.12,2-7.82,8.19-7.55.03-.01.06,0,.1,0h.06c1.07.66,1.63,1.7,1.78,2.87.5,4.06,3.32,4.14,6.43,3.93,3.63-.25,3.39-2.91,3.48-5.39.01-.15.01-.21.01-.23-.01.02-.02.14-.01-.21.22-7.61,2.19-9.1,9.76-7.39.15.09.3.19.44.3.09.07.18.13.26.21.97.78,1.73,1.83,1.84,2.88.69,6.52,5.53,11.89,5.01,18.71-.19,2.47-.08,4.48,3.44,2.73,2.19-1.09,4.32-.75,5.41,1.72.07.14.12.29.18.44Z"/>
      <path class="cls-15" d="m63.12,280.97c-.11.18-.23.34-.35.5-.03.04-.06.08-.1.12-2.54,3.19-6.81,3.12-10.14,4.34-8.05,2.96-14.32,8.45-21.34,12.87-4.44,2.79-8.37,6.21-11.96,10.02-1.19,1.26-2.38,2.7-4.46,1.79-.02-.04-.05-.07-.07-.11-.03-.05-.06-.11-.09-.16-.69-1.4.47-2.11,1.25-2.86-3.75.07-4.46,3.19-5.49,5.84.49-.45.75-1.24,1.35-1.76.72-.62,1.45-1,2.2-.46.03.03.07.05.1.08.1.09.21.19.31.32-.46,3.84-2.5,6.12-6.43,6.58-.07-.02-.14-.04-.2-.08-.18-.05-.34-.13-.49-.22-.36-.2-.66-.46-.91-.77-.15-.17-.28-.36-.4-.56-.14-.25-.27-.52-.38-.8-.49-2.93,1.39-5.16,2.29-7.68.82-2.3,1.69-4.57,2.13-6.98.02-.08.04-.15.07-.23.03-.11.06-.22.1-.33,1.52-4.97,4.44-9.32,6.32-14.14.05-.12.1-.23.14-.35.02-.06.05-.12.07-.18,2.52-6.22,6.48-11.62,9.92-17.32,0-.01.01-.01.01-.02.04-.1.09-.2.14-.29,1.93-4.04,5.52-7.03,7.19-11.23.22-.26.44-.51.66-.76,1.61-1.19,2.98-2.57,3.75-4.47.21-.25.42-.51.63-.77,1.47-.66,1.93-2.96,3.96-2.72h0c.11.01.21.02.32.05.01.01.03.01.04.01,1.1.41,2.17.46,3.35.18,5.41-1.26,8.23.73,8.59,6.31.32,4.78.17,9.57.07,14.36-.06,3.09.36,5.57,3.61,7.14,1.86.89,3.59,2.48,4.23,4.74Z"/>
      <path class="cls-2" d="m294.91,250.34c-.02.11-.05.23-.09.35v.02c-.24,1.13-.27,2.42-.99,3.29-1.35,1.65-3.69,1.97-3.98-.18-.44-3.18-2.04-2.06-3.54-1.74-2.79.6-6.28-1.08-8.32,1.33-1.81,2.13-.64,5.34-.8,8.07-.17,2.97-1.46,4.72-4.52,4.64-3.31-.1-6.77.94-9.88-.97-.09-.04-.17-.1-.26-.16,0,0-.03-.01-.04-.02-1.47-2.71-.66-5.68-.98-8.52-.2-1.74-.28-3.71-2.69-3.73-2.59-.02-2.32,2.11-2.46,3.78-.14,1.73-.02,3.47-.14,5.2-.16,2.22-.93,4.03-3.38,4.38-3.03.43-3.45,2.44-3.53,5-.32,9.17-.36,9.17-9.71,9.17-1.59,0-3.16.04-4.74,0h-.04c-.27.03-.53.06-.77.12-3.42.71-4.06,3.79-3.86,6.48.33,4.72-2.34,7.51-5.14,10.4-1.19,1.22-2.49,2.07-3.77,1.28-.4-.24-.8-.64-1.2-1.24v-1.75c.41-.37.81-.74,1.19-1.11,2.98-2.91,5.2-6.16,4.86-10.83-.15-2.12,1.35-3.79,2.5-5.46,1.5-2.17,1.7-4.35.01-6.43-2.43-3.01-1.85-6.11.74-8.13,6.21-4.84,10.77-11.37,16.64-16.3,5.74-4.8,10.52-9.79,13.58-16.52.43-.95,1.15-1.52,2.2-1.56.06-.01.13-.01.2-.01,2.04-.11,2.41-3.03,4.67-2.76,6.05,2.92,11.27,7.03,16.37,11.31,2.69,3.52,6.94,5.34,9.72,8.75.05.05.09.1.13.15.02.02.04.05.06.07.88,1.1,2.25,1.98,1.96,3.63Z"/>
      <path class="cls-66" d="m466.81,54.69c-.03.07-.06.13-.1.19-.03.06-.06.12-.09.17-.81,1.33-1.72.85-2.63-.21-.82-.97-.96-2.29-1.59-3.33-.1-.08-.18-.23-.33-.31.16.19.27.41.33.69-.14.86-.71,1.12-1.46,1.12,2.25,4.02-1.1,5.29-3.47,7-3.86,2.78-6.26,6.11-5.74,11.28.55,5.51.39,10.98-3.92,15.4-1.38,1.41-1.21,3.49-1.33,5.37-.14,2.26-.94,4.09-2.99,5.04-.21.1-.44.19-.69.27-3.05,0-6.11-.16-9.14.04-2.97.2-4.27-.76-4-3.89.41-4.73-.48-9.51.77-14.26.53-2.02.49-4.34-.73-6.34.03-.1.06-.19.1-.28.61-1.59,2.28-2.31,3.23-3.65,1.17-1.67,2.61-3.23,2.5-5.42-.2-3.88,1.86-6.79,3.65-9.99,2.48-4.41,5.72-6.75,10.85-6.3.84.07,1.73-.1,2.85-.6-.19-1.74-2.73-3.01-1.55-5.12,0-.03.02-.05.04-.08.04,0,.08-.01.11-.01,3.43-.3,4.35,3.82,7.38,4.26,2.6,1.62,4.76,3.74,6.72,6.07.32,1,1.26,1.74,1.23,2.89Z"/>
      <path class="cls-77" d="m435.97,28.28c-.05.09-.11.18-.15.28-.05.07-.09.14-.12.21-.01,0-.01.02-.02.03-2.7,4.72-3.55,4.89-6.85.61-1.17-1.51-1.99-.47-2.92-.27-1.66.35-3.41,1.32-4.05-1.34.02-.09.05-.18.06-.27.05-.18.08-.34.1-.51.57-3.54-1.89-4.98-4.67-6.19-.18-.08-.35-.16-.53-.23-.11-.06-.22-.12-.33-.18-1.89-1.03-3.91-1.75-6.01-2.26-1.47-.35-2.26.03-2.3,1.35,0,.17.01.36.03.57,0,.11-.01.22-.01.33-.06,2.28.43,4.62-.69,6.72-.05.12-.12.24-.2.35-.07.13-.15.25-.24.37-3.27,1.09-4.28,3.44-4.03,6.72.17,2.31.09,4.64-.05,6.96-.13,1.98-.64,3.76-2.71,4.55-1.98.76-2.26,2.37-2.46,4.19-.69,6.48-3.77,8.12-10.05,5.36-.04-.02-.07-.03-.11-.05-.09-.04-.18-.08-.27-.12-1.28-2.1-.99-4.45-.99-6.72,0-6.76-.12-13.51.06-20.25.02-.31.03-.62.03-.93.02-.18.02-.37.02-.55.02-1.53-.02-3.05.06-4.58.21-4.15-.39-7.53-4.98-9.45-3.05-1.28-3.15-4.22-1.93-7.07.03-.07.05-.13.09-.19.02-.06.05-.13.08-.19.72-.32,1.43-.26,2.13.06,17.78,3.58,34.2,10.55,49.71,19.82,1.48.88,2.87,1.91,4.3,2.87Z"/>
      <path class="cls-54" d="m218.87,66.73c-3.22,1.68-5.61,3.86-6.9,7.3-.7,1.88-2.2,3.22-4.21,3.31-3.65.18-4.05,2.4-4.01,5.32.04,2.93.66,6.25-3.41,7.62,1.98,1.24,4.55-.97,6.05,1.36-.06.14-.12.27-.19.4-.01.03-.02.06-.05.09-1.99,4.1-5.63,5.85-9.95,6.65-.16-.07-.33-.15-.49-.23-.08-.04-.15-.07-.23-.11-.01-.01-.02-.01-.03-.02-.04-.01-.07-.03-.11-.05-3.23-1.6-6.28-3.68-10.35-2.77-1.37.31-3.25.23-4.29-1.34-.01-.02-.03-.05-.04-.08-.07-.11-.14-.22-.2-.35,2.85-6.39,5.75-12.73,9.36-18.76,2.2-3.67,4.73-7.16,6.61-11.03,0-.63-.14-1.31.56-1.72,3.08-1.81,4.13-5.54,7.02-7.54.03-.02.07-.05.1-.07.06-.04.13-.07.19-.12.73-.48,1.29-1.24,2.17-1.47.09-.03.19-.05.29-.06.07.03.15.06.22.08,3.21,1.21,6.63.71,9.94,1.08,2.19.24,4.16,1,4.13,3.54-.04,3.13,1.71,6.94-2.18,8.97Z"/>
      <path class="cls-102" d="m476.35,305.71c0,5.18-.41,10.38.53,15.53,0,.02.01.03.01.05-.04.12-.09.25-.13.37-1.62,4.57-4.1,8.59-7.62,11.98-.2.06-.39.1-.59.12-.08.02-.17.02-.25.03-.22.01-.43.02-.63.03-8.46.5-8.93-.11-9.44-8.85-.08-1.44-.19-2.87-.99-4.13.01-.25,0-.49-.02-.73.01-.06,0-.13,0-.19-.25-4.1-3.01-6.8-5.71-9.53t-.02-.01c-.08-.09-.17-.17-.25-.26,4.84-3.75,10.57-6.11,15.36-9.95,1.66-1.34,3.58-2.35,4.91-4.1.25-.21.51-.42.76-.63,1.86-.06,2.38-3.04,4.52-2.47.03,0,.05.01.08.03.13.03.27.08.42.15q3.45,4.82.1,9.32c-.74.99-1.03,2.08-1.03,3.24Z"/>
      <path class="cls-44" d="m381.96,5.59c-.69.04-1.37.08-2.05.13-.08.07-.17.14-.25.19-1.58,1.19-3.43.98-5.26.92-.61-.04-1.19-.16-1.76-.33-.47-.13-.93-.29-1.39-.46-.12-.04-.23-.09-.35-.13-.35-.13-.69-.26-1.04-.38-.25-.09-.49-.17-.74-.24-.46-.04-.91-.09-1.37-.12-.12.01-.25.01-.37.01-.98.04-1.94,0-2.9-.1-1.97-.2-3.9-.65-5.82-1.17-.32-.08-.63-.17-.95-.26-.09-.03-.19-.05-.28-.08-1.35-.05-2.7-.06-4.06-.1-.14,0-.28,0-.42,0h-.51c-10.15.12-20.3.17-30.45.05-.39,0-.78,0-1.17-.01-1.47-.01-2.95-.03-4.42-.06-5.51.46-11.17-.18-16.47,2.03-.12.03-.24.06-.37.08-.14.03-.28.06-.43.08-.61.08-1.22.07-1.84-.02-.33-.05-.67-.08-1-.1-.67-.05-1.34-.04-1.99,0-.43.04-.85.09-1.26.17-1.14.18-2.25.49-3.35.89-.61.22-1.2.47-1.8.73-.36.22-.73.42-1.12.58-.14.08-.28.14-.43.19-.03.02-.06.03-.09.04-2.41.46-4.83.79-6.56,2.9-1.32,1.62-3.42,1.89-5.19,1.58-6.36-1.11-11.24,2.14-16.46,4.83,3.61,4.03,3.53,5.37-1.01,8.61-.03.03-.06.05-.1.08-.18.13-.37.26-.57.4-3.54.92-7.07.23-10.6-.08-1.71-.14-2.89-1.09-3.43-2.76,0-.02-.01-.04-.01-.06-.01-.06-.02-.12-.02-.18-.14-1.58,1.53-2.02,2.15-3.14,11.5-7.02,24.08-11.38,37.08-14.45,33.01-7.77,66.14-7.51,99.3-.87.4.08.75.4,1.13.62Z"/>
      <path class="cls-94" d="m496.23,275.77c-1.61,6.72-3.9,13.22-6.52,19.6-.1.27-.19.54-.3.8-.08.22-.16.44-.25.65-1.17,2.97-2.63,5.82-3.84,8.76-.48.75-1.08,1.46-1.51,2.24-.07.12-.13.24-.18.36-.26.56-.42,1.16-.38,1.86-.26.61-.77.86-1.37.97-.03-.01-.06-.01-.09-.02-.16-.03-.31-.05-.46-.07-2.81-.41-3.95.55-2.45,3.7.1.22.19.44.25.66.08.24.13.47.16.7.07.52.02,1.05-.16,1.59-.98,1.23-.39,3.63-2.37,4.09-.23.05-.48.08-.77.08-1.67-6-.58-12.12-.85-18.18-.06-1.5.86-2.22,2.2-2.85,2.51-1.18,3.69-2.82.27-4.41-1.86-.86-.72-2.16-.75-3.3v-.06c2.85-3.29,7.26-5.2,8.68-9.76.2-.3.4-.61.6-.91,2.34-1.58,4.01-3.76,5.48-6.12.24-.25.49-.51.74-.76.53-.28.79-.83,1.2-1.22.69-.67,1.34-1.88,2.46-1.18,1.03.64.44,1.8.21,2.78Z"/>
      <path class="cls-18" d="m230.44,81.4c-.12,0-.24-.01-.36-.02-.11,0-.22.01-.33.02-4.09.23-7.63,2.15-11.28,3.76-.26.19-.54.37-.81.53h0c-.45.26-.92.49-1.4.69-.56.25-1.13.46-1.7.68-.53.21-1.05.42-1.57.64-.43.2-.86.41-1.27.66-1.98,1.01-4.03,1.94-5.51,3.68-.04.03-.06.06-.09.09-3.13,2.66-6.08,5.64-10.49,6.11-.06.06-.11.12-.17.18-.06.07-.13.14-.19.21-.37.77-.93,1.31-1.59,1.74-.38.25-.79.46-1.21.67-1.95,1.28-3.9,2.56-5.41,4.38-.01.01-.01.02-.02.03-.53.81-1.18,1.48-1.9,2.09-.3.26-.61.5-.93.74-4.13,4.76-9.15,8.69-13.12,13.62.05-.12.13-.25.23-.41,2.29-2.48,1.58-7.45,4.13-10.68,3.94-5,3.94-10.91,5.26-16.55.03-.13.06-.25.09-.38,1.43-2.47,3.3-4.8,4.21-7.45,2.34-6.8,6.58-12.47,10.36-18.4.87-1.37,1.14-2.54,1.07-3.99-4.98,4.98-8.01,11.24-11.2,17.35-7.72,14.78-14.05,30.1-17.67,46.45-.31.92-.69,1.88.93,1.8,6.34-7.58,12.73-15.12,20.12-21.72,13.07-11.67,27.83-20.39,44.74-25.3-.74-1-1.81-1.15-2.91-1.22Zm-59.48,41.1c.22.08.05.16,0,0h0Z"/>
      <path class="cls-5" d="m553.88,192.62c-7.79,2.92-15.99,3.97-24.15,4.99-27.89,3.5-55.6,2.48-82.98-4.21-9.85-2.41-19.51-5.52-28.54-10.3.03-.14.07-.28.1-.43.01-.04.02-.09.03-.13.03-.04.06-.08.09-.12.53-.69,1.23-1.01,2.06-1.01.13,0,.26.01.39.03.03.01.06.02.08.03.26.07.49.21.68.38h0c.07.07.13.13.19.2.39.83.97,1.54,1.89,1.66,6.54.87,11.7,5.33,17.89,6.87,2.44.61,5.05.54,7.3,1.92.46-.37.92-.61,1.39-.75,1.39-.45,2.85-.03,4.36.26,5.34,1.02,10.55,2.87,16.09,2.73.18-.02.35-.03.53-.05.29-.02.59-.05.88-.07,3.07-.24,6.02-.2,9.1,1.37,2.9,1.49,6.58.29,9.9.51h.93c7.64-.03,15.27.08,22.9-.01,7.08-.08,13.95-2.11,21.01-2.47,1.31-.08,2.61-.53,3.88-.11.25.08.49.2.74.36,2.4.69,3.99-1.44,6.11-1.74.02,0,.03,0,.05,0,1.59-.33,3.19-.64,4.78-.51,0,0,0,.01.01,0,.77.08,1.54.26,2.31.61Z"/>
      <path class="cls-81" d="m663.93,74.67c-.36.59-.72,1.17-1.09,1.76-1.24,3.1-1.23,6.59-2.96,9.54-.08.16-.16.33-.23.49-.08.16-.15.31-.22.47-1.84,4.1-2.73,8.56-4.57,12.67-.35.79-.62,1.63-1.55,1.97-.11.02-.23.04-.34.05-.19.03-.38.06-.57.08-4.87.59-9.14-.45-12.23-4.82,0-.11.01-.22.02-.32,0-.02,0-.03.01-.05.26-2.65,3.24-2.96,4.5-4.8.95-1.37,2.4-2.48,3.77-3.55.15-.15.31-.3.46-.46.11-.09.21-.19.31-.3,3.22-3.16,6.31-6.45,9.28-9.87,1.2-1.38,2.21-3.07,4.29-3.36.12.01.23.03.34.06.07.02.14.05.21.08.21.08.4.2.57.36Z"/>
      <path class="cls-23" d="m192.25,201.11c-.08.1-.16.19-.24.29-.02.02-.04.05-.05.07-.07.07-.12.14-.18.21-.09.05-.19.11-.28.15-.22.11-.45.2-.68.27-1.33.42-2.75.25-4.13.35-.36.01-.72.02-1.08.03-.26,0-.51.01-.77.03-.15,0-.3.01-.45.02-4.35.15-8.71.02-13.06,0-.52,0-1.03,0-1.55,0-.93,0-1.86,0-2.79.02-3.14.1-6.28,0-9.42.03-.48-.05-.96-.08-1.45-.09-.31-.01-.62-.01-.92-.01h-.01c-.47.01-.95.02-1.42.05-2.19.02-4.39-.03-6.58-.01-2.61-.3-5,.68-7.46,1.28-1.13.27-2.28.38-3.44.38-.26-.01-.52-.01-.78-.01-2.57-.04-5.11.09-7.57.9-.32.1-.64.22-.96.35-.03.01-.07.02-.1.03-.37.12-.74.21-1.12.27-.03,0-.07,0-.1.02-.94.13-1.88.28-2.82.44-10.36,1.75-20.32,4.95-30.03,8.96-9.64,3.97-18.89,8.71-27.31,14.96-1.4,1.04-2.9,1.98-4.8,1.27-.11-.1-.21-.19-.32-.29l-.18-.17c11.99-9.7,25.57-16.52,40.07-21.43,29.39-9.95,59.68-11.51,90.34-8.89.56.05,1.09.35,1.64.53Z"/>
      <path class="cls-10" d="m303.84,397.02c-21.36-2.06-41.46-8.25-60.51-18.06-18.26-9.4-33.93-22.21-48.73-36.22.26-.37.61-.63,1.03-.78.17-.05.35-.1.52-.12.7-.12,1.38-.07,2.07.13.19.06.36.14.53.25.13.06.26.14.37.24.1.07.19.15.28.25h.02c.11.12.21.25.31.38.07.11.13.22.21.32,1.22,1.92,2.78,3.5,4.77,4.67,0,.01.02.01.03.02.09.08.18.16.28.24,1.27,1.13,2.61,2.18,4.03,3.1.06.05.12.1.19.13.22.15.44.29.66.43,2.22,2.69,4.82,4.72,7.87,6.58,3.18,1.94,6.03,4.72,8.92,7.25,2.19,1.92,4.57,3.54,7.17,4.84.06.03.13.07.19.1.17.09.34.18.51.28.44.24.89.5,1.32.76.09.06.17.11.25.18.64.42,1.25.88,1.89,1.29.06.04.13.08.19.12,1.2.83,2.51,1.43,3.88,1.92.05.01.1.03.15.05.07.03.13.07.2.09,1.25.62,2.51,1.19,3.73,1.85.52.28,1.04.58,1.54.9.29.18.57.36.84.56,2.13,1.32,4.49,2.12,6.78,3.09.18.07.36.15.54.23.14.06.27.12.41.18,4.84,2.34,9.9,4.01,15.11,5.24.16.08.32.15.49.22.08.04.16.08.25.11,4.31,1.88,8.92,2.72,13.44,3.88.26.06.53.13.79.2.23.06.45.12.68.18,2.72,0,5.39.21,7.96,1.18,1.47.65,3.03.63,4.59.67,1.66.15,3.26.43,4.43,1.77.03.06.05.11.06.17.02.05.03.1.04.15.07.35-.03.68-.28.98Z"/>
      <path class="cls-49" d="m65.48,282.41c-23.74,6.96-42.27,21.52-58.18,39.89-1.59,1.83-3.23,3.64-4.84,5.46-1.65-.11-1.37-1.45-.98-2.15.81-1.48.44-3.14.93-4.63.03-.1.07-.2.11-.3,1.71-6.86,3.91-13.55,6.94-19.95.23-.29.44-.39.65-.3.12.06.24.17.35.35.33,3.56-1.12,6.63-2.65,9.68-.81,1.64-1.92,3.19-1.71,5.16.53-.2.59.06.49.49-.06.26-.18.59-.29.9-.29.85-.49,1.6.91.77.18-.11.39-.24.63-.41,3.79-.29,5.12-3.03,6.11-6.12-.01-.05-.02-.1-.03-.15-.13-.61.11-.86.69-.76.06,0,.13.02.21.04,4.88-.86,6.74-5.54,10.21-8.2,4.45-3.43,9.58-5.84,13.78-9.67,1.38-1.26,3.09-1.53,3.71-4.01.47-1.84,3.83-1.02,5.89-1.87,4.61-1.89,9.14-4.45,14.26-5.04.06-.01.13-.01.19-.02.74-.72,1.57-.77,2.46-.32.07.06.13.12.17.18.03.03.05.06.06.09.17.27.15.57-.07.89Z"/>
      <path class="cls-7" d="m422.77,377.77c-13.03,8.29-27.53,12.9-42.39,16.33-24.73,5.71-49.8,5.67-74.94,3.49-.54-.04-1.07-.37-1.6-.57.03-.36.06-.72.09-1.08.05-.02.1-.04.15-.05,2.34-.85,4.75-.17,7.13-.31l.36-.03h.33c7.36-.16,14.72-.18,22.07-.01h.24c.13,0,.27-.01.4-.01,4.95-.12,9.9-.21,14.83.01,7.52.33,14.78-1.15,22.03-2.71.26-.06.51-.11.77-.17.05,0,.1-.02.15-.03,10.94-2.02,21.65-4.84,31.99-8.94.71-.27,1.42-.56,2.12-.86.54-.21,1.07-.44,1.61-.67,3.34-1.3,6.56-2.86,9.77-4.47,1.52-.76,3.03-1.7,4.87-1.11.02.02.04.05.05.07.29.37.28.74-.03,1.12Z"/>
      <path class="cls-99" d="m165.01,313.05c-8.45-7.3-16.59-14.99-26.29-20.69-22.16-13-45.85-15.59-70.69-10.4-.84.18-1.7.3-2.55.45,0-.28,0-.56-.01-.85,0-.05.01-.09.02-.13.16-1.66,1.41-1.88,2.59-2.21.29-.08.58-.16.85-.28,1.77-.27,3.56-.5,5.31-.92,1.8-.28,3.66-.13,5.41-.79.56-.13,1.12-.21,1.68-.26.28-.03.57-.05.85-.06.12,0,.23-.02.35-.02,2.73-.13,5.47-.11,8.2-.05h.03c.2-.01.4-.01.59-.02,9.01-.3,17.82,1.04,26.5,3.37.58.11,1.11.35,1.64.61.14.07.28.14.43.21.64.32,1.3.6,2.03.64.12.02.24.02.36,0h.01c.07,0,.14,0,.2-.01,3.02.21,5.41,1.85,7.83,3.42.53.32,1.08.59,1.64.84.02,0,.04.02.05.03.18.08.37.16.55.24,1.01.43,2.02.84,2.99,1.35.23.12.46.25.68.39.53.3,1.02.65,1.5,1,.07.05.14.1.21.15.36.26.74.51,1.12.74,3.66,2.24,8.04,3.41,10.92,6.82.22.26.43.53.63.82h.01c1.25,1.43,3.13,2.25,4.2,3.83.26.37.46.78.6,1.25,2.31,3.32,6.63,4.51,8.65,8.18.42.77.94,1.43.91,2.35Z"/>
      <path class="cls-22" d="m623.86,108.84c-.05.07-.11.13-.16.19-.55.61-1.24,1.04-1.91,1.5-.07.05-.13.09-.2.14-.32.22-.67.39-1.03.54-.23.07-.45.15-.68.22-.56.2-1.11.42-1.65.66-.67.29-1.34.6-2.01.9-2.58.73-4.7,2.44-7.16,3.43-.28.12-.56.22-.85.31-.13.05-.25.1-.38.14-7.55,2.85-15.5,3.88-23.41,5.11-.19.02-.37.05-.56.08-.17.03-.34.05-.51.08-1,.09-2,.05-2.99.03-5.14-.05-10.28.02-15.42-.03-2.22.24-4.02-1.23-6.1-1.61-.28-.05-.58-.09-.88-.09-.24,0-.48,0-.71-.01-5.68-.12-10.94-2.07-16.24-3.85-.14-.06-.27-.12-.41-.18-.12-.06-.25-.11-.37-.16-6.3-2.78-12.65-5.45-18.21-9.64-1-.75-2.52-1.12-2.42-2.72,0-.12.01-.26.04-.4.04-.39.09-.78.13-1.17,10.51,6.82,21.5,12.42,33.95,14.99,23.63,4.89,46.08,2.05,67.38-9.4.75-.41,1.55-.75,2.32-1.12.14.1.28.21.42.3.02.02.04.04.06.05.02.05.04.09.06.14.19.53.16,1.05-.1,1.57Z"/>
      <path class="cls-55" d="m610.72,162.93c-2.4,4.42-6.84,6.56-10.72,9.21-14.12,9.6-29.38,16.73-46.12,20.48-1.48-.02-2.96-.04-4.45-.06-.88-.01-1.76-.02-2.65-.04h-.05c2.46-1.34,5.26-1.17,7.9-1.73.57-.12,1.4.06,1.99-.01.02,0,.04,0,.06,0,.1-.02.19-.04.27-.08.45-.2.58-.74-.04-2.12-.25-.55.8-1.36,1.53-.97,2.08,1.1,4.08,1.24,5.89.82.06-.01.12-.02.18-.05.21-.04.42-.11.63-.18,2.27-.75,4.16-2.34,5.43-3.91,2.4-2.98,3.84-.8,5.61-1.25,3.01-.77,5.74-2.69,8.57-4.15.35-.18.44-.49.39-1.02-.26-2.66.56-3.89,2.72-3.45,4.28.87,7.67.08,9.69-4.04.85-1.75,4.36.53,3.99-2.8,4.19.69,5.46-4.39,9.18-4.64Z"/>
      <path class="cls-37" d="m440.36,315.82s-.01.01-.01.02c-.06.09-.12.17-.18.25-.15.2-.32.37-.49.52-.46.4-.99.62-1.54.75-1.51.37-3.25.1-4.59.95-.24.13-.48.25-.73.36-.14.07-.27.12-.41.18-.27.1-.55.2-.84.28-4.08.56-8.06,1.82-12.16,2.17-.34.03-.68.05-1.02.06-.98.05-1.98.04-2.98-.06-5.18.02-10.36-.14-15.53.05-4.24.16-8.27-.74-12.33-1.7-1.06-.08-2.1-.24-3.13-.47-1.39-.28-2.75-.68-4.1-1.1-2.34-.74-4.66-1.6-7.04-2.26-.02,0-.03-.01-.05-.02-.24-.07-.48-.15-.72-.23-1.81-.65-3.49-1.64-5.18-2.55-.07-.04-.14-.08-.21-.11-.27-.15-.54-.3-.81-.44-5.49-2.95-11-5.83-16.13-9.42-2.55-1.79-5.63-2.82-7.34-5.72-.49-.82-1.13-1.51-.77-2.49h.01c.02-.07.06-.14.09-.22.01,0,.01-.01.01-.01.61-.45,1.18-.42,1.71.12,20.3,17.27,43.68,25.62,70.41,24.28,8.14-.41,16-2.4,23.86-4.38.11-.04.22-.08.32-.12.55-.17,1.1-.19,1.67.02.06.08.11.16.15.25.02.04.04.09.06.13.1.29.1.59,0,.91Z"/>
      <path class="cls-12" d="m489.21,297.55c-3.43,10.22-8.32,19.74-13.9,28.91-12.32,20.29-28.25,37.07-48.67,49.39-1.23.74-2.58,1.28-3.87,1.92-.02-.35-.05-.7-.08-1.05.02-.05.04-.09.06-.14,1.32-3.13,4.53-4.07,7.03-5.7,13.41-8.72,24.84-19.48,34.12-32.5.23-.3.5-.58.77-.84.66-.67,1.37-1.29,1.78-2.17.01-.01.01-.03.02-.04.3-.62.7-1.11,1.2-1.51.39-.31.83-.55,1.33-.74,3.06-3.33,5.52-7.03,6.99-11.34.39-.11.67-.28.89-.5,1.06-1,.5-2.97,1.72-3.88.21-.68.37-1.38.53-2.08.39-1.63.83-3.24,2.2-4.36.23-.2.48-.38.77-.54.29-.29.58-.58.87-.87-.31-1.6.65-2.57,1.72-3.49.61-3.85,3.48-6.76,4.38-10.49.18.21.29.42.34.64.11.44,0,.91-.2,1.38Z"/>
      <path class="cls-54" d="m312.28,95.74c-.03.19-.09.36-.18.52-.03.06-.07.12-.12.18-.08.12-.19.23-.32.32-23.44-15.93-49.05-20.24-76.58-14.31-.56.12-1.15.12-1.73.17-1.22-.03-2.44-.07-3.66-.1-.07-.45-.04-.81.06-1.12.24-.67.84-1.05,1.54-1.35.08-.04.17-.08.25-.11.09-.04.18-.08.27-.11,5.55-3.54,11.64-2.3,17.66-2.11,6.24.21,12.48.05,18.73.05,2.49,0,4.82.64,7.09,1.57t.01,0s.04.01.06.02c.27.03.55.07.82.11,6.79.86,13.43,2.46,19.91,4.73.83.28,1.71.08,2.56.24.13.03.25.07.37.13.15.05.29.13.42.21.1.06.19.13.28.2.1.05.17.13.21.21.06.11.07.23.05.37-.03.63-.56,1.5.28,1.73.09.03.21.05.35.05.06.01.13.01.21.01,2.77,1.52,5.54,3.03,8.23,4.66,1.44.87,3.08,1.68,3.23,3.72Z"/>
      <path class="cls-31" d="m659.49,88.86c-2.29,8.89-6.31,17.09-10.26,25.29-4.87,10.09-10.82,19.53-17.71,28.35-1.32,1.68-2.97,3.1-4.47,4.64-.32.27-.63.29-.94.05-.03-.01-.07-.04-.1-.07-.21-3.28,2.36-5.2,4.07-7.29,5.53-6.79,10.03-14.2,14.2-21.85.14-.37.3-.73.47-1.08.08-.16.16-.32.25-.48.2-.36.42-.71.66-1.05.22-.33.42-.66.59-1.01.69-1.37,1.09-2.87,1.75-4.25.17-.33.34-.65.54-.96,1.98-2.09,2.02-5.28,3.86-7.45.26-.3.55-.58.88-.84,1.59-2.56,2.76-5.02,2.61-8.38-.1-2.1,2.25-4.31,3.51-6.47.1.15.19.3.25.45.34.79.18,1.59-.16,2.4Z"/>
      <path class="cls-105" d="m418.43,182.42c0,.13-.01.26-.02.39l-.2.29c-4.3-1.04-7.91-3.57-11.72-5.62-8.89-4.81-17.41-10.2-24.96-16.99-.31-.32-.36-.61-.17-.87.07-.09.17-.18.3-.27,2.53-.12,4.55,2.56,7.06,1.01,1.27,1.68-2.6,1.62-.67,3.08,1.32,1,2.39,3.29,4.15,2.6,2.13-.83,2.76-.82,2.67,1.58-.02.58.54,1.55,1.05,1.73,5.6,1.95,9.8,6.48,15.43,8.34.64.36,1.34.57,2.05.78.75.23,1.51.46,2.19.88.04.02.09.05.13.07.31.16.63.32.93.49.96.54,1.78,1.19,1.78,2.51Z"/>
      <path class="cls-109" d="m364.44,144.31c-.01.06-.03.11-.06.17-.01.05-.03.11-.05.16-.39.27-.76.23-1.1-.09-10.35-9.37-19.97-19.48-29.72-29.45h0s-.01-.02-.02-.03c-.2-.22-.28-.45-.24-.7.03-.25.08-.38.14-.38.05-.04.1-.08.16-.1.02-.02.04-.03.06-.03.04-.03.07-.05.11-.06.08-.04.17-.07.26-.09.18-.05.36-.07.56-.06,4.66,2,7.37,6.21,10.86,9.54.15.14.3.28.45.41.12.12.25.24.38.35.27.26.54.52.8.8.13.14.27.29.4.44.02.02.04.05.06.07,5.2,4.41,9.17,10.06,14.62,14.23,1.48,1.14,3.05,2.56,2.33,4.82Z"/>
      <path class="cls-59" d="m241.34,213.35c-.44.34-.84.52-1.23.59-1.25.23-2.32-.7-3.43-1.32-1.09-.61-2.22-1.02-3.5-.9-.96-.02-1.95.05-2.62-.86-.6-.98-1.58-.86-2.5-.88h-.12c-.92-1.24-2.28-.76-3.49-.87-.75-.1-1.5-.21-2.25-.33h-.01c-5.27-.8-10.48-1.91-15.65-3.19-1.7-.45-3.3-1.28-5.1-1.34-.39-.02-.77-.03-1.16-.05-.29-.01-.58-.02-.87-.02-.23-.01-.47-.01-.7,0-2.32-.19-4.87.65-6.8-1.41-.09-.23-.13-.45-.12-.67,0-.05.01-.1.01-.15.03-.16.08-.32.16-.48,0-.03.02-.07.04-.1l.25-.26c16.99,1.58,33.49,5.11,49.09,12.24Z"/>
      <path class="cls-9" d="m496.34,82.27s-.03.06-.04.08c-.09.15-.17.22-.25.22-1.58-.68-2.31-2.72-4.34-2.67-.4-.11-.77-.25-1.11-.42-2.86-1.38-3.91-4.65-6.16-6.7-4.69-4.28-9.49-8.48-13.73-13.25,0-.19-.01-.36-.05-.5,0-.03,0-.05-.03-.08-.32-1.01-1.75-.79-2.49-1.36-.17-.13-.31-.3-.38-.55-.01-.03-.02-.07-.03-.1-.53-.54-.82-1.22-1.11-1.89-.07-.16-.14-.32-.22-.48-.27-.92-.55-1.85-.82-2.77,10.99,9.1,20.52,19.69,30.51,29.81.27.23.35.45.25.66Z"/>
      <path class="cls-35" d="m471.5,296.07c-1.49,4.22-5.82,5.31-8.86,7.72-3.34,2.66-7.39,4.42-11.13,6.58,0,.01-.01.01-.01.02-.47.91-1.38,1.3-2.17,1.82-.28.22-.58.41-.89.57-.75.44-1.55.75-2.35,1.09-.65.27-1.29.55-1.89.92-.52.34-1.07.59-1.68.71-.05.01-.11.01-.16.01-.25.03-.49.02-.72-.02-.47-.06-.9-.26-1.28-.58-.05-.04-.1-.08-.15-.13-.68-.05-1.37-.1-2.05-.15.11-.04.22-.08.32-.12,11.97-4.4,22.68-11.08,33.02-18.44Z"/>
      <path class="cls-60" d="m223.48,38.05c-5.91,4.3-10.94,9.44-15.95,14.66-.16.17-.35.31-.55.43-.29.19-.6.36-.87.58-.34.83-.92,1.41-1.76,1.74-.18-.22-.29-.45-.34-.68-.1-.44.01-.89.23-1.34,6.33-8.42,13.93-15.55,22.46-21.69.4-.17.81-.19,1.22-.06.01.07.01.14.01.21h0c.23,3.23-2.66,4.84-4.45,6.15Z"/>
      <path class="cls-32" d="m458.86,45.73c-3.56.52-4.56-3.39-7.33-4.23-.07.02-.13.04-.2.06-1.65.46-3.06-.47-4.09-1.39-2.97-2.69-6.49-4.67-9.28-7.55-.04-.06-.08-.12-.12-.17-.14-.21-.31-.41-.48-.6-.8-.89-1.76-1.7-1.66-3.08.01-.1.02-.2.04-.31l.23-.18c8.24,5.02,15.9,10.8,22.89,17.45Z"/>
      <path class="cls-20" d="m648.92,88.64c-2.9,2.62-5.81,5.24-8.71,7.86,0,.02-.01.04-.02.06-.35,1.45-1.41,2.28-2.49,3.1-.13.1-.26.2-.38.3-.12.09-.23.18-.34.27-2.65,2.22-5.74,3.87-8.22,6.33-1.41,1.4-3.06,1.8-4.8.71-.09-.06-.19-.12-.28-.19l-.26-.3c9.09-5.85,17.58-12.49,25.52-19.82.14.15.24.3.3.44.17.42.04.83-.32,1.24Z"/>
      <path class="cls-41" d="m498.02,271.28c-2.13,9.02-4.64,17.93-8.81,26.27-.02-.24-.03-.49-.05-.73-.03-.43-.06-.86-.09-1.29,2.83-7.06,5.33-14.22,7.16-22.33-1.63.92-2.75,1.55-3.87,2.19.96-2.46,3.11-4,4.65-6.01,1.66-.07,1.14,1.02,1.01,1.9Z"/>
      <path class="cls-51" d="m333.62,113.95c-.04.38-.07.76-.11,1.14l-.02-.02c-7.36-5.99-14.03-12.83-21.83-18.31l.16-.39c.09-.04.19-.08.28-.11,2.02-.8,4.01-.19,5.37,1.1,4.9,4.67,10.2,8.93,14.76,13.96.66.72,1.26,1.51,1.38,2.54,0,.03.01.06.01.09Z"/>
      <path class="cls-17" d="m196.15,341.84c-.13.26-.3.54-.53.82-.34.02-.68.05-1.02.08-.25-.28-.51-.57-.76-.86-.77-1.55-2.02-2.64-3.43-3.57-2.04-2.04-4.08-4.07-6.12-6.11,1.31-.48,1.51-1.33.95-2.42-.03-.06-.06-.13-.1-.19h.07c.09,0,.17.02.25.03,1.98.36,1.42,3.89,4.05,3.46.25.09.48.2.69.32,1.43.78,2.3,2.16,3.33,3.37,0,0,.01,0,.02.02.03.04.07.09.11.13.07.08.14.16.21.24.13.14.26.27.39.38.04.06.08.09.13.14.02.02.04.04.07.07.12.1.24.2.37.3.39.37.74.76,1.01,1.15.56.8.77,1.66.31,2.64Z"/>
      <path class="cls-79" d="m663.36,74.31c-.14.11-.28.22-.42.32-4.67,4.67-9.34,9.34-14.02,14.01.01-.31.01-.63.01-.94,0-.25.01-.49.01-.74,4.24-4.73,8.47-9.46,12.71-14.18.07-.02.14-.04.21-.06.66-.29,1.26-1.27,1.96-.44.72.86.2,1.49-.46,2.03Z"/>
      <path class="cls-68" d="m319.01,273.23c-.08-.03-.17-.05-.25-.09-.06-.01-.12-.03-.18-.07-3.93-1.46-5.56-5.67-8.99-7.75-.02-.02-.03-.04-.05-.06-.07-.09-.14-.18-.22-.27-1.42-1.77-3.25-3.13-4.83-4.75-1.1-1.12-2.3-2.15-2.07-3.96.02-.06.04-.12.07-.18.12-.33.32-.62.61-.86,5.94,5.12,11.4,10.72,16.65,16.54.35.79-.1,1.17-.74,1.45Z"/>
      <path class="cls-75" d="m485.54,283.18c-.22,5.63-4.02,8.08-8.68,9.76-.03.01-.05.02-.08.03-1.6.64-2.36,2.85-4.52,2.47,4.43-4.09,8.85-8.17,13.28-12.26Z"/>
      <path class="cls-84" d="m27.05,268.47c-2.8,6.05-7.35,11.13-9.6,17.47-.34.32-.68.45-1.02.35-.18-.05-.36-.17-.54-.35,2.77-6.17,5.92-12.14,10.01-17.58.29-.29.56-.37.81-.23.12.06.23.18.34.34Z"/>
      <path class="cls-23" d="m60.64,232.74s-.01.01-.01.02c-.08.17-.17.33-.27.48-.18.29-.39.55-.64.79-.21.22-.44.43-.69.63-.12.09-.23.18-.35.27-1.98,1.15-3.44,2.91-5.09,4.43,0,.01-.02.02-.03.03-.16.09-.32.18-.47.27-1.87,1.17-3.08,3.06-4.73,4.45-.09.09-.19.17-.29.24-.04.04-.09.08-.13.11-.58.16-1.12.12-1.62-.17-.03-.01-.06-.03-.09-.05-.03-.01-.07-.04-.1-.06-.25-.41-.22-.79.08-1.15,4.24-4.54,8.78-8.72,13.99-12.13l.18.17c.4.51.44,1.07.26,1.67Z"/>
      <path class="cls-13" d="m303.1,255.24c-.02.35-.05.68-.07,1.03h0c-.21.02-.42.02-.61,0-3.73-.15-5.48-3.13-7.6-5.57-.17-.19-.34-.38-.51-.56-.58-1.16-1.17-2.32-1.75-3.48.06-.07.13-.14.2-.18.26-.19.55-.16.84.09,3.42,2.61,6.65,5.43,9.5,8.66Z"/>
      <path class="cls-53" d="m17.45,285.94c-1.53,5.32-5.52,9.49-6.99,14.84-.15,0-.3-.02-.45-.02-.18-.02-.37-.02-.55-.03,1.69-5.13,3.77-10.08,6.43-14.79h1.56Z"/>
      <path class="cls-43" d="m328.6,280.62c-.24.29-.55.48-.91.57h0s-.08.03-.12.04c-.04-.01-.08-.01-.11-.02-4.23-.72-6.17-4.31-8.83-7.02-.04-.05-.08-.09-.12-.13-.04-.05-.09-.09-.13-.13-.04-.32.03-.61.2-.86.05-.08.11-.15.18-.22.33-.36.66-.71.99-1.07,3.24,2.66,6.13,5.67,8.85,8.84Z"/>
      <path class="cls-27" d="m381.66,159.35c0,.14-.03.27-.05.41-.02.24-.05.49-.08.73-4.3-2.7-8.07-6.03-11.51-9.73,3.61.5,5.37,3.67,8.02,5.56,1.28.91,2.42,2.01,3.62,3.03Z"/>
      <path class="cls-33" d="m244.45,20.29c-.56.96-1.11,1.91-1.66,2.87-.16.15-.31.31-.47.45-2.55,2.43-5.31,4.43-8.98,4.69-.06.01-.11.02-.17.01-.08.01-.16.02-.24.02-.29-.42-.25-.8.12-1.15,3.55-2.71,7.17-5.31,11.4-6.89Z"/>
      <path class="cls-26" d="m33.47,259.9c-2.78,2.37-4.32,5.69-6.42,8.57-.16,0-.32-.03-.48-.05-.22-.01-.45-.04-.67-.06,2.19-4.15,4.9-7.95,8-11.46.72,1.12.65,2.08-.43,3Z"/>
      <path class="cls-39" d="m179.92,327.79c-3.89-3.08-7.24-6.71-10.5-10.43,4.56,2.42,7.97,5.98,10.5,10.43Z"/>
      <path class="cls-70" d="m341.78,292.77c-.12.19-.27.35-.45.48-.08.06-.17.12-.27.16-.08.05-.17.09-.26.12-1.89-.24-3.27-1.09-4.43-2.21-.01,0-.01-.01-.02-.02-.27-.25-.52-.51-.76-.79-1.09-1.21-2.02-2.59-3.11-3.79-.06-.07-.13-.14-.19-.21-.01-.04-.01-.08-.02-.12-.08-.64.05-1.2.61-1.61,3.44,2.13,5.99,5.26,8.9,7.99Z"/>
      <path class="cls-80" d="m293.6,246.58c-.24.02-.47.04-.71.06-.11.01-.22.02-.33.03-3.11-3.04-7.69-4.52-9.52-8.93,3.95,2.44,7.4,5.46,10.56,8.84Z"/>
      <path class="cls-76" d="m620.23,155.04c-2.64,2.96-5.15,6.06-8.86,7.81,2.04-3.2,4.56-5.91,7.83-7.88.23-.26.45-.34.66-.26.13.05.26.16.37.33Z"/>
      <path class="cls-79" d="m659.49,88.86c-.02-.64-.04-1.29-.06-1.93-.01-.31-.02-.61-.03-.92,1.95-2.91.61-7,3.44-9.58.39,4.55-1.66,8.44-3.35,12.43Z"/>
      <path class="cls-98" d="m204.35,55.46c-3.01,1.69-3.28,6.31-7.36,6.86,2.13-3.19,4.22-6.42,7.25-8.88.02.39.04.77.06,1.15.02.29.03.58.05.87Z"/>
      <path class="cls-29" d="m627.05,147.14c-1.61,3.2-4.05,5.69-6.82,7.9-.21-.02-.43-.03-.64-.04-.13-.01-.26-.02-.39-.03.59-.87,1.18-1.74,1.77-2.61.15-.36.3-.72.45-1.08.88-2.03,1.94-3.88,4.59-4.16.06-.01.13-.02.19-.02.28.01.57.02.85.04Z"/>
      <path class="cls-103" d="m369.3,150.04c-2.47-1.34-4.35-3.33-6.07-5.49.33-.03.66-.05.99-.07.07-.06.15-.12.22-.17.23-.14.45-.2.68-.19.27.02.54.14.81.39.03,1.42,1.08,2.1,2.17,2.31,2.36.45,1.36,1.94,1.2,3.22Z"/>
      <path class="cls-26" d="m43.27,248.24c-.16.06-.33.11-.5.16-1.47.53-2.08,2.38-3.83,2.5,1.95-3.06,4.52-5.55,7.27-7.87.03.34.05.69.08,1.03.01.08.02.16.03.23.31,2.39-1.18,3.33-3.05,3.95Z"/>
      <path class="cls-3" d="m332.88,284.78c-.03.67-.07,1.34-.11,2.01-.1-.02-.2-.04-.29-.07-2.98-.69-5.06-2.18-5.02-5.51,0-.16,0-.32.02-.49.37-.03.74-.06,1.12-.1,1.73,1.08,3.18,2.44,4.28,4.16Z"/>
      <path class="cls-91" d="m2.46,327.76c-.3,1.17-.91,2.06-2.46,2.45.15-3.37,1.27-6.3,2.41-9.23.03-.1.07-.2.11-.3.99,2.37-1.51,4.71-.06,7.08Z"/>
      <path class="cls-48" d="m233.18,28.39c-.56,2.94-2.06,4.48-5.24,3.51h-.01c-.41-.05-.81-.1-1.23-.15,1.87-1.87,3.93-3.47,6.35-4.57.05.37.08.75.12,1.13,0,.03.01.05.01.08Z"/>
      <path class="cls-40" d="m663.93,74.67c-.33-.01-.66-.02-.99-.04.08-.14.15-.27.21-.4.62-1.22.54-1.98-1.29-1.51-.07.02-.14.04-.21.06.76-1.55,1.77-2.88,3.59-4.07.53,2.4-.19,4.22-1.31,5.96Z"/>
      <path class="cls-89" d="m491.62,276.15c-1.12,2.68-1.84,5.7-5.48,6.12,1.4-2.42,3.29-4.4,5.48-6.12Z"/>
      <path class="cls-36" d="m243.61,214.53c-2.83,1.27-5.06.31-6.93-1.91.64.04,1.26.26,1.87.46h.01c.9.3,1.79.57,2.78.27.76.4,1.51.79,2.27,1.18Z"/>
      <path class="cls-6" d="m501.38,86.86c-2.72-.26-3.83-2.52-5.33-4.29,0-.14.01-.29.02-.43.01-.18.01-.35.02-.53,2.01,1.5,3.83,3.2,5.29,5.25Z"/>
      <path class="cls-26" d="m38.31,251.67c0,2.54-1.29,4-3.75,4.47.94-1.75,2.25-3.19,3.75-4.47Z"/>
      <path class="cls-45" d="m193.84,341.88c-1.32-1.02-2.65-2.03-3.43-3.57,2.05.31,3.31,1.4,3.43,3.57Z"/>
      <path class="cls-95" d="m168.49,129.64c-.41.87-.97,2.39-1.9,1.51-.71-.66.11-2.32.97-3.31.31.6.62,1.2.93,1.8Z"/>
      <path class="cls-16" d="m343.89,294.73c-.51-.03-1.03-.06-1.54-.09-.09.09-.18.15-.27.2h-.01c-.24.11-.5.08-.78-.11-.09-.14-.16-.29-.21-.44-.03-.09-.05-.19-.06-.29-.03-.19-.02-.39.04-.59.04-.14.11-.28.2-.42.16-.09.34-.17.52-.22,1.04.29,1.86.82,2.11,1.96Z"/>
      <path class="cls-97" d="m498.85,269.42c-.27.62-.55,1.24-.83,1.86-.33-.63-.67-1.27-1.01-1.9.29-.56.58-1.11.87-1.67,1.7-.21,1.16.85.97,1.71Z"/>
      <path class="cls-65" d="m498.85,269.42c-.18-.65-.19-1.4-.97-1.71.26-.67.73-1.65,1.38-1.03.79.76.32,1.9-.41,2.74Z"/>
      <path class="cls-21" d="m470.79,58.92c7.56,6.41,14.94,13,20.93,20.98-1.67,2.19-5.15,1.05-6.33,2.44-2.29,2.69,2.91,2.31,2.98,5.08.12,4.85-.24,5.91-4.9,6.45-3.5.41-6.51,3.99-6.61,7.87-.16,6.09-1.1,7.5-6.86,9.71-2.01.77-2.04,2.38-1.84,3.94.85,6.62-5.03,10.11-7.1,15.37-.28.7-1.71,1.33-2.62,1.34-3.07.03-4.52,1.18-4.38,4.44.12,2.69-2.17,3.22-3.99,2.64-4.97-1.6-6.99,3.52-10.83,4.41-.95.22-.81,1.74-.81,2.76,0,2.47-.14,4.96.03,7.42.22,3.21-.02,6.02-3.37,7.71-1.13.57-1.86,1.79-1.94,3.24-.07,1.3-.79,2.04-2.09,2.42-5.76,1.68-6.48,2.84-6.65,9-.06,2.2,1.31,5.27-2.57,5.91-.29,0-.58,0-.87,0-.46-.57-.88-1.17-1.03-1.91-.32-2.01-.19-4.05-.19-6.07,0-7.54,3.53-12.71,10.59-15.33,2.43-.91,3.26-2.68,3.34-5.04.09-2.9.19-5.81,0-8.69-.31-4.8,1.71-8.2,5.98-10.07,2.33-1.02,2.76-2.62,2.79-4.81.03-2.29-1.09-3.36-3.17-4-2.3-.71-4.31-1.95-4.34-4.77-.03-2.67,2.07-3.62,4.01-4.62,1.81-.93,3.65-1.79,4.72-3.66-.5-5.23,1.07-10.57-.87-15.71,1.95-2.1,3.12-4.43,2.64-7.43-.24-1.48.17-2.82,1.3-3.96,3.22-3.27,4.65-7.14,3.93-11.77-1.15-7.48,1.32-12.87,8.34-16.59,5-2.66.04-3.67-1.67-4.77,1.13-2.36,3.89,1.07,4.67-1.75h0c1.85.15,2.15,1.66,2.61,3.01.37,1.1.89,1.42,1.77.46.58.58,1.16,1.17,1.74,1.75-.26,2.03.46,3.06,2.65,2.6Z"/>
      <path class="cls-78" d="m365.93,144.51c-.57-.01-1.15-.02-1.72-.03-.36-1.96-1.51-3.44-3.08-4.52-5.3-3.62-8.55-9.37-13.73-13.12-.39-.28-.46-1.01-.69-1.53.38-1.06,1.39-1.42,2.22-1.98,3.56-2.38,7.45-4.46,6.46-9.93-.27-1.49.99-2.51,2.58-3.04,5.11-1.71,5.5-2.45,5.92-7.99.16-2.03-.99-4.98,2.68-5.34,2.59,2.5.34,5.65,1.02,7.73-.65-2.29,1.84-5.22.17-8.19.2-3.62,1.38-7.07,1.5-10.72.08-2.66,1.7-3.92,4.49-2.81,2.51,3.31.51,7.32,1.94,10.95-.16-5.5,2.34-9.85,5.44-14.06,2.62-3.56,5.43-3.89,7.63-.16,1.31,2.21,3.06,2.31,5.12,2.37,9.87.27,10.97,1.29,10.82,11.15-.06,3.77,1.26,7.92-2.11,11.1-1.49.78-3.68.39-4.34,2.58-1.68,1.81-2.34,4.65-5.24,5.24-2.22,2.3-2.21,5.2-2.27,8.12-.14,6.31-1.51,7.72-7.61,7.95-5.77.22-5.83.21-6.38,6.1-.2,2.19-.88,3.92-2.96,4.89-4.05-.4-6.67,1.35-7.86,5.24Z"/>
      <path class="cls-25" d="m398.25,106.97c-.27-2.78,1.62-2.68,3.49-2.62,3.34-1.7,4-4.77,3.97-8.09-.02-3.15.37-5.89,3.12-8.13,2.38-1.93,1.07-3.03-1.45-3.5-6.12-1.14-7.45-3.1-6.8-9.66.46-4.7,2.82-6.62,8.37-6.75,2.76-.07,5.56-.32,8.26.05,4.09.55,6.9-1.74,9.81-3.82,1.98-1.41,1.51-3.64,1.16-5.61-.38-2.07-2.17-2.03-3.78-2.12-1.16-.06-2.33,0-3.48-.14-4.46-.57-6.47-3.18-6.41-8.25.05-4.71,1.71-6.81,6.39-7.03,3.83-.18,6.61-.97,9-4.6,1.66-2.52,4.54-5.25,8.52-4.82,4.41,3.14,8.27,7.03,13.09,9.62-.09,2.83,2.81,3.72,4.4,6-2,.38-3.46.82-4.94.9-3.95.2-7.77-.44-10.02,4.59-1.6,3.58-4.47,6.36-4.44,10.86.03,4.32-2.98,7.22-6.84,9.07-1.83-.09-3.34-.05-3.66,2.47-.45,3.51-2.4,5.74-5.36,8.15-3.53,2.87-6.15,6.91-10.26,9.47-1.76,1.09-.97,3.86-.72,5.76.66,5.13-4.67,6.58-6.14,10.42-.35.91-1.64-.24-1.79-1.41-.44-3.4-2.09-1.61-3.51-.82Z"/>
      <path class="cls-5" d="m443.67,113.08c.72,3.03-1.69,3.41-3.55,4.45-1.74.97-4.73,1.09-4.21,4.13.46,2.67,2.67,3.61,5.15,3.61,2.2,0,2.73,1.15,2.61,3.03-.21,3.41,1.58,7.44-4.57,8.18-1.95.23-4.8,3.31-4.27,7.17.49,3.56.08,7.24.11,10.87.03,3.49-1.63,5.61-5.13,5.62-2.2,0-2.91,1.35-4.32,2.59-5.64,4.98-4.49,11.35-4.53,17.57-2.04,1.71-4.07-1.61-6.11,0-1.17-.87-2.33-1.74-3.5-2.61,1.34.07,2.56-.19,3.65-1.16-4.89-1.92-7.25-11.27-4.25-16.69.7-1.27,1.62-2.36,1.49-3.95-.28-3.38.29-6.16,4.59-6.23,1.05-.02,1.6-.88,1.44-1.8-1.15-6.79,3.44-11.23,6.61-16.25.62-.98,1.4-1.86,1.31-3.12-.26-3.65.13-6.82,4.95-6.83.32,0,.84-.43.94-.75,1.77-5.73,7.04-6.24,11.6-7.81Z"/>
      <path class="cls-93" d="m373.8,139.27c1.93-1.96,1.9-4.43,1.74-6.9-.24-3.74,1.04-5.91,5.21-5.33.71.1,1.45.02,2.17.01,6.16-.01,6.47-.46,6.65-6.75.09-3.04-1.53-7.04,3.44-8.09,0,5.08-.05,10.16.02,15.24.05,3.22-1.3,4.95-4.64,4.83-2.24-.08-4.35.25-4.06,3.13.36,3.61-1.52,4.13-4.44,3.89-2.02-.16-4.06-.03-6.1-.03Z"/>
      <path class="cls-72" d="m192.11,202.13c2.15,1.74,4.69.48,7.01.89,1.65,1.8,3.29,3.2,5.99,3.73,4.68.92,5.68,5.22,2.42,8.85-.77.86-1.51,1.83-2.54,2.35-2.43,1.21-3.15,3.17-2.97,5.71.22,3.07-1.11,5.3-3.16,7.66-3.26,3.75-6.31,7.86-5.62,13.49.26,2.07.5,4.37-1.12,6.22,0,3.19,0,6.38,0,9.57,0,2.95-1.08,4.74-4.4,4.41-1.15-.11-2.32-.07-3.48,0-2.58.13-4.95-.48-7.14,2.49-1.14,1.56-3.93,3.21-6.15,4.25-2.82,1.33-3.33,3.18-3.31,5.85.03,5.78-1.51,7.91-7.14,10.13-.94.37-1.66.87-1.48,1.8.93,4.94-2.96,8.51-3.57,13-1.72-1.48-3.91-2.42-5.24-4.37-.8-6.23-1.65-12.46-1.27-18.78.1-1.71-.1-3.45.63-5.08,1.53-1.78,2.23.05,3.02.8,1.91,1.81,3.99,2.64,6.12.69,2.62-2.4,3.04-6.8,1.09-8.68-5-4.84-3.92-14.7,2.21-17.89,2.58-1.34,3.63-3.09,3.69-5.78.04-1.92.41-3.9,1.79-5.25,4.69-4.6,6.57-10.27,7.12-16.64.18-2.03,1.02-4.22,3.92-2.46.36.22.57.53.94.02,2.88-3.92,6.29-7.44,7.38-12.54.52-2.44-3.09-2.97-1.71-5.3.59,0,1.18,0,1.76,0,1.61,1.07,3.6-.24,5.2.84Z"/>
      <path class="cls-36" d="m192.13,251.02c0-2.31.18-4.64-.03-6.94-.58-6.26,2.75-10.65,6.99-14.45,2.28-2.04,1.66-4.43,1.76-6.8.1-2.37-.34-4.27,3.06-5.56,5.17-1.95,6.04-6.27,2.77-8.88-.7-.56-1.49-1.26-2.31-.94-4.55,1.75-4.5-1.79-5.25-4.44.88,0,1.75.02,2.63.03,1.2,1.21,2.91,1.12,4.36,1.7,6.25.88,12.52,1.69,18.35,4.37-2.51-.08-3.11,1.12-2.17,3.29.34.79.97,1.49,1.18,2.3,1.59,6.41.02,8.38-6.62,8.38-10.25,0-10.3,0-10.69,10.08-.09,2.39-.64,4.04-3.41,3.88-2.99-.18-3.8,1.49-3.62,4.1.07,1.01.01,2.04,0,3.05q0,6.82-6.99,6.83Z"/>
      <path class="cls-8" d="m193.87,338.32c-1.63-1.6-3.4-3.08-4.37-5.24.38-.7,1.03-.86,1.75-.87,1.58.64,1.89,2.22,2.62,3.49.58.87.66,1.75,0,2.62Z"/>
      <path class="cls-17" d="m185.69,330.12c-1.68-1.43-3.88-1.33-3.65-3.5.09-.91,1.11-1.52,1.97-1.19,2.11.82.57,2.81,1.69,4.69Z"/>
      <path class="cls-2" d="m193.87,338.32c0-.87,0-1.74,0-2.62,1.23.71,1.29,2.69,3.38,2.87-.41-2.54.65-4.61,1.46-6.88,1.07-3.01,1.07-6.82-.33-10.19-1.33-3.2-2.6-6.33,2.14-8.05,1.86-.67,2.18-2.53,2.11-4.4-.04-1.11.32-2.03,1.68-2.04,1.34-.02,1.64.84,1.78,1.98.14,1.16-.49,3.03,1.59,2.88,1.93-.14,1.88-1.88,1.9-3.36.01-.58.09-1.18,0-1.74-.72-4.32,1.25-5.71,5.33-5.14,3.19.44,5.98.12,5.16-4.34,1.04.39,2.32,1.51,3.14.27,2.12-3.22,6.4-5.02,5.73-10.15-.48-3.66.18-7.59,5.1-8.45,1.43,1.56,1.17,3.52,1.19,5.38.04,5.37-.01,10.74.03,16.12.01,1.57-.27,3.21.72,4.69,1.55.35,1.93-.97,2.49-1.87,1.01-1.64,2.14-3.15,3.93-3.96,5.2-2.33,9.02-5.87,11.28-11.27,1.54-3.68,5.56-4.26,8.93-1.77,1.17,5.5.98,6.05-4.07,8.02-1.7.67-2.09,1.8-2.18,3.32-.11,1.88.06,3.78-.25,5.64-.51,3.13-1.96,5.16-5.57,4.41-1.39-.46-1.82-1.72-2.46-2.85-1.75-3.09-2.97-3.23-5.03-.55-2.88,3.77-6.07,7.39-5.42,12.74.21,1.73-.79,3.34-1.51,4.93-1.14,2.8-.69,5.74-.78,8.62-.09,2.89-.8,5.18-4.15,5.6-1.93.25-2.66,1.53-2.74,3.33-.02.43-.04.87-.06,1.3-.47,9.47-3.33,11.38-12.55,8.38-1.12-1.45-.31-2.59.86-3.24,2.96-1.64,3-4.32,2.97-7.15-.03-3.77-.12-7.54.04-11.31.19-4.73,1.44-6.09,6.06-6.97,4.21-.8,5.2-2.86,4.29-8.97-.44-2.93-2.27-3.81-6.28-3.3-2.1.27-3.09,1.31-3.21,3.36-.06,1.01-.06,2.03-.14,3.04-.38,4.62-1.9,6.17-6.43,6.58q-6.58.6-6.61,7.29c-.02,4.64.07,9.28-.05,13.92-.06,2.54-.51,4.94-2.98,6.37-2.61-.88-4.36-2.62-5.24-5.23.26-.29.56-.62.18-.97-.32-.29-.73-.2-1.05.1-.87,0-1.75-.02-2.62-.03,0-1.68.27-3.47-1.75-4.34Z"/>
      <path class="cls-74" d="m262,229.19c-2.22,3.8-3.66,8.33-7.02,11.14-7.46,6.23-12.96,14.42-20.8,20.2-2.01,1.48-3.88,3.07-5.22,5.14-1.03,1.6-1.62,3.14.33,4.96,2.31,2.16,2.79,4.98.52,7.71-2.01,2.42-2.83,5.08-2.88,8.34-.07,4.36-2.44,7.56-6.87,8.86,0-8.7-.02-17.4.01-26.09,0-1.92-.66-4.18,2.39-4.71,1.26-.22.93-1.59,1.11-2.55.3-1.62,8.83-11.27,9.97-11.12,3.45.43,4.2-1.23,4.03-4.31-.22-3.99,1.21-6.93,3.99-10.38,2.58-3.2,7.07-6.58,6.48-11.99-.12-1.07.13-2.09,1.69-1.71,1.49.36,3.33,1.31,3.22-1.62,0-.14.47-.46.65-.41,2.22.62,3.3,3.16,5.85,3.35,3.66.28,2.64,2.99,2.51,5.2Z"/>
      <path class="cls-36" d="m230.56,210.86c.96.03,1.99-.14,2.62.87-.53.81-1.27,1.04-2.12.63-.6-.29-1.29-.68-.51-1.49Z"/>
      <path class="cls-52" d="m519.64,103.49c4.92,3.36,9.53,7.19,15.36,9.09,2.01.65,4.08,1.49,5.63,3.12.07,2.56-1.4,3.54-3.73,3.71-2.17.16-4.28-.14-6.38-.59-5.99.32-7.03,6-9.86,9.53-1.86,2.31-3.19,4.67-6.32,5.44-2.6.64-3.08,2.88-3.04,5.17.06,3.33-.5,6.31-3.27,8.59-1.66,1.37-1.65,3.29-1.07,5.22.81,2.68.74,5.44.81,8.2.09,3.57-1.63,5.49-4.21,8.12-3.92,3.98-10.85,4.78-12.22,11.47-.36,1.77-2.5,1.71-4.1,1.79-3.05.14-6.1-.09-9.15.13-4.48.31-5.06,1.09-5.31,5.59-.15,2.75,1.07,5.94-2.03,7.97-5.91.11-11.5-1.52-17.1-3.13-1.49-.43-3.15-.27-4.73-.38.03-1.48.85-2.7,2.1-3.06,3.68-1.06,6.68-2.47,6.86-7.02.06-1.52,1.74-1.15,2.85-1.25,3.43-.32,7.94,1.57,10.06-.82,2.35-2.65.68-7.23.8-10.96.14-4.36-.04-8.72.06-13.08.05-2.22-.74-3.3-3.03-3.08-.43.04-.87,0-1.31,0-10.27-.12-11.28-1.36-9.66-11.7.17-1.1.35-2.04,1.61-2.22,1.77-.25,1.97-1.51,1.89-2.89-.22-3.77,4.14-3.38,5.37-6.02,1.07-2.32,1.41-5.85,5.6-5.15,3.12.52,3.04-1.73,3.03-3.89-.03-4.15-.16-8.08,4.47-10.64,1.92-1.06.7-4.36.7-6.62,0-2.45.88-3.22,3.32-3.31,8.67-.33,9.36-1.24,8.34-9.96-.11-.92.43-2.36.49-2.32,2.78,2.49,5.47-2.26,7.99-.19,4.1,3.37,8.03,6.96,11.97,10.52.72.65,2,1.36.61,2.71-.38.37.38,1.44.7,1.27,2.2-1.16,3.63-.91,4.1,1.78.61-.38,1.23-.76,1.84-1.13Z"/>
      <path class="cls-21" d="m493.08,82.15c.62.21.97.61.7,1.28-.2.49-.35,1.2-1.05,1.08-.6-.11-.93-.67-.8-1.31.12-.58.48-1,1.14-1.05Z"/>
      <path class="cls-55" d="m558.1,119.24c2.35-.57,3.76,2.23,6.1,1.71,5.53.73,11.06.74,16.59,0,.87,0,1.75,0,2.62,0,2.24,1.8,1.43,2.98-.9,3.39-1.68.29-3.48.32-5.09-.61,7.54,2.31,7.99,2.88,5.99,7.69-1.11.3-2.19.72-3.32.86-2.98.38-3.7,2.27-3.68,4.91.04,8.56-.04,17.12.05,25.67.03,2.74-.54,4.58-3.8,4.37-2.14-.14-3.16.94-3.25,3.11-.12,2.96-2,3.84-4.7,3.88-2.12.04-4.22-.36-6.33.85-2.61,1.5-4.1,3.05-3.89,6.39.27,4.14-5.47,8.52-9.16,7.09-1.64-.64-2.63-1.28-4.1.23-1.75,1.78-1.76,3.5-.61,5.48-13.26,2.95-26.68,3.96-40.24,3.51-3.18-.1-6.36-.02-9.54-.02,1.21-4.71,5.21-3.28,8.33-3.79,4.66-.1,9.3.31,13.95.48,2.46.09,3.63-.85,5.15-3.29,2.52-4.04,4-9.38,9.3-11.25.71-.25,1.37-.61,1.71-1.27,3.05-5.97,8.42-10.28,11.58-16.16.27-.51-.23-.08.24-.35,6.41-3.71,5.63-9.88,5.3-15.78-.27-4.95,2.08-8.26,5.86-10.96,3.12-2.23,3.73-4.85,2.01-8.25q-2.35-4.64,2.74-6.59c.57-.22.84-.78,1.09-1.31Z"/>
      <path class="cls-83" d="m626.2,147.1c-1.74,1.75-3.48,3.5-5.23,5.26-3.17-5.78-5.82.21-9.14.18-1.01-2.88-.22-6.17-.46-9.37-.12-1.65.49-3.62-2.11-4-1.02-.15-1.46-1.02-1.33-1.93.6-4.33-.93-8.15-2.68-11.93.29-.5,1.11-1.06.97-1.35-1.58-3.53.67-5.82,2.52-8.25,2.46-1.52,4.7-3.52,7.85-3.5,1.4-.72,3-.95,4.37-1.74h0c.81-.68,2.14-.57,2.61-1.76.03-.54.06-1.09.09-1.63,5.09.31,7.02-4.78,10.98-6.43.76-.32,1.37-.99,2.05-1.5,1.57.59,2.58,1.79,1.76,3.31-1.67,3.12.41,5.34,2.18,6.68,3.22,2.44,4.05,5.67,4.77,9.17-5.17,9.76-11.52,18.73-18.52,27.25-.35.42-.47,1.02-.7,1.54Z"/>
      <path class="cls-47" d="m608.74,115.71c.25.79,1.2,1.88.37,2.35-2.54,1.43-3.13,2.54-1.21,5.33,1.29,1.88-1.37,1.71-2.65,1.93-9.66.04-8.7-.95-8.74,8.56-.01,2.57.61,5.31-3.59,5.47-7.63.29-7.98.24-8.66-5.03-.13-.98-.55-1.93-.84-2.89q-.02-3.94-6.77-7.87c2.32,0,3.98.02,5.65,0,2.24-.04,1.72-1.31,1.12-2.6,7.16-1.6,14.7-1.41,21.5-4.64,1.25-.59,2.52-.6,3.83-.6Z"/>
      <path class="cls-92" d="m42.77,248.4c.9-1.67,3.04-2.33,3.52-4.33.57-.01,1.15-.02,1.72-.03,3.9.86,4.2.57,5.24-5.24,1.42-1.85,2.63-3.94,5.24-4.36.57-.6,2.37.04,1.75-1.75.04-.54.09-1.07.13-1.61,4.63-.29,6.89-4.49,10.57-6.41,11.12-5.79,22.14-11.6,34.31-15.2,6.78-2.01,13.56-3.56,20.48-4.71.37.94-.73,2.03.24,2.88,3.92,3.43,2.53,8.01,2.62,12.24.04,1.82-.87,3.06-2.42,4.29-3.19,2.53-5.75,5.75-9.79,7.33-2.12.83-1.6,3.5-1.67,5.5-.21,6.07-.4,6.47-6.06,8.29-1.88.6-2.52,1.74-2.61,3.48-.12,2.32-.13,4.64-.05,6.96.15,4.11-.73,7.77-3.93,10.61-.91.8-1.24,1.94-1.65,3.02-.59,1.57-1.58,3.12-3.22,3.24-3.63.26-5.26,2.48-6.39,5.47-2.91,0-5.83,0-8.74,0-.81-.91-1.25-2-1.2-3.19.32-6.42-2.36-12.5-1.99-18.97.27-4.69-3.7-3.36-6.35-3.58-2.71-.21-4.93.21-4.88,3.8.07,6.09.03,12.18,0,18.28,0,1.96,1.45,3.47,1.31,5.41-1.17.58-2.34,1.16-3.51,1.74-.87,0-1.74,0-2.61,0-2.01-2.15-3.61-4.75-6.87-5.43-2.07-.43-1.85-2.3-1.85-3.88-.01-5.49.02-10.98-.01-16.47-.04-6.35-2.18-7.89-7.87-5.65-1.89.74-3.07.34-3.48-1.75Z"/>
      <path class="cls-62" d="m14.82,310.38c-.29.29-.58.58-.87.87-2.26.33-2.18,3.72-4.74,3.62,1.4-6.78,2.35-7.78,8.65-8.98.78,2.7-3.11,2.26-3.04,4.49Z"/>
      <path class="cls-62" d="m7.84,317.37c-.27,1.64-1.31,3.76-2.72,2.86-2.39-1.51,1.11-2.9.98-4.61.58.58,1.16,1.16,1.74,1.75Z"/>
      <path class="cls-50" d="m249.77,306.89c4.03.58,5.48-1.4,5.25-5.17-.09-1.43.1-2.88-.04-4.3-.3-3.09.39-5.09,4.12-4.52,2.32.35,3.03-.98,2.9-3.08-.08-1.29-.01-2.58-.01-3.87-2.53-6.52-1.45-13.18-.71-19.82.08-.75.74-1.19,1.58-1.13,3.19,0,6.38-.12,9.57.04,2.57.12,3.63-.71,3.6-3.44-.04-3.29-1.4-7.32.63-9.69,1.98-2.31,6.03-.54,9.15-.87.88-.09,1.7-.19,2.37-.87.79-.81,1.81-1.12,2.74-.47,1.01.7.87,1.8.22,2.69-.67.94-1.38,1.81.45,2.03,1.25.15,2.01-.53,1.62-1.84-.37-1.23-.02-1.95,1.09-2.42,3.7.92,5.03,5.19,8.72,6.13.51,3.04,3.45,4.02,5.22,5.98.78.86,1.76,1.43,1.79,2.73-2.37,1.44-5.04,1.22-7.63,1.25-2.41.03-3.7,1.36-5.33,3.05-3.69,3.82-5.29,9.6-10.97,11.61-1.93.68-1.9,2.83-1.82,4.56.17,4.02-.51,7.79-2.55,11.3-.9,1.54-.99,3.32-1,5.08,0,2.36-.27,4.55-2.15,6.38-2.13,2.08-1.22,4.94-1.32,7.49-.22,5.52-.9,6.26-6.37,6.41-.73.02-1.45,0-2.18.02-4.96.13-5.35.53-5.44,5.6-.02,1.16-.05,2.33-.04,3.49.01,3.24-1.6,4.81-4.82,4.82-.87,0-1.74.04-2.62.05-6.25.11-6.63.64-6.55,6.76.04,3.34,1.41,4.73,4.7,4.73,2.12,0,4.59-.16,5.36,2.63.71,2.57-.39,4.6-2.48,6.01-1.46.98-2.2,2.24-2.38,3.92-.31,2.94-2.24,3.81-4.87,3.85-1.89.03-3.78.03-5.67.04q-6.68.02-8.92,6.36c-.22.46-.53.83-.95,1.12-3.23-.68-5.4-3.04-7.98-4.82-4.34-2.99-7.81-7.06-12.64-9.47-1.71-.85-3.62-2.46-3.83-4.92-1.92-2.8-1.56-4.06,1.35-4.57,1.71-.3,3.37-.15,4.77,1.08,3.57-.28,8,1.48,10.5-.77,2.41-2.17.71-6.58.79-10,.06-2.48.97-3.51,3.35-3.18,3.31.45,3.92-1.33,3.73-4.11-.16-2.31-.03-4.63-.03-6.94,0-1.32-.1-2.7,1.75-2.93,1.69-1.49,3.78-1.25,5.79-1.32,4.86-.17,5.01-.33,5.11-5.31.04-1.74-.14-3.5.29-5.2.34-1.36.58-3.09,2.78-2.14Z"/>
      <path class="cls-77" d="m262.87,264.99c-1.87,3.54-.58,7.33-.83,10.99-.22,3.31-.05,6.64-.05,9.96-4.78-1.01-7.15.44-7.84,4.95-.22,1.44-.62,2.5-2.13,2.88-1.7.44-2.74,1.53-3.18,3.22-.07.28-.15.72-.33.78-5.07,1.67-8.54,4.91-11.56,9.41-1.28,1.9-2.89-.96-2.9-2.98-.03-8.42-.01-16.83-.01-25.25,3.33,0,6.67-.15,9.98.04,2.92.17,4.41-.68,4.02-3.85-.16-1.28.02-2.6-.03-3.9-.14-3.55-.71-7.31,5.01-6.36,1.77.29,1.98-1.27,1.98-2.66,0-2.6.04-5.21,0-7.81-.03-1.89.09-3.43,2.66-3.43,2.46,0,4.91-.06,5.1,3.16.22,3.6.09,7.23.11,10.84Z"/>
      <path class="cls-21" d="m462.01,51.1c-1.12-.04-2.35.16-2.95-1.11-.09-.19.35-.92.56-.93,1.36-.05,1.8,1.1,2.39,2.04,0,0,0,0,0,0Z"/>
      <path class="cls-93" d="m438.44,31.89c-2.95,3.1-8.42,3.31-9.4,8.95-.28,1.6-3.74,1.55-5.95,1.56-6.86.03-7.84,1.14-7.37,7.89.23,3.27,1.94,5,5.21,5.17.72.04,1.45,0,2.18,0,6.53.02,8.15,2.14,6.54,8.63-.1.41-.29,1.16-.41,1.15-3.96-.11-5.29,5.26-9.97,4.35-3.92-.76-8.1-.26-12.16-.13-4.3.14-5.33,2.09-5.41,8.49-.05,3.86,1.38,5.67,5.36,5.5,1.75-.08,4.21-.85,4.85,1.62.57,2.19-.91,3.81-2.93,4.75-3.33,1.55-1.87,4.56-1.91,6.93-.07,3.89-.86,6.93-5.32,7.6,3.28-5.85,1.74-12.08,1.15-18.14-.17-1.72-1.93-3.07-4.28-2.85-2.3.21-4.64-.02-6.96.06-2.22.07-3.87-.03-3.99-3.07-.13-3.29-3.85-2.7-4.27-1.62-1.03,2.6-3.07,4.27-4.35,6.54-1.53,2.71-2.03,5.62-1.79,8.72.1,1.31.52,3.28-1.77,3.2-2.24-.08-1.63-2.02-1.65-3.34-.08-3.48-.03-6.96-.03-10.45,1.75-1.9,2.49-4.11,2.34-6.7-.1-1.74.07-3.6,1.16-4.97,2.65-3.32,4.28-6.8,4.48-11.24.14-3.04,4.26-2.97,6-5.03.58,0,1.16,0,1.74,0,6.78,0,6.82,0,6.97-6.86.05-2.05.07-3.84,2.88-3.64,1.96.14,2.41-1.09,2.39-2.77-.04-3.18.27-6.39-.07-9.53-.46-4.27,1.2-5.84,5.31-5.14,3.64-2.67,3.64-4.15,0-8.73-.07-1.75.24-2.58,2.46-2,2.78.73,5.49,1.53,8.02,2.88.35,1.68-1.28,2.06-2.01,3.02-.61.8-1.5,1.54-1.12,2.65.41,1.21,1.62.96,2.59,1.05,1.97.19,4.09-.43,5.78,1.13,1.57,2.56,3.59.73,4.58-.13,1.77-1.55,2.09-.91,2.37.79.18,1.1-.17,2.47,1.42,2.79.91.18,2.67,1.95,1.95-1.22-.52-2.3,1.76-.88,2.71-1.3.9,1.14,1.8,2.28,2.7,3.42Z"/>
      <path class="cls-85" d="m387.77,55.46c.02,1.53-.16,3.33-1.99,3.31-3.72-.04-3.26,2.37-3.26,4.71,0,2.53.21,4.67-2.74,6.57-2.76,1.78-2.82,5.76-2.5,9.18.23,2.51-.4,4.39-3.48,4.17-2.5-.3-3.97.61-3.47,3.31.72,3.8-1.23,7.1-1.77,10.66-.58.46-1.16.53-1.75,0-2.43.42-1.58,2.36-1.74,3.81-.28,2.51.29,4.95-1.27,7.5-1.16,1.9-1.98,2.94-4.14,2.66-2.81-.36-3.4,1.11-3.38,3.6.02,3.14,1.52,7.07-4.29,7.46-1.05.07-2.92,2.79-5.27,2.91-.29-.29-.58-.58-.87-.87-1.13-2.72-1.31-5.6-1.33-8.49-.06-8.96-.08-17.92,0-26.88.05-5.92.98-6.81,6.75-7,.58-.02,1.16,0,1.73-.02,5.04-.15,5.25-.36,5.46-5.51.02-.58.06-1.15.09-1.73-.03-1.89-.17-3.81.98-5.49.78-.72,1.76-1.01,2.77-1.13,2.35-.27,3.14-1.7,3.16-3.87.01-1.74.03-3.47.09-5.21.09-2.59.98-4.53,3.86-4.89,2.38-.3,3.01-1.87,3.05-3.98.03-2.02-.05-4.05.2-6.07.23-1.89,1.01-3.45,3.04-3.7,3.23-.41,3.92-2.44,3.77-5.21-.05-1.01-.02-2.03.03-3.04.27-5.8,2.75-7.2,8.28-4.69v27.94Z"/>
      <path class="cls-73" d="m387.77,27.53c-.73,0-1.47.1-2.17-.02-3.77-.59-5.43.82-4.85,4.75.23,1.56-.1,3.2.07,4.78.35,3.25-.59,5.03-4.25,4.49-2.05-.3-2.87.82-2.78,2.82.08,1.74-.1,3.49.03,5.22.28,3.66.13,6.74-4.98,5.98-1.78-.26-2.03,1.22-2.03,2.63,0,2.17-.24,4.38.04,6.52.51,3.93-1.09,5.34-4.86,4.75-.71-.11-1.45-.02-2.17-.02-1.72-1.8-1.26-4.08-1.26-6.19-.05-14.2,0-28.4-.04-42.61-.01-5.39-.38-6.11-5.6-5.66-4.88.42-8.18-2.23-11.83-4.44-1.12-.68-1.36-1.82-1-3.06.34-1.14,1.28-1.74,2.32-1.57,2.88.47,6.08-.3,8.24,2.83,1.63,2.37,3.5,2.25,4.8-.68.86-1.94,2.3-3.63,2.63-5.82,3.29,1.76,6.86,1.88,10.47,1.73-2.92,2.22-1.34,4.51-.03,6.91.29-1.9.12-3.97,2.38-4.74.92-.43,2.04.47,2.9-.43,2.04,0,4.07,0,6.11.01,0,3.69,0,7.04,5.24,7.44,1.29.1,2.79,2.92,2.66,5.34-.16,3-.04,6.02-.04,9.03Z"/>
      <path class="cls-57" d="m422.71,27.53c-2.14,0-4.28.09-6.41-.03-1.32-.07-3.13.75-3.77-1.02-.52-1.43.57-2.8,1.42-3.86.94-1.17,2.33-1.98,3.53-2.94.58.4,1.12,1.05,1.75,1.15,4.26.67,4.23,3.49,3.49,6.71Z"/>
      <path class="cls-57" d="m406.99,18.8c2.42.89,4.98,5.4,4.12,7.57-.79,2-2.72.85-4.12,1.16v-8.73Z"/>
      <path class="cls-104" d="m227.94,31.9c2.44-.13,3.85-1.82,5.24-3.51,3.2-1.74,6.4-3.49,9.6-5.23,1.5,3.69,4.98,1.8,7.5,2.5,2.02.56,4.31.12,6.48.12,3.11,2.71,3.13,5.96-.66,8.89-2.65,2.05-3.66,4.31-3.46,7.44.28,4.33-3.09,6.3-5.78,8.65-4.41,3.85-8.56,7.77-8.23,14.36.13,2.51-.79,4.37-3.51,5.33-4.79,1.7-5.84,4.82-3.58,9.49.12.24,0,.55-.12.83-.83.33-1.41.91-1.75,1.74-4.11.1-7.45,2.74-11.35,3.5-2.56.25-4.83,1-6.12,3.48-2.33.2-3.68,2.67-6.11,2.63-1.74-1.96-3.49.55-5.28,0-1.36-.42-3.24-.43-3.19-2.26.04-1.66,1.65-1.24,2.74-1.01,1.64.35,2.1-.6,2.18-1.89.08-1.45.12-2.91.03-4.35-.24-3.7-.48-7.26,5.12-6.28,1.48.26,2.92-1.21,2.98-2.11.21-3.11,2.42-4.7,4.15-6.73.44-.53.59-1.23,1.4-1.46,1.28-.36,3.37.55,3.62-1.47.32-2.57.49-5.29-.05-7.78-.53-2.46-3.59-1.76-4.84-1.51-3.33.66-6.07-.12-8.86-1.56,3.53-6.29,9.21-10.59,14.65-14.96,2.63-2.12,4.69-4.68,7.18-6.86Z"/>
      <path class="cls-64" d="m193,101.73c-1.73,1.48-3.91,2.42-5.24,4.37-1.9-.16-1.92,1.57-2.62,2.61-5.01,4.72-10.02,9.44-14.74,13.89,1.06-3.59,1.17-9.03,3.93-12.01,3.45-3.72,2.44-8.21,4.51-11.94.78-1.41,1.22-3.2,1.94-4.76,2.47.64,4.79,1.23,7.5.37,3.46-1.11,4.93,2.54,7.34,3.99,0,0,0,0,0,0-.87,1.16-1.31,2.65-2.62,3.49Z"/>
      <path class="cls-96" d="m464.64,338.33c-2.67,7.2-8.72,11.82-13.78,16.99-8.27,8.46-17.88,15.45-28.17,21.4-4.76,1.79-8.97,4.84-13.96,6.12-1.17.67-2.52.54-3.78.77-2.4.44-4.11-.53-4.25-3.07-.42-7.51-.42-15.04,0-22.56.08-1.36.85-2.43,1.99-3.22.71-.5,1.68-.94,1.91-1.72,1.27-4.23,4.15-5.85,8.41-5.85,1.99,0,2.54-2.03,3.59-3.4,2.84-3.73,4.99-8.21,9.87-9.91,2.19-1.25,1.9-3.4,1.95-5.4.2-7.6.9-8.35,8.63-8.32,1.47,0,2.87-.09,4.28-.4,5.43-.21,10.87-.59,16.29.22,2.58,1.31,1.69,3.73,1.71,5.75.09,7.15.21,7.3,7.16,6.99.82-.04,1.66.23,2.49.35-.59.87-1.17,1.74-1.76,2.61-1.3.45-2.02,1.47-2.61,2.63Z"/>
      <path class="cls-108" d="m457.64,319.99c-5.45,1.9-11.07.38-16.59.87-1.82-.44-3.62-.84-5.54-.77-1.34.05-3.06.34-3.21-1.85.29-.29.59-.58.88-.86,1.86-.94,3.88-.12,5.79-.5,1.43-.4,2.54-1.38,3.8-2.07.31-.3.61-.61.92-.91,1.81-.71,4.28-.1,5.21-2.59.87-.31,1.73-.62,2.6-.93,1.71.68,2.52,2.8,5.15,2.29,1.28-.25,1.59,2.56,1.09,3.82-.52,1.3-.92,2.3-.11,3.51Z"/>
      <path class="cls-46" d="m231.43,80.78c.12-2.53-5.05-1.62-3.38-4.65,1.02-1.84,2.42-3.44,3.04-5.57.3-1.06,1.59-1.19,2.63-1.11,3.21.24,3.98-1.52,3.85-4.32-.19-4.09,1.24-7.07,3.93-10.61,2.64-3.48,6.3-5.17,8.96-8.22,1.61-1.85.99-3.85,1.02-5.78.04-2.75.19-4.95,3.4-6.22,3.11-1.23,3.71-5.17,1.89-8.53.23-.37.42-.77.7-1.09,3.57-4.02,3.4-4.6-3.31-6.9,4.54-.95,7.16-3.21,10.32-4.75,3.95-1.93,7.49-1.5,11.31-1.65,1.31-.05,2.75-.05,3.66-1.63,1.57-2.74,4.38-2.39,7.01-2.32,1.62,1.67-.85,4.89,2.22,5.97,3.52,1.24,7.05,1.1,10.55-.14,1.08-.38,2.03-1.09,3.13-1.45.85-.28,1.71-.47,2.05.75-1.42,6.22-.83,12.61-1.75,18.88-.46,3.13-.09,6.3,1.5,9.24,1.21,2.24,1.28,4.69.5,7.14-5.35,2-7.52,5.84-6.92,11.52.15,1.45-1.16,2.55-2.22,3.58-2.94,2.84-5.23,6.09-6.51,10.05-1.03,3.19-4.98,5.5-9.56,4.83-2.99-.44-3.21.93-3.47,2.95-5.32-2.54-11.01-1.5-16.57-1.73-6.17-.25-12.37.63-18.53-.75-1.72-.38-3.88-.86-5,1.98-.52,1.32-2.91.3-4.44.53Z"/>
      <path class="cls-107" d="m358.08,2.24c-.21,1.73,1.68,2.19,2.33,3.84-2.15.63-5.28.61-3.66,4.36.48,1.1-.81,1.44-1.65,1.32-1.87-.28-5.03,1.21-5.39-1.15-.81-5.33-5.24-2.12-7.48-3.8-.56-.42-1.41.26-1.46,1.11-.03.53.23,1.54.38,1.54,2.92.09,4.32,2.42,6.37,3.87,1.17.83,3.38.21,5.11.23,8.19.11,7.14-1.02,7.17,7.15.05,16.24.01,32.48.01,48.72v5.24c-3.75,2.15-8.17,1.01-12.13,2.62-3.58,1.45-9.23,7.25-9.33,11.19-.1,3.92-1,7.22-3.92,10.14-2.61,2.61.08,5.2,1.33,7.35,2.5,4.28,2.46,5.12-2.14,7.96,0,0-.01.02-.01.02-5.08-4.69-10.47-9.1-15.08-14.21-2.05-2.27-4.48-2.28-6.71-3.37-.61-2.85-3.3-3.41-5.3-4.62-2.08-1.27-4.35-2.22-6.1-3.98-.49-.8.14-1.98-.87-2.62h0c-2.19-1.98-.12-2.78,1.14-3.38,7.11-3.38,10.82-9.88,14.45-16.21,2.04-3.54.2-8.05,1.13-12.03.5-1.84.51-3.73.44-5.61-.11-2.78.68-5.07,2.91-6.89,2.13-1.73,3.28-4.04,3.2-6.83-.1-3.54,1.47-5.76,4.94-6.64,3.32-.84,4.75-3.14,4.64-6.42-.11-3.18.62-5.88,2.94-8.28,1.55-1.6,2.14-3.79.64-5.96-.64-2.24.77-2.98,2.51-2.89,2.86.13,5.84-.55,8.54.22,2.92.83,4.9.17,6.68-1.99,1.46,0,2.91,0,4.37.01Z"/>
      <path class="cls-101" d="m336.24,6.58c2.66,1.45,3.01,5.44-.11,7.6-2.64,1.83-2.6,3.87-2.49,6.3.2,4.4-.95,7.72-6.02,8.34-2.8.34-3.94,2.03-3.62,4.84.3,2.7-.04,5.46-2.39,7.08-3.46,2.38-4.11,5.55-3.74,9.35.12,1.24.39,2.65-.84,3.63-2.21,2.35-4.94,3.14-8.14,3.04-6.02-.19-7.53-2.62-4.96-8.28.08-3.32-.06-6.44-1.95-9.54-1.68-2.75-1-6.34-.51-9.38.65-4.05.87-8.06.63-12.08-.13-2.28,1.67-3.65,1.83-5.67-1.04-2.22-3.04-3.58-4.74-5.21-.2-.66-.11-1.26.37-1.78,4.79-3.56,10.47-1.79,15.73-2.61,1.03.79,2.22.34,3.34.43,1.39.12,3.45-.36,3.5,1.54.05,1.92-2.07,1.4-3.49,1.86,5.92.13,11.88-2.39,17.6.53Z"/>
      <path class="cls-90" d="m299.56,6.58c2.58.81,5.3,1.5,4.37,5.24-3.1,2.28-6.34,3.72-10.41,3.57-7.47-.27-8.42-1.13-7.06-7.93.29-.29.58-.58.87-.87,1.73-.59,3.52-.83,5.34-.87,2.34-.09,4.74-.61,6.88.87Z"/>
      <path class="cls-1" d="m336.24,6.58c-5.15.05-10.31-.61-15.43.76-2.08.55-4-.7-6.62-1.54,2.72-1.68,5.17-.36,7.4-1.37-1.45-2.76-4.78-.1-6.32-2.21,12.81,0,25.62,0,38.43,0-.84,3.15-1.41,5.45-5.93,3.15-2.8-1.43-6.88-.41-10.38-.39-.84,0-1.04.86-1.16,1.59Z"/>
      <path class="cls-107" d="m371.18,6.58c-1.23,1.1-2.14,2.17-1.16,4.05.6,1.14.06,2.41-1.38,2.56-1.24.14-1.74-.94-1.76-2.01-.03-1.96-.05-3.78-2.71-4.01-.51-.04-.9-.84-.54-1.39.27-.41.82-.75,1.31-.87,1.21-.29,2.64.32,3.6-.94.29,0,.59,0,.88,0,.47.95,1.5,1.52,1.75,2.61Z"/>
      <path class="cls-101" d="m292.57,6.57c-1.75,0-3.49,0-5.24,0,2.99-1.74,6.12-2.74,9.61-1.75-1.03,1.66-3.05.82-4.37,1.75Z"/>
      <path class="cls-1" d="m292.57,6.57c1.22-1.18,2.83-1.37,4.37-1.75.87,0,1.74,0,2.62,0,0,.58,0,1.16,0,1.75-2.33,0-4.66,0-6.99,0Z"/>
      <path class="cls-1" d="m371.18,6.58c-1.15-.49-1.74-1.35-1.75-2.61,1.46.58,2.91,1.16,4.37,1.73-.63,1.02-1.66.84-2.62.87Z"/>
      <path class="cls-102" d="m482.1,310.38c-1.17,2.33-2.33,4.65-3.5,6.98-.21-.8-.19-1.81-.69-2.37-1.5-1.7-1.36-3.29-.16-5.01,1.7-2.44,2.87.56,4.34.41Z"/>
      <path class="cls-102" d="m484.69,306.02c-.57,1.16-1.15,2.32-1.72,3.49-1.38-2.13-.1-2.94,1.72-3.49Z"/>
      <path class="cls-54" d="m212.22,89.51c1.1-2.8,2.21-5.59,6.12-3.48-1.26,2.53-4.62,1.38-6.12,3.48Z"/>
      <path class="cls-54" d="m185.14,108.71c.49-1.28-1.31-2.84.3-3.89,1.25-.82,1.43,1.02,2.32,1.28-.57,1.18-1.44,2.05-2.62,2.61Z"/>
      <path class="cls-54" d="m193,101.73c.73-1.27,1.04-2.86,2.62-3.49.76,2.39-1.02,2.87-2.62,3.49Z"/>
      <path class="cls-106" d="m499.57,195.15c-3.16.04-6.46-.39-8.73,2.61-2.9,0-5.81.02-8.71,0-1.41-.01-2.56-.02-3.73-1.47-2.19-2.73-5.1.81-7.65-.27,1.65-3.32.8-6.87.79-10.3-.01-2.54.85-3.51,3.28-4.05,4.05-.9,8.1-.32,12.14-.44,2.22-.07,4.07-.05,4-3.08-.02-.92.51-2.47,1.15-2.69,4.78-1.61,7.46-6.23,11.89-8.17,1.54-.68,2.58-1.27,2.53-2.97-.11-4.03.72-8.18-1.01-12.04-1.08-2.42-.51-4.55,1.54-5.67,3.07-1.68,3.17-4.22,2.99-7.05-.27-4.09.49-7.34,5.61-7.33,1.1,0,2.26-.71,2.41-1.6.64-3.62,3.98-5.45,5.36-8.53,1.48-3.31,3.96-4.88,7.58-4.64,1.01,1.5,1.34,3.18,1.35,4.96.03,8.56.09,17.13-.03,25.69-.07,5.19-.82,6.11-6.01,6.42-3.45.21-4.59,1.79-4.43,4.94.07,1.45,0,2.9-.1,4.35-.17,2.2-.92,4.05-3.34,4.48-2.94.52-3.68,2.41-3.54,5.03.05.87.01,1.74-.02,2.61-.17,5.56-1.04,6.41-6.76,6.59-1.02.03-2.04.07-3.05.03-2.94-.12-4.14,1.26-4.18,4.19-.04,2.84.68,5.86-1.34,8.4Z"/>
      <path class="cls-19" d="m414.85,180.3c2.04-2.83,4.07.07,6.11,0v1.74c-.85.25-1.7.51-2.56.76-.9-1.24-1.8-2.48-3.56-2.51Z"/>
      <path class="cls-88" d="m645.41,118.32c-1.96-4.57-5.07-8.3-8.61-11.7-1.08-1.04-.79-1.99.1-2.96,1.43-1.56,1.1-3.06-.2-4.5,1.17-.88,2.33-1.77,3.5-2.65.54.15,1.34.14,1.57.49,2.83,4.34,7.39,3.43,11.5,3.87-1.36,2.96-1.19,6.68-4.36,8.73-1.78,1.65-1.77,4.06-2.62,6.11-.3.87-.59,1.74-.89,2.61Z"/>
      <path class="cls-38" d="m90.82,278.07c-.35-3.72-.04-6.84,5.05-6.15,1.44.2,2.52-.71,3.21-1.88,3.8-6.41,7.39-12.85,5.76-20.84-.7-3.43.49-5.6,4.62-5.24,2.61.22,3.98-1.39,4.05-4.01.02-.72,0-1.45.01-2.18q.03-7.21,6.89-9.48c.7-.23,1.62-.29,1.64-1.11.06-2.78,1.15-4.37,4.16-4.28.79.02,1.28-.78,1.22-1.54-.38-5.14,2.3-11.27-4.55-14.37-.09-.04-.11-.24-.21-.45.42-1.56,2.52-.42,3.08-1.79.29,0,.59,0,.88,0,.27-.18.55-.25.77-.09q5.4,3.92,8.84-1.66c1.16,0,2.33,0,3.49,0,2.31-.64,4.74-.79,6.98-1.72,2.33,0,4.67,0,7-.01,1.16.69,2.32.96,3.49,0,3.2,0,6.41,0,9.61,0,2.78.5,5.82.51,6.1,4.56.1,1.52,1.79,1.71,3.01,2.11,1.43.46,2.77,1,2.94,2.78.17,1.8-.62,3.48-2.14,3.94-6.27,1.89-6.09,6.67-6.01,11.81.18,11.67-.2,11.92-11.94,11.93-5.37,0-10.75-.07-16.12.03-4.4.07-4.99.63-5.04,5.12-.11,12.05.02,24.09-.07,36.14-.02,3.47-.7,6.5-5.14,6.5-.78.15-1.56.34-2.27-.23-2.61-1.2-4.85-3.21-7.86-3.5-.66-2.3-2.06-1.66-3.49-.88-9.2-2.09-18.42-4-27.95-3.5Z"/>
      <path class="cls-87" d="m131.86,285.94c3.62-.94,4.56-3.18,4.48-6.92-.29-12.33,0-24.67-.18-37-.06-3.78,1.13-5.15,4.98-5.03,7.69.24,15.39-.03,23.08.11,3.88.07,5.58-1.35,5.25-5.39-.28-3.46.29-7.01-.15-10.43-.51-4.04,1.51-5.91,4.84-6.78,2.19-.57,4.08-1.31,3.81-3.82-.26-2.41-2.48-1.35-3.89-1.53-1.44-.18-2.99-.66-2.74-2.14.63-3.8-1.69-4.89-4.55-5.73,6.11,0,12.23.02,18.34.02-.29,2.46,4.01.91,3.26,3.68-.98,3.62-1.48,7.73-4.18,10.31-2.24,2.14-4.22,4.09-4.76,7.98-.7-1.21-1.02-1.65-1.22-2.14-.3-.72.1-1.97-1.19-1.93-1.04.03-1.46.97-1.44,1.86.08,3.63-.69,6.85-2.31,10.28-1.08,2.29-1.5,4.59-3.81,6.2-2.15,1.5-2.9,3.89-2.71,6.55.21,3.08-.67,5.44-4.15,6.08-2.72.5-4.07,2.96-4.17,4.99-.21,4.22-2.84,9.51,3.54,11.94.54.21.96,1.06,1.17,1.7.37,1.15-3.57,8.97-4.66,9.17-3.38.6-6.42.34-7.68-3.64-.07-.24-.41-.39-.63-.58-3.47.26-5.17,2.01-5.03,5.6.14,3.74-2.22,6.45-4.28,9.2-.9,1.2-2.23,1.82-3.79.91-.29-.29-.59-.58-.88-.87-1.27-1.18-2.91-1.74-4.36-2.62Z"/>
      <path class="cls-92" d="m136.23,203.01c.36,2.84-.9,5.47-3.44,5.71-2.35.22-5.26-.87-6.17-3.97,2.88-2.34,6.32-1.63,9.61-1.74Z"/>
      <path class="cls-92" d="m146.7,201.28c-2.06,1.66-4.49,1.81-6.98,1.72,2.17-1.23,4.5-1.8,6.98-1.72Z"/>
      <path class="cls-92" d="m192.11,202.13c-1.73-.28-3.67.69-5.2-.84,1.7.03,3.4.05,5.1.08.07.25.11.5.11.76Z"/>
      <path class="cls-87" d="m157.19,201.26c-1.16,2.23-2.32,1.21-3.49,0,1.16,0,2.32,0,3.49,0Z"/>
      <path class="cls-100" d="m341.66,294.61c.23-.02.47,0,.7.03,3.16,5.93,9.5,7.98,14.57,11.43,3.33,2.27,7.04,4.26,10.76,6.06-1.36,2.16-3.27,3.26-5.83,2.67-3.55-.81-5.16,1.46-6.1,4.09-1.43,4.01-.89,8.27-.73,12.44.03.88.54,1.58,1.26,2.17,5.21,4.23,5.26,9.7,3.69,15.55-.99.73-2.13.87-3.3.9-4.46.05-8.67-.64-12-3.99-1.04-1.05-2.14-1.03-2.97.1-2.35,3.24-5.43,6.06-5.25,10.65.14,3.65-1.25,6.46-5.33,7.33-2.6.56-3.22,2.84-3.23,5.08-.02,3.85-1.02,7.13-4.28,9.5-.96.69-1.56,1.76-1.8,2.92-.64,3.03-2.33,5.2-4.99,6.78-3.21,1.91-3.49,5.95-5.91,8.46-2.35-.11-4.79.47-6.99-.85-1.46-.29-2.92-.59-4.38-.88-1.31-1.06-3.06.15-4.37-.86-2.89-.47-5.75-1.2-8.73-.9-2.49-3.24.24-4.07,2.34-3.96,3.44.19,4.99-.97,5.6-4.32.45-2.45,2.93-3.14,4.95-3.77,2.54-.8,3.34-2.37,3.33-4.85-.04-7.4-.02-14.79,0-22.19,0-2.02-.47-3.43-2.54-4.52-3.4-1.79-3.44-5.26-.17-7,4.02-2.15,6.68-4.91,6.31-9.84-.15-1.95.56-3.85,2.26-4.94,2.6-1.65,2.91-4.03,2.91-6.77,0-4.74-.77-9.64,2.26-13.9,7.37-3.19,10.83-10.91,17.4-15.12,2.25-1.44,3.58-3.58,5.71-.13,1.04,1.69,3.63.97,4.84,2.62Z"/>
      <path class="cls-24" d="m314.41,306.89c-2.43,5.91-1.62,12.13-1.75,18.27-.02,1.02.07,2.22-1.2,2.51-4.24.98-4.12,4.18-4.05,7.49.08,3.84-2.75,7.5-6.65,8.37-1.73.38-2.04,1.26-2.05,2.71-.01,1.53.46,2.64,2.19,2.52,2.64-.18,3.09,1.25,3.07,3.5-.08,8.72-.07,17.44,0,26.17.02,2.17-.39,3.2-2.95,3.72-2.75.55-6.27,1.09-5.93,5.71.21,2.75-1.73,3.67-4.46,2.78-2.33-.76-4.81-1.38-4.15,2.67-4.52-1.31-9.03-2.67-13.58-3.89-.86-.23-1.24-.5-1.27-1.33,3.07-3.71,3.32-8.08,3.11-12.63-.14-3.16-.12-6.35.06-9.52.13-2.25,1.02-3.98,3.46-4.25,2.79-.31,3.5-1.96,3.46-4.47-.04-2.43-.31-4.91.6-7.28.94-1.77,2.64-2.21,4.41-2.29,3.39-.14,5.88-1.35,6.75-4.92.24-1,.89-1.85,1.67-2.5,2.45-2.02,3.32-4.66,3.19-7.73-.15-3.57.92-6.17,4.88-7.04,2.87-.63,3.68-2.98,3.81-5.65.15-3.04-.22-6.1.26-9.12.65-4.09,3.05-5.32,7.14-3.8Z"/>
      <path class="cls-63" d="m282.96,349.67c0,3.2-.13,6.4.04,9.58.14,2.62-.78,3.87-3.47,3.51-3.01-.4-3.69,1.14-3.6,3.83.16,4.64-.16,9.31.11,13.94.21,3.69-1.09,6.13-4.43,7.55-5.76-.2-10.93-2.15-15.72-5.24-.62-.65-.64-1.66-1.14-2.3-2.53-3.21-2.35-5.54,1.67-7.37,1.99-.9,2.53-3.08,2.65-5.18.13-2.4,1.03-4.03,3.5-4.85,2.98-.98,4.07-3.54,4.36-6.43.38-3.71,1.59-7.03,4.01-9.89,1.46-1.72,1.97-3.79,2.27-5.99.23-1.68.5-3.76,3.17-2.35.49.73.79,1.57.72,2.41-.31,3.92.38,7.05,5.17,7.43.57.04.81.71.69,1.34Z"/>
      <path class="cls-77" d="m215.71,348.79c-1.43,0-2.86.04-4.29,0-3.09-.1-2.92,1.45-1.83,3.5-2.45-.12-3.84-1.82-5.24-3.5,3.1-5.72,1.29-11.92,1.73-17.9.14-1.88.2-3.8-.02-5.67-.49-4.18,1.57-5.3,5.35-5.29,7.74.01,7.74-.1,7.78-7.75.03-5.3.04-5.12,6.33-5.36,4.03-.15,6.64.56,5.92,5.37-.15,1-.02,2.03-.02,3.05,0,6.1,0,6.18-6.02,6.45-3.09.14-4.49,1.56-4.47,4.61.04,4.65-.06,9.31.03,13.96.06,3.03.24,5.95-3.82,6.57-.94.14-1.38,1-1.45,1.96Z"/>
      <path class="cls-86" d="m275.98,338.32c-.96.13-1.83.6-1.66,1.62.7,4.26-1.89,7.04-4.22,9.99-1.5,1.89-1.74,4.26-1.93,6.54-.33,4.07-1.5,7.39-6.15,8.07-1.91.28-1.74,1.65-1.74,2.94.01,3.79-.9,6.81-5.27,7.72-1.55.32-2.3,2.16-.56,2.74,3.34,1.11,1.07,3.28,1.45,4.91-2.84-.67-5.71-1.26-7.86-3.5.02-1.26-2.93-1.15-1.44-3.1,4.59-3.86,9.39-7.6,8.87-14.55-.19-2.57.6-4.57,2.98-5.76,3.94-1.97,6.49-4.74,6-9.55-.17-1.63.5-3.28,1.88-4.22,2.9-1.99,3.35-4.79,3.29-8-.05-2.26-.28-4.88,2.93-5.48,2.96-.55,4.2,1.25,4.93,3.71.21.7.71,1.26,1.1,1.87.73,2.36-.95,3.19-2.58,4.05Z"/>
      <path class="cls-86" d="m234.05,371.5c0-.29,0-.59,0-.88,1.4-2.45,3.63-3.09,6.18-2.57,2.59.53,2.78,2.88,3.26,4.93-.08,1.2-.5,2.23-1.59,2.88-1.83.35-3-.95-4.36-1.76-.3-.87-.52-1.81-1.76-1.73-.72-.02-1.37-.17-1.75-.87Z"/>
      <path class="cls-50" d="m241.91,375.86c.29-.87.58-1.75.87-2.62,3.1-.77,3.21,1.45,3.49,3.49.53.91,1.89,1.26,1.75,2.62-2.01-1.21-4.41-1.74-6.11-3.49Z"/>
      <path class="cls-50" d="m235.8,372.37c.66-.96,1.81-1.27,2.53-.65,1.09.96-.74,1.48-.77,2.37-.84-.32-1.42-.9-1.76-1.73Z"/>
      <path class="cls-77" d="m198.24,342.68c.89-.69,1.9-2.39,2.85-.54.56,1.08-1.04,1.26-1.98,1.42-.29-.29-.58-.58-.88-.87Z"/>
      <path class="cls-24" d="m295.18,394.2c1.47.2,3.14-.59,4.37.86-1.47-.2-3.14.57-4.37-.86Z"/>
      <path class="cls-71" d="m427.07,334.83c-4.75,1.92-7.31,6.09-9.48,10.21-1.45,2.75-2.84,4.08-5.91,3.79-2.52-.25-5.17-.4-4.77,3.53.12,1.14-.84,2.17-1.65,2.38-4.41,1.15-3.49,4.58-3.51,7.63-.02,4.51-.04,9.02,0,13.53.07,7.93-.96,6.84,6.98,6.95-8.28,4.35-17.22,6.65-26.24,8.83-3.18.77-6.19,2.12-9.57,1.65-1.56-.21-2.7-1.08-1.89-2.61,2.54-4.84,1.18-10,1.49-15.01.15-2.46.08-4.94.02-7.42-.09-3.27.55-5.71,4.07-7.31,4.04-1.83,4.17-8.64.2-10.33-3.76-1.6-4.45-4.11-4.27-7.55.07-1.31-.02-2.62.04-3.93.21-4.47,1.01-5.29,5.44-5.56,1.59-.1,3.21.05,4.78-.32,2.76-.65,3.65-2.62,3.61-5.21-.04-2.64-1.73-3.45-4.01-3.6-.87-.06-1.75-.01-2.61-.16-2.03-.36-3.1-1.57-3-3.62.12-2.4,1.96-2.74,3.76-2.6,2.12.16,4.2,1.23,6.36.16,9.48,2.79,19.2,1.45,28.83,1.74,3.94.06,5.07,2.37,4.77,5.88-.06.71.06,1.44,0,2.15-.33,3.51.56,5.96,4.75,5.81.7-.03,1.36.42,1.84,1Z"/>
      <path class="cls-42" d="m386.89,318.25c-2.21,1.73-4.77.53-7.15.84-1.21.16-2.27,0-2.08,1.88.15,1.58.58,2.51,2.26,2.45.57-.02,1.15-.38,1.69-.32,2.68.31,6.04-.62,6.2,3.95.18,5.41-1.28,7.6-5.72,7.78q-8.31.34-8.3,8.69c0,2.72-.52,5.07,3.74,5.78,3.86.64,3.28,4.82,3.27,8.03,0,2.9-1.43,4.96-4.12,5.28-2.67.31-2.94,1.6-2.91,3.74.08,6.1.07,12.21,0,18.31-.02,2.23.63,4.58-1.81,6.32-1.36.97.76,1.48.96,2.34-5.15,2.41-10.77,3.01-16.27,3.37-7.36.48-14.77.12-22.16.12-2.2-4.69-1.35-9.3,1.83-12.87,2.15-2.41,3.09-4.63,3.07-7.67-.01-2.12-.26-4.6,2.42-5.49,2.68-.89,4.24.55,5.61,2.79,1.26,2.05,8.21,2.62,10.03,1.1,1.71-1.43,1.5-8.5-.3-10.17-5.05-4.7-5.34-10.19-.83-15.72,1.16,0,2.33,0,3.49,0,2.36-2.84,3.32-6.61,6.56-8.96,1.69-1.23,1-3.78,1.01-5.76.02-2.6.48-4.56,3.31-5.85,3.52-1.6,4.02-4.07,2.61-7.72-.71-1.83-1.68-3.74-.39-5.74,4.82.53,9,3.58,13.97,3.5Z"/>
      <path class="cls-14" d="m356.33,348.8c-1.13,3.55-2.32,7.07-1.76,10.9.18,1.26-.2,2.94,1.69,2.96,3.71.04,3.58,2.48,3.59,5.08.04,8.82-3.17,11.26-11.79,8.93-1.53-.41-2.2-1.33-2.18-2.79.02-2.35-1.5-2.44-3.24-2.35-2.17.11-2,1.68-2.02,3.13-.02,1.74,0,3.48-.01,5.22-.01,1,.29,2.45-.64,2.84-6.71,2.86-4.76,8.97-5.47,14.08-7.86,0-15.72,0-23.58-.01.81-4.41,3.91-7.22,6.39-10.67,3.49-4.84,8.78-9.14,9.32-15.86.08-1.01-.16-2.11.17-3.02.81-2.27,1.39-4.69,4.82-4.57,3.08.11,4.08-2.63,3.63-4.87-1.21-5.98,3.8-9.05,5.83-13.47.67-1.46,3.49-1.38,4.17-.13,2.56,4.7,6.91,4.29,11.09,4.59Z"/>
      <path class="cls-58" d="m68.98,279.83c-1.61-1-2.77-2.01-2.7-4.35.22-6.97.16-13.96.04-20.93-.05-2.59.76-3.52,3.46-3.59,10.46-.29,10.14-.37,10.68,9.98.3,5.7,2.29,11.3,1.62,17.14-.87,0-1.75,0-2.62,0-1.61,1.09-3.63-.26-5.24.87-1.62,1.04-3.44.89-5.24.87Z"/>
      <path class="cls-11" d="m137.11,289.43c4.15-1.51,6.82-5.9,6.99-11.46.14-4.69,1.75-5.81,6.11-4.25,0,4.45-.06,8.9.03,13.35.05,2.21-.49,4.44,1.29,6.52,1.41,1.65-.55,3.12-1.31,4.57-3.34-4.46-9.21-5.11-13.1-8.73Z"/>
      <path class="cls-92" d="m118.76,281.57c.3-.31.58-.65.9-.93.97-.81,1.93-2.36,3.28-1.42,1.77,1.23-1.29,1.93-.7,3.22-1.53,1.17-2.18-1.16-3.49-.88Z"/>
      <path class="cls-11" d="m131.86,285.94c2.1-.2,3.46.84,4.36,2.62-2.2-.49-4.2-1.45-6.11-2.62.58,0,1.16,0,1.74,0Z"/>
      <path class="cls-92" d="m74.22,278.95c1.53-1.58,3.49-.59,5.24-.87-1.53,1.57-3.49.59-5.24.87Z"/>
      <path class="cls-34" d="m499.57,195.15c0-3.48.12-6.97-.04-10.45-.12-2.6.75-3.61,3.46-3.59,3.29.03,7.41,1.45,9.69-.66,2.35-2.17.71-6.33.8-9.61.06-2.44.52-4.03,3.36-3.63,3.33.47,3.99-1.37,3.7-4.13-.07-.72-.01-1.45-.01-2.18,0-7.34,0-7.47,7.11-7.6,2.76-.05,3.43-1.12,3.41-3.64-.09-10.74-.04-21.48-.04-32.22,3.55,1.32,7,2.07,9.62-1.75,3.35-.09,6.29,1.65,9.45,2.38,2.69.62,5.3,1.1,8.03,1.16,2.01,2.83.26,3.11-2.01,2.87-1.13-.12-2.39-.78-2.99.7-.47,1.16.62,1.72,1.3,2.47,3.45,3.83,2.49,8.16-1.78,11.2-2.87,2.04-5.64,4.53-5.07,8.88.31,2.43-.13,4.94.1,7.39.36,3.8-.36,6.97-4.24,8.51-2.48.99-2.67,3.71-3.75,5.43-2.7,4.32-7.52,7.07-8.93,12.25-.15.54-.59,1.47-.83,1.45-6.09-.48-5.23,6.79-9.44,8.43-.9.35-1.8,1.39-1.58,2.43,1.28,6.01-3.43,4.2-6.01,4.32-4.42.21-8.88-.25-13.32-.42Z"/>
      <path class="cls-47" d="m580.79,120.94c-5.53,1.4-11.06,1.4-16.59,0,5.53,0,11.06,0,16.59,0Z"/>
      <path class="cls-47" d="m623.59,108.71c1.41,3.97-1.58,1.4-2.61,1.75.48-1.16,1.36-1.74,2.61-1.75Z"/>
      <path class="cls-47" d="m620.97,110.47c-1.14,1.39-2.66,1.8-4.37,1.74,1.14-1.37,2.66-1.8,4.37-1.74Z"/>
      <path class="cls-14" d="m372.92,314.75c.87,2.48.56,5.33,3,7.35,1.15.95-2.34,7.19-4.37,7.32-3.02.19-3.04,1.87-3.02,4.07.03,3.66.84,7.47-3.93,9.47-2.24.94-.88,5.68-4.78,5.84.36-3.5-.33-6.92-1.04-10.3-.36-1.73-.61-3.86-3.32-3.75-1.27.05-1.74-.87-1.73-2.02.05-5.04-.25-10.08.75-15.12.47-2.38,2.93-1.99,3.74-3.83,1.21-2.74,2.58-.59,4.04.17,2.25,1.17,3.32-2.02,5.42-1.82,1.75.88,3.49,1.75,5.24,2.63Z"/>
      <path class="cls-30" d="m427.07,334.83q-7.86,0-7.86-7.8c0-2.91.78-6.22-3.49-7.03,5.72,1.19,10.91-2.5,16.58-1.76,1.38,1.5,3.18.76,4.8.85,1.59.09,3.15,0,3.94,1.78-2.65,1.28-5.53.48-8.28.76-2.49.25-3.22,1.16-3.1,3.45.12,2.28-.05,4.58.04,6.87.08,1.92-.51,3.06-2.64,2.89Z"/>
      <path class="cls-30" d="m440.18,317.37c-2.33,0-4.66,0-6.98,0,2.01-1.86,4.94-.04,6.98-1.74.56.58.48,1.16,0,1.74Z"/>
      <path class="cls-96" d="m440.18,317.37c0-.58,0-1.16,0-1.74,0-.28.01-.57.03-.85.86,0,1.72,0,2.58.01-.58,1.15-1.44,2.02-2.61,2.58Z"/>
      <path class="cls-102" d="m464.64,338.33c.22-1.52-.81-4.29,2.61-2.63-.03,1.71-1.5,1.99-2.61,2.63Z"/>
      <path class="cls-67" d="m303.92,48.48c0,.15-.03.3,0,.43.47,2.12-1.33,5.61,1.32,6.13,2.94.57,6.81,2.23,9.44-1.47.7-.98,1.56-.07,2.33.14,0,1.89-.17,3.79.03,5.65.84,7.69-4.41,12.27-8.57,17.51-2.37,2.98-4.85,5.51-8.68,6.45-1,.25-.45,1.16-.25,1.81-3.96,1.56-6.99-1.89-10.74-1.98-4.34-.1-8.28-2.99-12.84-2.41-.05-.97-.72-1.46-1.39-2.07-1.69-1.54-.7-2.59.96-2.17,3.43.87,6.55-.53,9.81-.73,1.34-.08,2.19-1.02,2.43-2.19,1.03-5.15,3.89-9.02,7.94-12.21,1.89-1.49,1.17-3.76,1.2-5.73.09-6.09,1-7.06,7.01-7.19Z"/>
      <path class="cls-67" d="m299.56,85.15c2.28.21,1.35,1.49.87,2.62-3.8.29-.19-1.87-.87-2.62Z"/>
      <path class="cls-83" d="m646.3,115.7c-.14-2.47-.15-4.89,2.62-6.11-.86,2.04-.33,4.68-2.62,6.11Z"/>
      <path class="cls-69" d="m333.63,113.93c.86-1.16,1.66-2.36,2.6-3.45.63-.73,1.17-1.95.29-2.12-3.55-.7-2.52-4.16-3.92-6.12-1.18-1.65-1.61-3.62,1.42-5.14,3.01-1.5,3.39-5.04,3.1-8.33-.48-5.51,4.38-8.24,7.05-11.74,1.09-1.43,6.09-2.42,9.57-2.37,2.03.03,4.06,0,6.08,0,0,8.71-.01,9-8.62,8.61-4.59-.21-5.56,1.33-5.45,5.61.29,11.84.1,23.69.1,35.54-4.64-2.84-7.11-8.2-12.22-10.5Z"/>
      <path class="cls-92" d="m206.1,204.75c-1.67,0-3.46.29-4.36-1.7,1.55.33,3.14.53,4.36,1.7Z"/>
      <path class="cls-66" d="m470.79,58.92c-1.07.88-2.12,2.66-3.62,1.43-1.96-1.6.63-2.67.97-4.03.47,1.29,2.61.88,2.65,2.6Z"/>
      <path class="cls-30" d="m448.92,311.29c-.45,3.44-3.16,2.36-5.21,2.59,1.74-.86,3.47-1.73,5.21-2.59Z"/>
      <path class="cls-25" d="m246.28,376.73c-1.66-.67-1.31-3.35-3.49-3.49q-2.85-5.51-8.73-2.62,1.28-7.86,8.76-7.86c1.89,0,3.8-.16,5.67.03,3.36.35,5.41-.47,4.8-4.39-.29-1.87,1-2.28,2.47-2.91,1.96-.84,3.15-2.53,2.69-4.91-.52-2.69-2.69-1.71-4.22-1.75-6.19-.18-6.19-.12-6.2-6.35,0-1.31.06-2.62,0-3.93-.12-2.52.89-3.69,3.55-3.78,3.29-.11,7.44,1.5,9.66-.76,2.2-2.25.63-6.38.73-9.68.08-2.69,1.37-3.4,3.83-3.53,3.27-.18,7.41,1.6,9.58-.91,1.9-2.2.38-6.16.62-9.33.07-.99.04-2.72.45-2.85,4.44-1.43,2.68-5.07,3.02-7.94.09-.72-.17-1.66.19-2.14,3.42-4.43,3.53-9.54,3.35-14.78-.08-2.4,1.36-3.69,3.78-3.89,1.09-.09,2.86.33,2.9-1.17.15-5.58,7.32-6.37,7.77-11.71.07-.78,1.3-1.06,2.22-1.06,3.45-.01,6.91-.02,10.36-.02,3.95,1.47,5.67,5.4,8.72,7.86,0,.29,0,.58,0,.87-.35.65.03,1.72-.51,2.05-4.97,3.02-6.99,9.14-12.17,11.75-2.63,1.33-3.77,2.95-3.62,5.7.18,3.24-.69,5.95-3.43,8-1.98,1.48-1.85,3.82-1.83,6,.05,4.22-1.67,6.86-5.72,8.73-4.78,2.21-7.85,6.17-8.3,11.8-.25,3.09-.2,6.59-4.6,7.08-2.19.2-2.75-1.03-2.64-2.93.11-2.02-1.18-2.3-2.83-2.31-1.99,0-2.43,1.11-2.39,2.79.04,1.73-.04,3.47.01,5.21.06,1.99-.18,3.55-2.48,4.45-2.42.95-3.28,3.24-2.74,5.73,1.06,4.88-2.22,7.13-5.66,8.73-2.71,1.26-3.64,2.48-3.23,5.52.44,3.25,1.18,7.03-3.33,8.68-.78.29-1.77,1.18-1.72,2.34.16,4.06-2.63,3.77-5.31,3.7Z"/>
      <path class="cls-15" d="m53.25,238.79c1.74,2.53.58,4.64-1.2,6.39-1.75,1.72-3.51,2.09-4.04-1.15.93-2.56,2.7-4.29,5.24-5.24Z"/>
      <path class="cls-58" d="m60.24,232.68c.84.1,2.28.45,1.91,1.08-.73,1.23-2.25,1.37-3.65.67.33-.83.91-1.42,1.75-1.75Z"/>
      <path class="cls-66" d="m278.6,334.83c2.72-1.54,3.5-3.98,3.52-6.96.04-5.85,4.18-11.45,9.69-13.26,3.3-1.09,4.44-3.49,4.25-6.73-.21-3.57-.21-6.85,3.74-8.85,2.33-1.18,1.53-3.89,1.46-5.99-.11-3.38.31-6.14,4.55-6.44.8-.06,2.12-.6,2.25-1.14,1.43-5.92,7.67-7.37,10.71-11.74,3.32,1.82,4.93,5.76,8.71,7,1.06,2.64,3.14,4.38,5.29,6.06,2.33.64,3.5,2.71,4.99,4.3,1.03,1.1,1.96,1.95,3.5,1.91.13.54.26,1.07.39,1.61-2.1-1.53-6.18.63-6.87-3.73-.08-.48-1.36,0-1.7.67-2.08,4.05-6.92,5.02-9.47,8.56-.58.8-1.78,1.38-1.95,2.22-.88,4.11-3.91,4.52-7.25,4.57-5.51.12-6.08.66-6.11,5.9-.01,2.17-.08,4.34.01,6.5.2,4.33-1.08,7.43-6.03,7.7-2.68.15-2.79,2.05-2.72,4.03.16,4.13.3,8.23-4.27,10.42-.63,7.95-7.23,6.96-12.34,8.22-1.85-2.08-5.7.63-6.55-1.9-.96-2.88-.36-6.27-.44-9.45-.08-1.88,2.24-1.96,2.62-3.49Z"/>
      <path class="cls-93" d="m366.81,97.37h1.75c.96.12,2.09.82,1.6,1.56-2.24,3.38-1.16,7.39-2.43,10.99-1.43-4.14-.68-8.39-.92-12.55Z"/>
      <path class="cls-56" d="m249.77,306.89c-3.02.85-1.65,3.34-1.68,5.06-.16,8.91-.08,8.91-8.84,8.91h-3.45c.29-1.41,1.1-2.95.78-4.21-1.63-6.54,3.97-9.85,6.38-14.52,1.22-2.36,4.87-1.57,5.86.99.46,1.2.64,2.51.95,3.77Z"/>
      <path class="cls-58" d="m70.46,237.87c2.49-1.02,5-1.01,8.49-.27-3.4,1.71-5.93,1.35-8.49.27Z"/>
      <path class="cls-24" d="m302.42,391.49c-2.52,1.5-4.13.92-6.32-.61,2.39-.64,4.02-.24,6.32.61Z"/>
    </g>
  </g>
</svg>