<?xml version="1.0" encoding="UTF-8"?>
<svg id="Layer_2" data-name="Layer 2" xmlns="http://www.w3.org/2000/svg" viewBox="0 0 774.36 774.38">
  <defs>
    <style>
      .cls-1 {
        fill: #fdfdfe;
      }

      .cls-1, .cls-2, .cls-3 {
        stroke-width: 0px;
      }

      .cls-2 {
        fill: #3178c5;
      }

      .cls-3 {
        fill: #fcfcfd;
      }
    </style>
  </defs>
  <g id="typescript">
    <g>
      <path class="cls-2" d="m756.26,26.43C740.62,9.47,721.6.17,698.69.15,491.27,0,283.84-.11,76.42.2,32.04.27.17,33.16.12,78.14-.07,283.84,0,489.54.09,695.25c.02,37.3,18.37,62.91,53.37,75.49,2.17.79,4.4.98,5.07,3.64h657.32c28.6-10.41,47.75-30.26,58.51-58.51V58.55c-7.15-10.06-9.41-22.71-18.1-32.12Zm-307.54,403.17h-96.34v275.3h-76.14v-274.08h-96.2v-61.87h268.68v60.65Zm260.22,201.57c-6.92,37.94-31.9,59.32-66.98,70.74-51.24,16.69-101.85,13.02-151.91-5.16-3.66-1.34-7-3.58-10.61-5.47v-71.11c7.44-1.34,11.09,5,16.12,7.97,32.23,19.02,66.32,27.68,103.53,19.3,14.6-3.29,27.25-9.61,30.33-26.25,3.08-16.63-6.67-27.07-18.76-35.75-14.98-10.75-32.39-16.85-48.98-24.52-12.42-5.74-25.04-11.33-36.66-18.49-36.39-22.42-52.06-55.64-46.1-97.72,5.36-37.77,29.27-61.36,64.2-73.52,50.46-17.56,101.03-13.53,151.78.56v69.77c-20.73-10.04-40.8-17.51-62.4-20.36-17.39-2.3-34.35-1.59-50.66,4.86-27.38,10.83-31.18,36.54-8.15,54.69,14.54,11.45,31.72,18.11,48.53,25.3,16.33,6.99,32.36,14.52,46.97,24.7,35.4,24.67,47.34,58.89,39.75,100.46Z"/>
      <path class="cls-3" d="m694.91,371.75v69.76c-20.74-10.04-40.8-17.51-62.4-20.36-17.39-2.3-34.35-1.59-50.67,4.87-27.38,10.83-31.18,36.54-8.15,54.68,14.54,11.45,31.72,18.11,48.53,25.31,16.33,6.99,32.36,14.52,46.97,24.7,35.41,24.67,47.34,58.89,39.76,100.46-6.92,37.94-31.9,59.31-66.99,70.74-51.23,16.68-101.85,13.01-151.9-5.17-3.67-1.33-7-3.58-10.61-5.47v-71.11c7.44-1.34,11.09,5,16.12,7.97,32.22,19.02,66.32,27.68,103.52,19.3,14.6-3.29,27.26-9.6,30.34-26.24,3.08-16.64-6.68-27.07-18.76-35.75-14.98-10.76-32.39-16.85-48.98-24.52-12.42-5.74-25.05-11.34-36.66-18.49-36.39-22.42-52.06-55.64-46.1-97.71,5.36-37.78,29.26-61.37,64.2-73.52,50.46-17.56,101.02-13.54,151.78.56Z"/>
      <path class="cls-1" d="m448.72,368.95v60.65h-96.34v275.29h-76.14v-274.08h-96.2v-61.87h268.68Z"/>
    </g>
  </g>
</svg>