<?xml version="1.0" encoding="UTF-8"?>
<svg id="Layer_2" data-name="Layer 2" xmlns="http://www.w3.org/2000/svg" viewBox="0 0 657.85 660.01">
  <defs>
    <style>
      .cls-1 {
        fill: #00adef;
        stroke-width: 0px;
      }
    </style>
  </defs>
  <g id="windows">
    <g>
      <path class="cls-1" d="m657.85,416.63c-.88,1.34-.54,2.84-.54,4.27-.01,77.86-.01,155.71-.01,233.56,0,.92-.05,1.83,0,2.74.08,1.65-.73,2.34-2.31,2.3-1.19.09-2.36-.14-3.53-.31-5.88-.84-11.75-1.66-17.63-2.49-12.2-1.72-24.4-3.43-36.6-5.16-12.3-1.73-24.59-3.48-36.88-5.22-12.29-1.74-24.58-3.45-36.88-5.19-13.55-1.91-27.11-3.84-40.67-5.76-12.29-1.73-24.58-3.44-36.88-5.18-14.82-2.09-29.64-4.21-44.46-6.3-16.18-2.29-32.36-4.53-48.54-6.82-16.27-2.29-32.54-4.62-48.81-6.92-2.61-.36-2.61-.33-2.63-2.97v-.55c-.17-84.68-.34-169.35-.51-254.03q-.01-4.5,4.44-4.5c117.48.19,234.96.38,352.44.56v67.97Z"/>
      <path class="cls-1" d="m657.85,2.52v310.52c-.19-.06-.37-.11-.55-.16V3.12c0-.92-.01-1.84-.67-2.59.06-.15.1-.31.12-.48.34.23,1.16-.53,1.1.55-.03.64,0,1.28,0,1.92Z"/>
      <path class="cls-1" d="m657.85,416.63v243.38c-.97-.08-1.97.03-2.86-.51,1.58.04,2.39-.65,2.31-2.3-.05-.91,0-1.82,0-2.74,0-77.85,0-155.7.01-233.56,0-1.43-.34-2.93.54-4.27Z"/>
      <path class="cls-1" d="m657.3,3.12v309.76c-.82.06-1.63.17-2.45.18-93.73.75-187.46,1.49-281.2,2.23-22.84.18-45.68.36-68.52.54-.73,0-1.46-.03-2.19.01-1.03.06-1.52-.35-1.46-1.42.04-.64,0-1.28,0-1.92,0-85.69,0-171.38.01-257.07,0-3.17-.01-3.21,3.11-3.67,14.37-2.1,28.73-4.16,43.1-6.25,14.36-2.1,28.72-4.22,43.08-6.32,13.1-1.91,26.2-3.81,39.3-5.71,13.09-1.91,26.19-3.83,39.29-5.74,13.1-1.91,26.19-3.83,39.29-5.75,13.28-1.94,26.56-3.88,39.84-5.82,13-1.9,26.01-3.79,39.02-5.69,13.28-1.93,26.55-3.88,39.83-5.82,9.4-1.37,18.79-2.73,28.19-4.09.36-.05.73-.03,1.09-.04.66.75.67,1.67.67,2.59Z"/>
      <path class="cls-1" d="m269.11,604.36c.05,1.13-.51,1.39-1.54,1.24-4.15-.6-8.31-1.16-12.47-1.73-11.31-1.56-22.61-3.13-33.92-4.69-12.57-1.72-25.14-3.43-37.71-5.16-12.75-1.75-25.5-3.52-38.25-5.28-14.02-1.93-28.03-3.87-42.05-5.79-12.66-1.74-25.33-3.46-37.99-5.2-12.66-1.74-25.32-3.51-37.98-5.26-8.23-1.13-16.46-2.26-24.69-3.4-2.03-.28-2.07-.31-2.08-2.33-.03-5.11-.01-10.23-.01-15.34-.01-67.69-.02-135.39-.01-203.08,0-4.48-.48-3.87,3.99-3.84,43.4.28,86.79.58,130.18.87v-.04c43.58.29,87.16.59,130.73.89.19,0,.37,0,.55.01,3.26.03,2.98-.09,2.98,2.99.09,84.59.18,169.18.27,253.77,0,.46-.03.92,0,1.37Z"/>
      <path class="cls-1" d="m265.68,316.35c-43.67.27-87.33.52-131,.77h0c-43.57.27-87.14.52-130.71.77-.09,0-.19,0-.28,0-3.51-.04-3.22.41-3.23-3.23-.12-58.64-.24-117.28-.36-175.92-.03-13.61-.06-27.22-.1-40.83v-1.65c.03-2.63.03-2.62,2.73-2.99,19.9-2.71,39.79-5.44,59.69-8.15,18.09-2.45,36.19-4.86,54.27-7.32,18.09-2.47,36.17-4.99,54.26-7.45,18.09-2.47,36.19-4.89,54.28-7.34,13.66-1.85,27.31-3.71,40.97-5.58,2.83-.38,2.84-.4,2.84,2.42.02,24.12.03,48.23.04,72.34.02,60.2.04,120.39.05,180.59,0,3.98.48,3.54-3.45,3.56Z"/>
    </g>
  </g>
</svg>