<?xml version="1.0" encoding="UTF-8"?>
<svg id="Layer_2" data-name="Layer 2" xmlns="http://www.w3.org/2000/svg" viewBox="0 0 394.43 394.41">
  <defs>
    <style>
      .cls-1 {
        fill: #fdfefe;
      }

      .cls-1, .cls-2 {
        stroke-width: 0px;
      }

      .cls-2 {
        fill: #0f8cc2;
      }
    </style>
  </defs>
  <g id="wordpress">
    <g>
      <path class="cls-2" d="m197.13,394.41C87.95,394.41-1.35,304.95.02,194.66,1.35,86.81,89.95-1.08,199.28.01c108.55,1.09,196.63,90.4,195.13,199.96-1.47,107.54-89.44,194.49-197.28,194.44Zm.12-9.09c103.16-.06,187.53-83.56,188.05-187.14.53-104.11-83.59-188.5-186.97-189.08C94.22,8.52,10.01,92.52,9.11,195.49c-.92,104.79,84.04,189.83,188.15,189.84Z"/>
      <path class="cls-1" d="m197.25,385.33c-104.11,0-189.06-85.05-188.15-189.84C10.01,92.52,94.22,8.52,198.34,9.11c103.38.58,187.5,84.97,186.97,189.08-.53,103.58-84.89,187.07-188.05,187.14Zm84.37-85.6c.23-.65.33-.92.42-1.19,5.16-17.26,10.3-34.53,15.48-51.78,3.71-12.38,7.86-24.62,11-37.17,3.08-12.29,3.87-24.62,1.32-37.11-2.32-11.39-7.13-21.73-13.08-31.6-4.02-6.67-8.33-13.17-11.54-20.29-3.34-7.4-5.21-15.06-3.94-23.26,1.84-11.91,10.67-21.7,22.04-24.31,2.55-.59,5.15-.82,7.83-.83-42.78-37.15-92.06-51.58-147.81-40.6-45.7,9-81.11,34.16-107.63,72.69,5.87.26,11.25.37,16.63.22,13.27-.36,26.52-1.13,39.76-2.12,1.86-.14,3.61.41,4.97,1.79,2.09,2.11,2.68,4.65,1.78,7.44-.95,2.94-3.18,4.37-6.15,4.7-5.7.63-11.4,1.12-17.12,1.48-2.02.13-2.02.11-1.4,1.96,7.99,23.76,15.97,47.52,23.96,71.28,12.14,36.1,24.27,72.21,36.41,108.31.16.48.23,1.01.73,1.45.19-.53.35-.93.49-1.34,12.02-36.04,24.04-72.07,36.08-108.11.28-.84.28-1.56-.02-2.39-8.51-23.27-17.01-46.54-25.47-69.82-.37-1.02-.9-1.27-1.91-1.33-5.67-.35-11.33-.84-16.96-1.61-3.76-.51-6.01-3.55-5.64-7.3.4-4.02,3.29-6.7,7.13-6.5,2.84.14,5.67.4,8.5.58,15.64,1.01,31.28,1.98,46.97,1.39,11.41-.43,22.8-1.1,34.18-1.94,2.05-.15,3.92.29,5.4,1.77,2.11,2.1,2.66,4.64,1.77,7.43-.94,2.96-3.18,4.36-6.15,4.69-5.89.66-11.79,1.19-17.71,1.49-1.17.06-1.4.29-1.01,1.43,2.12,6.16,4.18,12.33,6.25,18.51,16.41,48.82,32.81,97.64,49.21,146.46,1.7,5.05,3.4,10.09,5.24,15.55Zm-81.27-87.29c-.11.01-.22.03-.33.04-.17.45-.34.89-.5,1.35-3.89,11.29-7.79,22.58-11.68,33.88-12.65,36.75-25.29,73.51-37.94,110.26-.29.84-.73,1.51.7,1.91,12.97,3.67,26.18,5.83,39.65,6.37,9.41.38,18.8.02,28.15-1.17,11.55-1.47,22.83-4.09,33.85-7.86,1-.34,1.03-.71.56-1.53-.41-.71-.7-1.51-.98-2.29-15.58-42.68-31.16-85.35-46.74-128.03-1.57-4.31-3.16-8.62-4.74-12.92ZM42.82,128.6c-.14.01-.28.03-.42.04-18.01,42.8-19.68,86.15-2.9,129.65,15.86,41.1,44.27,71.09,83.35,91.04.14-.09.29-.19.43-.28-26.82-73.48-53.64-146.97-80.46-220.45Zm303.08-11.95c.52,5.22.82,10.45.86,15.69.09,11.81-1.39,23.44-4.18,34.91-2.29,9.44-5.75,18.49-8.94,27.64-17.02,48.86-33.88,97.77-50.78,146.66-.17.48-.54.95-.2,1.79,37.55-22.9,63.68-54.85,76.37-97,13.51-44.88,8.64-88.23-13.13-129.69Z"/>
      <path class="cls-2" d="m281.63,299.73c-1.84-5.46-3.55-10.5-5.24-15.55-16.41-48.82-32.81-97.64-49.21-146.46-2.07-6.17-4.13-12.35-6.25-18.51-.39-1.14-.16-1.37,1.01-1.43,5.92-.3,11.82-.83,17.71-1.49,2.96-.33,5.21-1.73,6.15-4.69.89-2.8.34-5.34-1.77-7.43-1.49-1.48-3.36-1.92-5.4-1.77-11.38.84-22.77,1.51-34.18,1.94-15.69.59-31.33-.38-46.97-1.39-2.83-.18-5.67-.44-8.5-.58-3.83-.19-6.72,2.48-7.13,6.5-.38,3.75,1.87,6.79,5.64,7.3,5.63.77,11.29,1.26,16.96,1.61,1,.06,1.53.31,1.91,1.33,8.46,23.28,16.95,46.56,25.47,69.82.31.84.3,1.56.02,2.39-12.04,36.03-24.05,72.07-36.08,108.11-.14.41-.29.81-.49,1.34-.5-.44-.57-.97-.73-1.45-12.14-36.1-24.27-72.2-36.41-108.31-7.99-23.76-15.97-47.52-23.96-71.28-.62-1.85-.62-1.83,1.4-1.96,5.72-.36,11.43-.84,17.12-1.48,2.97-.33,5.21-1.76,6.15-4.7.9-2.79.31-5.33-1.78-7.44-1.36-1.38-3.11-1.93-4.97-1.79-13.24.99-26.49,1.75-39.76,2.12-5.38.15-10.76.04-16.63-.22,26.52-38.52,61.92-63.68,107.63-72.69,55.75-10.98,105.03,3.45,147.81,40.6-2.68,0-5.28.24-7.83.83-11.37,2.61-20.21,12.4-22.04,24.31-1.26,8.2.6,15.86,3.94,23.26,3.21,7.12,7.52,13.62,11.54,20.29,5.95,9.87,10.76,20.21,13.08,31.6,2.54,12.49,1.75,24.82-1.32,37.11-3.14,12.55-7.28,24.8-11,37.17-5.18,17.26-10.32,34.52-15.48,51.78-.08.27-.19.54-.42,1.19Z"/>
      <path class="cls-2" d="m200.36,212.43c1.58,4.31,3.16,8.61,4.74,12.92,15.58,42.68,31.16,85.36,46.74,128.03.28.78.57,1.58.98,2.29.47.81.44,1.18-.56,1.53-11.02,3.77-22.3,6.38-33.85,7.86-9.35,1.19-18.74,1.55-28.15,1.17-13.47-.54-26.67-2.7-39.65-6.37-1.44-.41-.99-1.07-.7-1.91,12.65-36.75,25.3-73.51,37.94-110.26,3.89-11.29,7.78-22.59,11.68-33.88.16-.45.33-.9.5-1.35.11-.01.22-.03.33-.04Z"/>
      <path class="cls-2" d="m42.82,128.6c26.82,73.48,53.64,146.97,80.46,220.45-.14.09-.29.19-.43.28-39.08-19.95-67.49-49.94-83.35-91.04-16.78-43.5-15.12-86.85,2.9-129.65.14-.01.28-.03.42-.04Z"/>
      <path class="cls-2" d="m345.9,116.65c21.76,41.46,26.64,84.8,13.13,129.69-12.69,42.15-38.81,74.1-76.37,97-.34-.83.03-1.31.2-1.79,16.9-48.9,33.76-97.81,50.78-146.66,3.19-9.15,6.65-18.2,8.94-27.64,2.79-11.47,4.27-23.1,4.18-34.91-.04-5.24-.33-10.47-.86-15.69Z"/>
    </g>
  </g>
</svg>