<?xml version="1.0" encoding="UTF-8"?>
<svg id="Layer_2" data-name="Layer 2" xmlns="http://www.w3.org/2000/svg" viewBox="0 0 732.59 326.55">
  <defs>
    <style>
      .cls-1 {
        fill: #ef8338;
      }

      .cls-1, .cls-2, .cls-3 {
        stroke-width: 0px;
      }

      .cls-2 {
        fill: #fdfdfd;
      }

      .cls-3 {
        fill: #0a0a0a;
      }
    </style>
  </defs>
  <g id="workmail">
    <g>
      <path class="cls-2" d="m221.5,299.84c-1.81-3.64-5.54-.69-8.41.37-50.49,18.64-100.11,16.38-148.82-6.31-2.65-1.23-5.09-2.49-8.09-1.95-1.46-2.09-3.06-5.67-5.76-3.17-1.46,1.36,2.16,3.33,3.88,4.7,43.03,38.33,115.12,44.21,161.77,13.09,2.47-1.64,7.23-3.1,5.43-6.73ZM441.1,49.47c.08-6.08-1.69-9.66-7.2-12.67-20.7-11.29-41.16-23.01-61.56-34.8-4.11-2.37-7.22-2.84-11.62-.27-20.65,12.1-41.45,23.94-62.44,35.43-5.22,2.86-6.79,6.31-6.62,11.9.34,11.76.1,23.54.1,35.32h-.07c0,12.13.25,24.26-.11,36.38-.15,5.23,1.39,8.33,6.16,10.94,20.64,11.29,41.16,22.81,61.47,34.69,5.36,3.14,9.43,2.89,14.58-.19,20.69-12.39,41.49-24.6,62.49-36.48,4.78-2.71,4.78-6.38,4.77-10.69-.05-23.18-.25-46.37.05-69.56Zm-305.8,225.27c-.4-12.45-.02-24.92-.11-37.39-.05-6.79-2.06-12.77-8.93-15.65-6.89-2.9-13.33-1.88-18.7,3.47-2.02,2.01-3,4.45-6.15.74-6.8-8.03-14.6-7.55-22.49-1.25-1.22.98-2.14,4.36-3.78-.23-2.22-6.24-8.03-2.87-11.93-2.49-4.47.43-2.53,5.12-2.63,7.98-.26,7.12-.09,14.25-.08,21.37,0,7.83.35,15.69-.12,23.49-.37,6.21,2.7,6.91,7.76,6.83,4.72-.08,8.23.02,7.87-6.5-.5-9.23-.41-18.52,0-27.76.24-5.4-.43-12.93,7.75-12.65,7.44.26,6.42,7.25,6.52,12.42.17,9.26.44,18.54-.09,27.77-.35,6.27,2.65,6.77,7.65,6.73,4.86-.05,8.05-.25,7.75-6.64-.49-10.3-.2-20.65.05-30.97.11-5.04,2.08-9.58,7.96-9.38,5.71.19,6.17,5.11,6.23,9.48.14,10.32.43,20.67-.08,30.97-.31,6.48,3.06,6.46,7.83,6.53,5.12.09,7.92-.74,7.72-6.87Zm504.82-64.09c-.03-3.65,2.45-9.04-4.95-9.44-5.86-.33-8.85,1.21-10.42,7.58-4.55,18.54-10.01,36.86-15.2,55.55-3.08-2.38-3.22-5.33-3.96-8.05-4.36-16.15-9.02-32.22-13.03-48.45-1.65-6.71-5.92-6.83-11.23-6.56-6.21.31-5.1,4.75-5.11,8.51-.04,21.03-.09,42.07.05,63.1.02,3.44-1.91,8.53,4.74,8.51,6.61-.01,4.73-5.07,4.77-8.53.16-15.34.07-30.69.07-46.04,7,15.31,11.35,30.93,16.01,46.46,1,3.35.53,8.23,6.47,8.17,5.82-.06,5.46-4.64,6.49-8.17,4.87-16.65,9.66-33.32,14.47-49.98.71.02,1.41.04,2.11.06,0,16.75-.08,33.5.07,50.24.03,3.1-1.74,7.67,4.3,7.77,6.15.09,4.35-4.53,4.37-7.62.14-21.04.17-42.08-.02-63.11Zm-200.4-9.09c-5.88-1.32-5.75,3.91-6.5,7.54-3.49,16.71-6.86,33.44-10.44,51.01-3.59-3.25-3.4-6.23-3.93-8.97-2.84-14.69-5.81-29.35-8.51-44.06-.69-3.73-2.14-5.75-6.19-5.82-4.11-.07-5.66,2.1-6.3,5.73-1.5,8.42-2.77,16.9-4.82,25.19-2.23,9.04-1.99,18.77-7.34,29.03-3.95-19.32-7.54-36.69-11.01-54.08-.7-3.49-1.82-6.16-6.09-5.73-4.65.47-3.54,3.9-3,6.44,4.84,23.01,9.96,45.96,14.69,69,.92,4.46,3.53,4.56,6.93,4.63,3.44.07,5.3-1.24,5.79-4.76.65-4.58,1.37-9.18,2.46-13.66,3.05-12.47,3.56-25.56,9.02-37.62,4.01,15.64,7.09,31.2,10.09,46.79.84,4.36-.09,9.37,7.25,9.39,6.82.02,6.13-5.04,6.95-8.69,4.61-20.51,9.05-41.06,13.12-61.68.62-3.1,4.17-8.25-2.17-9.68Zm-243.58,69.5c-5.82-9.84-2.69-20.2-3.35-30.3-.94-14.7-7.55-21.31-23.51-21.27-7.18.57-15.26,2.22-20.15,9.95-1.51,2.38-4.96,6.33-1.65,8.34,3.52,2.12,8.66,3.89,12.91.41,1.56-1.28,2.05-4.01,3.68-5.03,3.15-1.96,6.86-2.24,10.13-.02,2.31,1.56,2.36,4.27,2.36,6.78,0,5.11-4.36,3.67-7.07,4.41-3.08.83-6.39.81-9.47,1.62-8.31,2.19-13.94,7.36-15.37,15.96-1.16,7.07.28,13.87,6.94,17.77,7.37,4.31,15.23,3.71,22.32-.85,3.57-2.3,6.06-4.56,9.13.51,1.78,2.94,4.76,3.2,7.12.35,2.29-2.74,8.68-4.07,5.98-8.63Zm-19.51-12.39c-.57,5.68-1.67,11.74-9.64,12.11-4.48.21-5.88-3.14-5.98-7.08-.21-7.89,5.04-9.96,11.54-10.86,4.69-.66,4.05,2.49,4.08,5.83Zm-125.15,11.62c-5.77-9.36-3.03-19.45-3.41-29.22-.59-15.02-6.69-21.45-23.47-21.59-6.43.63-14.61,1.93-19.63,9.62-1.75,2.68-5.34,6.87-1.19,9.09,3.09,1.66,8.13,3.61,12.01.1,1.52-1.38,2.18-3.81,3.81-4.97,3.11-2.2,6.76-2.34,10.05-.23,2.72,1.75,3.01,4.73,2.66,7.64-.5,4.23-4.32,2.85-6.75,3.51-2.72.75-5.72.52-8.46,1.23-8.49,2.21-15.16,6.72-16.68,15.97-1.14,6.95-.29,13.94,6.37,17.99,7.66,4.64,15.82,4.14,23.14-.94,3.44-2.38,5.63-3.52,8.4.63,2.27,3.41,5.37,3.23,8,.19,2.31-2.68,8.18-4.1,5.15-9.02Zm-28.05.46c-5.28.7-6.8-3.19-6.81-7.39-.03-7.84,5.54-9.79,12.02-10.63,5.15-.66,3.27,3.19,3.83,5.79-.7,5.63-1.9,11.29-9.04,12.23Zm331.74-36.89c-1.3-12.66-13.2-17.72-23.74-10.85-3.62,2.35-4.25,3.24-8.12-.67-5.07-5.14-12.53-.08-12.62,7.77-.07,7.13-.01,14.25-.01,21.38,0,7.84.34,15.7-.11,23.52-.36,6.37,3.09,6.55,7.92,6.6,5.1.06,8.05-.72,7.83-6.87-.36-9.96-.11-19.96.13-29.93.11-4.86,1.45-9.77,7.24-10.22,6.83-.54,6.8,5.44,6.99,9.76.47,10.31.51,20.67.16,30.99-.19,5.59,2.31,6.76,7.06,6.17,3.54-.45,8.49,1.59,8.36-4.97-.28-14.23.36-28.56-1.09-42.68Zm-70.2-12.48c-17.85-5.69-32.32,7.52-32.52,29.65-.18,20.63,12.24,34.33,28.56,31.48,12.45-2.17,20.53-12.59,21.69-27.98,1.19-15.77-6.14-29.46-17.73-33.15Zm-.54,43.75c-1.39,3.09-3.03,5.63-6.84,5.63-4.38.01-6.05-2.95-7.09-6.58-2.29-7.97-2.34-16.03-.64-24.08.91-4.31,2.56-8.28,8.16-7.99,5.65.3,6.58,4.77,7.37,8.89.66,3.44.52,7.03.7,10.08-.46,5.01.32,9.65-1.66,14.05Zm-44.29-1.14c-4.64-.81-9.22-1.95-14.47-3.08,6.35-9.1,12.5-17.35,18.02-26,6.03-9.45,3.74-13.55-7.02-13.61-8.2-.04-16.42.21-24.61-.09-4.52-.16-6.43,1.13-6.23,5.92.17,4.12.67,6.91,5.81,6.52,4.24-.33,8.51-.07,14.78-.07-7.08,10.18-12.78,18.69-18.82,26.95-2.66,3.63-3.83,7.35-3.9,11.82-.08,5.76.34,8.95,7.6,5.73,8.35-3.7,17.27-3.39,26.22-1.04,2.95.78,7.43,5.97,9.34-.09,1.7-5.37,1.29-11.55-6.72-12.96Zm452.6,12.01c-5.87-4.23-3.51-9.57-3.86-14.5-.71-9.92,1.09-19.97-1.08-29.81-1.91-8.65-9.76-12.96-19.97-11.5-9.12,1.3-15.75,8.16-15.84,16.1-.02,2.47.37,4.25,3.19,4.39,2.12.1,4.46.36,5.41-2.22.6-1.66.65-3.54,1.34-5.15,1.99-4.66,5.94-5.85,10.57-5.29,4.66.56,6.66,3.51,6.92,8.01.27,4.79-.89,8.22-6.38,9.34-4.52.93-9.09,2.21-13.23,4.18-9.23,4.4-10.88,12.31-9.09,21.59,1.65,8.58,7.67,11.33,16.78,12.2,6.28-2.48,13.48-5.91,21.96-1.5,3.26,1.7,6.33-3.64,3.28-5.84Zm-24.7-1.05c-7.16.4-8.89-4.83-8.56-10.72.57-10.37,9.58-10.55,16.38-11.88,6.69-1.31,1.51,5.37,3.69,6.79-.36,8.47-2.3,15.29-11.51,15.81Zm-113.04-23.94c-3.25-5.16-2.72-8.77,1.24-13.16,4.18-4.65,8.99-9.05,11.7-16.51-17.21.35-18.41,18.09-30.5,24.73,0-13.56.02-26.03-.03-38.5-.01-2.76.57-6.04-3.86-6.12-3.74-.06-4.84,1.98-4.83,5.41.07,23.18.05,46.36.05,69.54,0,2.75.55,4.79,3.99,5,4.14.24,4.69-2.18,4.67-5.36-.02-4.28-.14-8.57.13-12.84.28-4.3,3.21-7.96,6.65-8.94,3.61-1.03,4.16,3.98,5.75,6.48,3.05,4.81,6.01,9.72,8.46,14.85,2.81,5.93,6.85,7.03,13.37,4.65-5.79-10.17-10.92-19.93-16.79-29.23Zm-67.19-1.59c-.17-3.2-.06-8.48-1.74-13.72-3.07-9.53-9.01-15.57-19.23-15.6-10.33-.04-16.48,6.24-19.09,15.73-3.29,11.96-3.23,23.99,1.51,35.63,2.97,7.29,8.82,11.21,16.61,11.54,8.19.34,14.45-3.23,18.28-10.67,3.38-6.56,3.87-13.62,3.66-22.91Zm-11.23,17.72c-1.53,4.66-4.49,8.14-10.07,7.92-5.02-.19-7.71-3.27-9.1-7.68-3.31-10.46-3.28-20.98-.08-31.44,1.47-4.82,4.48-8.2,9.99-7.97,5.5.23,8.24,4.03,9.49,8.72,1.27,4.78,1.84,9.74,2.72,14.62-.13,5.52-1.28,10.76-2.95,15.83Zm46.35-44.47c-6.33-7.64-14.15,5.17-21.54-.87-2.06-1.69-4.16,1.53-4.21,4.41-.03,1.78-.05,3.55-.05,5.33v6.4c0,4.27,0,8.53.01,12.8,0,4.67.01,9.34.01,14.01,0,3.51-.01,7.01-.02,10.52-.01,3.46.23,6.42,5.03,6.16,4.34-.24,4.02-3.23,4.04-6.05.07-9.95.03-19.9.09-29.86.06-8.67,2.51-15.61,12.77-16.3,4.77-.32,5.91-4.09,3.87-6.55Zm209.65,52.54c-.02-22.4,0-44.79-.04-67.18,0-2.73.57-5.92-3.77-6.21-4.92-.33-4.79,2.97-4.79,6.29,0,11.02,0,22.03,0,33.05s-.03,22.75.03,34.12c.02,2.69-.73,5.86,3.76,6.13,4.98.31,4.81-2.86,4.81-6.2Zm-21.71-23.8v-23.44c0-3.28.23-6.59-4.71-6.42-4.4.15-3.94,3.26-3.95,6.02-.05,15.98-.04,31.96-.01,47.95.01,2.82-.25,5.78,4.1,5.88,5.07.1,4.54-3.39,4.55-6.55.04-7.81.02-15.62.02-23.44Zm-471.95,38.77c-.31-2.15-.72-3.71-3.16-4.88-8.21-3.93-24.39-.69-30.69,6.46,5.56,0,11.21.17,16.85-.04,7.66-.29,9.4,3.47,7.32,10.05-1.66,5.28-3.44,10.52-5.44,16.63,9.56-5.75,16.4-19.2,15.12-28.22Zm471.94-81.94c0-3.14.51-6.59-4.28-6.79-5.1-.21-4.25,3.46-4.43,7.1.51,2.23-.97,6.17,4.21,6.22,4.89.06,4.48-3.36,4.5-6.53Z"/>
      <path class="cls-1" d="m441.1,49.47c.08-6.08-1.69-9.66-7.2-12.67-20.7-11.29-41.16-23.01-61.56-34.8-4.11-2.37-7.22-2.84-11.62-.27-20.65,12.1-41.45,23.94-62.44,35.43-5.22,2.86-6.79,6.31-6.62,11.9.34,11.76.1,23.54.1,35.32h-.07c0,12.13.25,24.26-.11,36.38-.15,5.23,1.39,8.33,6.16,10.94,20.64,11.29,41.16,22.81,61.47,34.69,5.36,3.14,9.43,2.89,14.58-.19,20.69-12.39,41.49-24.6,62.49-36.48,4.78-2.71,4.78-6.38,4.77-10.69-.05-23.18-.25-46.37.05-69.56Zm-22.8,65.56c.06,6.05-1.89,8.01-7.98,7.86-15-.37-30.01-.12-45.02-.12s-30.74-.19-46.1.1c-5.55.11-7.46-1.62-7.4-7.28.22-19.23.1-38.47-.2-57.7-.09-5.68,1.66-9.21,7.2-11.42,14.1-5.63,28.06-11.6,41.97-17.69,3.31-1.44,6.04-1.12,9.12.28,13.96,6.33,27.92,12.67,42,18.74,4.91,2.12,6.92,5.3,6.83,10.61-.33,18.87-.58,37.75-.42,56.62Z"/>
      <path class="cls-3" d="m60.5,251.29c0-7.12-.17-14.25.08-21.36.1-2.86-1.84-7.56,2.63-7.99,3.9-.38,9.71-3.75,11.94,2.49,1.64,4.6,2.55,1.21,3.77.24,7.89-6.31,15.69-6.78,22.5,1.24,3.15,3.71,4.13,1.28,6.15-.73,5.37-5.36,11.81-6.37,18.71-3.48,6.87,2.88,8.87,8.86,8.92,15.66.09,12.46-.29,24.94.11,37.38.2,6.13-2.6,6.96-7.72,6.87-4.77-.08-8.14-.06-7.82-6.53.5-10.3.21-20.65.08-30.97-.06-4.37-.52-9.28-6.23-9.48-5.88-.2-7.84,4.34-7.96,9.38-.24,10.32-.53,20.67-.05,30.97.3,6.39-2.89,6.59-7.75,6.64-5,.05-8-.46-7.64-6.73.52-9.23.26-18.51.09-27.77-.1-5.17.92-12.16-6.52-12.42-8.17-.28-7.51,7.25-7.75,12.65-.41,9.24-.5,18.53,0,27.76.36,6.52-3.16,6.42-7.88,6.49-5.06.08-8.12-.62-7.75-6.82.47-7.81.11-15.66.11-23.5Z"/>
      <path class="cls-1" d="m629.3,223.31c-4.82,16.66-9.61,33.33-14.47,49.98-1.03,3.54-.68,8.11-6.49,8.17-5.94.06-5.47-4.82-6.47-8.17-4.65-15.53-9-31.16-16.01-46.46,0,15.35.09,30.69-.07,46.04-.04,3.46,1.84,8.51-4.77,8.53-6.65.01-4.72-5.07-4.74-8.51-.14-21.04-.1-42.07-.05-63.11,0-3.76-1.1-8.2,5.11-8.51,5.31-.27,9.58-.14,11.23,6.56,4.01,16.23,8.67,32.3,13.03,48.45.73,2.72.87,5.67,3.95,8.06,5.19-18.7,10.66-37.01,15.2-55.55,1.56-6.37,4.55-7.91,10.42-7.58,7.4.41,4.92,5.79,4.95,9.44.19,21.03.16,42.07.02,63.11-.02,3.09,1.77,7.72-4.38,7.62-6.04-.1-4.27-4.67-4.29-7.77-.16-16.75-.07-33.49-.07-50.24-.7-.02-1.4-.04-2.1-.06Z"/>
      <path class="cls-1" d="m422.79,260.11c3.58-17.57,6.95-34.3,10.43-51.01.76-3.63.62-8.86,6.5-7.54,6.34,1.43,2.79,6.58,2.18,9.68-4.08,20.62-8.51,41.17-13.12,61.67-.82,3.66-.13,8.71-6.95,8.69-7.33-.02-6.41-5.03-7.25-9.39-3.01-15.58-6.08-31.15-10.09-46.78-5.46,12.06-5.97,25.15-9.01,37.61-1.1,4.49-1.81,9.08-2.46,13.67-.5,3.52-2.36,4.83-5.79,4.76-3.4-.07-6.02-.17-6.93-4.63-4.73-23.03-9.85-45.98-14.69-68.99-.53-2.54-1.65-5.98,3-6.44,4.28-.43,5.39,2.23,6.09,5.73,3.48,17.39,7.06,34.77,11.01,54.08,5.35-10.26,5.12-19.99,7.34-29.03,2.04-8.29,3.32-16.77,4.82-25.19.65-3.63,2.19-5.8,6.3-5.73,4.04.07,5.5,2.09,6.18,5.81,2.71,14.71,5.67,29.38,8.52,44.06.53,2.74.34,5.72,3.93,8.98Z"/>
      <path class="cls-3" d="m196.14,271.06c-5.82-9.84-2.69-20.2-3.35-30.3-.94-14.7-7.55-21.31-23.51-21.27-7.18.57-15.26,2.22-20.15,9.95-1.51,2.38-4.96,6.33-1.65,8.34,3.52,2.12,8.66,3.89,12.91.41,1.56-1.28,2.05-4.01,3.68-5.03,3.15-1.96,6.86-2.24,10.13-.02,2.31,1.56,2.36,4.27,2.36,6.78,0,5.11-4.36,3.67-7.07,4.41-3.08.83-6.39.81-9.47,1.62-8.31,2.19-13.94,7.36-15.37,15.96-1.16,7.07.28,13.87,6.94,17.77,7.37,4.31,15.23,3.71,22.32-.85,3.57-2.3,6.06-4.56,9.13.51,1.78,2.94,4.76,3.2,7.12.35,2.29-2.74,8.68-4.07,5.98-8.63Zm-19.51-12.39c-.57,5.68-1.67,11.74-9.64,12.11-4.48.21-5.88-3.14-5.98-7.08-.21-7.89,5.04-9.96,11.54-10.86,4.69-.66,4.05,2.49,4.08,5.83Z"/>
      <path class="cls-3" d="m51.48,270.29c-5.77-9.36-3.03-19.45-3.41-29.22-.59-15.02-6.69-21.45-23.47-21.59-6.43.63-14.61,1.93-19.63,9.62-1.75,2.68-5.34,6.87-1.19,9.09,3.09,1.66,8.13,3.61,12.01.1,1.52-1.38,2.18-3.81,3.81-4.97,3.11-2.2,6.76-2.34,10.05-.23,2.72,1.75,3.01,4.73,2.66,7.64-.5,4.23-4.32,2.85-6.75,3.51-2.72.75-5.72.52-8.46,1.23-8.49,2.21-15.16,6.72-16.68,15.97-1.14,6.95-.29,13.94,6.37,17.99,7.66,4.64,15.82,4.14,23.14-.94,3.44-2.38,5.63-3.52,8.4.63,2.27,3.41,5.37,3.23,8,.19,2.31-2.68,8.18-4.1,5.15-9.02Zm-28.05.46c-5.28.7-6.8-3.19-6.81-7.39-.03-7.84,5.54-9.79,12.02-10.63,5.15-.66,3.27,3.19,3.83,5.79-.7,5.63-1.9,11.29-9.04,12.23Z"/>
      <path class="cls-3" d="m310.68,251.49c0-7.13-.06-14.26.02-21.38.09-7.85,7.55-12.91,12.62-7.77,3.86,3.91,4.5,3.02,8.12.67,10.54-6.87,22.44-1.81,23.74,10.86,1.45,14.12.81,28.44,1.09,42.68.13,6.56-4.82,4.52-8.37,4.96-4.75.6-7.25-.57-7.06-6.16.35-10.32.31-20.68-.16-30.99-.19-4.32-.16-10.3-7-9.76-5.79.46-7.12,5.36-7.24,10.22-.24,9.97-.49,19.97-.13,29.93.22,6.15-2.73,6.93-7.83,6.87-4.84-.05-8.28-.23-7.92-6.6.44-7.82.11-15.68.1-23.52Z"/>
      <path class="cls-3" d="m56.19,291.95c2.99-.54,5.44.72,8.09,1.95,48.71,22.68,98.33,24.94,148.81,6.31,2.88-1.06,6.61-4.01,8.41-.37,1.8,3.64-2.96,5.09-5.43,6.74-46.65,31.11-118.74,25.24-161.77-13.09.63-.51,1.26-1.02,1.89-1.53Z"/>
      <path class="cls-3" d="m284.97,221.38c-17.85-5.69-32.32,7.52-32.52,29.65-.18,20.63,12.24,34.33,28.56,31.48,12.45-2.17,20.53-12.59,21.69-27.98,1.19-15.77-6.14-29.46-17.73-33.15Zm-.54,43.75c-1.39,3.09-3.03,5.63-6.84,5.63-4.38.01-6.05-2.95-7.09-6.58-2.29-7.97-2.34-16.03-.64-24.08.91-4.31,2.56-8.28,8.16-7.99,5.65.3,6.58,4.77,7.37,8.89.66,3.44.52,7.03.7,10.08-.46,5.01.32,9.65-1.66,14.05Z"/>
      <path class="cls-3" d="m226.42,233.58c-6.26,0-10.54-.26-14.77.07-5.14.39-5.65-2.4-5.81-6.52-.2-4.79,1.71-6.08,6.23-5.92,8.2.29,16.41.05,24.61.09,10.76.06,13.05,4.16,7.02,13.61-5.52,8.65-11.67,16.9-18.02,26,5.25,1.13,9.83,2.26,14.47,3.08,8,1.41,8.42,7.59,6.72,12.96-1.92,6.06-6.4.87-9.34.09-8.95-2.36-17.87-2.66-26.22,1.04-7.27,3.22-7.68.03-7.6-5.73.06-4.47,1.24-8.19,3.89-11.82,6.05-8.26,11.75-16.77,18.82-26.95Z"/>
      <path class="cls-1" d="m692.74,276c-5.87-4.23-3.51-9.57-3.86-14.5-.71-9.92,1.09-19.97-1.08-29.81-1.91-8.65-9.76-12.96-19.97-11.5-9.12,1.3-15.75,8.16-15.84,16.1-.02,2.47.37,4.25,3.19,4.39,2.12.1,4.46.36,5.41-2.22.6-1.66.65-3.54,1.34-5.15,1.99-4.66,5.94-5.85,10.57-5.29,4.66.56,6.66,3.51,6.92,8.01.27,4.79-.89,8.22-6.38,9.34-4.52.93-9.09,2.21-13.23,4.18-9.23,4.4-10.88,12.31-9.09,21.59,1.65,8.58,7.67,11.33,16.78,12.2,6.28-2.48,13.48-5.91,21.96-1.5,3.26,1.7,6.33-3.64,3.28-5.84Zm-24.7-1.05c-7.16.4-8.89-4.83-8.56-10.72.57-10.37,9.58-10.55,16.38-11.88,6.69-1.31,1.51,5.37,3.69,6.79-.36,8.47-2.3,15.29-11.51,15.81Z"/>
      <path class="cls-1" d="m537.44,246.07c12.09-6.65,13.3-24.38,30.51-24.73-2.71,7.46-7.52,11.86-11.71,16.51-3.96,4.39-4.49,8-1.24,13.16,5.87,9.3,11,19.06,16.79,29.23-6.52,2.38-10.56,1.28-13.37-4.64-2.44-5.14-5.41-10.05-8.46-14.86-1.59-2.5-2.13-7.51-5.74-6.48-3.45.98-6.38,4.65-6.65,8.95-.27,4.26-.15,8.55-.13,12.83.01,3.19-.53,5.6-4.67,5.36-3.44-.2-3.99-2.25-3.99-5,0-23.18.02-46.36-.05-69.54-.01-3.43,1.09-5.47,4.82-5.41,4.44.07,3.86,3.36,3.87,6.12.05,12.47.02,24.93.02,38.5Z"/>
      <path class="cls-1" d="m487.81,249.42c-.17-3.2-.06-8.48-1.74-13.72-3.07-9.53-9.01-15.57-19.23-15.6-10.33-.04-16.48,6.24-19.09,15.73-3.29,11.96-3.23,23.99,1.51,35.63,2.97,7.29,8.82,11.21,16.61,11.54,8.19.34,14.45-3.23,18.28-10.67,3.38-6.56,3.87-13.62,3.66-22.91Zm-11.23,17.72c-1.53,4.66-4.49,8.14-10.07,7.92-5.02-.19-7.71-3.27-9.1-7.68-3.31-10.46-3.28-20.98-.08-31.44,1.47-4.82,4.48-8.2,9.99-7.97,5.5.23,8.24,4.03,9.49,8.72,1.27,4.78,1.84,9.74,2.72,14.62-.13,5.52-1.28,10.76-2.95,15.83Z"/>
      <path class="cls-1" d="m497.14,250.74c0-6.4-.01-12.8,0-19.2,0-1.78.02-3.55.05-5.33.05-2.88,2.15-6.1,4.21-4.41,7.39,6.04,15.21-6.77,21.54.88,2.04,2.46.9,6.22-3.87,6.54-10.26.69-12.71,7.64-12.77,16.31-.07,9.95-.03,19.91-.1,29.86-.02,2.82.3,5.81-4.04,6.04-4.79.26-5.04-2.7-5.03-6.16.03-8.18.01-16.35,0-24.53Z"/>
      <path class="cls-1" d="m723.99,241.16c0-11.02,0-22.04,0-33.06,0-3.32-.13-6.61,4.79-6.28,4.34.29,3.77,3.48,3.78,6.21.04,22.39.02,44.78.04,67.18,0,3.34.17,6.51-4.8,6.21-4.49-.28-3.75-3.44-3.76-6.13-.07-11.37-.03-22.75-.03-34.12Z"/>
      <path class="cls-1" d="m710.87,251.41c0,7.81.03,15.63-.01,23.44-.02,3.16.52,6.65-4.55,6.54-4.35-.09-4.09-3.05-4.1-5.88-.03-15.98-.04-31.96,0-47.94,0-2.76-.45-5.87,3.95-6.02,4.95-.17,4.71,3.14,4.71,6.42,0,7.81,0,15.63,0,23.44Z"/>
      <path class="cls-3" d="m223.81,318.4c2-6.11,3.77-11.35,5.44-16.63,2.08-6.58.34-10.34-7.32-10.05-5.64.21-11.29.04-16.85.04,6.3-7.15,22.48-10.39,30.69-6.46,2.44,1.17,2.85,2.73,3.16,4.88,1.28,9.02-5.55,22.46-15.12,28.21Z"/>
      <path class="cls-1" d="m702.15,208.55c.18-3.64-.66-7.32,4.43-7.11,4.8.2,4.3,3.65,4.28,6.79-.01,3.17.39,6.58-4.5,6.53-5.18-.06-3.7-3.99-4.21-6.22Z"/>
      <path class="cls-3" d="m54.3,293.48c-1.72-1.37-5.34-3.35-3.88-4.7,2.7-2.5,4.3,1.08,5.77,3.17-.63.51-1.26,1.02-1.89,1.53Z"/>
      <path class="cls-2" d="m418.72,58.41c.09-5.31-1.92-8.49-6.83-10.61-14.08-6.07-28.04-12.41-42-18.74-3.08-1.4-5.81-1.72-9.12-.28-13.91,6.09-27.87,12.06-41.97,17.69-5.54,2.21-7.29,5.74-7.2,11.42.3,19.23.42,38.47.2,57.7-.06,5.66,1.85,7.39,7.4,7.28,15.36-.29,30.73-.1,46.1-.1s30.02-.25,45.02.12c6.09.15,8.04-1.81,7.98-7.86-.16-18.87.09-37.75.42-56.62Zm-30.41,56.25h-23.57c-12.51-.01-25.01-.25-37.5.1-5.64.17-7.7-1.67-7.27-7.29.41-5.31.46-10.7.01-16.01-.7-8.24,3.14-8.61,8.54-4.91,24.34,16.7,48.48,16.3,72.84.07,6.34-4.22,9.04-2.71,9.05,5.56.04,22.48.37,22.48-22.1,22.48Zm1.95-31.79c-17,11.19-33.42,11.29-50.47.02-4.44-2.93-3.93-6.3-3.84-10.05.13-5.39,4.37-4.68,7.86-4.71,7.16-.07,14.32-.02,21.48-.02s14.32-.02,21.48.01c3.22.02,6.96-.32,6.82,4.48-.11,3.63,1.22,7.28-3.33,10.27Zm19.2-9.69c-1.22,1.83-3.16,2.97-5.49,2.55-2.5-.44-2.17-2.78-1.89-4.24,2.08-10.55-3.8-11.33-12.16-11.1-17.85.49-35.73.31-53.59.06-5.62-.08-8.78,1.03-8.33,7.54.19,2.64,2.09,7.52-2.83,7.65-5.5.14-5.15-4.74-5.09-8.72.01-.71,0-1.42,0-3.05-1.39-5.83,1.22-10.03,7.97-11.69,1.02-.25,1.94-.88,2.92-1.32q36.65-16.25,72.82,2.11c5.64,2.86,9.12,15.01,5.67,20.21Z"/>
      <path class="cls-1" d="m364.74,114.65c-12.5,0-25.01-.25-37.5.11-5.64.16-7.7-1.68-7.27-7.29.41-5.31.46-10.71,0-16.01-.7-8.24,3.14-8.62,8.54-4.91,24.34,16.7,48.48,16.3,72.84.08,6.34-4.22,9.04-2.72,9.05,5.55.03,22.48.37,22.48-22.11,22.48-7.86,0-15.72,0-23.57,0Z"/>
      <path class="cls-1" d="m320.08,63.87c-1.39-5.83,1.22-10.03,7.97-11.69,1.02-.25,1.94-.88,2.92-1.31q36.65-16.25,72.83,2.11c5.64,2.86,9.12,15,5.66,20.21-1.22,1.83-3.16,2.97-5.49,2.55-2.5-.44-2.17-2.78-1.89-4.24,2.08-10.55-3.8-11.33-12.17-11.1-17.85.48-35.72.31-53.58.06-5.62-.08-8.78,1.03-8.33,7.54.18,2.63,2.09,7.52-2.83,7.65-5.51.14-5.16-4.74-5.09-8.72.01-.71,0-1.42,0-3.06Z"/>
      <path class="cls-1" d="m365.29,68.11c7.16,0,14.32-.02,21.48.01,3.23.02,6.96-.32,6.82,4.48-.11,3.63,1.23,7.27-3.32,10.27-17.01,11.19-33.42,11.29-50.47.02-4.43-2.93-3.93-6.3-3.84-10.05.13-5.39,4.37-4.68,7.86-4.71,7.16-.07,14.32-.02,21.48-.02Z"/>
    </g>
  </g>
</svg>