<?xml version="1.0" encoding="UTF-8"?>
<svg id="Layer_2" data-name="Layer 2" xmlns="http://www.w3.org/2000/svg" viewBox="0 0 611 611">
  <defs>
    <style>
      .cls-1 {
        fill: #ff4a00;
        stroke-width: 0px;
      }
    </style>
  </defs>
  <g id="zapier">
    <path class="cls-1" d="m382,305.63c.01,22.07-3.97,43.95-11.75,64.6-20.66,7.78-42.55,11.76-64.62,11.77h-.26c-22.73-.03-44.51-4.18-64.6-11.76-7.78-20.65-11.77-42.54-11.76-64.61v-.27c-.01-22.06,3.97-43.94,11.74-64.59,20.66-7.79,42.55-11.78,64.63-11.77h.26c22.07-.01,43.97,3.98,64.62,11.77,7.78,20.65,11.76,42.53,11.75,64.59v.27h0Zm224.75-51.63h-178.77l126.01-126.12c-9.89-13.9-20.92-26.96-32.98-39.03h0c-12.06-12.06-25.1-23.1-38.99-32.99l-126.01,126.12V4.25C339.36,1.43,322.53,0,305.66,0h-.31c-17.16,0-33.97,1.48-50.34,4.25v177.62l-126.3-126.31c-13.92,9.91-26.98,20.96-39.06,33.05l-.07.05c-12.07,12.07-23.11,25.12-33.01,39.03l126.31,126.31H4.26s-4.26,33.55-4.26,50.89v.21c0,17.35,1.47,34.35,4.26,50.89h177.61l-126.33,126.3c19.87,27.88,44.25,52.26,72.14,72.13l126.32-126.31v178.63c16.78,2.81,33.77,4.23,50.78,4.25h.43c17.02-.02,34-1.44,50.78-4.25v-178.63l126.31,126.32c13.91-9.91,26.98-20.96,39.06-33.04l.03-.03c12.07-12.09,23.12-25.15,33.03-39.07l-126.31-126.31h178.63c2.78-16.52,4.23-33.47,4.25-50.78v-.44c-.02-17.31-1.47-34.26-4.25-50.78h0Z"/>
  </g>
</svg>