<?xml version="1.0" encoding="UTF-8"?>
<svg id="Layer_2" data-name="Layer 2" xmlns="http://www.w3.org/2000/svg" viewBox="0 0 552.88 553.19">
  <defs>
    <style>
      .cls-1 {
        fill: #fefefe;
      }

      .cls-1, .cls-2 {
        stroke-width: 0px;
      }

      .cls-2 {
        fill: #4a8cfe;
      }
    </style>
  </defs>
  <g id="zoom">
    <g>
      <path class="cls-2" d="m280.57.02C118.94-1.79.96,127.03,0,273.21c-1.01,155.26,122.02,279.64,275.58,279.98,148.25.62,276.95-116.29,277.29-276C553.21,119.4,428.95,1.68,280.57.02Zm54.32,373.03c-7.28-.05-14.57-.08-21.85-.09-24.18-.06-48.35.01-72.53.01-8.66,0-17.33.02-26,.03-19.93.02-39.87.04-59.8-.05-37.12-.17-58.4-21.65-58.4-58.72-.01-39.68-.02-79.37.01-119.05,0-12.68,2.33-15.12,14.89-15.13,61.13-.05,122.27-.18,183.4.04,31.11.12,54.12,23.18,54.33,54.38.28,41.47-.05,82.94.15,124.41.05,10.04-4.29,14.23-14.2,14.17Zm115.95-96.55c0,27.88.06,55.75-.07,83.63-.02,4.11,1.38,9.23-3.06,11.8-4.67,2.71-8.01-1.58-11.29-3.96-23.45-16.95-46.71-34.17-70.21-51.06-4.19-3.02-6.05-6.18-5.96-11.46.31-19.3.33-38.6-.01-57.9-.09-5.36,2-8.35,6.11-11.32,23.48-16.92,46.73-34.15,70.16-51.14,3.27-2.36,6.5-6.79,11.22-4.03,4.42,2.58,3.02,7.7,3.04,11.8.13,27.88.07,55.76.07,83.64Z"/>
      <path class="cls-1" d="m240.5,372.97c-28.6,0-57.2.11-85.8-.02-37.11-.17-58.39-21.66-58.4-58.72,0-39.68-.02-79.37,0-119.05,0-12.68,2.33-15.12,14.89-15.13,61.13-.05,122.27-.18,183.4.04,31.11.12,54.12,23.18,54.33,54.38.28,41.47-.05,82.94.16,124.41.05,10.04-4.29,14.22-14.21,14.16-31.46-.19-62.92-.07-94.38-.07Z"/>
      <path class="cls-1" d="m450.84,276.5c0,27.88.06,55.76-.07,83.63-.02,4.11,1.37,9.23-3.06,11.8-4.67,2.71-8.02-1.58-11.3-3.95-23.45-16.96-46.71-34.17-70.2-51.07-4.19-3.01-6.05-6.17-5.97-11.46.31-19.3.33-38.6,0-57.9-.09-5.36,2-8.35,6.11-11.32,23.47-16.92,46.73-34.15,70.16-51.13,3.27-2.37,6.5-6.8,11.22-4.04,4.42,2.58,3.02,7.7,3.04,11.8.13,27.88.07,55.76.07,83.63Z"/>
    </g>
  </g>
</svg>